<?xml version="1.0" encoding="utf-8" standalone="no"?>
<!DOCTYPE svg PUBLIC "-//W3C//DTD SVG 1.1//EN"
  "http://www.w3.org/Graphics/SVG/1.1/DTD/svg11.dtd">
<svg xmlns:xlink="http://www.w3.org/1999/xlink" width="475.08pt" height="349.028pt" viewBox="0 0 475.08 349.028" xmlns="http://www.w3.org/2000/svg" version="1.1">
 <metadata>
  <rdf:RDF xmlns:dc="http://purl.org/dc/elements/1.1/" xmlns:cc="http://creativecommons.org/ns#" xmlns:rdf="http://www.w3.org/1999/02/22-rdf-syntax-ns#">
   <cc:Work>
    <dc:type rdf:resource="http://purl.org/dc/dcmitype/StillImage"/>
    <dc:date>2026-04-18T09:21:55.909917</dc:date>
    <dc:format>image/svg+xml</dc:format>
    <dc:creator>
     <cc:Agent>
      <dc:title>Matplotlib v3.10.8, https://matplotlib.org/</dc:title>
     </cc:Agent>
    </dc:creator>
   </cc:Work>
  </rdf:RDF>
 </metadata>
 <defs>
  <style type="text/css">*{stroke-linejoin: round; stroke-linecap: butt}</style>
 </defs>
 <g id="figure_1">
  <g id="patch_1">
   <path d="M 0 349.028 
L 475.08 349.028 
L 475.08 0 
L 0 0 
z
" style="fill: #ffffff"/>
  </g>
  <g id="axes_1">
   <g id="patch_2">
    <path d="M 52.98 314.528 
L 471.48 314.528 
L 471.48 26.24 
L 52.98 26.24 
z
" style="fill: #ffffff"/>
   </g>
   <g id="matplotlib.axis_1">
    <g id="xtick_1">
     <g id="line2d_1">
      <path d="M 72.002727 314.528 
L 72.002727 26.24 
" clip-path="url(#p77ab5bf9c7)" style="fill: none; stroke: #b0b0b0; stroke-opacity: 0.35; stroke-width: 0.5; stroke-linecap: square"/>
     </g>
     <g id="line2d_2">
      <defs>
       <path id="m31023ffc7a" d="M 0 0 
L 0 -3 
" style="stroke: #000000; stroke-width: 0.5"/>
      </defs>
      <g>
       <use xlink:href="#m31023ffc7a" x="72.002727" y="314.528" style="stroke: #000000; stroke-width: 0.5"/>
      </g>
     </g>
     <g id="line2d_3">
      <defs>
       <path id="m955549d100" d="M 0 0 
L 0 3 
" style="stroke: #000000; stroke-width: 0.5"/>
      </defs>
      <g>
       <use xlink:href="#m955549d100" x="72.002727" y="26.24" style="stroke: #000000; stroke-width: 0.5"/>
      </g>
     </g>
     <g id="text_1">
      <!-- $\mathdefault{0}$ -->
      <g transform="translate(69.002727 326.223625) scale(0.12 -0.12)">
       <defs>
        <path id="STIXGeneral-Regular-30" d="M 3046 2112 
Q 3046 1683 2963 1302 
Q 2880 922 2717 602 
Q 2554 282 2266 96 
Q 1978 -90 1600 -90 
Q 1210 -90 915 108 
Q 621 307 461 640 
Q 301 973 227 1350 
Q 154 1728 154 2150 
Q 154 2746 301 3222 
Q 448 3699 790 4012 
Q 1133 4326 1626 4326 
Q 2253 4326 2649 3712 
Q 3046 3098 3046 2112 
z
M 2432 2080 
Q 2432 3091 2217 3625 
Q 2003 4160 1587 4160 
Q 1190 4160 979 3622 
Q 768 3085 768 2106 
Q 768 1120 979 598 
Q 1190 77 1600 77 
Q 2003 77 2217 598 
Q 2432 1120 2432 2080 
z
" transform="scale(0.015625)"/>
       </defs>
       <use xlink:href="#STIXGeneral-Regular-30" transform="translate(0 0.40625)"/>
      </g>
     </g>
    </g>
    <g id="xtick_2">
     <g id="line2d_4">
      <path d="M 148.093636 314.528 
L 148.093636 26.24 
" clip-path="url(#p77ab5bf9c7)" style="fill: none; stroke: #b0b0b0; stroke-opacity: 0.35; stroke-width: 0.5; stroke-linecap: square"/>
     </g>
     <g id="line2d_5">
      <g>
       <use xlink:href="#m31023ffc7a" x="148.093636" y="314.528" style="stroke: #000000; stroke-width: 0.5"/>
      </g>
     </g>
     <g id="line2d_6">
      <g>
       <use xlink:href="#m955549d100" x="148.093636" y="26.24" style="stroke: #000000; stroke-width: 0.5"/>
      </g>
     </g>
     <g id="text_2">
      <!-- $\mathdefault{1}$ -->
      <g transform="translate(145.093636 326.223625) scale(0.12 -0.12)">
       <defs>
        <path id="STIXGeneral-Regular-31" d="M 2522 0 
L 755 0 
L 755 96 
Q 1107 115 1235 227 
Q 1363 339 1363 608 
L 1363 3482 
Q 1363 3795 1171 3795 
Q 1082 3795 883 3718 
L 710 3654 
L 710 3744 
L 1856 4326 
L 1914 4307 
L 1914 486 
Q 1914 275 2042 185 
Q 2170 96 2522 96 
L 2522 0 
z
" transform="scale(0.015625)"/>
       </defs>
       <use xlink:href="#STIXGeneral-Regular-31" transform="translate(0 0.40625)"/>
      </g>
     </g>
    </g>
    <g id="xtick_3">
     <g id="line2d_7">
      <path d="M 224.184545 314.528 
L 224.184545 26.24 
" clip-path="url(#p77ab5bf9c7)" style="fill: none; stroke: #b0b0b0; stroke-opacity: 0.35; stroke-width: 0.5; stroke-linecap: square"/>
     </g>
     <g id="line2d_8">
      <g>
       <use xlink:href="#m31023ffc7a" x="224.184545" y="314.528" style="stroke: #000000; stroke-width: 0.5"/>
      </g>
     </g>
     <g id="line2d_9">
      <g>
       <use xlink:href="#m955549d100" x="224.184545" y="26.24" style="stroke: #000000; stroke-width: 0.5"/>
      </g>
     </g>
     <g id="text_3">
      <!-- $\mathdefault{2}$ -->
      <g transform="translate(221.184545 326.223625) scale(0.12 -0.12)">
       <defs>
        <path id="STIXGeneral-Regular-32" d="M 3034 877 
L 2688 0 
L 186 0 
L 186 77 
L 1325 1286 
Q 1773 1754 1965 2144 
Q 2157 2534 2157 2950 
Q 2157 3379 1920 3616 
Q 1683 3853 1267 3853 
Q 922 3853 720 3673 
Q 518 3494 326 3021 
L 192 3053 
Q 301 3648 630 3987 
Q 960 4326 1523 4326 
Q 2054 4326 2380 4006 
Q 2707 3686 2707 3200 
Q 2707 2477 1888 1613 
L 832 486 
L 2330 486 
Q 2541 486 2665 569 
Q 2790 653 2944 915 
L 3034 877 
z
" transform="scale(0.015625)"/>
       </defs>
       <use xlink:href="#STIXGeneral-Regular-32" transform="translate(0 0.40625)"/>
      </g>
     </g>
    </g>
    <g id="xtick_4">
     <g id="line2d_10">
      <path d="M 300.275455 314.528 
L 300.275455 26.24 
" clip-path="url(#p77ab5bf9c7)" style="fill: none; stroke: #b0b0b0; stroke-opacity: 0.35; stroke-width: 0.5; stroke-linecap: square"/>
     </g>
     <g id="line2d_11">
      <g>
       <use xlink:href="#m31023ffc7a" x="300.275455" y="314.528" style="stroke: #000000; stroke-width: 0.5"/>
      </g>
     </g>
     <g id="line2d_12">
      <g>
       <use xlink:href="#m955549d100" x="300.275455" y="26.24" style="stroke: #000000; stroke-width: 0.5"/>
      </g>
     </g>
     <g id="text_4">
      <!-- $\mathdefault{3}$ -->
      <g transform="translate(297.275455 326.223625) scale(0.12 -0.12)">
       <defs>
        <path id="STIXGeneral-Regular-33" d="M 390 3264 
L 288 3290 
Q 435 3770 748 4048 
Q 1062 4326 1542 4326 
Q 1990 4326 2265 4083 
Q 2541 3840 2541 3450 
Q 2541 2925 1946 2566 
Q 2298 2413 2477 2227 
Q 2758 1914 2758 1402 
Q 2758 890 2464 506 
Q 2246 211 1840 60 
Q 1434 -90 979 -90 
Q 262 -90 262 275 
Q 262 378 339 442 
Q 416 506 525 506 
Q 685 506 915 339 
Q 1197 141 1466 141 
Q 1818 141 2058 425 
Q 2298 710 2298 1120 
Q 2298 1856 1632 2048 
Q 1434 2112 979 2112 
L 979 2202 
Q 1338 2323 1517 2432 
Q 2035 2726 2035 3290 
Q 2035 3610 1852 3776 
Q 1670 3942 1344 3942 
Q 768 3942 390 3264 
z
" transform="scale(0.015625)"/>
       </defs>
       <use xlink:href="#STIXGeneral-Regular-33" transform="translate(0 0.40625)"/>
      </g>
     </g>
    </g>
    <g id="xtick_5">
     <g id="line2d_13">
      <path d="M 376.366364 314.528 
L 376.366364 26.24 
" clip-path="url(#p77ab5bf9c7)" style="fill: none; stroke: #b0b0b0; stroke-opacity: 0.35; stroke-width: 0.5; stroke-linecap: square"/>
     </g>
     <g id="line2d_14">
      <g>
       <use xlink:href="#m31023ffc7a" x="376.366364" y="314.528" style="stroke: #000000; stroke-width: 0.5"/>
      </g>
     </g>
     <g id="line2d_15">
      <g>
       <use xlink:href="#m955549d100" x="376.366364" y="26.24" style="stroke: #000000; stroke-width: 0.5"/>
      </g>
     </g>
     <g id="text_5">
      <!-- $\mathdefault{4}$ -->
      <g transform="translate(373.366364 326.223625) scale(0.12 -0.12)">
       <defs>
        <path id="STIXGeneral-Regular-34" d="M 3027 1069 
L 2368 1069 
L 2368 0 
L 1869 0 
L 1869 1069 
L 77 1069 
L 77 1478 
L 2086 4326 
L 2368 4326 
L 2368 1478 
L 3027 1478 
L 3027 1069 
z
M 1869 1478 
L 1869 3674 
L 333 1478 
L 1869 1478 
z
" transform="scale(0.015625)"/>
       </defs>
       <use xlink:href="#STIXGeneral-Regular-34" transform="translate(0 0.40625)"/>
      </g>
     </g>
    </g>
    <g id="xtick_6">
     <g id="line2d_16">
      <path d="M 452.457273 314.528 
L 452.457273 26.24 
" clip-path="url(#p77ab5bf9c7)" style="fill: none; stroke: #b0b0b0; stroke-opacity: 0.35; stroke-width: 0.5; stroke-linecap: square"/>
     </g>
     <g id="line2d_17">
      <g>
       <use xlink:href="#m31023ffc7a" x="452.457273" y="314.528" style="stroke: #000000; stroke-width: 0.5"/>
      </g>
     </g>
     <g id="line2d_18">
      <g>
       <use xlink:href="#m955549d100" x="452.457273" y="26.24" style="stroke: #000000; stroke-width: 0.5"/>
      </g>
     </g>
     <g id="text_6">
      <!-- $\mathdefault{5}$ -->
      <g transform="translate(449.457273 326.223625) scale(0.12 -0.12)">
       <defs>
        <path id="STIXGeneral-Regular-35" d="M 2803 4358 
L 2573 3814 
Q 2534 3731 2400 3731 
L 1158 3731 
L 902 3187 
Q 1606 3053 1920 2896 
Q 2234 2739 2502 2368 
Q 2726 2061 2726 1555 
Q 2726 1094 2576 780 
Q 2426 467 2099 224 
Q 1664 -90 1011 -90 
Q 646 -90 422 19 
Q 198 128 198 307 
Q 198 550 486 550 
Q 717 550 960 352 
Q 1210 147 1414 147 
Q 1747 147 2012 480 
Q 2278 813 2278 1229 
Q 2278 1843 1850 2189 
Q 1293 2637 486 2637 
Q 410 2637 410 2688 
L 416 2720 
L 1114 4237 
L 2438 4237 
Q 2547 4237 2608 4269 
Q 2669 4301 2746 4403 
L 2803 4358 
z
" transform="scale(0.015625)"/>
       </defs>
       <use xlink:href="#STIXGeneral-Regular-35" transform="translate(0 0.203125)"/>
      </g>
     </g>
    </g>
    <g id="xtick_7">
     <g id="line2d_19">
      <defs>
       <path id="m7e6f7589d8" d="M 0 0 
L 0 -1.5 
" style="stroke: #000000; stroke-width: 0.5"/>
      </defs>
      <g>
       <use xlink:href="#m7e6f7589d8" x="56.784545" y="314.528" style="stroke: #000000; stroke-width: 0.5"/>
      </g>
     </g>
     <g id="line2d_20">
      <defs>
       <path id="m5a0b1db1b3" d="M 0 0 
L 0 1.5 
" style="stroke: #000000; stroke-width: 0.5"/>
      </defs>
      <g>
       <use xlink:href="#m5a0b1db1b3" x="56.784545" y="26.24" style="stroke: #000000; stroke-width: 0.5"/>
      </g>
     </g>
    </g>
    <g id="xtick_8">
     <g id="line2d_21">
      <g>
       <use xlink:href="#m7e6f7589d8" x="87.220909" y="314.528" style="stroke: #000000; stroke-width: 0.5"/>
      </g>
     </g>
     <g id="line2d_22">
      <g>
       <use xlink:href="#m5a0b1db1b3" x="87.220909" y="26.24" style="stroke: #000000; stroke-width: 0.5"/>
      </g>
     </g>
    </g>
    <g id="xtick_9">
     <g id="line2d_23">
      <g>
       <use xlink:href="#m7e6f7589d8" x="102.439091" y="314.528" style="stroke: #000000; stroke-width: 0.5"/>
      </g>
     </g>
     <g id="line2d_24">
      <g>
       <use xlink:href="#m5a0b1db1b3" x="102.439091" y="26.24" style="stroke: #000000; stroke-width: 0.5"/>
      </g>
     </g>
    </g>
    <g id="xtick_10">
     <g id="line2d_25">
      <g>
       <use xlink:href="#m7e6f7589d8" x="117.657273" y="314.528" style="stroke: #000000; stroke-width: 0.5"/>
      </g>
     </g>
     <g id="line2d_26">
      <g>
       <use xlink:href="#m5a0b1db1b3" x="117.657273" y="26.24" style="stroke: #000000; stroke-width: 0.5"/>
      </g>
     </g>
    </g>
    <g id="xtick_11">
     <g id="line2d_27">
      <g>
       <use xlink:href="#m7e6f7589d8" x="132.875455" y="314.528" style="stroke: #000000; stroke-width: 0.5"/>
      </g>
     </g>
     <g id="line2d_28">
      <g>
       <use xlink:href="#m5a0b1db1b3" x="132.875455" y="26.24" style="stroke: #000000; stroke-width: 0.5"/>
      </g>
     </g>
    </g>
    <g id="xtick_12">
     <g id="line2d_29">
      <g>
       <use xlink:href="#m7e6f7589d8" x="163.311818" y="314.528" style="stroke: #000000; stroke-width: 0.5"/>
      </g>
     </g>
     <g id="line2d_30">
      <g>
       <use xlink:href="#m5a0b1db1b3" x="163.311818" y="26.24" style="stroke: #000000; stroke-width: 0.5"/>
      </g>
     </g>
    </g>
    <g id="xtick_13">
     <g id="line2d_31">
      <g>
       <use xlink:href="#m7e6f7589d8" x="178.53" y="314.528" style="stroke: #000000; stroke-width: 0.5"/>
      </g>
     </g>
     <g id="line2d_32">
      <g>
       <use xlink:href="#m5a0b1db1b3" x="178.53" y="26.24" style="stroke: #000000; stroke-width: 0.5"/>
      </g>
     </g>
    </g>
    <g id="xtick_14">
     <g id="line2d_33">
      <g>
       <use xlink:href="#m7e6f7589d8" x="193.748182" y="314.528" style="stroke: #000000; stroke-width: 0.5"/>
      </g>
     </g>
     <g id="line2d_34">
      <g>
       <use xlink:href="#m5a0b1db1b3" x="193.748182" y="26.24" style="stroke: #000000; stroke-width: 0.5"/>
      </g>
     </g>
    </g>
    <g id="xtick_15">
     <g id="line2d_35">
      <g>
       <use xlink:href="#m7e6f7589d8" x="208.966364" y="314.528" style="stroke: #000000; stroke-width: 0.5"/>
      </g>
     </g>
     <g id="line2d_36">
      <g>
       <use xlink:href="#m5a0b1db1b3" x="208.966364" y="26.24" style="stroke: #000000; stroke-width: 0.5"/>
      </g>
     </g>
    </g>
    <g id="xtick_16">
     <g id="line2d_37">
      <g>
       <use xlink:href="#m7e6f7589d8" x="239.402727" y="314.528" style="stroke: #000000; stroke-width: 0.5"/>
      </g>
     </g>
     <g id="line2d_38">
      <g>
       <use xlink:href="#m5a0b1db1b3" x="239.402727" y="26.24" style="stroke: #000000; stroke-width: 0.5"/>
      </g>
     </g>
    </g>
    <g id="xtick_17">
     <g id="line2d_39">
      <g>
       <use xlink:href="#m7e6f7589d8" x="254.620909" y="314.528" style="stroke: #000000; stroke-width: 0.5"/>
      </g>
     </g>
     <g id="line2d_40">
      <g>
       <use xlink:href="#m5a0b1db1b3" x="254.620909" y="26.24" style="stroke: #000000; stroke-width: 0.5"/>
      </g>
     </g>
    </g>
    <g id="xtick_18">
     <g id="line2d_41">
      <g>
       <use xlink:href="#m7e6f7589d8" x="269.839091" y="314.528" style="stroke: #000000; stroke-width: 0.5"/>
      </g>
     </g>
     <g id="line2d_42">
      <g>
       <use xlink:href="#m5a0b1db1b3" x="269.839091" y="26.24" style="stroke: #000000; stroke-width: 0.5"/>
      </g>
     </g>
    </g>
    <g id="xtick_19">
     <g id="line2d_43">
      <g>
       <use xlink:href="#m7e6f7589d8" x="285.057273" y="314.528" style="stroke: #000000; stroke-width: 0.5"/>
      </g>
     </g>
     <g id="line2d_44">
      <g>
       <use xlink:href="#m5a0b1db1b3" x="285.057273" y="26.24" style="stroke: #000000; stroke-width: 0.5"/>
      </g>
     </g>
    </g>
    <g id="xtick_20">
     <g id="line2d_45">
      <g>
       <use xlink:href="#m7e6f7589d8" x="315.493636" y="314.528" style="stroke: #000000; stroke-width: 0.5"/>
      </g>
     </g>
     <g id="line2d_46">
      <g>
       <use xlink:href="#m5a0b1db1b3" x="315.493636" y="26.24" style="stroke: #000000; stroke-width: 0.5"/>
      </g>
     </g>
    </g>
    <g id="xtick_21">
     <g id="line2d_47">
      <g>
       <use xlink:href="#m7e6f7589d8" x="330.711818" y="314.528" style="stroke: #000000; stroke-width: 0.5"/>
      </g>
     </g>
     <g id="line2d_48">
      <g>
       <use xlink:href="#m5a0b1db1b3" x="330.711818" y="26.24" style="stroke: #000000; stroke-width: 0.5"/>
      </g>
     </g>
    </g>
    <g id="xtick_22">
     <g id="line2d_49">
      <g>
       <use xlink:href="#m7e6f7589d8" x="345.93" y="314.528" style="stroke: #000000; stroke-width: 0.5"/>
      </g>
     </g>
     <g id="line2d_50">
      <g>
       <use xlink:href="#m5a0b1db1b3" x="345.93" y="26.24" style="stroke: #000000; stroke-width: 0.5"/>
      </g>
     </g>
    </g>
    <g id="xtick_23">
     <g id="line2d_51">
      <g>
       <use xlink:href="#m7e6f7589d8" x="361.148182" y="314.528" style="stroke: #000000; stroke-width: 0.5"/>
      </g>
     </g>
     <g id="line2d_52">
      <g>
       <use xlink:href="#m5a0b1db1b3" x="361.148182" y="26.24" style="stroke: #000000; stroke-width: 0.5"/>
      </g>
     </g>
    </g>
    <g id="xtick_24">
     <g id="line2d_53">
      <g>
       <use xlink:href="#m7e6f7589d8" x="391.584545" y="314.528" style="stroke: #000000; stroke-width: 0.5"/>
      </g>
     </g>
     <g id="line2d_54">
      <g>
       <use xlink:href="#m5a0b1db1b3" x="391.584545" y="26.24" style="stroke: #000000; stroke-width: 0.5"/>
      </g>
     </g>
    </g>
    <g id="xtick_25">
     <g id="line2d_55">
      <g>
       <use xlink:href="#m7e6f7589d8" x="406.802727" y="314.528" style="stroke: #000000; stroke-width: 0.5"/>
      </g>
     </g>
     <g id="line2d_56">
      <g>
       <use xlink:href="#m5a0b1db1b3" x="406.802727" y="26.24" style="stroke: #000000; stroke-width: 0.5"/>
      </g>
     </g>
    </g>
    <g id="xtick_26">
     <g id="line2d_57">
      <g>
       <use xlink:href="#m7e6f7589d8" x="422.020909" y="314.528" style="stroke: #000000; stroke-width: 0.5"/>
      </g>
     </g>
     <g id="line2d_58">
      <g>
       <use xlink:href="#m5a0b1db1b3" x="422.020909" y="26.24" style="stroke: #000000; stroke-width: 0.5"/>
      </g>
     </g>
    </g>
    <g id="xtick_27">
     <g id="line2d_59">
      <g>
       <use xlink:href="#m7e6f7589d8" x="437.239091" y="314.528" style="stroke: #000000; stroke-width: 0.5"/>
      </g>
     </g>
     <g id="line2d_60">
      <g>
       <use xlink:href="#m5a0b1db1b3" x="437.239091" y="26.24" style="stroke: #000000; stroke-width: 0.5"/>
      </g>
     </g>
    </g>
    <g id="xtick_28">
     <g id="line2d_61">
      <g>
       <use xlink:href="#m7e6f7589d8" x="467.675455" y="314.528" style="stroke: #000000; stroke-width: 0.5"/>
      </g>
     </g>
     <g id="line2d_62">
      <g>
       <use xlink:href="#m5a0b1db1b3" x="467.675455" y="26.24" style="stroke: #000000; stroke-width: 0.5"/>
      </g>
     </g>
    </g>
    <g id="text_7">
     <!-- Time -->
     <g transform="translate(247.453438 342.389562) scale(0.14 -0.14)">
      <defs>
       <path id="STIXGeneral-Regular-54" d="M 3795 3149 
L 3642 3149 
Q 3539 3674 3353 3821 
Q 3168 3968 2656 3968 
L 2278 3968 
L 2278 710 
Q 2278 346 2387 243 
Q 2496 141 2893 122 
L 2893 0 
L 1024 0 
L 1024 122 
Q 1427 147 1526 256 
Q 1626 365 1626 787 
L 1626 3968 
L 1242 3968 
Q 723 3968 540 3817 
Q 358 3667 262 3149 
L 109 3149 
L 154 4237 
L 3750 4237 
L 3795 3149 
z
" transform="scale(0.015625)"/>
       <path id="STIXGeneral-Regular-69" d="M 1152 4045 
Q 1152 3904 1056 3811 
Q 960 3718 819 3718 
Q 685 3718 592 3811 
Q 499 3904 499 4045 
Q 499 4179 595 4275 
Q 691 4371 826 4371 
Q 966 4371 1059 4275 
Q 1152 4179 1152 4045 
z
M 1619 0 
L 102 0 
L 102 96 
Q 435 115 521 211 
Q 608 307 608 666 
L 608 2118 
Q 608 2342 563 2432 
Q 518 2522 397 2522 
Q 243 2522 128 2490 
L 128 2592 
L 1120 2944 
L 1146 2918 
L 1146 672 
Q 1146 314 1226 218 
Q 1306 122 1619 96 
L 1619 0 
z
" transform="scale(0.015625)"/>
       <path id="STIXGeneral-Regular-6d" d="M 4960 0 
L 3565 0 
L 3565 96 
Q 3834 122 3907 208 
Q 3981 294 3981 576 
L 3981 1894 
Q 3981 2278 3869 2444 
Q 3757 2611 3488 2611 
Q 3264 2611 3107 2521 
Q 2950 2432 2803 2221 
L 2803 608 
Q 2803 301 2896 201 
Q 2989 102 3264 96 
L 3264 0 
L 1830 0 
L 1830 96 
Q 2112 115 2189 188 
Q 2266 262 2266 550 
L 2266 1901 
Q 2266 2611 1850 2611 
Q 1670 2611 1468 2531 
Q 1267 2451 1171 2336 
Q 1088 2240 1088 2227 
L 1088 448 
Q 1088 243 1177 176 
Q 1267 109 1523 96 
L 1523 0 
L 102 0 
L 102 96 
Q 371 102 460 195 
Q 550 288 550 563 
L 550 2150 
Q 550 2387 499 2480 
Q 448 2573 326 2573 
Q 230 2573 122 2547 
L 122 2656 
Q 557 2778 1011 2944 
L 1062 2925 
L 1062 2451 
L 1075 2451 
Q 1363 2752 1584 2848 
Q 1805 2944 2054 2944 
Q 2560 2944 2733 2406 
Q 3232 2944 3776 2944 
Q 4518 2944 4518 1792 
L 4518 493 
Q 4518 282 4582 202 
Q 4646 122 4794 109 
L 4960 96 
L 4960 0 
z
" transform="scale(0.015625)"/>
       <path id="STIXGeneral-Regular-65" d="M 2611 1050 
L 2714 1005 
Q 2330 -64 1376 -64 
Q 813 -64 486 329 
Q 160 723 160 1389 
Q 160 2074 525 2509 
Q 890 2944 1485 2944 
Q 2061 2944 2374 2502 
Q 2560 2246 2592 1773 
L 621 1773 
Q 646 1370 700 1158 
Q 755 947 915 730 
Q 1184 378 1626 378 
Q 1939 378 2153 531 
Q 2368 685 2611 1050 
z
M 634 1978 
L 1939 1978 
Q 1882 2381 1750 2547 
Q 1619 2714 1312 2714 
Q 1043 2714 864 2525 
Q 685 2336 634 1978 
z
" transform="scale(0.015625)"/>
      </defs>
      <use xlink:href="#STIXGeneral-Regular-54"/>
      <use xlink:href="#STIXGeneral-Regular-69" transform="translate(61.099991 0)"/>
      <use xlink:href="#STIXGeneral-Regular-6d" transform="translate(88.899979 0)"/>
      <use xlink:href="#STIXGeneral-Regular-65" transform="translate(166.699966 0)"/>
     </g>
    </g>
   </g>
   <g id="matplotlib.axis_2">
    <g id="ytick_1">
     <g id="line2d_63">
      <path d="M 52.98 289.484306 
L 471.48 289.484306 
" clip-path="url(#p77ab5bf9c7)" style="fill: none; stroke: #b0b0b0; stroke-opacity: 0.35; stroke-width: 0.5; stroke-linecap: square"/>
     </g>
     <g id="line2d_64">
      <defs>
       <path id="m0057cd6b30" d="M 0 0 
L 3 0 
" style="stroke: #000000; stroke-width: 0.5"/>
      </defs>
      <g>
       <use xlink:href="#m0057cd6b30" x="52.98" y="289.484306" style="stroke: #000000; stroke-width: 0.5"/>
      </g>
     </g>
     <g id="line2d_65">
      <defs>
       <path id="m280888e361" d="M 0 0 
L -3 0 
" style="stroke: #000000; stroke-width: 0.5"/>
      </defs>
      <g>
       <use xlink:href="#m280888e361" x="471.48" y="289.484306" style="stroke: #000000; stroke-width: 0.5"/>
      </g>
     </g>
     <g id="text_8">
      <!-- $\mathdefault{−1.50}$ -->
      <g transform="translate(20.2 293.582118) scale(0.12 -0.12)">
       <defs>
        <path id="STIXGeneral-Regular-2212" d="M 3974 1408 
L 410 1408 
L 410 1830 
L 3974 1830 
L 3974 1408 
z
" transform="scale(0.015625)"/>
        <path id="STIXGeneral-Regular-2e" d="M 1158 275 
Q 1158 134 1052 32 
Q 947 -70 800 -70 
Q 653 -70 550 32 
Q 448 134 448 281 
Q 448 429 553 534 
Q 659 640 806 640 
Q 947 640 1052 531 
Q 1158 422 1158 275 
z
" transform="scale(0.015625)"/>
       </defs>
       <use xlink:href="#STIXGeneral-Regular-2212" transform="translate(0 0.203125)"/>
       <use xlink:href="#STIXGeneral-Regular-31" transform="translate(68.499985 0.203125)"/>
       <use xlink:href="#STIXGeneral-Regular-2e" transform="translate(118.499969 0.203125)"/>
       <use xlink:href="#STIXGeneral-Regular-35" transform="translate(143.499954 0.203125)"/>
       <use xlink:href="#STIXGeneral-Regular-30" transform="translate(193.499939 0.203125)"/>
      </g>
     </g>
    </g>
    <g id="ytick_2">
     <g id="line2d_66">
      <path d="M 52.98 256.429105 
L 471.48 256.429105 
" clip-path="url(#p77ab5bf9c7)" style="fill: none; stroke: #b0b0b0; stroke-opacity: 0.35; stroke-width: 0.5; stroke-linecap: square"/>
     </g>
     <g id="line2d_67">
      <g>
       <use xlink:href="#m0057cd6b30" x="52.98" y="256.429105" style="stroke: #000000; stroke-width: 0.5"/>
      </g>
     </g>
     <g id="line2d_68">
      <g>
       <use xlink:href="#m280888e361" x="471.48" y="256.429105" style="stroke: #000000; stroke-width: 0.5"/>
      </g>
     </g>
     <g id="text_9">
      <!-- $\mathdefault{−1.25}$ -->
      <g transform="translate(20.2 260.526917) scale(0.12 -0.12)">
       <use xlink:href="#STIXGeneral-Regular-2212" transform="translate(0 0.203125)"/>
       <use xlink:href="#STIXGeneral-Regular-31" transform="translate(68.499985 0.203125)"/>
       <use xlink:href="#STIXGeneral-Regular-2e" transform="translate(118.499969 0.203125)"/>
       <use xlink:href="#STIXGeneral-Regular-32" transform="translate(143.499954 0.203125)"/>
       <use xlink:href="#STIXGeneral-Regular-35" transform="translate(193.499939 0.203125)"/>
      </g>
     </g>
    </g>
    <g id="ytick_3">
     <g id="line2d_69">
      <path d="M 52.98 223.373904 
L 471.48 223.373904 
" clip-path="url(#p77ab5bf9c7)" style="fill: none; stroke: #b0b0b0; stroke-opacity: 0.35; stroke-width: 0.5; stroke-linecap: square"/>
     </g>
     <g id="line2d_70">
      <g>
       <use xlink:href="#m0057cd6b30" x="52.98" y="223.373904" style="stroke: #000000; stroke-width: 0.5"/>
      </g>
     </g>
     <g id="line2d_71">
      <g>
       <use xlink:href="#m280888e361" x="471.48" y="223.373904" style="stroke: #000000; stroke-width: 0.5"/>
      </g>
     </g>
     <g id="text_10">
      <!-- $\mathdefault{−1.00}$ -->
      <g transform="translate(20.2 227.471717) scale(0.12 -0.12)">
       <use xlink:href="#STIXGeneral-Regular-2212" transform="translate(0 0.40625)"/>
       <use xlink:href="#STIXGeneral-Regular-31" transform="translate(68.499985 0.40625)"/>
       <use xlink:href="#STIXGeneral-Regular-2e" transform="translate(118.499969 0.40625)"/>
       <use xlink:href="#STIXGeneral-Regular-30" transform="translate(143.499954 0.40625)"/>
       <use xlink:href="#STIXGeneral-Regular-30" transform="translate(193.499939 0.40625)"/>
      </g>
     </g>
    </g>
    <g id="ytick_4">
     <g id="line2d_72">
      <path d="M 52.98 190.318703 
L 471.48 190.318703 
" clip-path="url(#p77ab5bf9c7)" style="fill: none; stroke: #b0b0b0; stroke-opacity: 0.35; stroke-width: 0.5; stroke-linecap: square"/>
     </g>
     <g id="line2d_73">
      <g>
       <use xlink:href="#m0057cd6b30" x="52.98" y="190.318703" style="stroke: #000000; stroke-width: 0.5"/>
      </g>
     </g>
     <g id="line2d_74">
      <g>
       <use xlink:href="#m280888e361" x="471.48" y="190.318703" style="stroke: #000000; stroke-width: 0.5"/>
      </g>
     </g>
     <g id="text_11">
      <!-- $\mathdefault{−0.75}$ -->
      <g transform="translate(20.2 194.416516) scale(0.12 -0.12)">
       <defs>
        <path id="STIXGeneral-Regular-37" d="M 2874 4134 
L 1517 -51 
L 1101 -51 
L 2368 3763 
L 992 3763 
Q 717 3763 582 3667 
Q 448 3571 243 3238 
L 128 3296 
L 512 4237 
L 2874 4237 
L 2874 4134 
z
" transform="scale(0.015625)"/>
       </defs>
       <use xlink:href="#STIXGeneral-Regular-2212" transform="translate(0 0.203125)"/>
       <use xlink:href="#STIXGeneral-Regular-30" transform="translate(68.499985 0.203125)"/>
       <use xlink:href="#STIXGeneral-Regular-2e" transform="translate(118.499969 0.203125)"/>
       <use xlink:href="#STIXGeneral-Regular-37" transform="translate(143.499954 0.203125)"/>
       <use xlink:href="#STIXGeneral-Regular-35" transform="translate(193.499939 0.203125)"/>
      </g>
     </g>
    </g>
    <g id="ytick_5">
     <g id="line2d_75">
      <path d="M 52.98 157.263502 
L 471.48 157.263502 
" clip-path="url(#p77ab5bf9c7)" style="fill: none; stroke: #b0b0b0; stroke-opacity: 0.35; stroke-width: 0.5; stroke-linecap: square"/>
     </g>
     <g id="line2d_76">
      <g>
       <use xlink:href="#m0057cd6b30" x="52.98" y="157.263502" style="stroke: #000000; stroke-width: 0.5"/>
      </g>
     </g>
     <g id="line2d_77">
      <g>
       <use xlink:href="#m280888e361" x="471.48" y="157.263502" style="stroke: #000000; stroke-width: 0.5"/>
      </g>
     </g>
     <g id="text_12">
      <!-- $\mathdefault{−0.50}$ -->
      <g transform="translate(20.2 161.361315) scale(0.12 -0.12)">
       <use xlink:href="#STIXGeneral-Regular-2212" transform="translate(0 0.203125)"/>
       <use xlink:href="#STIXGeneral-Regular-30" transform="translate(68.499985 0.203125)"/>
       <use xlink:href="#STIXGeneral-Regular-2e" transform="translate(118.499969 0.203125)"/>
       <use xlink:href="#STIXGeneral-Regular-35" transform="translate(143.499954 0.203125)"/>
       <use xlink:href="#STIXGeneral-Regular-30" transform="translate(193.499939 0.203125)"/>
      </g>
     </g>
    </g>
    <g id="ytick_6">
     <g id="line2d_78">
      <path d="M 52.98 124.208301 
L 471.48 124.208301 
" clip-path="url(#p77ab5bf9c7)" style="fill: none; stroke: #b0b0b0; stroke-opacity: 0.35; stroke-width: 0.5; stroke-linecap: square"/>
     </g>
     <g id="line2d_79">
      <g>
       <use xlink:href="#m0057cd6b30" x="52.98" y="124.208301" style="stroke: #000000; stroke-width: 0.5"/>
      </g>
     </g>
     <g id="line2d_80">
      <g>
       <use xlink:href="#m280888e361" x="471.48" y="124.208301" style="stroke: #000000; stroke-width: 0.5"/>
      </g>
     </g>
     <g id="text_13">
      <!-- $\mathdefault{−0.25}$ -->
      <g transform="translate(20.2 128.306114) scale(0.12 -0.12)">
       <use xlink:href="#STIXGeneral-Regular-2212" transform="translate(0 0.203125)"/>
       <use xlink:href="#STIXGeneral-Regular-30" transform="translate(68.499985 0.203125)"/>
       <use xlink:href="#STIXGeneral-Regular-2e" transform="translate(118.499969 0.203125)"/>
       <use xlink:href="#STIXGeneral-Regular-32" transform="translate(143.499954 0.203125)"/>
       <use xlink:href="#STIXGeneral-Regular-35" transform="translate(193.499939 0.203125)"/>
      </g>
     </g>
    </g>
    <g id="ytick_7">
     <g id="line2d_81">
      <path d="M 52.98 91.153101 
L 471.48 91.153101 
" clip-path="url(#p77ab5bf9c7)" style="fill: none; stroke: #b0b0b0; stroke-opacity: 0.35; stroke-width: 0.5; stroke-linecap: square"/>
     </g>
     <g id="line2d_82">
      <g>
       <use xlink:href="#m0057cd6b30" x="52.98" y="91.153101" style="stroke: #000000; stroke-width: 0.5"/>
      </g>
     </g>
     <g id="line2d_83">
      <g>
       <use xlink:href="#m280888e361" x="471.48" y="91.153101" style="stroke: #000000; stroke-width: 0.5"/>
      </g>
     </g>
     <g id="text_14">
      <!-- $\mathdefault{0.00}$ -->
      <g transform="translate(28.48 95.250913) scale(0.12 -0.12)">
       <use xlink:href="#STIXGeneral-Regular-30" transform="translate(0 0.40625)"/>
       <use xlink:href="#STIXGeneral-Regular-2e" transform="translate(49.999985 0.40625)"/>
       <use xlink:href="#STIXGeneral-Regular-30" transform="translate(74.999969 0.40625)"/>
       <use xlink:href="#STIXGeneral-Regular-30" transform="translate(124.999954 0.40625)"/>
      </g>
     </g>
    </g>
    <g id="ytick_8">
     <g id="line2d_84">
      <path d="M 52.98 58.0979 
L 471.48 58.0979 
" clip-path="url(#p77ab5bf9c7)" style="fill: none; stroke: #b0b0b0; stroke-opacity: 0.35; stroke-width: 0.5; stroke-linecap: square"/>
     </g>
     <g id="line2d_85">
      <g>
       <use xlink:href="#m0057cd6b30" x="52.98" y="58.0979" style="stroke: #000000; stroke-width: 0.5"/>
      </g>
     </g>
     <g id="line2d_86">
      <g>
       <use xlink:href="#m280888e361" x="471.48" y="58.0979" style="stroke: #000000; stroke-width: 0.5"/>
      </g>
     </g>
     <g id="text_15">
      <!-- $\mathdefault{0.25}$ -->
      <g transform="translate(28.48 62.195712) scale(0.12 -0.12)">
       <use xlink:href="#STIXGeneral-Regular-30" transform="translate(0 0.203125)"/>
       <use xlink:href="#STIXGeneral-Regular-2e" transform="translate(49.999985 0.203125)"/>
       <use xlink:href="#STIXGeneral-Regular-32" transform="translate(74.999969 0.203125)"/>
       <use xlink:href="#STIXGeneral-Regular-35" transform="translate(124.999954 0.203125)"/>
      </g>
     </g>
    </g>
    <g id="ytick_9">
     <g id="line2d_87">
      <defs>
       <path id="m3e508e0f1a" d="M 0 0 
L 1.5 0 
" style="stroke: #000000; stroke-width: 0.5"/>
      </defs>
      <g>
       <use xlink:href="#m3e508e0f1a" x="52.98" y="309.317426" style="stroke: #000000; stroke-width: 0.5"/>
      </g>
     </g>
     <g id="line2d_88">
      <defs>
       <path id="m33a5e0041d" d="M 0 0 
L -1.5 0 
" style="stroke: #000000; stroke-width: 0.5"/>
      </defs>
      <g>
       <use xlink:href="#m33a5e0041d" x="471.48" y="309.317426" style="stroke: #000000; stroke-width: 0.5"/>
      </g>
     </g>
    </g>
    <g id="ytick_10">
     <g id="line2d_89">
      <g>
       <use xlink:href="#m3e508e0f1a" x="52.98" y="302.706386" style="stroke: #000000; stroke-width: 0.5"/>
      </g>
     </g>
     <g id="line2d_90">
      <g>
       <use xlink:href="#m33a5e0041d" x="471.48" y="302.706386" style="stroke: #000000; stroke-width: 0.5"/>
      </g>
     </g>
    </g>
    <g id="ytick_11">
     <g id="line2d_91">
      <g>
       <use xlink:href="#m3e508e0f1a" x="52.98" y="296.095346" style="stroke: #000000; stroke-width: 0.5"/>
      </g>
     </g>
     <g id="line2d_92">
      <g>
       <use xlink:href="#m33a5e0041d" x="471.48" y="296.095346" style="stroke: #000000; stroke-width: 0.5"/>
      </g>
     </g>
    </g>
    <g id="ytick_12">
     <g id="line2d_93">
      <g>
       <use xlink:href="#m3e508e0f1a" x="52.98" y="282.873266" style="stroke: #000000; stroke-width: 0.5"/>
      </g>
     </g>
     <g id="line2d_94">
      <g>
       <use xlink:href="#m33a5e0041d" x="471.48" y="282.873266" style="stroke: #000000; stroke-width: 0.5"/>
      </g>
     </g>
    </g>
    <g id="ytick_13">
     <g id="line2d_95">
      <g>
       <use xlink:href="#m3e508e0f1a" x="52.98" y="276.262225" style="stroke: #000000; stroke-width: 0.5"/>
      </g>
     </g>
     <g id="line2d_96">
      <g>
       <use xlink:href="#m33a5e0041d" x="471.48" y="276.262225" style="stroke: #000000; stroke-width: 0.5"/>
      </g>
     </g>
    </g>
    <g id="ytick_14">
     <g id="line2d_97">
      <g>
       <use xlink:href="#m3e508e0f1a" x="52.98" y="269.651185" style="stroke: #000000; stroke-width: 0.5"/>
      </g>
     </g>
     <g id="line2d_98">
      <g>
       <use xlink:href="#m33a5e0041d" x="471.48" y="269.651185" style="stroke: #000000; stroke-width: 0.5"/>
      </g>
     </g>
    </g>
    <g id="ytick_15">
     <g id="line2d_99">
      <g>
       <use xlink:href="#m3e508e0f1a" x="52.98" y="263.040145" style="stroke: #000000; stroke-width: 0.5"/>
      </g>
     </g>
     <g id="line2d_100">
      <g>
       <use xlink:href="#m33a5e0041d" x="471.48" y="263.040145" style="stroke: #000000; stroke-width: 0.5"/>
      </g>
     </g>
    </g>
    <g id="ytick_16">
     <g id="line2d_101">
      <g>
       <use xlink:href="#m3e508e0f1a" x="52.98" y="249.818065" style="stroke: #000000; stroke-width: 0.5"/>
      </g>
     </g>
     <g id="line2d_102">
      <g>
       <use xlink:href="#m33a5e0041d" x="471.48" y="249.818065" style="stroke: #000000; stroke-width: 0.5"/>
      </g>
     </g>
    </g>
    <g id="ytick_17">
     <g id="line2d_103">
      <g>
       <use xlink:href="#m3e508e0f1a" x="52.98" y="243.207025" style="stroke: #000000; stroke-width: 0.5"/>
      </g>
     </g>
     <g id="line2d_104">
      <g>
       <use xlink:href="#m33a5e0041d" x="471.48" y="243.207025" style="stroke: #000000; stroke-width: 0.5"/>
      </g>
     </g>
    </g>
    <g id="ytick_18">
     <g id="line2d_105">
      <g>
       <use xlink:href="#m3e508e0f1a" x="52.98" y="236.595984" style="stroke: #000000; stroke-width: 0.5"/>
      </g>
     </g>
     <g id="line2d_106">
      <g>
       <use xlink:href="#m33a5e0041d" x="471.48" y="236.595984" style="stroke: #000000; stroke-width: 0.5"/>
      </g>
     </g>
    </g>
    <g id="ytick_19">
     <g id="line2d_107">
      <g>
       <use xlink:href="#m3e508e0f1a" x="52.98" y="229.984944" style="stroke: #000000; stroke-width: 0.5"/>
      </g>
     </g>
     <g id="line2d_108">
      <g>
       <use xlink:href="#m33a5e0041d" x="471.48" y="229.984944" style="stroke: #000000; stroke-width: 0.5"/>
      </g>
     </g>
    </g>
    <g id="ytick_20">
     <g id="line2d_109">
      <g>
       <use xlink:href="#m3e508e0f1a" x="52.98" y="216.762864" style="stroke: #000000; stroke-width: 0.5"/>
      </g>
     </g>
     <g id="line2d_110">
      <g>
       <use xlink:href="#m33a5e0041d" x="471.48" y="216.762864" style="stroke: #000000; stroke-width: 0.5"/>
      </g>
     </g>
    </g>
    <g id="ytick_21">
     <g id="line2d_111">
      <g>
       <use xlink:href="#m3e508e0f1a" x="52.98" y="210.151824" style="stroke: #000000; stroke-width: 0.5"/>
      </g>
     </g>
     <g id="line2d_112">
      <g>
       <use xlink:href="#m33a5e0041d" x="471.48" y="210.151824" style="stroke: #000000; stroke-width: 0.5"/>
      </g>
     </g>
    </g>
    <g id="ytick_22">
     <g id="line2d_113">
      <g>
       <use xlink:href="#m3e508e0f1a" x="52.98" y="203.540784" style="stroke: #000000; stroke-width: 0.5"/>
      </g>
     </g>
     <g id="line2d_114">
      <g>
       <use xlink:href="#m33a5e0041d" x="471.48" y="203.540784" style="stroke: #000000; stroke-width: 0.5"/>
      </g>
     </g>
    </g>
    <g id="ytick_23">
     <g id="line2d_115">
      <g>
       <use xlink:href="#m3e508e0f1a" x="52.98" y="196.929743" style="stroke: #000000; stroke-width: 0.5"/>
      </g>
     </g>
     <g id="line2d_116">
      <g>
       <use xlink:href="#m33a5e0041d" x="471.48" y="196.929743" style="stroke: #000000; stroke-width: 0.5"/>
      </g>
     </g>
    </g>
    <g id="ytick_24">
     <g id="line2d_117">
      <g>
       <use xlink:href="#m3e508e0f1a" x="52.98" y="183.707663" style="stroke: #000000; stroke-width: 0.5"/>
      </g>
     </g>
     <g id="line2d_118">
      <g>
       <use xlink:href="#m33a5e0041d" x="471.48" y="183.707663" style="stroke: #000000; stroke-width: 0.5"/>
      </g>
     </g>
    </g>
    <g id="ytick_25">
     <g id="line2d_119">
      <g>
       <use xlink:href="#m3e508e0f1a" x="52.98" y="177.096623" style="stroke: #000000; stroke-width: 0.5"/>
      </g>
     </g>
     <g id="line2d_120">
      <g>
       <use xlink:href="#m33a5e0041d" x="471.48" y="177.096623" style="stroke: #000000; stroke-width: 0.5"/>
      </g>
     </g>
    </g>
    <g id="ytick_26">
     <g id="line2d_121">
      <g>
       <use xlink:href="#m3e508e0f1a" x="52.98" y="170.485583" style="stroke: #000000; stroke-width: 0.5"/>
      </g>
     </g>
     <g id="line2d_122">
      <g>
       <use xlink:href="#m33a5e0041d" x="471.48" y="170.485583" style="stroke: #000000; stroke-width: 0.5"/>
      </g>
     </g>
    </g>
    <g id="ytick_27">
     <g id="line2d_123">
      <g>
       <use xlink:href="#m3e508e0f1a" x="52.98" y="163.874542" style="stroke: #000000; stroke-width: 0.5"/>
      </g>
     </g>
     <g id="line2d_124">
      <g>
       <use xlink:href="#m33a5e0041d" x="471.48" y="163.874542" style="stroke: #000000; stroke-width: 0.5"/>
      </g>
     </g>
    </g>
    <g id="ytick_28">
     <g id="line2d_125">
      <g>
       <use xlink:href="#m3e508e0f1a" x="52.98" y="150.652462" style="stroke: #000000; stroke-width: 0.5"/>
      </g>
     </g>
     <g id="line2d_126">
      <g>
       <use xlink:href="#m33a5e0041d" x="471.48" y="150.652462" style="stroke: #000000; stroke-width: 0.5"/>
      </g>
     </g>
    </g>
    <g id="ytick_29">
     <g id="line2d_127">
      <g>
       <use xlink:href="#m3e508e0f1a" x="52.98" y="144.041422" style="stroke: #000000; stroke-width: 0.5"/>
      </g>
     </g>
     <g id="line2d_128">
      <g>
       <use xlink:href="#m33a5e0041d" x="471.48" y="144.041422" style="stroke: #000000; stroke-width: 0.5"/>
      </g>
     </g>
    </g>
    <g id="ytick_30">
     <g id="line2d_129">
      <g>
       <use xlink:href="#m3e508e0f1a" x="52.98" y="137.430382" style="stroke: #000000; stroke-width: 0.5"/>
      </g>
     </g>
     <g id="line2d_130">
      <g>
       <use xlink:href="#m33a5e0041d" x="471.48" y="137.430382" style="stroke: #000000; stroke-width: 0.5"/>
      </g>
     </g>
    </g>
    <g id="ytick_31">
     <g id="line2d_131">
      <g>
       <use xlink:href="#m3e508e0f1a" x="52.98" y="130.819342" style="stroke: #000000; stroke-width: 0.5"/>
      </g>
     </g>
     <g id="line2d_132">
      <g>
       <use xlink:href="#m33a5e0041d" x="471.48" y="130.819342" style="stroke: #000000; stroke-width: 0.5"/>
      </g>
     </g>
    </g>
    <g id="ytick_32">
     <g id="line2d_133">
      <g>
       <use xlink:href="#m3e508e0f1a" x="52.98" y="117.597261" style="stroke: #000000; stroke-width: 0.5"/>
      </g>
     </g>
     <g id="line2d_134">
      <g>
       <use xlink:href="#m33a5e0041d" x="471.48" y="117.597261" style="stroke: #000000; stroke-width: 0.5"/>
      </g>
     </g>
    </g>
    <g id="ytick_33">
     <g id="line2d_135">
      <g>
       <use xlink:href="#m3e508e0f1a" x="52.98" y="110.986221" style="stroke: #000000; stroke-width: 0.5"/>
      </g>
     </g>
     <g id="line2d_136">
      <g>
       <use xlink:href="#m33a5e0041d" x="471.48" y="110.986221" style="stroke: #000000; stroke-width: 0.5"/>
      </g>
     </g>
    </g>
    <g id="ytick_34">
     <g id="line2d_137">
      <g>
       <use xlink:href="#m3e508e0f1a" x="52.98" y="104.375181" style="stroke: #000000; stroke-width: 0.5"/>
      </g>
     </g>
     <g id="line2d_138">
      <g>
       <use xlink:href="#m33a5e0041d" x="471.48" y="104.375181" style="stroke: #000000; stroke-width: 0.5"/>
      </g>
     </g>
    </g>
    <g id="ytick_35">
     <g id="line2d_139">
      <g>
       <use xlink:href="#m3e508e0f1a" x="52.98" y="97.764141" style="stroke: #000000; stroke-width: 0.5"/>
      </g>
     </g>
     <g id="line2d_140">
      <g>
       <use xlink:href="#m33a5e0041d" x="471.48" y="97.764141" style="stroke: #000000; stroke-width: 0.5"/>
      </g>
     </g>
    </g>
    <g id="ytick_36">
     <g id="line2d_141">
      <g>
       <use xlink:href="#m3e508e0f1a" x="52.98" y="84.54206" style="stroke: #000000; stroke-width: 0.5"/>
      </g>
     </g>
     <g id="line2d_142">
      <g>
       <use xlink:href="#m33a5e0041d" x="471.48" y="84.54206" style="stroke: #000000; stroke-width: 0.5"/>
      </g>
     </g>
    </g>
    <g id="ytick_37">
     <g id="line2d_143">
      <g>
       <use xlink:href="#m3e508e0f1a" x="52.98" y="77.93102" style="stroke: #000000; stroke-width: 0.5"/>
      </g>
     </g>
     <g id="line2d_144">
      <g>
       <use xlink:href="#m33a5e0041d" x="471.48" y="77.93102" style="stroke: #000000; stroke-width: 0.5"/>
      </g>
     </g>
    </g>
    <g id="ytick_38">
     <g id="line2d_145">
      <g>
       <use xlink:href="#m3e508e0f1a" x="52.98" y="71.31998" style="stroke: #000000; stroke-width: 0.5"/>
      </g>
     </g>
     <g id="line2d_146">
      <g>
       <use xlink:href="#m33a5e0041d" x="471.48" y="71.31998" style="stroke: #000000; stroke-width: 0.5"/>
      </g>
     </g>
    </g>
    <g id="ytick_39">
     <g id="line2d_147">
      <g>
       <use xlink:href="#m3e508e0f1a" x="52.98" y="64.70894" style="stroke: #000000; stroke-width: 0.5"/>
      </g>
     </g>
     <g id="line2d_148">
      <g>
       <use xlink:href="#m33a5e0041d" x="471.48" y="64.70894" style="stroke: #000000; stroke-width: 0.5"/>
      </g>
     </g>
    </g>
    <g id="ytick_40">
     <g id="line2d_149">
      <g>
       <use xlink:href="#m3e508e0f1a" x="52.98" y="51.486859" style="stroke: #000000; stroke-width: 0.5"/>
      </g>
     </g>
     <g id="line2d_150">
      <g>
       <use xlink:href="#m33a5e0041d" x="471.48" y="51.486859" style="stroke: #000000; stroke-width: 0.5"/>
      </g>
     </g>
    </g>
    <g id="ytick_41">
     <g id="line2d_151">
      <g>
       <use xlink:href="#m3e508e0f1a" x="52.98" y="44.875819" style="stroke: #000000; stroke-width: 0.5"/>
      </g>
     </g>
     <g id="line2d_152">
      <g>
       <use xlink:href="#m33a5e0041d" x="471.48" y="44.875819" style="stroke: #000000; stroke-width: 0.5"/>
      </g>
     </g>
    </g>
    <g id="ytick_42">
     <g id="line2d_153">
      <g>
       <use xlink:href="#m3e508e0f1a" x="52.98" y="38.264779" style="stroke: #000000; stroke-width: 0.5"/>
      </g>
     </g>
     <g id="line2d_154">
      <g>
       <use xlink:href="#m33a5e0041d" x="471.48" y="38.264779" style="stroke: #000000; stroke-width: 0.5"/>
      </g>
     </g>
    </g>
    <g id="ytick_43">
     <g id="line2d_155">
      <g>
       <use xlink:href="#m3e508e0f1a" x="52.98" y="31.653739" style="stroke: #000000; stroke-width: 0.5"/>
      </g>
     </g>
     <g id="line2d_156">
      <g>
       <use xlink:href="#m33a5e0041d" x="471.48" y="31.653739" style="stroke: #000000; stroke-width: 0.5"/>
      </g>
     </g>
    </g>
    <g id="text_16">
     <!-- Mean difference from exact -->
     <g transform="translate(13.161563 248.324625) rotate(-90) scale(0.14 -0.14)">
      <defs>
       <path id="STIXGeneral-Regular-4d" d="M 5530 0 
L 3738 0 
L 3738 122 
Q 4115 147 4214 265 
Q 4314 384 4314 787 
L 4314 3661 
L 2682 0 
L 2592 0 
L 979 3514 
L 979 966 
Q 979 448 1088 294 
Q 1197 141 1574 122 
L 1574 0 
L 77 0 
L 77 122 
Q 358 141 480 205 
Q 602 269 650 432 
Q 698 595 698 966 
L 698 3514 
Q 698 3878 589 3984 
Q 480 4090 90 4115 
L 90 4237 
L 1357 4237 
L 2835 1024 
L 4250 4237 
L 5523 4237 
L 5523 4115 
Q 5178 4109 5072 3993 
Q 4966 3878 4966 3520 
L 4966 717 
Q 4966 378 5072 262 
Q 5178 147 5530 122 
L 5530 0 
z
" transform="scale(0.015625)"/>
       <path id="STIXGeneral-Regular-61" d="M 2829 422 
L 2829 243 
Q 2586 -64 2253 -64 
Q 1888 -64 1843 403 
L 1837 403 
Q 1427 -64 909 -64 
Q 608 -64 422 112 
Q 237 288 237 602 
Q 237 1050 685 1350 
Q 992 1555 1837 1869 
L 1837 2214 
Q 1837 2502 1699 2646 
Q 1562 2790 1338 2790 
Q 1146 2790 1018 2697 
Q 890 2605 890 2477 
Q 890 2419 909 2348 
Q 928 2278 928 2208 
Q 928 2112 841 2029 
Q 755 1946 634 1946 
Q 525 1946 441 2029 
Q 358 2112 358 2240 
Q 358 2547 685 2752 
Q 986 2944 1421 2944 
Q 1939 2944 2176 2656 
Q 2291 2522 2323 2384 
Q 2355 2246 2355 1946 
L 2355 723 
Q 2355 301 2554 301 
Q 2682 301 2829 422 
z
M 1837 813 
L 1837 1715 
Q 1248 1510 1018 1293 
Q 800 1094 800 800 
Q 800 557 921 432 
Q 1043 307 1242 307 
Q 1453 307 1613 410 
Q 1747 506 1792 589 
Q 1837 672 1837 813 
z
" transform="scale(0.015625)"/>
       <path id="STIXGeneral-Regular-6e" d="M 3104 0 
L 1773 0 
L 1779 96 
Q 2016 115 2096 233 
Q 2176 352 2176 672 
L 2176 1946 
Q 2176 2592 1709 2592 
Q 1549 2592 1408 2515 
Q 1267 2438 1050 2227 
L 1050 461 
Q 1050 269 1136 192 
Q 1222 115 1466 96 
L 1466 0 
L 115 0 
L 115 96 
Q 358 115 435 214 
Q 512 314 512 602 
L 512 2157 
Q 512 2394 467 2483 
Q 422 2573 288 2573 
Q 160 2573 102 2547 
L 102 2656 
Q 550 2784 979 2944 
L 1030 2925 
L 1030 2426 
L 1037 2426 
Q 1491 2944 1958 2944 
Q 2323 2944 2518 2688 
Q 2714 2432 2714 1958 
L 2714 544 
Q 2714 288 2790 205 
Q 2867 122 3104 96 
L 3104 0 
z
" transform="scale(0.015625)"/>
       <path id="STIXGeneral-Regular-20" transform="scale(0.015625)"/>
       <path id="STIXGeneral-Regular-64" d="M 3142 269 
L 2202 -64 
L 2176 -45 
L 2176 365 
Q 1869 -64 1357 -64 
Q 826 -64 499 317 
Q 173 698 173 1312 
Q 173 1990 563 2467 
Q 954 2944 1504 2944 
Q 1850 2944 2176 2669 
L 2176 3667 
Q 2176 3866 2118 3930 
Q 2061 3994 1882 3994 
Q 1792 3994 1741 3987 
L 1741 4090 
Q 2323 4243 2682 4371 
L 2714 4358 
L 2714 730 
Q 2714 506 2768 435 
Q 2822 365 2995 365 
Q 3034 365 3142 371 
L 3142 269 
z
M 2176 653 
L 2176 2125 
Q 2176 2381 1981 2573 
Q 1786 2765 1523 2765 
Q 1158 2765 940 2438 
Q 723 2112 723 1568 
Q 723 979 963 624 
Q 1203 269 1606 269 
Q 1907 269 2080 474 
Q 2176 582 2176 653 
z
" transform="scale(0.015625)"/>
       <path id="STIXGeneral-Regular-66" d="M 134 2880 
L 659 2880 
Q 666 3264 710 3478 
Q 755 3693 883 3910 
Q 1152 4371 1786 4371 
Q 2074 4371 2262 4259 
Q 2451 4147 2451 3974 
Q 2451 3866 2374 3789 
Q 2298 3712 2182 3712 
Q 2029 3712 1894 3942 
Q 1741 4192 1555 4192 
Q 1197 4192 1197 3622 
L 1197 2880 
L 1978 2880 
L 1978 2675 
L 1197 2675 
L 1197 666 
Q 1197 307 1299 208 
Q 1402 109 1792 96 
L 1792 0 
L 128 0 
L 128 96 
Q 474 115 566 214 
Q 659 314 659 666 
L 659 2675 
L 134 2675 
L 134 2880 
z
" transform="scale(0.015625)"/>
       <path id="STIXGeneral-Regular-72" d="M 1024 2931 
L 1024 2342 
Q 1267 2688 1430 2816 
Q 1594 2944 1792 2944 
Q 1958 2944 2051 2854 
Q 2144 2765 2144 2605 
Q 2144 2470 2077 2393 
Q 2010 2317 1894 2317 
Q 1773 2317 1638 2445 
Q 1536 2541 1472 2541 
Q 1338 2541 1181 2355 
Q 1024 2170 1024 2016 
L 1024 576 
Q 1024 301 1133 205 
Q 1242 109 1568 96 
L 1568 0 
L 32 0 
L 32 96 
Q 339 154 412 224 
Q 486 294 486 538 
L 486 2138 
Q 486 2349 438 2435 
Q 390 2522 269 2522 
Q 166 2522 45 2496 
L 45 2598 
Q 448 2726 992 2944 
L 1024 2931 
z
" transform="scale(0.015625)"/>
       <path id="STIXGeneral-Regular-63" d="M 2547 998 
L 2637 941 
Q 2362 403 2112 205 
Q 1786 -64 1376 -64 
Q 845 -64 502 336 
Q 160 736 160 1357 
Q 160 2170 698 2618 
Q 1094 2944 1562 2944 
Q 1965 2944 2256 2749 
Q 2547 2554 2547 2285 
Q 2547 2176 2457 2096 
Q 2368 2016 2246 2016 
Q 2022 2016 1939 2310 
L 1901 2451 
Q 1850 2630 1773 2694 
Q 1696 2758 1523 2758 
Q 1133 2758 893 2451 
Q 653 2144 653 1645 
Q 653 1094 928 745 
Q 1203 397 1645 397 
Q 1920 397 2118 528 
Q 2317 659 2547 998 
z
" transform="scale(0.015625)"/>
       <path id="STIXGeneral-Regular-6f" d="M 3008 1478 
Q 3008 806 2608 371 
Q 2208 -64 1568 -64 
Q 979 -64 582 368 
Q 186 800 186 1459 
Q 186 2125 582 2534 
Q 979 2944 1626 2944 
Q 2221 2944 2614 2537 
Q 3008 2131 3008 1478 
z
M 2432 1306 
Q 2432 2035 2112 2445 
Q 1856 2765 1504 2765 
Q 1171 2765 966 2493 
Q 762 2221 762 1747 
Q 762 928 1101 435 
Q 1318 115 1677 115 
Q 2029 115 2230 432 
Q 2432 749 2432 1306 
z
" transform="scale(0.015625)"/>
       <path id="STIXGeneral-Regular-78" d="M 3066 0 
L 1779 0 
L 1779 96 
Q 1939 109 1987 137 
Q 2035 166 2035 250 
Q 2035 307 1997 365 
L 1414 1261 
L 909 474 
Q 781 275 781 211 
Q 781 96 1037 96 
L 1037 0 
L 109 0 
L 109 96 
Q 269 109 355 169 
Q 442 230 576 422 
L 1306 1478 
L 704 2400 
Q 557 2624 454 2704 
Q 352 2784 211 2784 
L 154 2784 
L 154 2880 
L 1478 2880 
L 1478 2784 
Q 1203 2778 1203 2643 
Q 1203 2509 1498 2074 
Q 1581 1958 1587 1946 
Q 1619 1990 1779 2227 
Q 1811 2285 1856 2349 
Q 1901 2413 1923 2451 
Q 1946 2490 1971 2528 
Q 1997 2566 2006 2595 
Q 2016 2624 2016 2643 
Q 2016 2765 1760 2784 
L 1760 2880 
L 2771 2880 
L 2771 2784 
Q 2445 2771 2253 2502 
L 1722 1734 
L 2541 480 
Q 2790 96 3066 96 
L 3066 0 
z
" transform="scale(0.015625)"/>
       <path id="STIXGeneral-Regular-74" d="M 1702 493 
L 1786 422 
Q 1478 -64 1011 -64 
Q 448 -64 448 749 
L 448 2675 
L 109 2675 
Q 83 2694 83 2720 
Q 83 2771 192 2842 
Q 435 2982 813 3526 
Q 826 3546 874 3606 
Q 922 3667 941 3706 
Q 986 3706 986 3622 
L 986 2880 
L 1632 2880 
L 1632 2675 
L 986 2675 
L 986 845 
Q 986 538 1062 403 
Q 1139 269 1318 269 
Q 1510 269 1702 493 
z
" transform="scale(0.015625)"/>
      </defs>
      <use xlink:href="#STIXGeneral-Regular-4d"/>
      <use xlink:href="#STIXGeneral-Regular-65" transform="translate(88.899994 0)"/>
      <use xlink:href="#STIXGeneral-Regular-61" transform="translate(133.299988 0)"/>
      <use xlink:href="#STIXGeneral-Regular-6e" transform="translate(177.699982 0)"/>
      <use xlink:href="#STIXGeneral-Regular-20" transform="translate(227.699966 0)"/>
      <use xlink:href="#STIXGeneral-Regular-64" transform="translate(252.699951 0)"/>
      <use xlink:href="#STIXGeneral-Regular-69" transform="translate(302.699936 0)"/>
      <use xlink:href="#STIXGeneral-Regular-66" transform="translate(330.499924 0)"/>
      <use xlink:href="#STIXGeneral-Regular-66" transform="translate(363.799911 0)"/>
      <use xlink:href="#STIXGeneral-Regular-65" transform="translate(397.099899 0)"/>
      <use xlink:href="#STIXGeneral-Regular-72" transform="translate(441.499893 0)"/>
      <use xlink:href="#STIXGeneral-Regular-65" transform="translate(474.799881 0)"/>
      <use xlink:href="#STIXGeneral-Regular-6e" transform="translate(519.199875 0)"/>
      <use xlink:href="#STIXGeneral-Regular-63" transform="translate(569.19986 0)"/>
      <use xlink:href="#STIXGeneral-Regular-65" transform="translate(613.599854 0)"/>
      <use xlink:href="#STIXGeneral-Regular-20" transform="translate(657.999847 0)"/>
      <use xlink:href="#STIXGeneral-Regular-66" transform="translate(682.999832 0)"/>
      <use xlink:href="#STIXGeneral-Regular-72" transform="translate(716.29982 0)"/>
      <use xlink:href="#STIXGeneral-Regular-6f" transform="translate(749.599808 0)"/>
      <use xlink:href="#STIXGeneral-Regular-6d" transform="translate(799.599792 0)"/>
      <use xlink:href="#STIXGeneral-Regular-20" transform="translate(877.39978 0)"/>
      <use xlink:href="#STIXGeneral-Regular-65" transform="translate(902.399765 0)"/>
      <use xlink:href="#STIXGeneral-Regular-78" transform="translate(946.799759 0)"/>
      <use xlink:href="#STIXGeneral-Regular-61" transform="translate(996.799744 0)"/>
      <use xlink:href="#STIXGeneral-Regular-63" transform="translate(1041.199738 0)"/>
      <use xlink:href="#STIXGeneral-Regular-74" transform="translate(1085.599731 0)"/>
     </g>
    </g>
    <g id="text_17">
     <!-- $\times\mathdefault{10^{−3}}\mathdefault{}$ -->
     <g transform="translate(52.98 23.24) scale(0.12 -0.12)">
      <defs>
       <path id="Cmsy10-a3" d="M 941 184 
Q 941 234 972 275 
L 2303 1600 
L 972 2931 
Q 941 2963 941 3016 
Q 941 3063 978 3103 
Q 1016 3144 1069 3144 
Q 1113 3144 1166 3103 
L 2491 1778 
L 3809 3103 
Q 3863 3144 3903 3144 
Q 3956 3144 3993 3106 
Q 4031 3069 4031 3016 
Q 4031 2963 4000 2931 
L 2669 1600 
L 4000 275 
Q 4031 234 4031 184 
Q 4031 131 3993 93 
Q 3956 56 3903 56 
Q 3856 56 3809 103 
L 2491 1422 
L 1166 103 
Q 1119 56 1069 56 
Q 1016 56 978 97 
Q 941 138 941 184 
z
" transform="scale(0.015625)"/>
      </defs>
      <use xlink:href="#Cmsy10-a3" transform="translate(0 0.684375)"/>
      <use xlink:href="#STIXGeneral-Regular-31" transform="translate(77.685547 0.684375)"/>
      <use xlink:href="#STIXGeneral-Regular-30" transform="translate(127.685532 0.684375)"/>
      <use xlink:href="#STIXGeneral-Regular-2212" transform="translate(179.260516 36.684375) scale(0.7)"/>
      <use xlink:href="#STIXGeneral-Regular-33" transform="translate(227.210506 36.684375) scale(0.7)"/>
     </g>
    </g>
   </g>
   <g id="line2d_157">
    <path d="M 72.002727 91.153101 
L 452.457273 91.153101 
L 452.457273 91.153101 
" clip-path="url(#p77ab5bf9c7)" style="fill: none; stroke: #2ca02c; stroke-width: 2.7; stroke-linecap: square"/>
   </g>
   <g id="line2d_158">
    <path d="M 52.98 91.153101 
L 471.48 91.153101 
" clip-path="url(#p77ab5bf9c7)" style="fill: none; stroke: #000000; stroke-opacity: 0.6; stroke-linecap: square"/>
   </g>
   <g id="patch_3">
    <path d="M 52.98 314.528 
L 52.98 26.24 
" style="fill: none; stroke: #000000; stroke-width: 0.5; stroke-linejoin: miter; stroke-linecap: square"/>
   </g>
   <g id="patch_4">
    <path d="M 471.48 314.528 
L 471.48 26.24 
" style="fill: none; stroke: #000000; stroke-width: 0.5; stroke-linejoin: miter; stroke-linecap: square"/>
   </g>
   <g id="patch_5">
    <path d="M 52.98 314.528 
L 471.48 314.528 
" style="fill: none; stroke: #000000; stroke-width: 0.5; stroke-linejoin: miter; stroke-linecap: square"/>
   </g>
   <g id="patch_6">
    <path d="M 52.98 26.24 
L 471.48 26.24 
" style="fill: none; stroke: #000000; stroke-width: 0.5; stroke-linejoin: miter; stroke-linecap: square"/>
   </g>
   <g id="line2d_159">
    <path d="M 72.002727 243.311951 
L 72.078818 243.153907 
L 72.231 241.502565 
L 72.459273 244.693761 
L 72.915818 239.389311 
L 72.991909 241.287843 
L 73.296273 238.801403 
L 73.372364 239.016373 
L 73.448455 236.964345 
L 73.524545 237.715379 
L 73.600636 238.858 
L 73.676727 237.910363 
L 73.905 240.5985 
L 73.981091 240.669454 
L 74.057182 241.243821 
L 74.285455 243.657884 
L 74.361545 242.61464 
L 74.513727 245.836986 
L 74.589818 244.75764 
L 74.665909 245.133989 
L 74.742 245.916738 
L 75.046364 241.526401 
L 75.122455 242.241793 
L 75.426818 239.166301 
L 75.807273 233.659069 
L 75.883364 233.397754 
L 76.035545 231.610255 
L 76.187727 229.417543 
L 76.263818 229.554056 
L 76.339909 227.671699 
L 76.416 230.945443 
L 76.492091 229.45697 
L 76.644273 233.914462 
L 76.872545 231.237878 
L 77.024727 229.685452 
L 77.100818 230.759991 
L 77.329091 228.783376 
L 77.481273 233.285193 
L 77.557364 232.757823 
L 77.633455 232.88366 
L 78.013909 226.254202 
L 78.242182 222.420818 
L 78.318273 235.646905 
L 78.394364 234.123643 
L 78.698727 253.934636 
L 78.774818 252.325135 
L 78.850909 252.552755 
L 78.927 253.315657 
L 79.079182 251.1879 
L 79.155273 257.752666 
L 79.231364 256.649204 
L 79.307455 257.017202 
L 79.535727 255.013854 
L 79.687909 252.936017 
L 79.840091 250.697495 
L 79.916182 251.438685 
L 80.296636 245.041843 
L 80.372727 246.951309 
L 80.448818 245.141939 
L 80.524909 245.298483 
L 80.753182 243.514561 
L 80.905364 247.792237 
L 80.981455 247.223447 
L 81.209727 243.300265 
L 81.438 241.181667 
L 81.514091 239.635805 
L 81.590182 242.754414 
L 81.894545 237.52705 
L 81.970636 238.020128 
L 82.275 235.706642 
L 82.351091 234.526725 
L 82.427182 234.767805 
L 82.655455 233.620108 
L 82.731545 232.111982 
L 82.807636 237.160755 
L 82.883727 235.932507 
L 83.112 233.595731 
L 83.188091 233.465289 
L 83.264182 231.947606 
L 83.340273 232.022224 
L 83.416364 239.754094 
L 83.492455 238.992149 
L 83.568545 238.364063 
L 83.720727 239.928807 
L 83.796818 238.516466 
L 83.872909 239.376109 
L 84.025091 237.150719 
L 84.481636 230.782065 
L 84.557727 231.243334 
L 84.633818 231.224233 
L 84.709909 230.400221 
L 84.786 250.038111 
L 84.862091 249.258493 
L 84.938182 251.826623 
L 85.014273 250.152658 
L 85.166455 253.823373 
L 85.242545 252.241626 
L 85.318636 253.811984 
L 85.546909 249.199895 
L 85.623 255.657491 
L 85.699091 253.991967 
L 85.851273 253.166023 
L 85.927364 251.518711 
L 86.003455 253.105333 
L 86.383909 247.012823 
L 86.46 266.990487 
L 86.536091 265.407872 
L 86.612182 264.378142 
L 86.688273 301.424 
L 86.764364 299.862557 
L 86.840455 301.205621 
L 87.068727 296.325922 
L 87.144818 296.957962 
L 87.220909 296.355361 
L 87.449182 293.094629 
L 87.753545 290.447281 
L 87.829636 291.38574 
L 88.134 286.165522 
L 88.210091 288.637488 
L 88.514455 283.976971 
L 88.590545 284.454686 
L 88.818818 280.20792 
L 88.894909 280.36065 
L 90.188455 261.723291 
L 90.264545 262.002412 
L 90.492818 258.17716 
L 90.568909 258.457223 
L 90.645 263.221253 
L 90.721091 261.773554 
L 91.253727 253.246685 
L 91.329818 260.580566 
L 91.405909 259.162766 
L 92.090727 248.785189 
L 92.166818 248.869829 
L 92.319 249.295387 
L 92.699455 244.336493 
L 92.851636 242.691387 
L 93.079909 239.733283 
L 93.156 239.96982 
L 93.460364 235.314783 
L 93.536455 235.932427 
L 93.993 230.668714 
L 94.069091 230.813188 
L 94.525636 225.038062 
L 95.134364 216.376568 
L 95.210455 219.716702 
L 95.286545 218.875042 
L 95.362636 219.222491 
L 95.438727 219.09602 
L 95.819182 213.686235 
L 95.971364 217.225123 
L 96.123545 218.230577 
L 96.199636 218.157454 
L 96.427909 215.114254 
L 96.656182 211.765683 
L 96.732273 214.530242 
L 96.808364 213.534333 
L 97.417091 207.895211 
L 97.493182 207.720488 
L 97.569273 219.046442 
L 97.645364 217.915679 
L 97.721455 217.598326 
L 98.254091 212.036836 
L 98.330182 211.798111 
L 98.938909 205.022403 
L 99.015 204.736013 
L 99.091091 206.958717 
L 99.471545 203.096468 
L 99.699818 200.135545 
L 99.852 206.1443 
L 100.689 195.686355 
L 100.917273 194.62075 
L 101.069455 192.669666 
L 101.221636 196.243958 
L 101.982545 187.784301 
L 102.058636 187.393542 
L 102.134727 189.068071 
L 102.210818 193.202527 
L 102.286909 192.646004 
L 102.363 192.156752 
L 102.515182 194.583688 
L 103.123909 188.224546 
L 103.276091 186.315905 
L 103.352182 187.723838 
L 104.417455 176.153909 
L 104.493545 175.936124 
L 105.178364 168.259108 
L 105.330545 170.550461 
L 105.711 167.285172 
L 106.471909 160.127626 
L 106.548 159.860432 
L 106.624091 166.245263 
L 106.700182 165.711517 
L 107.232818 161.823261 
L 107.385 163.554525 
L 107.765455 159.706468 
L 107.993727 157.315774 
L 108.069818 164.847901 
L 108.145909 164.198282 
L 108.374182 162.054242 
L 108.450273 162.948303 
L 109.059 157.134008 
L 109.211182 155.58433 
L 109.287273 156.219396 
L 110.200364 148.35816 
L 110.276455 147.658964 
L 110.352545 148.158514 
L 110.809091 144.462511 
L 110.885182 144.995679 
L 112.102636 134.979594 
L 112.178727 135.345366 
L 112.711364 130.970549 
L 112.787455 131.25381 
L 113.167909 128.347295 
L 113.244 128.706412 
L 113.320091 128.100738 
L 113.472273 128.758659 
L 113.852727 125.981801 
L 113.928818 126.322819 
L 114.081 125.297673 
L 114.157091 125.604583 
L 114.309273 124.539773 
L 114.385364 124.749308 
L 114.994091 121.180376 
L 115.070182 124.909897 
L 115.146273 124.392236 
L 115.222364 123.847159 
L 115.298455 124.032106 
L 115.374545 138.77164 
L 115.450636 138.196803 
L 115.526727 137.596675 
L 115.602818 137.72281 
L 115.678909 138.53675 
L 116.287636 134.497187 
L 116.363727 134.572281 
L 116.439818 133.937203 
L 116.515909 133.972839 
L 116.592 140.99795 
L 116.668091 140.398023 
L 117.961636 130.79352 
L 118.037727 133.640073 
L 118.113818 133.073881 
L 118.342091 131.385307 
L 118.418182 134.146153 
L 118.494273 133.606184 
L 119.331273 127.334259 
L 119.407364 127.222161 
L 119.863909 123.979563 
L 119.94 126.494769 
L 120.016091 125.959081 
L 121.005273 120.103117 
L 121.081364 122.348493 
L 121.157455 121.825532 
L 121.690091 118.333711 
L 121.766182 118.474182 
L 121.842273 118.025834 
L 121.918364 120.07938 
L 121.994455 119.621958 
L 122.298818 117.421059 
L 122.374909 119.460824 
L 122.451 118.910064 
L 122.679273 117.665047 
L 122.831455 121.306438 
L 122.907545 120.838552 
L 123.820636 114.926897 
L 123.972818 114.260958 
L 124.048909 113.794294 
L 124.125 142.327864 
L 124.201091 141.696132 
L 125.722909 132.389771 
L 127.016455 124.819269 
L 127.092545 125.896659 
L 127.168636 125.488088 
L 128.614364 117.41558 
L 128.690455 124.774301 
L 128.766545 124.386949 
L 130.516636 115.180949 
L 130.592727 115.927334 
L 130.973182 114.201119 
L 131.049273 120.777806 
L 131.125364 120.31659 
L 132.951545 111.384853 
L 133.027636 111.958013 
L 134.245091 107.02655 
L 134.321182 107.408082 
L 137.821364 93.919885 
L 139.647545 88.474326 
L 139.723636 88.640913 
L 139.875818 92.66849 
L 140.180182 91.601921 
L 140.332364 91.131157 
L 140.408455 91.541795 
L 140.712818 90.374935 
L 141.093273 89.175877 
L 141.549818 87.503563 
L 142.615091 84.752388 
L 142.919455 83.774441 
L 143.908636 81.536434 
L 144.213 80.71779 
L 144.821727 79.189921 
L 145.05 78.599274 
L 145.278273 77.96837 
L 145.354364 80.527949 
L 145.430455 80.366299 
L 145.887 78.874638 
L 146.343545 77.843895 
L 146.647909 77.066249 
L 146.952273 76.011131 
L 147.332727 74.754344 
L 147.713182 73.924215 
L 147.941455 73.40217 
L 148.093636 77.580469 
L 148.169727 77.438047 
L 149.311091 74.779341 
L 149.919818 73.608389 
L 150.300273 72.670918 
L 150.756818 71.356393 
L 150.832909 83.039638 
L 150.909 82.89527 
L 151.137273 82.259845 
L 151.213364 82.014206 
L 151.365545 81.241357 
L 152.735182 78.508376 
L 152.963455 77.863907 
L 153.191727 77.318409 
L 153.343909 76.929922 
L 153.648273 76.162682 
L 153.724364 76.054924 
L 153.876545 75.46152 
L 154.180909 74.833772 
L 154.561364 73.956913 
L 155.017909 73.190366 
L 155.398364 72.019738 
L 156.083182 71.033856 
L 156.311455 70.612695 
L 156.463636 70.443847 
L 156.691909 69.779813 
L 156.844091 69.626514 
L 156.920182 70.268203 
L 156.996273 70.04565 
L 157.681091 69.190075 
L 157.909364 68.847351 
L 158.061545 68.544474 
L 158.137636 69.101491 
L 158.213727 69.021064 
L 158.594182 68.526993 
L 158.822455 68.118199 
L 159.431182 67.442978 
L 159.887727 66.508775 
L 160.116 66.218243 
L 160.192091 66.127641 
L 160.420364 65.489759 
L 160.648636 65.322267 
L 161.029091 64.546284 
L 161.333455 64.419337 
L 161.409545 64.071329 
L 161.561727 101.337655 
L 162.018273 99.996104 
L 162.094364 100.232328 
L 163.844455 97.018908 
L 163.920545 97.116846 
L 164.148818 95.752358 
L 164.985818 93.905603 
L 165.290182 93.320588 
L 165.518455 92.846171 
L 165.822818 92.324925 
L 165.975 92.116936 
L 166.203273 91.534671 
L 166.355455 91.337232 
L 166.659818 90.341342 
L 166.812 90.044711 
L 166.964182 89.466138 
L 167.116364 89.278168 
L 167.344636 88.703252 
L 168.486 87.277049 
L 168.942545 86.350128 
L 169.018636 86.264336 
L 169.170818 85.81557 
L 170.007818 84.734672 
L 170.16 84.298566 
L 170.464364 83.87164 
L 170.768727 82.930762 
L 170.997 82.664324 
L 171.149182 82.221846 
L 171.453545 81.848181 
L 171.529636 104.392864 
L 171.605727 103.988656 
L 172.062273 103.115375 
L 172.290545 102.376356 
L 172.671 101.583132 
L 173.279727 100.166052 
L 174.877636 97.542312 
L 175.182 97.035686 
L 176.019 95.768933 
L 176.399455 94.316818 
L 177.540818 92.69592 
L 177.845182 91.562781 
L 178.758273 90.354457 
L 178.910455 89.666762 
L 179.595273 88.730966 
L 179.823545 88.167287 
L 179.975727 87.999059 
L 180.127909 87.290739 
L 180.356182 87.036157 
L 180.508364 86.578657 
L 181.269273 85.669193 
L 181.497545 85.201539 
L 181.573636 85.12443 
L 181.649727 87.462757 
L 181.725818 87.374491 
L 182.030182 86.966636 
L 182.258455 86.366239 
L 184.160727 83.929304 
L 184.236818 85.897418 
L 184.312909 85.811624 
L 185.986909 83.891339 
L 186.063 85.625746 
L 186.139091 85.540381 
L 186.367364 85.286375 
L 186.595636 84.846321 
L 186.671727 84.76387 
L 186.747818 86.412778 
L 186.823909 86.273085 
L 187.432636 85.549524 
L 187.584818 84.701921 
L 187.660909 84.61479 
L 187.737 86.094181 
L 187.813091 85.993596 
L 189.182727 84.17397 
L 189.334909 83.659096 
L 191.313273 81.456087 
L 191.465455 80.603161 
L 191.693727 80.333234 
L 191.845909 78.734152 
L 191.922 78.659939 
L 192.074182 77.796935 
L 192.150273 77.723304 
L 192.759 76.08749 
L 195.041727 73.856453 
L 195.422182 73.521563 
L 195.802636 73.102114 
L 196.030909 72.803928 
L 196.183091 72.691607 
L 196.335273 71.85688 
L 196.639636 71.602524 
L 196.791818 70.645467 
L 197.476636 70.063785 
L 197.552727 70.851607 
L 197.628818 70.762695 
L 198.465818 70.167144 
L 198.618 69.27143 
L 199.302818 68.801588 
L 199.378909 68.648587 
L 199.455 69.34681 
L 199.531091 69.298328 
L 200.063727 68.873192 
L 200.215909 68.780885 
L 200.520273 68.269712 
L 203.031273 66.889041 
L 203.107364 134.228702 
L 203.183455 134.133273 
L 204.020455 133.327002 
L 204.172636 132.462828 
L 205.085727 131.71353 
L 205.314 130.063165 
L 207.596727 128.210619 
L 207.825 127.872356 
L 208.738091 127.18059 
L 208.814182 127.052423 
L 208.890273 127.49859 
L 208.966364 127.449293 
L 210.107727 126.609216 
L 210.183818 127.04729 
L 210.259909 127.000987 
L 210.564273 126.771495 
L 211.629545 126.133629 
L 211.781727 124.598328 
L 214.977545 122.887139 
L 215.129727 122.076902 
L 217.412455 120.967074 
L 217.564636 120.193387 
L 223.499727 117.950477 
L 223.651909 117.209923 
L 224.108455 117.063744 
L 225.706364 116.640423 
L 225.858545 115.889547 
L 227.608636 115.454041 
L 227.760818 109.919166 
L 227.836909 109.881083 
L 227.989091 109.115804 
L 228.826091 108.737887 
L 229.054364 107.236442 
L 231.565364 106.10303 
L 231.641455 106.836986 
L 231.717545 106.806293 
L 234.076364 105.932822 
L 234.152455 106.736242 
L 234.228545 106.710561 
L 236.891727 105.869199 
L 237.12 107.620134 
L 237.728727 107.433399 
L 237.880909 99.473862 
L 238.946182 99.018784 
L 239.098364 98.284494 
L 239.631 98.045849 
L 240.011455 97.932762 
L 240.163636 89.498824 
L 240.391909 89.368092 
L 240.544091 80.834227 
L 241.076727 80.388038 
L 241.152818 81.350459 
L 241.228909 81.295517 
L 242.370273 80.55569 
L 242.522455 81.573695 
L 244.196455 80.610097 
L 244.881273 80.269494 
L 245.033455 80.250991 
L 245.413909 80.102368 
L 245.49 81.195666 
L 245.566091 81.154343 
L 246.022636 80.891205 
L 246.174818 80.151632 
L 248.914091 78.83608 
L 252.794727 77.113113 
L 252.946909 76.381715 
L 257.512364 74.736165 
L 259.719 74.166734 
L 259.871182 73.483213 
L 261.621273 73.011522 
L 261.773455 61.848957 
L 263.067 61.550634 
L 267.099818 60.578074 
L 267.252 59.91154 
L 267.480273 59.86081 
L 267.632455 59.19589 
L 268.849909 58.947138 
L 269.002091 59.020858 
L 269.839091 58.842932 
L 269.915182 60.45347 
L 269.991273 60.440781 
L 270.067364 60.404711 
L 270.143455 62.067091 
L 270.219545 62.055803 
L 270.523909 62.010645 
L 270.676091 61.361679 
L 274.556727 60.915423 
L 274.708909 61.008924 
L 275.241545 61.06948 
L 276.078545 60.958291 
L 276.306818 60.917243 
L 276.382909 62.671533 
L 276.459 62.666861 
L 276.763364 62.652301 
L 276.915545 62.026136 
L 277.524273 61.994529 
L 277.676455 61.374586 
L 278.741727 61.334698 
L 278.893909 60.715272 
L 279.046091 60.710403 
L 279.198273 48.928202 
L 279.350455 49.03275 
L 279.502636 49.137705 
L 280.644 49.199267 
L 280.796182 51.003052 
L 283.002818 50.999522 
L 283.155 51.089368 
L 283.839818 51.101908 
L 283.992 50.505381 
L 284.296364 50.489359 
L 284.448545 50.605845 
L 289.622727 50.772295 
L 289.774909 50.896913 
L 291.829364 51.0322 
L 291.981545 52.923711 
L 292.590273 52.98553 
L 292.742455 53.11427 
L 293.122909 53.158267 
L 293.275091 53.287561 
L 296.090455 53.60236 
L 296.242636 53.734395 
L 297.764455 53.9336 
L 297.916636 53.492896 
L 298.525364 53.582624 
L 298.677545 55.493705 
L 299.362364 55.592644 
L 299.514545 55.72746 
L 302.482091 56.143714 
L 302.634273 58.060183 
L 306.210545 58.633046 
L 306.362727 60.539375 
L 308.873727 60.926199 
L 308.949818 60.394952 
L 309.025909 60.408573 
L 310.091182 60.599904 
L 310.167273 60.072579 
L 310.243364 60.086636 
L 310.776 60.27211 
L 310.852091 59.747081 
L 310.928182 59.761456 
L 311.917364 59.926453 
L 311.993455 59.405169 
L 312.069545 59.419961 
L 314.884909 59.955388 
L 314.961 49.35102 
L 315.037091 49.370767 
L 316.787182 49.82919 
L 316.863273 39.344 
L 316.939364 39.368748 
L 317.167636 39.443103 
L 317.319818 41.323721 
L 320.363455 42.315883 
L 320.591727 42.496723 
L 324.091909 43.763285 
L 325.689818 44.30492 
L 325.765909 43.837439 
L 325.842 43.863387 
L 326.070273 44.044379 
L 326.146364 43.681434 
L 326.222455 43.707592 
L 330.179182 45.082289 
L 330.331364 46.866816 
L 333.222818 47.936968 
L 333.451091 48.113817 
L 339.386182 50.102133 
L 339.462273 49.680392 
L 339.538364 49.706639 
L 349.049727 53.049793 
L 349.201909 72.118878 
L 353.006455 72.687709 
L 353.234727 72.804254 
L 354.071727 73.000193 
L 354.223909 72.622343 
L 361.833 73.599144 
L 361.985182 73.24833 
L 367.768091 74.131405 
L 367.920273 73.800555 
L 389.149636 76.938666 
L 389.301818 76.65955 
L 399.345818 78.003864 
L 399.498 79.007939 
L 409.694182 80.273537 
L 409.846364 80.062042 
L 410.835545 80.176637 
L 410.987727 79.966072 
L 412.661727 80.162071 
L 412.813909 79.95614 
L 424.151455 81.287792 
L 424.303636 82.058897 
L 437.239091 83.29374 
L 437.391273 83.137584 
L 452.457273 84.442898 
L 452.457273 84.442898 
" clip-path="url(#p77ab5bf9c7)" style="fill: none; stroke: #ff7f0e; stroke-width: 2.5; stroke-linecap: square"/>
   </g>
   <g id="text_18">
    <!-- Mean Difference vs Time ($|\alpha=\sqrt{3}\rangle$, $\gamma=1$) -->
    <g transform="translate(118.47 20.24) scale(0.16 -0.16)">
     <defs>
      <path id="STIXGeneral-Regular-44" d="M 102 4237 
L 1830 4237 
Q 3078 4237 3750 3654 
Q 4384 3110 4384 2138 
Q 4384 966 3514 410 
Q 2880 0 1901 0 
L 102 0 
L 102 122 
Q 474 147 570 252 
Q 666 358 666 736 
L 666 3520 
Q 666 3891 570 3990 
Q 474 4090 102 4115 
L 102 4237 
z
M 1318 3731 
L 1318 538 
Q 1318 365 1379 301 
Q 1440 237 1626 237 
Q 2125 237 2432 307 
Q 2739 378 3021 570 
Q 3686 1018 3686 2099 
Q 3686 3027 3078 3558 
Q 2803 3802 2476 3901 
Q 2150 4000 1658 4000 
Q 1472 4000 1395 3942 
Q 1318 3885 1318 3731 
z
" transform="scale(0.015625)"/>
      <path id="STIXGeneral-Regular-76" d="M 3053 2880 
L 3053 2784 
Q 2906 2771 2835 2688 
Q 2765 2605 2637 2285 
L 1818 230 
Q 1690 -90 1638 -90 
Q 1587 -90 1523 77 
Q 1510 96 1497 141 
Q 1485 186 1472 211 
L 704 2048 
Q 499 2534 403 2652 
Q 307 2771 122 2784 
L 122 2880 
L 1376 2880 
L 1376 2784 
Q 1210 2771 1146 2732 
Q 1082 2694 1082 2611 
Q 1082 2509 1139 2368 
L 1792 730 
L 2426 2387 
Q 2464 2483 2464 2579 
Q 2464 2758 2163 2784 
L 2163 2880 
L 3053 2880 
z
" transform="scale(0.015625)"/>
      <path id="STIXGeneral-Regular-73" d="M 998 1926 
L 1664 1523 
Q 1984 1331 2105 1164 
Q 2227 998 2227 736 
Q 2227 416 1961 176 
Q 1696 -64 1331 -64 
Q 1030 -64 864 -6 
Q 691 51 570 51 
Q 461 51 416 -26 
L 333 -26 
L 333 979 
L 435 979 
Q 538 512 730 294 
Q 922 77 1248 77 
Q 1485 77 1632 211 
Q 1779 346 1779 550 
Q 1779 845 1440 1030 
L 1094 1222 
Q 326 1651 326 2150 
Q 326 2522 566 2730 
Q 806 2938 1210 2938 
Q 1491 2938 1638 2867 
Q 1754 2816 1818 2816 
Q 1862 2816 1920 2880 
L 1990 2880 
L 2022 2010 
L 1926 2010 
Q 1818 2445 1654 2621 
Q 1491 2797 1203 2797 
Q 986 2797 854 2688 
Q 723 2579 723 2362 
Q 723 2253 796 2128 
Q 870 2003 998 1926 
z
" transform="scale(0.015625)"/>
      <path id="STIXGeneral-Regular-28" d="M 1946 -1030 
L 1869 -1133 
Q 1126 -710 716 32 
Q 307 774 307 1613 
Q 307 3386 1888 4326 
L 1946 4224 
Q 1293 3667 1075 3126 
Q 858 2586 858 1632 
Q 858 685 1082 96 
Q 1306 -493 1946 -1030 
z
" transform="scale(0.015625)"/>
      <path id="Cmsy10-6a" d="M 763 -1484 
L 763 4684 
Q 763 4734 800 4767 
Q 838 4800 891 4800 
Q 938 4800 978 4767 
Q 1019 4734 1019 4684 
L 1019 -1484 
Q 1019 -1534 978 -1567 
Q 938 -1600 891 -1600 
Q 838 -1600 800 -1567 
Q 763 -1534 763 -1484 
z
" transform="scale(0.015625)"/>
      <path id="Cmmi10-ae" d="M 1288 -72 
Q 984 -72 748 72 
Q 513 216 384 459 
Q 256 703 256 1013 
Q 256 1447 498 1872 
Q 741 2297 1142 2562 
Q 1544 2828 1984 2828 
Q 2309 2828 2556 2658 
Q 2803 2488 2931 2205 
Q 3059 1922 3059 1600 
L 3066 1172 
Q 3284 1475 3436 1801 
Q 3588 2128 3669 2478 
Q 3681 2516 3719 2516 
L 3794 2516 
Q 3853 2516 3853 2456 
Q 3853 2450 3847 2438 
Q 3772 2144 3659 1873 
Q 3547 1603 3395 1350 
Q 3244 1097 3066 891 
Q 3066 97 3250 97 
Q 3369 97 3445 167 
Q 3522 238 3580 341 
Q 3638 444 3653 447 
L 3731 447 
Q 3781 447 3781 384 
Q 3781 225 3598 76 
Q 3416 -72 3238 -72 
Q 3006 -72 2853 78 
Q 2700 228 2644 469 
Q 2344 213 1994 70 
Q 1644 -72 1288 -72 
z
M 1300 97 
Q 1984 97 2613 659 
Q 2609 697 2603 751 
Q 2597 806 2597 813 
L 2597 1503 
Q 2597 2663 1972 2663 
Q 1597 2663 1315 2342 
Q 1034 2022 892 1576 
Q 750 1131 750 763 
Q 750 484 892 290 
Q 1034 97 1300 97 
z
" transform="scale(0.015625)"/>
      <path id="Cmr10-3d" d="M 481 850 
Q 428 850 393 890 
Q 359 931 359 978 
Q 359 1031 393 1068 
Q 428 1106 481 1106 
L 4500 1106 
Q 4547 1106 4581 1068 
Q 4616 1031 4616 978 
Q 4616 931 4581 890 
Q 4547 850 4500 850 
L 481 850 
z
M 481 2094 
Q 428 2094 393 2131 
Q 359 2169 359 2222 
Q 359 2269 393 2309 
Q 428 2350 481 2350 
L 4500 2350 
Q 4547 2350 4581 2309 
Q 4616 2269 4616 2222 
Q 4616 2169 4581 2131 
Q 4547 2094 4500 2094 
L 481 2094 
z
" transform="scale(0.015625)"/>
      <path id="Cmex10-70" d="M 2713 -7425 
L 1269 -4063 
L 819 -4409 
L 703 -4294 
L 1619 -3584 
L 2969 -6725 
L 6291 197 
Q 6322 256 6400 256 
Q 6453 256 6490 218 
Q 6528 181 6528 128 
Q 6528 97 6522 84 
L 2950 -7366 
Q 2925 -7425 2853 -7425 
L 2713 -7425 
z
" transform="scale(0.015625)"/>
      <path id="Cmr10-33" d="M 609 494 
Q 759 275 1012 169 
Q 1266 63 1556 63 
Q 1928 63 2084 380 
Q 2241 697 2241 1100 
Q 2241 1281 2208 1462 
Q 2175 1644 2097 1800 
Q 2019 1956 1883 2050 
Q 1747 2144 1550 2144 
L 1125 2144 
Q 1069 2144 1069 2203 
L 1069 2259 
Q 1069 2309 1125 2309 
L 1478 2338 
Q 1703 2338 1851 2506 
Q 2000 2675 2069 2917 
Q 2138 3159 2138 3378 
Q 2138 3684 1994 3881 
Q 1850 4078 1556 4078 
Q 1313 4078 1091 3986 
Q 869 3894 738 3706 
Q 750 3709 759 3711 
Q 769 3713 781 3713 
Q 925 3713 1022 3613 
Q 1119 3513 1119 3372 
Q 1119 3234 1022 3134 
Q 925 3034 781 3034 
Q 641 3034 541 3134 
Q 441 3234 441 3372 
Q 441 3647 606 3850 
Q 772 4053 1033 4158 
Q 1294 4263 1556 4263 
Q 1750 4263 1965 4205 
Q 2181 4147 2356 4039 
Q 2531 3931 2642 3762 
Q 2753 3594 2753 3378 
Q 2753 3109 2633 2881 
Q 2513 2653 2303 2487 
Q 2094 2322 1844 2241 
Q 2122 2188 2372 2031 
Q 2622 1875 2773 1631 
Q 2925 1388 2925 1106 
Q 2925 753 2731 467 
Q 2538 181 2222 20 
Q 1906 -141 1556 -141 
Q 1256 -141 954 -26 
Q 653 88 461 316 
Q 269 544 269 863 
Q 269 1022 375 1128 
Q 481 1234 641 1234 
Q 744 1234 830 1186 
Q 916 1138 964 1050 
Q 1013 963 1013 863 
Q 1013 706 903 600 
Q 794 494 641 494 
L 609 494 
z
" transform="scale(0.015625)"/>
      <path id="Cmex10-ae" d="M 500 -7297 
Q 500 -7263 513 -7250 
L 2119 -3584 
L 513 84 
Q 500 97 500 128 
Q 500 175 537 215 
Q 575 256 628 256 
Q 703 256 750 178 
L 2381 -3541 
Q 2388 -3553 2388 -3584 
Q 2388 -3616 2381 -3634 
L 750 -7347 
Q 700 -7425 628 -7425 
Q 575 -7425 537 -7384 
Q 500 -7344 500 -7297 
z
" transform="scale(0.015625)"/>
      <path id="STIXGeneral-Regular-2c" d="M 531 -902 
L 467 -781 
Q 998 -422 998 -96 
Q 998 -13 909 -13 
Q 883 -13 822 -25 
Q 762 -38 723 -38 
Q 352 -38 352 288 
Q 352 454 457 553 
Q 563 653 736 653 
Q 954 653 1101 496 
Q 1248 339 1248 96 
Q 1248 -198 1053 -473 
Q 858 -749 531 -902 
z
" transform="scale(0.015625)"/>
      <path id="Cmmi10-b0" d="M 1888 -1253 
Q 1888 -1109 1952 -834 
Q 2016 -559 2108 -248 
Q 2200 63 2266 263 
Q 2291 581 2291 744 
Q 2291 1156 2209 1511 
Q 2128 1866 1903 2105 
Q 1678 2344 1275 2344 
Q 1063 2344 852 2253 
Q 641 2163 489 2000 
Q 338 1838 281 1631 
Q 269 1594 231 1594 
L 153 1594 
Q 103 1594 103 1650 
L 103 1672 
Q 175 1959 358 2226 
Q 541 2494 805 2661 
Q 1069 2828 1363 2828 
Q 1663 2828 1881 2625 
Q 2100 2422 2231 2109 
Q 2363 1797 2420 1478 
Q 2478 1159 2478 878 
Q 2800 1753 3200 2534 
L 3297 2741 
Q 3316 2759 3341 2759 
L 3419 2759 
Q 3469 2759 3469 2700 
Q 3469 2688 3456 2663 
L 3359 2463 
Q 3081 1909 2848 1340 
Q 2616 772 2450 244 
Q 2425 28 2354 -347 
Q 2284 -722 2184 -1045 
Q 2084 -1369 1984 -1381 
Q 1888 -1381 1888 -1253 
z
" transform="scale(0.015625)"/>
      <path id="Cmr10-31" d="M 594 0 
L 594 225 
Q 1394 225 1394 428 
L 1394 3788 
Q 1063 3628 556 3628 
L 556 3853 
Q 1341 3853 1741 4263 
L 1831 4263 
Q 1853 4263 1873 4245 
Q 1894 4228 1894 4206 
L 1894 428 
Q 1894 225 2694 225 
L 2694 0 
L 594 0 
z
" transform="scale(0.015625)"/>
      <path id="STIXGeneral-Regular-29" d="M 186 4224 
L 262 4326 
Q 992 3891 1408 3148 
Q 1824 2406 1824 1581 
Q 1824 -166 243 -1133 
L 186 -1030 
Q 845 -486 1059 54 
Q 1274 595 1274 1562 
Q 1274 2534 1059 3120 
Q 845 3706 186 4224 
z
" transform="scale(0.015625)"/>
     </defs>
     <use xlink:href="#STIXGeneral-Regular-4d" transform="translate(0 0.15625)"/>
     <use xlink:href="#STIXGeneral-Regular-65" transform="translate(88.899994 0.15625)"/>
     <use xlink:href="#STIXGeneral-Regular-61" transform="translate(133.299988 0.15625)"/>
     <use xlink:href="#STIXGeneral-Regular-6e" transform="translate(177.699982 0.15625)"/>
     <use xlink:href="#STIXGeneral-Regular-20" transform="translate(227.699966 0.15625)"/>
     <use xlink:href="#STIXGeneral-Regular-44" transform="translate(252.699951 0.15625)"/>
     <use xlink:href="#STIXGeneral-Regular-69" transform="translate(324.899933 0.15625)"/>
     <use xlink:href="#STIXGeneral-Regular-66" transform="translate(352.699921 0.15625)"/>
     <use xlink:href="#STIXGeneral-Regular-66" transform="translate(385.999908 0.15625)"/>
     <use xlink:href="#STIXGeneral-Regular-65" transform="translate(419.299896 0.15625)"/>
     <use xlink:href="#STIXGeneral-Regular-72" transform="translate(463.69989 0.15625)"/>
     <use xlink:href="#STIXGeneral-Regular-65" transform="translate(496.999878 0.15625)"/>
     <use xlink:href="#STIXGeneral-Regular-6e" transform="translate(541.399872 0.15625)"/>
     <use xlink:href="#STIXGeneral-Regular-63" transform="translate(591.399857 0.15625)"/>
     <use xlink:href="#STIXGeneral-Regular-65" transform="translate(635.79985 0.15625)"/>
     <use xlink:href="#STIXGeneral-Regular-20" transform="translate(680.199844 0.15625)"/>
     <use xlink:href="#STIXGeneral-Regular-76" transform="translate(705.199829 0.15625)"/>
     <use xlink:href="#STIXGeneral-Regular-73" transform="translate(755.199814 0.15625)"/>
     <use xlink:href="#STIXGeneral-Regular-20" transform="translate(794.099808 0.15625)"/>
     <use xlink:href="#STIXGeneral-Regular-54" transform="translate(819.099792 0.15625)"/>
     <use xlink:href="#STIXGeneral-Regular-69" transform="translate(880.199783 0.15625)"/>
     <use xlink:href="#STIXGeneral-Regular-6d" transform="translate(907.999771 0.15625)"/>
     <use xlink:href="#STIXGeneral-Regular-65" transform="translate(985.799759 0.15625)"/>
     <use xlink:href="#STIXGeneral-Regular-20" transform="translate(1030.199753 0.15625)"/>
     <use xlink:href="#STIXGeneral-Regular-28" transform="translate(1055.199738 0.15625)"/>
     <use xlink:href="#Cmsy10-6a" transform="translate(1088.499725 0.15625)"/>
     <use xlink:href="#Cmmi10-ae" transform="translate(1116.185272 0.15625)"/>
     <use xlink:href="#Cmr10-3d" transform="translate(1197.659882 0.15625)"/>
     <use xlink:href="#Cmex10-70" transform="translate(1292.904022 94.65625) scale(0.833746)"/>
     <use xlink:href="#Cmr10-33" transform="translate(1388.763397 0.140625)"/>
     <use xlink:href="#Cmex10-ae" transform="translate(1451.263397 93.497396)"/>
     <use xlink:href="#STIXGeneral-Regular-2c" transform="translate(1498.480194 0.15625)"/>
     <use xlink:href="#STIXGeneral-Regular-20" transform="translate(1523.480179 0.15625)"/>
     <use xlink:href="#Cmmi10-b0" transform="translate(1548.480164 0.15625)"/>
     <use xlink:href="#Cmr10-3d" transform="translate(1617.747742 0.15625)"/>
     <use xlink:href="#Cmr10-31" transform="translate(1712.991882 0.15625)"/>
     <use xlink:href="#STIXGeneral-Regular-29" transform="translate(1762.991882 0.15625)"/>
     <path d="M 1376.263397 91.5 
L 1376.263397 97.75 
L 1451.263397 97.75 
L 1451.263397 91.5 
L 1376.263397 91.5 
z
"/>
    </g>
   </g>
   <g id="line2d_160">
    <path d="M 72.002727 243.311951 
L 74.665909 238.074252 
L 79.079182 229.795244 
L 83.492455 221.982752 
L 87.981818 214.487097 
L 92.471182 207.420892 
L 97.036636 200.649977 
L 101.602091 194.27337 
L 106.243636 188.171041 
L 110.961273 182.338596 
L 115.678909 176.856783 
L 120.472636 171.624009 
L 125.342455 166.635209 
L 130.288364 161.884924 
L 135.310364 157.36734 
L 140.408455 153.076334 
L 145.658727 148.947702 
L 150.985091 145.040427 
L 156.463636 141.296918 
L 162.094364 137.720241 
L 167.877273 134.312278 
L 173.812364 131.075269 
L 179.899636 128.006583 
L 186.215182 125.071894 
L 192.759 122.277465 
L 199.531091 119.626997 
L 206.607545 117.098242 
L 213.988364 114.69952 
L 221.673545 112.437285 
L 229.739182 110.296303 
L 238.185273 108.284989 
L 247.164 106.378017 
L 256.675364 104.588925 
L 266.795455 102.915591 
L 277.600364 101.358395 
L 289.166182 99.91924 
L 301.645091 98.593204 
L 315.189273 97.379964 
L 330.027 96.276656 
L 346.462636 95.281267 
L 364.876636 94.39387 
L 385.725545 93.617118 
L 409.770273 92.949458 
L 437.619545 92.403117 
L 452.457273 92.183211 
L 452.457273 92.183211 
" clip-path="url(#p77ab5bf9c7)" style="fill: none; stroke: #1f77b4; stroke-width: 2.6; stroke-linecap: square"/>
   </g>
   <g id="legend_1">
    <g id="line2d_161">
     <path d="M 363.865625 267.205656 
L 374.865625 267.205656 
L 385.865625 267.205656 
" style="fill: none; stroke: #1f77b4; stroke-width: 2.6; stroke-linecap: square"/>
    </g>
    <g id="text_19">
     <!-- Density Matrix -->
     <g transform="translate(394.665625 271.055656) scale(0.11 -0.11)">
      <defs>
       <path id="STIXGeneral-Regular-79" d="M 3040 2880 
L 3040 2784 
Q 2925 2771 2854 2700 
Q 2784 2630 2720 2458 
L 1760 -160 
Q 1510 -838 1257 -1116 
Q 1005 -1395 640 -1395 
Q 435 -1395 313 -1289 
Q 192 -1184 192 -1024 
Q 192 -902 272 -816 
Q 352 -730 467 -730 
Q 653 -730 800 -813 
Q 883 -858 966 -858 
Q 1101 -858 1286 -576 
Q 1376 -448 1459 -211 
Q 1542 26 1542 115 
Q 1542 198 1274 762 
L 429 2566 
Q 346 2752 90 2790 
L 90 2880 
L 1402 2880 
L 1402 2784 
Q 1197 2778 1117 2739 
Q 1037 2701 1037 2611 
Q 1037 2541 1120 2349 
L 1837 749 
L 2458 2515 
Q 2483 2573 2483 2630 
Q 2483 2784 2189 2784 
L 2189 2880 
L 3040 2880 
z
" transform="scale(0.015625)"/>
      </defs>
      <use xlink:href="#STIXGeneral-Regular-44"/>
      <use xlink:href="#STIXGeneral-Regular-65" transform="translate(72.199982 0)"/>
      <use xlink:href="#STIXGeneral-Regular-6e" transform="translate(116.599976 0)"/>
      <use xlink:href="#STIXGeneral-Regular-73" transform="translate(166.59996 0)"/>
      <use xlink:href="#STIXGeneral-Regular-69" transform="translate(205.499954 0)"/>
      <use xlink:href="#STIXGeneral-Regular-74" transform="translate(233.299942 0)"/>
      <use xlink:href="#STIXGeneral-Regular-79" transform="translate(261.09993 0)"/>
      <use xlink:href="#STIXGeneral-Regular-20" transform="translate(311.099915 0)"/>
      <use xlink:href="#STIXGeneral-Regular-4d" transform="translate(336.099899 0)"/>
      <use xlink:href="#STIXGeneral-Regular-61" transform="translate(424.999893 0)"/>
      <use xlink:href="#STIXGeneral-Regular-74" transform="translate(469.399887 0)"/>
      <use xlink:href="#STIXGeneral-Regular-72" transform="translate(497.199875 0)"/>
      <use xlink:href="#STIXGeneral-Regular-69" transform="translate(530.499863 0)"/>
      <use xlink:href="#STIXGeneral-Regular-78" transform="translate(558.29985 0)"/>
     </g>
    </g>
    <g id="line2d_162">
     <path d="M 363.865625 282.803312 
L 374.865625 282.803312 
L 385.865625 282.803312 
" style="fill: none; stroke: #ff7f0e; stroke-width: 2.5; stroke-linecap: square"/>
    </g>
    <g id="text_20">
     <!-- Monte Carlo -->
     <g transform="translate(394.665625 286.653312) scale(0.11 -0.11)">
      <defs>
       <path id="STIXGeneral-Regular-43" d="M 3930 838 
L 4051 723 
Q 3482 -90 2304 -90 
Q 1376 -90 794 480 
Q 179 1082 179 2080 
Q 179 3014 755 3661 
Q 1357 4326 2310 4326 
Q 2720 4326 3072 4230 
Q 3475 4115 3514 4115 
Q 3725 4115 3782 4326 
L 3910 4326 
L 3968 2874 
L 3821 2874 
Q 3718 3334 3488 3584 
Q 3034 4070 2458 4070 
Q 1747 4070 1334 3548 
Q 922 3027 922 2182 
Q 922 1152 1382 653 
Q 1811 192 2522 192 
Q 2944 192 3251 339 
Q 3558 486 3930 838 
z
" transform="scale(0.015625)"/>
       <path id="STIXGeneral-Regular-6c" d="M 1645 0 
L 134 0 
L 134 96 
Q 435 122 531 221 
Q 627 320 627 589 
L 627 3590 
Q 627 3821 569 3910 
Q 512 4000 358 4000 
Q 224 4000 122 3987 
L 122 4090 
Q 730 4237 1133 4371 
L 1165 4346 
L 1165 557 
Q 1165 288 1254 201 
Q 1344 115 1645 96 
L 1645 0 
z
" transform="scale(0.015625)"/>
      </defs>
      <use xlink:href="#STIXGeneral-Regular-4d"/>
      <use xlink:href="#STIXGeneral-Regular-6f" transform="translate(88.899994 0)"/>
      <use xlink:href="#STIXGeneral-Regular-6e" transform="translate(138.899979 0)"/>
      <use xlink:href="#STIXGeneral-Regular-74" transform="translate(188.899963 0)"/>
      <use xlink:href="#STIXGeneral-Regular-65" transform="translate(216.699951 0)"/>
      <use xlink:href="#STIXGeneral-Regular-20" transform="translate(261.099945 0)"/>
      <use xlink:href="#STIXGeneral-Regular-43" transform="translate(286.09993 0)"/>
      <use xlink:href="#STIXGeneral-Regular-61" transform="translate(352.799927 0)"/>
      <use xlink:href="#STIXGeneral-Regular-72" transform="translate(397.199921 0)"/>
      <use xlink:href="#STIXGeneral-Regular-6c" transform="translate(430.499908 0)"/>
      <use xlink:href="#STIXGeneral-Regular-6f" transform="translate(458.299896 0)"/>
     </g>
    </g>
    <g id="line2d_163">
     <path d="M 363.865625 298.390656 
L 374.865625 298.390656 
L 385.865625 298.390656 
" style="fill: none; stroke: #2ca02c; stroke-width: 2.7; stroke-linecap: square"/>
    </g>
    <g id="text_21">
     <!-- Positive-P -->
     <g transform="translate(394.665625 302.240656) scale(0.11 -0.11)">
      <defs>
       <path id="STIXGeneral-Regular-50" d="M 102 4237 
L 1760 4237 
Q 2669 4237 3149 3834 
Q 3469 3565 3469 3072 
Q 3469 2560 3104 2234 
Q 2835 1990 2553 1916 
Q 2272 1843 1734 1843 
Q 1549 1843 1293 1862 
L 1293 717 
Q 1293 352 1398 246 
Q 1504 141 1894 122 
L 1894 0 
L 102 0 
L 102 122 
Q 474 147 557 256 
Q 640 365 640 781 
L 640 3526 
Q 640 3885 547 3987 
Q 454 4090 102 4115 
L 102 4237 
z
M 1293 3770 
L 1293 2118 
Q 1510 2099 1683 2099 
Q 2202 2099 2486 2352 
Q 2771 2605 2771 3040 
Q 2771 3558 2476 3779 
Q 2182 4000 1517 4000 
Q 1382 4000 1337 3952 
Q 1293 3904 1293 3770 
z
" transform="scale(0.015625)"/>
       <path id="STIXGeneral-Regular-2d" d="M 1824 1242 
L 250 1242 
L 250 1645 
L 1824 1645 
L 1824 1242 
z
" transform="scale(0.015625)"/>
      </defs>
      <use xlink:href="#STIXGeneral-Regular-50"/>
      <use xlink:href="#STIXGeneral-Regular-6f" transform="translate(55.699997 0)"/>
      <use xlink:href="#STIXGeneral-Regular-73" transform="translate(105.699982 0)"/>
      <use xlink:href="#STIXGeneral-Regular-69" transform="translate(144.599976 0)"/>
      <use xlink:href="#STIXGeneral-Regular-74" transform="translate(172.399963 0)"/>
      <use xlink:href="#STIXGeneral-Regular-69" transform="translate(200.199951 0)"/>
      <use xlink:href="#STIXGeneral-Regular-76" transform="translate(227.999939 0)"/>
      <use xlink:href="#STIXGeneral-Regular-65" transform="translate(277.999924 0)"/>
      <use xlink:href="#STIXGeneral-Regular-2d" transform="translate(322.399918 0)"/>
      <use xlink:href="#STIXGeneral-Regular-50" transform="translate(355.699905 0)"/>
     </g>
    </g>
   </g>
  </g>
 </g>
 <defs>
  <clipPath id="p77ab5bf9c7">
   <rect x="52.98" y="26.24" width="418.5" height="288.288"/>
  </clipPath>
 </defs>
</svg>
