<?xml version="1.0" encoding="utf-8" standalone="no"?>
<!DOCTYPE svg PUBLIC "-//W3C//DTD SVG 1.1//EN"
  "http://www.w3.org/Graphics/SVG/1.1/DTD/svg11.dtd">
<svg xmlns:xlink="http://www.w3.org/1999/xlink" width="460.8pt" height="348.068pt" viewBox="0 0 460.8 348.068" xmlns="http://www.w3.org/2000/svg" version="1.1">
 <metadata>
  <rdf:RDF xmlns:dc="http://purl.org/dc/elements/1.1/" xmlns:cc="http://creativecommons.org/ns#" xmlns:rdf="http://www.w3.org/1999/02/22-rdf-syntax-ns#">
   <cc:Work>
    <dc:type rdf:resource="http://purl.org/dc/dcmitype/StillImage"/>
    <dc:date>2026-04-18T09:21:56.459495</dc:date>
    <dc:format>image/svg+xml</dc:format>
    <dc:creator>
     <cc:Agent>
      <dc:title>Matplotlib v3.10.8, https://matplotlib.org/</dc:title>
     </cc:Agent>
    </dc:creator>
   </cc:Work>
  </rdf:RDF>
 </metadata>
 <defs>
  <style type="text/css">*{stroke-linejoin: round; stroke-linecap: butt}</style>
 </defs>
 <g id="figure_1">
  <g id="patch_1">
   <path d="M 0 348.068 
L 460.8 348.068 
L 460.8 0 
L 0 0 
z
" style="fill: #ffffff"/>
  </g>
  <g id="axes_1">
   <g id="patch_2">
    <path d="M 38.7 313.568 
L 457.2 313.568 
L 457.2 25.28 
L 38.7 25.28 
z
" style="fill: #ffffff"/>
   </g>
   <g id="matplotlib.axis_1">
    <g id="xtick_1">
     <g id="line2d_1">
      <path d="M 57.722727 313.568 
L 57.722727 25.28 
" clip-path="url(#p123dea1704)" style="fill: none; stroke: #b0b0b0; stroke-opacity: 0.35; stroke-width: 0.5; stroke-linecap: square"/>
     </g>
     <g id="line2d_2">
      <defs>
       <path id="m70b3c72ab8" d="M 0 0 
L 0 -3 
" style="stroke: #000000; stroke-width: 0.5"/>
      </defs>
      <g>
       <use xlink:href="#m70b3c72ab8" x="57.722727" y="313.568" style="stroke: #000000; stroke-width: 0.5"/>
      </g>
     </g>
     <g id="line2d_3">
      <defs>
       <path id="mf64c33f13e" d="M 0 0 
L 0 3 
" style="stroke: #000000; stroke-width: 0.5"/>
      </defs>
      <g>
       <use xlink:href="#mf64c33f13e" x="57.722727" y="25.28" style="stroke: #000000; stroke-width: 0.5"/>
      </g>
     </g>
     <g id="text_1">
      <!-- $\mathdefault{0}$ -->
      <g transform="translate(54.722727 325.263625) scale(0.12 -0.12)">
       <defs>
        <path id="STIXGeneral-Regular-30" d="M 3046 2112 
Q 3046 1683 2963 1302 
Q 2880 922 2717 602 
Q 2554 282 2266 96 
Q 1978 -90 1600 -90 
Q 1210 -90 915 108 
Q 621 307 461 640 
Q 301 973 227 1350 
Q 154 1728 154 2150 
Q 154 2746 301 3222 
Q 448 3699 790 4012 
Q 1133 4326 1626 4326 
Q 2253 4326 2649 3712 
Q 3046 3098 3046 2112 
z
M 2432 2080 
Q 2432 3091 2217 3625 
Q 2003 4160 1587 4160 
Q 1190 4160 979 3622 
Q 768 3085 768 2106 
Q 768 1120 979 598 
Q 1190 77 1600 77 
Q 2003 77 2217 598 
Q 2432 1120 2432 2080 
z
" transform="scale(0.015625)"/>
       </defs>
       <use xlink:href="#STIXGeneral-Regular-30" transform="translate(0 0.40625)"/>
      </g>
     </g>
    </g>
    <g id="xtick_2">
     <g id="line2d_4">
      <path d="M 133.813636 313.568 
L 133.813636 25.28 
" clip-path="url(#p123dea1704)" style="fill: none; stroke: #b0b0b0; stroke-opacity: 0.35; stroke-width: 0.5; stroke-linecap: square"/>
     </g>
     <g id="line2d_5">
      <g>
       <use xlink:href="#m70b3c72ab8" x="133.813636" y="313.568" style="stroke: #000000; stroke-width: 0.5"/>
      </g>
     </g>
     <g id="line2d_6">
      <g>
       <use xlink:href="#mf64c33f13e" x="133.813636" y="25.28" style="stroke: #000000; stroke-width: 0.5"/>
      </g>
     </g>
     <g id="text_2">
      <!-- $\mathdefault{1}$ -->
      <g transform="translate(130.813636 325.263625) scale(0.12 -0.12)">
       <defs>
        <path id="STIXGeneral-Regular-31" d="M 2522 0 
L 755 0 
L 755 96 
Q 1107 115 1235 227 
Q 1363 339 1363 608 
L 1363 3482 
Q 1363 3795 1171 3795 
Q 1082 3795 883 3718 
L 710 3654 
L 710 3744 
L 1856 4326 
L 1914 4307 
L 1914 486 
Q 1914 275 2042 185 
Q 2170 96 2522 96 
L 2522 0 
z
" transform="scale(0.015625)"/>
       </defs>
       <use xlink:href="#STIXGeneral-Regular-31" transform="translate(0 0.40625)"/>
      </g>
     </g>
    </g>
    <g id="xtick_3">
     <g id="line2d_7">
      <path d="M 209.904545 313.568 
L 209.904545 25.28 
" clip-path="url(#p123dea1704)" style="fill: none; stroke: #b0b0b0; stroke-opacity: 0.35; stroke-width: 0.5; stroke-linecap: square"/>
     </g>
     <g id="line2d_8">
      <g>
       <use xlink:href="#m70b3c72ab8" x="209.904545" y="313.568" style="stroke: #000000; stroke-width: 0.5"/>
      </g>
     </g>
     <g id="line2d_9">
      <g>
       <use xlink:href="#mf64c33f13e" x="209.904545" y="25.28" style="stroke: #000000; stroke-width: 0.5"/>
      </g>
     </g>
     <g id="text_3">
      <!-- $\mathdefault{2}$ -->
      <g transform="translate(206.904545 325.263625) scale(0.12 -0.12)">
       <defs>
        <path id="STIXGeneral-Regular-32" d="M 3034 877 
L 2688 0 
L 186 0 
L 186 77 
L 1325 1286 
Q 1773 1754 1965 2144 
Q 2157 2534 2157 2950 
Q 2157 3379 1920 3616 
Q 1683 3853 1267 3853 
Q 922 3853 720 3673 
Q 518 3494 326 3021 
L 192 3053 
Q 301 3648 630 3987 
Q 960 4326 1523 4326 
Q 2054 4326 2380 4006 
Q 2707 3686 2707 3200 
Q 2707 2477 1888 1613 
L 832 486 
L 2330 486 
Q 2541 486 2665 569 
Q 2790 653 2944 915 
L 3034 877 
z
" transform="scale(0.015625)"/>
       </defs>
       <use xlink:href="#STIXGeneral-Regular-32" transform="translate(0 0.40625)"/>
      </g>
     </g>
    </g>
    <g id="xtick_4">
     <g id="line2d_10">
      <path d="M 285.995455 313.568 
L 285.995455 25.28 
" clip-path="url(#p123dea1704)" style="fill: none; stroke: #b0b0b0; stroke-opacity: 0.35; stroke-width: 0.5; stroke-linecap: square"/>
     </g>
     <g id="line2d_11">
      <g>
       <use xlink:href="#m70b3c72ab8" x="285.995455" y="313.568" style="stroke: #000000; stroke-width: 0.5"/>
      </g>
     </g>
     <g id="line2d_12">
      <g>
       <use xlink:href="#mf64c33f13e" x="285.995455" y="25.28" style="stroke: #000000; stroke-width: 0.5"/>
      </g>
     </g>
     <g id="text_4">
      <!-- $\mathdefault{3}$ -->
      <g transform="translate(282.995455 325.263625) scale(0.12 -0.12)">
       <defs>
        <path id="STIXGeneral-Regular-33" d="M 390 3264 
L 288 3290 
Q 435 3770 748 4048 
Q 1062 4326 1542 4326 
Q 1990 4326 2265 4083 
Q 2541 3840 2541 3450 
Q 2541 2925 1946 2566 
Q 2298 2413 2477 2227 
Q 2758 1914 2758 1402 
Q 2758 890 2464 506 
Q 2246 211 1840 60 
Q 1434 -90 979 -90 
Q 262 -90 262 275 
Q 262 378 339 442 
Q 416 506 525 506 
Q 685 506 915 339 
Q 1197 141 1466 141 
Q 1818 141 2058 425 
Q 2298 710 2298 1120 
Q 2298 1856 1632 2048 
Q 1434 2112 979 2112 
L 979 2202 
Q 1338 2323 1517 2432 
Q 2035 2726 2035 3290 
Q 2035 3610 1852 3776 
Q 1670 3942 1344 3942 
Q 768 3942 390 3264 
z
" transform="scale(0.015625)"/>
       </defs>
       <use xlink:href="#STIXGeneral-Regular-33" transform="translate(0 0.40625)"/>
      </g>
     </g>
    </g>
    <g id="xtick_5">
     <g id="line2d_13">
      <path d="M 362.086364 313.568 
L 362.086364 25.28 
" clip-path="url(#p123dea1704)" style="fill: none; stroke: #b0b0b0; stroke-opacity: 0.35; stroke-width: 0.5; stroke-linecap: square"/>
     </g>
     <g id="line2d_14">
      <g>
       <use xlink:href="#m70b3c72ab8" x="362.086364" y="313.568" style="stroke: #000000; stroke-width: 0.5"/>
      </g>
     </g>
     <g id="line2d_15">
      <g>
       <use xlink:href="#mf64c33f13e" x="362.086364" y="25.28" style="stroke: #000000; stroke-width: 0.5"/>
      </g>
     </g>
     <g id="text_5">
      <!-- $\mathdefault{4}$ -->
      <g transform="translate(359.086364 325.263625) scale(0.12 -0.12)">
       <defs>
        <path id="STIXGeneral-Regular-34" d="M 3027 1069 
L 2368 1069 
L 2368 0 
L 1869 0 
L 1869 1069 
L 77 1069 
L 77 1478 
L 2086 4326 
L 2368 4326 
L 2368 1478 
L 3027 1478 
L 3027 1069 
z
M 1869 1478 
L 1869 3674 
L 333 1478 
L 1869 1478 
z
" transform="scale(0.015625)"/>
       </defs>
       <use xlink:href="#STIXGeneral-Regular-34" transform="translate(0 0.40625)"/>
      </g>
     </g>
    </g>
    <g id="xtick_6">
     <g id="line2d_16">
      <path d="M 438.177273 313.568 
L 438.177273 25.28 
" clip-path="url(#p123dea1704)" style="fill: none; stroke: #b0b0b0; stroke-opacity: 0.35; stroke-width: 0.5; stroke-linecap: square"/>
     </g>
     <g id="line2d_17">
      <g>
       <use xlink:href="#m70b3c72ab8" x="438.177273" y="313.568" style="stroke: #000000; stroke-width: 0.5"/>
      </g>
     </g>
     <g id="line2d_18">
      <g>
       <use xlink:href="#mf64c33f13e" x="438.177273" y="25.28" style="stroke: #000000; stroke-width: 0.5"/>
      </g>
     </g>
     <g id="text_6">
      <!-- $\mathdefault{5}$ -->
      <g transform="translate(435.177273 325.263625) scale(0.12 -0.12)">
       <defs>
        <path id="STIXGeneral-Regular-35" d="M 2803 4358 
L 2573 3814 
Q 2534 3731 2400 3731 
L 1158 3731 
L 902 3187 
Q 1606 3053 1920 2896 
Q 2234 2739 2502 2368 
Q 2726 2061 2726 1555 
Q 2726 1094 2576 780 
Q 2426 467 2099 224 
Q 1664 -90 1011 -90 
Q 646 -90 422 19 
Q 198 128 198 307 
Q 198 550 486 550 
Q 717 550 960 352 
Q 1210 147 1414 147 
Q 1747 147 2012 480 
Q 2278 813 2278 1229 
Q 2278 1843 1850 2189 
Q 1293 2637 486 2637 
Q 410 2637 410 2688 
L 416 2720 
L 1114 4237 
L 2438 4237 
Q 2547 4237 2608 4269 
Q 2669 4301 2746 4403 
L 2803 4358 
z
" transform="scale(0.015625)"/>
       </defs>
       <use xlink:href="#STIXGeneral-Regular-35" transform="translate(0 0.203125)"/>
      </g>
     </g>
    </g>
    <g id="xtick_7">
     <g id="line2d_19">
      <defs>
       <path id="m83e294a280" d="M 0 0 
L 0 -1.5 
" style="stroke: #000000; stroke-width: 0.5"/>
      </defs>
      <g>
       <use xlink:href="#m83e294a280" x="42.504545" y="313.568" style="stroke: #000000; stroke-width: 0.5"/>
      </g>
     </g>
     <g id="line2d_20">
      <defs>
       <path id="m8502d17d6a" d="M 0 0 
L 0 1.5 
" style="stroke: #000000; stroke-width: 0.5"/>
      </defs>
      <g>
       <use xlink:href="#m8502d17d6a" x="42.504545" y="25.28" style="stroke: #000000; stroke-width: 0.5"/>
      </g>
     </g>
    </g>
    <g id="xtick_8">
     <g id="line2d_21">
      <g>
       <use xlink:href="#m83e294a280" x="72.940909" y="313.568" style="stroke: #000000; stroke-width: 0.5"/>
      </g>
     </g>
     <g id="line2d_22">
      <g>
       <use xlink:href="#m8502d17d6a" x="72.940909" y="25.28" style="stroke: #000000; stroke-width: 0.5"/>
      </g>
     </g>
    </g>
    <g id="xtick_9">
     <g id="line2d_23">
      <g>
       <use xlink:href="#m83e294a280" x="88.159091" y="313.568" style="stroke: #000000; stroke-width: 0.5"/>
      </g>
     </g>
     <g id="line2d_24">
      <g>
       <use xlink:href="#m8502d17d6a" x="88.159091" y="25.28" style="stroke: #000000; stroke-width: 0.5"/>
      </g>
     </g>
    </g>
    <g id="xtick_10">
     <g id="line2d_25">
      <g>
       <use xlink:href="#m83e294a280" x="103.377273" y="313.568" style="stroke: #000000; stroke-width: 0.5"/>
      </g>
     </g>
     <g id="line2d_26">
      <g>
       <use xlink:href="#m8502d17d6a" x="103.377273" y="25.28" style="stroke: #000000; stroke-width: 0.5"/>
      </g>
     </g>
    </g>
    <g id="xtick_11">
     <g id="line2d_27">
      <g>
       <use xlink:href="#m83e294a280" x="118.595455" y="313.568" style="stroke: #000000; stroke-width: 0.5"/>
      </g>
     </g>
     <g id="line2d_28">
      <g>
       <use xlink:href="#m8502d17d6a" x="118.595455" y="25.28" style="stroke: #000000; stroke-width: 0.5"/>
      </g>
     </g>
    </g>
    <g id="xtick_12">
     <g id="line2d_29">
      <g>
       <use xlink:href="#m83e294a280" x="149.031818" y="313.568" style="stroke: #000000; stroke-width: 0.5"/>
      </g>
     </g>
     <g id="line2d_30">
      <g>
       <use xlink:href="#m8502d17d6a" x="149.031818" y="25.28" style="stroke: #000000; stroke-width: 0.5"/>
      </g>
     </g>
    </g>
    <g id="xtick_13">
     <g id="line2d_31">
      <g>
       <use xlink:href="#m83e294a280" x="164.25" y="313.568" style="stroke: #000000; stroke-width: 0.5"/>
      </g>
     </g>
     <g id="line2d_32">
      <g>
       <use xlink:href="#m8502d17d6a" x="164.25" y="25.28" style="stroke: #000000; stroke-width: 0.5"/>
      </g>
     </g>
    </g>
    <g id="xtick_14">
     <g id="line2d_33">
      <g>
       <use xlink:href="#m83e294a280" x="179.468182" y="313.568" style="stroke: #000000; stroke-width: 0.5"/>
      </g>
     </g>
     <g id="line2d_34">
      <g>
       <use xlink:href="#m8502d17d6a" x="179.468182" y="25.28" style="stroke: #000000; stroke-width: 0.5"/>
      </g>
     </g>
    </g>
    <g id="xtick_15">
     <g id="line2d_35">
      <g>
       <use xlink:href="#m83e294a280" x="194.686364" y="313.568" style="stroke: #000000; stroke-width: 0.5"/>
      </g>
     </g>
     <g id="line2d_36">
      <g>
       <use xlink:href="#m8502d17d6a" x="194.686364" y="25.28" style="stroke: #000000; stroke-width: 0.5"/>
      </g>
     </g>
    </g>
    <g id="xtick_16">
     <g id="line2d_37">
      <g>
       <use xlink:href="#m83e294a280" x="225.122727" y="313.568" style="stroke: #000000; stroke-width: 0.5"/>
      </g>
     </g>
     <g id="line2d_38">
      <g>
       <use xlink:href="#m8502d17d6a" x="225.122727" y="25.28" style="stroke: #000000; stroke-width: 0.5"/>
      </g>
     </g>
    </g>
    <g id="xtick_17">
     <g id="line2d_39">
      <g>
       <use xlink:href="#m83e294a280" x="240.340909" y="313.568" style="stroke: #000000; stroke-width: 0.5"/>
      </g>
     </g>
     <g id="line2d_40">
      <g>
       <use xlink:href="#m8502d17d6a" x="240.340909" y="25.28" style="stroke: #000000; stroke-width: 0.5"/>
      </g>
     </g>
    </g>
    <g id="xtick_18">
     <g id="line2d_41">
      <g>
       <use xlink:href="#m83e294a280" x="255.559091" y="313.568" style="stroke: #000000; stroke-width: 0.5"/>
      </g>
     </g>
     <g id="line2d_42">
      <g>
       <use xlink:href="#m8502d17d6a" x="255.559091" y="25.28" style="stroke: #000000; stroke-width: 0.5"/>
      </g>
     </g>
    </g>
    <g id="xtick_19">
     <g id="line2d_43">
      <g>
       <use xlink:href="#m83e294a280" x="270.777273" y="313.568" style="stroke: #000000; stroke-width: 0.5"/>
      </g>
     </g>
     <g id="line2d_44">
      <g>
       <use xlink:href="#m8502d17d6a" x="270.777273" y="25.28" style="stroke: #000000; stroke-width: 0.5"/>
      </g>
     </g>
    </g>
    <g id="xtick_20">
     <g id="line2d_45">
      <g>
       <use xlink:href="#m83e294a280" x="301.213636" y="313.568" style="stroke: #000000; stroke-width: 0.5"/>
      </g>
     </g>
     <g id="line2d_46">
      <g>
       <use xlink:href="#m8502d17d6a" x="301.213636" y="25.28" style="stroke: #000000; stroke-width: 0.5"/>
      </g>
     </g>
    </g>
    <g id="xtick_21">
     <g id="line2d_47">
      <g>
       <use xlink:href="#m83e294a280" x="316.431818" y="313.568" style="stroke: #000000; stroke-width: 0.5"/>
      </g>
     </g>
     <g id="line2d_48">
      <g>
       <use xlink:href="#m8502d17d6a" x="316.431818" y="25.28" style="stroke: #000000; stroke-width: 0.5"/>
      </g>
     </g>
    </g>
    <g id="xtick_22">
     <g id="line2d_49">
      <g>
       <use xlink:href="#m83e294a280" x="331.65" y="313.568" style="stroke: #000000; stroke-width: 0.5"/>
      </g>
     </g>
     <g id="line2d_50">
      <g>
       <use xlink:href="#m8502d17d6a" x="331.65" y="25.28" style="stroke: #000000; stroke-width: 0.5"/>
      </g>
     </g>
    </g>
    <g id="xtick_23">
     <g id="line2d_51">
      <g>
       <use xlink:href="#m83e294a280" x="346.868182" y="313.568" style="stroke: #000000; stroke-width: 0.5"/>
      </g>
     </g>
     <g id="line2d_52">
      <g>
       <use xlink:href="#m8502d17d6a" x="346.868182" y="25.28" style="stroke: #000000; stroke-width: 0.5"/>
      </g>
     </g>
    </g>
    <g id="xtick_24">
     <g id="line2d_53">
      <g>
       <use xlink:href="#m83e294a280" x="377.304545" y="313.568" style="stroke: #000000; stroke-width: 0.5"/>
      </g>
     </g>
     <g id="line2d_54">
      <g>
       <use xlink:href="#m8502d17d6a" x="377.304545" y="25.28" style="stroke: #000000; stroke-width: 0.5"/>
      </g>
     </g>
    </g>
    <g id="xtick_25">
     <g id="line2d_55">
      <g>
       <use xlink:href="#m83e294a280" x="392.522727" y="313.568" style="stroke: #000000; stroke-width: 0.5"/>
      </g>
     </g>
     <g id="line2d_56">
      <g>
       <use xlink:href="#m8502d17d6a" x="392.522727" y="25.28" style="stroke: #000000; stroke-width: 0.5"/>
      </g>
     </g>
    </g>
    <g id="xtick_26">
     <g id="line2d_57">
      <g>
       <use xlink:href="#m83e294a280" x="407.740909" y="313.568" style="stroke: #000000; stroke-width: 0.5"/>
      </g>
     </g>
     <g id="line2d_58">
      <g>
       <use xlink:href="#m8502d17d6a" x="407.740909" y="25.28" style="stroke: #000000; stroke-width: 0.5"/>
      </g>
     </g>
    </g>
    <g id="xtick_27">
     <g id="line2d_59">
      <g>
       <use xlink:href="#m83e294a280" x="422.959091" y="313.568" style="stroke: #000000; stroke-width: 0.5"/>
      </g>
     </g>
     <g id="line2d_60">
      <g>
       <use xlink:href="#m8502d17d6a" x="422.959091" y="25.28" style="stroke: #000000; stroke-width: 0.5"/>
      </g>
     </g>
    </g>
    <g id="xtick_28">
     <g id="line2d_61">
      <g>
       <use xlink:href="#m83e294a280" x="453.395455" y="313.568" style="stroke: #000000; stroke-width: 0.5"/>
      </g>
     </g>
     <g id="line2d_62">
      <g>
       <use xlink:href="#m8502d17d6a" x="453.395455" y="25.28" style="stroke: #000000; stroke-width: 0.5"/>
      </g>
     </g>
    </g>
    <g id="text_7">
     <!-- Time -->
     <g transform="translate(233.173438 341.429562) scale(0.14 -0.14)">
      <defs>
       <path id="STIXGeneral-Regular-54" d="M 3795 3149 
L 3642 3149 
Q 3539 3674 3353 3821 
Q 3168 3968 2656 3968 
L 2278 3968 
L 2278 710 
Q 2278 346 2387 243 
Q 2496 141 2893 122 
L 2893 0 
L 1024 0 
L 1024 122 
Q 1427 147 1526 256 
Q 1626 365 1626 787 
L 1626 3968 
L 1242 3968 
Q 723 3968 540 3817 
Q 358 3667 262 3149 
L 109 3149 
L 154 4237 
L 3750 4237 
L 3795 3149 
z
" transform="scale(0.015625)"/>
       <path id="STIXGeneral-Regular-69" d="M 1152 4045 
Q 1152 3904 1056 3811 
Q 960 3718 819 3718 
Q 685 3718 592 3811 
Q 499 3904 499 4045 
Q 499 4179 595 4275 
Q 691 4371 826 4371 
Q 966 4371 1059 4275 
Q 1152 4179 1152 4045 
z
M 1619 0 
L 102 0 
L 102 96 
Q 435 115 521 211 
Q 608 307 608 666 
L 608 2118 
Q 608 2342 563 2432 
Q 518 2522 397 2522 
Q 243 2522 128 2490 
L 128 2592 
L 1120 2944 
L 1146 2918 
L 1146 672 
Q 1146 314 1226 218 
Q 1306 122 1619 96 
L 1619 0 
z
" transform="scale(0.015625)"/>
       <path id="STIXGeneral-Regular-6d" d="M 4960 0 
L 3565 0 
L 3565 96 
Q 3834 122 3907 208 
Q 3981 294 3981 576 
L 3981 1894 
Q 3981 2278 3869 2444 
Q 3757 2611 3488 2611 
Q 3264 2611 3107 2521 
Q 2950 2432 2803 2221 
L 2803 608 
Q 2803 301 2896 201 
Q 2989 102 3264 96 
L 3264 0 
L 1830 0 
L 1830 96 
Q 2112 115 2189 188 
Q 2266 262 2266 550 
L 2266 1901 
Q 2266 2611 1850 2611 
Q 1670 2611 1468 2531 
Q 1267 2451 1171 2336 
Q 1088 2240 1088 2227 
L 1088 448 
Q 1088 243 1177 176 
Q 1267 109 1523 96 
L 1523 0 
L 102 0 
L 102 96 
Q 371 102 460 195 
Q 550 288 550 563 
L 550 2150 
Q 550 2387 499 2480 
Q 448 2573 326 2573 
Q 230 2573 122 2547 
L 122 2656 
Q 557 2778 1011 2944 
L 1062 2925 
L 1062 2451 
L 1075 2451 
Q 1363 2752 1584 2848 
Q 1805 2944 2054 2944 
Q 2560 2944 2733 2406 
Q 3232 2944 3776 2944 
Q 4518 2944 4518 1792 
L 4518 493 
Q 4518 282 4582 202 
Q 4646 122 4794 109 
L 4960 96 
L 4960 0 
z
" transform="scale(0.015625)"/>
       <path id="STIXGeneral-Regular-65" d="M 2611 1050 
L 2714 1005 
Q 2330 -64 1376 -64 
Q 813 -64 486 329 
Q 160 723 160 1389 
Q 160 2074 525 2509 
Q 890 2944 1485 2944 
Q 2061 2944 2374 2502 
Q 2560 2246 2592 1773 
L 621 1773 
Q 646 1370 700 1158 
Q 755 947 915 730 
Q 1184 378 1626 378 
Q 1939 378 2153 531 
Q 2368 685 2611 1050 
z
M 634 1978 
L 1939 1978 
Q 1882 2381 1750 2547 
Q 1619 2714 1312 2714 
Q 1043 2714 864 2525 
Q 685 2336 634 1978 
z
" transform="scale(0.015625)"/>
      </defs>
      <use xlink:href="#STIXGeneral-Regular-54"/>
      <use xlink:href="#STIXGeneral-Regular-69" transform="translate(61.099991 0)"/>
      <use xlink:href="#STIXGeneral-Regular-6d" transform="translate(88.899979 0)"/>
      <use xlink:href="#STIXGeneral-Regular-65" transform="translate(166.699966 0)"/>
     </g>
    </g>
   </g>
   <g id="matplotlib.axis_2">
    <g id="ytick_1">
     <g id="line2d_63">
      <path d="M 38.7 302.231434 
L 457.2 302.231434 
" clip-path="url(#p123dea1704)" style="fill: none; stroke: #b0b0b0; stroke-opacity: 0.35; stroke-width: 0.5; stroke-linecap: square"/>
     </g>
     <g id="line2d_64">
      <defs>
       <path id="m8071ee6dd1" d="M 0 0 
L 3 0 
" style="stroke: #000000; stroke-width: 0.5"/>
      </defs>
      <g>
       <use xlink:href="#m8071ee6dd1" x="38.7" y="302.231434" style="stroke: #000000; stroke-width: 0.5"/>
      </g>
     </g>
     <g id="line2d_65">
      <defs>
       <path id="m7eb6656219" d="M 0 0 
L -3 0 
" style="stroke: #000000; stroke-width: 0.5"/>
      </defs>
      <g>
       <use xlink:href="#m7eb6656219" x="457.2" y="302.231434" style="stroke: #000000; stroke-width: 0.5"/>
      </g>
     </g>
     <g id="text_8">
      <!-- $\mathdefault{0.0}$ -->
      <g transform="translate(20.2 306.329247) scale(0.12 -0.12)">
       <defs>
        <path id="STIXGeneral-Regular-2e" d="M 1158 275 
Q 1158 134 1052 32 
Q 947 -70 800 -70 
Q 653 -70 550 32 
Q 448 134 448 281 
Q 448 429 553 534 
Q 659 640 806 640 
Q 947 640 1052 531 
Q 1158 422 1158 275 
z
" transform="scale(0.015625)"/>
       </defs>
       <use xlink:href="#STIXGeneral-Regular-30" transform="translate(0 0.40625)"/>
       <use xlink:href="#STIXGeneral-Regular-2e" transform="translate(49.999985 0.40625)"/>
       <use xlink:href="#STIXGeneral-Regular-30" transform="translate(74.999969 0.40625)"/>
      </g>
     </g>
    </g>
    <g id="ytick_2">
     <g id="line2d_66">
      <path d="M 38.7 258.513016 
L 457.2 258.513016 
" clip-path="url(#p123dea1704)" style="fill: none; stroke: #b0b0b0; stroke-opacity: 0.35; stroke-width: 0.5; stroke-linecap: square"/>
     </g>
     <g id="line2d_67">
      <g>
       <use xlink:href="#m8071ee6dd1" x="38.7" y="258.513016" style="stroke: #000000; stroke-width: 0.5"/>
      </g>
     </g>
     <g id="line2d_68">
      <g>
       <use xlink:href="#m7eb6656219" x="457.2" y="258.513016" style="stroke: #000000; stroke-width: 0.5"/>
      </g>
     </g>
     <g id="text_9">
      <!-- $\mathdefault{0.5}$ -->
      <g transform="translate(20.2 262.610828) scale(0.12 -0.12)">
       <use xlink:href="#STIXGeneral-Regular-30" transform="translate(0 0.203125)"/>
       <use xlink:href="#STIXGeneral-Regular-2e" transform="translate(49.999985 0.203125)"/>
       <use xlink:href="#STIXGeneral-Regular-35" transform="translate(74.999969 0.203125)"/>
      </g>
     </g>
    </g>
    <g id="ytick_3">
     <g id="line2d_69">
      <path d="M 38.7 214.794597 
L 457.2 214.794597 
" clip-path="url(#p123dea1704)" style="fill: none; stroke: #b0b0b0; stroke-opacity: 0.35; stroke-width: 0.5; stroke-linecap: square"/>
     </g>
     <g id="line2d_70">
      <g>
       <use xlink:href="#m8071ee6dd1" x="38.7" y="214.794597" style="stroke: #000000; stroke-width: 0.5"/>
      </g>
     </g>
     <g id="line2d_71">
      <g>
       <use xlink:href="#m7eb6656219" x="457.2" y="214.794597" style="stroke: #000000; stroke-width: 0.5"/>
      </g>
     </g>
     <g id="text_10">
      <!-- $\mathdefault{1.0}$ -->
      <g transform="translate(20.2 218.892409) scale(0.12 -0.12)">
       <use xlink:href="#STIXGeneral-Regular-31" transform="translate(0 0.40625)"/>
       <use xlink:href="#STIXGeneral-Regular-2e" transform="translate(49.999985 0.40625)"/>
       <use xlink:href="#STIXGeneral-Regular-30" transform="translate(74.999969 0.40625)"/>
      </g>
     </g>
    </g>
    <g id="ytick_4">
     <g id="line2d_72">
      <path d="M 38.7 171.076178 
L 457.2 171.076178 
" clip-path="url(#p123dea1704)" style="fill: none; stroke: #b0b0b0; stroke-opacity: 0.35; stroke-width: 0.5; stroke-linecap: square"/>
     </g>
     <g id="line2d_73">
      <g>
       <use xlink:href="#m8071ee6dd1" x="38.7" y="171.076178" style="stroke: #000000; stroke-width: 0.5"/>
      </g>
     </g>
     <g id="line2d_74">
      <g>
       <use xlink:href="#m7eb6656219" x="457.2" y="171.076178" style="stroke: #000000; stroke-width: 0.5"/>
      </g>
     </g>
     <g id="text_11">
      <!-- $\mathdefault{1.5}$ -->
      <g transform="translate(20.2 175.173991) scale(0.12 -0.12)">
       <use xlink:href="#STIXGeneral-Regular-31" transform="translate(0 0.203125)"/>
       <use xlink:href="#STIXGeneral-Regular-2e" transform="translate(49.999985 0.203125)"/>
       <use xlink:href="#STIXGeneral-Regular-35" transform="translate(74.999969 0.203125)"/>
      </g>
     </g>
    </g>
    <g id="ytick_5">
     <g id="line2d_75">
      <path d="M 38.7 127.357759 
L 457.2 127.357759 
" clip-path="url(#p123dea1704)" style="fill: none; stroke: #b0b0b0; stroke-opacity: 0.35; stroke-width: 0.5; stroke-linecap: square"/>
     </g>
     <g id="line2d_76">
      <g>
       <use xlink:href="#m8071ee6dd1" x="38.7" y="127.357759" style="stroke: #000000; stroke-width: 0.5"/>
      </g>
     </g>
     <g id="line2d_77">
      <g>
       <use xlink:href="#m7eb6656219" x="457.2" y="127.357759" style="stroke: #000000; stroke-width: 0.5"/>
      </g>
     </g>
     <g id="text_12">
      <!-- $\mathdefault{2.0}$ -->
      <g transform="translate(20.2 131.455572) scale(0.12 -0.12)">
       <use xlink:href="#STIXGeneral-Regular-32" transform="translate(0 0.40625)"/>
       <use xlink:href="#STIXGeneral-Regular-2e" transform="translate(49.999985 0.40625)"/>
       <use xlink:href="#STIXGeneral-Regular-30" transform="translate(74.999969 0.40625)"/>
      </g>
     </g>
    </g>
    <g id="ytick_6">
     <g id="line2d_78">
      <path d="M 38.7 83.639341 
L 457.2 83.639341 
" clip-path="url(#p123dea1704)" style="fill: none; stroke: #b0b0b0; stroke-opacity: 0.35; stroke-width: 0.5; stroke-linecap: square"/>
     </g>
     <g id="line2d_79">
      <g>
       <use xlink:href="#m8071ee6dd1" x="38.7" y="83.639341" style="stroke: #000000; stroke-width: 0.5"/>
      </g>
     </g>
     <g id="line2d_80">
      <g>
       <use xlink:href="#m7eb6656219" x="457.2" y="83.639341" style="stroke: #000000; stroke-width: 0.5"/>
      </g>
     </g>
     <g id="text_13">
      <!-- $\mathdefault{2.5}$ -->
      <g transform="translate(20.2 87.737153) scale(0.12 -0.12)">
       <use xlink:href="#STIXGeneral-Regular-32" transform="translate(0 0.203125)"/>
       <use xlink:href="#STIXGeneral-Regular-2e" transform="translate(49.999985 0.203125)"/>
       <use xlink:href="#STIXGeneral-Regular-35" transform="translate(74.999969 0.203125)"/>
      </g>
     </g>
    </g>
    <g id="ytick_7">
     <g id="line2d_81">
      <path d="M 38.7 39.920922 
L 457.2 39.920922 
" clip-path="url(#p123dea1704)" style="fill: none; stroke: #b0b0b0; stroke-opacity: 0.35; stroke-width: 0.5; stroke-linecap: square"/>
     </g>
     <g id="line2d_82">
      <g>
       <use xlink:href="#m8071ee6dd1" x="38.7" y="39.920922" style="stroke: #000000; stroke-width: 0.5"/>
      </g>
     </g>
     <g id="line2d_83">
      <g>
       <use xlink:href="#m7eb6656219" x="457.2" y="39.920922" style="stroke: #000000; stroke-width: 0.5"/>
      </g>
     </g>
     <g id="text_14">
      <!-- $\mathdefault{3.0}$ -->
      <g transform="translate(20.2 44.018734) scale(0.12 -0.12)">
       <use xlink:href="#STIXGeneral-Regular-33" transform="translate(0 0.40625)"/>
       <use xlink:href="#STIXGeneral-Regular-2e" transform="translate(49.999985 0.40625)"/>
       <use xlink:href="#STIXGeneral-Regular-30" transform="translate(74.999969 0.40625)"/>
      </g>
     </g>
    </g>
    <g id="ytick_8">
     <g id="line2d_84">
      <defs>
       <path id="m0c77d34800" d="M 0 0 
L 1.5 0 
" style="stroke: #000000; stroke-width: 0.5"/>
      </defs>
      <g>
       <use xlink:href="#m0c77d34800" x="38.7" y="310.975118" style="stroke: #000000; stroke-width: 0.5"/>
      </g>
     </g>
     <g id="line2d_85">
      <defs>
       <path id="m2304b5888c" d="M 0 0 
L -1.5 0 
" style="stroke: #000000; stroke-width: 0.5"/>
      </defs>
      <g>
       <use xlink:href="#m2304b5888c" x="457.2" y="310.975118" style="stroke: #000000; stroke-width: 0.5"/>
      </g>
     </g>
    </g>
    <g id="ytick_9">
     <g id="line2d_86">
      <g>
       <use xlink:href="#m0c77d34800" x="38.7" y="293.487751" style="stroke: #000000; stroke-width: 0.5"/>
      </g>
     </g>
     <g id="line2d_87">
      <g>
       <use xlink:href="#m2304b5888c" x="457.2" y="293.487751" style="stroke: #000000; stroke-width: 0.5"/>
      </g>
     </g>
    </g>
    <g id="ytick_10">
     <g id="line2d_88">
      <g>
       <use xlink:href="#m0c77d34800" x="38.7" y="284.744067" style="stroke: #000000; stroke-width: 0.5"/>
      </g>
     </g>
     <g id="line2d_89">
      <g>
       <use xlink:href="#m2304b5888c" x="457.2" y="284.744067" style="stroke: #000000; stroke-width: 0.5"/>
      </g>
     </g>
    </g>
    <g id="ytick_11">
     <g id="line2d_90">
      <g>
       <use xlink:href="#m0c77d34800" x="38.7" y="276.000383" style="stroke: #000000; stroke-width: 0.5"/>
      </g>
     </g>
     <g id="line2d_91">
      <g>
       <use xlink:href="#m2304b5888c" x="457.2" y="276.000383" style="stroke: #000000; stroke-width: 0.5"/>
      </g>
     </g>
    </g>
    <g id="ytick_12">
     <g id="line2d_92">
      <g>
       <use xlink:href="#m0c77d34800" x="38.7" y="267.256699" style="stroke: #000000; stroke-width: 0.5"/>
      </g>
     </g>
     <g id="line2d_93">
      <g>
       <use xlink:href="#m2304b5888c" x="457.2" y="267.256699" style="stroke: #000000; stroke-width: 0.5"/>
      </g>
     </g>
    </g>
    <g id="ytick_13">
     <g id="line2d_94">
      <g>
       <use xlink:href="#m0c77d34800" x="38.7" y="249.769332" style="stroke: #000000; stroke-width: 0.5"/>
      </g>
     </g>
     <g id="line2d_95">
      <g>
       <use xlink:href="#m2304b5888c" x="457.2" y="249.769332" style="stroke: #000000; stroke-width: 0.5"/>
      </g>
     </g>
    </g>
    <g id="ytick_14">
     <g id="line2d_96">
      <g>
       <use xlink:href="#m0c77d34800" x="38.7" y="241.025648" style="stroke: #000000; stroke-width: 0.5"/>
      </g>
     </g>
     <g id="line2d_97">
      <g>
       <use xlink:href="#m2304b5888c" x="457.2" y="241.025648" style="stroke: #000000; stroke-width: 0.5"/>
      </g>
     </g>
    </g>
    <g id="ytick_15">
     <g id="line2d_98">
      <g>
       <use xlink:href="#m0c77d34800" x="38.7" y="232.281964" style="stroke: #000000; stroke-width: 0.5"/>
      </g>
     </g>
     <g id="line2d_99">
      <g>
       <use xlink:href="#m2304b5888c" x="457.2" y="232.281964" style="stroke: #000000; stroke-width: 0.5"/>
      </g>
     </g>
    </g>
    <g id="ytick_16">
     <g id="line2d_100">
      <g>
       <use xlink:href="#m0c77d34800" x="38.7" y="223.538281" style="stroke: #000000; stroke-width: 0.5"/>
      </g>
     </g>
     <g id="line2d_101">
      <g>
       <use xlink:href="#m2304b5888c" x="457.2" y="223.538281" style="stroke: #000000; stroke-width: 0.5"/>
      </g>
     </g>
    </g>
    <g id="ytick_17">
     <g id="line2d_102">
      <g>
       <use xlink:href="#m0c77d34800" x="38.7" y="206.050913" style="stroke: #000000; stroke-width: 0.5"/>
      </g>
     </g>
     <g id="line2d_103">
      <g>
       <use xlink:href="#m2304b5888c" x="457.2" y="206.050913" style="stroke: #000000; stroke-width: 0.5"/>
      </g>
     </g>
    </g>
    <g id="ytick_18">
     <g id="line2d_104">
      <g>
       <use xlink:href="#m0c77d34800" x="38.7" y="197.307229" style="stroke: #000000; stroke-width: 0.5"/>
      </g>
     </g>
     <g id="line2d_105">
      <g>
       <use xlink:href="#m2304b5888c" x="457.2" y="197.307229" style="stroke: #000000; stroke-width: 0.5"/>
      </g>
     </g>
    </g>
    <g id="ytick_19">
     <g id="line2d_106">
      <g>
       <use xlink:href="#m0c77d34800" x="38.7" y="188.563546" style="stroke: #000000; stroke-width: 0.5"/>
      </g>
     </g>
     <g id="line2d_107">
      <g>
       <use xlink:href="#m2304b5888c" x="457.2" y="188.563546" style="stroke: #000000; stroke-width: 0.5"/>
      </g>
     </g>
    </g>
    <g id="ytick_20">
     <g id="line2d_108">
      <g>
       <use xlink:href="#m0c77d34800" x="38.7" y="179.819862" style="stroke: #000000; stroke-width: 0.5"/>
      </g>
     </g>
     <g id="line2d_109">
      <g>
       <use xlink:href="#m2304b5888c" x="457.2" y="179.819862" style="stroke: #000000; stroke-width: 0.5"/>
      </g>
     </g>
    </g>
    <g id="ytick_21">
     <g id="line2d_110">
      <g>
       <use xlink:href="#m0c77d34800" x="38.7" y="162.332494" style="stroke: #000000; stroke-width: 0.5"/>
      </g>
     </g>
     <g id="line2d_111">
      <g>
       <use xlink:href="#m2304b5888c" x="457.2" y="162.332494" style="stroke: #000000; stroke-width: 0.5"/>
      </g>
     </g>
    </g>
    <g id="ytick_22">
     <g id="line2d_112">
      <g>
       <use xlink:href="#m0c77d34800" x="38.7" y="153.588811" style="stroke: #000000; stroke-width: 0.5"/>
      </g>
     </g>
     <g id="line2d_113">
      <g>
       <use xlink:href="#m2304b5888c" x="457.2" y="153.588811" style="stroke: #000000; stroke-width: 0.5"/>
      </g>
     </g>
    </g>
    <g id="ytick_23">
     <g id="line2d_114">
      <g>
       <use xlink:href="#m0c77d34800" x="38.7" y="144.845127" style="stroke: #000000; stroke-width: 0.5"/>
      </g>
     </g>
     <g id="line2d_115">
      <g>
       <use xlink:href="#m2304b5888c" x="457.2" y="144.845127" style="stroke: #000000; stroke-width: 0.5"/>
      </g>
     </g>
    </g>
    <g id="ytick_24">
     <g id="line2d_116">
      <g>
       <use xlink:href="#m0c77d34800" x="38.7" y="136.101443" style="stroke: #000000; stroke-width: 0.5"/>
      </g>
     </g>
     <g id="line2d_117">
      <g>
       <use xlink:href="#m2304b5888c" x="457.2" y="136.101443" style="stroke: #000000; stroke-width: 0.5"/>
      </g>
     </g>
    </g>
    <g id="ytick_25">
     <g id="line2d_118">
      <g>
       <use xlink:href="#m0c77d34800" x="38.7" y="118.614076" style="stroke: #000000; stroke-width: 0.5"/>
      </g>
     </g>
     <g id="line2d_119">
      <g>
       <use xlink:href="#m2304b5888c" x="457.2" y="118.614076" style="stroke: #000000; stroke-width: 0.5"/>
      </g>
     </g>
    </g>
    <g id="ytick_26">
     <g id="line2d_120">
      <g>
       <use xlink:href="#m0c77d34800" x="38.7" y="109.870392" style="stroke: #000000; stroke-width: 0.5"/>
      </g>
     </g>
     <g id="line2d_121">
      <g>
       <use xlink:href="#m2304b5888c" x="457.2" y="109.870392" style="stroke: #000000; stroke-width: 0.5"/>
      </g>
     </g>
    </g>
    <g id="ytick_27">
     <g id="line2d_122">
      <g>
       <use xlink:href="#m0c77d34800" x="38.7" y="101.126708" style="stroke: #000000; stroke-width: 0.5"/>
      </g>
     </g>
     <g id="line2d_123">
      <g>
       <use xlink:href="#m2304b5888c" x="457.2" y="101.126708" style="stroke: #000000; stroke-width: 0.5"/>
      </g>
     </g>
    </g>
    <g id="ytick_28">
     <g id="line2d_124">
      <g>
       <use xlink:href="#m0c77d34800" x="38.7" y="92.383024" style="stroke: #000000; stroke-width: 0.5"/>
      </g>
     </g>
     <g id="line2d_125">
      <g>
       <use xlink:href="#m2304b5888c" x="457.2" y="92.383024" style="stroke: #000000; stroke-width: 0.5"/>
      </g>
     </g>
    </g>
    <g id="ytick_29">
     <g id="line2d_126">
      <g>
       <use xlink:href="#m0c77d34800" x="38.7" y="74.895657" style="stroke: #000000; stroke-width: 0.5"/>
      </g>
     </g>
     <g id="line2d_127">
      <g>
       <use xlink:href="#m2304b5888c" x="457.2" y="74.895657" style="stroke: #000000; stroke-width: 0.5"/>
      </g>
     </g>
    </g>
    <g id="ytick_30">
     <g id="line2d_128">
      <g>
       <use xlink:href="#m0c77d34800" x="38.7" y="66.151973" style="stroke: #000000; stroke-width: 0.5"/>
      </g>
     </g>
     <g id="line2d_129">
      <g>
       <use xlink:href="#m2304b5888c" x="457.2" y="66.151973" style="stroke: #000000; stroke-width: 0.5"/>
      </g>
     </g>
    </g>
    <g id="ytick_31">
     <g id="line2d_130">
      <g>
       <use xlink:href="#m0c77d34800" x="38.7" y="57.408289" style="stroke: #000000; stroke-width: 0.5"/>
      </g>
     </g>
     <g id="line2d_131">
      <g>
       <use xlink:href="#m2304b5888c" x="457.2" y="57.408289" style="stroke: #000000; stroke-width: 0.5"/>
      </g>
     </g>
    </g>
    <g id="ytick_32">
     <g id="line2d_132">
      <g>
       <use xlink:href="#m0c77d34800" x="38.7" y="48.664606" style="stroke: #000000; stroke-width: 0.5"/>
      </g>
     </g>
     <g id="line2d_133">
      <g>
       <use xlink:href="#m2304b5888c" x="457.2" y="48.664606" style="stroke: #000000; stroke-width: 0.5"/>
      </g>
     </g>
    </g>
    <g id="ytick_33">
     <g id="line2d_134">
      <g>
       <use xlink:href="#m0c77d34800" x="38.7" y="31.177238" style="stroke: #000000; stroke-width: 0.5"/>
      </g>
     </g>
     <g id="line2d_135">
      <g>
       <use xlink:href="#m2304b5888c" x="457.2" y="31.177238" style="stroke: #000000; stroke-width: 0.5"/>
      </g>
     </g>
    </g>
    <g id="text_15">
     <!-- Mean Particle Number -->
     <g transform="translate(13.161563 233.196187) rotate(-90) scale(0.14 -0.14)">
      <defs>
       <path id="STIXGeneral-Regular-4d" d="M 5530 0 
L 3738 0 
L 3738 122 
Q 4115 147 4214 265 
Q 4314 384 4314 787 
L 4314 3661 
L 2682 0 
L 2592 0 
L 979 3514 
L 979 966 
Q 979 448 1088 294 
Q 1197 141 1574 122 
L 1574 0 
L 77 0 
L 77 122 
Q 358 141 480 205 
Q 602 269 650 432 
Q 698 595 698 966 
L 698 3514 
Q 698 3878 589 3984 
Q 480 4090 90 4115 
L 90 4237 
L 1357 4237 
L 2835 1024 
L 4250 4237 
L 5523 4237 
L 5523 4115 
Q 5178 4109 5072 3993 
Q 4966 3878 4966 3520 
L 4966 717 
Q 4966 378 5072 262 
Q 5178 147 5530 122 
L 5530 0 
z
" transform="scale(0.015625)"/>
       <path id="STIXGeneral-Regular-61" d="M 2829 422 
L 2829 243 
Q 2586 -64 2253 -64 
Q 1888 -64 1843 403 
L 1837 403 
Q 1427 -64 909 -64 
Q 608 -64 422 112 
Q 237 288 237 602 
Q 237 1050 685 1350 
Q 992 1555 1837 1869 
L 1837 2214 
Q 1837 2502 1699 2646 
Q 1562 2790 1338 2790 
Q 1146 2790 1018 2697 
Q 890 2605 890 2477 
Q 890 2419 909 2348 
Q 928 2278 928 2208 
Q 928 2112 841 2029 
Q 755 1946 634 1946 
Q 525 1946 441 2029 
Q 358 2112 358 2240 
Q 358 2547 685 2752 
Q 986 2944 1421 2944 
Q 1939 2944 2176 2656 
Q 2291 2522 2323 2384 
Q 2355 2246 2355 1946 
L 2355 723 
Q 2355 301 2554 301 
Q 2682 301 2829 422 
z
M 1837 813 
L 1837 1715 
Q 1248 1510 1018 1293 
Q 800 1094 800 800 
Q 800 557 921 432 
Q 1043 307 1242 307 
Q 1453 307 1613 410 
Q 1747 506 1792 589 
Q 1837 672 1837 813 
z
" transform="scale(0.015625)"/>
       <path id="STIXGeneral-Regular-6e" d="M 3104 0 
L 1773 0 
L 1779 96 
Q 2016 115 2096 233 
Q 2176 352 2176 672 
L 2176 1946 
Q 2176 2592 1709 2592 
Q 1549 2592 1408 2515 
Q 1267 2438 1050 2227 
L 1050 461 
Q 1050 269 1136 192 
Q 1222 115 1466 96 
L 1466 0 
L 115 0 
L 115 96 
Q 358 115 435 214 
Q 512 314 512 602 
L 512 2157 
Q 512 2394 467 2483 
Q 422 2573 288 2573 
Q 160 2573 102 2547 
L 102 2656 
Q 550 2784 979 2944 
L 1030 2925 
L 1030 2426 
L 1037 2426 
Q 1491 2944 1958 2944 
Q 2323 2944 2518 2688 
Q 2714 2432 2714 1958 
L 2714 544 
Q 2714 288 2790 205 
Q 2867 122 3104 96 
L 3104 0 
z
" transform="scale(0.015625)"/>
       <path id="STIXGeneral-Regular-20" transform="scale(0.015625)"/>
       <path id="STIXGeneral-Regular-50" d="M 102 4237 
L 1760 4237 
Q 2669 4237 3149 3834 
Q 3469 3565 3469 3072 
Q 3469 2560 3104 2234 
Q 2835 1990 2553 1916 
Q 2272 1843 1734 1843 
Q 1549 1843 1293 1862 
L 1293 717 
Q 1293 352 1398 246 
Q 1504 141 1894 122 
L 1894 0 
L 102 0 
L 102 122 
Q 474 147 557 256 
Q 640 365 640 781 
L 640 3526 
Q 640 3885 547 3987 
Q 454 4090 102 4115 
L 102 4237 
z
M 1293 3770 
L 1293 2118 
Q 1510 2099 1683 2099 
Q 2202 2099 2486 2352 
Q 2771 2605 2771 3040 
Q 2771 3558 2476 3779 
Q 2182 4000 1517 4000 
Q 1382 4000 1337 3952 
Q 1293 3904 1293 3770 
z
" transform="scale(0.015625)"/>
       <path id="STIXGeneral-Regular-72" d="M 1024 2931 
L 1024 2342 
Q 1267 2688 1430 2816 
Q 1594 2944 1792 2944 
Q 1958 2944 2051 2854 
Q 2144 2765 2144 2605 
Q 2144 2470 2077 2393 
Q 2010 2317 1894 2317 
Q 1773 2317 1638 2445 
Q 1536 2541 1472 2541 
Q 1338 2541 1181 2355 
Q 1024 2170 1024 2016 
L 1024 576 
Q 1024 301 1133 205 
Q 1242 109 1568 96 
L 1568 0 
L 32 0 
L 32 96 
Q 339 154 412 224 
Q 486 294 486 538 
L 486 2138 
Q 486 2349 438 2435 
Q 390 2522 269 2522 
Q 166 2522 45 2496 
L 45 2598 
Q 448 2726 992 2944 
L 1024 2931 
z
" transform="scale(0.015625)"/>
       <path id="STIXGeneral-Regular-74" d="M 1702 493 
L 1786 422 
Q 1478 -64 1011 -64 
Q 448 -64 448 749 
L 448 2675 
L 109 2675 
Q 83 2694 83 2720 
Q 83 2771 192 2842 
Q 435 2982 813 3526 
Q 826 3546 874 3606 
Q 922 3667 941 3706 
Q 986 3706 986 3622 
L 986 2880 
L 1632 2880 
L 1632 2675 
L 986 2675 
L 986 845 
Q 986 538 1062 403 
Q 1139 269 1318 269 
Q 1510 269 1702 493 
z
" transform="scale(0.015625)"/>
       <path id="STIXGeneral-Regular-63" d="M 2547 998 
L 2637 941 
Q 2362 403 2112 205 
Q 1786 -64 1376 -64 
Q 845 -64 502 336 
Q 160 736 160 1357 
Q 160 2170 698 2618 
Q 1094 2944 1562 2944 
Q 1965 2944 2256 2749 
Q 2547 2554 2547 2285 
Q 2547 2176 2457 2096 
Q 2368 2016 2246 2016 
Q 2022 2016 1939 2310 
L 1901 2451 
Q 1850 2630 1773 2694 
Q 1696 2758 1523 2758 
Q 1133 2758 893 2451 
Q 653 2144 653 1645 
Q 653 1094 928 745 
Q 1203 397 1645 397 
Q 1920 397 2118 528 
Q 2317 659 2547 998 
z
" transform="scale(0.015625)"/>
       <path id="STIXGeneral-Regular-6c" d="M 1645 0 
L 134 0 
L 134 96 
Q 435 122 531 221 
Q 627 320 627 589 
L 627 3590 
Q 627 3821 569 3910 
Q 512 4000 358 4000 
Q 224 4000 122 3987 
L 122 4090 
Q 730 4237 1133 4371 
L 1165 4346 
L 1165 557 
Q 1165 288 1254 201 
Q 1344 115 1645 96 
L 1645 0 
z
" transform="scale(0.015625)"/>
       <path id="STIXGeneral-Regular-4e" d="M 4525 4237 
L 4525 4115 
Q 4198 4083 4102 4000 
Q 4000 3910 3958 3756 
Q 3917 3603 3917 3245 
L 3917 -70 
L 3802 -70 
L 979 3443 
L 979 960 
Q 979 474 1088 323 
Q 1197 173 1574 122 
L 1574 0 
L 77 0 
L 77 122 
Q 474 166 586 310 
Q 698 454 698 960 
L 698 3776 
Q 531 3981 416 4048 
Q 301 4115 77 4115 
L 77 4237 
L 1165 4237 
L 3635 1146 
L 3635 3322 
Q 3635 3808 3514 3949 
Q 3437 4032 3344 4061 
Q 3251 4090 3008 4115 
L 3008 4237 
L 4525 4237 
z
" transform="scale(0.015625)"/>
       <path id="STIXGeneral-Regular-75" d="M 3072 320 
L 3072 230 
Q 2573 96 2195 -58 
L 2163 -38 
L 2163 486 
L 2150 486 
Q 1747 -64 1235 -64 
Q 870 -64 662 160 
Q 454 384 454 755 
L 454 2362 
Q 454 2598 371 2688 
Q 288 2778 58 2790 
L 58 2880 
L 992 2880 
L 992 813 
Q 992 595 1123 451 
Q 1254 307 1446 307 
Q 1760 307 1984 506 
Q 2067 582 2099 649 
Q 2131 717 2131 877 
L 2131 2355 
Q 2131 2605 2041 2678 
Q 1952 2752 1658 2771 
L 1658 2880 
L 2669 2880 
L 2669 685 
Q 2669 461 2742 390 
Q 2816 320 3034 320 
L 3072 320 
z
" transform="scale(0.015625)"/>
       <path id="STIXGeneral-Regular-62" d="M 979 4358 
L 979 2406 
Q 1082 2650 1315 2797 
Q 1549 2944 1843 2944 
Q 2349 2944 2672 2541 
Q 2995 2138 2995 1536 
Q 2995 832 2566 384 
Q 2138 -64 1498 -64 
Q 1107 -64 774 67 
Q 442 198 442 358 
L 442 3622 
Q 442 3859 384 3926 
Q 326 3994 128 3994 
Q 83 3994 19 3981 
L 19 4090 
L 211 4147 
Q 864 4346 947 4371 
L 979 4358 
z
M 979 2035 
L 979 474 
Q 979 326 1161 233 
Q 1344 141 1600 141 
Q 1978 141 2195 416 
Q 2432 710 2432 1261 
Q 2432 1888 2182 2240 
Q 1971 2541 1613 2541 
Q 1357 2541 1168 2390 
Q 979 2240 979 2035 
z
" transform="scale(0.015625)"/>
      </defs>
      <use xlink:href="#STIXGeneral-Regular-4d"/>
      <use xlink:href="#STIXGeneral-Regular-65" transform="translate(88.899994 0)"/>
      <use xlink:href="#STIXGeneral-Regular-61" transform="translate(133.299988 0)"/>
      <use xlink:href="#STIXGeneral-Regular-6e" transform="translate(177.699982 0)"/>
      <use xlink:href="#STIXGeneral-Regular-20" transform="translate(227.699966 0)"/>
      <use xlink:href="#STIXGeneral-Regular-50" transform="translate(252.699951 0)"/>
      <use xlink:href="#STIXGeneral-Regular-61" transform="translate(308.399948 0)"/>
      <use xlink:href="#STIXGeneral-Regular-72" transform="translate(352.799942 0)"/>
      <use xlink:href="#STIXGeneral-Regular-74" transform="translate(386.09993 0)"/>
      <use xlink:href="#STIXGeneral-Regular-69" transform="translate(413.899918 0)"/>
      <use xlink:href="#STIXGeneral-Regular-63" transform="translate(441.699905 0)"/>
      <use xlink:href="#STIXGeneral-Regular-6c" transform="translate(486.099899 0)"/>
      <use xlink:href="#STIXGeneral-Regular-65" transform="translate(513.899887 0)"/>
      <use xlink:href="#STIXGeneral-Regular-20" transform="translate(558.299881 0)"/>
      <use xlink:href="#STIXGeneral-Regular-4e" transform="translate(583.299866 0)"/>
      <use xlink:href="#STIXGeneral-Regular-75" transform="translate(655.499847 0)"/>
      <use xlink:href="#STIXGeneral-Regular-6d" transform="translate(705.499832 0)"/>
      <use xlink:href="#STIXGeneral-Regular-62" transform="translate(783.29982 0)"/>
      <use xlink:href="#STIXGeneral-Regular-65" transform="translate(833.299805 0)"/>
      <use xlink:href="#STIXGeneral-Regular-72" transform="translate(877.699799 0)"/>
     </g>
    </g>
   </g>
   <g id="line2d_136">
    <path d="M 57.722727 38.384 
L 61.983818 52.753359 
L 66.244909 66.340151 
L 70.506 79.186994 
L 74.767091 91.334187 
L 79.028182 102.819833 
L 83.289273 113.679961 
L 87.626455 124.126831 
L 91.963636 133.994882 
L 96.300818 143.316185 
L 100.638 152.121032 
L 105.051273 160.579761 
L 109.464545 168.561841 
L 113.953909 176.220204 
L 118.443273 183.439794 
L 122.932636 190.245751 
L 127.498091 196.767289 
L 132.139636 203.008316 
L 136.781182 208.880019 
L 141.498818 214.492036 
L 146.292545 219.849099 
L 151.162364 224.956392 
L 156.108273 229.819506 
L 161.130273 234.444394 
L 166.228364 238.837319 
L 171.402545 243.004818 
L 176.728909 247.008904 
L 182.131364 250.793751 
L 187.686 254.414922 
L 193.392818 257.869976 
L 199.251818 261.15761 
L 205.263 264.277581 
L 211.502455 267.265614 
L 217.970182 270.114898 
L 224.666182 272.820367 
L 231.590455 275.378609 
L 238.819091 277.812202 
L 246.352091 280.113893 
L 254.265545 282.298546 
L 262.559455 284.357007 
L 271.309909 286.298775 
L 280.593 288.128667 
L 290.408727 289.835469 
L 300.909273 291.433325 
L 312.170727 292.918809 
L 324.269182 294.287799 
L 337.432909 295.549744 
L 351.814091 296.700421 
L 367.641 297.739106 
L 385.218 298.665696 
L 405.077727 299.484814 
L 427.828909 300.194652 
L 438.177273 300.453644 
L 438.177273 300.453644 
" clip-path="url(#p123dea1704)" style="fill: none; stroke-dasharray: 2.7,4.455; stroke-dashoffset: 0; stroke: #2ca02c; stroke-width: 2.7"/>
    <defs>
     <path id="mc9ce5fddeb" d="M -1.6 1.6 
L 1.6 1.6 
L 1.6 -1.6 
L -1.6 -1.6 
z
" style="stroke: #2ca02c; stroke-linejoin: miter"/>
    </defs>
    <g clip-path="url(#p123dea1704)">
     <use xlink:href="#mc9ce5fddeb" x="57.722727" y="38.384" style="fill: #2ca02c; stroke: #2ca02c; stroke-linejoin: miter"/>
     <use xlink:href="#mc9ce5fddeb" x="91.963636" y="133.994882" style="fill: #2ca02c; stroke: #2ca02c; stroke-linejoin: miter"/>
     <use xlink:href="#mc9ce5fddeb" x="126.204545" y="194.959073" style="fill: #2ca02c; stroke: #2ca02c; stroke-linejoin: miter"/>
     <use xlink:href="#mc9ce5fddeb" x="160.445455" y="233.831557" style="fill: #2ca02c; stroke: #2ca02c; stroke-linejoin: miter"/>
     <use xlink:href="#mc9ce5fddeb" x="194.686364" y="258.617747" style="fill: #2ca02c; stroke: #2ca02c; stroke-linejoin: miter"/>
     <use xlink:href="#mc9ce5fddeb" x="228.927273" y="274.422119" style="fill: #2ca02c; stroke: #2ca02c; stroke-linejoin: miter"/>
     <use xlink:href="#mc9ce5fddeb" x="263.168182" y="284.499432" style="fill: #2ca02c; stroke: #2ca02c; stroke-linejoin: miter"/>
     <use xlink:href="#mc9ce5fddeb" x="297.409091" y="290.925011" style="fill: #2ca02c; stroke: #2ca02c; stroke-linejoin: miter"/>
     <use xlink:href="#mc9ce5fddeb" x="331.65" y="295.02214" style="fill: #2ca02c; stroke: #2ca02c; stroke-linejoin: miter"/>
     <use xlink:href="#mc9ce5fddeb" x="365.890909" y="297.634585" style="fill: #2ca02c; stroke: #2ca02c; stroke-linejoin: miter"/>
     <use xlink:href="#mc9ce5fddeb" x="400.131818" y="299.300354" style="fill: #2ca02c; stroke: #2ca02c; stroke-linejoin: miter"/>
     <use xlink:href="#mc9ce5fddeb" x="434.372727" y="300.362495" style="fill: #2ca02c; stroke: #2ca02c; stroke-linejoin: miter"/>
    </g>
   </g>
   <g id="patch_3">
    <path d="M 38.7 313.568 
L 38.7 25.28 
" style="fill: none; stroke: #000000; stroke-width: 0.5; stroke-linejoin: miter; stroke-linecap: square"/>
   </g>
   <g id="patch_4">
    <path d="M 457.2 313.568 
L 457.2 25.28 
" style="fill: none; stroke: #000000; stroke-width: 0.5; stroke-linejoin: miter; stroke-linecap: square"/>
   </g>
   <g id="patch_5">
    <path d="M 38.7 313.568 
L 457.2 313.568 
" style="fill: none; stroke: #000000; stroke-width: 0.5; stroke-linejoin: miter; stroke-linecap: square"/>
   </g>
   <g id="patch_6">
    <path d="M 38.7 25.28 
L 457.2 25.28 
" style="fill: none; stroke: #000000; stroke-width: 0.5; stroke-linejoin: miter; stroke-linecap: square"/>
   </g>
   <g id="line2d_137">
    <path d="M 57.722727 39.920922 
L 59.472818 45.604316 
L 59.701091 46.216374 
L 59.929364 47.265616 
L 60.005455 47.527927 
L 60.233727 48.664606 
L 60.538091 49.626411 
L 61.299 52.074642 
L 61.375091 52.074642 
L 61.679455 53.298758 
L 61.755545 53.386195 
L 61.907727 53.648505 
L 62.059909 53.735942 
L 62.364273 54.522874 
L 62.744727 56.096737 
L 62.820818 56.184174 
L 63.581727 59.244463 
L 64.266545 61.080637 
L 64.494818 62.129879 
L 64.570909 62.129879 
L 64.799182 63.266558 
L 65.027455 63.616305 
L 65.103545 63.616305 
L 65.331818 64.840421 
L 65.407909 64.927858 
L 65.560091 65.365042 
L 66.321 66.851468 
L 66.397091 66.938905 
L 66.929727 68.425331 
L 67.005818 68.512768 
L 67.234091 68.949952 
L 67.538455 69.911757 
L 68.071091 71.835368 
L 68.223273 72.534862 
L 68.603727 73.671541 
L 68.908091 75.245404 
L 69.669 77.518762 
L 69.745091 77.606199 
L 69.897273 78.043383 
L 69.973364 78.13082 
L 70.201636 78.655441 
L 70.277727 78.742878 
L 70.886455 80.491615 
L 71.114727 80.841362 
L 71.343 81.45342 
L 71.419091 81.45342 
L 71.647364 82.065478 
L 71.723455 82.065478 
L 71.875636 82.590099 
L 72.103909 83.289593 
L 72.332182 83.989088 
L 72.408273 83.989088 
L 73.245273 86.087572 
L 73.549636 87.311688 
L 73.701818 87.399125 
L 73.777909 87.399125 
L 74.310545 89.410172 
L 74.614909 90.109667 
L 74.843182 90.459414 
L 75.071455 91.333782 
L 75.223636 91.421219 
L 75.299727 91.421219 
L 75.604091 92.208151 
L 75.756273 92.383024 
L 76.212818 93.694577 
L 76.669364 94.306635 
L 77.582455 97.192051 
L 77.734636 97.279487 
L 77.810727 97.366924 
L 78.115091 98.066419 
L 78.571636 98.85335 
L 78.876 99.290535 
L 79.484727 101.651329 
L 80.245636 103.487503 
L 80.473909 104.449308 
L 80.626091 104.624182 
L 81.006545 105.585987 
L 81.234818 106.198045 
L 81.463091 106.897539 
L 81.691364 107.334724 
L 81.767455 107.334724 
L 82.376182 108.996024 
L 82.528364 109.258334 
L 82.604455 109.345771 
L 82.832727 110.132702 
L 83.137091 110.919634 
L 83.213182 111.007071 
L 83.517545 111.706566 
L 83.593636 111.794002 
L 83.898 113.018118 
L 83.974091 113.018118 
L 84.126273 113.630176 
L 84.430636 114.329671 
L 85.419818 116.340718 
L 85.724182 116.777902 
L 86.104636 117.739707 
L 86.332909 118.526639 
L 86.637273 119.401007 
L 87.093818 121.149744 
L 87.626455 122.111549 
L 87.778636 122.198986 
L 88.311273 123.160791 
L 88.615636 123.597975 
L 88.843909 124.29747 
L 89.148273 125.171839 
L 89.376545 125.871333 
L 89.985273 127.095449 
L 90.061364 127.095449 
L 90.213545 127.357759 
L 90.517909 127.62007 
L 90.670091 127.707507 
L 90.746182 127.794944 
L 91.050545 128.581875 
L 91.431 129.106496 
L 91.659273 129.805991 
L 91.811455 129.980865 
L 91.887545 129.980865 
L 92.191909 130.505486 
L 92.268 130.505486 
L 92.420182 130.767796 
L 92.572364 131.030107 
L 92.876727 131.817038 
L 93.028909 132.079349 
L 93.333273 132.778843 
L 94.094182 134.26527 
L 94.246364 134.352706 
L 94.931182 135.664259 
L 95.083364 135.92657 
L 95.311636 136.626064 
L 95.463818 136.713501 
L 96.072545 138.549675 
L 96.148636 138.637111 
L 96.376909 139.336606 
L 96.529091 139.336606 
L 96.681273 139.77379 
L 96.909545 140.123538 
L 97.213909 140.997906 
L 97.29 140.997906 
L 97.594364 141.697401 
L 97.822636 142.047148 
L 97.898727 142.047148 
L 98.127 142.746643 
L 98.279182 142.83408 
L 98.659636 143.883322 
L 98.811818 143.970759 
L 98.887909 143.970759 
L 99.496636 145.632058 
L 99.877091 146.943611 
L 100.257545 147.992853 
L 100.409727 148.430037 
L 100.638 148.692348 
L 100.942364 149.654153 
L 101.094545 149.74159 
L 101.246727 150.0039 
L 101.931545 150.878269 
L 102.159818 151.140579 
L 102.464182 151.490327 
L 102.616364 151.927511 
L 102.768545 152.014948 
L 102.996818 152.277258 
L 103.301182 152.976753 
L 103.377273 152.976753 
L 103.681636 154.025995 
L 104.138182 154.812926 
L 104.214273 154.900363 
L 104.518636 155.687295 
L 104.670818 155.862168 
L 104.975182 156.736537 
L 105.127364 156.823974 
L 105.355636 157.523468 
L 105.583909 158.048089 
L 105.66 158.048089 
L 106.268727 159.272205 
L 106.420909 159.272205 
L 107.638364 161.807873 
L 108.171 162.332494 
L 108.399273 163.031989 
L 109.160182 164.518415 
L 109.388455 164.868163 
L 109.768909 165.567657 
L 109.921091 165.655094 
L 110.529818 166.442026 
L 111.442909 168.278199 
L 111.519 168.278199 
L 111.747273 168.54051 
L 111.975545 168.890257 
L 112.356 169.589752 
L 112.432091 169.589752 
L 112.584273 170.026936 
L 112.660364 170.114373 
L 112.812545 170.46412 
L 113.040818 170.638994 
L 113.116909 170.638994 
L 113.649545 171.600799 
L 113.801727 171.775673 
L 114.486545 173.78672 
L 114.943091 174.311341 
L 115.171364 174.835962 
L 115.323545 175.010836 
L 115.475727 175.273146 
L 115.780091 175.710331 
L 115.932273 175.972641 
L 116.160545 176.147515 
L 116.236636 176.147515 
L 118.138909 180.257046 
L 118.367182 180.257046 
L 118.519364 180.69423 
L 118.595455 180.69423 
L 118.747636 180.869104 
L 118.823727 180.869104 
L 118.975909 181.393725 
L 119.052 181.393725 
L 119.736818 182.792714 
L 119.889 182.880151 
L 120.041182 182.967588 
L 120.117273 182.967588 
L 120.345545 183.492209 
L 120.421636 183.579646 
L 120.649909 184.541451 
L 121.563 186.465062 
L 121.715182 186.552498 
L 121.867364 186.902246 
L 122.323909 187.689177 
L 122.4 187.776614 
L 122.628273 188.213798 
L 123.160909 189.175604 
L 123.237 189.175604 
L 123.541364 189.875098 
L 123.617455 189.875098 
L 123.845727 190.399719 
L 123.997909 190.66203 
L 124.226182 191.099214 
L 124.987091 192.58564 
L 125.215364 192.847951 
L 125.595818 193.809756 
L 126.128455 194.334377 
L 126.204545 194.334377 
L 126.356727 194.509251 
L 126.508909 194.596687 
L 126.889364 195.121308 
L 127.193727 195.820803 
L 127.345909 195.90824 
L 128.030727 197.219793 
L 128.106818 197.307229 
L 128.335091 197.919287 
L 128.639455 198.006724 
L 129.019909 198.356471 
L 129.248182 198.443908 
L 129.552545 198.881092 
L 129.780818 198.968529 
L 130.085182 199.405713 
L 130.237364 199.755461 
L 130.313455 199.755461 
L 130.541727 200.192645 
L 130.617818 200.192645 
L 130.922182 200.629829 
L 131.226545 200.717266 
L 131.454818 201.067013 
L 131.683091 201.329324 
L 131.835273 201.416761 
L 131.987455 201.853945 
L 132.139636 201.941382 
L 132.291818 202.028819 
L 132.824455 203.078061 
L 133.128818 203.165498 
L 133.281 203.427808 
L 133.433182 203.515245 
L 133.585364 203.777555 
L 133.813636 204.21474 
L 133.889727 204.21474 
L 134.270182 205.176545 
L 134.878909 205.963476 
L 135.107182 206.225787 
L 135.335455 206.225787 
L 135.868091 207.187592 
L 136.781182 208.236834 
L 137.085545 208.936329 
L 137.237727 209.198639 
L 137.466 209.810697 
L 137.694273 209.898134 
L 137.846455 209.985571 
L 138.150818 210.073008 
L 138.987818 210.947376 
L 139.063909 210.947376 
L 139.444364 211.559434 
L 139.672636 211.646871 
L 139.748727 211.734308 
L 139.977 212.171492 
L 140.129182 212.346365 
L 140.585727 212.433802 
L 140.890091 212.958423 
L 140.966182 212.958423 
L 141.346636 213.570481 
L 141.498818 213.832792 
L 142.031455 214.794597 
L 142.335818 215.056907 
L 142.564091 215.144344 
L 142.716273 215.231781 
L 142.868455 215.319218 
L 143.477182 215.931276 
L 143.705455 216.018713 
L 143.933727 216.281023 
L 144.162 216.36846 
L 144.390273 216.718207 
L 144.618545 216.805644 
L 144.846818 217.417702 
L 144.999 217.505139 
L 145.227273 217.680013 
L 145.379455 217.680013 
L 145.531636 217.854886 
L 146.064273 217.942323 
L 146.216455 218.204634 
L 146.520818 218.641818 
L 146.749091 218.816691 
L 146.901273 218.904128 
L 147.053455 218.991565 
L 147.281727 219.079002 
L 147.433909 219.166439 
L 147.586091 219.253876 
L 147.738273 219.516186 
L 147.890455 219.865933 
L 148.042636 220.040807 
L 148.347 220.128244 
L 148.575273 220.565428 
L 148.803545 220.652865 
L 148.955727 220.740302 
L 149.031818 220.740302 
L 149.260091 221.264923 
L 149.412273 221.35236 
L 149.488364 221.35236 
L 149.640545 221.61467 
L 150.021 222.139291 
L 150.249273 222.489039 
L 150.325364 222.489039 
L 150.553636 222.751349 
L 150.705818 222.838786 
L 151.314545 223.538281 
L 151.542818 223.975465 
L 151.695 224.062902 
L 151.999364 224.762396 
L 152.455909 224.849833 
L 152.608091 225.024707 
L 152.760273 225.374454 
L 152.836364 225.374454 
L 152.988545 225.636765 
L 154.434273 227.298065 
L 154.738636 227.997559 
L 155.119091 228.347307 
L 155.271273 228.434744 
L 155.499545 228.609617 
L 155.651727 228.697054 
L 156.108273 229.134238 
L 156.260455 229.134238 
L 156.412636 229.309112 
L 156.793091 229.396549 
L 156.945273 229.483986 
L 157.097455 229.483986 
L 157.401818 230.008607 
L 157.477909 230.008607 
L 157.630091 230.620664 
L 157.706182 230.620664 
L 157.934455 230.970412 
L 158.238818 231.057849 
L 158.467091 231.320159 
L 159.228 232.107091 
L 159.304091 232.107091 
L 159.608455 232.806585 
L 159.836727 232.894022 
L 159.988909 232.981459 
L 160.597636 233.068896 
L 162.043364 234.642759 
L 162.271636 234.642759 
L 162.576 235.079943 
L 163.032545 235.517127 
L 163.641273 235.604564 
L 163.869545 236.041748 
L 164.097818 236.216622 
L 164.25 236.216622 
L 164.554364 236.653806 
L 164.706545 236.741243 
L 165.315273 236.82868 
L 165.771818 237.265864 
L 166.000091 237.353301 
L 166.228364 237.703048 
L 166.456636 237.703048 
L 166.684909 237.965359 
L 166.913182 238.140232 
L 167.141455 238.227669 
L 167.445818 238.75229 
L 167.521909 238.75229 
L 167.750182 239.014601 
L 168.282818 239.102038 
L 168.435 239.189475 
L 168.511091 239.189475 
L 168.815455 239.714096 
L 169.119818 239.801532 
L 169.348091 240.326153 
L 169.424182 240.326153 
L 169.576364 240.675901 
L 169.880727 240.763338 
L 170.032909 240.850774 
L 170.413364 240.938211 
L 170.793818 241.637706 
L 170.946 241.725143 
L 171.250364 242.162327 
L 171.554727 242.162327 
L 171.935182 242.774385 
L 172.239545 243.211569 
L 172.467818 243.47388 
L 173.152636 244.260811 
L 173.304818 244.523122 
L 174.446182 245.747237 
L 174.902727 245.834674 
L 175.283182 246.184422 
L 175.739727 246.271858 
L 175.968 246.446732 
L 176.044091 246.446732 
L 176.196273 246.709043 
L 176.728909 246.796479 
L 177.413727 247.495974 
L 177.565909 247.583411 
L 177.718091 247.670848 
L 178.022455 247.758285 
L 178.326818 248.195469 
L 178.555091 248.370342 
L 178.707273 248.457779 
L 178.935545 248.632653 
L 179.316 248.72009 
L 179.772545 249.157274 
L 180.000818 249.244711 
L 180.153 249.594458 
L 180.609545 249.681895 
L 180.761727 249.856769 
L 180.913909 249.944206 
L 181.370455 250.38139 
L 181.979182 250.468827 
L 182.207455 250.731137 
L 182.435727 250.906011 
L 182.664 250.993448 
L 182.816182 251.080884 
L 183.044455 251.080884 
L 183.196636 251.518069 
L 183.424909 251.692942 
L 183.501 251.692942 
L 183.805364 252.130126 
L 183.957545 252.217563 
L 184.109727 252.305 
L 184.185818 252.305 
L 184.414091 252.829621 
L 184.566273 252.917058 
L 184.794545 253.091932 
L 185.479364 253.179369 
L 185.631545 253.266805 
L 186.012 253.354242 
L 186.164182 253.616553 
L 186.544636 253.70399 
L 186.620727 253.791426 
L 186.772909 254.053737 
L 186.925091 254.141174 
L 187.153364 254.403484 
L 187.381636 254.490921 
L 187.533818 254.578358 
L 188.218636 254.665795 
L 188.446909 254.840668 
L 188.599091 254.928105 
L 188.903455 255.365289 
L 189.892636 255.365289 
L 190.273091 256.064784 
L 190.805727 256.064784 
L 191.034 256.327095 
L 191.338364 256.589405 
L 191.718818 256.676842 
L 191.947091 256.939153 
L 192.479727 257.026589 
L 192.860182 257.376337 
L 193.012364 257.463774 
L 193.240636 257.638647 
L 193.392818 257.726084 
L 193.545 257.813521 
L 193.621091 257.813521 
L 193.773273 258.075831 
L 193.849364 258.075831 
L 194.077636 258.338142 
L 194.153727 258.338142 
L 194.305909 258.513016 
L 194.762455 258.513016 
L 194.914636 258.687889 
L 195.142909 258.775326 
L 195.371182 259.037637 
L 195.979909 259.125073 
L 196.132091 259.299947 
L 196.284273 259.387384 
L 196.588636 259.649694 
L 196.816909 259.649694 
L 197.045182 260.086879 
L 197.197364 260.174316 
L 197.273455 260.174316 
L 197.425636 260.436626 
L 197.653909 260.524063 
L 197.806091 260.6115 
L 198.110455 260.698937 
L 198.338727 261.048684 
L 198.490909 261.136121 
L 198.871364 261.748179 
L 199.099636 261.923052 
L 199.251818 261.923052 
L 199.480091 262.2728 
L 200.545364 262.360236 
L 200.773636 262.53511 
L 201.078 262.622547 
L 201.230182 262.709984 
L 201.382364 262.797421 
L 201.534545 262.972294 
L 201.991091 263.059731 
L 202.143273 263.147168 
L 202.599818 263.234605 
L 202.752 263.322042 
L 203.208545 263.409479 
L 203.360727 263.496915 
L 204.121636 263.584352 
L 204.349909 263.759226 
L 204.730364 263.846663 
L 205.034727 264.108973 
L 205.415182 264.108973 
L 205.567364 264.283847 
L 205.871727 264.283847 
L 206.023909 264.458721 
L 206.252182 264.546157 
L 206.480455 264.721031 
L 206.708727 264.808468 
L 206.860909 264.895905 
L 207.241364 264.983342 
L 207.393545 265.070778 
L 207.621818 265.070778 
L 207.850091 265.333089 
L 208.839273 266.382331 
L 209.600182 266.469768 
L 209.752364 266.644641 
L 210.056727 266.732078 
L 210.285 266.906952 
L 210.361091 266.906952 
L 210.589364 267.256699 
L 210.741545 267.256699 
L 210.893727 267.431573 
L 211.045909 267.51901 
L 211.198091 267.606447 
L 211.882909 267.693884 
L 212.035091 267.78132 
L 212.415545 267.868757 
L 212.643818 268.218505 
L 212.796 268.305941 
L 213.404727 268.917999 
L 213.937364 269.005436 
L 214.089545 269.092873 
L 214.393909 269.18031 
L 214.546091 269.267747 
L 214.850455 269.355183 
L 215.002636 269.530057 
L 215.687455 269.617494 
L 215.839636 269.704931 
L 216.220091 269.704931 
L 216.448364 269.967241 
L 216.828818 270.054678 
L 217.057091 270.229552 
L 217.589727 270.316989 
L 217.818 270.579299 
L 217.894091 270.579299 
L 218.122364 270.929047 
L 218.350636 271.016483 
L 218.502818 271.10392 
L 218.807182 271.191357 
L 219.111545 271.453668 
L 219.415909 271.541104 
L 219.568091 271.628541 
L 219.872455 271.715978 
L 220.024636 271.803415 
L 222.003 271.890852 
L 222.535636 272.415473 
L 222.916091 272.415473 
L 223.144364 272.76522 
L 223.372636 272.852657 
L 223.448727 272.940094 
L 223.600909 273.202404 
L 224.818364 273.289841 
L 225.046636 273.464715 
L 225.198818 273.464715 
L 225.427091 273.727025 
L 226.796727 273.814462 
L 226.872818 273.901899 
L 227.025 274.16421 
L 227.253273 274.339083 
L 227.938091 274.42652 
L 228.470727 274.951141 
L 228.775091 275.038578 
L 228.927273 275.126015 
L 229.612091 275.213452 
L 229.992545 275.563199 
L 230.144727 275.650636 
L 230.373 275.912946 
L 230.601273 276.08782 
L 230.753455 276.175257 
L 230.905636 276.262694 
L 230.981727 276.262694 
L 231.21 276.525004 
L 233.112273 276.612441 
L 233.340545 276.787315 
L 233.644909 276.874751 
L 233.873182 277.049625 
L 234.101455 277.049625 
L 234.253636 277.311936 
L 235.014545 277.399372 
L 235.166727 277.486809 
L 236.384182 277.574246 
L 236.536364 277.661683 
L 237.906 277.74912 
L 238.058182 277.836557 
L 239.123455 277.923994 
L 239.275636 278.01143 
L 239.656091 278.098867 
L 239.808273 278.186304 
L 240.188727 278.273741 
L 240.340909 278.448615 
L 240.949636 278.536051 
L 241.101818 278.710925 
L 241.177909 278.710925 
L 241.330091 278.885799 
L 241.558364 278.973236 
L 241.938818 279.322983 
L 242.471455 279.41042 
L 242.623636 279.497857 
L 243.004091 279.585293 
L 243.232364 279.760167 
L 243.765 279.847604 
L 243.917182 279.935041 
L 244.221545 280.022478 
L 244.449818 280.197351 
L 245.667273 280.284788 
L 245.895545 280.459662 
L 246.352091 280.547099 
L 246.656455 280.809409 
L 247.113 280.896846 
L 247.341273 281.07172 
L 248.863091 281.159157 
L 249.015273 281.246593 
L 249.319636 281.33403 
L 249.700091 281.683778 
L 250.537091 281.771214 
L 250.765364 281.946088 
L 251.982818 282.033525 
L 252.135 282.120962 
L 253.656818 282.208399 
L 253.809 282.295835 
L 254.341636 282.383272 
L 254.493818 282.470709 
L 256.700455 282.558146 
L 256.852636 282.645583 
L 257.309182 282.73302 
L 257.537455 282.907893 
L 257.917909 282.907893 
L 258.146182 283.170204 
L 258.450545 283.257641 
L 258.678818 283.432514 
L 258.831 283.519951 
L 258.983182 283.782262 
L 260.733273 283.869698 
L 260.885455 283.957135 
L 261.265909 284.044572 
L 261.418091 284.132009 
L 261.874636 284.219446 
L 262.026818 284.306883 
L 262.255091 284.394319 
L 262.407273 284.569193 
L 262.939909 284.65663 
L 263.168182 284.831504 
L 263.624727 284.918941 
L 263.776909 285.006377 
L 264.613909 285.093814 
L 264.766091 285.181251 
L 264.994364 285.268688 
L 265.146545 285.356125 
L 265.679182 285.443562 
L 265.831364 285.530998 
L 265.983545 285.618435 
L 266.135727 285.705872 
L 266.744455 285.793309 
L 266.972727 285.968183 
L 267.201 286.055619 
L 267.429273 286.230493 
L 269.179364 286.31793 
L 269.407636 286.492804 
L 272.223 286.58024 
L 272.375182 286.667677 
L 273.212182 286.755114 
L 273.440455 286.929988 
L 274.201364 287.017425 
L 274.353545 287.104861 
L 275.038364 287.192298 
L 275.190545 287.279735 
L 275.799273 287.367172 
L 275.951455 287.542046 
L 276.255818 287.629482 
L 276.408 287.716919 
L 277.929818 287.804356 
L 278.082 287.891793 
L 278.766818 287.97923 
L 278.919 288.066667 
L 279.832091 288.154104 
L 279.984273 288.24154 
L 283.256182 288.328977 
L 283.408364 288.416414 
L 284.473636 288.503851 
L 284.625818 288.591288 
L 285.767182 288.678725 
L 286.071545 288.941035 
L 286.528091 289.028472 
L 286.680273 289.115909 
L 287.212909 289.203346 
L 287.517273 289.465656 
L 288.582545 289.553093 
L 288.886909 289.815403 
L 291.093545 289.90284 
L 291.245727 289.990277 
L 293.071909 290.077714 
L 293.224091 290.165151 
L 294.213273 290.252588 
L 294.441545 290.427461 
L 295.659 290.427461 
L 295.811182 290.602335 
L 296.115545 290.689772 
L 296.267727 290.777209 
L 296.876455 290.864645 
L 297.028636 290.952082 
L 298.017818 291.039519 
L 298.17 291.126956 
L 298.930909 291.126956 
L 299.083091 291.30183 
L 303.115909 291.389266 
L 303.496364 291.739014 
L 305.094273 291.826451 
L 305.246455 291.913888 
L 306.768273 292.001324 
L 306.920455 292.088761 
L 307.224818 292.088761 
L 307.377 292.263635 
L 309.583636 292.351072 
L 309.735818 292.438509 
L 311.866364 292.525945 
L 312.018545 292.613382 
L 313.159909 292.700819 
L 313.312091 292.788256 
L 315.214364 292.875693 
L 315.366545 292.96313 
L 316.736182 293.050566 
L 316.888364 293.138003 
L 319.247182 293.22544 
L 319.399364 293.312877 
L 321.377727 293.400314 
L 321.529909 293.487751 
L 322.823455 293.575187 
L 322.975636 293.662624 
L 323.964818 293.750061 
L 324.117 293.837498 
L 324.421364 293.924935 
L 324.573545 294.012372 
L 325.943182 294.099808 
L 326.095364 294.187245 
L 328.302 294.274682 
L 328.454182 294.362119 
L 331.041273 294.449556 
L 331.193455 294.624429 
L 336.595909 294.711866 
L 336.900273 294.974177 
L 337.661182 295.061614 
L 337.813364 295.14905 
L 338.269909 295.236487 
L 338.422091 295.323924 
L 339.943909 295.411361 
L 340.096091 295.498798 
L 341.313545 295.586235 
L 341.465727 295.673672 
L 344.281091 295.761108 
L 344.433273 295.848545 
L 347.096455 295.935982 
L 347.248636 296.023419 
L 349.455273 296.110856 
L 349.607455 296.198293 
L 354.933818 296.285729 
L 355.086 296.373166 
L 356.151273 296.460603 
L 356.303455 296.54804 
L 359.271 296.635477 
L 359.423182 296.722914 
L 361.629818 296.81035 
L 361.782 296.897787 
L 362.923364 296.985224 
L 363.075545 297.072661 
L 363.684273 297.160098 
L 363.836455 297.247535 
L 364.140818 297.247535 
L 364.293 297.422408 
L 371.217273 297.509845 
L 371.369455 297.597282 
L 372.282545 297.684719 
L 372.434727 297.772156 
L 373.880455 297.859592 
L 374.032636 297.947029 
L 376.543636 298.034466 
L 376.695818 298.121903 
L 377.685 298.20934 
L 377.837182 298.296777 
L 383.696182 298.384213 
L 383.848364 298.47165 
L 391.077 298.559087 
L 391.229182 298.646524 
L 393.055364 298.733961 
L 393.207545 298.821398 
L 396.022909 298.908835 
L 396.175091 298.996271 
L 406.066909 299.083708 
L 406.219091 299.171145 
L 408.577909 299.258582 
L 408.730091 299.346019 
L 409.719273 299.433456 
L 409.871455 299.520892 
L 415.502182 299.608329 
L 415.654364 299.695766 
L 418.241455 299.783203 
L 418.393636 299.87064 
L 420.980727 299.958077 
L 421.132909 300.045513 
L 428.437636 300.13295 
L 428.589818 300.220387 
L 434.981455 300.307824 
L 435.133636 300.395261 
L 438.177273 300.395261 
L 438.177273 300.395261 
" clip-path="url(#p123dea1704)" style="fill: none; stroke-dasharray: 16,4,2.5,4; stroke-dashoffset: 0; stroke: #ff7f0e; stroke-width: 2.5"/>
    <defs>
     <path id="mada0de97a9" d="M 0 1.75 
C 0.464105 1.75 0.909265 1.565609 1.237437 1.237437 
C 1.565609 0.909265 1.75 0.464105 1.75 0 
C 1.75 -0.464105 1.565609 -0.909265 1.237437 -1.237437 
C 0.909265 -1.565609 0.464105 -1.75 0 -1.75 
C -0.464105 -1.75 -0.909265 -1.565609 -1.237437 -1.237437 
C -1.565609 -0.909265 -1.75 -0.464105 -1.75 0 
C -1.75 0.464105 -1.565609 0.909265 -1.237437 1.237437 
C -0.909265 1.565609 -0.464105 1.75 0 1.75 
z
" style="stroke: #ff7f0e"/>
    </defs>
    <g clip-path="url(#p123dea1704)">
     <use xlink:href="#mada0de97a9" x="57.722727" y="39.920922" style="fill: #ff7f0e; stroke: #ff7f0e"/>
     <use xlink:href="#mada0de97a9" x="84.354545" y="114.154797" style="fill: #ff7f0e; stroke: #ff7f0e"/>
     <use xlink:href="#mada0de97a9" x="110.986364" y="167.578705" style="fill: #ff7f0e; stroke: #ff7f0e"/>
     <use xlink:href="#mada0de97a9" x="137.618182" y="209.810697" style="fill: #ff7f0e; stroke: #ff7f0e"/>
     <use xlink:href="#mada0de97a9" x="164.25" y="236.216622" style="fill: #ff7f0e; stroke: #ff7f0e"/>
     <use xlink:href="#mada0de97a9" x="190.881818" y="256.239658" style="fill: #ff7f0e; stroke: #ff7f0e"/>
     <use xlink:href="#mada0de97a9" x="217.513636" y="270.316989" style="fill: #ff7f0e; stroke: #ff7f0e"/>
     <use xlink:href="#mada0de97a9" x="244.145455" y="279.935041" style="fill: #ff7f0e; stroke: #ff7f0e"/>
     <use xlink:href="#mada0de97a9" x="270.777273" y="286.58024" style="fill: #ff7f0e; stroke: #ff7f0e"/>
     <use xlink:href="#mada0de97a9" x="297.409091" y="290.952082" style="fill: #ff7f0e; stroke: #ff7f0e"/>
     <use xlink:href="#mada0de97a9" x="324.040909" y="293.837498" style="fill: #ff7f0e; stroke: #ff7f0e"/>
     <use xlink:href="#mada0de97a9" x="350.672727" y="296.198293" style="fill: #ff7f0e; stroke: #ff7f0e"/>
     <use xlink:href="#mada0de97a9" x="377.304545" y="298.121903" style="fill: #ff7f0e; stroke: #ff7f0e"/>
     <use xlink:href="#mada0de97a9" x="403.936364" y="299.083708" style="fill: #ff7f0e; stroke: #ff7f0e"/>
     <use xlink:href="#mada0de97a9" x="430.568182" y="300.307824" style="fill: #ff7f0e; stroke: #ff7f0e"/>
    </g>
   </g>
   <g id="text_16">
    <!-- Mean vs Time ($|n=3\rangle$, $\gamma=1$) -->
    <g transform="translate(149.39 19.28) scale(0.16 -0.16)">
     <defs>
      <path id="STIXGeneral-Regular-76" d="M 3053 2880 
L 3053 2784 
Q 2906 2771 2835 2688 
Q 2765 2605 2637 2285 
L 1818 230 
Q 1690 -90 1638 -90 
Q 1587 -90 1523 77 
Q 1510 96 1497 141 
Q 1485 186 1472 211 
L 704 2048 
Q 499 2534 403 2652 
Q 307 2771 122 2784 
L 122 2880 
L 1376 2880 
L 1376 2784 
Q 1210 2771 1146 2732 
Q 1082 2694 1082 2611 
Q 1082 2509 1139 2368 
L 1792 730 
L 2426 2387 
Q 2464 2483 2464 2579 
Q 2464 2758 2163 2784 
L 2163 2880 
L 3053 2880 
z
" transform="scale(0.015625)"/>
      <path id="STIXGeneral-Regular-73" d="M 998 1926 
L 1664 1523 
Q 1984 1331 2105 1164 
Q 2227 998 2227 736 
Q 2227 416 1961 176 
Q 1696 -64 1331 -64 
Q 1030 -64 864 -6 
Q 691 51 570 51 
Q 461 51 416 -26 
L 333 -26 
L 333 979 
L 435 979 
Q 538 512 730 294 
Q 922 77 1248 77 
Q 1485 77 1632 211 
Q 1779 346 1779 550 
Q 1779 845 1440 1030 
L 1094 1222 
Q 326 1651 326 2150 
Q 326 2522 566 2730 
Q 806 2938 1210 2938 
Q 1491 2938 1638 2867 
Q 1754 2816 1818 2816 
Q 1862 2816 1920 2880 
L 1990 2880 
L 2022 2010 
L 1926 2010 
Q 1818 2445 1654 2621 
Q 1491 2797 1203 2797 
Q 986 2797 854 2688 
Q 723 2579 723 2362 
Q 723 2253 796 2128 
Q 870 2003 998 1926 
z
" transform="scale(0.015625)"/>
      <path id="STIXGeneral-Regular-28" d="M 1946 -1030 
L 1869 -1133 
Q 1126 -710 716 32 
Q 307 774 307 1613 
Q 307 3386 1888 4326 
L 1946 4224 
Q 1293 3667 1075 3126 
Q 858 2586 858 1632 
Q 858 685 1082 96 
Q 1306 -493 1946 -1030 
z
" transform="scale(0.015625)"/>
      <path id="Cmsy10-6a" d="M 763 -1484 
L 763 4684 
Q 763 4734 800 4767 
Q 838 4800 891 4800 
Q 938 4800 978 4767 
Q 1019 4734 1019 4684 
L 1019 -1484 
Q 1019 -1534 978 -1567 
Q 938 -1600 891 -1600 
Q 838 -1600 800 -1567 
Q 763 -1534 763 -1484 
z
" transform="scale(0.015625)"/>
      <path id="Cmmi10-6e" d="M 494 109 
Q 494 147 500 166 
L 978 2075 
Q 1025 2253 1025 2388 
Q 1025 2663 838 2663 
Q 638 2663 541 2423 
Q 444 2184 353 1819 
Q 353 1800 334 1789 
Q 316 1778 300 1778 
L 225 1778 
Q 203 1778 187 1801 
Q 172 1825 172 1844 
Q 241 2122 305 2315 
Q 369 2509 505 2668 
Q 641 2828 844 2828 
Q 1084 2828 1268 2676 
Q 1453 2525 1453 2291 
Q 1644 2541 1900 2684 
Q 2156 2828 2444 2828 
Q 2672 2828 2837 2750 
Q 3003 2672 3095 2514 
Q 3188 2356 3188 2138 
Q 3188 1875 3070 1503 
Q 2953 1131 2778 672 
Q 2688 463 2688 288 
Q 2688 97 2834 97 
Q 3084 97 3251 365 
Q 3419 634 3488 941 
Q 3500 978 3541 978 
L 3616 978 
Q 3641 978 3658 962 
Q 3675 947 3675 922 
Q 3675 916 3669 903 
Q 3581 541 3364 234 
Q 3147 -72 2822 -72 
Q 2597 -72 2437 83 
Q 2278 238 2278 459 
Q 2278 578 2328 709 
Q 2409 919 2514 1209 
Q 2619 1500 2686 1765 
Q 2753 2031 2753 2234 
Q 2753 2413 2679 2538 
Q 2606 2663 2431 2663 
Q 2197 2663 2000 2559 
Q 1803 2456 1656 2286 
Q 1509 2116 1388 1881 
L 953 141 
Q 931 53 854 -9 
Q 778 -72 684 -72 
Q 606 -72 550 -22 
Q 494 28 494 109 
z
" transform="scale(0.015625)"/>
      <path id="Cmr10-3d" d="M 481 850 
Q 428 850 393 890 
Q 359 931 359 978 
Q 359 1031 393 1068 
Q 428 1106 481 1106 
L 4500 1106 
Q 4547 1106 4581 1068 
Q 4616 1031 4616 978 
Q 4616 931 4581 890 
Q 4547 850 4500 850 
L 481 850 
z
M 481 2094 
Q 428 2094 393 2131 
Q 359 2169 359 2222 
Q 359 2269 393 2309 
Q 428 2350 481 2350 
L 4500 2350 
Q 4547 2350 4581 2309 
Q 4616 2269 4616 2222 
Q 4616 2169 4581 2131 
Q 4547 2094 4500 2094 
L 481 2094 
z
" transform="scale(0.015625)"/>
      <path id="Cmr10-33" d="M 609 494 
Q 759 275 1012 169 
Q 1266 63 1556 63 
Q 1928 63 2084 380 
Q 2241 697 2241 1100 
Q 2241 1281 2208 1462 
Q 2175 1644 2097 1800 
Q 2019 1956 1883 2050 
Q 1747 2144 1550 2144 
L 1125 2144 
Q 1069 2144 1069 2203 
L 1069 2259 
Q 1069 2309 1125 2309 
L 1478 2338 
Q 1703 2338 1851 2506 
Q 2000 2675 2069 2917 
Q 2138 3159 2138 3378 
Q 2138 3684 1994 3881 
Q 1850 4078 1556 4078 
Q 1313 4078 1091 3986 
Q 869 3894 738 3706 
Q 750 3709 759 3711 
Q 769 3713 781 3713 
Q 925 3713 1022 3613 
Q 1119 3513 1119 3372 
Q 1119 3234 1022 3134 
Q 925 3034 781 3034 
Q 641 3034 541 3134 
Q 441 3234 441 3372 
Q 441 3647 606 3850 
Q 772 4053 1033 4158 
Q 1294 4263 1556 4263 
Q 1750 4263 1965 4205 
Q 2181 4147 2356 4039 
Q 2531 3931 2642 3762 
Q 2753 3594 2753 3378 
Q 2753 3109 2633 2881 
Q 2513 2653 2303 2487 
Q 2094 2322 1844 2241 
Q 2122 2188 2372 2031 
Q 2622 1875 2773 1631 
Q 2925 1388 2925 1106 
Q 2925 753 2731 467 
Q 2538 181 2222 20 
Q 1906 -141 1556 -141 
Q 1256 -141 954 -26 
Q 653 88 461 316 
Q 269 544 269 863 
Q 269 1022 375 1128 
Q 481 1234 641 1234 
Q 744 1234 830 1186 
Q 916 1138 964 1050 
Q 1013 963 1013 863 
Q 1013 706 903 600 
Q 794 494 641 494 
L 609 494 
z
" transform="scale(0.015625)"/>
      <path id="Cmex10-ae" d="M 500 -7297 
Q 500 -7263 513 -7250 
L 2119 -3584 
L 513 84 
Q 500 97 500 128 
Q 500 175 537 215 
Q 575 256 628 256 
Q 703 256 750 178 
L 2381 -3541 
Q 2388 -3553 2388 -3584 
Q 2388 -3616 2381 -3634 
L 750 -7347 
Q 700 -7425 628 -7425 
Q 575 -7425 537 -7384 
Q 500 -7344 500 -7297 
z
" transform="scale(0.015625)"/>
      <path id="STIXGeneral-Regular-2c" d="M 531 -902 
L 467 -781 
Q 998 -422 998 -96 
Q 998 -13 909 -13 
Q 883 -13 822 -25 
Q 762 -38 723 -38 
Q 352 -38 352 288 
Q 352 454 457 553 
Q 563 653 736 653 
Q 954 653 1101 496 
Q 1248 339 1248 96 
Q 1248 -198 1053 -473 
Q 858 -749 531 -902 
z
" transform="scale(0.015625)"/>
      <path id="Cmmi10-b0" d="M 1888 -1253 
Q 1888 -1109 1952 -834 
Q 2016 -559 2108 -248 
Q 2200 63 2266 263 
Q 2291 581 2291 744 
Q 2291 1156 2209 1511 
Q 2128 1866 1903 2105 
Q 1678 2344 1275 2344 
Q 1063 2344 852 2253 
Q 641 2163 489 2000 
Q 338 1838 281 1631 
Q 269 1594 231 1594 
L 153 1594 
Q 103 1594 103 1650 
L 103 1672 
Q 175 1959 358 2226 
Q 541 2494 805 2661 
Q 1069 2828 1363 2828 
Q 1663 2828 1881 2625 
Q 2100 2422 2231 2109 
Q 2363 1797 2420 1478 
Q 2478 1159 2478 878 
Q 2800 1753 3200 2534 
L 3297 2741 
Q 3316 2759 3341 2759 
L 3419 2759 
Q 3469 2759 3469 2700 
Q 3469 2688 3456 2663 
L 3359 2463 
Q 3081 1909 2848 1340 
Q 2616 772 2450 244 
Q 2425 28 2354 -347 
Q 2284 -722 2184 -1045 
Q 2084 -1369 1984 -1381 
Q 1888 -1381 1888 -1253 
z
" transform="scale(0.015625)"/>
      <path id="Cmr10-31" d="M 594 0 
L 594 225 
Q 1394 225 1394 428 
L 1394 3788 
Q 1063 3628 556 3628 
L 556 3853 
Q 1341 3853 1741 4263 
L 1831 4263 
Q 1853 4263 1873 4245 
Q 1894 4228 1894 4206 
L 1894 428 
Q 1894 225 2694 225 
L 2694 0 
L 594 0 
z
" transform="scale(0.015625)"/>
      <path id="STIXGeneral-Regular-29" d="M 186 4224 
L 262 4326 
Q 992 3891 1408 3148 
Q 1824 2406 1824 1581 
Q 1824 -166 243 -1133 
L 186 -1030 
Q 845 -486 1059 54 
Q 1274 595 1274 1562 
Q 1274 2534 1059 3120 
Q 845 3706 186 4224 
z
" transform="scale(0.015625)"/>
     </defs>
     <use xlink:href="#STIXGeneral-Regular-4d" transform="translate(0 0.658854)"/>
     <use xlink:href="#STIXGeneral-Regular-65" transform="translate(88.899994 0.658854)"/>
     <use xlink:href="#STIXGeneral-Regular-61" transform="translate(133.299988 0.658854)"/>
     <use xlink:href="#STIXGeneral-Regular-6e" transform="translate(177.699982 0.658854)"/>
     <use xlink:href="#STIXGeneral-Regular-20" transform="translate(227.699966 0.658854)"/>
     <use xlink:href="#STIXGeneral-Regular-76" transform="translate(252.699951 0.658854)"/>
     <use xlink:href="#STIXGeneral-Regular-73" transform="translate(302.699936 0.658854)"/>
     <use xlink:href="#STIXGeneral-Regular-20" transform="translate(341.59993 0.658854)"/>
     <use xlink:href="#STIXGeneral-Regular-54" transform="translate(366.599915 0.658854)"/>
     <use xlink:href="#STIXGeneral-Regular-69" transform="translate(427.699905 0.658854)"/>
     <use xlink:href="#STIXGeneral-Regular-6d" transform="translate(455.499893 0.658854)"/>
     <use xlink:href="#STIXGeneral-Regular-65" transform="translate(533.299881 0.658854)"/>
     <use xlink:href="#STIXGeneral-Regular-20" transform="translate(577.699875 0.658854)"/>
     <use xlink:href="#STIXGeneral-Regular-28" transform="translate(602.69986 0.658854)"/>
     <use xlink:href="#Cmsy10-6a" transform="translate(635.999847 0.658854)"/>
     <use xlink:href="#Cmmi10-6e" transform="translate(663.685394 0.658854)"/>
     <use xlink:href="#Cmr10-3d" transform="translate(741.253754 0.658854)"/>
     <use xlink:href="#Cmr10-33" transform="translate(836.497894 0.658854)"/>
     <use xlink:href="#Cmex10-ae" transform="translate(886.497894 94)"/>
     <use xlink:href="#STIXGeneral-Regular-2c" transform="translate(933.714691 0.658854)"/>
     <use xlink:href="#STIXGeneral-Regular-20" transform="translate(958.714676 0.658854)"/>
     <use xlink:href="#Cmmi10-b0" transform="translate(983.714661 0.658854)"/>
     <use xlink:href="#Cmr10-3d" transform="translate(1052.982239 0.658854)"/>
     <use xlink:href="#Cmr10-31" transform="translate(1148.226379 0.658854)"/>
     <use xlink:href="#STIXGeneral-Regular-29" transform="translate(1198.226379 0.658854)"/>
    </g>
   </g>
   <g id="line2d_138">
    <path d="M 57.722727 39.920922 
L 61.983818 54.206579 
L 66.244909 67.714227 
L 70.506 80.486237 
L 74.767091 92.562672 
L 79.028182 103.981414 
L 83.289273 114.778281 
L 87.626455 125.164298 
L 91.963636 134.974867 
L 96.300818 144.241873 
L 100.638 152.995432 
L 105.051273 161.404888 
L 109.464545 169.340471 
L 113.953909 176.954224 
L 118.443273 184.13176 
L 123.008727 191.00935 
L 127.574182 197.48642 
L 132.215727 203.68489 
L 136.857273 209.516556 
L 141.574909 215.090306 
L 146.368636 220.410841 
L 151.238455 225.483309 
L 156.184364 230.313263 
L 161.206364 234.906614 
L 166.304455 239.269586 
L 171.478636 243.408668 
L 176.805 247.38545 
L 182.283545 251.195552 
L 187.838182 254.788436 
L 193.545 258.216501 
L 199.404 261.478454 
L 205.491273 264.611692 
L 211.730727 267.573421 
L 218.198455 270.397623 
L 224.894455 273.079276 
L 231.894818 275.6416 
L 239.199545 278.075527 
L 246.808636 280.374265 
L 254.798182 282.552889 
L 263.168182 284.602722 
L 271.994727 286.533503 
L 281.353909 288.350324 
L 291.245727 290.042495 
L 301.822364 291.624277 
L 313.159909 293.092635 
L 325.410545 294.451647 
L 338.650364 295.694103 
L 353.183727 296.830732 
L 369.162818 297.85371 
L 386.968091 298.767071 
L 407.132182 299.573554 
L 430.263818 300.270288 
L 438.177273 300.464 
L 438.177273 300.464 
" clip-path="url(#p123dea1704)" style="fill: none; stroke-dasharray: 9.62,4.16; stroke-dashoffset: 0; stroke: #1f77b4; stroke-width: 2.6"/>
    <defs>
     <path id="m0284be19a9" d="M 0 -1.8 
L -1.8 1.8 
L 1.8 1.8 
z
" style="stroke: #1f77b4; stroke-linejoin: miter"/>
    </defs>
    <g clip-path="url(#p123dea1704)">
     <use xlink:href="#m0284be19a9" x="57.722727" y="39.920922" style="fill: #1f77b4; stroke: #1f77b4; stroke-linejoin: miter"/>
     <use xlink:href="#m0284be19a9" x="88.159091" y="126.39944" style="fill: #1f77b4; stroke: #1f77b4; stroke-linejoin: miter"/>
     <use xlink:href="#m0284be19a9" x="118.595455" y="184.367724" style="fill: #1f77b4; stroke: #1f77b4; stroke-linejoin: miter"/>
     <use xlink:href="#m0284be19a9" x="149.031818" y="223.225026" style="fill: #1f77b4; stroke: #1f77b4; stroke-linejoin: miter"/>
     <use xlink:href="#m0284be19a9" x="179.468182" y="249.271855" style="fill: #1f77b4; stroke: #1f77b4; stroke-linejoin: miter"/>
     <use xlink:href="#m0284be19a9" x="209.904545" y="266.731567" style="fill: #1f77b4; stroke: #1f77b4; stroke-linejoin: miter"/>
     <use xlink:href="#m0284be19a9" x="240.340909" y="278.435162" style="fill: #1f77b4; stroke: #1f77b4; stroke-linejoin: miter"/>
     <use xlink:href="#m0284be19a9" x="270.777273" y="286.280316" style="fill: #1f77b4; stroke: #1f77b4; stroke-linejoin: miter"/>
     <use xlink:href="#m0284be19a9" x="301.213636" y="291.53908" style="fill: #1f77b4; stroke: #1f77b4; stroke-linejoin: miter"/>
     <use xlink:href="#m0284be19a9" x="331.65" y="295.064135" style="fill: #1f77b4; stroke: #1f77b4; stroke-linejoin: miter"/>
     <use xlink:href="#m0284be19a9" x="362.086364" y="297.42705" style="fill: #1f77b4; stroke: #1f77b4; stroke-linejoin: miter"/>
     <use xlink:href="#m0284be19a9" x="392.522727" y="299.010959" style="fill: #1f77b4; stroke: #1f77b4; stroke-linejoin: miter"/>
     <use xlink:href="#m0284be19a9" x="422.959091" y="300.072685" style="fill: #1f77b4; stroke: #1f77b4; stroke-linejoin: miter"/>
    </g>
   </g>
   <g id="line2d_139">
    <path d="M 57.722727 39.920922 
L 61.983818 54.206579 
L 66.244909 67.714227 
L 70.506 80.486237 
L 74.767091 92.562672 
L 79.028182 103.981414 
L 83.289273 114.778281 
L 87.626455 125.164298 
L 91.963636 134.974867 
L 96.300818 144.241873 
L 100.638 152.995432 
L 105.051273 161.404888 
L 109.464545 169.340472 
L 113.953909 176.954224 
L 118.443273 184.13176 
L 123.008727 191.00935 
L 127.574182 197.48642 
L 132.215727 203.68489 
L 136.857273 209.516556 
L 141.574909 215.090306 
L 146.368636 220.410841 
L 151.238455 225.483309 
L 156.184364 230.313263 
L 161.206364 234.906614 
L 166.304455 239.269586 
L 171.478636 243.408668 
L 176.805 247.38545 
L 182.283545 251.195552 
L 187.838182 254.788436 
L 193.545 258.216501 
L 199.404 261.478454 
L 205.491273 264.611692 
L 211.730727 267.573421 
L 218.198455 270.397623 
L 224.894455 273.079276 
L 231.894818 275.6416 
L 239.199545 278.075527 
L 246.808636 280.374265 
L 254.798182 282.552889 
L 263.168182 284.602722 
L 271.994727 286.533503 
L 281.353909 288.350324 
L 291.245727 290.042495 
L 301.822364 291.624277 
L 313.159909 293.092635 
L 325.410545 294.451647 
L 338.650364 295.694103 
L 353.183727 296.830732 
L 369.162818 297.85371 
L 386.968091 298.767071 
L 407.132182 299.573554 
L 430.263818 300.270288 
L 438.177273 300.464 
L 438.177273 300.464 
" clip-path="url(#p123dea1704)" style="fill: none; stroke: #000000; stroke-width: 2.3; stroke-linecap: square"/>
   </g>
   <g id="legend_1">
    <g id="line2d_140">
     <path d="M 349.585625 39.03 
L 360.585625 39.03 
L 371.585625 39.03 
" style="fill: none; stroke: #000000; stroke-width: 2.3; stroke-linecap: square"/>
    </g>
    <g id="text_17">
     <!-- Exact -->
     <g transform="translate(380.385625 42.88) scale(0.11 -0.11)">
      <defs>
       <path id="STIXGeneral-Regular-45" d="M 3821 1082 
L 3526 0 
L 77 0 
L 77 122 
Q 442 147 538 252 
Q 634 358 634 730 
L 634 3520 
Q 634 3878 534 3987 
Q 435 4096 77 4115 
L 77 4237 
L 3469 4237 
L 3494 3322 
L 3334 3322 
Q 3264 3750 3085 3872 
Q 2906 3994 2349 3994 
L 1510 3994 
Q 1370 3994 1328 3952 
Q 1286 3910 1286 3763 
L 1286 2355 
L 2253 2355 
Q 2656 2355 2787 2470 
Q 2918 2586 2976 2970 
L 3123 2970 
L 3123 1472 
L 2976 1472 
Q 2918 1875 2790 1984 
Q 2662 2093 2253 2093 
L 1286 2093 
L 1286 538 
Q 1286 346 1420 291 
Q 1555 237 1933 237 
L 2163 237 
Q 2848 237 3136 403 
Q 3424 570 3642 1082 
L 3821 1082 
z
" transform="scale(0.015625)"/>
       <path id="STIXGeneral-Regular-78" d="M 3066 0 
L 1779 0 
L 1779 96 
Q 1939 109 1987 137 
Q 2035 166 2035 250 
Q 2035 307 1997 365 
L 1414 1261 
L 909 474 
Q 781 275 781 211 
Q 781 96 1037 96 
L 1037 0 
L 109 0 
L 109 96 
Q 269 109 355 169 
Q 442 230 576 422 
L 1306 1478 
L 704 2400 
Q 557 2624 454 2704 
Q 352 2784 211 2784 
L 154 2784 
L 154 2880 
L 1478 2880 
L 1478 2784 
Q 1203 2778 1203 2643 
Q 1203 2509 1498 2074 
Q 1581 1958 1587 1946 
Q 1619 1990 1779 2227 
Q 1811 2285 1856 2349 
Q 1901 2413 1923 2451 
Q 1946 2490 1971 2528 
Q 1997 2566 2006 2595 
Q 2016 2624 2016 2643 
Q 2016 2765 1760 2784 
L 1760 2880 
L 2771 2880 
L 2771 2784 
Q 2445 2771 2253 2502 
L 1722 1734 
L 2541 480 
Q 2790 96 3066 96 
L 3066 0 
z
" transform="scale(0.015625)"/>
      </defs>
      <use xlink:href="#STIXGeneral-Regular-45"/>
      <use xlink:href="#STIXGeneral-Regular-78" transform="translate(61.099991 0)"/>
      <use xlink:href="#STIXGeneral-Regular-61" transform="translate(111.099976 0)"/>
      <use xlink:href="#STIXGeneral-Regular-63" transform="translate(155.499969 0)"/>
      <use xlink:href="#STIXGeneral-Regular-74" transform="translate(199.899963 0)"/>
     </g>
    </g>
    <g id="line2d_141">
     <path d="M 349.585625 54.617344 
L 360.585625 54.617344 
L 371.585625 54.617344 
" style="fill: none; stroke-dasharray: 9.62,4.16; stroke-dashoffset: 0; stroke: #1f77b4; stroke-width: 2.6"/>
     <g>
      <use xlink:href="#m0284be19a9" x="360.585625" y="54.617344" style="fill: #1f77b4; stroke: #1f77b4; stroke-linejoin: miter"/>
     </g>
    </g>
    <g id="text_18">
     <!-- Density Matrix -->
     <g transform="translate(380.385625 58.467344) scale(0.11 -0.11)">
      <defs>
       <path id="STIXGeneral-Regular-44" d="M 102 4237 
L 1830 4237 
Q 3078 4237 3750 3654 
Q 4384 3110 4384 2138 
Q 4384 966 3514 410 
Q 2880 0 1901 0 
L 102 0 
L 102 122 
Q 474 147 570 252 
Q 666 358 666 736 
L 666 3520 
Q 666 3891 570 3990 
Q 474 4090 102 4115 
L 102 4237 
z
M 1318 3731 
L 1318 538 
Q 1318 365 1379 301 
Q 1440 237 1626 237 
Q 2125 237 2432 307 
Q 2739 378 3021 570 
Q 3686 1018 3686 2099 
Q 3686 3027 3078 3558 
Q 2803 3802 2476 3901 
Q 2150 4000 1658 4000 
Q 1472 4000 1395 3942 
Q 1318 3885 1318 3731 
z
" transform="scale(0.015625)"/>
       <path id="STIXGeneral-Regular-79" d="M 3040 2880 
L 3040 2784 
Q 2925 2771 2854 2700 
Q 2784 2630 2720 2458 
L 1760 -160 
Q 1510 -838 1257 -1116 
Q 1005 -1395 640 -1395 
Q 435 -1395 313 -1289 
Q 192 -1184 192 -1024 
Q 192 -902 272 -816 
Q 352 -730 467 -730 
Q 653 -730 800 -813 
Q 883 -858 966 -858 
Q 1101 -858 1286 -576 
Q 1376 -448 1459 -211 
Q 1542 26 1542 115 
Q 1542 198 1274 762 
L 429 2566 
Q 346 2752 90 2790 
L 90 2880 
L 1402 2880 
L 1402 2784 
Q 1197 2778 1117 2739 
Q 1037 2701 1037 2611 
Q 1037 2541 1120 2349 
L 1837 749 
L 2458 2515 
Q 2483 2573 2483 2630 
Q 2483 2784 2189 2784 
L 2189 2880 
L 3040 2880 
z
" transform="scale(0.015625)"/>
      </defs>
      <use xlink:href="#STIXGeneral-Regular-44"/>
      <use xlink:href="#STIXGeneral-Regular-65" transform="translate(72.199982 0)"/>
      <use xlink:href="#STIXGeneral-Regular-6e" transform="translate(116.599976 0)"/>
      <use xlink:href="#STIXGeneral-Regular-73" transform="translate(166.59996 0)"/>
      <use xlink:href="#STIXGeneral-Regular-69" transform="translate(205.499954 0)"/>
      <use xlink:href="#STIXGeneral-Regular-74" transform="translate(233.299942 0)"/>
      <use xlink:href="#STIXGeneral-Regular-79" transform="translate(261.09993 0)"/>
      <use xlink:href="#STIXGeneral-Regular-20" transform="translate(311.099915 0)"/>
      <use xlink:href="#STIXGeneral-Regular-4d" transform="translate(336.099899 0)"/>
      <use xlink:href="#STIXGeneral-Regular-61" transform="translate(424.999893 0)"/>
      <use xlink:href="#STIXGeneral-Regular-74" transform="translate(469.399887 0)"/>
      <use xlink:href="#STIXGeneral-Regular-72" transform="translate(497.199875 0)"/>
      <use xlink:href="#STIXGeneral-Regular-69" transform="translate(530.499863 0)"/>
      <use xlink:href="#STIXGeneral-Regular-78" transform="translate(558.29985 0)"/>
     </g>
    </g>
    <g id="line2d_142">
     <path d="M 349.585625 70.215 
L 360.585625 70.215 
L 371.585625 70.215 
" style="fill: none; stroke-dasharray: 16,4,2.5,4; stroke-dashoffset: 0; stroke: #ff7f0e; stroke-width: 2.5"/>
     <g>
      <use xlink:href="#mada0de97a9" x="360.585625" y="70.215" style="fill: #ff7f0e; stroke: #ff7f0e"/>
     </g>
    </g>
    <g id="text_19">
     <!-- Monte Carlo -->
     <g transform="translate(380.385625 74.065) scale(0.11 -0.11)">
      <defs>
       <path id="STIXGeneral-Regular-6f" d="M 3008 1478 
Q 3008 806 2608 371 
Q 2208 -64 1568 -64 
Q 979 -64 582 368 
Q 186 800 186 1459 
Q 186 2125 582 2534 
Q 979 2944 1626 2944 
Q 2221 2944 2614 2537 
Q 3008 2131 3008 1478 
z
M 2432 1306 
Q 2432 2035 2112 2445 
Q 1856 2765 1504 2765 
Q 1171 2765 966 2493 
Q 762 2221 762 1747 
Q 762 928 1101 435 
Q 1318 115 1677 115 
Q 2029 115 2230 432 
Q 2432 749 2432 1306 
z
" transform="scale(0.015625)"/>
       <path id="STIXGeneral-Regular-43" d="M 3930 838 
L 4051 723 
Q 3482 -90 2304 -90 
Q 1376 -90 794 480 
Q 179 1082 179 2080 
Q 179 3014 755 3661 
Q 1357 4326 2310 4326 
Q 2720 4326 3072 4230 
Q 3475 4115 3514 4115 
Q 3725 4115 3782 4326 
L 3910 4326 
L 3968 2874 
L 3821 2874 
Q 3718 3334 3488 3584 
Q 3034 4070 2458 4070 
Q 1747 4070 1334 3548 
Q 922 3027 922 2182 
Q 922 1152 1382 653 
Q 1811 192 2522 192 
Q 2944 192 3251 339 
Q 3558 486 3930 838 
z
" transform="scale(0.015625)"/>
      </defs>
      <use xlink:href="#STIXGeneral-Regular-4d"/>
      <use xlink:href="#STIXGeneral-Regular-6f" transform="translate(88.899994 0)"/>
      <use xlink:href="#STIXGeneral-Regular-6e" transform="translate(138.899979 0)"/>
      <use xlink:href="#STIXGeneral-Regular-74" transform="translate(188.899963 0)"/>
      <use xlink:href="#STIXGeneral-Regular-65" transform="translate(216.699951 0)"/>
      <use xlink:href="#STIXGeneral-Regular-20" transform="translate(261.099945 0)"/>
      <use xlink:href="#STIXGeneral-Regular-43" transform="translate(286.09993 0)"/>
      <use xlink:href="#STIXGeneral-Regular-61" transform="translate(352.799927 0)"/>
      <use xlink:href="#STIXGeneral-Regular-72" transform="translate(397.199921 0)"/>
      <use xlink:href="#STIXGeneral-Regular-6c" transform="translate(430.499908 0)"/>
      <use xlink:href="#STIXGeneral-Regular-6f" transform="translate(458.299896 0)"/>
     </g>
    </g>
    <g id="line2d_143">
     <path d="M 349.585625 85.802344 
L 360.585625 85.802344 
L 371.585625 85.802344 
" style="fill: none; stroke-dasharray: 2.7,4.455; stroke-dashoffset: 0; stroke: #2ca02c; stroke-width: 2.7"/>
     <g>
      <use xlink:href="#mc9ce5fddeb" x="360.585625" y="85.802344" style="fill: #2ca02c; stroke: #2ca02c; stroke-linejoin: miter"/>
     </g>
    </g>
    <g id="text_20">
     <!-- Positive-P -->
     <g transform="translate(380.385625 89.652344) scale(0.11 -0.11)">
      <defs>
       <path id="STIXGeneral-Regular-2d" d="M 1824 1242 
L 250 1242 
L 250 1645 
L 1824 1645 
L 1824 1242 
z
" transform="scale(0.015625)"/>
      </defs>
      <use xlink:href="#STIXGeneral-Regular-50"/>
      <use xlink:href="#STIXGeneral-Regular-6f" transform="translate(55.699997 0)"/>
      <use xlink:href="#STIXGeneral-Regular-73" transform="translate(105.699982 0)"/>
      <use xlink:href="#STIXGeneral-Regular-69" transform="translate(144.599976 0)"/>
      <use xlink:href="#STIXGeneral-Regular-74" transform="translate(172.399963 0)"/>
      <use xlink:href="#STIXGeneral-Regular-69" transform="translate(200.199951 0)"/>
      <use xlink:href="#STIXGeneral-Regular-76" transform="translate(227.999939 0)"/>
      <use xlink:href="#STIXGeneral-Regular-65" transform="translate(277.999924 0)"/>
      <use xlink:href="#STIXGeneral-Regular-2d" transform="translate(322.399918 0)"/>
      <use xlink:href="#STIXGeneral-Regular-50" transform="translate(355.699905 0)"/>
     </g>
    </g>
   </g>
  </g>
 </g>
 <defs>
  <clipPath id="p123dea1704">
   <rect x="38.7" y="25.28" width="418.5" height="288.288"/>
  </clipPath>
 </defs>
</svg>
