<?xml version="1.0" encoding="utf-8" standalone="no"?>
<!DOCTYPE svg PUBLIC "-//W3C//DTD SVG 1.1//EN"
  "http://www.w3.org/Graphics/SVG/1.1/DTD/svg11.dtd">
<svg xmlns:xlink="http://www.w3.org/1999/xlink" width="466.8pt" height="349.468pt" viewBox="0 0 466.8 349.468" xmlns="http://www.w3.org/2000/svg" version="1.1">
 <metadata>
  <rdf:RDF xmlns:dc="http://purl.org/dc/elements/1.1/" xmlns:cc="http://creativecommons.org/ns#" xmlns:rdf="http://www.w3.org/1999/02/22-rdf-syntax-ns#">
   <cc:Work>
    <dc:type rdf:resource="http://purl.org/dc/dcmitype/StillImage"/>
    <dc:date>2026-04-24T08:32:58.452446</dc:date>
    <dc:format>image/svg+xml</dc:format>
    <dc:creator>
     <cc:Agent>
      <dc:title>Matplotlib v3.10.8, https://matplotlib.org/</dc:title>
     </cc:Agent>
    </dc:creator>
   </cc:Work>
  </rdf:RDF>
 </metadata>
 <defs>
  <style type="text/css">*{stroke-linejoin: round; stroke-linecap: butt}</style>
 </defs>
 <g id="figure_1">
  <g id="patch_1">
   <path d="M 0 349.468 
L 466.8 349.468 
L 466.8 0 
L 0 0 
z
" style="fill: #ffffff"/>
  </g>
  <g id="axes_1">
   <g id="patch_2">
    <path d="M 44.7 313.568 
L 463.2 313.568 
L 463.2 25.28 
L 44.7 25.28 
z
" style="fill: #ffffff"/>
   </g>
   <g id="matplotlib.axis_1">
    <g id="xtick_1">
     <g id="line2d_1">
      <path d="M 63.722727 313.568 
L 63.722727 25.28 
" clip-path="url(#pb3c6adc804)" style="fill: none; stroke: #b0b0b0; stroke-opacity: 0.35; stroke-width: 0.5; stroke-linecap: square"/>
     </g>
     <g id="line2d_2">
      <defs>
       <path id="mb1717e591a" d="M 0 0 
L 0 -3 
" style="stroke: #000000; stroke-width: 0.5"/>
      </defs>
      <g>
       <use xlink:href="#mb1717e591a" x="63.722727" y="313.568" style="stroke: #000000; stroke-width: 0.5"/>
      </g>
     </g>
     <g id="line2d_3">
      <defs>
       <path id="m04463ef326" d="M 0 0 
L 0 3 
" style="stroke: #000000; stroke-width: 0.5"/>
      </defs>
      <g>
       <use xlink:href="#m04463ef326" x="63.722727" y="25.28" style="stroke: #000000; stroke-width: 0.5"/>
      </g>
     </g>
     <g id="text_1">
      <!-- $\mathdefault{0}$ -->
      <g transform="translate(60.722727 325.263625) scale(0.12 -0.12)">
       <defs>
        <path id="STIXGeneral-Regular-30" d="M 3046 2112 
Q 3046 1683 2963 1302 
Q 2880 922 2717 602 
Q 2554 282 2266 96 
Q 1978 -90 1600 -90 
Q 1210 -90 915 108 
Q 621 307 461 640 
Q 301 973 227 1350 
Q 154 1728 154 2150 
Q 154 2746 301 3222 
Q 448 3699 790 4012 
Q 1133 4326 1626 4326 
Q 2253 4326 2649 3712 
Q 3046 3098 3046 2112 
z
M 2432 2080 
Q 2432 3091 2217 3625 
Q 2003 4160 1587 4160 
Q 1190 4160 979 3622 
Q 768 3085 768 2106 
Q 768 1120 979 598 
Q 1190 77 1600 77 
Q 2003 77 2217 598 
Q 2432 1120 2432 2080 
z
" transform="scale(0.015625)"/>
       </defs>
       <use xlink:href="#STIXGeneral-Regular-30" transform="translate(0 0.40625)"/>
      </g>
     </g>
    </g>
    <g id="xtick_2">
     <g id="line2d_4">
      <path d="M 139.813636 313.568 
L 139.813636 25.28 
" clip-path="url(#pb3c6adc804)" style="fill: none; stroke: #b0b0b0; stroke-opacity: 0.35; stroke-width: 0.5; stroke-linecap: square"/>
     </g>
     <g id="line2d_5">
      <g>
       <use xlink:href="#mb1717e591a" x="139.813636" y="313.568" style="stroke: #000000; stroke-width: 0.5"/>
      </g>
     </g>
     <g id="line2d_6">
      <g>
       <use xlink:href="#m04463ef326" x="139.813636" y="25.28" style="stroke: #000000; stroke-width: 0.5"/>
      </g>
     </g>
     <g id="text_2">
      <!-- $\mathdefault{1}$ -->
      <g transform="translate(136.813636 325.263625) scale(0.12 -0.12)">
       <defs>
        <path id="STIXGeneral-Regular-31" d="M 2522 0 
L 755 0 
L 755 96 
Q 1107 115 1235 227 
Q 1363 339 1363 608 
L 1363 3482 
Q 1363 3795 1171 3795 
Q 1082 3795 883 3718 
L 710 3654 
L 710 3744 
L 1856 4326 
L 1914 4307 
L 1914 486 
Q 1914 275 2042 185 
Q 2170 96 2522 96 
L 2522 0 
z
" transform="scale(0.015625)"/>
       </defs>
       <use xlink:href="#STIXGeneral-Regular-31" transform="translate(0 0.40625)"/>
      </g>
     </g>
    </g>
    <g id="xtick_3">
     <g id="line2d_7">
      <path d="M 215.904545 313.568 
L 215.904545 25.28 
" clip-path="url(#pb3c6adc804)" style="fill: none; stroke: #b0b0b0; stroke-opacity: 0.35; stroke-width: 0.5; stroke-linecap: square"/>
     </g>
     <g id="line2d_8">
      <g>
       <use xlink:href="#mb1717e591a" x="215.904545" y="313.568" style="stroke: #000000; stroke-width: 0.5"/>
      </g>
     </g>
     <g id="line2d_9">
      <g>
       <use xlink:href="#m04463ef326" x="215.904545" y="25.28" style="stroke: #000000; stroke-width: 0.5"/>
      </g>
     </g>
     <g id="text_3">
      <!-- $\mathdefault{2}$ -->
      <g transform="translate(212.904545 325.263625) scale(0.12 -0.12)">
       <defs>
        <path id="STIXGeneral-Regular-32" d="M 3034 877 
L 2688 0 
L 186 0 
L 186 77 
L 1325 1286 
Q 1773 1754 1965 2144 
Q 2157 2534 2157 2950 
Q 2157 3379 1920 3616 
Q 1683 3853 1267 3853 
Q 922 3853 720 3673 
Q 518 3494 326 3021 
L 192 3053 
Q 301 3648 630 3987 
Q 960 4326 1523 4326 
Q 2054 4326 2380 4006 
Q 2707 3686 2707 3200 
Q 2707 2477 1888 1613 
L 832 486 
L 2330 486 
Q 2541 486 2665 569 
Q 2790 653 2944 915 
L 3034 877 
z
" transform="scale(0.015625)"/>
       </defs>
       <use xlink:href="#STIXGeneral-Regular-32" transform="translate(0 0.40625)"/>
      </g>
     </g>
    </g>
    <g id="xtick_4">
     <g id="line2d_10">
      <path d="M 291.995455 313.568 
L 291.995455 25.28 
" clip-path="url(#pb3c6adc804)" style="fill: none; stroke: #b0b0b0; stroke-opacity: 0.35; stroke-width: 0.5; stroke-linecap: square"/>
     </g>
     <g id="line2d_11">
      <g>
       <use xlink:href="#mb1717e591a" x="291.995455" y="313.568" style="stroke: #000000; stroke-width: 0.5"/>
      </g>
     </g>
     <g id="line2d_12">
      <g>
       <use xlink:href="#m04463ef326" x="291.995455" y="25.28" style="stroke: #000000; stroke-width: 0.5"/>
      </g>
     </g>
     <g id="text_4">
      <!-- $\mathdefault{3}$ -->
      <g transform="translate(288.995455 325.263625) scale(0.12 -0.12)">
       <defs>
        <path id="STIXGeneral-Regular-33" d="M 390 3264 
L 288 3290 
Q 435 3770 748 4048 
Q 1062 4326 1542 4326 
Q 1990 4326 2265 4083 
Q 2541 3840 2541 3450 
Q 2541 2925 1946 2566 
Q 2298 2413 2477 2227 
Q 2758 1914 2758 1402 
Q 2758 890 2464 506 
Q 2246 211 1840 60 
Q 1434 -90 979 -90 
Q 262 -90 262 275 
Q 262 378 339 442 
Q 416 506 525 506 
Q 685 506 915 339 
Q 1197 141 1466 141 
Q 1818 141 2058 425 
Q 2298 710 2298 1120 
Q 2298 1856 1632 2048 
Q 1434 2112 979 2112 
L 979 2202 
Q 1338 2323 1517 2432 
Q 2035 2726 2035 3290 
Q 2035 3610 1852 3776 
Q 1670 3942 1344 3942 
Q 768 3942 390 3264 
z
" transform="scale(0.015625)"/>
       </defs>
       <use xlink:href="#STIXGeneral-Regular-33" transform="translate(0 0.40625)"/>
      </g>
     </g>
    </g>
    <g id="xtick_5">
     <g id="line2d_13">
      <path d="M 368.086364 313.568 
L 368.086364 25.28 
" clip-path="url(#pb3c6adc804)" style="fill: none; stroke: #b0b0b0; stroke-opacity: 0.35; stroke-width: 0.5; stroke-linecap: square"/>
     </g>
     <g id="line2d_14">
      <g>
       <use xlink:href="#mb1717e591a" x="368.086364" y="313.568" style="stroke: #000000; stroke-width: 0.5"/>
      </g>
     </g>
     <g id="line2d_15">
      <g>
       <use xlink:href="#m04463ef326" x="368.086364" y="25.28" style="stroke: #000000; stroke-width: 0.5"/>
      </g>
     </g>
     <g id="text_5">
      <!-- $\mathdefault{4}$ -->
      <g transform="translate(365.086364 325.263625) scale(0.12 -0.12)">
       <defs>
        <path id="STIXGeneral-Regular-34" d="M 3027 1069 
L 2368 1069 
L 2368 0 
L 1869 0 
L 1869 1069 
L 77 1069 
L 77 1478 
L 2086 4326 
L 2368 4326 
L 2368 1478 
L 3027 1478 
L 3027 1069 
z
M 1869 1478 
L 1869 3674 
L 333 1478 
L 1869 1478 
z
" transform="scale(0.015625)"/>
       </defs>
       <use xlink:href="#STIXGeneral-Regular-34" transform="translate(0 0.40625)"/>
      </g>
     </g>
    </g>
    <g id="xtick_6">
     <g id="line2d_16">
      <path d="M 444.177273 313.568 
L 444.177273 25.28 
" clip-path="url(#pb3c6adc804)" style="fill: none; stroke: #b0b0b0; stroke-opacity: 0.35; stroke-width: 0.5; stroke-linecap: square"/>
     </g>
     <g id="line2d_17">
      <g>
       <use xlink:href="#mb1717e591a" x="444.177273" y="313.568" style="stroke: #000000; stroke-width: 0.5"/>
      </g>
     </g>
     <g id="line2d_18">
      <g>
       <use xlink:href="#m04463ef326" x="444.177273" y="25.28" style="stroke: #000000; stroke-width: 0.5"/>
      </g>
     </g>
     <g id="text_6">
      <!-- $\mathdefault{5}$ -->
      <g transform="translate(441.177273 325.263625) scale(0.12 -0.12)">
       <defs>
        <path id="STIXGeneral-Regular-35" d="M 2803 4358 
L 2573 3814 
Q 2534 3731 2400 3731 
L 1158 3731 
L 902 3187 
Q 1606 3053 1920 2896 
Q 2234 2739 2502 2368 
Q 2726 2061 2726 1555 
Q 2726 1094 2576 780 
Q 2426 467 2099 224 
Q 1664 -90 1011 -90 
Q 646 -90 422 19 
Q 198 128 198 307 
Q 198 550 486 550 
Q 717 550 960 352 
Q 1210 147 1414 147 
Q 1747 147 2012 480 
Q 2278 813 2278 1229 
Q 2278 1843 1850 2189 
Q 1293 2637 486 2637 
Q 410 2637 410 2688 
L 416 2720 
L 1114 4237 
L 2438 4237 
Q 2547 4237 2608 4269 
Q 2669 4301 2746 4403 
L 2803 4358 
z
" transform="scale(0.015625)"/>
       </defs>
       <use xlink:href="#STIXGeneral-Regular-35" transform="translate(0 0.203125)"/>
      </g>
     </g>
    </g>
    <g id="xtick_7">
     <g id="line2d_19">
      <defs>
       <path id="m1cbd9f5d32" d="M 0 0 
L 0 -1.5 
" style="stroke: #000000; stroke-width: 0.5"/>
      </defs>
      <g>
       <use xlink:href="#m1cbd9f5d32" x="48.504545" y="313.568" style="stroke: #000000; stroke-width: 0.5"/>
      </g>
     </g>
     <g id="line2d_20">
      <defs>
       <path id="m688e8cbdda" d="M 0 0 
L 0 1.5 
" style="stroke: #000000; stroke-width: 0.5"/>
      </defs>
      <g>
       <use xlink:href="#m688e8cbdda" x="48.504545" y="25.28" style="stroke: #000000; stroke-width: 0.5"/>
      </g>
     </g>
    </g>
    <g id="xtick_8">
     <g id="line2d_21">
      <g>
       <use xlink:href="#m1cbd9f5d32" x="78.940909" y="313.568" style="stroke: #000000; stroke-width: 0.5"/>
      </g>
     </g>
     <g id="line2d_22">
      <g>
       <use xlink:href="#m688e8cbdda" x="78.940909" y="25.28" style="stroke: #000000; stroke-width: 0.5"/>
      </g>
     </g>
    </g>
    <g id="xtick_9">
     <g id="line2d_23">
      <g>
       <use xlink:href="#m1cbd9f5d32" x="94.159091" y="313.568" style="stroke: #000000; stroke-width: 0.5"/>
      </g>
     </g>
     <g id="line2d_24">
      <g>
       <use xlink:href="#m688e8cbdda" x="94.159091" y="25.28" style="stroke: #000000; stroke-width: 0.5"/>
      </g>
     </g>
    </g>
    <g id="xtick_10">
     <g id="line2d_25">
      <g>
       <use xlink:href="#m1cbd9f5d32" x="109.377273" y="313.568" style="stroke: #000000; stroke-width: 0.5"/>
      </g>
     </g>
     <g id="line2d_26">
      <g>
       <use xlink:href="#m688e8cbdda" x="109.377273" y="25.28" style="stroke: #000000; stroke-width: 0.5"/>
      </g>
     </g>
    </g>
    <g id="xtick_11">
     <g id="line2d_27">
      <g>
       <use xlink:href="#m1cbd9f5d32" x="124.595455" y="313.568" style="stroke: #000000; stroke-width: 0.5"/>
      </g>
     </g>
     <g id="line2d_28">
      <g>
       <use xlink:href="#m688e8cbdda" x="124.595455" y="25.28" style="stroke: #000000; stroke-width: 0.5"/>
      </g>
     </g>
    </g>
    <g id="xtick_12">
     <g id="line2d_29">
      <g>
       <use xlink:href="#m1cbd9f5d32" x="155.031818" y="313.568" style="stroke: #000000; stroke-width: 0.5"/>
      </g>
     </g>
     <g id="line2d_30">
      <g>
       <use xlink:href="#m688e8cbdda" x="155.031818" y="25.28" style="stroke: #000000; stroke-width: 0.5"/>
      </g>
     </g>
    </g>
    <g id="xtick_13">
     <g id="line2d_31">
      <g>
       <use xlink:href="#m1cbd9f5d32" x="170.25" y="313.568" style="stroke: #000000; stroke-width: 0.5"/>
      </g>
     </g>
     <g id="line2d_32">
      <g>
       <use xlink:href="#m688e8cbdda" x="170.25" y="25.28" style="stroke: #000000; stroke-width: 0.5"/>
      </g>
     </g>
    </g>
    <g id="xtick_14">
     <g id="line2d_33">
      <g>
       <use xlink:href="#m1cbd9f5d32" x="185.468182" y="313.568" style="stroke: #000000; stroke-width: 0.5"/>
      </g>
     </g>
     <g id="line2d_34">
      <g>
       <use xlink:href="#m688e8cbdda" x="185.468182" y="25.28" style="stroke: #000000; stroke-width: 0.5"/>
      </g>
     </g>
    </g>
    <g id="xtick_15">
     <g id="line2d_35">
      <g>
       <use xlink:href="#m1cbd9f5d32" x="200.686364" y="313.568" style="stroke: #000000; stroke-width: 0.5"/>
      </g>
     </g>
     <g id="line2d_36">
      <g>
       <use xlink:href="#m688e8cbdda" x="200.686364" y="25.28" style="stroke: #000000; stroke-width: 0.5"/>
      </g>
     </g>
    </g>
    <g id="xtick_16">
     <g id="line2d_37">
      <g>
       <use xlink:href="#m1cbd9f5d32" x="231.122727" y="313.568" style="stroke: #000000; stroke-width: 0.5"/>
      </g>
     </g>
     <g id="line2d_38">
      <g>
       <use xlink:href="#m688e8cbdda" x="231.122727" y="25.28" style="stroke: #000000; stroke-width: 0.5"/>
      </g>
     </g>
    </g>
    <g id="xtick_17">
     <g id="line2d_39">
      <g>
       <use xlink:href="#m1cbd9f5d32" x="246.340909" y="313.568" style="stroke: #000000; stroke-width: 0.5"/>
      </g>
     </g>
     <g id="line2d_40">
      <g>
       <use xlink:href="#m688e8cbdda" x="246.340909" y="25.28" style="stroke: #000000; stroke-width: 0.5"/>
      </g>
     </g>
    </g>
    <g id="xtick_18">
     <g id="line2d_41">
      <g>
       <use xlink:href="#m1cbd9f5d32" x="261.559091" y="313.568" style="stroke: #000000; stroke-width: 0.5"/>
      </g>
     </g>
     <g id="line2d_42">
      <g>
       <use xlink:href="#m688e8cbdda" x="261.559091" y="25.28" style="stroke: #000000; stroke-width: 0.5"/>
      </g>
     </g>
    </g>
    <g id="xtick_19">
     <g id="line2d_43">
      <g>
       <use xlink:href="#m1cbd9f5d32" x="276.777273" y="313.568" style="stroke: #000000; stroke-width: 0.5"/>
      </g>
     </g>
     <g id="line2d_44">
      <g>
       <use xlink:href="#m688e8cbdda" x="276.777273" y="25.28" style="stroke: #000000; stroke-width: 0.5"/>
      </g>
     </g>
    </g>
    <g id="xtick_20">
     <g id="line2d_45">
      <g>
       <use xlink:href="#m1cbd9f5d32" x="307.213636" y="313.568" style="stroke: #000000; stroke-width: 0.5"/>
      </g>
     </g>
     <g id="line2d_46">
      <g>
       <use xlink:href="#m688e8cbdda" x="307.213636" y="25.28" style="stroke: #000000; stroke-width: 0.5"/>
      </g>
     </g>
    </g>
    <g id="xtick_21">
     <g id="line2d_47">
      <g>
       <use xlink:href="#m1cbd9f5d32" x="322.431818" y="313.568" style="stroke: #000000; stroke-width: 0.5"/>
      </g>
     </g>
     <g id="line2d_48">
      <g>
       <use xlink:href="#m688e8cbdda" x="322.431818" y="25.28" style="stroke: #000000; stroke-width: 0.5"/>
      </g>
     </g>
    </g>
    <g id="xtick_22">
     <g id="line2d_49">
      <g>
       <use xlink:href="#m1cbd9f5d32" x="337.65" y="313.568" style="stroke: #000000; stroke-width: 0.5"/>
      </g>
     </g>
     <g id="line2d_50">
      <g>
       <use xlink:href="#m688e8cbdda" x="337.65" y="25.28" style="stroke: #000000; stroke-width: 0.5"/>
      </g>
     </g>
    </g>
    <g id="xtick_23">
     <g id="line2d_51">
      <g>
       <use xlink:href="#m1cbd9f5d32" x="352.868182" y="313.568" style="stroke: #000000; stroke-width: 0.5"/>
      </g>
     </g>
     <g id="line2d_52">
      <g>
       <use xlink:href="#m688e8cbdda" x="352.868182" y="25.28" style="stroke: #000000; stroke-width: 0.5"/>
      </g>
     </g>
    </g>
    <g id="xtick_24">
     <g id="line2d_53">
      <g>
       <use xlink:href="#m1cbd9f5d32" x="383.304545" y="313.568" style="stroke: #000000; stroke-width: 0.5"/>
      </g>
     </g>
     <g id="line2d_54">
      <g>
       <use xlink:href="#m688e8cbdda" x="383.304545" y="25.28" style="stroke: #000000; stroke-width: 0.5"/>
      </g>
     </g>
    </g>
    <g id="xtick_25">
     <g id="line2d_55">
      <g>
       <use xlink:href="#m1cbd9f5d32" x="398.522727" y="313.568" style="stroke: #000000; stroke-width: 0.5"/>
      </g>
     </g>
     <g id="line2d_56">
      <g>
       <use xlink:href="#m688e8cbdda" x="398.522727" y="25.28" style="stroke: #000000; stroke-width: 0.5"/>
      </g>
     </g>
    </g>
    <g id="xtick_26">
     <g id="line2d_57">
      <g>
       <use xlink:href="#m1cbd9f5d32" x="413.740909" y="313.568" style="stroke: #000000; stroke-width: 0.5"/>
      </g>
     </g>
     <g id="line2d_58">
      <g>
       <use xlink:href="#m688e8cbdda" x="413.740909" y="25.28" style="stroke: #000000; stroke-width: 0.5"/>
      </g>
     </g>
    </g>
    <g id="xtick_27">
     <g id="line2d_59">
      <g>
       <use xlink:href="#m1cbd9f5d32" x="428.959091" y="313.568" style="stroke: #000000; stroke-width: 0.5"/>
      </g>
     </g>
     <g id="line2d_60">
      <g>
       <use xlink:href="#m688e8cbdda" x="428.959091" y="25.28" style="stroke: #000000; stroke-width: 0.5"/>
      </g>
     </g>
    </g>
    <g id="xtick_28">
     <g id="line2d_61">
      <g>
       <use xlink:href="#m1cbd9f5d32" x="459.395455" y="313.568" style="stroke: #000000; stroke-width: 0.5"/>
      </g>
     </g>
     <g id="line2d_62">
      <g>
       <use xlink:href="#m688e8cbdda" x="459.395455" y="25.28" style="stroke: #000000; stroke-width: 0.5"/>
      </g>
     </g>
    </g>
    <g id="text_7">
     <!-- $t/\gamma$ -->
     <g transform="translate(244.29 342.368) scale(0.14 -0.14)">
      <defs>
       <path id="Cmmi10-74" d="M 397 519 
Q 397 613 416 697 
L 878 2534 
L 206 2534 
Q 141 2534 141 2619 
Q 166 2759 225 2759 
L 934 2759 
L 1191 3803 
Q 1216 3888 1291 3947 
Q 1366 4006 1459 4006 
Q 1541 4006 1595 3957 
Q 1650 3909 1650 3828 
Q 1650 3809 1648 3798 
Q 1647 3788 1644 3775 
L 1388 2759 
L 2047 2759 
Q 2113 2759 2113 2675 
Q 2109 2659 2100 2621 
Q 2091 2584 2075 2559 
Q 2059 2534 2028 2534 
L 1331 2534 
L 872 684 
Q 825 503 825 372 
Q 825 97 1013 97 
Q 1294 97 1511 361 
Q 1728 625 1844 941 
Q 1869 978 1894 978 
L 1972 978 
Q 1997 978 2012 961 
Q 2028 944 2028 922 
Q 2028 909 2022 903 
Q 1881 516 1612 222 
Q 1344 -72 997 -72 
Q 744 -72 570 93 
Q 397 259 397 519 
z
" transform="scale(0.015625)"/>
       <path id="Cmmi10-3d" d="M 359 -1472 
Q 359 -1453 366 -1447 
L 2591 4722 
Q 2603 4759 2634 4779 
Q 2666 4800 2706 4800 
Q 2763 4800 2798 4765 
Q 2834 4731 2834 4672 
L 2834 4647 
L 609 -1522 
Q 572 -1600 488 -1600 
Q 434 -1600 396 -1562 
Q 359 -1525 359 -1472 
z
" transform="scale(0.015625)"/>
       <path id="Cmmi10-b0" d="M 1888 -1253 
Q 1888 -1109 1952 -834 
Q 2016 -559 2108 -248 
Q 2200 63 2266 263 
Q 2291 581 2291 744 
Q 2291 1156 2209 1511 
Q 2128 1866 1903 2105 
Q 1678 2344 1275 2344 
Q 1063 2344 852 2253 
Q 641 2163 489 2000 
Q 338 1838 281 1631 
Q 269 1594 231 1594 
L 153 1594 
Q 103 1594 103 1650 
L 103 1672 
Q 175 1959 358 2226 
Q 541 2494 805 2661 
Q 1069 2828 1363 2828 
Q 1663 2828 1881 2625 
Q 2100 2422 2231 2109 
Q 2363 1797 2420 1478 
Q 2478 1159 2478 878 
Q 2800 1753 3200 2534 
L 3297 2741 
Q 3316 2759 3341 2759 
L 3419 2759 
Q 3469 2759 3469 2700 
Q 3469 2688 3456 2663 
L 3359 2463 
Q 3081 1909 2848 1340 
Q 2616 772 2450 244 
Q 2425 28 2354 -347 
Q 2284 -722 2184 -1045 
Q 2084 -1369 1984 -1381 
Q 1888 -1381 1888 -1253 
z
" transform="scale(0.015625)"/>
      </defs>
      <use xlink:href="#Cmmi10-74"/>
      <use xlink:href="#Cmmi10-3d" transform="translate(36.083984 0)"/>
      <use xlink:href="#Cmmi10-b0" transform="translate(86.083984 0)"/>
     </g>
    </g>
   </g>
   <g id="matplotlib.axis_2">
    <g id="ytick_1">
     <g id="line2d_63">
      <path d="M 44.7 276.965064 
L 463.2 276.965064 
" clip-path="url(#pb3c6adc804)" style="fill: none; stroke: #b0b0b0; stroke-opacity: 0.35; stroke-width: 0.5; stroke-linecap: square"/>
     </g>
     <g id="line2d_64">
      <defs>
       <path id="mb0871a87db" d="M 0 0 
L 3 0 
" style="stroke: #000000; stroke-width: 0.5"/>
      </defs>
      <g>
       <use xlink:href="#mb0871a87db" x="44.7" y="276.965064" style="stroke: #000000; stroke-width: 0.5"/>
      </g>
     </g>
     <g id="line2d_65">
      <defs>
       <path id="m373db8447c" d="M 0 0 
L -3 0 
" style="stroke: #000000; stroke-width: 0.5"/>
      </defs>
      <g>
       <use xlink:href="#m373db8447c" x="463.2" y="276.965064" style="stroke: #000000; stroke-width: 0.5"/>
      </g>
     </g>
     <g id="text_8">
      <!-- $\mathdefault{0.00}$ -->
      <g transform="translate(20.2 281.062876) scale(0.12 -0.12)">
       <defs>
        <path id="STIXGeneral-Regular-2e" d="M 1158 275 
Q 1158 134 1052 32 
Q 947 -70 800 -70 
Q 653 -70 550 32 
Q 448 134 448 281 
Q 448 429 553 534 
Q 659 640 806 640 
Q 947 640 1052 531 
Q 1158 422 1158 275 
z
" transform="scale(0.015625)"/>
       </defs>
       <use xlink:href="#STIXGeneral-Regular-30" transform="translate(0 0.40625)"/>
       <use xlink:href="#STIXGeneral-Regular-2e" transform="translate(49.999985 0.40625)"/>
       <use xlink:href="#STIXGeneral-Regular-30" transform="translate(74.999969 0.40625)"/>
       <use xlink:href="#STIXGeneral-Regular-30" transform="translate(124.999954 0.40625)"/>
      </g>
     </g>
    </g>
    <g id="ytick_2">
     <g id="line2d_66">
      <path d="M 44.7 222.073774 
L 463.2 222.073774 
" clip-path="url(#pb3c6adc804)" style="fill: none; stroke: #b0b0b0; stroke-opacity: 0.35; stroke-width: 0.5; stroke-linecap: square"/>
     </g>
     <g id="line2d_67">
      <g>
       <use xlink:href="#mb0871a87db" x="44.7" y="222.073774" style="stroke: #000000; stroke-width: 0.5"/>
      </g>
     </g>
     <g id="line2d_68">
      <g>
       <use xlink:href="#m373db8447c" x="463.2" y="222.073774" style="stroke: #000000; stroke-width: 0.5"/>
      </g>
     </g>
     <g id="text_9">
      <!-- $\mathdefault{0.02}$ -->
      <g transform="translate(20.2 226.171587) scale(0.12 -0.12)">
       <use xlink:href="#STIXGeneral-Regular-30" transform="translate(0 0.40625)"/>
       <use xlink:href="#STIXGeneral-Regular-2e" transform="translate(49.999985 0.40625)"/>
       <use xlink:href="#STIXGeneral-Regular-30" transform="translate(74.999969 0.40625)"/>
       <use xlink:href="#STIXGeneral-Regular-32" transform="translate(124.999954 0.40625)"/>
      </g>
     </g>
    </g>
    <g id="ytick_3">
     <g id="line2d_69">
      <path d="M 44.7 167.182484 
L 463.2 167.182484 
" clip-path="url(#pb3c6adc804)" style="fill: none; stroke: #b0b0b0; stroke-opacity: 0.35; stroke-width: 0.5; stroke-linecap: square"/>
     </g>
     <g id="line2d_70">
      <g>
       <use xlink:href="#mb0871a87db" x="44.7" y="167.182484" style="stroke: #000000; stroke-width: 0.5"/>
      </g>
     </g>
     <g id="line2d_71">
      <g>
       <use xlink:href="#m373db8447c" x="463.2" y="167.182484" style="stroke: #000000; stroke-width: 0.5"/>
      </g>
     </g>
     <g id="text_10">
      <!-- $\mathdefault{0.04}$ -->
      <g transform="translate(20.2 171.280297) scale(0.12 -0.12)">
       <use xlink:href="#STIXGeneral-Regular-30" transform="translate(0 0.40625)"/>
       <use xlink:href="#STIXGeneral-Regular-2e" transform="translate(49.999985 0.40625)"/>
       <use xlink:href="#STIXGeneral-Regular-30" transform="translate(74.999969 0.40625)"/>
       <use xlink:href="#STIXGeneral-Regular-34" transform="translate(124.999954 0.40625)"/>
      </g>
     </g>
    </g>
    <g id="ytick_4">
     <g id="line2d_72">
      <path d="M 44.7 112.291194 
L 463.2 112.291194 
" clip-path="url(#pb3c6adc804)" style="fill: none; stroke: #b0b0b0; stroke-opacity: 0.35; stroke-width: 0.5; stroke-linecap: square"/>
     </g>
     <g id="line2d_73">
      <g>
       <use xlink:href="#mb0871a87db" x="44.7" y="112.291194" style="stroke: #000000; stroke-width: 0.5"/>
      </g>
     </g>
     <g id="line2d_74">
      <g>
       <use xlink:href="#m373db8447c" x="463.2" y="112.291194" style="stroke: #000000; stroke-width: 0.5"/>
      </g>
     </g>
     <g id="text_11">
      <!-- $\mathdefault{0.06}$ -->
      <g transform="translate(20.2 116.389007) scale(0.12 -0.12)">
       <defs>
        <path id="STIXGeneral-Regular-36" d="M 2854 4378 
L 2867 4275 
Q 2112 4154 1606 3664 
Q 1101 3174 973 2451 
Q 1344 2739 1786 2739 
Q 2349 2739 2672 2380 
Q 2995 2022 2995 1402 
Q 2995 774 2669 378 
Q 2291 -90 1651 -90 
Q 870 -90 518 557 
Q 218 1107 218 1786 
Q 218 2835 915 3552 
Q 1312 3962 1731 4131 
Q 2150 4301 2854 4378 
z
M 2419 1203 
Q 2419 2445 1555 2445 
Q 1235 2445 1024 2275 
Q 813 2106 813 1702 
Q 813 954 1046 522 
Q 1280 90 1722 90 
Q 2061 90 2240 394 
Q 2419 698 2419 1203 
z
" transform="scale(0.015625)"/>
       </defs>
       <use xlink:href="#STIXGeneral-Regular-30" transform="translate(0 0.59375)"/>
       <use xlink:href="#STIXGeneral-Regular-2e" transform="translate(49.999985 0.59375)"/>
       <use xlink:href="#STIXGeneral-Regular-30" transform="translate(74.999969 0.59375)"/>
       <use xlink:href="#STIXGeneral-Regular-36" transform="translate(124.999954 0.59375)"/>
      </g>
     </g>
    </g>
    <g id="ytick_5">
     <g id="line2d_75">
      <path d="M 44.7 57.399904 
L 463.2 57.399904 
" clip-path="url(#pb3c6adc804)" style="fill: none; stroke: #b0b0b0; stroke-opacity: 0.35; stroke-width: 0.5; stroke-linecap: square"/>
     </g>
     <g id="line2d_76">
      <g>
       <use xlink:href="#mb0871a87db" x="44.7" y="57.399904" style="stroke: #000000; stroke-width: 0.5"/>
      </g>
     </g>
     <g id="line2d_77">
      <g>
       <use xlink:href="#m373db8447c" x="463.2" y="57.399904" style="stroke: #000000; stroke-width: 0.5"/>
      </g>
     </g>
     <g id="text_12">
      <!-- $\mathdefault{0.08}$ -->
      <g transform="translate(20.2 61.497717) scale(0.12 -0.12)">
       <defs>
        <path id="STIXGeneral-Regular-38" d="M 2848 992 
Q 2848 499 2505 204 
Q 2163 -90 1587 -90 
Q 1050 -90 704 204 
Q 358 499 358 954 
Q 358 1293 524 1533 
Q 691 1773 1190 2125 
Q 710 2522 553 2765 
Q 397 3008 397 3328 
Q 397 3782 745 4054 
Q 1094 4326 1638 4326 
Q 2106 4326 2410 4060 
Q 2714 3795 2714 3411 
Q 2714 3059 2531 2848 
Q 2349 2637 1856 2374 
Q 2432 1990 2640 1689 
Q 2848 1389 2848 992 
z
M 2272 3411 
Q 2272 3744 2086 3945 
Q 1901 4147 1574 4147 
Q 1248 4147 1059 3977 
Q 870 3808 870 3513 
Q 870 3219 1059 2979 
Q 1248 2739 1670 2490 
Q 1997 2682 2134 2896 
Q 2272 3110 2272 3411 
z
M 1734 1741 
L 1357 1997 
Q 1075 1766 960 1545 
Q 845 1325 845 1011 
Q 845 576 1065 333 
Q 1286 90 1658 90 
Q 1971 90 2166 285 
Q 2362 480 2362 794 
Q 2362 1082 2214 1299 
Q 2067 1517 1734 1741 
z
" transform="scale(0.015625)"/>
       </defs>
       <use xlink:href="#STIXGeneral-Regular-30" transform="translate(0 0.40625)"/>
       <use xlink:href="#STIXGeneral-Regular-2e" transform="translate(49.999985 0.40625)"/>
       <use xlink:href="#STIXGeneral-Regular-30" transform="translate(74.999969 0.40625)"/>
       <use xlink:href="#STIXGeneral-Regular-38" transform="translate(124.999954 0.40625)"/>
      </g>
     </g>
    </g>
    <g id="ytick_6">
     <g id="line2d_78">
      <defs>
       <path id="mef9c4fc769" d="M 0 0 
L 1.5 0 
" style="stroke: #000000; stroke-width: 0.5"/>
      </defs>
      <g>
       <use xlink:href="#mef9c4fc769" x="44.7" y="304.410709" style="stroke: #000000; stroke-width: 0.5"/>
      </g>
     </g>
     <g id="line2d_79">
      <defs>
       <path id="m805506dd28" d="M 0 0 
L -1.5 0 
" style="stroke: #000000; stroke-width: 0.5"/>
      </defs>
      <g>
       <use xlink:href="#m805506dd28" x="463.2" y="304.410709" style="stroke: #000000; stroke-width: 0.5"/>
      </g>
     </g>
    </g>
    <g id="ytick_7">
     <g id="line2d_80">
      <g>
       <use xlink:href="#mef9c4fc769" x="44.7" y="290.687886" style="stroke: #000000; stroke-width: 0.5"/>
      </g>
     </g>
     <g id="line2d_81">
      <g>
       <use xlink:href="#m805506dd28" x="463.2" y="290.687886" style="stroke: #000000; stroke-width: 0.5"/>
      </g>
     </g>
    </g>
    <g id="ytick_8">
     <g id="line2d_82">
      <g>
       <use xlink:href="#mef9c4fc769" x="44.7" y="263.242241" style="stroke: #000000; stroke-width: 0.5"/>
      </g>
     </g>
     <g id="line2d_83">
      <g>
       <use xlink:href="#m805506dd28" x="463.2" y="263.242241" style="stroke: #000000; stroke-width: 0.5"/>
      </g>
     </g>
    </g>
    <g id="ytick_9">
     <g id="line2d_84">
      <g>
       <use xlink:href="#mef9c4fc769" x="44.7" y="249.519419" style="stroke: #000000; stroke-width: 0.5"/>
      </g>
     </g>
     <g id="line2d_85">
      <g>
       <use xlink:href="#m805506dd28" x="463.2" y="249.519419" style="stroke: #000000; stroke-width: 0.5"/>
      </g>
     </g>
    </g>
    <g id="ytick_10">
     <g id="line2d_86">
      <g>
       <use xlink:href="#mef9c4fc769" x="44.7" y="235.796596" style="stroke: #000000; stroke-width: 0.5"/>
      </g>
     </g>
     <g id="line2d_87">
      <g>
       <use xlink:href="#m805506dd28" x="463.2" y="235.796596" style="stroke: #000000; stroke-width: 0.5"/>
      </g>
     </g>
    </g>
    <g id="ytick_11">
     <g id="line2d_88">
      <g>
       <use xlink:href="#mef9c4fc769" x="44.7" y="208.350952" style="stroke: #000000; stroke-width: 0.5"/>
      </g>
     </g>
     <g id="line2d_89">
      <g>
       <use xlink:href="#m805506dd28" x="463.2" y="208.350952" style="stroke: #000000; stroke-width: 0.5"/>
      </g>
     </g>
    </g>
    <g id="ytick_12">
     <g id="line2d_90">
      <g>
       <use xlink:href="#mef9c4fc769" x="44.7" y="194.628129" style="stroke: #000000; stroke-width: 0.5"/>
      </g>
     </g>
     <g id="line2d_91">
      <g>
       <use xlink:href="#m805506dd28" x="463.2" y="194.628129" style="stroke: #000000; stroke-width: 0.5"/>
      </g>
     </g>
    </g>
    <g id="ytick_13">
     <g id="line2d_92">
      <g>
       <use xlink:href="#mef9c4fc769" x="44.7" y="180.905307" style="stroke: #000000; stroke-width: 0.5"/>
      </g>
     </g>
     <g id="line2d_93">
      <g>
       <use xlink:href="#m805506dd28" x="463.2" y="180.905307" style="stroke: #000000; stroke-width: 0.5"/>
      </g>
     </g>
    </g>
    <g id="ytick_14">
     <g id="line2d_94">
      <g>
       <use xlink:href="#mef9c4fc769" x="44.7" y="153.459662" style="stroke: #000000; stroke-width: 0.5"/>
      </g>
     </g>
     <g id="line2d_95">
      <g>
       <use xlink:href="#m805506dd28" x="463.2" y="153.459662" style="stroke: #000000; stroke-width: 0.5"/>
      </g>
     </g>
    </g>
    <g id="ytick_15">
     <g id="line2d_96">
      <g>
       <use xlink:href="#mef9c4fc769" x="44.7" y="139.736839" style="stroke: #000000; stroke-width: 0.5"/>
      </g>
     </g>
     <g id="line2d_97">
      <g>
       <use xlink:href="#m805506dd28" x="463.2" y="139.736839" style="stroke: #000000; stroke-width: 0.5"/>
      </g>
     </g>
    </g>
    <g id="ytick_16">
     <g id="line2d_98">
      <g>
       <use xlink:href="#mef9c4fc769" x="44.7" y="126.014017" style="stroke: #000000; stroke-width: 0.5"/>
      </g>
     </g>
     <g id="line2d_99">
      <g>
       <use xlink:href="#m805506dd28" x="463.2" y="126.014017" style="stroke: #000000; stroke-width: 0.5"/>
      </g>
     </g>
    </g>
    <g id="ytick_17">
     <g id="line2d_100">
      <g>
       <use xlink:href="#mef9c4fc769" x="44.7" y="98.568372" style="stroke: #000000; stroke-width: 0.5"/>
      </g>
     </g>
     <g id="line2d_101">
      <g>
       <use xlink:href="#m805506dd28" x="463.2" y="98.568372" style="stroke: #000000; stroke-width: 0.5"/>
      </g>
     </g>
    </g>
    <g id="ytick_18">
     <g id="line2d_102">
      <g>
       <use xlink:href="#mef9c4fc769" x="44.7" y="84.845549" style="stroke: #000000; stroke-width: 0.5"/>
      </g>
     </g>
     <g id="line2d_103">
      <g>
       <use xlink:href="#m805506dd28" x="463.2" y="84.845549" style="stroke: #000000; stroke-width: 0.5"/>
      </g>
     </g>
    </g>
    <g id="ytick_19">
     <g id="line2d_104">
      <g>
       <use xlink:href="#mef9c4fc769" x="44.7" y="71.122727" style="stroke: #000000; stroke-width: 0.5"/>
      </g>
     </g>
     <g id="line2d_105">
      <g>
       <use xlink:href="#m805506dd28" x="463.2" y="71.122727" style="stroke: #000000; stroke-width: 0.5"/>
      </g>
     </g>
    </g>
    <g id="ytick_20">
     <g id="line2d_106">
      <g>
       <use xlink:href="#mef9c4fc769" x="44.7" y="43.677082" style="stroke: #000000; stroke-width: 0.5"/>
      </g>
     </g>
     <g id="line2d_107">
      <g>
       <use xlink:href="#m805506dd28" x="463.2" y="43.677082" style="stroke: #000000; stroke-width: 0.5"/>
      </g>
     </g>
    </g>
    <g id="ytick_21">
     <g id="line2d_108">
      <g>
       <use xlink:href="#mef9c4fc769" x="44.7" y="29.954259" style="stroke: #000000; stroke-width: 0.5"/>
      </g>
     </g>
     <g id="line2d_109">
      <g>
       <use xlink:href="#m805506dd28" x="463.2" y="29.954259" style="stroke: #000000; stroke-width: 0.5"/>
      </g>
     </g>
    </g>
    <g id="text_13">
     <!-- Variance difference from exact -->
     <g transform="translate(13.161563 256.688844) rotate(-90) scale(0.14 -0.14)">
      <defs>
       <path id="STIXGeneral-Regular-56" d="M 4461 4237 
L 4461 4115 
Q 4262 4109 4134 3990 
Q 4006 3872 3872 3533 
L 2451 -70 
L 2355 -70 
L 794 3411 
Q 589 3866 467 3987 
Q 346 4109 102 4115 
L 102 4237 
L 1798 4237 
L 1798 4115 
L 1619 4102 
Q 1331 4083 1331 3904 
Q 1331 3776 1581 3219 
L 2554 1030 
L 3494 3392 
Q 3616 3699 3616 3853 
Q 3616 3898 3606 3933 
Q 3597 3968 3584 3993 
Q 3571 4019 3536 4038 
Q 3501 4058 3481 4067 
Q 3462 4077 3411 4086 
Q 3360 4096 3337 4099 
Q 3315 4102 3248 4108 
Q 3181 4115 3155 4115 
L 3155 4237 
L 4461 4237 
z
" transform="scale(0.015625)"/>
       <path id="STIXGeneral-Regular-61" d="M 2829 422 
L 2829 243 
Q 2586 -64 2253 -64 
Q 1888 -64 1843 403 
L 1837 403 
Q 1427 -64 909 -64 
Q 608 -64 422 112 
Q 237 288 237 602 
Q 237 1050 685 1350 
Q 992 1555 1837 1869 
L 1837 2214 
Q 1837 2502 1699 2646 
Q 1562 2790 1338 2790 
Q 1146 2790 1018 2697 
Q 890 2605 890 2477 
Q 890 2419 909 2348 
Q 928 2278 928 2208 
Q 928 2112 841 2029 
Q 755 1946 634 1946 
Q 525 1946 441 2029 
Q 358 2112 358 2240 
Q 358 2547 685 2752 
Q 986 2944 1421 2944 
Q 1939 2944 2176 2656 
Q 2291 2522 2323 2384 
Q 2355 2246 2355 1946 
L 2355 723 
Q 2355 301 2554 301 
Q 2682 301 2829 422 
z
M 1837 813 
L 1837 1715 
Q 1248 1510 1018 1293 
Q 800 1094 800 800 
Q 800 557 921 432 
Q 1043 307 1242 307 
Q 1453 307 1613 410 
Q 1747 506 1792 589 
Q 1837 672 1837 813 
z
" transform="scale(0.015625)"/>
       <path id="STIXGeneral-Regular-72" d="M 1024 2931 
L 1024 2342 
Q 1267 2688 1430 2816 
Q 1594 2944 1792 2944 
Q 1958 2944 2051 2854 
Q 2144 2765 2144 2605 
Q 2144 2470 2077 2393 
Q 2010 2317 1894 2317 
Q 1773 2317 1638 2445 
Q 1536 2541 1472 2541 
Q 1338 2541 1181 2355 
Q 1024 2170 1024 2016 
L 1024 576 
Q 1024 301 1133 205 
Q 1242 109 1568 96 
L 1568 0 
L 32 0 
L 32 96 
Q 339 154 412 224 
Q 486 294 486 538 
L 486 2138 
Q 486 2349 438 2435 
Q 390 2522 269 2522 
Q 166 2522 45 2496 
L 45 2598 
Q 448 2726 992 2944 
L 1024 2931 
z
" transform="scale(0.015625)"/>
       <path id="STIXGeneral-Regular-69" d="M 1152 4045 
Q 1152 3904 1056 3811 
Q 960 3718 819 3718 
Q 685 3718 592 3811 
Q 499 3904 499 4045 
Q 499 4179 595 4275 
Q 691 4371 826 4371 
Q 966 4371 1059 4275 
Q 1152 4179 1152 4045 
z
M 1619 0 
L 102 0 
L 102 96 
Q 435 115 521 211 
Q 608 307 608 666 
L 608 2118 
Q 608 2342 563 2432 
Q 518 2522 397 2522 
Q 243 2522 128 2490 
L 128 2592 
L 1120 2944 
L 1146 2918 
L 1146 672 
Q 1146 314 1226 218 
Q 1306 122 1619 96 
L 1619 0 
z
" transform="scale(0.015625)"/>
       <path id="STIXGeneral-Regular-6e" d="M 3104 0 
L 1773 0 
L 1779 96 
Q 2016 115 2096 233 
Q 2176 352 2176 672 
L 2176 1946 
Q 2176 2592 1709 2592 
Q 1549 2592 1408 2515 
Q 1267 2438 1050 2227 
L 1050 461 
Q 1050 269 1136 192 
Q 1222 115 1466 96 
L 1466 0 
L 115 0 
L 115 96 
Q 358 115 435 214 
Q 512 314 512 602 
L 512 2157 
Q 512 2394 467 2483 
Q 422 2573 288 2573 
Q 160 2573 102 2547 
L 102 2656 
Q 550 2784 979 2944 
L 1030 2925 
L 1030 2426 
L 1037 2426 
Q 1491 2944 1958 2944 
Q 2323 2944 2518 2688 
Q 2714 2432 2714 1958 
L 2714 544 
Q 2714 288 2790 205 
Q 2867 122 3104 96 
L 3104 0 
z
" transform="scale(0.015625)"/>
       <path id="STIXGeneral-Regular-63" d="M 2547 998 
L 2637 941 
Q 2362 403 2112 205 
Q 1786 -64 1376 -64 
Q 845 -64 502 336 
Q 160 736 160 1357 
Q 160 2170 698 2618 
Q 1094 2944 1562 2944 
Q 1965 2944 2256 2749 
Q 2547 2554 2547 2285 
Q 2547 2176 2457 2096 
Q 2368 2016 2246 2016 
Q 2022 2016 1939 2310 
L 1901 2451 
Q 1850 2630 1773 2694 
Q 1696 2758 1523 2758 
Q 1133 2758 893 2451 
Q 653 2144 653 1645 
Q 653 1094 928 745 
Q 1203 397 1645 397 
Q 1920 397 2118 528 
Q 2317 659 2547 998 
z
" transform="scale(0.015625)"/>
       <path id="STIXGeneral-Regular-65" d="M 2611 1050 
L 2714 1005 
Q 2330 -64 1376 -64 
Q 813 -64 486 329 
Q 160 723 160 1389 
Q 160 2074 525 2509 
Q 890 2944 1485 2944 
Q 2061 2944 2374 2502 
Q 2560 2246 2592 1773 
L 621 1773 
Q 646 1370 700 1158 
Q 755 947 915 730 
Q 1184 378 1626 378 
Q 1939 378 2153 531 
Q 2368 685 2611 1050 
z
M 634 1978 
L 1939 1978 
Q 1882 2381 1750 2547 
Q 1619 2714 1312 2714 
Q 1043 2714 864 2525 
Q 685 2336 634 1978 
z
" transform="scale(0.015625)"/>
       <path id="STIXGeneral-Regular-20" transform="scale(0.015625)"/>
       <path id="STIXGeneral-Regular-64" d="M 3142 269 
L 2202 -64 
L 2176 -45 
L 2176 365 
Q 1869 -64 1357 -64 
Q 826 -64 499 317 
Q 173 698 173 1312 
Q 173 1990 563 2467 
Q 954 2944 1504 2944 
Q 1850 2944 2176 2669 
L 2176 3667 
Q 2176 3866 2118 3930 
Q 2061 3994 1882 3994 
Q 1792 3994 1741 3987 
L 1741 4090 
Q 2323 4243 2682 4371 
L 2714 4358 
L 2714 730 
Q 2714 506 2768 435 
Q 2822 365 2995 365 
Q 3034 365 3142 371 
L 3142 269 
z
M 2176 653 
L 2176 2125 
Q 2176 2381 1981 2573 
Q 1786 2765 1523 2765 
Q 1158 2765 940 2438 
Q 723 2112 723 1568 
Q 723 979 963 624 
Q 1203 269 1606 269 
Q 1907 269 2080 474 
Q 2176 582 2176 653 
z
" transform="scale(0.015625)"/>
       <path id="STIXGeneral-Regular-66" d="M 134 2880 
L 659 2880 
Q 666 3264 710 3478 
Q 755 3693 883 3910 
Q 1152 4371 1786 4371 
Q 2074 4371 2262 4259 
Q 2451 4147 2451 3974 
Q 2451 3866 2374 3789 
Q 2298 3712 2182 3712 
Q 2029 3712 1894 3942 
Q 1741 4192 1555 4192 
Q 1197 4192 1197 3622 
L 1197 2880 
L 1978 2880 
L 1978 2675 
L 1197 2675 
L 1197 666 
Q 1197 307 1299 208 
Q 1402 109 1792 96 
L 1792 0 
L 128 0 
L 128 96 
Q 474 115 566 214 
Q 659 314 659 666 
L 659 2675 
L 134 2675 
L 134 2880 
z
" transform="scale(0.015625)"/>
       <path id="STIXGeneral-Regular-6f" d="M 3008 1478 
Q 3008 806 2608 371 
Q 2208 -64 1568 -64 
Q 979 -64 582 368 
Q 186 800 186 1459 
Q 186 2125 582 2534 
Q 979 2944 1626 2944 
Q 2221 2944 2614 2537 
Q 3008 2131 3008 1478 
z
M 2432 1306 
Q 2432 2035 2112 2445 
Q 1856 2765 1504 2765 
Q 1171 2765 966 2493 
Q 762 2221 762 1747 
Q 762 928 1101 435 
Q 1318 115 1677 115 
Q 2029 115 2230 432 
Q 2432 749 2432 1306 
z
" transform="scale(0.015625)"/>
       <path id="STIXGeneral-Regular-6d" d="M 4960 0 
L 3565 0 
L 3565 96 
Q 3834 122 3907 208 
Q 3981 294 3981 576 
L 3981 1894 
Q 3981 2278 3869 2444 
Q 3757 2611 3488 2611 
Q 3264 2611 3107 2521 
Q 2950 2432 2803 2221 
L 2803 608 
Q 2803 301 2896 201 
Q 2989 102 3264 96 
L 3264 0 
L 1830 0 
L 1830 96 
Q 2112 115 2189 188 
Q 2266 262 2266 550 
L 2266 1901 
Q 2266 2611 1850 2611 
Q 1670 2611 1468 2531 
Q 1267 2451 1171 2336 
Q 1088 2240 1088 2227 
L 1088 448 
Q 1088 243 1177 176 
Q 1267 109 1523 96 
L 1523 0 
L 102 0 
L 102 96 
Q 371 102 460 195 
Q 550 288 550 563 
L 550 2150 
Q 550 2387 499 2480 
Q 448 2573 326 2573 
Q 230 2573 122 2547 
L 122 2656 
Q 557 2778 1011 2944 
L 1062 2925 
L 1062 2451 
L 1075 2451 
Q 1363 2752 1584 2848 
Q 1805 2944 2054 2944 
Q 2560 2944 2733 2406 
Q 3232 2944 3776 2944 
Q 4518 2944 4518 1792 
L 4518 493 
Q 4518 282 4582 202 
Q 4646 122 4794 109 
L 4960 96 
L 4960 0 
z
" transform="scale(0.015625)"/>
       <path id="STIXGeneral-Regular-78" d="M 3066 0 
L 1779 0 
L 1779 96 
Q 1939 109 1987 137 
Q 2035 166 2035 250 
Q 2035 307 1997 365 
L 1414 1261 
L 909 474 
Q 781 275 781 211 
Q 781 96 1037 96 
L 1037 0 
L 109 0 
L 109 96 
Q 269 109 355 169 
Q 442 230 576 422 
L 1306 1478 
L 704 2400 
Q 557 2624 454 2704 
Q 352 2784 211 2784 
L 154 2784 
L 154 2880 
L 1478 2880 
L 1478 2784 
Q 1203 2778 1203 2643 
Q 1203 2509 1498 2074 
Q 1581 1958 1587 1946 
Q 1619 1990 1779 2227 
Q 1811 2285 1856 2349 
Q 1901 2413 1923 2451 
Q 1946 2490 1971 2528 
Q 1997 2566 2006 2595 
Q 2016 2624 2016 2643 
Q 2016 2765 1760 2784 
L 1760 2880 
L 2771 2880 
L 2771 2784 
Q 2445 2771 2253 2502 
L 1722 1734 
L 2541 480 
Q 2790 96 3066 96 
L 3066 0 
z
" transform="scale(0.015625)"/>
       <path id="STIXGeneral-Regular-74" d="M 1702 493 
L 1786 422 
Q 1478 -64 1011 -64 
Q 448 -64 448 749 
L 448 2675 
L 109 2675 
Q 83 2694 83 2720 
Q 83 2771 192 2842 
Q 435 2982 813 3526 
Q 826 3546 874 3606 
Q 922 3667 941 3706 
Q 986 3706 986 3622 
L 986 2880 
L 1632 2880 
L 1632 2675 
L 986 2675 
L 986 845 
Q 986 538 1062 403 
Q 1139 269 1318 269 
Q 1510 269 1702 493 
z
" transform="scale(0.015625)"/>
      </defs>
      <use xlink:href="#STIXGeneral-Regular-56"/>
      <use xlink:href="#STIXGeneral-Regular-61" transform="translate(72.199982 0)"/>
      <use xlink:href="#STIXGeneral-Regular-72" transform="translate(116.599976 0)"/>
      <use xlink:href="#STIXGeneral-Regular-69" transform="translate(149.899963 0)"/>
      <use xlink:href="#STIXGeneral-Regular-61" transform="translate(177.699951 0)"/>
      <use xlink:href="#STIXGeneral-Regular-6e" transform="translate(222.099945 0)"/>
      <use xlink:href="#STIXGeneral-Regular-63" transform="translate(272.09993 0)"/>
      <use xlink:href="#STIXGeneral-Regular-65" transform="translate(316.499924 0)"/>
      <use xlink:href="#STIXGeneral-Regular-20" transform="translate(360.899918 0)"/>
      <use xlink:href="#STIXGeneral-Regular-64" transform="translate(385.899902 0)"/>
      <use xlink:href="#STIXGeneral-Regular-69" transform="translate(435.899887 0)"/>
      <use xlink:href="#STIXGeneral-Regular-66" transform="translate(463.699875 0)"/>
      <use xlink:href="#STIXGeneral-Regular-66" transform="translate(496.999863 0)"/>
      <use xlink:href="#STIXGeneral-Regular-65" transform="translate(530.29985 0)"/>
      <use xlink:href="#STIXGeneral-Regular-72" transform="translate(574.699844 0)"/>
      <use xlink:href="#STIXGeneral-Regular-65" transform="translate(607.999832 0)"/>
      <use xlink:href="#STIXGeneral-Regular-6e" transform="translate(652.399826 0)"/>
      <use xlink:href="#STIXGeneral-Regular-63" transform="translate(702.399811 0)"/>
      <use xlink:href="#STIXGeneral-Regular-65" transform="translate(746.799805 0)"/>
      <use xlink:href="#STIXGeneral-Regular-20" transform="translate(791.199799 0)"/>
      <use xlink:href="#STIXGeneral-Regular-66" transform="translate(816.199783 0)"/>
      <use xlink:href="#STIXGeneral-Regular-72" transform="translate(849.499771 0)"/>
      <use xlink:href="#STIXGeneral-Regular-6f" transform="translate(882.799759 0)"/>
      <use xlink:href="#STIXGeneral-Regular-6d" transform="translate(932.799744 0)"/>
      <use xlink:href="#STIXGeneral-Regular-20" transform="translate(1010.599731 0)"/>
      <use xlink:href="#STIXGeneral-Regular-65" transform="translate(1035.599716 0)"/>
      <use xlink:href="#STIXGeneral-Regular-78" transform="translate(1079.99971 0)"/>
      <use xlink:href="#STIXGeneral-Regular-61" transform="translate(1129.999695 0)"/>
      <use xlink:href="#STIXGeneral-Regular-63" transform="translate(1174.399689 0)"/>
      <use xlink:href="#STIXGeneral-Regular-74" transform="translate(1218.799683 0)"/>
     </g>
    </g>
   </g>
   <g id="line2d_110">
    <path d="M 63.722727 38.384 
L 66.766364 55.49361 
L 69.81 71.336133 
L 72.853636 86.007089 
L 75.897273 99.594732 
L 78.940909 112.180599 
L 81.984545 123.84003 
L 85.028182 134.642636 
L 88.147909 144.893364 
L 91.267636 154.375396 
L 94.387364 163.147711 
L 97.507091 171.264706 
L 100.626818 178.776556 
L 103.822636 185.89251 
L 107.018455 192.467838 
L 110.214273 198.544752 
L 113.486182 204.290566 
L 116.758091 209.593047 
L 120.106091 214.596693 
L 123.454091 219.20775 
L 126.878182 223.550685 
L 130.378364 227.632579 
L 133.954636 231.461323 
L 137.607 235.04549 
L 141.335455 238.394204 
L 145.14 241.517028 
L 149.096727 244.478208 
L 153.205636 247.273016 
L 157.466727 249.898947 
L 161.88 252.355528 
L 166.445455 254.644106 
L 171.239182 256.800015 
L 176.337273 258.845948 
L 181.663636 260.743283 
L 187.370455 262.537034 
L 193.457727 264.212772 
L 199.925455 265.760986 
L 206.925818 267.205778 
L 214.534909 268.545539 
L 222.828818 269.776951 
L 231.959727 270.904978 
L 242.155909 271.93613 
L 253.645636 272.868831 
L 266.733273 273.702138 
L 281.875364 274.437512 
L 299.756727 275.077077 
L 321.518727 275.624441 
L 348.759273 276.077272 
L 384.522 276.437089 
L 434.589818 276.702826 
L 444.177273 276.735126 
L 444.177273 276.735126 
" clip-path="url(#pb3c6adc804)" style="fill: none; stroke: #2ca02c; stroke-width: 2.7; stroke-linecap: square"/>
   </g>
   <g id="line2d_111">
    <path d="M 44.7 276.965064 
L 463.2 276.965064 
" clip-path="url(#pb3c6adc804)" style="fill: none; stroke: #000000; stroke-opacity: 0.6; stroke-linecap: square"/>
   </g>
   <g id="patch_3">
    <path d="M 44.7 313.568 
L 44.7 25.28 
" style="fill: none; stroke: #000000; stroke-width: 0.5; stroke-linejoin: miter; stroke-linecap: square"/>
   </g>
   <g id="patch_4">
    <path d="M 463.2 313.568 
L 463.2 25.28 
" style="fill: none; stroke: #000000; stroke-width: 0.5; stroke-linejoin: miter; stroke-linecap: square"/>
   </g>
   <g id="patch_5">
    <path d="M 44.7 313.568 
L 463.2 313.568 
" style="fill: none; stroke: #000000; stroke-width: 0.5; stroke-linejoin: miter; stroke-linecap: square"/>
   </g>
   <g id="patch_6">
    <path d="M 44.7 25.28 
L 463.2 25.28 
" style="fill: none; stroke: #000000; stroke-width: 0.5; stroke-linejoin: miter; stroke-linecap: square"/>
   </g>
   <g id="line2d_112">
    <path d="M 63.722727 276.965064 
L 63.798818 276.963695 
L 63.874909 274.228759 
L 64.103182 282.376372 
L 64.179273 282.350589 
L 64.255364 276.898916 
L 64.407545 282.257535 
L 64.711909 274.069673 
L 64.864091 274.007538 
L 65.092364 265.999812 
L 65.168455 268.595299 
L 65.244545 268.56185 
L 65.472818 268.447367 
L 65.625 273.552164 
L 65.777182 270.845056 
L 66.005455 275.815091 
L 66.081545 275.740127 
L 66.157636 273.096827 
L 66.309818 278.062975 
L 66.385909 277.973956 
L 66.462 277.88284 
L 66.538091 275.245434 
L 66.690273 280.135812 
L 66.766364 280.030997 
L 66.842455 279.924174 
L 66.994636 284.754574 
L 67.070727 284.630854 
L 67.222909 284.377618 
L 67.299 281.74235 
L 67.375091 284.11677 
L 67.451182 283.983535 
L 67.527273 283.848449 
L 67.755545 278.492042 
L 67.983818 285.461902 
L 68.059909 285.308851 
L 68.212091 280.112301 
L 68.364273 284.679681 
L 68.440364 284.518231 
L 68.668636 284.024173 
L 68.820818 281.285384 
L 69.049091 287.955904 
L 69.125182 287.769414 
L 69.201273 287.581445 
L 69.353455 291.965698 
L 69.429545 291.762411 
L 69.505636 291.55771 
L 69.657818 288.781062 
L 69.733909 288.577707 
L 69.886091 278.835449 
L 70.038273 283.096182 
L 70.190455 278.08613 
L 70.342636 282.292807 
L 70.418727 279.797162 
L 70.494818 281.883735 
L 70.570909 281.677409 
L 70.647 281.469911 
L 70.875273 274.080678 
L 70.951364 273.885115 
L 71.179636 279.985921 
L 71.255727 277.53828 
L 71.331818 279.552269 
L 71.407909 279.333911 
L 71.560091 274.480951 
L 71.712273 274.059329 
L 72.092727 281.683896 
L 72.321 276.639993 
L 72.473182 280.482337 
L 72.549273 280.239604 
L 72.625364 279.996099 
L 72.701455 281.895341 
L 72.777545 281.644847 
L 72.853636 281.393626 
L 72.929727 283.274219 
L 73.005818 283.016099 
L 73.158 280.381766 
L 73.234091 280.12713 
L 73.310182 281.976937 
L 73.386273 281.71555 
L 73.538455 281.190962 
L 73.614545 278.844665 
L 73.918909 284.008394 
L 74.147182 277.025858 
L 74.299364 276.5018 
L 74.679818 285.270544 
L 74.755909 282.955695 
L 74.832 284.685983 
L 74.984182 282.093796 
L 75.136364 281.517626 
L 75.288545 278.961499 
L 75.440727 282.335361 
L 75.516818 282.040371 
L 75.592909 281.745168 
L 75.821182 284.766682 
L 76.049455 283.845583 
L 76.810364 297.986356 
L 77.190818 296.201215 
L 77.495182 300.464 
L 77.647364 297.827472 
L 77.723455 297.460434 
L 77.799545 298.973598 
L 77.875636 292.994288 
L 77.951727 294.49686 
L 78.027818 294.136086 
L 78.103909 295.628119 
L 78.332182 290.86475 
L 78.408273 290.510721 
L 78.560455 287.994875 
L 78.712636 287.299933 
L 79.093091 292.682654 
L 79.245273 290.17326 
L 79.321364 289.812552 
L 79.473545 287.338691 
L 79.549636 288.733115 
L 80.006182 276.377645 
L 80.234455 280.441642 
L 80.310545 280.104065 
L 80.386636 278.095647 
L 80.691 281.740818 
L 80.767091 281.396027 
L 80.843182 282.706877 
L 80.919273 282.357946 
L 80.995364 280.365714 
L 81.071455 281.662174 
L 81.147545 281.315356 
L 81.223636 280.969265 
L 81.299727 282.251441 
L 81.375818 280.279314 
L 81.604091 284.083315 
L 81.680182 283.725368 
L 81.756273 283.36823 
L 82.365 291.626923 
L 82.441091 291.239157 
L 82.517182 289.263212 
L 82.593273 284.164886 
L 82.669364 285.363537 
L 82.745455 286.557655 
L 82.821545 286.185596 
L 82.897636 285.814515 
L 83.049818 288.171204 
L 83.125909 287.792149 
L 83.354182 286.66117 
L 83.582455 282.520679 
L 83.734636 284.797482 
L 83.886818 279.605281 
L 83.962909 280.728387 
L 84.039 280.373317 
L 84.343364 284.80512 
L 84.495545 276.832107 
L 84.571636 277.92075 
L 84.647727 279.005134 
L 84.723818 277.230921 
L 84.799909 278.306817 
L 84.876 277.959545 
L 84.952091 277.613544 
L 85.484727 283.560521 
L 85.636909 282.825113 
L 85.865182 285.890358 
L 86.093455 279.29367 
L 86.169545 274.915705 
L 86.245636 275.913045 
L 86.321727 274.249614 
L 86.626091 276.86259 
L 86.702182 276.521242 
L 86.778273 277.490569 
L 86.930455 275.506342 
L 87.006545 275.171124 
L 87.387 279.899695 
L 87.463091 278.264809 
L 87.691364 281.043688 
L 87.843545 277.805083 
L 88.071818 279.272181 
L 88.147909 278.922921 
L 88.756636 285.983552 
L 88.832727 284.368249 
L 89.137091 286.562156 
L 89.365364 289.093317 
L 89.441455 288.702933 
L 89.669727 291.190518 
L 89.745818 290.791172 
L 89.821909 291.609567 
L 89.974091 290.809428 
L 90.050182 289.212869 
L 90.126273 290.016995 
L 90.202364 289.62369 
L 90.278455 290.420736 
L 90.430636 289.632953 
L 90.506727 290.419446 
L 90.582818 290.025021 
L 90.658909 290.804524 
L 90.735 290.408615 
L 90.811091 291.181163 
L 91.115455 289.603976 
L 91.572 294.08474 
L 91.800273 292.862438 
L 91.876364 293.587286 
L 91.952455 293.180775 
L 92.332909 296.738469 
L 92.409 296.317574 
L 92.485091 297.015923 
L 92.713364 293.561063 
L 92.865545 294.92843 
L 93.626455 290.923747 
L 93.854727 292.855223 
L 93.930818 292.458085 
L 94.006909 293.092532 
L 94.083 292.694657 
L 94.311273 288.510095 
L 94.387364 288.138288 
L 94.615636 289.976847 
L 94.691727 289.5983 
L 94.843909 285.00618 
L 94.996091 285.251618 
L 95.072182 285.843262 
L 95.148273 285.490522 
L 95.376545 287.238549 
L 95.452636 286.879383 
L 95.528727 285.59783 
L 95.604818 286.16865 
L 95.680909 286.736527 
L 95.757 286.382038 
L 95.833091 286.944051 
L 95.909182 286.589202 
L 96.061364 287.698653 
L 96.213545 286.087626 
L 96.289636 286.632228 
L 96.441818 285.934335 
L 96.822273 280.022832 
L 96.974455 281.063635 
L 97.278818 279.840082 
L 97.354909 280.345109 
L 97.431 279.244539 
L 97.507091 279.744031 
L 97.583182 280.240766 
L 97.659273 279.941572 
L 97.735364 280.432815 
L 97.811455 280.133633 
L 97.887545 280.619413 
L 98.039727 280.023906 
L 98.115818 280.501546 
L 98.268 279.91178 
L 98.420182 280.84823 
L 98.496273 279.797446 
L 98.572364 280.258998 
L 98.800636 281.627744 
L 98.876727 280.585669 
L 98.952818 281.034009 
L 99.028909 281.479727 
L 99.105 280.451744 
L 99.181091 280.892241 
L 99.333273 280.316308 
L 99.713727 282.454153 
L 99.789818 282.157706 
L 99.942 280.873784 
L 100.018091 281.286052 
L 100.094182 281.001419 
L 100.398545 282.615267 
L 100.474636 282.323597 
L 100.550727 282.718327 
L 100.626818 281.749275 
L 100.702909 282.139055 
L 100.779 282.52637 
L 100.855091 282.238809 
L 101.083364 283.378692 
L 101.159455 283.08685 
L 101.539909 284.926032 
L 101.616 284.625223 
L 101.844273 285.692819 
L 101.996455 285.086289 
L 102.072545 285.432694 
L 102.148636 284.492295 
L 102.224727 284.83401 
L 102.453 285.845165 
L 102.529091 284.915075 
L 102.605182 285.245175 
L 103.137818 287.491695 
L 103.29 286.872574 
L 103.518273 287.787858 
L 103.670455 287.168299 
L 103.746545 287.464482 
L 103.822636 287.157394 
L 103.898727 287.449159 
L 103.974818 287.143154 
L 104.050909 286.255852 
L 104.127 286.541035 
L 104.203091 286.244934 
L 104.355273 286.804414 
L 104.583545 285.923043 
L 104.811818 286.72673 
L 104.887909 286.433213 
L 104.964 286.69472 
L 105.040091 286.402453 
L 105.116182 286.659732 
L 105.192273 285.828058 
L 105.268364 286.081131 
L 105.420545 285.516112 
L 105.724909 286.490912 
L 105.801 286.205238 
L 105.953182 286.676157 
L 106.257545 285.551575 
L 106.333636 285.775855 
L 106.409727 285.501354 
L 106.714091 286.370385 
L 106.790182 286.091386 
L 106.942364 286.510005 
L 107.170636 284.749123 
L 107.246727 284.949598 
L 107.322818 284.689783 
L 107.779364 285.840339 
L 107.855455 285.572528 
L 108.312 286.642966 
L 108.388091 285.925547 
L 108.464182 286.095499 
L 108.616364 285.562539 
L 109.072909 286.521224 
L 109.149 285.829276 
L 109.225091 285.980838 
L 109.301182 286.130589 
L 109.453364 285.601312 
L 109.605545 285.888222 
L 109.681636 285.625547 
L 109.986 286.170898 
L 110.062091 285.512389 
L 110.138182 285.642559 
L 110.975182 283.005121 
L 111.127364 283.222428 
L 111.355636 282.888039 
L 111.888273 283.560862 
L 111.964364 282.719981 
L 112.040455 282.807875 
L 112.116545 282.894141 
L 112.344818 282.550386 
L 112.497 282.708377 
L 112.953545 281.497346 
L 113.029636 281.564432 
L 113.105727 281.12495 
L 113.181818 281.188904 
L 113.562273 281.485379 
L 113.714455 280.87685 
L 113.790545 280.928458 
L 113.866636 280.750744 
L 113.942727 280.79931 
L 114.094909 280.891904 
L 114.247091 280.539347 
L 114.323182 280.580387 
L 114.855818 280.826132 
L 115.008 280.671795 
L 115.160182 280.722978 
L 115.236273 280.340205 
L 115.312364 280.362188 
L 115.388455 280.382734 
L 115.616727 280.051564 
L 115.921091 280.102479 
L 116.073273 279.935623 
L 116.453727 279.95388 
L 116.605909 279.773147 
L 116.910273 279.752131 
L 117.214636 279.207286 
L 117.290727 279.193298 
L 117.519 278.83599 
L 117.747273 278.774227 
L 118.508182 277.276565 
L 118.888636 276.99328 
L 119.193 276.651986 
L 119.649545 276.276106 
L 120.03 275.859628 
L 120.562636 275.301349 
L 120.867 274.895872 
L 121.551818 274.139645 
L 122.845364 272.569964 
L 124.975909 269.898668 
L 125.128091 269.722113 
L 127.258636 266.174577 
L 127.410818 266.228378 
L 127.943455 265.367078 
L 128.019545 265.654259 
L 128.628273 264.460564 
L 128.780455 264.632085 
L 129.160909 263.933692 
L 129.769636 263.921254 
L 130.454455 262.226458 
L 130.530545 262.262119 
L 130.606636 262.302514 
L 130.911 261.762214 
L 131.063182 261.862232 
L 131.139273 262.180101 
L 131.291455 261.781681 
L 131.367545 261.847599 
L 131.443636 262.19548 
L 131.595818 261.791245 
L 131.671909 262.158917 
L 131.748 261.955004 
L 131.824091 262.044044 
L 131.900182 262.137862 
L 132.128455 261.517601 
L 132.204545 261.614088 
L 132.280636 261.715365 
L 132.432818 261.295561 
L 132.585 261.836334 
L 133.117636 260.667943 
L 133.193727 260.788474 
L 133.345909 260.352375 
L 133.422 260.476402 
L 133.498091 260.256699 
L 133.574182 260.384899 
L 133.726364 259.942218 
L 133.878545 260.210525 
L 134.182909 259.312244 
L 134.487273 261.074255 
L 134.563364 260.845571 
L 134.715545 261.198726 
L 135.019909 260.272842 
L 135.096 260.874188 
L 135.172091 260.640579 
L 135.933 258.271566 
L 136.009091 258.45683 
L 136.161273 257.974804 
L 136.237364 258.163822 
L 136.313455 257.921369 
L 136.389545 258.114731 
L 136.465636 258.760376 
L 136.541727 258.516215 
L 137.150455 256.542763 
L 137.302636 256.955074 
L 137.454818 256.454015 
L 137.530909 257.135828 
L 137.607 256.883951 
L 137.835273 257.566016 
L 138.367909 255.776998 
L 138.596182 256.492819 
L 138.672273 257.254619 
L 138.748364 256.994935 
L 139.052727 255.951179 
L 139.128818 256.207718 
L 139.661455 254.358711 
L 139.737545 254.616844 
L 139.813636 254.350286 
L 139.965818 255.421315 
L 140.118 254.884884 
L 140.270182 255.444407 
L 140.498455 254.633474 
L 140.650636 255.210338 
L 141.487636 252.192175 
L 141.715909 253.080661 
L 141.792 252.80235 
L 141.868091 253.108204 
L 142.020273 252.549454 
L 142.096364 252.859528 
L 142.552909 251.17074 
L 142.705091 251.801153 
L 142.781182 252.736023 
L 142.857273 252.451903 
L 143.009455 253.123004 
L 143.085545 252.837684 
L 143.161636 253.814469 
L 143.237727 253.528359 
L 143.542091 252.380012 
L 143.618182 252.73144 
L 143.694273 252.443001 
L 143.770364 253.449614 
L 143.846455 253.160412 
L 143.922545 253.526782 
L 144.074727 252.946491 
L 144.150818 253.317224 
L 144.531273 251.858145 
L 144.607364 252.232161 
L 144.683455 251.938886 
L 144.759545 252.31767 
L 145.063909 251.139561 
L 145.14 251.522057 
L 145.292182 250.930186 
L 145.368273 251.317126 
L 145.520455 250.723178 
L 145.596545 251.114576 
L 145.672636 250.816748 
L 145.748727 251.212955 
L 145.900909 250.615611 
L 145.977 251.016301 
L 146.205273 250.11679 
L 146.281364 250.521649 
L 146.509636 249.618216 
L 146.661818 250.441491 
L 147.498818 247.09763 
L 147.574909 247.513625 
L 147.727091 246.901075 
L 147.803182 248.054463 
L 147.879273 247.747447 
L 148.031455 247.132535 
L 148.183636 247.998525 
L 148.488 246.762932 
L 148.564091 247.202591 
L 148.640182 246.892704 
L 148.792364 249.32405 
L 148.944545 248.702335 
L 149.248909 250.595421 
L 149.401091 249.970462 
L 149.477182 250.456253 
L 149.553273 250.143113 
L 149.629364 250.633868 
L 149.857636 249.692104 
L 149.933727 250.187315 
L 150.085909 252.019556 
L 150.390273 250.757275 
L 150.466364 251.272688 
L 150.542455 250.956253 
L 150.618545 251.476666 
L 150.694636 251.159745 
L 150.846818 253.069392 
L 150.999 252.433875 
L 151.075091 252.97481 
L 151.151182 252.656463 
L 151.227273 253.20242 
L 151.531636 251.925796 
L 151.683818 253.031664 
L 151.836 252.391094 
L 151.912091 252.951482 
L 152.444727 250.701078 
L 152.520818 251.265233 
L 152.977364 249.326841 
L 153.053455 249.895045 
L 153.129545 251.371499 
L 153.205636 251.04732 
L 153.662182 249.098125 
L 153.738273 249.681035 
L 153.966545 248.70328 
L 154.118727 249.883881 
L 154.270909 252.021602 
L 155.336182 247.427338 
L 155.412273 248.039289 
L 155.640545 247.050009 
L 155.716636 247.666803 
L 155.792727 247.336562 
L 155.868818 247.958528 
L 156.021 247.297263 
L 156.097091 247.924251 
L 156.401455 246.599271 
L 156.553636 248.842377 
L 156.705818 248.178403 
L 156.781909 250.802095 
L 156.858 250.469748 
L 157.162364 249.138947 
L 157.238455 249.802177 
L 157.314545 249.468992 
L 157.466727 250.811239 
L 157.542818 250.477651 
L 157.618909 251.156674 
L 157.847182 250.154727 
L 157.923273 250.838721 
L 158.075455 250.16986 
L 158.151545 250.858964 
L 158.303727 250.189355 
L 158.379818 251.91828 
L 158.455909 251.583171 
L 158.988545 249.234109 
L 159.064636 249.938259 
L 159.140727 249.602108 
L 159.216818 250.311525 
L 159.292909 249.975153 
L 159.369 251.746498 
L 159.445091 251.409909 
L 159.749455 250.062498 
L 159.825545 250.787532 
L 159.901636 250.450317 
L 160.129909 249.438073 
L 160.358182 250.565707 
L 161.195182 246.843789 
L 161.271273 247.58352 
L 161.347364 247.244553 
L 161.499545 246.566372 
L 161.575636 247.311263 
L 161.651727 246.971971 
L 161.727818 246.6326 
L 161.803909 247.382742 
L 161.88 247.043215 
L 162.793091 242.963195 
L 162.869182 243.717826 
L 162.945273 245.583942 
L 163.021364 245.243364 
L 163.477909 248.811235 
L 163.554 248.470234 
L 163.630091 249.26817 
L 163.706182 248.927055 
L 164.086636 247.22067 
L 164.238818 248.832209 
L 164.314909 248.490676 
L 164.467091 247.807464 
L 164.543182 248.621249 
L 164.619273 248.279527 
L 164.923636 246.912191 
L 164.999727 247.731201 
L 165.075818 247.389219 
L 165.532364 245.336505 
L 165.608455 247.332626 
L 165.684545 246.990342 
L 166.369364 243.908355 
L 166.445455 244.743185 
L 166.521545 244.40057 
L 167.054182 242.001593 
L 167.130273 242.841702 
L 167.206364 242.498885 
L 167.510727 241.127434 
L 167.586818 241.972927 
L 167.662909 241.630008 
L 167.891182 240.601167 
L 167.967273 241.452081 
L 168.043364 241.109097 
L 168.347727 239.737063 
L 168.423818 240.593407 
L 168.499909 240.25037 
L 168.956455 238.192035 
L 169.032545 239.053831 
L 169.108636 238.710761 
L 169.717364 235.966232 
L 169.945636 239.811436 
L 170.173909 238.782353 
L 170.25 239.671651 
L 170.326091 239.328648 
L 170.858727 236.927945 
L 170.934818 237.822839 
L 171.010909 237.479949 
L 171.315273 236.108552 
L 171.467455 237.915025 
L 171.543545 237.572258 
L 171.619636 237.229512 
L 171.695727 238.141052 
L 171.771818 237.798347 
L 172.380545 235.057554 
L 172.456636 235.974824 
L 172.532727 235.632367 
L 172.608818 235.289938 
L 172.684909 236.212782 
L 172.761 235.870411 
L 173.445818 232.790487 
L 173.521909 233.719175 
L 173.598 233.377165 
L 174.054545 231.325888 
L 174.130636 233.542078 
L 174.206727 233.200375 
L 174.282818 234.145913 
L 174.358909 233.804291 
L 174.511091 233.121176 
L 174.663273 235.029101 
L 174.739364 234.687695 
L 175.272 232.299138 
L 175.348091 234.570931 
L 175.424182 234.229947 
L 175.804636 232.525785 
L 175.880727 233.499753 
L 175.956818 233.159128 
L 177.022091 228.396207 
L 177.326455 233.693056 
L 177.478636 233.014069 
L 177.554727 232.67467 
L 177.706909 234.696717 
L 177.783 234.357511 
L 178.163455 232.662472 
L 178.315636 234.707536 
L 178.391727 234.368866 
L 178.62 233.353274 
L 178.772182 235.42113 
L 178.848273 235.082882 
L 178.924364 234.744706 
L 179.152636 236.497136 
L 179.228727 236.159253 
L 179.304818 237.212938 
L 179.380909 236.875203 
L 180.217909 233.16518 
L 180.370091 236.699071 
L 181.283182 232.66482 
L 181.359273 233.742632 
L 181.435364 233.407079 
L 181.511455 233.071613 
L 181.587545 234.155174 
L 181.663636 233.819883 
L 181.739727 233.484679 
L 181.891909 235.668885 
L 181.968 235.333948 
L 182.044091 234.999101 
L 182.120182 236.099751 
L 182.196273 235.765084 
L 182.424545 234.761629 
L 182.500636 235.868224 
L 182.576727 235.534014 
L 182.805 234.531945 
L 183.109364 237.552792 
L 183.337636 236.552711 
L 183.489818 238.817667 
L 183.565909 238.484694 
L 184.250727 235.492373 
L 184.479 238.934699 
L 184.555091 238.603024 
L 184.707273 237.939982 
L 184.783364 239.098914 
L 184.859455 238.767652 
L 185.239909 237.112902 
L 185.772545 243.85776 
L 186.076909 242.538868 
L 186.153 246.812052 
L 186.229091 246.482712 
L 186.609545 244.837663 
L 186.685636 246.054177 
L 186.761727 245.725612 
L 187.750909 241.464606 
L 187.827 242.68832 
L 187.903091 242.361472 
L 188.587909 239.42514 
L 188.664 240.655643 
L 188.740091 240.330098 
L 188.816182 240.004673 
L 189.120545 243.40562 
L 189.272727 242.756102 
L 189.348818 244.009651 
L 189.424909 243.685197 
L 189.577091 243.036659 
L 189.805364 246.832086 
L 189.881455 246.508373 
L 190.109727 245.537983 
L 190.185818 248.420421 
L 190.261909 248.097333 
L 190.338 247.774371 
L 190.642364 251.333431 
L 190.718455 251.011102 
L 190.794545 252.316426 
L 190.870636 251.994352 
L 191.022818 251.350587 
L 191.555455 260.647852 
L 191.631545 260.327068 
L 192.088091 258.405112 
L 192.164182 259.756686 
L 192.240273 259.436952 
L 192.468545 258.478547 
L 192.925091 265.004873 
L 193.001182 264.686474 
L 193.077273 266.072585 
L 193.153364 265.754456 
L 193.990364 262.264013 
L 194.066455 263.657385 
L 194.142545 263.341032 
L 196.501364 253.603651 
L 196.577455 255.007175 
L 196.653545 254.695491 
L 197.186182 252.517768 
L 197.262273 253.928089 
L 197.338364 253.617716 
L 197.642727 252.377687 
L 197.718818 253.794379 
L 197.794909 253.484887 
L 197.947091 252.866346 
L 198.023182 254.289117 
L 198.099273 253.980216 
L 198.251455 253.36286 
L 198.327545 254.791714 
L 198.403636 254.483408 
L 199.240636 251.101906 
L 199.316727 252.538197 
L 199.392818 252.23184 
L 199.849364 250.396878 
L 199.925455 253.593646 
L 200.001545 253.288503 
L 200.153727 256.202694 
L 200.229818 255.898008 
L 200.686364 254.073106 
L 200.762455 255.539737 
L 200.838545 255.236278 
L 200.914636 254.932973 
L 200.990727 256.405555 
L 201.066818 256.102558 
L 201.447273 254.589893 
L 201.523364 256.069047 
L 201.599455 255.767134 
L 201.751636 255.163775 
L 201.827727 256.64904 
L 201.903818 256.34775 
L 202.284273 254.843639 
L 202.512545 259.336121 
L 202.588636 259.036238 
L 203.273455 256.344386 
L 203.349545 257.854749 
L 203.425636 257.556602 
L 203.501727 257.258614 
L 203.806091 261.527187 
L 204.186545 260.042811 
L 204.262636 261.577039 
L 204.338727 261.280802 
L 204.643091 260.097455 
L 204.719182 263.479735 
L 204.795273 263.184459 
L 205.023545 262.299595 
L 205.404 268.249344 
L 205.860545 266.488808 
L 205.936636 268.065 
L 206.012727 267.772306 
L 206.088818 267.479774 
L 206.164909 269.061942 
L 206.241 268.769735 
L 206.393182 268.185809 
L 206.469273 269.774116 
L 206.545364 269.48256 
L 206.621455 269.191166 
L 206.697545 270.785451 
L 206.773636 270.494384 
L 207.001909 269.622161 
L 207.078 271.222751 
L 207.154091 270.932501 
L 207.991091 267.750562 
L 208.067182 269.358775 
L 208.143273 269.070658 
L 208.295455 268.494919 
L 208.447636 271.729295 
L 208.523727 271.442003 
L 208.828091 270.294487 
L 209.056364 273.266998 
L 210.121636 269.278546 
L 210.273818 272.564798 
L 210.349909 272.28149 
L 210.882545 270.303011 
L 210.958636 271.955958 
L 211.034727 271.674154 
L 211.871727 268.585378 
L 211.947818 270.245995 
L 212.023909 269.966372 
L 212.556545 268.01373 
L 212.708727 271.35463 
L 212.784818 271.076692 
L 213.089182 269.966628 
L 213.165273 271.646409 
L 213.241364 271.369484 
L 214.534909 266.68766 
L 214.611 268.376148 
L 214.687091 268.102442 
L 215.143636 266.463773 
L 215.219727 268.159109 
L 215.295818 267.886763 
L 215.524091 267.070744 
L 215.600182 270.751251 
L 215.676273 270.479756 
L 217.806818 262.947114 
L 217.882909 264.664888 
L 217.959 264.398513 
L 218.948182 260.951203 
L 219.024273 262.677033 
L 219.100364 262.413225 
L 219.633 260.571366 
L 219.709091 262.304227 
L 219.785182 262.041961 
L 220.622182 259.168349 
L 220.698273 260.908927 
L 220.774364 260.64889 
L 221.535273 258.057951 
L 221.611364 259.806077 
L 221.687455 259.548098 
L 222.067909 258.260776 
L 222.296182 261.519462 
L 222.752727 259.983423 
L 222.828818 261.750761 
L 222.904909 261.495526 
L 222.981 261.240463 
L 223.057091 263.013805 
L 223.133182 262.759085 
L 223.437545 261.74192 
L 223.513636 263.521779 
L 223.589727 263.268088 
L 223.741909 262.76122 
L 223.818 264.547255 
L 223.894091 264.294249 
L 225.111545 260.26947 
L 225.187636 262.064078 
L 225.263727 261.814157 
L 225.492 261.06542 
L 225.568091 262.866374 
L 225.644182 262.617308 
L 226.861636 258.655528 
L 227.089909 262.034413 
L 228.003 259.097932 
L 228.079091 262.993138 
L 228.155182 262.749711 
L 228.687818 261.050492 
L 228.763909 262.886064 
L 228.84 262.64417 
L 229.981364 259.036177 
L 230.285727 264.346344 
L 230.590091 263.393385 
L 230.666182 265.255161 
L 230.742273 265.017514 
L 231.579273 262.414584 
L 231.655364 264.28405 
L 231.731455 264.048605 
L 231.959727 263.343282 
L 232.188 266.866109 
L 232.416273 266.163826 
L 232.492364 268.051618 
L 232.568455 267.818029 
L 232.644545 267.58461 
L 232.720636 269.478396 
L 232.796727 269.245314 
L 233.633727 266.69252 
L 234.014182 274.101926 
L 235.307727 270.21092 
L 235.612091 275.782332 
L 237.438273 270.387274 
L 237.514364 272.335507 
L 237.590455 272.112955 
L 237.742636 271.668347 
L 237.818727 273.622732 
L 237.894818 273.400842 
L 237.970909 273.179117 
L 238.047 275.139487 
L 238.123091 274.918093 
L 239.873182 269.871531 
L 239.949273 271.841506 
L 240.025364 271.624227 
L 240.481909 270.323991 
L 240.558 272.300765 
L 240.634091 272.084795 
L 240.710182 271.868989 
L 240.938455 275.624831 
L 241.547182 273.908167 
L 241.623273 275.903691 
L 241.699364 275.690004 
L 242.612455 273.138416 
L 242.764636 279.376478 
L 242.916818 278.954129 
L 243.677727 276.852068 
L 243.753818 278.874079 
L 243.829909 278.664921 
L 245.732182 273.488045 
L 245.884364 277.557336 
L 245.960455 277.352656 
L 247.862727 272.287128 
L 247.938818 274.334356 
L 248.014909 274.133944 
L 248.395364 273.134237 
L 248.623636 277.048358 
L 248.699727 276.849357 
L 248.775818 278.914778 
L 248.851909 278.71609 
L 251.210727 272.63393 
L 251.286818 274.709963 
L 251.362909 274.516394 
L 251.895545 273.165723 
L 252.199909 279.239486 
L 253.417364 276.190185 
L 253.493455 278.292609 
L 253.569545 278.103473 
L 254.406545 276.032978 
L 254.482636 278.142858 
L 254.558727 277.955689 
L 257.450182 270.954199 
L 257.526273 273.075538 
L 257.602364 272.894335 
L 258.591545 270.552091 
L 258.667636 272.681125 
L 258.743727 272.502127 
L 259.961182 269.657994 
L 260.037273 271.79514 
L 260.113364 271.618762 
L 261.102545 269.33901 
L 261.178636 271.48381 
L 261.254727 271.309597 
L 261.939545 269.748131 
L 262.015636 271.899997 
L 262.091727 271.727359 
L 263.994 267.457575 
L 264.070091 269.618756 
L 264.146182 269.449942 
L 264.222273 269.281268 
L 264.298364 271.448359 
L 264.374455 271.279966 
L 266.961545 265.637475 
L 267.037636 267.815053 
L 267.113727 267.651654 
L 267.342 267.16228 
L 267.418091 269.346032 
L 267.494182 269.183319 
L 267.570273 269.020742 
L 267.646364 271.210393 
L 267.722455 271.048089 
L 269.244273 267.83056 
L 269.320364 272.391756 
L 269.396455 272.232435 
L 270.537818 269.858727 
L 270.613909 272.070109 
L 270.69 271.913065 
L 270.842182 271.599376 
L 270.918273 273.816779 
L 270.994364 273.660267 
L 271.298727 273.035547 
L 271.374818 275.259235 
L 271.450909 275.103519 
L 274.342364 269.283549 
L 274.418455 271.517955 
L 274.494545 271.367464 
L 274.875 270.61694 
L 274.951091 272.857736 
L 275.027182 272.708145 
L 279.744818 263.680626 
L 280.581818 262.128924 
L 280.657909 264.384598 
L 280.734 264.24439 
L 280.810091 264.104304 
L 280.886182 266.365834 
L 280.962273 266.225991 
L 282.636273 263.180063 
L 282.712364 265.449978 
L 282.788455 265.313031 
L 282.864545 265.176202 
L 282.940636 267.451965 
L 283.016727 267.315376 
L 287.734364 259.076465 
L 287.810455 258.947226 
L 287.886545 261.236063 
L 287.962636 261.107052 
L 288.267 260.592148 
L 288.343091 262.887156 
L 288.419182 262.758827 
L 290.017091 260.089971 
L 290.093182 262.393055 
L 290.169273 262.267312 
L 291.462818 260.146652 
L 291.538909 262.45733 
L 291.615 262.333689 
L 291.843273 261.963426 
L 291.919364 264.280142 
L 291.995455 264.157049 
L 295.267364 258.966515 
L 295.343455 261.293567 
L 295.419545 261.175318 
L 297.169636 258.48462 
L 297.397909 263.045014 
L 297.474 262.929592 
L 297.550091 265.276148 
L 297.626182 265.160934 
L 298.843636 263.331513 
L 298.919727 265.685409 
L 298.995818 265.572044 
L 299.452364 264.893993 
L 299.528455 269.732534 
L 299.604545 269.619983 
L 299.832818 274.256088 
L 302.115545 270.935332 
L 302.191636 273.320992 
L 302.267727 273.211941 
L 302.419909 272.994136 
L 302.648182 277.674252 
L 305.235273 274.041211 
L 305.311364 276.447321 
L 305.387455 276.34225 
L 308.050636 272.724368 
L 308.126727 275.139451 
L 308.202818 275.037862 
L 309.800727 272.925772 
L 309.952909 277.776725 
L 310.029 277.677339 
L 314.518364 271.97188 
L 314.594455 274.41105 
L 314.670545 274.317073 
L 314.898818 274.03566 
L 314.974909 276.480751 
L 315.051 276.387205 
L 319.996909 270.488161 
L 320.073 272.944358 
L 320.149091 272.856424 
L 325.095 267.312247 
L 330.117 262.015808 
L 333.845455 258.28977 
L 333.921545 260.765198 
L 333.997636 260.690995 
L 338.487 256.434262 
L 338.563091 258.919322 
L 338.639182 258.849259 
L 340.693636 256.982325 
L 340.769727 259.474767 
L 340.845818 259.406596 
L 346.096091 254.855143 
L 349.139727 252.34978 
L 349.215818 254.854526 
L 349.291909 254.793162 
L 353.705182 251.332149 
L 353.781273 253.845795 
L 353.857364 253.787839 
L 354.161727 253.556566 
L 354.237818 256.076032 
L 354.313909 256.018407 
L 354.998727 255.502245 
L 355.074818 258.027803 
L 355.150909 257.970779 
L 356.140091 257.234406 
L 356.216182 259.766264 
L 356.292273 259.710051 
L 359.335909 257.505046 
L 359.412 260.044608 
L 359.488091 259.990609 
L 361.923 258.289644 
L 361.999091 260.836427 
L 362.075182 260.784158 
L 367.705909 257.052185 
L 367.934182 256.906413 
L 368.010273 259.462508 
L 368.086364 259.414058 
L 368.619 259.076207 
L 368.695091 261.638209 
L 368.771182 261.590177 
L 368.847273 261.54219 
L 368.923364 264.10982 
L 368.999455 264.061926 
L 373.260545 261.452158 
L 373.336636 264.027882 
L 373.412727 263.982591 
L 374.249727 263.487264 
L 374.325818 266.069042 
L 374.401909 266.024316 
L 378.434727 263.714572 
L 378.510818 266.304157 
L 378.586909 266.261745 
L 381.478364 264.680119 
L 381.554455 269.919819 
L 381.630545 269.879018 
L 383.608909 268.831928 
L 383.685 271.440684 
L 383.761091 271.400975 
L 387.337364 269.577394 
L 387.413455 272.193484 
L 387.489545 272.155618 
L 390.533182 270.670723 
L 390.609273 273.293818 
L 390.685364 273.257465 
L 396.468273 270.595608 
L 396.544364 273.226852 
L 396.620455 273.193157 
L 397.990091 272.592217 
L 398.066182 275.229601 
L 398.142273 275.196555 
L 403.620818 272.900034 
L 403.696909 275.54521 
L 403.773 275.514467 
L 405.751364 274.725583 
L 405.827455 277.377079 
L 405.903545 277.347165 
L 412.903909 274.716523 
L 418.762909 272.689825 
L 418.839 275.351426 
L 418.915091 275.326123 
L 422.263091 274.237032 
L 422.339182 276.90524 
L 422.415273 276.881054 
L 430.100455 274.556695 
L 437.481273 272.531553 
L 437.557364 275.209573 
L 437.633455 275.189706 
L 444.177273 273.552327 
L 444.177273 273.552327 
" clip-path="url(#pb3c6adc804)" style="fill: none; stroke: #ff7f0e; stroke-width: 2.5; stroke-linecap: square"/>
   </g>
   <g id="text_14">
    <!-- Variance Difference vs Time ($|n=1\rangle$, $U=0$, $\gamma=1$) -->
    <g transform="translate(86.03 19.28) scale(0.16 -0.16)">
     <defs>
      <path id="STIXGeneral-Regular-44" d="M 102 4237 
L 1830 4237 
Q 3078 4237 3750 3654 
Q 4384 3110 4384 2138 
Q 4384 966 3514 410 
Q 2880 0 1901 0 
L 102 0 
L 102 122 
Q 474 147 570 252 
Q 666 358 666 736 
L 666 3520 
Q 666 3891 570 3990 
Q 474 4090 102 4115 
L 102 4237 
z
M 1318 3731 
L 1318 538 
Q 1318 365 1379 301 
Q 1440 237 1626 237 
Q 2125 237 2432 307 
Q 2739 378 3021 570 
Q 3686 1018 3686 2099 
Q 3686 3027 3078 3558 
Q 2803 3802 2476 3901 
Q 2150 4000 1658 4000 
Q 1472 4000 1395 3942 
Q 1318 3885 1318 3731 
z
" transform="scale(0.015625)"/>
      <path id="STIXGeneral-Regular-76" d="M 3053 2880 
L 3053 2784 
Q 2906 2771 2835 2688 
Q 2765 2605 2637 2285 
L 1818 230 
Q 1690 -90 1638 -90 
Q 1587 -90 1523 77 
Q 1510 96 1497 141 
Q 1485 186 1472 211 
L 704 2048 
Q 499 2534 403 2652 
Q 307 2771 122 2784 
L 122 2880 
L 1376 2880 
L 1376 2784 
Q 1210 2771 1146 2732 
Q 1082 2694 1082 2611 
Q 1082 2509 1139 2368 
L 1792 730 
L 2426 2387 
Q 2464 2483 2464 2579 
Q 2464 2758 2163 2784 
L 2163 2880 
L 3053 2880 
z
" transform="scale(0.015625)"/>
      <path id="STIXGeneral-Regular-73" d="M 998 1926 
L 1664 1523 
Q 1984 1331 2105 1164 
Q 2227 998 2227 736 
Q 2227 416 1961 176 
Q 1696 -64 1331 -64 
Q 1030 -64 864 -6 
Q 691 51 570 51 
Q 461 51 416 -26 
L 333 -26 
L 333 979 
L 435 979 
Q 538 512 730 294 
Q 922 77 1248 77 
Q 1485 77 1632 211 
Q 1779 346 1779 550 
Q 1779 845 1440 1030 
L 1094 1222 
Q 326 1651 326 2150 
Q 326 2522 566 2730 
Q 806 2938 1210 2938 
Q 1491 2938 1638 2867 
Q 1754 2816 1818 2816 
Q 1862 2816 1920 2880 
L 1990 2880 
L 2022 2010 
L 1926 2010 
Q 1818 2445 1654 2621 
Q 1491 2797 1203 2797 
Q 986 2797 854 2688 
Q 723 2579 723 2362 
Q 723 2253 796 2128 
Q 870 2003 998 1926 
z
" transform="scale(0.015625)"/>
      <path id="STIXGeneral-Regular-54" d="M 3795 3149 
L 3642 3149 
Q 3539 3674 3353 3821 
Q 3168 3968 2656 3968 
L 2278 3968 
L 2278 710 
Q 2278 346 2387 243 
Q 2496 141 2893 122 
L 2893 0 
L 1024 0 
L 1024 122 
Q 1427 147 1526 256 
Q 1626 365 1626 787 
L 1626 3968 
L 1242 3968 
Q 723 3968 540 3817 
Q 358 3667 262 3149 
L 109 3149 
L 154 4237 
L 3750 4237 
L 3795 3149 
z
" transform="scale(0.015625)"/>
      <path id="STIXGeneral-Regular-28" d="M 1946 -1030 
L 1869 -1133 
Q 1126 -710 716 32 
Q 307 774 307 1613 
Q 307 3386 1888 4326 
L 1946 4224 
Q 1293 3667 1075 3126 
Q 858 2586 858 1632 
Q 858 685 1082 96 
Q 1306 -493 1946 -1030 
z
" transform="scale(0.015625)"/>
      <path id="Cmsy10-6a" d="M 763 -1484 
L 763 4684 
Q 763 4734 800 4767 
Q 838 4800 891 4800 
Q 938 4800 978 4767 
Q 1019 4734 1019 4684 
L 1019 -1484 
Q 1019 -1534 978 -1567 
Q 938 -1600 891 -1600 
Q 838 -1600 800 -1567 
Q 763 -1534 763 -1484 
z
" transform="scale(0.015625)"/>
      <path id="Cmmi10-6e" d="M 494 109 
Q 494 147 500 166 
L 978 2075 
Q 1025 2253 1025 2388 
Q 1025 2663 838 2663 
Q 638 2663 541 2423 
Q 444 2184 353 1819 
Q 353 1800 334 1789 
Q 316 1778 300 1778 
L 225 1778 
Q 203 1778 187 1801 
Q 172 1825 172 1844 
Q 241 2122 305 2315 
Q 369 2509 505 2668 
Q 641 2828 844 2828 
Q 1084 2828 1268 2676 
Q 1453 2525 1453 2291 
Q 1644 2541 1900 2684 
Q 2156 2828 2444 2828 
Q 2672 2828 2837 2750 
Q 3003 2672 3095 2514 
Q 3188 2356 3188 2138 
Q 3188 1875 3070 1503 
Q 2953 1131 2778 672 
Q 2688 463 2688 288 
Q 2688 97 2834 97 
Q 3084 97 3251 365 
Q 3419 634 3488 941 
Q 3500 978 3541 978 
L 3616 978 
Q 3641 978 3658 962 
Q 3675 947 3675 922 
Q 3675 916 3669 903 
Q 3581 541 3364 234 
Q 3147 -72 2822 -72 
Q 2597 -72 2437 83 
Q 2278 238 2278 459 
Q 2278 578 2328 709 
Q 2409 919 2514 1209 
Q 2619 1500 2686 1765 
Q 2753 2031 2753 2234 
Q 2753 2413 2679 2538 
Q 2606 2663 2431 2663 
Q 2197 2663 2000 2559 
Q 1803 2456 1656 2286 
Q 1509 2116 1388 1881 
L 953 141 
Q 931 53 854 -9 
Q 778 -72 684 -72 
Q 606 -72 550 -22 
Q 494 28 494 109 
z
" transform="scale(0.015625)"/>
      <path id="Cmr10-3d" d="M 481 850 
Q 428 850 393 890 
Q 359 931 359 978 
Q 359 1031 393 1068 
Q 428 1106 481 1106 
L 4500 1106 
Q 4547 1106 4581 1068 
Q 4616 1031 4616 978 
Q 4616 931 4581 890 
Q 4547 850 4500 850 
L 481 850 
z
M 481 2094 
Q 428 2094 393 2131 
Q 359 2169 359 2222 
Q 359 2269 393 2309 
Q 428 2350 481 2350 
L 4500 2350 
Q 4547 2350 4581 2309 
Q 4616 2269 4616 2222 
Q 4616 2169 4581 2131 
Q 4547 2094 4500 2094 
L 481 2094 
z
" transform="scale(0.015625)"/>
      <path id="Cmr10-31" d="M 594 0 
L 594 225 
Q 1394 225 1394 428 
L 1394 3788 
Q 1063 3628 556 3628 
L 556 3853 
Q 1341 3853 1741 4263 
L 1831 4263 
Q 1853 4263 1873 4245 
Q 1894 4228 1894 4206 
L 1894 428 
Q 1894 225 2694 225 
L 2694 0 
L 594 0 
z
" transform="scale(0.015625)"/>
      <path id="Cmex10-ae" d="M 500 -7297 
Q 500 -7263 513 -7250 
L 2119 -3584 
L 513 84 
Q 500 97 500 128 
Q 500 175 537 215 
Q 575 256 628 256 
Q 703 256 750 178 
L 2381 -3541 
Q 2388 -3553 2388 -3584 
Q 2388 -3616 2381 -3634 
L 750 -7347 
Q 700 -7425 628 -7425 
Q 575 -7425 537 -7384 
Q 500 -7344 500 -7297 
z
" transform="scale(0.015625)"/>
      <path id="STIXGeneral-Regular-2c" d="M 531 -902 
L 467 -781 
Q 998 -422 998 -96 
Q 998 -13 909 -13 
Q 883 -13 822 -25 
Q 762 -38 723 -38 
Q 352 -38 352 288 
Q 352 454 457 553 
Q 563 653 736 653 
Q 954 653 1101 496 
Q 1248 339 1248 96 
Q 1248 -198 1053 -473 
Q 858 -749 531 -902 
z
" transform="scale(0.015625)"/>
      <path id="Cmmi10-55" d="M 941 891 
Q 941 656 1033 472 
Q 1125 288 1300 186 
Q 1475 84 1709 84 
Q 1984 84 2245 196 
Q 2506 309 2715 509 
Q 2925 709 3073 965 
Q 3222 1222 3284 1472 
L 3859 3781 
Q 3872 3850 3872 3878 
Q 3872 4147 3378 4147 
Q 3316 4147 3316 4231 
Q 3338 4313 3350 4342 
Q 3363 4372 3425 4372 
L 4813 4372 
Q 4841 4372 4859 4344 
Q 4878 4316 4878 4288 
Q 4878 4284 4865 4239 
Q 4853 4194 4836 4170 
Q 4819 4147 4794 4147 
Q 4181 4147 4084 3756 
L 3506 1447 
Q 3434 1147 3264 864 
Q 3094 581 2845 351 
Q 2597 122 2298 -9 
Q 2000 -141 1691 -141 
Q 1338 -141 1045 14 
Q 753 169 587 447 
Q 422 725 422 1088 
Q 422 1297 469 1472 
L 1088 3956 
Q 1100 4019 1100 4044 
Q 1100 4113 1025 4122 
Q 903 4147 563 4147 
Q 500 4147 500 4231 
Q 522 4313 534 4342 
Q 547 4372 609 4372 
L 2328 4372 
Q 2394 4372 2394 4288 
Q 2391 4272 2381 4234 
Q 2372 4197 2356 4172 
Q 2341 4147 2309 4147 
Q 1919 4147 1766 4103 
Q 1681 4072 1644 3928 
L 1025 1447 
Q 941 1109 941 891 
z
" transform="scale(0.015625)"/>
      <path id="Cmr10-30" d="M 1600 -141 
Q 816 -141 533 504 
Q 250 1150 250 2041 
Q 250 2597 351 3087 
Q 453 3578 754 3920 
Q 1056 4263 1600 4263 
Q 2022 4263 2290 4056 
Q 2559 3850 2700 3523 
Q 2841 3197 2892 2823 
Q 2944 2450 2944 2041 
Q 2944 1491 2842 1011 
Q 2741 531 2444 195 
Q 2147 -141 1600 -141 
z
M 1600 25 
Q 1956 25 2131 390 
Q 2306 756 2347 1200 
Q 2388 1644 2388 2144 
Q 2388 2625 2347 3031 
Q 2306 3438 2132 3767 
Q 1959 4097 1600 4097 
Q 1238 4097 1063 3765 
Q 888 3434 847 3029 
Q 806 2625 806 2144 
Q 806 1788 823 1472 
Q 841 1156 916 820 
Q 991 484 1158 254 
Q 1325 25 1600 25 
z
" transform="scale(0.015625)"/>
      <path id="STIXGeneral-Regular-29" d="M 186 4224 
L 262 4326 
Q 992 3891 1408 3148 
Q 1824 2406 1824 1581 
Q 1824 -166 243 -1133 
L 186 -1030 
Q 845 -486 1059 54 
Q 1274 595 1274 1562 
Q 1274 2534 1059 3120 
Q 845 3706 186 4224 
z
" transform="scale(0.015625)"/>
     </defs>
     <use xlink:href="#STIXGeneral-Regular-56" transform="translate(0 0.658854)"/>
     <use xlink:href="#STIXGeneral-Regular-61" transform="translate(72.199982 0.658854)"/>
     <use xlink:href="#STIXGeneral-Regular-72" transform="translate(116.599976 0.658854)"/>
     <use xlink:href="#STIXGeneral-Regular-69" transform="translate(149.899963 0.658854)"/>
     <use xlink:href="#STIXGeneral-Regular-61" transform="translate(177.699951 0.658854)"/>
     <use xlink:href="#STIXGeneral-Regular-6e" transform="translate(222.099945 0.658854)"/>
     <use xlink:href="#STIXGeneral-Regular-63" transform="translate(272.09993 0.658854)"/>
     <use xlink:href="#STIXGeneral-Regular-65" transform="translate(316.499924 0.658854)"/>
     <use xlink:href="#STIXGeneral-Regular-20" transform="translate(360.899918 0.658854)"/>
     <use xlink:href="#STIXGeneral-Regular-44" transform="translate(385.899902 0.658854)"/>
     <use xlink:href="#STIXGeneral-Regular-69" transform="translate(458.099884 0.658854)"/>
     <use xlink:href="#STIXGeneral-Regular-66" transform="translate(485.899872 0.658854)"/>
     <use xlink:href="#STIXGeneral-Regular-66" transform="translate(519.19986 0.658854)"/>
     <use xlink:href="#STIXGeneral-Regular-65" transform="translate(552.499847 0.658854)"/>
     <use xlink:href="#STIXGeneral-Regular-72" transform="translate(596.899841 0.658854)"/>
     <use xlink:href="#STIXGeneral-Regular-65" transform="translate(630.199829 0.658854)"/>
     <use xlink:href="#STIXGeneral-Regular-6e" transform="translate(674.599823 0.658854)"/>
     <use xlink:href="#STIXGeneral-Regular-63" transform="translate(724.599808 0.658854)"/>
     <use xlink:href="#STIXGeneral-Regular-65" transform="translate(768.999802 0.658854)"/>
     <use xlink:href="#STIXGeneral-Regular-20" transform="translate(813.399796 0.658854)"/>
     <use xlink:href="#STIXGeneral-Regular-76" transform="translate(838.39978 0.658854)"/>
     <use xlink:href="#STIXGeneral-Regular-73" transform="translate(888.399765 0.658854)"/>
     <use xlink:href="#STIXGeneral-Regular-20" transform="translate(927.299759 0.658854)"/>
     <use xlink:href="#STIXGeneral-Regular-54" transform="translate(952.299744 0.658854)"/>
     <use xlink:href="#STIXGeneral-Regular-69" transform="translate(1013.399734 0.658854)"/>
     <use xlink:href="#STIXGeneral-Regular-6d" transform="translate(1041.199722 0.658854)"/>
     <use xlink:href="#STIXGeneral-Regular-65" transform="translate(1118.99971 0.658854)"/>
     <use xlink:href="#STIXGeneral-Regular-20" transform="translate(1163.399704 0.658854)"/>
     <use xlink:href="#STIXGeneral-Regular-28" transform="translate(1188.399689 0.658854)"/>
     <use xlink:href="#Cmsy10-6a" transform="translate(1221.699677 0.658854)"/>
     <use xlink:href="#Cmmi10-6e" transform="translate(1249.385223 0.658854)"/>
     <use xlink:href="#Cmr10-3d" transform="translate(1326.953583 0.658854)"/>
     <use xlink:href="#Cmr10-31" transform="translate(1422.197723 0.658854)"/>
     <use xlink:href="#Cmex10-ae" transform="translate(1472.197723 94)"/>
     <use xlink:href="#STIXGeneral-Regular-2c" transform="translate(1519.41452 0.658854)"/>
     <use xlink:href="#STIXGeneral-Regular-20" transform="translate(1544.414505 0.658854)"/>
     <use xlink:href="#Cmmi10-55" transform="translate(1569.41449 0.658854)"/>
     <use xlink:href="#Cmr10-3d" transform="translate(1655.185974 0.658854)"/>
     <use xlink:href="#Cmr10-30" transform="translate(1750.430115 0.658854)"/>
     <use xlink:href="#STIXGeneral-Regular-2c" transform="translate(1800.430115 0.658854)"/>
     <use xlink:href="#STIXGeneral-Regular-20" transform="translate(1825.430099 0.658854)"/>
     <use xlink:href="#Cmmi10-b0" transform="translate(1850.430084 0.658854)"/>
     <use xlink:href="#Cmr10-3d" transform="translate(1919.697662 0.658854)"/>
     <use xlink:href="#Cmr10-31" transform="translate(2014.941803 0.658854)"/>
     <use xlink:href="#STIXGeneral-Regular-29" transform="translate(2064.941803 0.658854)"/>
    </g>
   </g>
   <g id="line2d_113">
    <path d="M 63.722727 276.965064 
L 444.177273 276.965157 
L 444.177273 276.965157 
" clip-path="url(#pb3c6adc804)" style="fill: none; stroke: #1f77b4; stroke-width: 2.6; stroke-linecap: square"/>
   </g>
   <g id="legend_1">
    <g id="line2d_114">
     <path d="M 355.585625 39.03 
L 366.585625 39.03 
L 377.585625 39.03 
" style="fill: none; stroke: #1f77b4; stroke-width: 2.6; stroke-linecap: square"/>
    </g>
    <g id="text_15">
     <!-- Density Matrix -->
     <g transform="translate(386.385625 42.88) scale(0.11 -0.11)">
      <defs>
       <path id="STIXGeneral-Regular-79" d="M 3040 2880 
L 3040 2784 
Q 2925 2771 2854 2700 
Q 2784 2630 2720 2458 
L 1760 -160 
Q 1510 -838 1257 -1116 
Q 1005 -1395 640 -1395 
Q 435 -1395 313 -1289 
Q 192 -1184 192 -1024 
Q 192 -902 272 -816 
Q 352 -730 467 -730 
Q 653 -730 800 -813 
Q 883 -858 966 -858 
Q 1101 -858 1286 -576 
Q 1376 -448 1459 -211 
Q 1542 26 1542 115 
Q 1542 198 1274 762 
L 429 2566 
Q 346 2752 90 2790 
L 90 2880 
L 1402 2880 
L 1402 2784 
Q 1197 2778 1117 2739 
Q 1037 2701 1037 2611 
Q 1037 2541 1120 2349 
L 1837 749 
L 2458 2515 
Q 2483 2573 2483 2630 
Q 2483 2784 2189 2784 
L 2189 2880 
L 3040 2880 
z
" transform="scale(0.015625)"/>
       <path id="STIXGeneral-Regular-4d" d="M 5530 0 
L 3738 0 
L 3738 122 
Q 4115 147 4214 265 
Q 4314 384 4314 787 
L 4314 3661 
L 2682 0 
L 2592 0 
L 979 3514 
L 979 966 
Q 979 448 1088 294 
Q 1197 141 1574 122 
L 1574 0 
L 77 0 
L 77 122 
Q 358 141 480 205 
Q 602 269 650 432 
Q 698 595 698 966 
L 698 3514 
Q 698 3878 589 3984 
Q 480 4090 90 4115 
L 90 4237 
L 1357 4237 
L 2835 1024 
L 4250 4237 
L 5523 4237 
L 5523 4115 
Q 5178 4109 5072 3993 
Q 4966 3878 4966 3520 
L 4966 717 
Q 4966 378 5072 262 
Q 5178 147 5530 122 
L 5530 0 
z
" transform="scale(0.015625)"/>
      </defs>
      <use xlink:href="#STIXGeneral-Regular-44"/>
      <use xlink:href="#STIXGeneral-Regular-65" transform="translate(72.199982 0)"/>
      <use xlink:href="#STIXGeneral-Regular-6e" transform="translate(116.599976 0)"/>
      <use xlink:href="#STIXGeneral-Regular-73" transform="translate(166.59996 0)"/>
      <use xlink:href="#STIXGeneral-Regular-69" transform="translate(205.499954 0)"/>
      <use xlink:href="#STIXGeneral-Regular-74" transform="translate(233.299942 0)"/>
      <use xlink:href="#STIXGeneral-Regular-79" transform="translate(261.09993 0)"/>
      <use xlink:href="#STIXGeneral-Regular-20" transform="translate(311.099915 0)"/>
      <use xlink:href="#STIXGeneral-Regular-4d" transform="translate(336.099899 0)"/>
      <use xlink:href="#STIXGeneral-Regular-61" transform="translate(424.999893 0)"/>
      <use xlink:href="#STIXGeneral-Regular-74" transform="translate(469.399887 0)"/>
      <use xlink:href="#STIXGeneral-Regular-72" transform="translate(497.199875 0)"/>
      <use xlink:href="#STIXGeneral-Regular-69" transform="translate(530.499863 0)"/>
      <use xlink:href="#STIXGeneral-Regular-78" transform="translate(558.29985 0)"/>
     </g>
    </g>
    <g id="line2d_115">
     <path d="M 355.585625 54.627656 
L 366.585625 54.627656 
L 377.585625 54.627656 
" style="fill: none; stroke: #ff7f0e; stroke-width: 2.5; stroke-linecap: square"/>
    </g>
    <g id="text_16">
     <!-- Monte Carlo -->
     <g transform="translate(386.385625 58.477656) scale(0.11 -0.11)">
      <defs>
       <path id="STIXGeneral-Regular-43" d="M 3930 838 
L 4051 723 
Q 3482 -90 2304 -90 
Q 1376 -90 794 480 
Q 179 1082 179 2080 
Q 179 3014 755 3661 
Q 1357 4326 2310 4326 
Q 2720 4326 3072 4230 
Q 3475 4115 3514 4115 
Q 3725 4115 3782 4326 
L 3910 4326 
L 3968 2874 
L 3821 2874 
Q 3718 3334 3488 3584 
Q 3034 4070 2458 4070 
Q 1747 4070 1334 3548 
Q 922 3027 922 2182 
Q 922 1152 1382 653 
Q 1811 192 2522 192 
Q 2944 192 3251 339 
Q 3558 486 3930 838 
z
" transform="scale(0.015625)"/>
       <path id="STIXGeneral-Regular-6c" d="M 1645 0 
L 134 0 
L 134 96 
Q 435 122 531 221 
Q 627 320 627 589 
L 627 3590 
Q 627 3821 569 3910 
Q 512 4000 358 4000 
Q 224 4000 122 3987 
L 122 4090 
Q 730 4237 1133 4371 
L 1165 4346 
L 1165 557 
Q 1165 288 1254 201 
Q 1344 115 1645 96 
L 1645 0 
z
" transform="scale(0.015625)"/>
      </defs>
      <use xlink:href="#STIXGeneral-Regular-4d"/>
      <use xlink:href="#STIXGeneral-Regular-6f" transform="translate(88.899994 0)"/>
      <use xlink:href="#STIXGeneral-Regular-6e" transform="translate(138.899979 0)"/>
      <use xlink:href="#STIXGeneral-Regular-74" transform="translate(188.899963 0)"/>
      <use xlink:href="#STIXGeneral-Regular-65" transform="translate(216.699951 0)"/>
      <use xlink:href="#STIXGeneral-Regular-20" transform="translate(261.099945 0)"/>
      <use xlink:href="#STIXGeneral-Regular-43" transform="translate(286.09993 0)"/>
      <use xlink:href="#STIXGeneral-Regular-61" transform="translate(352.799927 0)"/>
      <use xlink:href="#STIXGeneral-Regular-72" transform="translate(397.199921 0)"/>
      <use xlink:href="#STIXGeneral-Regular-6c" transform="translate(430.499908 0)"/>
      <use xlink:href="#STIXGeneral-Regular-6f" transform="translate(458.299896 0)"/>
     </g>
    </g>
    <g id="line2d_116">
     <path d="M 355.585625 70.215 
L 366.585625 70.215 
L 377.585625 70.215 
" style="fill: none; stroke: #2ca02c; stroke-width: 2.7; stroke-linecap: square"/>
    </g>
    <g id="text_17">
     <!-- Positive-P -->
     <g transform="translate(386.385625 74.065) scale(0.11 -0.11)">
      <defs>
       <path id="STIXGeneral-Regular-50" d="M 102 4237 
L 1760 4237 
Q 2669 4237 3149 3834 
Q 3469 3565 3469 3072 
Q 3469 2560 3104 2234 
Q 2835 1990 2553 1916 
Q 2272 1843 1734 1843 
Q 1549 1843 1293 1862 
L 1293 717 
Q 1293 352 1398 246 
Q 1504 141 1894 122 
L 1894 0 
L 102 0 
L 102 122 
Q 474 147 557 256 
Q 640 365 640 781 
L 640 3526 
Q 640 3885 547 3987 
Q 454 4090 102 4115 
L 102 4237 
z
M 1293 3770 
L 1293 2118 
Q 1510 2099 1683 2099 
Q 2202 2099 2486 2352 
Q 2771 2605 2771 3040 
Q 2771 3558 2476 3779 
Q 2182 4000 1517 4000 
Q 1382 4000 1337 3952 
Q 1293 3904 1293 3770 
z
" transform="scale(0.015625)"/>
       <path id="STIXGeneral-Regular-2d" d="M 1824 1242 
L 250 1242 
L 250 1645 
L 1824 1645 
L 1824 1242 
z
" transform="scale(0.015625)"/>
      </defs>
      <use xlink:href="#STIXGeneral-Regular-50"/>
      <use xlink:href="#STIXGeneral-Regular-6f" transform="translate(55.699997 0)"/>
      <use xlink:href="#STIXGeneral-Regular-73" transform="translate(105.699982 0)"/>
      <use xlink:href="#STIXGeneral-Regular-69" transform="translate(144.599976 0)"/>
      <use xlink:href="#STIXGeneral-Regular-74" transform="translate(172.399963 0)"/>
      <use xlink:href="#STIXGeneral-Regular-69" transform="translate(200.199951 0)"/>
      <use xlink:href="#STIXGeneral-Regular-76" transform="translate(227.999939 0)"/>
      <use xlink:href="#STIXGeneral-Regular-65" transform="translate(277.999924 0)"/>
      <use xlink:href="#STIXGeneral-Regular-2d" transform="translate(322.399918 0)"/>
      <use xlink:href="#STIXGeneral-Regular-50" transform="translate(355.699905 0)"/>
     </g>
    </g>
   </g>
  </g>
 </g>
 <defs>
  <clipPath id="pb3c6adc804">
   <rect x="44.7" y="25.28" width="418.5" height="288.288"/>
  </clipPath>
 </defs>
</svg>
