<?xml version="1.0" encoding="utf-8" standalone="no"?>
<!DOCTYPE svg PUBLIC "-//W3C//DTD SVG 1.1//EN"
  "http://www.w3.org/Graphics/SVG/1.1/DTD/svg11.dtd">
<svg xmlns:xlink="http://www.w3.org/1999/xlink" width="475.08pt" height="359.263625pt" viewBox="0 0 475.08 359.263625" xmlns="http://www.w3.org/2000/svg" version="1.1">
 <metadata>
  <rdf:RDF xmlns:dc="http://purl.org/dc/elements/1.1/" xmlns:cc="http://creativecommons.org/ns#" xmlns:rdf="http://www.w3.org/1999/02/22-rdf-syntax-ns#">
   <cc:Work>
    <dc:type rdf:resource="http://purl.org/dc/dcmitype/StillImage"/>
    <dc:date>2026-04-18T22:57:22.330215</dc:date>
    <dc:format>image/svg+xml</dc:format>
    <dc:creator>
     <cc:Agent>
      <dc:title>Matplotlib v3.10.8, https://matplotlib.org/</dc:title>
     </cc:Agent>
    </dc:creator>
   </cc:Work>
  </rdf:RDF>
 </metadata>
 <defs>
  <style type="text/css">*{stroke-linejoin: round; stroke-linecap: butt}</style>
 </defs>
 <g id="figure_1">
  <g id="patch_1">
   <path d="M 0 359.263625 
L 475.08 359.263625 
L 475.08 0 
L 0 0 
z
" style="fill: #ffffff"/>
  </g>
  <g id="axes_1">
   <g id="patch_2">
    <path d="M 52.98 324.763625 
L 471.48 324.763625 
L 471.48 36.475625 
L 52.98 36.475625 
z
" style="fill: #ffffff"/>
   </g>
   <g id="matplotlib.axis_1">
    <g id="xtick_1">
     <g id="line2d_1">
      <path d="M 72.002727 324.763625 
L 72.002727 36.475625 
" clip-path="url(#p99104f2d5a)" style="fill: none; stroke: #b0b0b0; stroke-opacity: 0.35; stroke-width: 0.5; stroke-linecap: square"/>
     </g>
     <g id="line2d_2">
      <defs>
       <path id="mc8e662583e" d="M 0 0 
L 0 -3 
" style="stroke: #000000; stroke-width: 0.5"/>
      </defs>
      <g>
       <use xlink:href="#mc8e662583e" x="72.002727" y="324.763625" style="stroke: #000000; stroke-width: 0.5"/>
      </g>
     </g>
     <g id="line2d_3">
      <defs>
       <path id="m9b81d952fb" d="M 0 0 
L 0 3 
" style="stroke: #000000; stroke-width: 0.5"/>
      </defs>
      <g>
       <use xlink:href="#m9b81d952fb" x="72.002727" y="36.475625" style="stroke: #000000; stroke-width: 0.5"/>
      </g>
     </g>
     <g id="text_1">
      <!-- $\mathdefault{0}$ -->
      <g transform="translate(69.002727 336.45925) scale(0.12 -0.12)">
       <defs>
        <path id="STIXGeneral-Regular-30" d="M 3046 2112 
Q 3046 1683 2963 1302 
Q 2880 922 2717 602 
Q 2554 282 2266 96 
Q 1978 -90 1600 -90 
Q 1210 -90 915 108 
Q 621 307 461 640 
Q 301 973 227 1350 
Q 154 1728 154 2150 
Q 154 2746 301 3222 
Q 448 3699 790 4012 
Q 1133 4326 1626 4326 
Q 2253 4326 2649 3712 
Q 3046 3098 3046 2112 
z
M 2432 2080 
Q 2432 3091 2217 3625 
Q 2003 4160 1587 4160 
Q 1190 4160 979 3622 
Q 768 3085 768 2106 
Q 768 1120 979 598 
Q 1190 77 1600 77 
Q 2003 77 2217 598 
Q 2432 1120 2432 2080 
z
" transform="scale(0.015625)"/>
       </defs>
       <use xlink:href="#STIXGeneral-Regular-30" transform="translate(0 0.40625)"/>
      </g>
     </g>
    </g>
    <g id="xtick_2">
     <g id="line2d_4">
      <path d="M 148.093636 324.763625 
L 148.093636 36.475625 
" clip-path="url(#p99104f2d5a)" style="fill: none; stroke: #b0b0b0; stroke-opacity: 0.35; stroke-width: 0.5; stroke-linecap: square"/>
     </g>
     <g id="line2d_5">
      <g>
       <use xlink:href="#mc8e662583e" x="148.093636" y="324.763625" style="stroke: #000000; stroke-width: 0.5"/>
      </g>
     </g>
     <g id="line2d_6">
      <g>
       <use xlink:href="#m9b81d952fb" x="148.093636" y="36.475625" style="stroke: #000000; stroke-width: 0.5"/>
      </g>
     </g>
     <g id="text_2">
      <!-- $\mathdefault{1}$ -->
      <g transform="translate(145.093636 336.45925) scale(0.12 -0.12)">
       <defs>
        <path id="STIXGeneral-Regular-31" d="M 2522 0 
L 755 0 
L 755 96 
Q 1107 115 1235 227 
Q 1363 339 1363 608 
L 1363 3482 
Q 1363 3795 1171 3795 
Q 1082 3795 883 3718 
L 710 3654 
L 710 3744 
L 1856 4326 
L 1914 4307 
L 1914 486 
Q 1914 275 2042 185 
Q 2170 96 2522 96 
L 2522 0 
z
" transform="scale(0.015625)"/>
       </defs>
       <use xlink:href="#STIXGeneral-Regular-31" transform="translate(0 0.40625)"/>
      </g>
     </g>
    </g>
    <g id="xtick_3">
     <g id="line2d_7">
      <path d="M 224.184545 324.763625 
L 224.184545 36.475625 
" clip-path="url(#p99104f2d5a)" style="fill: none; stroke: #b0b0b0; stroke-opacity: 0.35; stroke-width: 0.5; stroke-linecap: square"/>
     </g>
     <g id="line2d_8">
      <g>
       <use xlink:href="#mc8e662583e" x="224.184545" y="324.763625" style="stroke: #000000; stroke-width: 0.5"/>
      </g>
     </g>
     <g id="line2d_9">
      <g>
       <use xlink:href="#m9b81d952fb" x="224.184545" y="36.475625" style="stroke: #000000; stroke-width: 0.5"/>
      </g>
     </g>
     <g id="text_3">
      <!-- $\mathdefault{2}$ -->
      <g transform="translate(221.184545 336.45925) scale(0.12 -0.12)">
       <defs>
        <path id="STIXGeneral-Regular-32" d="M 3034 877 
L 2688 0 
L 186 0 
L 186 77 
L 1325 1286 
Q 1773 1754 1965 2144 
Q 2157 2534 2157 2950 
Q 2157 3379 1920 3616 
Q 1683 3853 1267 3853 
Q 922 3853 720 3673 
Q 518 3494 326 3021 
L 192 3053 
Q 301 3648 630 3987 
Q 960 4326 1523 4326 
Q 2054 4326 2380 4006 
Q 2707 3686 2707 3200 
Q 2707 2477 1888 1613 
L 832 486 
L 2330 486 
Q 2541 486 2665 569 
Q 2790 653 2944 915 
L 3034 877 
z
" transform="scale(0.015625)"/>
       </defs>
       <use xlink:href="#STIXGeneral-Regular-32" transform="translate(0 0.40625)"/>
      </g>
     </g>
    </g>
    <g id="xtick_4">
     <g id="line2d_10">
      <path d="M 300.275455 324.763625 
L 300.275455 36.475625 
" clip-path="url(#p99104f2d5a)" style="fill: none; stroke: #b0b0b0; stroke-opacity: 0.35; stroke-width: 0.5; stroke-linecap: square"/>
     </g>
     <g id="line2d_11">
      <g>
       <use xlink:href="#mc8e662583e" x="300.275455" y="324.763625" style="stroke: #000000; stroke-width: 0.5"/>
      </g>
     </g>
     <g id="line2d_12">
      <g>
       <use xlink:href="#m9b81d952fb" x="300.275455" y="36.475625" style="stroke: #000000; stroke-width: 0.5"/>
      </g>
     </g>
     <g id="text_4">
      <!-- $\mathdefault{3}$ -->
      <g transform="translate(297.275455 336.45925) scale(0.12 -0.12)">
       <defs>
        <path id="STIXGeneral-Regular-33" d="M 390 3264 
L 288 3290 
Q 435 3770 748 4048 
Q 1062 4326 1542 4326 
Q 1990 4326 2265 4083 
Q 2541 3840 2541 3450 
Q 2541 2925 1946 2566 
Q 2298 2413 2477 2227 
Q 2758 1914 2758 1402 
Q 2758 890 2464 506 
Q 2246 211 1840 60 
Q 1434 -90 979 -90 
Q 262 -90 262 275 
Q 262 378 339 442 
Q 416 506 525 506 
Q 685 506 915 339 
Q 1197 141 1466 141 
Q 1818 141 2058 425 
Q 2298 710 2298 1120 
Q 2298 1856 1632 2048 
Q 1434 2112 979 2112 
L 979 2202 
Q 1338 2323 1517 2432 
Q 2035 2726 2035 3290 
Q 2035 3610 1852 3776 
Q 1670 3942 1344 3942 
Q 768 3942 390 3264 
z
" transform="scale(0.015625)"/>
       </defs>
       <use xlink:href="#STIXGeneral-Regular-33" transform="translate(0 0.40625)"/>
      </g>
     </g>
    </g>
    <g id="xtick_5">
     <g id="line2d_13">
      <path d="M 376.366364 324.763625 
L 376.366364 36.475625 
" clip-path="url(#p99104f2d5a)" style="fill: none; stroke: #b0b0b0; stroke-opacity: 0.35; stroke-width: 0.5; stroke-linecap: square"/>
     </g>
     <g id="line2d_14">
      <g>
       <use xlink:href="#mc8e662583e" x="376.366364" y="324.763625" style="stroke: #000000; stroke-width: 0.5"/>
      </g>
     </g>
     <g id="line2d_15">
      <g>
       <use xlink:href="#m9b81d952fb" x="376.366364" y="36.475625" style="stroke: #000000; stroke-width: 0.5"/>
      </g>
     </g>
     <g id="text_5">
      <!-- $\mathdefault{4}$ -->
      <g transform="translate(373.366364 336.45925) scale(0.12 -0.12)">
       <defs>
        <path id="STIXGeneral-Regular-34" d="M 3027 1069 
L 2368 1069 
L 2368 0 
L 1869 0 
L 1869 1069 
L 77 1069 
L 77 1478 
L 2086 4326 
L 2368 4326 
L 2368 1478 
L 3027 1478 
L 3027 1069 
z
M 1869 1478 
L 1869 3674 
L 333 1478 
L 1869 1478 
z
" transform="scale(0.015625)"/>
       </defs>
       <use xlink:href="#STIXGeneral-Regular-34" transform="translate(0 0.40625)"/>
      </g>
     </g>
    </g>
    <g id="xtick_6">
     <g id="line2d_16">
      <path d="M 452.457273 324.763625 
L 452.457273 36.475625 
" clip-path="url(#p99104f2d5a)" style="fill: none; stroke: #b0b0b0; stroke-opacity: 0.35; stroke-width: 0.5; stroke-linecap: square"/>
     </g>
     <g id="line2d_17">
      <g>
       <use xlink:href="#mc8e662583e" x="452.457273" y="324.763625" style="stroke: #000000; stroke-width: 0.5"/>
      </g>
     </g>
     <g id="line2d_18">
      <g>
       <use xlink:href="#m9b81d952fb" x="452.457273" y="36.475625" style="stroke: #000000; stroke-width: 0.5"/>
      </g>
     </g>
     <g id="text_6">
      <!-- $\mathdefault{5}$ -->
      <g transform="translate(449.457273 336.45925) scale(0.12 -0.12)">
       <defs>
        <path id="STIXGeneral-Regular-35" d="M 2803 4358 
L 2573 3814 
Q 2534 3731 2400 3731 
L 1158 3731 
L 902 3187 
Q 1606 3053 1920 2896 
Q 2234 2739 2502 2368 
Q 2726 2061 2726 1555 
Q 2726 1094 2576 780 
Q 2426 467 2099 224 
Q 1664 -90 1011 -90 
Q 646 -90 422 19 
Q 198 128 198 307 
Q 198 550 486 550 
Q 717 550 960 352 
Q 1210 147 1414 147 
Q 1747 147 2012 480 
Q 2278 813 2278 1229 
Q 2278 1843 1850 2189 
Q 1293 2637 486 2637 
Q 410 2637 410 2688 
L 416 2720 
L 1114 4237 
L 2438 4237 
Q 2547 4237 2608 4269 
Q 2669 4301 2746 4403 
L 2803 4358 
z
" transform="scale(0.015625)"/>
       </defs>
       <use xlink:href="#STIXGeneral-Regular-35" transform="translate(0 0.203125)"/>
      </g>
     </g>
    </g>
    <g id="xtick_7">
     <g id="line2d_19">
      <defs>
       <path id="m60f7bca602" d="M 0 0 
L 0 -1.5 
" style="stroke: #000000; stroke-width: 0.5"/>
      </defs>
      <g>
       <use xlink:href="#m60f7bca602" x="56.784545" y="324.763625" style="stroke: #000000; stroke-width: 0.5"/>
      </g>
     </g>
     <g id="line2d_20">
      <defs>
       <path id="m0d5aa7a610" d="M 0 0 
L 0 1.5 
" style="stroke: #000000; stroke-width: 0.5"/>
      </defs>
      <g>
       <use xlink:href="#m0d5aa7a610" x="56.784545" y="36.475625" style="stroke: #000000; stroke-width: 0.5"/>
      </g>
     </g>
    </g>
    <g id="xtick_8">
     <g id="line2d_21">
      <g>
       <use xlink:href="#m60f7bca602" x="87.220909" y="324.763625" style="stroke: #000000; stroke-width: 0.5"/>
      </g>
     </g>
     <g id="line2d_22">
      <g>
       <use xlink:href="#m0d5aa7a610" x="87.220909" y="36.475625" style="stroke: #000000; stroke-width: 0.5"/>
      </g>
     </g>
    </g>
    <g id="xtick_9">
     <g id="line2d_23">
      <g>
       <use xlink:href="#m60f7bca602" x="102.439091" y="324.763625" style="stroke: #000000; stroke-width: 0.5"/>
      </g>
     </g>
     <g id="line2d_24">
      <g>
       <use xlink:href="#m0d5aa7a610" x="102.439091" y="36.475625" style="stroke: #000000; stroke-width: 0.5"/>
      </g>
     </g>
    </g>
    <g id="xtick_10">
     <g id="line2d_25">
      <g>
       <use xlink:href="#m60f7bca602" x="117.657273" y="324.763625" style="stroke: #000000; stroke-width: 0.5"/>
      </g>
     </g>
     <g id="line2d_26">
      <g>
       <use xlink:href="#m0d5aa7a610" x="117.657273" y="36.475625" style="stroke: #000000; stroke-width: 0.5"/>
      </g>
     </g>
    </g>
    <g id="xtick_11">
     <g id="line2d_27">
      <g>
       <use xlink:href="#m60f7bca602" x="132.875455" y="324.763625" style="stroke: #000000; stroke-width: 0.5"/>
      </g>
     </g>
     <g id="line2d_28">
      <g>
       <use xlink:href="#m0d5aa7a610" x="132.875455" y="36.475625" style="stroke: #000000; stroke-width: 0.5"/>
      </g>
     </g>
    </g>
    <g id="xtick_12">
     <g id="line2d_29">
      <g>
       <use xlink:href="#m60f7bca602" x="163.311818" y="324.763625" style="stroke: #000000; stroke-width: 0.5"/>
      </g>
     </g>
     <g id="line2d_30">
      <g>
       <use xlink:href="#m0d5aa7a610" x="163.311818" y="36.475625" style="stroke: #000000; stroke-width: 0.5"/>
      </g>
     </g>
    </g>
    <g id="xtick_13">
     <g id="line2d_31">
      <g>
       <use xlink:href="#m60f7bca602" x="178.53" y="324.763625" style="stroke: #000000; stroke-width: 0.5"/>
      </g>
     </g>
     <g id="line2d_32">
      <g>
       <use xlink:href="#m0d5aa7a610" x="178.53" y="36.475625" style="stroke: #000000; stroke-width: 0.5"/>
      </g>
     </g>
    </g>
    <g id="xtick_14">
     <g id="line2d_33">
      <g>
       <use xlink:href="#m60f7bca602" x="193.748182" y="324.763625" style="stroke: #000000; stroke-width: 0.5"/>
      </g>
     </g>
     <g id="line2d_34">
      <g>
       <use xlink:href="#m0d5aa7a610" x="193.748182" y="36.475625" style="stroke: #000000; stroke-width: 0.5"/>
      </g>
     </g>
    </g>
    <g id="xtick_15">
     <g id="line2d_35">
      <g>
       <use xlink:href="#m60f7bca602" x="208.966364" y="324.763625" style="stroke: #000000; stroke-width: 0.5"/>
      </g>
     </g>
     <g id="line2d_36">
      <g>
       <use xlink:href="#m0d5aa7a610" x="208.966364" y="36.475625" style="stroke: #000000; stroke-width: 0.5"/>
      </g>
     </g>
    </g>
    <g id="xtick_16">
     <g id="line2d_37">
      <g>
       <use xlink:href="#m60f7bca602" x="239.402727" y="324.763625" style="stroke: #000000; stroke-width: 0.5"/>
      </g>
     </g>
     <g id="line2d_38">
      <g>
       <use xlink:href="#m0d5aa7a610" x="239.402727" y="36.475625" style="stroke: #000000; stroke-width: 0.5"/>
      </g>
     </g>
    </g>
    <g id="xtick_17">
     <g id="line2d_39">
      <g>
       <use xlink:href="#m60f7bca602" x="254.620909" y="324.763625" style="stroke: #000000; stroke-width: 0.5"/>
      </g>
     </g>
     <g id="line2d_40">
      <g>
       <use xlink:href="#m0d5aa7a610" x="254.620909" y="36.475625" style="stroke: #000000; stroke-width: 0.5"/>
      </g>
     </g>
    </g>
    <g id="xtick_18">
     <g id="line2d_41">
      <g>
       <use xlink:href="#m60f7bca602" x="269.839091" y="324.763625" style="stroke: #000000; stroke-width: 0.5"/>
      </g>
     </g>
     <g id="line2d_42">
      <g>
       <use xlink:href="#m0d5aa7a610" x="269.839091" y="36.475625" style="stroke: #000000; stroke-width: 0.5"/>
      </g>
     </g>
    </g>
    <g id="xtick_19">
     <g id="line2d_43">
      <g>
       <use xlink:href="#m60f7bca602" x="285.057273" y="324.763625" style="stroke: #000000; stroke-width: 0.5"/>
      </g>
     </g>
     <g id="line2d_44">
      <g>
       <use xlink:href="#m0d5aa7a610" x="285.057273" y="36.475625" style="stroke: #000000; stroke-width: 0.5"/>
      </g>
     </g>
    </g>
    <g id="xtick_20">
     <g id="line2d_45">
      <g>
       <use xlink:href="#m60f7bca602" x="315.493636" y="324.763625" style="stroke: #000000; stroke-width: 0.5"/>
      </g>
     </g>
     <g id="line2d_46">
      <g>
       <use xlink:href="#m0d5aa7a610" x="315.493636" y="36.475625" style="stroke: #000000; stroke-width: 0.5"/>
      </g>
     </g>
    </g>
    <g id="xtick_21">
     <g id="line2d_47">
      <g>
       <use xlink:href="#m60f7bca602" x="330.711818" y="324.763625" style="stroke: #000000; stroke-width: 0.5"/>
      </g>
     </g>
     <g id="line2d_48">
      <g>
       <use xlink:href="#m0d5aa7a610" x="330.711818" y="36.475625" style="stroke: #000000; stroke-width: 0.5"/>
      </g>
     </g>
    </g>
    <g id="xtick_22">
     <g id="line2d_49">
      <g>
       <use xlink:href="#m60f7bca602" x="345.93" y="324.763625" style="stroke: #000000; stroke-width: 0.5"/>
      </g>
     </g>
     <g id="line2d_50">
      <g>
       <use xlink:href="#m0d5aa7a610" x="345.93" y="36.475625" style="stroke: #000000; stroke-width: 0.5"/>
      </g>
     </g>
    </g>
    <g id="xtick_23">
     <g id="line2d_51">
      <g>
       <use xlink:href="#m60f7bca602" x="361.148182" y="324.763625" style="stroke: #000000; stroke-width: 0.5"/>
      </g>
     </g>
     <g id="line2d_52">
      <g>
       <use xlink:href="#m0d5aa7a610" x="361.148182" y="36.475625" style="stroke: #000000; stroke-width: 0.5"/>
      </g>
     </g>
    </g>
    <g id="xtick_24">
     <g id="line2d_53">
      <g>
       <use xlink:href="#m60f7bca602" x="391.584545" y="324.763625" style="stroke: #000000; stroke-width: 0.5"/>
      </g>
     </g>
     <g id="line2d_54">
      <g>
       <use xlink:href="#m0d5aa7a610" x="391.584545" y="36.475625" style="stroke: #000000; stroke-width: 0.5"/>
      </g>
     </g>
    </g>
    <g id="xtick_25">
     <g id="line2d_55">
      <g>
       <use xlink:href="#m60f7bca602" x="406.802727" y="324.763625" style="stroke: #000000; stroke-width: 0.5"/>
      </g>
     </g>
     <g id="line2d_56">
      <g>
       <use xlink:href="#m0d5aa7a610" x="406.802727" y="36.475625" style="stroke: #000000; stroke-width: 0.5"/>
      </g>
     </g>
    </g>
    <g id="xtick_26">
     <g id="line2d_57">
      <g>
       <use xlink:href="#m60f7bca602" x="422.020909" y="324.763625" style="stroke: #000000; stroke-width: 0.5"/>
      </g>
     </g>
     <g id="line2d_58">
      <g>
       <use xlink:href="#m0d5aa7a610" x="422.020909" y="36.475625" style="stroke: #000000; stroke-width: 0.5"/>
      </g>
     </g>
    </g>
    <g id="xtick_27">
     <g id="line2d_59">
      <g>
       <use xlink:href="#m60f7bca602" x="437.239091" y="324.763625" style="stroke: #000000; stroke-width: 0.5"/>
      </g>
     </g>
     <g id="line2d_60">
      <g>
       <use xlink:href="#m0d5aa7a610" x="437.239091" y="36.475625" style="stroke: #000000; stroke-width: 0.5"/>
      </g>
     </g>
    </g>
    <g id="xtick_28">
     <g id="line2d_61">
      <g>
       <use xlink:href="#m60f7bca602" x="467.675455" y="324.763625" style="stroke: #000000; stroke-width: 0.5"/>
      </g>
     </g>
     <g id="line2d_62">
      <g>
       <use xlink:href="#m0d5aa7a610" x="467.675455" y="36.475625" style="stroke: #000000; stroke-width: 0.5"/>
      </g>
     </g>
    </g>
    <g id="text_7">
     <!-- Time -->
     <g transform="translate(247.453438 352.625188) scale(0.14 -0.14)">
      <defs>
       <path id="STIXGeneral-Regular-54" d="M 3795 3149 
L 3642 3149 
Q 3539 3674 3353 3821 
Q 3168 3968 2656 3968 
L 2278 3968 
L 2278 710 
Q 2278 346 2387 243 
Q 2496 141 2893 122 
L 2893 0 
L 1024 0 
L 1024 122 
Q 1427 147 1526 256 
Q 1626 365 1626 787 
L 1626 3968 
L 1242 3968 
Q 723 3968 540 3817 
Q 358 3667 262 3149 
L 109 3149 
L 154 4237 
L 3750 4237 
L 3795 3149 
z
" transform="scale(0.015625)"/>
       <path id="STIXGeneral-Regular-69" d="M 1152 4045 
Q 1152 3904 1056 3811 
Q 960 3718 819 3718 
Q 685 3718 592 3811 
Q 499 3904 499 4045 
Q 499 4179 595 4275 
Q 691 4371 826 4371 
Q 966 4371 1059 4275 
Q 1152 4179 1152 4045 
z
M 1619 0 
L 102 0 
L 102 96 
Q 435 115 521 211 
Q 608 307 608 666 
L 608 2118 
Q 608 2342 563 2432 
Q 518 2522 397 2522 
Q 243 2522 128 2490 
L 128 2592 
L 1120 2944 
L 1146 2918 
L 1146 672 
Q 1146 314 1226 218 
Q 1306 122 1619 96 
L 1619 0 
z
" transform="scale(0.015625)"/>
       <path id="STIXGeneral-Regular-6d" d="M 4960 0 
L 3565 0 
L 3565 96 
Q 3834 122 3907 208 
Q 3981 294 3981 576 
L 3981 1894 
Q 3981 2278 3869 2444 
Q 3757 2611 3488 2611 
Q 3264 2611 3107 2521 
Q 2950 2432 2803 2221 
L 2803 608 
Q 2803 301 2896 201 
Q 2989 102 3264 96 
L 3264 0 
L 1830 0 
L 1830 96 
Q 2112 115 2189 188 
Q 2266 262 2266 550 
L 2266 1901 
Q 2266 2611 1850 2611 
Q 1670 2611 1468 2531 
Q 1267 2451 1171 2336 
Q 1088 2240 1088 2227 
L 1088 448 
Q 1088 243 1177 176 
Q 1267 109 1523 96 
L 1523 0 
L 102 0 
L 102 96 
Q 371 102 460 195 
Q 550 288 550 563 
L 550 2150 
Q 550 2387 499 2480 
Q 448 2573 326 2573 
Q 230 2573 122 2547 
L 122 2656 
Q 557 2778 1011 2944 
L 1062 2925 
L 1062 2451 
L 1075 2451 
Q 1363 2752 1584 2848 
Q 1805 2944 2054 2944 
Q 2560 2944 2733 2406 
Q 3232 2944 3776 2944 
Q 4518 2944 4518 1792 
L 4518 493 
Q 4518 282 4582 202 
Q 4646 122 4794 109 
L 4960 96 
L 4960 0 
z
" transform="scale(0.015625)"/>
       <path id="STIXGeneral-Regular-65" d="M 2611 1050 
L 2714 1005 
Q 2330 -64 1376 -64 
Q 813 -64 486 329 
Q 160 723 160 1389 
Q 160 2074 525 2509 
Q 890 2944 1485 2944 
Q 2061 2944 2374 2502 
Q 2560 2246 2592 1773 
L 621 1773 
Q 646 1370 700 1158 
Q 755 947 915 730 
Q 1184 378 1626 378 
Q 1939 378 2153 531 
Q 2368 685 2611 1050 
z
M 634 1978 
L 1939 1978 
Q 1882 2381 1750 2547 
Q 1619 2714 1312 2714 
Q 1043 2714 864 2525 
Q 685 2336 634 1978 
z
" transform="scale(0.015625)"/>
      </defs>
      <use xlink:href="#STIXGeneral-Regular-54"/>
      <use xlink:href="#STIXGeneral-Regular-69" transform="translate(61.099991 0)"/>
      <use xlink:href="#STIXGeneral-Regular-6d" transform="translate(88.899979 0)"/>
      <use xlink:href="#STIXGeneral-Regular-65" transform="translate(166.699966 0)"/>
     </g>
    </g>
   </g>
   <g id="matplotlib.axis_2">
    <g id="ytick_1">
     <g id="line2d_63">
      <path d="M 52.98 324.6875 
L 471.48 324.6875 
" clip-path="url(#p99104f2d5a)" style="fill: none; stroke: #b0b0b0; stroke-opacity: 0.35; stroke-width: 0.5; stroke-linecap: square"/>
     </g>
     <g id="line2d_64">
      <defs>
       <path id="mf876aa1aa1" d="M 0 0 
L 3 0 
" style="stroke: #000000; stroke-width: 0.5"/>
      </defs>
      <g>
       <use xlink:href="#mf876aa1aa1" x="52.98" y="324.6875" style="stroke: #000000; stroke-width: 0.5"/>
      </g>
     </g>
     <g id="line2d_65">
      <defs>
       <path id="m89c559bc63" d="M 0 0 
L -3 0 
" style="stroke: #000000; stroke-width: 0.5"/>
      </defs>
      <g>
       <use xlink:href="#m89c559bc63" x="471.48" y="324.6875" style="stroke: #000000; stroke-width: 0.5"/>
      </g>
     </g>
     <g id="text_8">
      <!-- $\mathdefault{−1.00}$ -->
      <g transform="translate(20.2 328.798938) scale(0.12 -0.12)">
       <defs>
        <path id="STIXGeneral-Regular-2212" d="M 3974 1408 
L 410 1408 
L 410 1830 
L 3974 1830 
L 3974 1408 
z
" transform="scale(0.015625)"/>
        <path id="STIXGeneral-Regular-2e" d="M 1158 275 
Q 1158 134 1052 32 
Q 947 -70 800 -70 
Q 653 -70 550 32 
Q 448 134 448 281 
Q 448 429 553 534 
Q 659 640 806 640 
Q 947 640 1052 531 
Q 1158 422 1158 275 
z
" transform="scale(0.015625)"/>
       </defs>
       <use xlink:href="#STIXGeneral-Regular-2212" transform="translate(0 0.40625)"/>
       <use xlink:href="#STIXGeneral-Regular-31" transform="translate(68.499985 0.40625)"/>
       <use xlink:href="#STIXGeneral-Regular-2e" transform="translate(118.499969 0.40625)"/>
       <use xlink:href="#STIXGeneral-Regular-30" transform="translate(143.499954 0.40625)"/>
       <use xlink:href="#STIXGeneral-Regular-30" transform="translate(193.499939 0.40625)"/>
      </g>
     </g>
    </g>
    <g id="ytick_2">
     <g id="line2d_66">
      <path d="M 52.98 288.6875 
L 471.48 288.6875 
" clip-path="url(#p99104f2d5a)" style="fill: none; stroke: #b0b0b0; stroke-opacity: 0.35; stroke-width: 0.5; stroke-linecap: square"/>
     </g>
     <g id="line2d_67">
      <g>
       <use xlink:href="#mf876aa1aa1" x="52.98" y="288.6875" style="stroke: #000000; stroke-width: 0.5"/>
      </g>
     </g>
     <g id="line2d_68">
      <g>
       <use xlink:href="#m89c559bc63" x="471.48" y="288.6875" style="stroke: #000000; stroke-width: 0.5"/>
      </g>
     </g>
     <g id="text_9">
      <!-- $\mathdefault{−0.75}$ -->
      <g transform="translate(20.2 292.798938) scale(0.12 -0.12)">
       <defs>
        <path id="STIXGeneral-Regular-37" d="M 2874 4134 
L 1517 -51 
L 1101 -51 
L 2368 3763 
L 992 3763 
Q 717 3763 582 3667 
Q 448 3571 243 3238 
L 128 3296 
L 512 4237 
L 2874 4237 
L 2874 4134 
z
" transform="scale(0.015625)"/>
       </defs>
       <use xlink:href="#STIXGeneral-Regular-2212" transform="translate(0 0.203125)"/>
       <use xlink:href="#STIXGeneral-Regular-30" transform="translate(68.499985 0.203125)"/>
       <use xlink:href="#STIXGeneral-Regular-2e" transform="translate(118.499969 0.203125)"/>
       <use xlink:href="#STIXGeneral-Regular-37" transform="translate(143.499954 0.203125)"/>
       <use xlink:href="#STIXGeneral-Regular-35" transform="translate(193.499939 0.203125)"/>
      </g>
     </g>
    </g>
    <g id="ytick_3">
     <g id="line2d_69">
      <path d="M 52.98 252.65625 
L 471.48 252.65625 
" clip-path="url(#p99104f2d5a)" style="fill: none; stroke: #b0b0b0; stroke-opacity: 0.35; stroke-width: 0.5; stroke-linecap: square"/>
     </g>
     <g id="line2d_70">
      <g>
       <use xlink:href="#mf876aa1aa1" x="52.98" y="252.65625" style="stroke: #000000; stroke-width: 0.5"/>
      </g>
     </g>
     <g id="line2d_71">
      <g>
       <use xlink:href="#m89c559bc63" x="471.48" y="252.65625" style="stroke: #000000; stroke-width: 0.5"/>
      </g>
     </g>
     <g id="text_10">
      <!-- $\mathdefault{−0.50}$ -->
      <g transform="translate(20.2 256.767688) scale(0.12 -0.12)">
       <use xlink:href="#STIXGeneral-Regular-2212" transform="translate(0 0.203125)"/>
       <use xlink:href="#STIXGeneral-Regular-30" transform="translate(68.499985 0.203125)"/>
       <use xlink:href="#STIXGeneral-Regular-2e" transform="translate(118.499969 0.203125)"/>
       <use xlink:href="#STIXGeneral-Regular-35" transform="translate(143.499954 0.203125)"/>
       <use xlink:href="#STIXGeneral-Regular-30" transform="translate(193.499939 0.203125)"/>
      </g>
     </g>
    </g>
    <g id="ytick_4">
     <g id="line2d_72">
      <path d="M 52.98 216.625 
L 471.48 216.625 
" clip-path="url(#p99104f2d5a)" style="fill: none; stroke: #b0b0b0; stroke-opacity: 0.35; stroke-width: 0.5; stroke-linecap: square"/>
     </g>
     <g id="line2d_73">
      <g>
       <use xlink:href="#mf876aa1aa1" x="52.98" y="216.625" style="stroke: #000000; stroke-width: 0.5"/>
      </g>
     </g>
     <g id="line2d_74">
      <g>
       <use xlink:href="#m89c559bc63" x="471.48" y="216.625" style="stroke: #000000; stroke-width: 0.5"/>
      </g>
     </g>
     <g id="text_11">
      <!-- $\mathdefault{−0.25}$ -->
      <g transform="translate(20.2 220.736438) scale(0.12 -0.12)">
       <use xlink:href="#STIXGeneral-Regular-2212" transform="translate(0 0.203125)"/>
       <use xlink:href="#STIXGeneral-Regular-30" transform="translate(68.499985 0.203125)"/>
       <use xlink:href="#STIXGeneral-Regular-2e" transform="translate(118.499969 0.203125)"/>
       <use xlink:href="#STIXGeneral-Regular-32" transform="translate(143.499954 0.203125)"/>
       <use xlink:href="#STIXGeneral-Regular-35" transform="translate(193.499939 0.203125)"/>
      </g>
     </g>
    </g>
    <g id="ytick_5">
     <g id="line2d_75">
      <path d="M 52.98 180.59375 
L 471.48 180.59375 
" clip-path="url(#p99104f2d5a)" style="fill: none; stroke: #b0b0b0; stroke-opacity: 0.35; stroke-width: 0.5; stroke-linecap: square"/>
     </g>
     <g id="line2d_76">
      <g>
       <use xlink:href="#mf876aa1aa1" x="52.98" y="180.59375" style="stroke: #000000; stroke-width: 0.5"/>
      </g>
     </g>
     <g id="line2d_77">
      <g>
       <use xlink:href="#m89c559bc63" x="471.48" y="180.59375" style="stroke: #000000; stroke-width: 0.5"/>
      </g>
     </g>
     <g id="text_12">
      <!-- $\mathdefault{0.00}$ -->
      <g transform="translate(28.48 184.705188) scale(0.12 -0.12)">
       <use xlink:href="#STIXGeneral-Regular-30" transform="translate(0 0.40625)"/>
       <use xlink:href="#STIXGeneral-Regular-2e" transform="translate(49.999985 0.40625)"/>
       <use xlink:href="#STIXGeneral-Regular-30" transform="translate(74.999969 0.40625)"/>
       <use xlink:href="#STIXGeneral-Regular-30" transform="translate(124.999954 0.40625)"/>
      </g>
     </g>
    </g>
    <g id="ytick_6">
     <g id="line2d_78">
      <path d="M 52.98 144.59375 
L 471.48 144.59375 
" clip-path="url(#p99104f2d5a)" style="fill: none; stroke: #b0b0b0; stroke-opacity: 0.35; stroke-width: 0.5; stroke-linecap: square"/>
     </g>
     <g id="line2d_79">
      <g>
       <use xlink:href="#mf876aa1aa1" x="52.98" y="144.59375" style="stroke: #000000; stroke-width: 0.5"/>
      </g>
     </g>
     <g id="line2d_80">
      <g>
       <use xlink:href="#m89c559bc63" x="471.48" y="144.59375" style="stroke: #000000; stroke-width: 0.5"/>
      </g>
     </g>
     <g id="text_13">
      <!-- $\mathdefault{0.25}$ -->
      <g transform="translate(28.48 148.705188) scale(0.12 -0.12)">
       <use xlink:href="#STIXGeneral-Regular-30" transform="translate(0 0.203125)"/>
       <use xlink:href="#STIXGeneral-Regular-2e" transform="translate(49.999985 0.203125)"/>
       <use xlink:href="#STIXGeneral-Regular-32" transform="translate(74.999969 0.203125)"/>
       <use xlink:href="#STIXGeneral-Regular-35" transform="translate(124.999954 0.203125)"/>
      </g>
     </g>
    </g>
    <g id="ytick_7">
     <g id="line2d_81">
      <path d="M 52.98 108.5625 
L 471.48 108.5625 
" clip-path="url(#p99104f2d5a)" style="fill: none; stroke: #b0b0b0; stroke-opacity: 0.35; stroke-width: 0.5; stroke-linecap: square"/>
     </g>
     <g id="line2d_82">
      <g>
       <use xlink:href="#mf876aa1aa1" x="52.98" y="108.5625" style="stroke: #000000; stroke-width: 0.5"/>
      </g>
     </g>
     <g id="line2d_83">
      <g>
       <use xlink:href="#m89c559bc63" x="471.48" y="108.5625" style="stroke: #000000; stroke-width: 0.5"/>
      </g>
     </g>
     <g id="text_14">
      <!-- $\mathdefault{0.50}$ -->
      <g transform="translate(28.48 112.673938) scale(0.12 -0.12)">
       <use xlink:href="#STIXGeneral-Regular-30" transform="translate(0 0.203125)"/>
       <use xlink:href="#STIXGeneral-Regular-2e" transform="translate(49.999985 0.203125)"/>
       <use xlink:href="#STIXGeneral-Regular-35" transform="translate(74.999969 0.203125)"/>
       <use xlink:href="#STIXGeneral-Regular-30" transform="translate(124.999954 0.203125)"/>
      </g>
     </g>
    </g>
    <g id="ytick_8">
     <g id="line2d_84">
      <path d="M 52.98 72.53125 
L 471.48 72.53125 
" clip-path="url(#p99104f2d5a)" style="fill: none; stroke: #b0b0b0; stroke-opacity: 0.35; stroke-width: 0.5; stroke-linecap: square"/>
     </g>
     <g id="line2d_85">
      <g>
       <use xlink:href="#mf876aa1aa1" x="52.98" y="72.53125" style="stroke: #000000; stroke-width: 0.5"/>
      </g>
     </g>
     <g id="line2d_86">
      <g>
       <use xlink:href="#m89c559bc63" x="471.48" y="72.53125" style="stroke: #000000; stroke-width: 0.5"/>
      </g>
     </g>
     <g id="text_15">
      <!-- $\mathdefault{0.75}$ -->
      <g transform="translate(28.48 76.642688) scale(0.12 -0.12)">
       <use xlink:href="#STIXGeneral-Regular-30" transform="translate(0 0.203125)"/>
       <use xlink:href="#STIXGeneral-Regular-2e" transform="translate(49.999985 0.203125)"/>
       <use xlink:href="#STIXGeneral-Regular-37" transform="translate(74.999969 0.203125)"/>
       <use xlink:href="#STIXGeneral-Regular-35" transform="translate(124.999954 0.203125)"/>
      </g>
     </g>
    </g>
    <g id="ytick_9">
     <g id="line2d_87">
      <path d="M 52.98 36.5 
L 471.48 36.5 
" clip-path="url(#p99104f2d5a)" style="fill: none; stroke: #b0b0b0; stroke-opacity: 0.35; stroke-width: 0.5; stroke-linecap: square"/>
     </g>
     <g id="line2d_88">
      <g>
       <use xlink:href="#mf876aa1aa1" x="52.98" y="36.5" style="stroke: #000000; stroke-width: 0.5"/>
      </g>
     </g>
     <g id="line2d_89">
      <g>
       <use xlink:href="#m89c559bc63" x="471.48" y="36.5" style="stroke: #000000; stroke-width: 0.5"/>
      </g>
     </g>
     <g id="text_16">
      <!-- $\mathdefault{1.00}$ -->
      <g transform="translate(28.48 40.611438) scale(0.12 -0.12)">
       <use xlink:href="#STIXGeneral-Regular-31" transform="translate(0 0.40625)"/>
       <use xlink:href="#STIXGeneral-Regular-2e" transform="translate(49.999985 0.40625)"/>
       <use xlink:href="#STIXGeneral-Regular-30" transform="translate(74.999969 0.40625)"/>
       <use xlink:href="#STIXGeneral-Regular-30" transform="translate(124.999954 0.40625)"/>
      </g>
     </g>
    </g>
    <g id="ytick_10">
     <g id="line2d_90">
      <defs>
       <path id="m3a0f0a12bd" d="M 0 0 
L 1.5 0 
" style="stroke: #000000; stroke-width: 0.5"/>
      </defs>
      <g>
       <use xlink:href="#m3a0f0a12bd" x="52.98" y="315.6875" style="stroke: #000000; stroke-width: 0.5"/>
      </g>
     </g>
     <g id="line2d_91">
      <defs>
       <path id="me687edb115" d="M 0 0 
L -1.5 0 
" style="stroke: #000000; stroke-width: 0.5"/>
      </defs>
      <g>
       <use xlink:href="#me687edb115" x="471.48" y="315.6875" style="stroke: #000000; stroke-width: 0.5"/>
      </g>
     </g>
    </g>
    <g id="ytick_11">
     <g id="line2d_92">
      <g>
       <use xlink:href="#m3a0f0a12bd" x="52.98" y="306.6875" style="stroke: #000000; stroke-width: 0.5"/>
      </g>
     </g>
     <g id="line2d_93">
      <g>
       <use xlink:href="#me687edb115" x="471.48" y="306.6875" style="stroke: #000000; stroke-width: 0.5"/>
      </g>
     </g>
    </g>
    <g id="ytick_12">
     <g id="line2d_94">
      <g>
       <use xlink:href="#m3a0f0a12bd" x="52.98" y="297.6875" style="stroke: #000000; stroke-width: 0.5"/>
      </g>
     </g>
     <g id="line2d_95">
      <g>
       <use xlink:href="#me687edb115" x="471.48" y="297.6875" style="stroke: #000000; stroke-width: 0.5"/>
      </g>
     </g>
    </g>
    <g id="ytick_13">
     <g id="line2d_96">
      <g>
       <use xlink:href="#m3a0f0a12bd" x="52.98" y="279.65625" style="stroke: #000000; stroke-width: 0.5"/>
      </g>
     </g>
     <g id="line2d_97">
      <g>
       <use xlink:href="#me687edb115" x="471.48" y="279.65625" style="stroke: #000000; stroke-width: 0.5"/>
      </g>
     </g>
    </g>
    <g id="ytick_14">
     <g id="line2d_98">
      <g>
       <use xlink:href="#m3a0f0a12bd" x="52.98" y="270.65625" style="stroke: #000000; stroke-width: 0.5"/>
      </g>
     </g>
     <g id="line2d_99">
      <g>
       <use xlink:href="#me687edb115" x="471.48" y="270.65625" style="stroke: #000000; stroke-width: 0.5"/>
      </g>
     </g>
    </g>
    <g id="ytick_15">
     <g id="line2d_100">
      <g>
       <use xlink:href="#m3a0f0a12bd" x="52.98" y="261.65625" style="stroke: #000000; stroke-width: 0.5"/>
      </g>
     </g>
     <g id="line2d_101">
      <g>
       <use xlink:href="#me687edb115" x="471.48" y="261.65625" style="stroke: #000000; stroke-width: 0.5"/>
      </g>
     </g>
    </g>
    <g id="ytick_16">
     <g id="line2d_102">
      <g>
       <use xlink:href="#m3a0f0a12bd" x="52.98" y="252.65625" style="stroke: #000000; stroke-width: 0.5"/>
      </g>
     </g>
     <g id="line2d_103">
      <g>
       <use xlink:href="#me687edb115" x="471.48" y="252.65625" style="stroke: #000000; stroke-width: 0.5"/>
      </g>
     </g>
    </g>
    <g id="ytick_17">
     <g id="line2d_104">
      <g>
       <use xlink:href="#m3a0f0a12bd" x="52.98" y="243.625" style="stroke: #000000; stroke-width: 0.5"/>
      </g>
     </g>
     <g id="line2d_105">
      <g>
       <use xlink:href="#me687edb115" x="471.48" y="243.625" style="stroke: #000000; stroke-width: 0.5"/>
      </g>
     </g>
    </g>
    <g id="ytick_18">
     <g id="line2d_106">
      <g>
       <use xlink:href="#m3a0f0a12bd" x="52.98" y="234.625" style="stroke: #000000; stroke-width: 0.5"/>
      </g>
     </g>
     <g id="line2d_107">
      <g>
       <use xlink:href="#me687edb115" x="471.48" y="234.625" style="stroke: #000000; stroke-width: 0.5"/>
      </g>
     </g>
    </g>
    <g id="ytick_19">
     <g id="line2d_108">
      <g>
       <use xlink:href="#m3a0f0a12bd" x="52.98" y="225.625" style="stroke: #000000; stroke-width: 0.5"/>
      </g>
     </g>
     <g id="line2d_109">
      <g>
       <use xlink:href="#me687edb115" x="471.48" y="225.625" style="stroke: #000000; stroke-width: 0.5"/>
      </g>
     </g>
    </g>
    <g id="ytick_20">
     <g id="line2d_110">
      <g>
       <use xlink:href="#m3a0f0a12bd" x="52.98" y="216.625" style="stroke: #000000; stroke-width: 0.5"/>
      </g>
     </g>
     <g id="line2d_111">
      <g>
       <use xlink:href="#me687edb115" x="471.48" y="216.625" style="stroke: #000000; stroke-width: 0.5"/>
      </g>
     </g>
    </g>
    <g id="ytick_21">
     <g id="line2d_112">
      <g>
       <use xlink:href="#m3a0f0a12bd" x="52.98" y="207.625" style="stroke: #000000; stroke-width: 0.5"/>
      </g>
     </g>
     <g id="line2d_113">
      <g>
       <use xlink:href="#me687edb115" x="471.48" y="207.625" style="stroke: #000000; stroke-width: 0.5"/>
      </g>
     </g>
    </g>
    <g id="ytick_22">
     <g id="line2d_114">
      <g>
       <use xlink:href="#m3a0f0a12bd" x="52.98" y="198.59375" style="stroke: #000000; stroke-width: 0.5"/>
      </g>
     </g>
     <g id="line2d_115">
      <g>
       <use xlink:href="#me687edb115" x="471.48" y="198.59375" style="stroke: #000000; stroke-width: 0.5"/>
      </g>
     </g>
    </g>
    <g id="ytick_23">
     <g id="line2d_116">
      <g>
       <use xlink:href="#m3a0f0a12bd" x="52.98" y="189.59375" style="stroke: #000000; stroke-width: 0.5"/>
      </g>
     </g>
     <g id="line2d_117">
      <g>
       <use xlink:href="#me687edb115" x="471.48" y="189.59375" style="stroke: #000000; stroke-width: 0.5"/>
      </g>
     </g>
    </g>
    <g id="ytick_24">
     <g id="line2d_118">
      <g>
       <use xlink:href="#m3a0f0a12bd" x="52.98" y="180.59375" style="stroke: #000000; stroke-width: 0.5"/>
      </g>
     </g>
     <g id="line2d_119">
      <g>
       <use xlink:href="#me687edb115" x="471.48" y="180.59375" style="stroke: #000000; stroke-width: 0.5"/>
      </g>
     </g>
    </g>
    <g id="ytick_25">
     <g id="line2d_120">
      <g>
       <use xlink:href="#m3a0f0a12bd" x="52.98" y="171.59375" style="stroke: #000000; stroke-width: 0.5"/>
      </g>
     </g>
     <g id="line2d_121">
      <g>
       <use xlink:href="#me687edb115" x="471.48" y="171.59375" style="stroke: #000000; stroke-width: 0.5"/>
      </g>
     </g>
    </g>
    <g id="ytick_26">
     <g id="line2d_122">
      <g>
       <use xlink:href="#m3a0f0a12bd" x="52.98" y="162.5625" style="stroke: #000000; stroke-width: 0.5"/>
      </g>
     </g>
     <g id="line2d_123">
      <g>
       <use xlink:href="#me687edb115" x="471.48" y="162.5625" style="stroke: #000000; stroke-width: 0.5"/>
      </g>
     </g>
    </g>
    <g id="ytick_27">
     <g id="line2d_124">
      <g>
       <use xlink:href="#m3a0f0a12bd" x="52.98" y="153.5625" style="stroke: #000000; stroke-width: 0.5"/>
      </g>
     </g>
     <g id="line2d_125">
      <g>
       <use xlink:href="#me687edb115" x="471.48" y="153.5625" style="stroke: #000000; stroke-width: 0.5"/>
      </g>
     </g>
    </g>
    <g id="ytick_28">
     <g id="line2d_126">
      <g>
       <use xlink:href="#m3a0f0a12bd" x="52.98" y="144.5625" style="stroke: #000000; stroke-width: 0.5"/>
      </g>
     </g>
     <g id="line2d_127">
      <g>
       <use xlink:href="#me687edb115" x="471.48" y="144.5625" style="stroke: #000000; stroke-width: 0.5"/>
      </g>
     </g>
    </g>
    <g id="ytick_29">
     <g id="line2d_128">
      <g>
       <use xlink:href="#m3a0f0a12bd" x="52.98" y="135.5625" style="stroke: #000000; stroke-width: 0.5"/>
      </g>
     </g>
     <g id="line2d_129">
      <g>
       <use xlink:href="#me687edb115" x="471.48" y="135.5625" style="stroke: #000000; stroke-width: 0.5"/>
      </g>
     </g>
    </g>
    <g id="ytick_30">
     <g id="line2d_130">
      <g>
       <use xlink:href="#m3a0f0a12bd" x="52.98" y="126.5625" style="stroke: #000000; stroke-width: 0.5"/>
      </g>
     </g>
     <g id="line2d_131">
      <g>
       <use xlink:href="#me687edb115" x="471.48" y="126.5625" style="stroke: #000000; stroke-width: 0.5"/>
      </g>
     </g>
    </g>
    <g id="ytick_31">
     <g id="line2d_132">
      <g>
       <use xlink:href="#m3a0f0a12bd" x="52.98" y="117.53125" style="stroke: #000000; stroke-width: 0.5"/>
      </g>
     </g>
     <g id="line2d_133">
      <g>
       <use xlink:href="#me687edb115" x="471.48" y="117.53125" style="stroke: #000000; stroke-width: 0.5"/>
      </g>
     </g>
    </g>
    <g id="ytick_32">
     <g id="line2d_134">
      <g>
       <use xlink:href="#m3a0f0a12bd" x="52.98" y="108.53125" style="stroke: #000000; stroke-width: 0.5"/>
      </g>
     </g>
     <g id="line2d_135">
      <g>
       <use xlink:href="#me687edb115" x="471.48" y="108.53125" style="stroke: #000000; stroke-width: 0.5"/>
      </g>
     </g>
    </g>
    <g id="ytick_33">
     <g id="line2d_136">
      <g>
       <use xlink:href="#m3a0f0a12bd" x="52.98" y="99.53125" style="stroke: #000000; stroke-width: 0.5"/>
      </g>
     </g>
     <g id="line2d_137">
      <g>
       <use xlink:href="#me687edb115" x="471.48" y="99.53125" style="stroke: #000000; stroke-width: 0.5"/>
      </g>
     </g>
    </g>
    <g id="ytick_34">
     <g id="line2d_138">
      <g>
       <use xlink:href="#m3a0f0a12bd" x="52.98" y="90.53125" style="stroke: #000000; stroke-width: 0.5"/>
      </g>
     </g>
     <g id="line2d_139">
      <g>
       <use xlink:href="#me687edb115" x="471.48" y="90.53125" style="stroke: #000000; stroke-width: 0.5"/>
      </g>
     </g>
    </g>
    <g id="ytick_35">
     <g id="line2d_140">
      <g>
       <use xlink:href="#m3a0f0a12bd" x="52.98" y="81.5" style="stroke: #000000; stroke-width: 0.5"/>
      </g>
     </g>
     <g id="line2d_141">
      <g>
       <use xlink:href="#me687edb115" x="471.48" y="81.5" style="stroke: #000000; stroke-width: 0.5"/>
      </g>
     </g>
    </g>
    <g id="ytick_36">
     <g id="line2d_142">
      <g>
       <use xlink:href="#m3a0f0a12bd" x="52.98" y="72.5" style="stroke: #000000; stroke-width: 0.5"/>
      </g>
     </g>
     <g id="line2d_143">
      <g>
       <use xlink:href="#me687edb115" x="471.48" y="72.5" style="stroke: #000000; stroke-width: 0.5"/>
      </g>
     </g>
    </g>
    <g id="ytick_37">
     <g id="line2d_144">
      <g>
       <use xlink:href="#m3a0f0a12bd" x="52.98" y="63.5" style="stroke: #000000; stroke-width: 0.5"/>
      </g>
     </g>
     <g id="line2d_145">
      <g>
       <use xlink:href="#me687edb115" x="471.48" y="63.5" style="stroke: #000000; stroke-width: 0.5"/>
      </g>
     </g>
    </g>
    <g id="ytick_38">
     <g id="line2d_146">
      <g>
       <use xlink:href="#m3a0f0a12bd" x="52.98" y="54.5" style="stroke: #000000; stroke-width: 0.5"/>
      </g>
     </g>
     <g id="line2d_147">
      <g>
       <use xlink:href="#me687edb115" x="471.48" y="54.5" style="stroke: #000000; stroke-width: 0.5"/>
      </g>
     </g>
    </g>
    <g id="ytick_39">
     <g id="line2d_148">
      <g>
       <use xlink:href="#m3a0f0a12bd" x="52.98" y="45.5" style="stroke: #000000; stroke-width: 0.5"/>
      </g>
     </g>
     <g id="line2d_149">
      <g>
       <use xlink:href="#me687edb115" x="471.48" y="45.5" style="stroke: #000000; stroke-width: 0.5"/>
      </g>
     </g>
    </g>
    <g id="ytick_40">
     <g id="line2d_150">
      <g>
       <use xlink:href="#m3a0f0a12bd" x="52.98" y="36.46875" style="stroke: #000000; stroke-width: 0.5"/>
      </g>
     </g>
     <g id="line2d_151">
      <g>
       <use xlink:href="#me687edb115" x="471.48" y="36.46875" style="stroke: #000000; stroke-width: 0.5"/>
      </g>
     </g>
    </g>
    <g id="text_17">
     <!-- $g_2$ -->
     <g transform="translate(13.161563 186.919625) rotate(-90) scale(0.14 -0.14)">
      <defs>
       <path id="Cmmi10-67" d="M 91 -916 
Q 91 -759 198 -642 
Q 306 -525 459 -525 
Q 563 -525 633 -589 
Q 703 -653 703 -756 
Q 703 -872 637 -964 
Q 572 -1056 469 -1094 
Q 641 -1147 1006 -1147 
Q 1300 -1147 1544 -920 
Q 1788 -694 1863 -397 
L 2047 353 
Q 1700 0 1325 0 
Q 1050 0 854 140 
Q 659 281 556 515 
Q 453 750 453 1013 
Q 453 1306 573 1628 
Q 694 1950 911 2225 
Q 1128 2500 1409 2664 
Q 1691 2828 2003 2828 
Q 2191 2828 2341 2725 
Q 2491 2622 2578 2450 
Q 2641 2700 2853 2700 
Q 2934 2700 2990 2651 
Q 3047 2603 3047 2522 
Q 3047 2503 3045 2493 
Q 3044 2484 3041 2472 
L 2309 -434 
Q 2259 -634 2125 -800 
Q 1991 -966 1809 -1077 
Q 1628 -1188 1412 -1250 
Q 1197 -1313 997 -1313 
Q 631 -1313 361 -1242 
Q 91 -1172 91 -916 
z
M 1338 166 
Q 1747 166 2144 728 
L 2497 2125 
Q 2453 2347 2322 2505 
Q 2191 2663 1991 2663 
Q 1778 2663 1589 2489 
Q 1400 2316 1275 2075 
Q 1156 1844 1045 1411 
Q 934 978 934 728 
Q 934 509 1034 337 
Q 1134 166 1338 166 
z
" transform="scale(0.015625)"/>
       <path id="Cmr10-32" d="M 319 0 
L 319 172 
Q 319 188 331 206 
L 1325 1306 
Q 1550 1550 1690 1715 
Q 1831 1881 1968 2097 
Q 2106 2313 2186 2536 
Q 2266 2759 2266 3009 
Q 2266 3272 2169 3511 
Q 2072 3750 1880 3894 
Q 1688 4038 1416 4038 
Q 1138 4038 916 3870 
Q 694 3703 603 3438 
Q 628 3444 672 3444 
Q 816 3444 917 3347 
Q 1019 3250 1019 3097 
Q 1019 2950 917 2848 
Q 816 2747 672 2747 
Q 522 2747 420 2851 
Q 319 2956 319 3097 
Q 319 3338 409 3548 
Q 500 3759 670 3923 
Q 841 4088 1055 4175 
Q 1269 4263 1509 4263 
Q 1875 4263 2190 4108 
Q 2506 3953 2690 3670 
Q 2875 3388 2875 3009 
Q 2875 2731 2753 2481 
Q 2631 2231 2440 2026 
Q 2250 1822 1953 1562 
Q 1656 1303 1563 1216 
L 838 519 
L 1453 519 
Q 1906 519 2211 526 
Q 2516 534 2534 550 
Q 2609 631 2688 1141 
L 2875 1141 
L 2694 0 
L 319 0 
z
" transform="scale(0.015625)"/>
      </defs>
      <use xlink:href="#Cmmi10-67" transform="translate(0 0.8125)"/>
      <use xlink:href="#Cmr10-32" transform="translate(47.705078 -16.19375) scale(0.7)"/>
     </g>
    </g>
    <g id="text_18">
     <!-- $\times\mathdefault{10^{−12}}\mathdefault{+9.9 \times 10^{−1}}$ -->
     <g transform="translate(52.98 33.475625) scale(0.12 -0.12)">
      <defs>
       <path id="Cmsy10-a3" d="M 941 184 
Q 941 234 972 275 
L 2303 1600 
L 972 2931 
Q 941 2963 941 3016 
Q 941 3063 978 3103 
Q 1016 3144 1069 3144 
Q 1113 3144 1166 3103 
L 2491 1778 
L 3809 3103 
Q 3863 3144 3903 3144 
Q 3956 3144 3993 3106 
Q 4031 3069 4031 3016 
Q 4031 2963 4000 2931 
L 2669 1600 
L 4000 275 
Q 4031 234 4031 184 
Q 4031 131 3993 93 
Q 3956 56 3903 56 
Q 3856 56 3809 103 
L 2491 1422 
L 1166 103 
Q 1119 56 1069 56 
Q 1016 56 978 97 
Q 941 138 941 184 
z
" transform="scale(0.015625)"/>
       <path id="STIXGeneral-Regular-2b" d="M 4070 1408 
L 2400 1408 
L 2400 -262 
L 1978 -262 
L 1978 1408 
L 307 1408 
L 307 1830 
L 1978 1830 
L 1978 3501 
L 2400 3501 
L 2400 1830 
L 4070 1830 
L 4070 1408 
z
" transform="scale(0.015625)"/>
       <path id="STIXGeneral-Regular-39" d="M 378 -141 
L 358 -13 
Q 1094 115 1603 608 
Q 2112 1101 2304 1882 
Q 1933 1517 1344 1517 
Q 826 1517 509 1875 
Q 192 2234 192 2816 
Q 192 3462 573 3894 
Q 954 4326 1523 4326 
Q 2131 4326 2528 3840 
Q 2938 3328 2938 2522 
Q 2938 1958 2742 1462 
Q 2547 966 2170 621 
Q 1773 262 1395 105 
Q 1018 -51 378 -141 
z
M 2317 2272 
L 2317 2522 
Q 2317 4147 1472 4147 
Q 1171 4147 1005 3930 
Q 909 3802 845 3546 
Q 781 3290 781 3034 
Q 781 2464 995 2128 
Q 1210 1792 1568 1792 
Q 1824 1792 2070 1917 
Q 2317 2042 2317 2272 
z
" transform="scale(0.015625)"/>
       <path id="STIXGeneral-Regular-d7" d="M 3821 141 
L 3526 -160 
L 2048 1312 
L 570 -160 
L 275 134 
L 1747 1613 
L 275 3091 
L 576 3386 
L 2048 1914 
L 3526 3386 
L 3821 3098 
L 2349 1613 
L 3821 141 
z
" transform="scale(0.015625)"/>
      </defs>
      <use xlink:href="#Cmsy10-a3" transform="translate(0 0.684375)"/>
      <use xlink:href="#STIXGeneral-Regular-31" transform="translate(77.685547 0.684375)"/>
      <use xlink:href="#STIXGeneral-Regular-30" transform="translate(127.685532 0.684375)"/>
      <use xlink:href="#STIXGeneral-Regular-2212" transform="translate(179.260516 36.684375) scale(0.7)"/>
      <use xlink:href="#STIXGeneral-Regular-31" transform="translate(227.210506 36.684375) scale(0.7)"/>
      <use xlink:href="#STIXGeneral-Regular-32" transform="translate(262.210495 36.684375) scale(0.7)"/>
      <use xlink:href="#STIXGeneral-Regular-2b" transform="translate(301.710484 0.684375)"/>
      <use xlink:href="#STIXGeneral-Regular-39" transform="translate(370.210469 0.684375)"/>
      <use xlink:href="#STIXGeneral-Regular-2e" transform="translate(420.210454 0.684375)"/>
      <use xlink:href="#STIXGeneral-Regular-39" transform="translate(445.210439 0.684375)"/>
      <use xlink:href="#STIXGeneral-Regular-d7" transform="translate(512.769017 0.684375)"/>
      <use xlink:href="#STIXGeneral-Regular-31" transform="translate(594.327596 0.684375)"/>
      <use xlink:href="#STIXGeneral-Regular-30" transform="translate(644.32758 0.684375)"/>
      <use xlink:href="#STIXGeneral-Regular-2212" transform="translate(695.902565 36.684375) scale(0.7)"/>
      <use xlink:href="#STIXGeneral-Regular-31" transform="translate(743.852554 36.684375) scale(0.7)"/>
     </g>
    </g>
   </g>
   <g id="line2d_152">
    <path d="M 72.09451 -1 
L 72.09451 360.263625 
M 72.807134 360.263625 
L 72.807134 -1 
M 73.375748 -1 
L 73.375748 360.263625 
M 73.517362 360.263625 
L 73.517362 -1 
M 73.546196 -1 
L 73.546196 360.263625 
M 73.881635 360.263625 
L 73.881635 -1 
M 73.98706 -1 
L 73.98706 360.263625 
M 74.067317 360.263625 
L 74.067317 -1 
M 74.290115 -1 
L 74.290115 360.263625 
M 74.437038 360.263625 
L 74.437038 -1 
L 74.437038 -1 
" clip-path="url(#p99104f2d5a)" style="fill: none; stroke-dasharray: 2.7,4.455; stroke-dashoffset: 0; stroke: #2ca02c; stroke-width: 2.7"/>
    <defs>
     <path id="mc9e83f5097" d="M -1.6 1.6 
L 1.6 1.6 
L 1.6 -1.6 
L -1.6 -1.6 
z
" style="stroke: #2ca02c; stroke-linejoin: miter"/>
    </defs>
    <g clip-path="url(#p99104f2d5a)"/>
   </g>
   <g id="patch_3">
    <path d="M 52.98 324.75 
L 52.98 36.46875 
" style="fill: none; stroke: #000000; stroke-width: 0.5; stroke-linejoin: miter; stroke-linecap: square"/>
   </g>
   <g id="patch_4">
    <path d="M 471.48 324.75 
L 471.48 36.46875 
" style="fill: none; stroke: #000000; stroke-width: 0.5; stroke-linejoin: miter; stroke-linecap: square"/>
   </g>
   <g id="patch_5">
    <path d="M 52.98 324.763625 
L 471.48 324.763625 
" style="fill: none; stroke: #000000; stroke-width: 0.5; stroke-linejoin: miter; stroke-linecap: square"/>
   </g>
   <g id="patch_6">
    <path d="M 52.98 36.475625 
L 471.48 36.475625 
" style="fill: none; stroke: #000000; stroke-width: 0.5; stroke-linejoin: miter; stroke-linecap: square"/>
   </g>
   <g id="line2d_153">
    <path d="M 72.002727 180.5625 
L 72.002727 -1 
M 73.234599 -1 
L 73.234599 360.263625 
M 74.609308 360.263625 
L 74.609308 -1 
M 74.809287 -1 
L 74.809287 360.263625 
M 74.825478 360.263625 
L 74.825478 -1 
M 85.395302 -1 
L 85.395302 360.263625 
M 165.60371 360.263625 
L 165.60371 -1 
M 166.918622 -1 
L 166.918622 360.263625 
M 167.084235 360.263625 
L 167.084235 -1 
M 167.299984 -1 
L 167.299984 360.263625 
M 167.401779 360.263625 
L 167.401779 -1 
M 235.594669 -1 
L 235.594669 360.263625 
M 235.738532 360.263625 
L 235.738532 -1 
M 235.760233 -1 
L 235.760233 360.263625 
M 293.935076 360.263625 
L 293.935076 -1 
M 295.146094 -1 
L 295.146094 360.263625 
M 296.381647 360.263625 
L 296.381647 -1 
M 298.750527 -1 
L 298.750527 360.263625 
M 298.796491 360.263625 
L 298.796491 -1 
M 300.024588 -1 
L 300.024588 360.263625 
M 300.603022 360.263625 
L 300.603022 -1 
L 300.603022 -1 
" clip-path="url(#p99104f2d5a)" style="fill: none; stroke-dasharray: 16,4,2.5,4; stroke-dashoffset: 0; stroke: #ff7f0e; stroke-width: 2.5"/>
    <defs>
     <path id="m3fa59177f1" d="M 0 1.75 
C 0.464105 1.75 0.909265 1.565609 1.237437 1.237437 
C 1.565609 0.909265 1.75 0.464105 1.75 0 
C 1.75 -0.464105 1.565609 -0.909265 1.237437 -1.237437 
C 0.909265 -1.565609 0.464105 -1.75 0 -1.75 
C -0.464105 -1.75 -0.909265 -1.565609 -1.237437 -1.237437 
C -1.565609 -0.909265 -1.75 -0.464105 -1.75 0 
C -1.75 0.464105 -1.565609 0.909265 -1.237437 1.237437 
C -0.909265 1.565609 -0.464105 1.75 0 1.75 
z
" style="stroke: #ff7f0e"/>
    </defs>
    <g clip-path="url(#p99104f2d5a)">
     <use xlink:href="#m3fa59177f1" x="72.002727" y="180.5625" style="fill: #ff7f0e; stroke: #ff7f0e"/>
     <use xlink:href="#m3fa59177f1" x="72.00274" y="25867.981" style="fill: #ff7f0e; stroke: #ff7f0e"/>
     <use xlink:href="#m3fa59177f1" x="160.017515" y="25867.981" style="fill: #ff7f0e; stroke: #ff7f0e"/>
     <use xlink:href="#m3fa59177f1" x="160.017517" y="-1" style="fill: #ff7f0e; stroke: #ff7f0e"/>
     <use xlink:href="#m3fa59177f1" x="244.685254" y="-1" style="fill: #ff7f0e; stroke: #ff7f0e"/>
     <use xlink:href="#m3fa59177f1" x="244.685255" y="25867.981" style="fill: #ff7f0e; stroke: #ff7f0e"/>
     <use xlink:href="#m3fa59177f1" x="293.481791" y="25867.981" style="fill: #ff7f0e; stroke: #ff7f0e"/>
     <use xlink:href="#m3fa59177f1" x="293.481791" y="-1" style="fill: #ff7f0e; stroke: #ff7f0e"/>
    </g>
   </g>
   <g id="text_19">
    <!-- Second-Order Coherence $g_2$ vs Time ($|n=100\rangle$, $U=1$, $\gamma=1$) -->
    <g transform="translate(61.19 19.28) scale(0.16 -0.16)">
     <defs>
      <path id="STIXGeneral-Regular-53" d="M 3002 2963 
L 2842 2963 
Q 2733 3360 2579 3565 
Q 2189 4064 1651 4064 
Q 1357 4064 1181 3894 
Q 1005 3725 1005 3456 
Q 1005 3328 1069 3206 
Q 1133 3085 1206 2998 
Q 1280 2912 1465 2784 
Q 1651 2656 1766 2589 
Q 1882 2522 2150 2362 
Q 2669 2061 2905 1763 
Q 3142 1466 3142 1107 
Q 3142 576 2771 243 
Q 2400 -90 1837 -90 
Q 1421 -90 1082 58 
Q 915 128 781 128 
Q 704 128 653 70 
Q 602 13 602 -83 
L 461 -83 
L 275 1274 
L 416 1274 
Q 845 141 1734 141 
Q 2074 141 2285 342 
Q 2496 544 2496 858 
Q 2496 1158 2310 1363 
Q 2003 1696 1235 2106 
Q 454 2522 454 3206 
Q 454 3718 768 4022 
Q 1082 4326 1568 4326 
Q 1907 4326 2240 4186 
Q 2413 4109 2522 4109 
Q 2688 4109 2726 4326 
L 2861 4326 
L 3002 2963 
z
" transform="scale(0.015625)"/>
      <path id="STIXGeneral-Regular-63" d="M 2547 998 
L 2637 941 
Q 2362 403 2112 205 
Q 1786 -64 1376 -64 
Q 845 -64 502 336 
Q 160 736 160 1357 
Q 160 2170 698 2618 
Q 1094 2944 1562 2944 
Q 1965 2944 2256 2749 
Q 2547 2554 2547 2285 
Q 2547 2176 2457 2096 
Q 2368 2016 2246 2016 
Q 2022 2016 1939 2310 
L 1901 2451 
Q 1850 2630 1773 2694 
Q 1696 2758 1523 2758 
Q 1133 2758 893 2451 
Q 653 2144 653 1645 
Q 653 1094 928 745 
Q 1203 397 1645 397 
Q 1920 397 2118 528 
Q 2317 659 2547 998 
z
" transform="scale(0.015625)"/>
      <path id="STIXGeneral-Regular-6f" d="M 3008 1478 
Q 3008 806 2608 371 
Q 2208 -64 1568 -64 
Q 979 -64 582 368 
Q 186 800 186 1459 
Q 186 2125 582 2534 
Q 979 2944 1626 2944 
Q 2221 2944 2614 2537 
Q 3008 2131 3008 1478 
z
M 2432 1306 
Q 2432 2035 2112 2445 
Q 1856 2765 1504 2765 
Q 1171 2765 966 2493 
Q 762 2221 762 1747 
Q 762 928 1101 435 
Q 1318 115 1677 115 
Q 2029 115 2230 432 
Q 2432 749 2432 1306 
z
" transform="scale(0.015625)"/>
      <path id="STIXGeneral-Regular-6e" d="M 3104 0 
L 1773 0 
L 1779 96 
Q 2016 115 2096 233 
Q 2176 352 2176 672 
L 2176 1946 
Q 2176 2592 1709 2592 
Q 1549 2592 1408 2515 
Q 1267 2438 1050 2227 
L 1050 461 
Q 1050 269 1136 192 
Q 1222 115 1466 96 
L 1466 0 
L 115 0 
L 115 96 
Q 358 115 435 214 
Q 512 314 512 602 
L 512 2157 
Q 512 2394 467 2483 
Q 422 2573 288 2573 
Q 160 2573 102 2547 
L 102 2656 
Q 550 2784 979 2944 
L 1030 2925 
L 1030 2426 
L 1037 2426 
Q 1491 2944 1958 2944 
Q 2323 2944 2518 2688 
Q 2714 2432 2714 1958 
L 2714 544 
Q 2714 288 2790 205 
Q 2867 122 3104 96 
L 3104 0 
z
" transform="scale(0.015625)"/>
      <path id="STIXGeneral-Regular-64" d="M 3142 269 
L 2202 -64 
L 2176 -45 
L 2176 365 
Q 1869 -64 1357 -64 
Q 826 -64 499 317 
Q 173 698 173 1312 
Q 173 1990 563 2467 
Q 954 2944 1504 2944 
Q 1850 2944 2176 2669 
L 2176 3667 
Q 2176 3866 2118 3930 
Q 2061 3994 1882 3994 
Q 1792 3994 1741 3987 
L 1741 4090 
Q 2323 4243 2682 4371 
L 2714 4358 
L 2714 730 
Q 2714 506 2768 435 
Q 2822 365 2995 365 
Q 3034 365 3142 371 
L 3142 269 
z
M 2176 653 
L 2176 2125 
Q 2176 2381 1981 2573 
Q 1786 2765 1523 2765 
Q 1158 2765 940 2438 
Q 723 2112 723 1568 
Q 723 979 963 624 
Q 1203 269 1606 269 
Q 1907 269 2080 474 
Q 2176 582 2176 653 
z
" transform="scale(0.015625)"/>
      <path id="STIXGeneral-Regular-2d" d="M 1824 1242 
L 250 1242 
L 250 1645 
L 1824 1645 
L 1824 1242 
z
" transform="scale(0.015625)"/>
      <path id="STIXGeneral-Regular-4f" d="M 4403 2118 
Q 4403 1133 3820 521 
Q 3238 -90 2310 -90 
Q 1376 -90 797 524 
Q 218 1139 218 2138 
Q 218 3110 797 3718 
Q 1376 4326 2310 4326 
Q 3245 4326 3824 3702 
Q 4403 3078 4403 2118 
z
M 3674 2157 
Q 3674 2701 3520 3133 
Q 3366 3565 3091 3795 
Q 2733 4096 2304 4096 
Q 1760 4096 1389 3667 
Q 1184 3437 1065 3011 
Q 947 2586 947 2125 
Q 947 960 1523 429 
Q 1837 141 2317 141 
Q 2816 141 3142 448 
Q 3674 960 3674 2157 
z
" transform="scale(0.015625)"/>
      <path id="STIXGeneral-Regular-72" d="M 1024 2931 
L 1024 2342 
Q 1267 2688 1430 2816 
Q 1594 2944 1792 2944 
Q 1958 2944 2051 2854 
Q 2144 2765 2144 2605 
Q 2144 2470 2077 2393 
Q 2010 2317 1894 2317 
Q 1773 2317 1638 2445 
Q 1536 2541 1472 2541 
Q 1338 2541 1181 2355 
Q 1024 2170 1024 2016 
L 1024 576 
Q 1024 301 1133 205 
Q 1242 109 1568 96 
L 1568 0 
L 32 0 
L 32 96 
Q 339 154 412 224 
Q 486 294 486 538 
L 486 2138 
Q 486 2349 438 2435 
Q 390 2522 269 2522 
Q 166 2522 45 2496 
L 45 2598 
Q 448 2726 992 2944 
L 1024 2931 
z
" transform="scale(0.015625)"/>
      <path id="STIXGeneral-Regular-20" transform="scale(0.015625)"/>
      <path id="STIXGeneral-Regular-43" d="M 3930 838 
L 4051 723 
Q 3482 -90 2304 -90 
Q 1376 -90 794 480 
Q 179 1082 179 2080 
Q 179 3014 755 3661 
Q 1357 4326 2310 4326 
Q 2720 4326 3072 4230 
Q 3475 4115 3514 4115 
Q 3725 4115 3782 4326 
L 3910 4326 
L 3968 2874 
L 3821 2874 
Q 3718 3334 3488 3584 
Q 3034 4070 2458 4070 
Q 1747 4070 1334 3548 
Q 922 3027 922 2182 
Q 922 1152 1382 653 
Q 1811 192 2522 192 
Q 2944 192 3251 339 
Q 3558 486 3930 838 
z
" transform="scale(0.015625)"/>
      <path id="STIXGeneral-Regular-68" d="M 3117 0 
L 1760 0 
L 1760 96 
Q 2042 128 2118 224 
Q 2195 320 2195 653 
L 2195 1920 
Q 2195 2598 1722 2598 
Q 1530 2598 1370 2508 
Q 1210 2419 1005 2195 
L 1005 653 
Q 1005 320 1081 224 
Q 1158 128 1440 96 
L 1440 0 
L 58 0 
L 58 96 
Q 333 134 400 224 
Q 467 314 467 653 
L 467 3667 
Q 467 3872 406 3933 
Q 346 3994 141 3994 
Q 83 3994 64 3987 
L 64 4090 
L 237 4141 
Q 730 4288 973 4371 
L 1005 4352 
L 1005 2406 
Q 1229 2694 1446 2819 
Q 1664 2944 1946 2944 
Q 2733 2944 2733 1926 
L 2733 653 
Q 2733 320 2793 233 
Q 2854 147 3117 96 
L 3117 0 
z
" transform="scale(0.015625)"/>
      <path id="STIXGeneral-Regular-76" d="M 3053 2880 
L 3053 2784 
Q 2906 2771 2835 2688 
Q 2765 2605 2637 2285 
L 1818 230 
Q 1690 -90 1638 -90 
Q 1587 -90 1523 77 
Q 1510 96 1497 141 
Q 1485 186 1472 211 
L 704 2048 
Q 499 2534 403 2652 
Q 307 2771 122 2784 
L 122 2880 
L 1376 2880 
L 1376 2784 
Q 1210 2771 1146 2732 
Q 1082 2694 1082 2611 
Q 1082 2509 1139 2368 
L 1792 730 
L 2426 2387 
Q 2464 2483 2464 2579 
Q 2464 2758 2163 2784 
L 2163 2880 
L 3053 2880 
z
" transform="scale(0.015625)"/>
      <path id="STIXGeneral-Regular-73" d="M 998 1926 
L 1664 1523 
Q 1984 1331 2105 1164 
Q 2227 998 2227 736 
Q 2227 416 1961 176 
Q 1696 -64 1331 -64 
Q 1030 -64 864 -6 
Q 691 51 570 51 
Q 461 51 416 -26 
L 333 -26 
L 333 979 
L 435 979 
Q 538 512 730 294 
Q 922 77 1248 77 
Q 1485 77 1632 211 
Q 1779 346 1779 550 
Q 1779 845 1440 1030 
L 1094 1222 
Q 326 1651 326 2150 
Q 326 2522 566 2730 
Q 806 2938 1210 2938 
Q 1491 2938 1638 2867 
Q 1754 2816 1818 2816 
Q 1862 2816 1920 2880 
L 1990 2880 
L 2022 2010 
L 1926 2010 
Q 1818 2445 1654 2621 
Q 1491 2797 1203 2797 
Q 986 2797 854 2688 
Q 723 2579 723 2362 
Q 723 2253 796 2128 
Q 870 2003 998 1926 
z
" transform="scale(0.015625)"/>
      <path id="STIXGeneral-Regular-28" d="M 1946 -1030 
L 1869 -1133 
Q 1126 -710 716 32 
Q 307 774 307 1613 
Q 307 3386 1888 4326 
L 1946 4224 
Q 1293 3667 1075 3126 
Q 858 2586 858 1632 
Q 858 685 1082 96 
Q 1306 -493 1946 -1030 
z
" transform="scale(0.015625)"/>
      <path id="Cmsy10-6a" d="M 763 -1484 
L 763 4684 
Q 763 4734 800 4767 
Q 838 4800 891 4800 
Q 938 4800 978 4767 
Q 1019 4734 1019 4684 
L 1019 -1484 
Q 1019 -1534 978 -1567 
Q 938 -1600 891 -1600 
Q 838 -1600 800 -1567 
Q 763 -1534 763 -1484 
z
" transform="scale(0.015625)"/>
      <path id="Cmmi10-6e" d="M 494 109 
Q 494 147 500 166 
L 978 2075 
Q 1025 2253 1025 2388 
Q 1025 2663 838 2663 
Q 638 2663 541 2423 
Q 444 2184 353 1819 
Q 353 1800 334 1789 
Q 316 1778 300 1778 
L 225 1778 
Q 203 1778 187 1801 
Q 172 1825 172 1844 
Q 241 2122 305 2315 
Q 369 2509 505 2668 
Q 641 2828 844 2828 
Q 1084 2828 1268 2676 
Q 1453 2525 1453 2291 
Q 1644 2541 1900 2684 
Q 2156 2828 2444 2828 
Q 2672 2828 2837 2750 
Q 3003 2672 3095 2514 
Q 3188 2356 3188 2138 
Q 3188 1875 3070 1503 
Q 2953 1131 2778 672 
Q 2688 463 2688 288 
Q 2688 97 2834 97 
Q 3084 97 3251 365 
Q 3419 634 3488 941 
Q 3500 978 3541 978 
L 3616 978 
Q 3641 978 3658 962 
Q 3675 947 3675 922 
Q 3675 916 3669 903 
Q 3581 541 3364 234 
Q 3147 -72 2822 -72 
Q 2597 -72 2437 83 
Q 2278 238 2278 459 
Q 2278 578 2328 709 
Q 2409 919 2514 1209 
Q 2619 1500 2686 1765 
Q 2753 2031 2753 2234 
Q 2753 2413 2679 2538 
Q 2606 2663 2431 2663 
Q 2197 2663 2000 2559 
Q 1803 2456 1656 2286 
Q 1509 2116 1388 1881 
L 953 141 
Q 931 53 854 -9 
Q 778 -72 684 -72 
Q 606 -72 550 -22 
Q 494 28 494 109 
z
" transform="scale(0.015625)"/>
      <path id="Cmr10-3d" d="M 481 850 
Q 428 850 393 890 
Q 359 931 359 978 
Q 359 1031 393 1068 
Q 428 1106 481 1106 
L 4500 1106 
Q 4547 1106 4581 1068 
Q 4616 1031 4616 978 
Q 4616 931 4581 890 
Q 4547 850 4500 850 
L 481 850 
z
M 481 2094 
Q 428 2094 393 2131 
Q 359 2169 359 2222 
Q 359 2269 393 2309 
Q 428 2350 481 2350 
L 4500 2350 
Q 4547 2350 4581 2309 
Q 4616 2269 4616 2222 
Q 4616 2169 4581 2131 
Q 4547 2094 4500 2094 
L 481 2094 
z
" transform="scale(0.015625)"/>
      <path id="Cmr10-31" d="M 594 0 
L 594 225 
Q 1394 225 1394 428 
L 1394 3788 
Q 1063 3628 556 3628 
L 556 3853 
Q 1341 3853 1741 4263 
L 1831 4263 
Q 1853 4263 1873 4245 
Q 1894 4228 1894 4206 
L 1894 428 
Q 1894 225 2694 225 
L 2694 0 
L 594 0 
z
" transform="scale(0.015625)"/>
      <path id="Cmr10-30" d="M 1600 -141 
Q 816 -141 533 504 
Q 250 1150 250 2041 
Q 250 2597 351 3087 
Q 453 3578 754 3920 
Q 1056 4263 1600 4263 
Q 2022 4263 2290 4056 
Q 2559 3850 2700 3523 
Q 2841 3197 2892 2823 
Q 2944 2450 2944 2041 
Q 2944 1491 2842 1011 
Q 2741 531 2444 195 
Q 2147 -141 1600 -141 
z
M 1600 25 
Q 1956 25 2131 390 
Q 2306 756 2347 1200 
Q 2388 1644 2388 2144 
Q 2388 2625 2347 3031 
Q 2306 3438 2132 3767 
Q 1959 4097 1600 4097 
Q 1238 4097 1063 3765 
Q 888 3434 847 3029 
Q 806 2625 806 2144 
Q 806 1788 823 1472 
Q 841 1156 916 820 
Q 991 484 1158 254 
Q 1325 25 1600 25 
z
" transform="scale(0.015625)"/>
      <path id="Cmex10-ae" d="M 500 -7297 
Q 500 -7263 513 -7250 
L 2119 -3584 
L 513 84 
Q 500 97 500 128 
Q 500 175 537 215 
Q 575 256 628 256 
Q 703 256 750 178 
L 2381 -3541 
Q 2388 -3553 2388 -3584 
Q 2388 -3616 2381 -3634 
L 750 -7347 
Q 700 -7425 628 -7425 
Q 575 -7425 537 -7384 
Q 500 -7344 500 -7297 
z
" transform="scale(0.015625)"/>
      <path id="STIXGeneral-Regular-2c" d="M 531 -902 
L 467 -781 
Q 998 -422 998 -96 
Q 998 -13 909 -13 
Q 883 -13 822 -25 
Q 762 -38 723 -38 
Q 352 -38 352 288 
Q 352 454 457 553 
Q 563 653 736 653 
Q 954 653 1101 496 
Q 1248 339 1248 96 
Q 1248 -198 1053 -473 
Q 858 -749 531 -902 
z
" transform="scale(0.015625)"/>
      <path id="Cmmi10-55" d="M 941 891 
Q 941 656 1033 472 
Q 1125 288 1300 186 
Q 1475 84 1709 84 
Q 1984 84 2245 196 
Q 2506 309 2715 509 
Q 2925 709 3073 965 
Q 3222 1222 3284 1472 
L 3859 3781 
Q 3872 3850 3872 3878 
Q 3872 4147 3378 4147 
Q 3316 4147 3316 4231 
Q 3338 4313 3350 4342 
Q 3363 4372 3425 4372 
L 4813 4372 
Q 4841 4372 4859 4344 
Q 4878 4316 4878 4288 
Q 4878 4284 4865 4239 
Q 4853 4194 4836 4170 
Q 4819 4147 4794 4147 
Q 4181 4147 4084 3756 
L 3506 1447 
Q 3434 1147 3264 864 
Q 3094 581 2845 351 
Q 2597 122 2298 -9 
Q 2000 -141 1691 -141 
Q 1338 -141 1045 14 
Q 753 169 587 447 
Q 422 725 422 1088 
Q 422 1297 469 1472 
L 1088 3956 
Q 1100 4019 1100 4044 
Q 1100 4113 1025 4122 
Q 903 4147 563 4147 
Q 500 4147 500 4231 
Q 522 4313 534 4342 
Q 547 4372 609 4372 
L 2328 4372 
Q 2394 4372 2394 4288 
Q 2391 4272 2381 4234 
Q 2372 4197 2356 4172 
Q 2341 4147 2309 4147 
Q 1919 4147 1766 4103 
Q 1681 4072 1644 3928 
L 1025 1447 
Q 941 1109 941 891 
z
" transform="scale(0.015625)"/>
      <path id="Cmmi10-b0" d="M 1888 -1253 
Q 1888 -1109 1952 -834 
Q 2016 -559 2108 -248 
Q 2200 63 2266 263 
Q 2291 581 2291 744 
Q 2291 1156 2209 1511 
Q 2128 1866 1903 2105 
Q 1678 2344 1275 2344 
Q 1063 2344 852 2253 
Q 641 2163 489 2000 
Q 338 1838 281 1631 
Q 269 1594 231 1594 
L 153 1594 
Q 103 1594 103 1650 
L 103 1672 
Q 175 1959 358 2226 
Q 541 2494 805 2661 
Q 1069 2828 1363 2828 
Q 1663 2828 1881 2625 
Q 2100 2422 2231 2109 
Q 2363 1797 2420 1478 
Q 2478 1159 2478 878 
Q 2800 1753 3200 2534 
L 3297 2741 
Q 3316 2759 3341 2759 
L 3419 2759 
Q 3469 2759 3469 2700 
Q 3469 2688 3456 2663 
L 3359 2463 
Q 3081 1909 2848 1340 
Q 2616 772 2450 244 
Q 2425 28 2354 -347 
Q 2284 -722 2184 -1045 
Q 2084 -1369 1984 -1381 
Q 1888 -1381 1888 -1253 
z
" transform="scale(0.015625)"/>
      <path id="STIXGeneral-Regular-29" d="M 186 4224 
L 262 4326 
Q 992 3891 1408 3148 
Q 1824 2406 1824 1581 
Q 1824 -166 243 -1133 
L 186 -1030 
Q 845 -486 1059 54 
Q 1274 595 1274 1562 
Q 1274 2534 1059 3120 
Q 845 3706 186 4224 
z
" transform="scale(0.015625)"/>
     </defs>
     <use xlink:href="#STIXGeneral-Regular-53" transform="translate(0 0.658854)"/>
     <use xlink:href="#STIXGeneral-Regular-65" transform="translate(55.599991 0.658854)"/>
     <use xlink:href="#STIXGeneral-Regular-63" transform="translate(99.999985 0.658854)"/>
     <use xlink:href="#STIXGeneral-Regular-6f" transform="translate(144.399979 0.658854)"/>
     <use xlink:href="#STIXGeneral-Regular-6e" transform="translate(194.399963 0.658854)"/>
     <use xlink:href="#STIXGeneral-Regular-64" transform="translate(244.399948 0.658854)"/>
     <use xlink:href="#STIXGeneral-Regular-2d" transform="translate(294.399933 0.658854)"/>
     <use xlink:href="#STIXGeneral-Regular-4f" transform="translate(327.699921 0.658854)"/>
     <use xlink:href="#STIXGeneral-Regular-72" transform="translate(399.899902 0.658854)"/>
     <use xlink:href="#STIXGeneral-Regular-64" transform="translate(433.19989 0.658854)"/>
     <use xlink:href="#STIXGeneral-Regular-65" transform="translate(483.199875 0.658854)"/>
     <use xlink:href="#STIXGeneral-Regular-72" transform="translate(527.599869 0.658854)"/>
     <use xlink:href="#STIXGeneral-Regular-20" transform="translate(560.899857 0.658854)"/>
     <use xlink:href="#STIXGeneral-Regular-43" transform="translate(585.899841 0.658854)"/>
     <use xlink:href="#STIXGeneral-Regular-6f" transform="translate(652.599838 0.658854)"/>
     <use xlink:href="#STIXGeneral-Regular-68" transform="translate(702.599823 0.658854)"/>
     <use xlink:href="#STIXGeneral-Regular-65" transform="translate(752.599808 0.658854)"/>
     <use xlink:href="#STIXGeneral-Regular-72" transform="translate(796.999802 0.658854)"/>
     <use xlink:href="#STIXGeneral-Regular-65" transform="translate(830.299789 0.658854)"/>
     <use xlink:href="#STIXGeneral-Regular-6e" transform="translate(874.699783 0.658854)"/>
     <use xlink:href="#STIXGeneral-Regular-63" transform="translate(924.699768 0.658854)"/>
     <use xlink:href="#STIXGeneral-Regular-65" transform="translate(969.099762 0.658854)"/>
     <use xlink:href="#STIXGeneral-Regular-20" transform="translate(1013.499756 0.658854)"/>
     <use xlink:href="#Cmmi10-67" transform="translate(1038.499741 0.658854)"/>
     <use xlink:href="#Cmr10-32" transform="translate(1086.204819 -16.347396) scale(0.7)"/>
     <use xlink:href="#STIXGeneral-Regular-20" transform="translate(1127.582162 0.658854)"/>
     <use xlink:href="#STIXGeneral-Regular-76" transform="translate(1152.582147 0.658854)"/>
     <use xlink:href="#STIXGeneral-Regular-73" transform="translate(1202.582132 0.658854)"/>
     <use xlink:href="#STIXGeneral-Regular-20" transform="translate(1241.482126 0.658854)"/>
     <use xlink:href="#STIXGeneral-Regular-54" transform="translate(1266.482111 0.658854)"/>
     <use xlink:href="#STIXGeneral-Regular-69" transform="translate(1327.582101 0.658854)"/>
     <use xlink:href="#STIXGeneral-Regular-6d" transform="translate(1355.382089 0.658854)"/>
     <use xlink:href="#STIXGeneral-Regular-65" transform="translate(1433.182077 0.658854)"/>
     <use xlink:href="#STIXGeneral-Regular-20" transform="translate(1477.582071 0.658854)"/>
     <use xlink:href="#STIXGeneral-Regular-28" transform="translate(1502.582056 0.658854)"/>
     <use xlink:href="#Cmsy10-6a" transform="translate(1535.882043 0.658854)"/>
     <use xlink:href="#Cmmi10-6e" transform="translate(1563.56759 0.658854)"/>
     <use xlink:href="#Cmr10-3d" transform="translate(1641.13595 0.658854)"/>
     <use xlink:href="#Cmr10-31" transform="translate(1736.38009 0.658854)"/>
     <use xlink:href="#Cmr10-30" transform="translate(1786.38009 0.658854)"/>
     <use xlink:href="#Cmr10-30" transform="translate(1836.38009 0.658854)"/>
     <use xlink:href="#Cmex10-ae" transform="translate(1886.38009 94)"/>
     <use xlink:href="#STIXGeneral-Regular-2c" transform="translate(1933.596887 0.658854)"/>
     <use xlink:href="#STIXGeneral-Regular-20" transform="translate(1958.596872 0.658854)"/>
     <use xlink:href="#Cmmi10-55" transform="translate(1983.596857 0.658854)"/>
     <use xlink:href="#Cmr10-3d" transform="translate(2069.368341 0.658854)"/>
     <use xlink:href="#Cmr10-31" transform="translate(2164.612482 0.658854)"/>
     <use xlink:href="#STIXGeneral-Regular-2c" transform="translate(2214.612482 0.658854)"/>
     <use xlink:href="#STIXGeneral-Regular-20" transform="translate(2239.612466 0.658854)"/>
     <use xlink:href="#Cmmi10-b0" transform="translate(2264.612451 0.658854)"/>
     <use xlink:href="#Cmr10-3d" transform="translate(2333.880029 0.658854)"/>
     <use xlink:href="#Cmr10-31" transform="translate(2429.12417 0.658854)"/>
     <use xlink:href="#STIXGeneral-Regular-29" transform="translate(2479.12417 0.658854)"/>
    </g>
   </g>
   <g id="line2d_154">
    <path d="M 72.002727 180.5625 
L 72.154909 179.90625 
L 72.383182 179.96875 
L 72.535364 179.90625 
L 72.763636 179.9375 
L 72.915818 179.90625 
L 73.068 179.96875 
L 73.144091 179.90625 
L 73.296273 179.96875 
L 73.524545 179.90625 
L 81.361909 179.9375 
L 81.514091 180 
L 81.666273 179.9375 
L 81.742364 180.03125 
L 81.818455 179.96875 
L 82.275 179.96875 
L 82.351091 180.09375 
L 82.427182 179.875 
L 82.503273 179.96875 
L 82.579364 179.78125 
L 82.655455 179.875 
L 82.807636 179.90625 
L 82.883727 179.875 
L 83.035909 179.96875 
L 83.264182 179.78125 
L 83.416364 179.9375 
L 83.720727 179.90625 
L 83.796818 180 
L 83.949 179.875 
L 84.253364 179.90625 
L 85.242545 179.96875 
L 85.318636 180.03125 
L 85.394727 179.875 
L 85.470818 179.96875 
L 85.775182 179.9375 
L 85.927364 180.125 
L 86.155636 179.8125 
L 86.383909 180.03125 
L 86.46 179.90625 
L 86.536091 180 
L 86.612182 179.875 
L 86.764364 179.96875 
L 86.992636 179.96875 
L 87.601364 179.90625 
L 87.677455 180.09375 
L 87.753545 180 
L 88.210091 179.90625 
L 88.514455 180.125 
L 88.590545 179.875 
L 88.666636 179.96875 
L 89.199273 179.96875 
L 89.275364 179.8125 
L 89.351455 179.9375 
L 89.427545 179.875 
L 89.960182 180 
L 90.112364 179.78125 
L 90.340636 180 
L 90.416727 179.78125 
L 90.492818 180.03125 
L 90.568909 179.96875 
L 90.645 179.90625 
L 90.721091 180 
L 90.873273 179.875 
L 90.949364 180 
L 91.101545 179.875 
L 91.253727 179.875 
L 91.329818 180.09375 
L 91.558091 179.71875 
L 91.710273 180 
L 91.862455 179.90625 
L 92.014636 179.96875 
L 92.090727 179.78125 
L 92.319 179.96875 
L 92.851636 179.96875 
L 92.927727 179.78125 
L 93.079909 179.875 
L 93.308182 180 
L 93.384273 179.71875 
L 93.460364 180.03125 
L 93.536455 179.9375 
L 93.688636 180.09375 
L 93.840818 179.78125 
L 93.993 180 
L 94.221273 179.875 
L 94.297364 179.96875 
L 94.373455 179.875 
L 94.449545 180.125 
L 94.525636 179.78125 
L 94.601727 180.15625 
L 94.677818 180 
L 94.83 179.96875 
L 94.982182 179.78125 
L 95.058273 179.875 
L 95.134364 179.78125 
L 95.286545 179.96875 
L 95.438727 179.90625 
L 95.514818 180 
L 95.743091 179.875 
L 95.819182 179.90625 
L 95.895273 179.8125 
L 95.971364 179.96875 
L 96.047455 179.875 
L 96.580091 179.96875 
L 96.656182 180.09375 
L 96.732273 179.71875 
L 96.808364 180.15625 
L 96.884455 179.96875 
L 96.960545 179.71875 
L 97.112727 179.90625 
L 97.417091 179.875 
L 97.493182 179.78125 
L 97.569273 179.96875 
L 97.645364 179.71875 
L 97.721455 179.78125 
L 97.873636 179.90625 
L 98.101909 179.875 
L 98.254091 179.875 
L 98.330182 179.78125 
L 98.406273 180.09375 
L 98.482364 180 
L 98.710636 180 
L 98.786727 180.15625 
L 98.862818 179.90625 
L 98.938909 179.96875 
L 99.319364 179.96875 
L 99.395455 179.8125 
L 99.471545 179.96875 
L 99.547636 179.90625 
L 99.623727 179.90625 
L 99.699818 179.78125 
L 99.775909 179.90625 
L 99.852 180.25 
L 100.080273 179.8125 
L 100.308545 179.8125 
L 100.384636 179.96875 
L 100.612909 179.65625 
L 100.765091 180.09375 
L 100.841182 179.9375 
L 101.297727 179.78125 
L 101.373818 179.96875 
L 101.449909 179.90625 
L 101.602091 180 
L 101.754273 179.78125 
L 101.906455 180 
L 101.982545 179.9375 
L 102.134727 179.875 
L 102.210818 180 
L 102.286909 179.9375 
L 102.439091 180 
L 102.591273 179.5625 
L 102.743455 179.96875 
L 102.819545 179.875 
L 102.895636 179.96875 
L 103.047818 179.8125 
L 103.276091 179.875 
L 103.352182 179.875 
L 103.428273 179.71875 
L 103.732636 180.09375 
L 103.808727 179.90625 
L 103.884818 180.1875 
L 104.113091 179.71875 
L 104.265273 179.9375 
L 104.417455 179.78125 
L 104.569636 180.09375 
L 104.645727 179.78125 
L 104.721818 179.9375 
L 104.797909 179.78125 
L 104.874 179.875 
L 104.950091 180.15625 
L 105.026182 179.6875 
L 105.102273 179.96875 
L 105.254455 179.71875 
L 105.330545 179.96875 
L 105.406636 179.78125 
L 105.482727 180 
L 105.558818 179.875 
L 105.711 179.96875 
L 105.939273 179.875 
L 106.471909 179.78125 
L 106.548 180 
L 106.624091 179.90625 
L 106.852364 179.875 
L 106.928455 179.78125 
L 107.004545 180 
L 107.080636 179.78125 
L 107.156727 180 
L 107.232818 179.90625 
L 107.308909 179.90625 
L 107.385 179.78125 
L 107.613273 179.96875 
L 107.765455 179.90625 
L 107.841545 180.15625 
L 107.993727 179.78125 
L 108.222 180.8125 
L 108.374182 181.0625 
L 108.906818 187.84375 
L 109.211182 192.46875 
L 110.504727 211.15625 
L 110.961273 218.3125 
L 111.189545 221.3125 
L 111.646091 228.34375 
L 111.874364 231.5 
L 112.483091 240.125 
L 113.396182 253.84375 
L 113.700545 257.96875 
L 114.157091 264.9375 
L 114.765818 273.53125 
L 115.374545 282.78125 
L 116.363727 296.9375 
L 116.972455 306.25 
L 117.276818 310.40625 
L 117.885545 319.4375 
L 118.266 324.96875 
L 119.559545 343.71875 
L 120.016091 350.625 
L 120.244364 353.5625 
L 120.677569 360.263625 
L 120.677569 360.263625 
" clip-path="url(#p99104f2d5a)" style="fill: none; stroke-dasharray: 9.62,4.16; stroke-dashoffset: 0; stroke: #1f77b4; stroke-width: 2.6"/>
    <defs>
     <path id="m4b92543cab" d="M 0 -1.8 
L -1.8 1.8 
L 1.8 1.8 
z
" style="stroke: #1f77b4; stroke-linejoin: miter"/>
    </defs>
    <g clip-path="url(#p99104f2d5a)">
     <use xlink:href="#m4b92543cab" x="72.002727" y="180.5625" style="fill: #1f77b4; stroke: #1f77b4; stroke-linejoin: miter"/>
     <use xlink:href="#m4b92543cab" x="102.439091" y="180" style="fill: #1f77b4; stroke: #1f77b4; stroke-linejoin: miter"/>
     <use xlink:href="#m4b92543cab" x="132.875455" y="537.96875" style="fill: #1f77b4; stroke: #1f77b4; stroke-linejoin: miter"/>
     <use xlink:href="#m4b92543cab" x="163.311818" y="984.0625" style="fill: #1f77b4; stroke: #1f77b4; stroke-linejoin: miter"/>
     <use xlink:href="#m4b92543cab" x="193.748182" y="1429.65625" style="fill: #1f77b4; stroke: #1f77b4; stroke-linejoin: miter"/>
     <use xlink:href="#m4b92543cab" x="224.184545" y="1875.34375" style="fill: #1f77b4; stroke: #1f77b4; stroke-linejoin: miter"/>
     <use xlink:href="#m4b92543cab" x="254.620909" y="2321.84375" style="fill: #1f77b4; stroke: #1f77b4; stroke-linejoin: miter"/>
     <use xlink:href="#m4b92543cab" x="285.057273" y="2767.75" style="fill: #1f77b4; stroke: #1f77b4; stroke-linejoin: miter"/>
     <use xlink:href="#m4b92543cab" x="315.493636" y="3214.5625" style="fill: #1f77b4; stroke: #1f77b4; stroke-linejoin: miter"/>
     <use xlink:href="#m4b92543cab" x="345.93" y="3660.78125" style="fill: #1f77b4; stroke: #1f77b4; stroke-linejoin: miter"/>
     <use xlink:href="#m4b92543cab" x="376.366364" y="4107.03125" style="fill: #1f77b4; stroke: #1f77b4; stroke-linejoin: miter"/>
     <use xlink:href="#m4b92543cab" x="406.802727" y="4553.59375" style="fill: #1f77b4; stroke: #1f77b4; stroke-linejoin: miter"/>
     <use xlink:href="#m4b92543cab" x="437.239091" y="4999.46875" style="fill: #1f77b4; stroke: #1f77b4; stroke-linejoin: miter"/>
    </g>
   </g>
   <g id="line2d_155">
    <path d="M 72.002727 180.5625 
L 452.457273 180.5625 
L 452.457273 180.5625 
" clip-path="url(#p99104f2d5a)" style="fill: none; stroke: #000000; stroke-width: 2.3; stroke-linecap: square"/>
   </g>
   <g id="legend_1">
    <g id="line2d_156">
     <path d="M 363.865625 50.225625 
L 374.865625 50.225625 
L 385.865625 50.225625 
" style="fill: none; stroke: #000000; stroke-width: 2.3; stroke-linecap: square"/>
    </g>
    <g id="text_20">
     <!-- Exact -->
     <g transform="translate(394.665625 54.075625) scale(0.11 -0.11)">
      <defs>
       <path id="STIXGeneral-Regular-45" d="M 3821 1082 
L 3526 0 
L 77 0 
L 77 122 
Q 442 147 538 252 
Q 634 358 634 730 
L 634 3520 
Q 634 3878 534 3987 
Q 435 4096 77 4115 
L 77 4237 
L 3469 4237 
L 3494 3322 
L 3334 3322 
Q 3264 3750 3085 3872 
Q 2906 3994 2349 3994 
L 1510 3994 
Q 1370 3994 1328 3952 
Q 1286 3910 1286 3763 
L 1286 2355 
L 2253 2355 
Q 2656 2355 2787 2470 
Q 2918 2586 2976 2970 
L 3123 2970 
L 3123 1472 
L 2976 1472 
Q 2918 1875 2790 1984 
Q 2662 2093 2253 2093 
L 1286 2093 
L 1286 538 
Q 1286 346 1420 291 
Q 1555 237 1933 237 
L 2163 237 
Q 2848 237 3136 403 
Q 3424 570 3642 1082 
L 3821 1082 
z
" transform="scale(0.015625)"/>
       <path id="STIXGeneral-Regular-78" d="M 3066 0 
L 1779 0 
L 1779 96 
Q 1939 109 1987 137 
Q 2035 166 2035 250 
Q 2035 307 1997 365 
L 1414 1261 
L 909 474 
Q 781 275 781 211 
Q 781 96 1037 96 
L 1037 0 
L 109 0 
L 109 96 
Q 269 109 355 169 
Q 442 230 576 422 
L 1306 1478 
L 704 2400 
Q 557 2624 454 2704 
Q 352 2784 211 2784 
L 154 2784 
L 154 2880 
L 1478 2880 
L 1478 2784 
Q 1203 2778 1203 2643 
Q 1203 2509 1498 2074 
Q 1581 1958 1587 1946 
Q 1619 1990 1779 2227 
Q 1811 2285 1856 2349 
Q 1901 2413 1923 2451 
Q 1946 2490 1971 2528 
Q 1997 2566 2006 2595 
Q 2016 2624 2016 2643 
Q 2016 2765 1760 2784 
L 1760 2880 
L 2771 2880 
L 2771 2784 
Q 2445 2771 2253 2502 
L 1722 1734 
L 2541 480 
Q 2790 96 3066 96 
L 3066 0 
z
" transform="scale(0.015625)"/>
       <path id="STIXGeneral-Regular-61" d="M 2829 422 
L 2829 243 
Q 2586 -64 2253 -64 
Q 1888 -64 1843 403 
L 1837 403 
Q 1427 -64 909 -64 
Q 608 -64 422 112 
Q 237 288 237 602 
Q 237 1050 685 1350 
Q 992 1555 1837 1869 
L 1837 2214 
Q 1837 2502 1699 2646 
Q 1562 2790 1338 2790 
Q 1146 2790 1018 2697 
Q 890 2605 890 2477 
Q 890 2419 909 2348 
Q 928 2278 928 2208 
Q 928 2112 841 2029 
Q 755 1946 634 1946 
Q 525 1946 441 2029 
Q 358 2112 358 2240 
Q 358 2547 685 2752 
Q 986 2944 1421 2944 
Q 1939 2944 2176 2656 
Q 2291 2522 2323 2384 
Q 2355 2246 2355 1946 
L 2355 723 
Q 2355 301 2554 301 
Q 2682 301 2829 422 
z
M 1837 813 
L 1837 1715 
Q 1248 1510 1018 1293 
Q 800 1094 800 800 
Q 800 557 921 432 
Q 1043 307 1242 307 
Q 1453 307 1613 410 
Q 1747 506 1792 589 
Q 1837 672 1837 813 
z
" transform="scale(0.015625)"/>
       <path id="STIXGeneral-Regular-74" d="M 1702 493 
L 1786 422 
Q 1478 -64 1011 -64 
Q 448 -64 448 749 
L 448 2675 
L 109 2675 
Q 83 2694 83 2720 
Q 83 2771 192 2842 
Q 435 2982 813 3526 
Q 826 3546 874 3606 
Q 922 3667 941 3706 
Q 986 3706 986 3622 
L 986 2880 
L 1632 2880 
L 1632 2675 
L 986 2675 
L 986 845 
Q 986 538 1062 403 
Q 1139 269 1318 269 
Q 1510 269 1702 493 
z
" transform="scale(0.015625)"/>
      </defs>
      <use xlink:href="#STIXGeneral-Regular-45"/>
      <use xlink:href="#STIXGeneral-Regular-78" transform="translate(61.099991 0)"/>
      <use xlink:href="#STIXGeneral-Regular-61" transform="translate(111.099976 0)"/>
      <use xlink:href="#STIXGeneral-Regular-63" transform="translate(155.499969 0)"/>
      <use xlink:href="#STIXGeneral-Regular-74" transform="translate(199.899963 0)"/>
     </g>
    </g>
    <g id="line2d_157">
     <path d="M 363.865625 65.812969 
L 374.865625 65.812969 
L 385.865625 65.812969 
" style="fill: none; stroke-dasharray: 9.62,4.16; stroke-dashoffset: 0; stroke: #1f77b4; stroke-width: 2.6"/>
     <g>
      <use xlink:href="#m4b92543cab" x="374.865625" y="65.812969" style="fill: #1f77b4; stroke: #1f77b4; stroke-linejoin: miter"/>
     </g>
    </g>
    <g id="text_21">
     <!-- Density Matrix -->
     <g transform="translate(394.665625 69.662969) scale(0.11 -0.11)">
      <defs>
       <path id="STIXGeneral-Regular-44" d="M 102 4237 
L 1830 4237 
Q 3078 4237 3750 3654 
Q 4384 3110 4384 2138 
Q 4384 966 3514 410 
Q 2880 0 1901 0 
L 102 0 
L 102 122 
Q 474 147 570 252 
Q 666 358 666 736 
L 666 3520 
Q 666 3891 570 3990 
Q 474 4090 102 4115 
L 102 4237 
z
M 1318 3731 
L 1318 538 
Q 1318 365 1379 301 
Q 1440 237 1626 237 
Q 2125 237 2432 307 
Q 2739 378 3021 570 
Q 3686 1018 3686 2099 
Q 3686 3027 3078 3558 
Q 2803 3802 2476 3901 
Q 2150 4000 1658 4000 
Q 1472 4000 1395 3942 
Q 1318 3885 1318 3731 
z
" transform="scale(0.015625)"/>
       <path id="STIXGeneral-Regular-79" d="M 3040 2880 
L 3040 2784 
Q 2925 2771 2854 2700 
Q 2784 2630 2720 2458 
L 1760 -160 
Q 1510 -838 1257 -1116 
Q 1005 -1395 640 -1395 
Q 435 -1395 313 -1289 
Q 192 -1184 192 -1024 
Q 192 -902 272 -816 
Q 352 -730 467 -730 
Q 653 -730 800 -813 
Q 883 -858 966 -858 
Q 1101 -858 1286 -576 
Q 1376 -448 1459 -211 
Q 1542 26 1542 115 
Q 1542 198 1274 762 
L 429 2566 
Q 346 2752 90 2790 
L 90 2880 
L 1402 2880 
L 1402 2784 
Q 1197 2778 1117 2739 
Q 1037 2701 1037 2611 
Q 1037 2541 1120 2349 
L 1837 749 
L 2458 2515 
Q 2483 2573 2483 2630 
Q 2483 2784 2189 2784 
L 2189 2880 
L 3040 2880 
z
" transform="scale(0.015625)"/>
       <path id="STIXGeneral-Regular-4d" d="M 5530 0 
L 3738 0 
L 3738 122 
Q 4115 147 4214 265 
Q 4314 384 4314 787 
L 4314 3661 
L 2682 0 
L 2592 0 
L 979 3514 
L 979 966 
Q 979 448 1088 294 
Q 1197 141 1574 122 
L 1574 0 
L 77 0 
L 77 122 
Q 358 141 480 205 
Q 602 269 650 432 
Q 698 595 698 966 
L 698 3514 
Q 698 3878 589 3984 
Q 480 4090 90 4115 
L 90 4237 
L 1357 4237 
L 2835 1024 
L 4250 4237 
L 5523 4237 
L 5523 4115 
Q 5178 4109 5072 3993 
Q 4966 3878 4966 3520 
L 4966 717 
Q 4966 378 5072 262 
Q 5178 147 5530 122 
L 5530 0 
z
" transform="scale(0.015625)"/>
      </defs>
      <use xlink:href="#STIXGeneral-Regular-44"/>
      <use xlink:href="#STIXGeneral-Regular-65" transform="translate(72.199982 0)"/>
      <use xlink:href="#STIXGeneral-Regular-6e" transform="translate(116.599976 0)"/>
      <use xlink:href="#STIXGeneral-Regular-73" transform="translate(166.59996 0)"/>
      <use xlink:href="#STIXGeneral-Regular-69" transform="translate(205.499954 0)"/>
      <use xlink:href="#STIXGeneral-Regular-74" transform="translate(233.299942 0)"/>
      <use xlink:href="#STIXGeneral-Regular-79" transform="translate(261.09993 0)"/>
      <use xlink:href="#STIXGeneral-Regular-20" transform="translate(311.099915 0)"/>
      <use xlink:href="#STIXGeneral-Regular-4d" transform="translate(336.099899 0)"/>
      <use xlink:href="#STIXGeneral-Regular-61" transform="translate(424.999893 0)"/>
      <use xlink:href="#STIXGeneral-Regular-74" transform="translate(469.399887 0)"/>
      <use xlink:href="#STIXGeneral-Regular-72" transform="translate(497.199875 0)"/>
      <use xlink:href="#STIXGeneral-Regular-69" transform="translate(530.499863 0)"/>
      <use xlink:href="#STIXGeneral-Regular-78" transform="translate(558.29985 0)"/>
     </g>
    </g>
    <g id="line2d_158">
     <path d="M 363.865625 81.410625 
L 374.865625 81.410625 
L 385.865625 81.410625 
" style="fill: none; stroke-dasharray: 16,4,2.5,4; stroke-dashoffset: 0; stroke: #ff7f0e; stroke-width: 2.5"/>
     <g>
      <use xlink:href="#m3fa59177f1" x="374.865625" y="81.410625" style="fill: #ff7f0e; stroke: #ff7f0e"/>
     </g>
    </g>
    <g id="text_22">
     <!-- Monte Carlo -->
     <g transform="translate(394.665625 85.260625) scale(0.11 -0.11)">
      <defs>
       <path id="STIXGeneral-Regular-6c" d="M 1645 0 
L 134 0 
L 134 96 
Q 435 122 531 221 
Q 627 320 627 589 
L 627 3590 
Q 627 3821 569 3910 
Q 512 4000 358 4000 
Q 224 4000 122 3987 
L 122 4090 
Q 730 4237 1133 4371 
L 1165 4346 
L 1165 557 
Q 1165 288 1254 201 
Q 1344 115 1645 96 
L 1645 0 
z
" transform="scale(0.015625)"/>
      </defs>
      <use xlink:href="#STIXGeneral-Regular-4d"/>
      <use xlink:href="#STIXGeneral-Regular-6f" transform="translate(88.899994 0)"/>
      <use xlink:href="#STIXGeneral-Regular-6e" transform="translate(138.899979 0)"/>
      <use xlink:href="#STIXGeneral-Regular-74" transform="translate(188.899963 0)"/>
      <use xlink:href="#STIXGeneral-Regular-65" transform="translate(216.699951 0)"/>
      <use xlink:href="#STIXGeneral-Regular-20" transform="translate(261.099945 0)"/>
      <use xlink:href="#STIXGeneral-Regular-43" transform="translate(286.09993 0)"/>
      <use xlink:href="#STIXGeneral-Regular-61" transform="translate(352.799927 0)"/>
      <use xlink:href="#STIXGeneral-Regular-72" transform="translate(397.199921 0)"/>
      <use xlink:href="#STIXGeneral-Regular-6c" transform="translate(430.499908 0)"/>
      <use xlink:href="#STIXGeneral-Regular-6f" transform="translate(458.299896 0)"/>
     </g>
    </g>
    <g id="line2d_159">
     <path d="M 363.865625 96.997969 
L 374.865625 96.997969 
L 385.865625 96.997969 
" style="fill: none; stroke-dasharray: 2.7,4.455; stroke-dashoffset: 0; stroke: #2ca02c; stroke-width: 2.7"/>
     <g>
      <use xlink:href="#mc9e83f5097" x="374.865625" y="96.997969" style="fill: #2ca02c; stroke: #2ca02c; stroke-linejoin: miter"/>
     </g>
    </g>
    <g id="text_23">
     <!-- Positive-P -->
     <g transform="translate(394.665625 100.847969) scale(0.11 -0.11)">
      <defs>
       <path id="STIXGeneral-Regular-50" d="M 102 4237 
L 1760 4237 
Q 2669 4237 3149 3834 
Q 3469 3565 3469 3072 
Q 3469 2560 3104 2234 
Q 2835 1990 2553 1916 
Q 2272 1843 1734 1843 
Q 1549 1843 1293 1862 
L 1293 717 
Q 1293 352 1398 246 
Q 1504 141 1894 122 
L 1894 0 
L 102 0 
L 102 122 
Q 474 147 557 256 
Q 640 365 640 781 
L 640 3526 
Q 640 3885 547 3987 
Q 454 4090 102 4115 
L 102 4237 
z
M 1293 3770 
L 1293 2118 
Q 1510 2099 1683 2099 
Q 2202 2099 2486 2352 
Q 2771 2605 2771 3040 
Q 2771 3558 2476 3779 
Q 2182 4000 1517 4000 
Q 1382 4000 1337 3952 
Q 1293 3904 1293 3770 
z
" transform="scale(0.015625)"/>
      </defs>
      <use xlink:href="#STIXGeneral-Regular-50"/>
      <use xlink:href="#STIXGeneral-Regular-6f" transform="translate(55.699997 0)"/>
      <use xlink:href="#STIXGeneral-Regular-73" transform="translate(105.699982 0)"/>
      <use xlink:href="#STIXGeneral-Regular-69" transform="translate(144.599976 0)"/>
      <use xlink:href="#STIXGeneral-Regular-74" transform="translate(172.399963 0)"/>
      <use xlink:href="#STIXGeneral-Regular-69" transform="translate(200.199951 0)"/>
      <use xlink:href="#STIXGeneral-Regular-76" transform="translate(227.999939 0)"/>
      <use xlink:href="#STIXGeneral-Regular-65" transform="translate(277.999924 0)"/>
      <use xlink:href="#STIXGeneral-Regular-2d" transform="translate(322.399918 0)"/>
      <use xlink:href="#STIXGeneral-Regular-50" transform="translate(355.699905 0)"/>
     </g>
    </g>
   </g>
  </g>
 </g>
 <defs>
  <clipPath id="p99104f2d5a">
   <rect x="52.98" y="36.475625" width="418.5" height="288.288"/>
  </clipPath>
 </defs>
</svg>
