<?xml version="1.0" encoding="utf-8" standalone="no"?>
<!DOCTYPE svg PUBLIC "-//W3C//DTD SVG 1.1//EN"
  "http://www.w3.org/Graphics/SVG/1.1/DTD/svg11.dtd">
<svg xmlns:xlink="http://www.w3.org/1999/xlink" width="474.51pt" height="360.663625pt" viewBox="0 0 474.51 360.663625" xmlns="http://www.w3.org/2000/svg" version="1.1">
 <metadata>
  <rdf:RDF xmlns:dc="http://purl.org/dc/elements/1.1/" xmlns:cc="http://creativecommons.org/ns#" xmlns:rdf="http://www.w3.org/1999/02/22-rdf-syntax-ns#">
   <cc:Work>
    <dc:type rdf:resource="http://purl.org/dc/dcmitype/StillImage"/>
    <dc:date>2026-04-24T11:40:03.086785</dc:date>
    <dc:format>image/svg+xml</dc:format>
    <dc:creator>
     <cc:Agent>
      <dc:title>Matplotlib v3.10.8, https://matplotlib.org/</dc:title>
     </cc:Agent>
    </dc:creator>
   </cc:Work>
  </rdf:RDF>
 </metadata>
 <defs>
  <style type="text/css">*{stroke-linejoin: round; stroke-linecap: butt}</style>
 </defs>
 <g id="figure_1">
  <g id="patch_1">
   <path d="M 0 360.663625 
L 474.51 360.663625 
L 474.51 0 
L 0 0 
z
" style="fill: #ffffff"/>
  </g>
  <g id="axes_1">
   <g id="patch_2">
    <path d="M 37.98 324.763625 
L 456.48 324.763625 
L 456.48 36.475625 
L 37.98 36.475625 
z
" style="fill: #ffffff"/>
   </g>
   <g id="matplotlib.axis_1">
    <g id="xtick_1">
     <g id="line2d_1">
      <path d="M 57.002727 324.763625 
L 57.002727 36.475625 
" clip-path="url(#pec9d1d04e2)" style="fill: none; stroke: #b0b0b0; stroke-opacity: 0.35; stroke-width: 0.5; stroke-linecap: square"/>
     </g>
     <g id="line2d_2">
      <defs>
       <path id="m57dca95b0b" d="M 0 0 
L 0 -3 
" style="stroke: #000000; stroke-width: 0.5"/>
      </defs>
      <g>
       <use xlink:href="#m57dca95b0b" x="57.002727" y="324.763625" style="stroke: #000000; stroke-width: 0.5"/>
      </g>
     </g>
     <g id="line2d_3">
      <defs>
       <path id="mcc79a78677" d="M 0 0 
L 0 3 
" style="stroke: #000000; stroke-width: 0.5"/>
      </defs>
      <g>
       <use xlink:href="#mcc79a78677" x="57.002727" y="36.475625" style="stroke: #000000; stroke-width: 0.5"/>
      </g>
     </g>
     <g id="text_1">
      <!-- $\mathdefault{0}$ -->
      <g transform="translate(54.002727 336.45925) scale(0.12 -0.12)">
       <defs>
        <path id="STIXGeneral-Regular-30" d="M 3046 2112 
Q 3046 1683 2963 1302 
Q 2880 922 2717 602 
Q 2554 282 2266 96 
Q 1978 -90 1600 -90 
Q 1210 -90 915 108 
Q 621 307 461 640 
Q 301 973 227 1350 
Q 154 1728 154 2150 
Q 154 2746 301 3222 
Q 448 3699 790 4012 
Q 1133 4326 1626 4326 
Q 2253 4326 2649 3712 
Q 3046 3098 3046 2112 
z
M 2432 2080 
Q 2432 3091 2217 3625 
Q 2003 4160 1587 4160 
Q 1190 4160 979 3622 
Q 768 3085 768 2106 
Q 768 1120 979 598 
Q 1190 77 1600 77 
Q 2003 77 2217 598 
Q 2432 1120 2432 2080 
z
" transform="scale(0.015625)"/>
       </defs>
       <use xlink:href="#STIXGeneral-Regular-30" transform="translate(0 0.40625)"/>
      </g>
     </g>
    </g>
    <g id="xtick_2">
     <g id="line2d_4">
      <path d="M 133.093636 324.763625 
L 133.093636 36.475625 
" clip-path="url(#pec9d1d04e2)" style="fill: none; stroke: #b0b0b0; stroke-opacity: 0.35; stroke-width: 0.5; stroke-linecap: square"/>
     </g>
     <g id="line2d_5">
      <g>
       <use xlink:href="#m57dca95b0b" x="133.093636" y="324.763625" style="stroke: #000000; stroke-width: 0.5"/>
      </g>
     </g>
     <g id="line2d_6">
      <g>
       <use xlink:href="#mcc79a78677" x="133.093636" y="36.475625" style="stroke: #000000; stroke-width: 0.5"/>
      </g>
     </g>
     <g id="text_2">
      <!-- $\mathdefault{1}$ -->
      <g transform="translate(130.093636 336.45925) scale(0.12 -0.12)">
       <defs>
        <path id="STIXGeneral-Regular-31" d="M 2522 0 
L 755 0 
L 755 96 
Q 1107 115 1235 227 
Q 1363 339 1363 608 
L 1363 3482 
Q 1363 3795 1171 3795 
Q 1082 3795 883 3718 
L 710 3654 
L 710 3744 
L 1856 4326 
L 1914 4307 
L 1914 486 
Q 1914 275 2042 185 
Q 2170 96 2522 96 
L 2522 0 
z
" transform="scale(0.015625)"/>
       </defs>
       <use xlink:href="#STIXGeneral-Regular-31" transform="translate(0 0.40625)"/>
      </g>
     </g>
    </g>
    <g id="xtick_3">
     <g id="line2d_7">
      <path d="M 209.184545 324.763625 
L 209.184545 36.475625 
" clip-path="url(#pec9d1d04e2)" style="fill: none; stroke: #b0b0b0; stroke-opacity: 0.35; stroke-width: 0.5; stroke-linecap: square"/>
     </g>
     <g id="line2d_8">
      <g>
       <use xlink:href="#m57dca95b0b" x="209.184545" y="324.763625" style="stroke: #000000; stroke-width: 0.5"/>
      </g>
     </g>
     <g id="line2d_9">
      <g>
       <use xlink:href="#mcc79a78677" x="209.184545" y="36.475625" style="stroke: #000000; stroke-width: 0.5"/>
      </g>
     </g>
     <g id="text_3">
      <!-- $\mathdefault{2}$ -->
      <g transform="translate(206.184545 336.45925) scale(0.12 -0.12)">
       <defs>
        <path id="STIXGeneral-Regular-32" d="M 3034 877 
L 2688 0 
L 186 0 
L 186 77 
L 1325 1286 
Q 1773 1754 1965 2144 
Q 2157 2534 2157 2950 
Q 2157 3379 1920 3616 
Q 1683 3853 1267 3853 
Q 922 3853 720 3673 
Q 518 3494 326 3021 
L 192 3053 
Q 301 3648 630 3987 
Q 960 4326 1523 4326 
Q 2054 4326 2380 4006 
Q 2707 3686 2707 3200 
Q 2707 2477 1888 1613 
L 832 486 
L 2330 486 
Q 2541 486 2665 569 
Q 2790 653 2944 915 
L 3034 877 
z
" transform="scale(0.015625)"/>
       </defs>
       <use xlink:href="#STIXGeneral-Regular-32" transform="translate(0 0.40625)"/>
      </g>
     </g>
    </g>
    <g id="xtick_4">
     <g id="line2d_10">
      <path d="M 285.275455 324.763625 
L 285.275455 36.475625 
" clip-path="url(#pec9d1d04e2)" style="fill: none; stroke: #b0b0b0; stroke-opacity: 0.35; stroke-width: 0.5; stroke-linecap: square"/>
     </g>
     <g id="line2d_11">
      <g>
       <use xlink:href="#m57dca95b0b" x="285.275455" y="324.763625" style="stroke: #000000; stroke-width: 0.5"/>
      </g>
     </g>
     <g id="line2d_12">
      <g>
       <use xlink:href="#mcc79a78677" x="285.275455" y="36.475625" style="stroke: #000000; stroke-width: 0.5"/>
      </g>
     </g>
     <g id="text_4">
      <!-- $\mathdefault{3}$ -->
      <g transform="translate(282.275455 336.45925) scale(0.12 -0.12)">
       <defs>
        <path id="STIXGeneral-Regular-33" d="M 390 3264 
L 288 3290 
Q 435 3770 748 4048 
Q 1062 4326 1542 4326 
Q 1990 4326 2265 4083 
Q 2541 3840 2541 3450 
Q 2541 2925 1946 2566 
Q 2298 2413 2477 2227 
Q 2758 1914 2758 1402 
Q 2758 890 2464 506 
Q 2246 211 1840 60 
Q 1434 -90 979 -90 
Q 262 -90 262 275 
Q 262 378 339 442 
Q 416 506 525 506 
Q 685 506 915 339 
Q 1197 141 1466 141 
Q 1818 141 2058 425 
Q 2298 710 2298 1120 
Q 2298 1856 1632 2048 
Q 1434 2112 979 2112 
L 979 2202 
Q 1338 2323 1517 2432 
Q 2035 2726 2035 3290 
Q 2035 3610 1852 3776 
Q 1670 3942 1344 3942 
Q 768 3942 390 3264 
z
" transform="scale(0.015625)"/>
       </defs>
       <use xlink:href="#STIXGeneral-Regular-33" transform="translate(0 0.40625)"/>
      </g>
     </g>
    </g>
    <g id="xtick_5">
     <g id="line2d_13">
      <path d="M 361.366364 324.763625 
L 361.366364 36.475625 
" clip-path="url(#pec9d1d04e2)" style="fill: none; stroke: #b0b0b0; stroke-opacity: 0.35; stroke-width: 0.5; stroke-linecap: square"/>
     </g>
     <g id="line2d_14">
      <g>
       <use xlink:href="#m57dca95b0b" x="361.366364" y="324.763625" style="stroke: #000000; stroke-width: 0.5"/>
      </g>
     </g>
     <g id="line2d_15">
      <g>
       <use xlink:href="#mcc79a78677" x="361.366364" y="36.475625" style="stroke: #000000; stroke-width: 0.5"/>
      </g>
     </g>
     <g id="text_5">
      <!-- $\mathdefault{4}$ -->
      <g transform="translate(358.366364 336.45925) scale(0.12 -0.12)">
       <defs>
        <path id="STIXGeneral-Regular-34" d="M 3027 1069 
L 2368 1069 
L 2368 0 
L 1869 0 
L 1869 1069 
L 77 1069 
L 77 1478 
L 2086 4326 
L 2368 4326 
L 2368 1478 
L 3027 1478 
L 3027 1069 
z
M 1869 1478 
L 1869 3674 
L 333 1478 
L 1869 1478 
z
" transform="scale(0.015625)"/>
       </defs>
       <use xlink:href="#STIXGeneral-Regular-34" transform="translate(0 0.40625)"/>
      </g>
     </g>
    </g>
    <g id="xtick_6">
     <g id="line2d_16">
      <path d="M 437.457273 324.763625 
L 437.457273 36.475625 
" clip-path="url(#pec9d1d04e2)" style="fill: none; stroke: #b0b0b0; stroke-opacity: 0.35; stroke-width: 0.5; stroke-linecap: square"/>
     </g>
     <g id="line2d_17">
      <g>
       <use xlink:href="#m57dca95b0b" x="437.457273" y="324.763625" style="stroke: #000000; stroke-width: 0.5"/>
      </g>
     </g>
     <g id="line2d_18">
      <g>
       <use xlink:href="#mcc79a78677" x="437.457273" y="36.475625" style="stroke: #000000; stroke-width: 0.5"/>
      </g>
     </g>
     <g id="text_6">
      <!-- $\mathdefault{5}$ -->
      <g transform="translate(434.457273 336.45925) scale(0.12 -0.12)">
       <defs>
        <path id="STIXGeneral-Regular-35" d="M 2803 4358 
L 2573 3814 
Q 2534 3731 2400 3731 
L 1158 3731 
L 902 3187 
Q 1606 3053 1920 2896 
Q 2234 2739 2502 2368 
Q 2726 2061 2726 1555 
Q 2726 1094 2576 780 
Q 2426 467 2099 224 
Q 1664 -90 1011 -90 
Q 646 -90 422 19 
Q 198 128 198 307 
Q 198 550 486 550 
Q 717 550 960 352 
Q 1210 147 1414 147 
Q 1747 147 2012 480 
Q 2278 813 2278 1229 
Q 2278 1843 1850 2189 
Q 1293 2637 486 2637 
Q 410 2637 410 2688 
L 416 2720 
L 1114 4237 
L 2438 4237 
Q 2547 4237 2608 4269 
Q 2669 4301 2746 4403 
L 2803 4358 
z
" transform="scale(0.015625)"/>
       </defs>
       <use xlink:href="#STIXGeneral-Regular-35" transform="translate(0 0.203125)"/>
      </g>
     </g>
    </g>
    <g id="xtick_7">
     <g id="line2d_19">
      <defs>
       <path id="m9b5ebdc51c" d="M 0 0 
L 0 -1.5 
" style="stroke: #000000; stroke-width: 0.5"/>
      </defs>
      <g>
       <use xlink:href="#m9b5ebdc51c" x="41.784545" y="324.763625" style="stroke: #000000; stroke-width: 0.5"/>
      </g>
     </g>
     <g id="line2d_20">
      <defs>
       <path id="mc8466dc37f" d="M 0 0 
L 0 1.5 
" style="stroke: #000000; stroke-width: 0.5"/>
      </defs>
      <g>
       <use xlink:href="#mc8466dc37f" x="41.784545" y="36.475625" style="stroke: #000000; stroke-width: 0.5"/>
      </g>
     </g>
    </g>
    <g id="xtick_8">
     <g id="line2d_21">
      <g>
       <use xlink:href="#m9b5ebdc51c" x="72.220909" y="324.763625" style="stroke: #000000; stroke-width: 0.5"/>
      </g>
     </g>
     <g id="line2d_22">
      <g>
       <use xlink:href="#mc8466dc37f" x="72.220909" y="36.475625" style="stroke: #000000; stroke-width: 0.5"/>
      </g>
     </g>
    </g>
    <g id="xtick_9">
     <g id="line2d_23">
      <g>
       <use xlink:href="#m9b5ebdc51c" x="87.439091" y="324.763625" style="stroke: #000000; stroke-width: 0.5"/>
      </g>
     </g>
     <g id="line2d_24">
      <g>
       <use xlink:href="#mc8466dc37f" x="87.439091" y="36.475625" style="stroke: #000000; stroke-width: 0.5"/>
      </g>
     </g>
    </g>
    <g id="xtick_10">
     <g id="line2d_25">
      <g>
       <use xlink:href="#m9b5ebdc51c" x="102.657273" y="324.763625" style="stroke: #000000; stroke-width: 0.5"/>
      </g>
     </g>
     <g id="line2d_26">
      <g>
       <use xlink:href="#mc8466dc37f" x="102.657273" y="36.475625" style="stroke: #000000; stroke-width: 0.5"/>
      </g>
     </g>
    </g>
    <g id="xtick_11">
     <g id="line2d_27">
      <g>
       <use xlink:href="#m9b5ebdc51c" x="117.875455" y="324.763625" style="stroke: #000000; stroke-width: 0.5"/>
      </g>
     </g>
     <g id="line2d_28">
      <g>
       <use xlink:href="#mc8466dc37f" x="117.875455" y="36.475625" style="stroke: #000000; stroke-width: 0.5"/>
      </g>
     </g>
    </g>
    <g id="xtick_12">
     <g id="line2d_29">
      <g>
       <use xlink:href="#m9b5ebdc51c" x="148.311818" y="324.763625" style="stroke: #000000; stroke-width: 0.5"/>
      </g>
     </g>
     <g id="line2d_30">
      <g>
       <use xlink:href="#mc8466dc37f" x="148.311818" y="36.475625" style="stroke: #000000; stroke-width: 0.5"/>
      </g>
     </g>
    </g>
    <g id="xtick_13">
     <g id="line2d_31">
      <g>
       <use xlink:href="#m9b5ebdc51c" x="163.53" y="324.763625" style="stroke: #000000; stroke-width: 0.5"/>
      </g>
     </g>
     <g id="line2d_32">
      <g>
       <use xlink:href="#mc8466dc37f" x="163.53" y="36.475625" style="stroke: #000000; stroke-width: 0.5"/>
      </g>
     </g>
    </g>
    <g id="xtick_14">
     <g id="line2d_33">
      <g>
       <use xlink:href="#m9b5ebdc51c" x="178.748182" y="324.763625" style="stroke: #000000; stroke-width: 0.5"/>
      </g>
     </g>
     <g id="line2d_34">
      <g>
       <use xlink:href="#mc8466dc37f" x="178.748182" y="36.475625" style="stroke: #000000; stroke-width: 0.5"/>
      </g>
     </g>
    </g>
    <g id="xtick_15">
     <g id="line2d_35">
      <g>
       <use xlink:href="#m9b5ebdc51c" x="193.966364" y="324.763625" style="stroke: #000000; stroke-width: 0.5"/>
      </g>
     </g>
     <g id="line2d_36">
      <g>
       <use xlink:href="#mc8466dc37f" x="193.966364" y="36.475625" style="stroke: #000000; stroke-width: 0.5"/>
      </g>
     </g>
    </g>
    <g id="xtick_16">
     <g id="line2d_37">
      <g>
       <use xlink:href="#m9b5ebdc51c" x="224.402727" y="324.763625" style="stroke: #000000; stroke-width: 0.5"/>
      </g>
     </g>
     <g id="line2d_38">
      <g>
       <use xlink:href="#mc8466dc37f" x="224.402727" y="36.475625" style="stroke: #000000; stroke-width: 0.5"/>
      </g>
     </g>
    </g>
    <g id="xtick_17">
     <g id="line2d_39">
      <g>
       <use xlink:href="#m9b5ebdc51c" x="239.620909" y="324.763625" style="stroke: #000000; stroke-width: 0.5"/>
      </g>
     </g>
     <g id="line2d_40">
      <g>
       <use xlink:href="#mc8466dc37f" x="239.620909" y="36.475625" style="stroke: #000000; stroke-width: 0.5"/>
      </g>
     </g>
    </g>
    <g id="xtick_18">
     <g id="line2d_41">
      <g>
       <use xlink:href="#m9b5ebdc51c" x="254.839091" y="324.763625" style="stroke: #000000; stroke-width: 0.5"/>
      </g>
     </g>
     <g id="line2d_42">
      <g>
       <use xlink:href="#mc8466dc37f" x="254.839091" y="36.475625" style="stroke: #000000; stroke-width: 0.5"/>
      </g>
     </g>
    </g>
    <g id="xtick_19">
     <g id="line2d_43">
      <g>
       <use xlink:href="#m9b5ebdc51c" x="270.057273" y="324.763625" style="stroke: #000000; stroke-width: 0.5"/>
      </g>
     </g>
     <g id="line2d_44">
      <g>
       <use xlink:href="#mc8466dc37f" x="270.057273" y="36.475625" style="stroke: #000000; stroke-width: 0.5"/>
      </g>
     </g>
    </g>
    <g id="xtick_20">
     <g id="line2d_45">
      <g>
       <use xlink:href="#m9b5ebdc51c" x="300.493636" y="324.763625" style="stroke: #000000; stroke-width: 0.5"/>
      </g>
     </g>
     <g id="line2d_46">
      <g>
       <use xlink:href="#mc8466dc37f" x="300.493636" y="36.475625" style="stroke: #000000; stroke-width: 0.5"/>
      </g>
     </g>
    </g>
    <g id="xtick_21">
     <g id="line2d_47">
      <g>
       <use xlink:href="#m9b5ebdc51c" x="315.711818" y="324.763625" style="stroke: #000000; stroke-width: 0.5"/>
      </g>
     </g>
     <g id="line2d_48">
      <g>
       <use xlink:href="#mc8466dc37f" x="315.711818" y="36.475625" style="stroke: #000000; stroke-width: 0.5"/>
      </g>
     </g>
    </g>
    <g id="xtick_22">
     <g id="line2d_49">
      <g>
       <use xlink:href="#m9b5ebdc51c" x="330.93" y="324.763625" style="stroke: #000000; stroke-width: 0.5"/>
      </g>
     </g>
     <g id="line2d_50">
      <g>
       <use xlink:href="#mc8466dc37f" x="330.93" y="36.475625" style="stroke: #000000; stroke-width: 0.5"/>
      </g>
     </g>
    </g>
    <g id="xtick_23">
     <g id="line2d_51">
      <g>
       <use xlink:href="#m9b5ebdc51c" x="346.148182" y="324.763625" style="stroke: #000000; stroke-width: 0.5"/>
      </g>
     </g>
     <g id="line2d_52">
      <g>
       <use xlink:href="#mc8466dc37f" x="346.148182" y="36.475625" style="stroke: #000000; stroke-width: 0.5"/>
      </g>
     </g>
    </g>
    <g id="xtick_24">
     <g id="line2d_53">
      <g>
       <use xlink:href="#m9b5ebdc51c" x="376.584545" y="324.763625" style="stroke: #000000; stroke-width: 0.5"/>
      </g>
     </g>
     <g id="line2d_54">
      <g>
       <use xlink:href="#mc8466dc37f" x="376.584545" y="36.475625" style="stroke: #000000; stroke-width: 0.5"/>
      </g>
     </g>
    </g>
    <g id="xtick_25">
     <g id="line2d_55">
      <g>
       <use xlink:href="#m9b5ebdc51c" x="391.802727" y="324.763625" style="stroke: #000000; stroke-width: 0.5"/>
      </g>
     </g>
     <g id="line2d_56">
      <g>
       <use xlink:href="#mc8466dc37f" x="391.802727" y="36.475625" style="stroke: #000000; stroke-width: 0.5"/>
      </g>
     </g>
    </g>
    <g id="xtick_26">
     <g id="line2d_57">
      <g>
       <use xlink:href="#m9b5ebdc51c" x="407.020909" y="324.763625" style="stroke: #000000; stroke-width: 0.5"/>
      </g>
     </g>
     <g id="line2d_58">
      <g>
       <use xlink:href="#mc8466dc37f" x="407.020909" y="36.475625" style="stroke: #000000; stroke-width: 0.5"/>
      </g>
     </g>
    </g>
    <g id="xtick_27">
     <g id="line2d_59">
      <g>
       <use xlink:href="#m9b5ebdc51c" x="422.239091" y="324.763625" style="stroke: #000000; stroke-width: 0.5"/>
      </g>
     </g>
     <g id="line2d_60">
      <g>
       <use xlink:href="#mc8466dc37f" x="422.239091" y="36.475625" style="stroke: #000000; stroke-width: 0.5"/>
      </g>
     </g>
    </g>
    <g id="xtick_28">
     <g id="line2d_61">
      <g>
       <use xlink:href="#m9b5ebdc51c" x="452.675455" y="324.763625" style="stroke: #000000; stroke-width: 0.5"/>
      </g>
     </g>
     <g id="line2d_62">
      <g>
       <use xlink:href="#mc8466dc37f" x="452.675455" y="36.475625" style="stroke: #000000; stroke-width: 0.5"/>
      </g>
     </g>
    </g>
    <g id="text_7">
     <!-- $t/\gamma$ -->
     <g transform="translate(237.57 353.563625) scale(0.14 -0.14)">
      <defs>
       <path id="Cmmi10-74" d="M 397 519 
Q 397 613 416 697 
L 878 2534 
L 206 2534 
Q 141 2534 141 2619 
Q 166 2759 225 2759 
L 934 2759 
L 1191 3803 
Q 1216 3888 1291 3947 
Q 1366 4006 1459 4006 
Q 1541 4006 1595 3957 
Q 1650 3909 1650 3828 
Q 1650 3809 1648 3798 
Q 1647 3788 1644 3775 
L 1388 2759 
L 2047 2759 
Q 2113 2759 2113 2675 
Q 2109 2659 2100 2621 
Q 2091 2584 2075 2559 
Q 2059 2534 2028 2534 
L 1331 2534 
L 872 684 
Q 825 503 825 372 
Q 825 97 1013 97 
Q 1294 97 1511 361 
Q 1728 625 1844 941 
Q 1869 978 1894 978 
L 1972 978 
Q 1997 978 2012 961 
Q 2028 944 2028 922 
Q 2028 909 2022 903 
Q 1881 516 1612 222 
Q 1344 -72 997 -72 
Q 744 -72 570 93 
Q 397 259 397 519 
z
" transform="scale(0.015625)"/>
       <path id="Cmmi10-3d" d="M 359 -1472 
Q 359 -1453 366 -1447 
L 2591 4722 
Q 2603 4759 2634 4779 
Q 2666 4800 2706 4800 
Q 2763 4800 2798 4765 
Q 2834 4731 2834 4672 
L 2834 4647 
L 609 -1522 
Q 572 -1600 488 -1600 
Q 434 -1600 396 -1562 
Q 359 -1525 359 -1472 
z
" transform="scale(0.015625)"/>
       <path id="Cmmi10-b0" d="M 1888 -1253 
Q 1888 -1109 1952 -834 
Q 2016 -559 2108 -248 
Q 2200 63 2266 263 
Q 2291 581 2291 744 
Q 2291 1156 2209 1511 
Q 2128 1866 1903 2105 
Q 1678 2344 1275 2344 
Q 1063 2344 852 2253 
Q 641 2163 489 2000 
Q 338 1838 281 1631 
Q 269 1594 231 1594 
L 153 1594 
Q 103 1594 103 1650 
L 103 1672 
Q 175 1959 358 2226 
Q 541 2494 805 2661 
Q 1069 2828 1363 2828 
Q 1663 2828 1881 2625 
Q 2100 2422 2231 2109 
Q 2363 1797 2420 1478 
Q 2478 1159 2478 878 
Q 2800 1753 3200 2534 
L 3297 2741 
Q 3316 2759 3341 2759 
L 3419 2759 
Q 3469 2759 3469 2700 
Q 3469 2688 3456 2663 
L 3359 2463 
Q 3081 1909 2848 1340 
Q 2616 772 2450 244 
Q 2425 28 2354 -347 
Q 2284 -722 2184 -1045 
Q 2084 -1369 1984 -1381 
Q 1888 -1381 1888 -1253 
z
" transform="scale(0.015625)"/>
      </defs>
      <use xlink:href="#Cmmi10-74"/>
      <use xlink:href="#Cmmi10-3d" transform="translate(36.083984 0)"/>
      <use xlink:href="#Cmmi10-b0" transform="translate(86.083984 0)"/>
     </g>
    </g>
   </g>
   <g id="matplotlib.axis_2">
    <g id="ytick_1">
     <g id="line2d_63">
      <path d="M 37.98 300.58503 
L 456.48 300.58503 
" clip-path="url(#pec9d1d04e2)" style="fill: none; stroke: #b0b0b0; stroke-opacity: 0.35; stroke-width: 0.5; stroke-linecap: square"/>
     </g>
     <g id="line2d_64">
      <defs>
       <path id="mad85205bb7" d="M 0 0 
L 3 0 
" style="stroke: #000000; stroke-width: 0.5"/>
      </defs>
      <g>
       <use xlink:href="#mad85205bb7" x="37.98" y="300.58503" style="stroke: #000000; stroke-width: 0.5"/>
      </g>
     </g>
     <g id="line2d_65">
      <defs>
       <path id="m94ef79aaf0" d="M 0 0 
L -3 0 
" style="stroke: #000000; stroke-width: 0.5"/>
      </defs>
      <g>
       <use xlink:href="#m94ef79aaf0" x="456.48" y="300.58503" style="stroke: #000000; stroke-width: 0.5"/>
      </g>
     </g>
     <g id="text_8">
      <!-- $\mathdefault{−8}$ -->
      <g transform="translate(20.2 304.682842) scale(0.12 -0.12)">
       <defs>
        <path id="STIXGeneral-Regular-2212" d="M 3974 1408 
L 410 1408 
L 410 1830 
L 3974 1830 
L 3974 1408 
z
" transform="scale(0.015625)"/>
        <path id="STIXGeneral-Regular-38" d="M 2848 992 
Q 2848 499 2505 204 
Q 2163 -90 1587 -90 
Q 1050 -90 704 204 
Q 358 499 358 954 
Q 358 1293 524 1533 
Q 691 1773 1190 2125 
Q 710 2522 553 2765 
Q 397 3008 397 3328 
Q 397 3782 745 4054 
Q 1094 4326 1638 4326 
Q 2106 4326 2410 4060 
Q 2714 3795 2714 3411 
Q 2714 3059 2531 2848 
Q 2349 2637 1856 2374 
Q 2432 1990 2640 1689 
Q 2848 1389 2848 992 
z
M 2272 3411 
Q 2272 3744 2086 3945 
Q 1901 4147 1574 4147 
Q 1248 4147 1059 3977 
Q 870 3808 870 3513 
Q 870 3219 1059 2979 
Q 1248 2739 1670 2490 
Q 1997 2682 2134 2896 
Q 2272 3110 2272 3411 
z
M 1734 1741 
L 1357 1997 
Q 1075 1766 960 1545 
Q 845 1325 845 1011 
Q 845 576 1065 333 
Q 1286 90 1658 90 
Q 1971 90 2166 285 
Q 2362 480 2362 794 
Q 2362 1082 2214 1299 
Q 2067 1517 1734 1741 
z
" transform="scale(0.015625)"/>
       </defs>
       <use xlink:href="#STIXGeneral-Regular-2212" transform="translate(0 0.40625)"/>
       <use xlink:href="#STIXGeneral-Regular-38" transform="translate(68.499985 0.40625)"/>
      </g>
     </g>
    </g>
    <g id="ytick_2">
     <g id="line2d_66">
      <path d="M 37.98 254.70723 
L 456.48 254.70723 
" clip-path="url(#pec9d1d04e2)" style="fill: none; stroke: #b0b0b0; stroke-opacity: 0.35; stroke-width: 0.5; stroke-linecap: square"/>
     </g>
     <g id="line2d_67">
      <g>
       <use xlink:href="#mad85205bb7" x="37.98" y="254.70723" style="stroke: #000000; stroke-width: 0.5"/>
      </g>
     </g>
     <g id="line2d_68">
      <g>
       <use xlink:href="#m94ef79aaf0" x="456.48" y="254.70723" style="stroke: #000000; stroke-width: 0.5"/>
      </g>
     </g>
     <g id="text_9">
      <!-- $\mathdefault{−6}$ -->
      <g transform="translate(20.2 258.805042) scale(0.12 -0.12)">
       <defs>
        <path id="STIXGeneral-Regular-36" d="M 2854 4378 
L 2867 4275 
Q 2112 4154 1606 3664 
Q 1101 3174 973 2451 
Q 1344 2739 1786 2739 
Q 2349 2739 2672 2380 
Q 2995 2022 2995 1402 
Q 2995 774 2669 378 
Q 2291 -90 1651 -90 
Q 870 -90 518 557 
Q 218 1107 218 1786 
Q 218 2835 915 3552 
Q 1312 3962 1731 4131 
Q 2150 4301 2854 4378 
z
M 2419 1203 
Q 2419 2445 1555 2445 
Q 1235 2445 1024 2275 
Q 813 2106 813 1702 
Q 813 954 1046 522 
Q 1280 90 1722 90 
Q 2061 90 2240 394 
Q 2419 698 2419 1203 
z
" transform="scale(0.015625)"/>
       </defs>
       <use xlink:href="#STIXGeneral-Regular-2212" transform="translate(0 0.59375)"/>
       <use xlink:href="#STIXGeneral-Regular-36" transform="translate(68.499985 0.59375)"/>
      </g>
     </g>
    </g>
    <g id="ytick_3">
     <g id="line2d_69">
      <path d="M 37.98 208.829429 
L 456.48 208.829429 
" clip-path="url(#pec9d1d04e2)" style="fill: none; stroke: #b0b0b0; stroke-opacity: 0.35; stroke-width: 0.5; stroke-linecap: square"/>
     </g>
     <g id="line2d_70">
      <g>
       <use xlink:href="#mad85205bb7" x="37.98" y="208.829429" style="stroke: #000000; stroke-width: 0.5"/>
      </g>
     </g>
     <g id="line2d_71">
      <g>
       <use xlink:href="#m94ef79aaf0" x="456.48" y="208.829429" style="stroke: #000000; stroke-width: 0.5"/>
      </g>
     </g>
     <g id="text_10">
      <!-- $\mathdefault{−4}$ -->
      <g transform="translate(20.2 212.927242) scale(0.12 -0.12)">
       <use xlink:href="#STIXGeneral-Regular-2212" transform="translate(0 0.40625)"/>
       <use xlink:href="#STIXGeneral-Regular-34" transform="translate(68.499985 0.40625)"/>
      </g>
     </g>
    </g>
    <g id="ytick_4">
     <g id="line2d_72">
      <path d="M 37.98 162.951629 
L 456.48 162.951629 
" clip-path="url(#pec9d1d04e2)" style="fill: none; stroke: #b0b0b0; stroke-opacity: 0.35; stroke-width: 0.5; stroke-linecap: square"/>
     </g>
     <g id="line2d_73">
      <g>
       <use xlink:href="#mad85205bb7" x="37.98" y="162.951629" style="stroke: #000000; stroke-width: 0.5"/>
      </g>
     </g>
     <g id="line2d_74">
      <g>
       <use xlink:href="#m94ef79aaf0" x="456.48" y="162.951629" style="stroke: #000000; stroke-width: 0.5"/>
      </g>
     </g>
     <g id="text_11">
      <!-- $\mathdefault{−2}$ -->
      <g transform="translate(20.2 167.049442) scale(0.12 -0.12)">
       <use xlink:href="#STIXGeneral-Regular-2212" transform="translate(0 0.40625)"/>
       <use xlink:href="#STIXGeneral-Regular-32" transform="translate(68.499985 0.40625)"/>
      </g>
     </g>
    </g>
    <g id="ytick_5">
     <g id="line2d_75">
      <path d="M 37.98 117.073829 
L 456.48 117.073829 
" clip-path="url(#pec9d1d04e2)" style="fill: none; stroke: #b0b0b0; stroke-opacity: 0.35; stroke-width: 0.5; stroke-linecap: square"/>
     </g>
     <g id="line2d_76">
      <g>
       <use xlink:href="#mad85205bb7" x="37.98" y="117.073829" style="stroke: #000000; stroke-width: 0.5"/>
      </g>
     </g>
     <g id="line2d_77">
      <g>
       <use xlink:href="#m94ef79aaf0" x="456.48" y="117.073829" style="stroke: #000000; stroke-width: 0.5"/>
      </g>
     </g>
     <g id="text_12">
      <!-- $\mathdefault{0}$ -->
      <g transform="translate(28.48 121.171641) scale(0.12 -0.12)">
       <use xlink:href="#STIXGeneral-Regular-30" transform="translate(0 0.40625)"/>
      </g>
     </g>
    </g>
    <g id="ytick_6">
     <g id="line2d_78">
      <path d="M 37.98 71.196029 
L 456.48 71.196029 
" clip-path="url(#pec9d1d04e2)" style="fill: none; stroke: #b0b0b0; stroke-opacity: 0.35; stroke-width: 0.5; stroke-linecap: square"/>
     </g>
     <g id="line2d_79">
      <g>
       <use xlink:href="#mad85205bb7" x="37.98" y="71.196029" style="stroke: #000000; stroke-width: 0.5"/>
      </g>
     </g>
     <g id="line2d_80">
      <g>
       <use xlink:href="#m94ef79aaf0" x="456.48" y="71.196029" style="stroke: #000000; stroke-width: 0.5"/>
      </g>
     </g>
     <g id="text_13">
      <!-- $\mathdefault{2}$ -->
      <g transform="translate(28.48 75.293841) scale(0.12 -0.12)">
       <use xlink:href="#STIXGeneral-Regular-32" transform="translate(0 0.40625)"/>
      </g>
     </g>
    </g>
    <g id="ytick_7">
     <g id="line2d_81">
      <defs>
       <path id="m86f59469a5" d="M 0 0 
L 1.5 0 
" style="stroke: #000000; stroke-width: 0.5"/>
      </defs>
      <g>
       <use xlink:href="#m86f59469a5" x="37.98" y="323.52393" style="stroke: #000000; stroke-width: 0.5"/>
      </g>
     </g>
     <g id="line2d_82">
      <defs>
       <path id="m6d1816df6f" d="M 0 0 
L -1.5 0 
" style="stroke: #000000; stroke-width: 0.5"/>
      </defs>
      <g>
       <use xlink:href="#m6d1816df6f" x="456.48" y="323.52393" style="stroke: #000000; stroke-width: 0.5"/>
      </g>
     </g>
    </g>
    <g id="ytick_8">
     <g id="line2d_83">
      <g>
       <use xlink:href="#m86f59469a5" x="37.98" y="312.05448" style="stroke: #000000; stroke-width: 0.5"/>
      </g>
     </g>
     <g id="line2d_84">
      <g>
       <use xlink:href="#m6d1816df6f" x="456.48" y="312.05448" style="stroke: #000000; stroke-width: 0.5"/>
      </g>
     </g>
    </g>
    <g id="ytick_9">
     <g id="line2d_85">
      <g>
       <use xlink:href="#m86f59469a5" x="37.98" y="289.11558" style="stroke: #000000; stroke-width: 0.5"/>
      </g>
     </g>
     <g id="line2d_86">
      <g>
       <use xlink:href="#m6d1816df6f" x="456.48" y="289.11558" style="stroke: #000000; stroke-width: 0.5"/>
      </g>
     </g>
    </g>
    <g id="ytick_10">
     <g id="line2d_87">
      <g>
       <use xlink:href="#m86f59469a5" x="37.98" y="277.64613" style="stroke: #000000; stroke-width: 0.5"/>
      </g>
     </g>
     <g id="line2d_88">
      <g>
       <use xlink:href="#m6d1816df6f" x="456.48" y="277.64613" style="stroke: #000000; stroke-width: 0.5"/>
      </g>
     </g>
    </g>
    <g id="ytick_11">
     <g id="line2d_89">
      <g>
       <use xlink:href="#m86f59469a5" x="37.98" y="266.17668" style="stroke: #000000; stroke-width: 0.5"/>
      </g>
     </g>
     <g id="line2d_90">
      <g>
       <use xlink:href="#m6d1816df6f" x="456.48" y="266.17668" style="stroke: #000000; stroke-width: 0.5"/>
      </g>
     </g>
    </g>
    <g id="ytick_12">
     <g id="line2d_91">
      <g>
       <use xlink:href="#m86f59469a5" x="37.98" y="243.23778" style="stroke: #000000; stroke-width: 0.5"/>
      </g>
     </g>
     <g id="line2d_92">
      <g>
       <use xlink:href="#m6d1816df6f" x="456.48" y="243.23778" style="stroke: #000000; stroke-width: 0.5"/>
      </g>
     </g>
    </g>
    <g id="ytick_13">
     <g id="line2d_93">
      <g>
       <use xlink:href="#m86f59469a5" x="37.98" y="231.76833" style="stroke: #000000; stroke-width: 0.5"/>
      </g>
     </g>
     <g id="line2d_94">
      <g>
       <use xlink:href="#m6d1816df6f" x="456.48" y="231.76833" style="stroke: #000000; stroke-width: 0.5"/>
      </g>
     </g>
    </g>
    <g id="ytick_14">
     <g id="line2d_95">
      <g>
       <use xlink:href="#m86f59469a5" x="37.98" y="220.298879" style="stroke: #000000; stroke-width: 0.5"/>
      </g>
     </g>
     <g id="line2d_96">
      <g>
       <use xlink:href="#m6d1816df6f" x="456.48" y="220.298879" style="stroke: #000000; stroke-width: 0.5"/>
      </g>
     </g>
    </g>
    <g id="ytick_15">
     <g id="line2d_97">
      <g>
       <use xlink:href="#m86f59469a5" x="37.98" y="197.359979" style="stroke: #000000; stroke-width: 0.5"/>
      </g>
     </g>
     <g id="line2d_98">
      <g>
       <use xlink:href="#m6d1816df6f" x="456.48" y="197.359979" style="stroke: #000000; stroke-width: 0.5"/>
      </g>
     </g>
    </g>
    <g id="ytick_16">
     <g id="line2d_99">
      <g>
       <use xlink:href="#m86f59469a5" x="37.98" y="185.890529" style="stroke: #000000; stroke-width: 0.5"/>
      </g>
     </g>
     <g id="line2d_100">
      <g>
       <use xlink:href="#m6d1816df6f" x="456.48" y="185.890529" style="stroke: #000000; stroke-width: 0.5"/>
      </g>
     </g>
    </g>
    <g id="ytick_17">
     <g id="line2d_101">
      <g>
       <use xlink:href="#m86f59469a5" x="37.98" y="174.421079" style="stroke: #000000; stroke-width: 0.5"/>
      </g>
     </g>
     <g id="line2d_102">
      <g>
       <use xlink:href="#m6d1816df6f" x="456.48" y="174.421079" style="stroke: #000000; stroke-width: 0.5"/>
      </g>
     </g>
    </g>
    <g id="ytick_18">
     <g id="line2d_103">
      <g>
       <use xlink:href="#m86f59469a5" x="37.98" y="151.482179" style="stroke: #000000; stroke-width: 0.5"/>
      </g>
     </g>
     <g id="line2d_104">
      <g>
       <use xlink:href="#m6d1816df6f" x="456.48" y="151.482179" style="stroke: #000000; stroke-width: 0.5"/>
      </g>
     </g>
    </g>
    <g id="ytick_19">
     <g id="line2d_105">
      <g>
       <use xlink:href="#m86f59469a5" x="37.98" y="140.012729" style="stroke: #000000; stroke-width: 0.5"/>
      </g>
     </g>
     <g id="line2d_106">
      <g>
       <use xlink:href="#m6d1816df6f" x="456.48" y="140.012729" style="stroke: #000000; stroke-width: 0.5"/>
      </g>
     </g>
    </g>
    <g id="ytick_20">
     <g id="line2d_107">
      <g>
       <use xlink:href="#m86f59469a5" x="37.98" y="128.543279" style="stroke: #000000; stroke-width: 0.5"/>
      </g>
     </g>
     <g id="line2d_108">
      <g>
       <use xlink:href="#m6d1816df6f" x="456.48" y="128.543279" style="stroke: #000000; stroke-width: 0.5"/>
      </g>
     </g>
    </g>
    <g id="ytick_21">
     <g id="line2d_109">
      <g>
       <use xlink:href="#m86f59469a5" x="37.98" y="105.604379" style="stroke: #000000; stroke-width: 0.5"/>
      </g>
     </g>
     <g id="line2d_110">
      <g>
       <use xlink:href="#m6d1816df6f" x="456.48" y="105.604379" style="stroke: #000000; stroke-width: 0.5"/>
      </g>
     </g>
    </g>
    <g id="ytick_22">
     <g id="line2d_111">
      <g>
       <use xlink:href="#m86f59469a5" x="37.98" y="94.134929" style="stroke: #000000; stroke-width: 0.5"/>
      </g>
     </g>
     <g id="line2d_112">
      <g>
       <use xlink:href="#m6d1816df6f" x="456.48" y="94.134929" style="stroke: #000000; stroke-width: 0.5"/>
      </g>
     </g>
    </g>
    <g id="ytick_23">
     <g id="line2d_113">
      <g>
       <use xlink:href="#m86f59469a5" x="37.98" y="82.665479" style="stroke: #000000; stroke-width: 0.5"/>
      </g>
     </g>
     <g id="line2d_114">
      <g>
       <use xlink:href="#m6d1816df6f" x="456.48" y="82.665479" style="stroke: #000000; stroke-width: 0.5"/>
      </g>
     </g>
    </g>
    <g id="ytick_24">
     <g id="line2d_115">
      <g>
       <use xlink:href="#m86f59469a5" x="37.98" y="59.726579" style="stroke: #000000; stroke-width: 0.5"/>
      </g>
     </g>
     <g id="line2d_116">
      <g>
       <use xlink:href="#m6d1816df6f" x="456.48" y="59.726579" style="stroke: #000000; stroke-width: 0.5"/>
      </g>
     </g>
    </g>
    <g id="ytick_25">
     <g id="line2d_117">
      <g>
       <use xlink:href="#m86f59469a5" x="37.98" y="48.257128" style="stroke: #000000; stroke-width: 0.5"/>
      </g>
     </g>
     <g id="line2d_118">
      <g>
       <use xlink:href="#m6d1816df6f" x="456.48" y="48.257128" style="stroke: #000000; stroke-width: 0.5"/>
      </g>
     </g>
    </g>
    <g id="ytick_26">
     <g id="line2d_119">
      <g>
       <use xlink:href="#m86f59469a5" x="37.98" y="36.787678" style="stroke: #000000; stroke-width: 0.5"/>
      </g>
     </g>
     <g id="line2d_120">
      <g>
       <use xlink:href="#m6d1816df6f" x="456.48" y="36.787678" style="stroke: #000000; stroke-width: 0.5"/>
      </g>
     </g>
    </g>
    <g id="text_14">
     <!-- $g_2$ difference from exact -->
     <g transform="translate(13.161563 248.869625) rotate(-90) scale(0.14 -0.14)">
      <defs>
       <path id="Cmmi10-67" d="M 91 -916 
Q 91 -759 198 -642 
Q 306 -525 459 -525 
Q 563 -525 633 -589 
Q 703 -653 703 -756 
Q 703 -872 637 -964 
Q 572 -1056 469 -1094 
Q 641 -1147 1006 -1147 
Q 1300 -1147 1544 -920 
Q 1788 -694 1863 -397 
L 2047 353 
Q 1700 0 1325 0 
Q 1050 0 854 140 
Q 659 281 556 515 
Q 453 750 453 1013 
Q 453 1306 573 1628 
Q 694 1950 911 2225 
Q 1128 2500 1409 2664 
Q 1691 2828 2003 2828 
Q 2191 2828 2341 2725 
Q 2491 2622 2578 2450 
Q 2641 2700 2853 2700 
Q 2934 2700 2990 2651 
Q 3047 2603 3047 2522 
Q 3047 2503 3045 2493 
Q 3044 2484 3041 2472 
L 2309 -434 
Q 2259 -634 2125 -800 
Q 1991 -966 1809 -1077 
Q 1628 -1188 1412 -1250 
Q 1197 -1313 997 -1313 
Q 631 -1313 361 -1242 
Q 91 -1172 91 -916 
z
M 1338 166 
Q 1747 166 2144 728 
L 2497 2125 
Q 2453 2347 2322 2505 
Q 2191 2663 1991 2663 
Q 1778 2663 1589 2489 
Q 1400 2316 1275 2075 
Q 1156 1844 1045 1411 
Q 934 978 934 728 
Q 934 509 1034 337 
Q 1134 166 1338 166 
z
" transform="scale(0.015625)"/>
       <path id="Cmr10-32" d="M 319 0 
L 319 172 
Q 319 188 331 206 
L 1325 1306 
Q 1550 1550 1690 1715 
Q 1831 1881 1968 2097 
Q 2106 2313 2186 2536 
Q 2266 2759 2266 3009 
Q 2266 3272 2169 3511 
Q 2072 3750 1880 3894 
Q 1688 4038 1416 4038 
Q 1138 4038 916 3870 
Q 694 3703 603 3438 
Q 628 3444 672 3444 
Q 816 3444 917 3347 
Q 1019 3250 1019 3097 
Q 1019 2950 917 2848 
Q 816 2747 672 2747 
Q 522 2747 420 2851 
Q 319 2956 319 3097 
Q 319 3338 409 3548 
Q 500 3759 670 3923 
Q 841 4088 1055 4175 
Q 1269 4263 1509 4263 
Q 1875 4263 2190 4108 
Q 2506 3953 2690 3670 
Q 2875 3388 2875 3009 
Q 2875 2731 2753 2481 
Q 2631 2231 2440 2026 
Q 2250 1822 1953 1562 
Q 1656 1303 1563 1216 
L 838 519 
L 1453 519 
Q 1906 519 2211 526 
Q 2516 534 2534 550 
Q 2609 631 2688 1141 
L 2875 1141 
L 2694 0 
L 319 0 
z
" transform="scale(0.015625)"/>
       <path id="STIXGeneral-Regular-20" transform="scale(0.015625)"/>
       <path id="STIXGeneral-Regular-64" d="M 3142 269 
L 2202 -64 
L 2176 -45 
L 2176 365 
Q 1869 -64 1357 -64 
Q 826 -64 499 317 
Q 173 698 173 1312 
Q 173 1990 563 2467 
Q 954 2944 1504 2944 
Q 1850 2944 2176 2669 
L 2176 3667 
Q 2176 3866 2118 3930 
Q 2061 3994 1882 3994 
Q 1792 3994 1741 3987 
L 1741 4090 
Q 2323 4243 2682 4371 
L 2714 4358 
L 2714 730 
Q 2714 506 2768 435 
Q 2822 365 2995 365 
Q 3034 365 3142 371 
L 3142 269 
z
M 2176 653 
L 2176 2125 
Q 2176 2381 1981 2573 
Q 1786 2765 1523 2765 
Q 1158 2765 940 2438 
Q 723 2112 723 1568 
Q 723 979 963 624 
Q 1203 269 1606 269 
Q 1907 269 2080 474 
Q 2176 582 2176 653 
z
" transform="scale(0.015625)"/>
       <path id="STIXGeneral-Regular-69" d="M 1152 4045 
Q 1152 3904 1056 3811 
Q 960 3718 819 3718 
Q 685 3718 592 3811 
Q 499 3904 499 4045 
Q 499 4179 595 4275 
Q 691 4371 826 4371 
Q 966 4371 1059 4275 
Q 1152 4179 1152 4045 
z
M 1619 0 
L 102 0 
L 102 96 
Q 435 115 521 211 
Q 608 307 608 666 
L 608 2118 
Q 608 2342 563 2432 
Q 518 2522 397 2522 
Q 243 2522 128 2490 
L 128 2592 
L 1120 2944 
L 1146 2918 
L 1146 672 
Q 1146 314 1226 218 
Q 1306 122 1619 96 
L 1619 0 
z
" transform="scale(0.015625)"/>
       <path id="STIXGeneral-Regular-66" d="M 134 2880 
L 659 2880 
Q 666 3264 710 3478 
Q 755 3693 883 3910 
Q 1152 4371 1786 4371 
Q 2074 4371 2262 4259 
Q 2451 4147 2451 3974 
Q 2451 3866 2374 3789 
Q 2298 3712 2182 3712 
Q 2029 3712 1894 3942 
Q 1741 4192 1555 4192 
Q 1197 4192 1197 3622 
L 1197 2880 
L 1978 2880 
L 1978 2675 
L 1197 2675 
L 1197 666 
Q 1197 307 1299 208 
Q 1402 109 1792 96 
L 1792 0 
L 128 0 
L 128 96 
Q 474 115 566 214 
Q 659 314 659 666 
L 659 2675 
L 134 2675 
L 134 2880 
z
" transform="scale(0.015625)"/>
       <path id="STIXGeneral-Regular-65" d="M 2611 1050 
L 2714 1005 
Q 2330 -64 1376 -64 
Q 813 -64 486 329 
Q 160 723 160 1389 
Q 160 2074 525 2509 
Q 890 2944 1485 2944 
Q 2061 2944 2374 2502 
Q 2560 2246 2592 1773 
L 621 1773 
Q 646 1370 700 1158 
Q 755 947 915 730 
Q 1184 378 1626 378 
Q 1939 378 2153 531 
Q 2368 685 2611 1050 
z
M 634 1978 
L 1939 1978 
Q 1882 2381 1750 2547 
Q 1619 2714 1312 2714 
Q 1043 2714 864 2525 
Q 685 2336 634 1978 
z
" transform="scale(0.015625)"/>
       <path id="STIXGeneral-Regular-72" d="M 1024 2931 
L 1024 2342 
Q 1267 2688 1430 2816 
Q 1594 2944 1792 2944 
Q 1958 2944 2051 2854 
Q 2144 2765 2144 2605 
Q 2144 2470 2077 2393 
Q 2010 2317 1894 2317 
Q 1773 2317 1638 2445 
Q 1536 2541 1472 2541 
Q 1338 2541 1181 2355 
Q 1024 2170 1024 2016 
L 1024 576 
Q 1024 301 1133 205 
Q 1242 109 1568 96 
L 1568 0 
L 32 0 
L 32 96 
Q 339 154 412 224 
Q 486 294 486 538 
L 486 2138 
Q 486 2349 438 2435 
Q 390 2522 269 2522 
Q 166 2522 45 2496 
L 45 2598 
Q 448 2726 992 2944 
L 1024 2931 
z
" transform="scale(0.015625)"/>
       <path id="STIXGeneral-Regular-6e" d="M 3104 0 
L 1773 0 
L 1779 96 
Q 2016 115 2096 233 
Q 2176 352 2176 672 
L 2176 1946 
Q 2176 2592 1709 2592 
Q 1549 2592 1408 2515 
Q 1267 2438 1050 2227 
L 1050 461 
Q 1050 269 1136 192 
Q 1222 115 1466 96 
L 1466 0 
L 115 0 
L 115 96 
Q 358 115 435 214 
Q 512 314 512 602 
L 512 2157 
Q 512 2394 467 2483 
Q 422 2573 288 2573 
Q 160 2573 102 2547 
L 102 2656 
Q 550 2784 979 2944 
L 1030 2925 
L 1030 2426 
L 1037 2426 
Q 1491 2944 1958 2944 
Q 2323 2944 2518 2688 
Q 2714 2432 2714 1958 
L 2714 544 
Q 2714 288 2790 205 
Q 2867 122 3104 96 
L 3104 0 
z
" transform="scale(0.015625)"/>
       <path id="STIXGeneral-Regular-63" d="M 2547 998 
L 2637 941 
Q 2362 403 2112 205 
Q 1786 -64 1376 -64 
Q 845 -64 502 336 
Q 160 736 160 1357 
Q 160 2170 698 2618 
Q 1094 2944 1562 2944 
Q 1965 2944 2256 2749 
Q 2547 2554 2547 2285 
Q 2547 2176 2457 2096 
Q 2368 2016 2246 2016 
Q 2022 2016 1939 2310 
L 1901 2451 
Q 1850 2630 1773 2694 
Q 1696 2758 1523 2758 
Q 1133 2758 893 2451 
Q 653 2144 653 1645 
Q 653 1094 928 745 
Q 1203 397 1645 397 
Q 1920 397 2118 528 
Q 2317 659 2547 998 
z
" transform="scale(0.015625)"/>
       <path id="STIXGeneral-Regular-6f" d="M 3008 1478 
Q 3008 806 2608 371 
Q 2208 -64 1568 -64 
Q 979 -64 582 368 
Q 186 800 186 1459 
Q 186 2125 582 2534 
Q 979 2944 1626 2944 
Q 2221 2944 2614 2537 
Q 3008 2131 3008 1478 
z
M 2432 1306 
Q 2432 2035 2112 2445 
Q 1856 2765 1504 2765 
Q 1171 2765 966 2493 
Q 762 2221 762 1747 
Q 762 928 1101 435 
Q 1318 115 1677 115 
Q 2029 115 2230 432 
Q 2432 749 2432 1306 
z
" transform="scale(0.015625)"/>
       <path id="STIXGeneral-Regular-6d" d="M 4960 0 
L 3565 0 
L 3565 96 
Q 3834 122 3907 208 
Q 3981 294 3981 576 
L 3981 1894 
Q 3981 2278 3869 2444 
Q 3757 2611 3488 2611 
Q 3264 2611 3107 2521 
Q 2950 2432 2803 2221 
L 2803 608 
Q 2803 301 2896 201 
Q 2989 102 3264 96 
L 3264 0 
L 1830 0 
L 1830 96 
Q 2112 115 2189 188 
Q 2266 262 2266 550 
L 2266 1901 
Q 2266 2611 1850 2611 
Q 1670 2611 1468 2531 
Q 1267 2451 1171 2336 
Q 1088 2240 1088 2227 
L 1088 448 
Q 1088 243 1177 176 
Q 1267 109 1523 96 
L 1523 0 
L 102 0 
L 102 96 
Q 371 102 460 195 
Q 550 288 550 563 
L 550 2150 
Q 550 2387 499 2480 
Q 448 2573 326 2573 
Q 230 2573 122 2547 
L 122 2656 
Q 557 2778 1011 2944 
L 1062 2925 
L 1062 2451 
L 1075 2451 
Q 1363 2752 1584 2848 
Q 1805 2944 2054 2944 
Q 2560 2944 2733 2406 
Q 3232 2944 3776 2944 
Q 4518 2944 4518 1792 
L 4518 493 
Q 4518 282 4582 202 
Q 4646 122 4794 109 
L 4960 96 
L 4960 0 
z
" transform="scale(0.015625)"/>
       <path id="STIXGeneral-Regular-78" d="M 3066 0 
L 1779 0 
L 1779 96 
Q 1939 109 1987 137 
Q 2035 166 2035 250 
Q 2035 307 1997 365 
L 1414 1261 
L 909 474 
Q 781 275 781 211 
Q 781 96 1037 96 
L 1037 0 
L 109 0 
L 109 96 
Q 269 109 355 169 
Q 442 230 576 422 
L 1306 1478 
L 704 2400 
Q 557 2624 454 2704 
Q 352 2784 211 2784 
L 154 2784 
L 154 2880 
L 1478 2880 
L 1478 2784 
Q 1203 2778 1203 2643 
Q 1203 2509 1498 2074 
Q 1581 1958 1587 1946 
Q 1619 1990 1779 2227 
Q 1811 2285 1856 2349 
Q 1901 2413 1923 2451 
Q 1946 2490 1971 2528 
Q 1997 2566 2006 2595 
Q 2016 2624 2016 2643 
Q 2016 2765 1760 2784 
L 1760 2880 
L 2771 2880 
L 2771 2784 
Q 2445 2771 2253 2502 
L 1722 1734 
L 2541 480 
Q 2790 96 3066 96 
L 3066 0 
z
" transform="scale(0.015625)"/>
       <path id="STIXGeneral-Regular-61" d="M 2829 422 
L 2829 243 
Q 2586 -64 2253 -64 
Q 1888 -64 1843 403 
L 1837 403 
Q 1427 -64 909 -64 
Q 608 -64 422 112 
Q 237 288 237 602 
Q 237 1050 685 1350 
Q 992 1555 1837 1869 
L 1837 2214 
Q 1837 2502 1699 2646 
Q 1562 2790 1338 2790 
Q 1146 2790 1018 2697 
Q 890 2605 890 2477 
Q 890 2419 909 2348 
Q 928 2278 928 2208 
Q 928 2112 841 2029 
Q 755 1946 634 1946 
Q 525 1946 441 2029 
Q 358 2112 358 2240 
Q 358 2547 685 2752 
Q 986 2944 1421 2944 
Q 1939 2944 2176 2656 
Q 2291 2522 2323 2384 
Q 2355 2246 2355 1946 
L 2355 723 
Q 2355 301 2554 301 
Q 2682 301 2829 422 
z
M 1837 813 
L 1837 1715 
Q 1248 1510 1018 1293 
Q 800 1094 800 800 
Q 800 557 921 432 
Q 1043 307 1242 307 
Q 1453 307 1613 410 
Q 1747 506 1792 589 
Q 1837 672 1837 813 
z
" transform="scale(0.015625)"/>
       <path id="STIXGeneral-Regular-74" d="M 1702 493 
L 1786 422 
Q 1478 -64 1011 -64 
Q 448 -64 448 749 
L 448 2675 
L 109 2675 
Q 83 2694 83 2720 
Q 83 2771 192 2842 
Q 435 2982 813 3526 
Q 826 3546 874 3606 
Q 922 3667 941 3706 
Q 986 3706 986 3622 
L 986 2880 
L 1632 2880 
L 1632 2675 
L 986 2675 
L 986 845 
Q 986 538 1062 403 
Q 1139 269 1318 269 
Q 1510 269 1702 493 
z
" transform="scale(0.015625)"/>
      </defs>
      <use xlink:href="#Cmmi10-67" transform="translate(0 0.703125)"/>
      <use xlink:href="#Cmr10-32" transform="translate(47.705078 -16.303125) scale(0.7)"/>
      <use xlink:href="#STIXGeneral-Regular-20" transform="translate(89.082422 0.703125)"/>
      <use xlink:href="#STIXGeneral-Regular-64" transform="translate(114.082407 0.703125)"/>
      <use xlink:href="#STIXGeneral-Regular-69" transform="translate(164.082391 0.703125)"/>
      <use xlink:href="#STIXGeneral-Regular-66" transform="translate(191.882379 0.703125)"/>
      <use xlink:href="#STIXGeneral-Regular-66" transform="translate(225.182367 0.703125)"/>
      <use xlink:href="#STIXGeneral-Regular-65" transform="translate(258.482355 0.703125)"/>
      <use xlink:href="#STIXGeneral-Regular-72" transform="translate(302.882349 0.703125)"/>
      <use xlink:href="#STIXGeneral-Regular-65" transform="translate(336.182336 0.703125)"/>
      <use xlink:href="#STIXGeneral-Regular-6e" transform="translate(380.58233 0.703125)"/>
      <use xlink:href="#STIXGeneral-Regular-63" transform="translate(430.582315 0.703125)"/>
      <use xlink:href="#STIXGeneral-Regular-65" transform="translate(474.982309 0.703125)"/>
      <use xlink:href="#STIXGeneral-Regular-20" transform="translate(519.382303 0.703125)"/>
      <use xlink:href="#STIXGeneral-Regular-66" transform="translate(544.382288 0.703125)"/>
      <use xlink:href="#STIXGeneral-Regular-72" transform="translate(577.682275 0.703125)"/>
      <use xlink:href="#STIXGeneral-Regular-6f" transform="translate(610.982263 0.703125)"/>
      <use xlink:href="#STIXGeneral-Regular-6d" transform="translate(660.982248 0.703125)"/>
      <use xlink:href="#STIXGeneral-Regular-20" transform="translate(738.782236 0.703125)"/>
      <use xlink:href="#STIXGeneral-Regular-65" transform="translate(763.78222 0.703125)"/>
      <use xlink:href="#STIXGeneral-Regular-78" transform="translate(808.182214 0.703125)"/>
      <use xlink:href="#STIXGeneral-Regular-61" transform="translate(858.182199 0.703125)"/>
      <use xlink:href="#STIXGeneral-Regular-63" transform="translate(902.582193 0.703125)"/>
      <use xlink:href="#STIXGeneral-Regular-74" transform="translate(946.982187 0.703125)"/>
     </g>
    </g>
    <g id="text_15">
     <!-- $\times\mathdefault{10^{−3}}\mathdefault{}$ -->
     <g transform="translate(37.98 33.475625) scale(0.12 -0.12)">
      <defs>
       <path id="Cmsy10-a3" d="M 941 184 
Q 941 234 972 275 
L 2303 1600 
L 972 2931 
Q 941 2963 941 3016 
Q 941 3063 978 3103 
Q 1016 3144 1069 3144 
Q 1113 3144 1166 3103 
L 2491 1778 
L 3809 3103 
Q 3863 3144 3903 3144 
Q 3956 3144 3993 3106 
Q 4031 3069 4031 3016 
Q 4031 2963 4000 2931 
L 2669 1600 
L 4000 275 
Q 4031 234 4031 184 
Q 4031 131 3993 93 
Q 3956 56 3903 56 
Q 3856 56 3809 103 
L 2491 1422 
L 1166 103 
Q 1119 56 1069 56 
Q 1016 56 978 97 
Q 941 138 941 184 
z
" transform="scale(0.015625)"/>
      </defs>
      <use xlink:href="#Cmsy10-a3" transform="translate(0 0.684375)"/>
      <use xlink:href="#STIXGeneral-Regular-31" transform="translate(77.685547 0.684375)"/>
      <use xlink:href="#STIXGeneral-Regular-30" transform="translate(127.685532 0.684375)"/>
      <use xlink:href="#STIXGeneral-Regular-2212" transform="translate(179.260516 36.684375) scale(0.7)"/>
      <use xlink:href="#STIXGeneral-Regular-33" transform="translate(227.210506 36.684375) scale(0.7)"/>
     </g>
    </g>
   </g>
   <g id="line2d_121">
    <path d="M 57.002727 117.073829 
L 437.457273 117.073829 
L 437.457273 117.073829 
" clip-path="url(#pec9d1d04e2)" style="fill: none; stroke: #2ca02c; stroke-width: 2.7; stroke-linecap: square"/>
   </g>
   <g id="line2d_122">
    <path d="M 37.98 117.073829 
L 456.48 117.073829 
" clip-path="url(#pec9d1d04e2)" style="fill: none; stroke: #000000; stroke-opacity: 0.6; stroke-linecap: square"/>
   </g>
   <g id="patch_3">
    <path d="M 37.98 324.763625 
L 37.98 36.475625 
" style="fill: none; stroke: #000000; stroke-width: 0.5; stroke-linejoin: miter; stroke-linecap: square"/>
   </g>
   <g id="patch_4">
    <path d="M 456.48 324.763625 
L 456.48 36.475625 
" style="fill: none; stroke: #000000; stroke-width: 0.5; stroke-linejoin: miter; stroke-linecap: square"/>
   </g>
   <g id="patch_5">
    <path d="M 37.98 324.763625 
L 456.48 324.763625 
" style="fill: none; stroke: #000000; stroke-width: 0.5; stroke-linejoin: miter; stroke-linecap: square"/>
   </g>
   <g id="patch_6">
    <path d="M 37.98 36.475625 
L 456.48 36.475625 
" style="fill: none; stroke: #000000; stroke-width: 0.5; stroke-linejoin: miter; stroke-linecap: square"/>
   </g>
   <g id="line2d_123">
    <path d="M 57.002727 211.26705 
L 57.078818 211.266885 
L 57.154909 211.733475 
L 57.459273 210.329479 
L 57.535364 211.250053 
L 57.687545 210.320404 
L 57.991909 211.660224 
L 58.144091 211.637106 
L 58.372364 212.941367 
L 58.524545 212.457729 
L 58.676727 212.419293 
L 58.905 211.476324 
L 58.981091 211.894765 
L 59.209364 210.955853 
L 59.285455 210.933814 
L 59.361545 210.478291 
L 59.437636 210.887482 
L 59.513727 210.86319 
L 59.742 209.932106 
L 59.818091 211.977696 
L 59.894182 211.949287 
L 60.122455 211.017455 
L 60.198545 210.988363 
L 60.426818 210.063791 
L 60.579 210.003458 
L 60.655091 210.385079 
L 60.883364 209.464297 
L 61.035545 210.211569 
L 61.111636 210.174621 
L 61.187727 210.136926 
L 61.416 208.815004 
L 61.492091 209.578374 
L 61.568182 209.538095 
L 61.644273 209.497072 
L 61.872545 208.580249 
L 61.948636 210.138715 
L 62.024727 209.702175 
L 62.176909 210.394298 
L 62.253 209.957773 
L 62.329091 211.502739 
L 62.405182 211.066403 
L 62.481273 210.631564 
L 62.709545 213.26834 
L 62.937818 212.348205 
L 63.09 212.240921 
L 63.166091 212.561931 
L 63.242182 212.130651 
L 63.394364 213.507324 
L 63.470455 213.445202 
L 63.546545 213.012053 
L 63.622636 214.513137 
L 63.698727 214.448183 
L 63.774818 214.749539 
L 63.927 213.884055 
L 64.003091 214.181037 
L 64.079182 215.302998 
L 64.155273 215.232993 
L 64.307455 214.731318 
L 64.535727 217.127459 
L 64.611818 217.049182 
L 64.687909 216.616048 
L 64.764 217.722013 
L 64.840091 217.28992 
L 64.916182 217.561135 
L 65.068364 216.699729 
L 65.144455 217.314416 
L 65.220545 217.230741 
L 65.296636 217.146353 
L 65.372727 218.584752 
L 65.448818 218.49714 
L 65.829273 216.695186 
L 65.905364 216.944764 
L 65.981455 216.855329 
L 66.133636 216.674347 
L 66.361909 215.735547 
L 66.438 215.643974 
L 66.590182 215.130796 
L 66.666273 215.038164 
L 66.742364 216.109594 
L 66.818455 215.689869 
L 66.894545 215.595353 
L 66.970636 215.177305 
L 67.122818 215.628457 
L 67.351091 214.695992 
L 67.427182 214.597671 
L 67.503273 214.182921 
L 67.579364 214.713731 
L 67.959818 212.96124 
L 68.188091 213.577311 
L 68.264182 213.471605 
L 68.796818 210.920011 
L 68.949 210.709228 
L 69.025091 210.306903 
L 69.101182 210.495843 
L 69.177273 210.38818 
L 69.405545 209.770214 
L 69.481636 209.95111 
L 69.557727 209.840249 
L 70.014273 208.027955 
L 70.090364 207.916498 
L 70.394727 206.906939 
L 70.470818 206.794259 
L 70.546909 207.799314 
L 70.623 207.408427 
L 71.003455 205.472712 
L 71.079545 208.88269 
L 71.155636 208.502699 
L 71.231727 208.392506 
L 71.383909 207.636764 
L 71.536091 210.155668 
L 71.612182 209.776217 
L 71.688273 209.924189 
L 71.764364 209.54532 
L 71.916545 211.771971 
L 71.992636 211.651295 
L 72.220909 210.515175 
L 72.297 210.650655 
L 72.449182 210.406183 
L 72.601364 209.654618 
L 72.677455 210.286416 
L 72.981818 209.283747 
L 73.134 209.030334 
L 73.210091 209.148047 
L 73.286182 210.343269 
L 73.362273 209.968084 
L 73.438364 210.079445 
L 73.666636 209.679426 
L 73.818818 208.933183 
L 73.894909 209.869941 
L 73.971 209.734338 
L 74.199273 208.621881 
L 74.275364 208.719848 
L 74.351455 208.583164 
L 74.655818 213.182872 
L 74.731909 212.807093 
L 74.808 212.887209 
L 74.884091 212.512021 
L 74.960182 212.589386 
L 75.036273 212.439671 
L 75.112364 212.737524 
L 75.492818 211.75023 
L 75.721091 210.851154 
L 75.797182 210.913708 
L 76.405909 208.395219 
L 76.862455 207.254998 
L 77.395091 205.148378 
L 77.623364 204.481008 
L 77.699455 206.539307 
L 77.775545 206.182641 
L 78.079909 204.959718 
L 78.232091 210.592012 
L 78.384273 209.886821 
L 78.612545 214.930291 
L 78.764727 216.225509 
L 78.840818 215.907181 
L 79.069091 215.325654 
L 79.145182 218.98134 
L 79.221273 218.667665 
L 79.525636 217.781677 
L 79.601727 218.80639 
L 79.677818 218.672371 
L 79.753909 218.360935 
L 79.83 218.403074 
L 79.906091 219.41575 
L 79.982182 219.277985 
L 80.134364 218.827827 
L 80.362636 218.240544 
L 80.438727 218.442891 
L 80.819182 217.068009 
L 80.971364 224.437972 
L 81.047455 224.135039 
L 81.123545 224.161671 
L 81.199636 224.022913 
L 81.275727 225.483395 
L 81.351818 225.177461 
L 81.656182 224.282509 
L 81.884455 223.693128 
L 81.960545 223.392296 
L 82.036636 225.272673 
L 82.112727 224.969612 
L 82.264909 224.520482 
L 82.341 224.219649 
L 82.417091 224.999528 
L 82.493182 224.698533 
L 83.178 222.324795 
L 83.254091 222.323078 
L 83.406273 222.170459 
L 83.634545 222.147646 
L 83.710636 222.897855 
L 83.786727 222.884625 
L 84.395455 220.817385 
L 84.471545 221.551651 
L 84.547636 221.395843 
L 84.623727 221.373914 
L 85.232455 219.204105 
L 85.308545 220.922287 
L 85.384636 220.763298 
L 85.460727 220.604017 
L 85.536818 221.312418 
L 85.612909 221.024787 
L 85.917273 220.131184 
L 85.993364 221.076133 
L 86.069455 220.789498 
L 86.297727 220.056003 
L 86.526 221.263454 
L 86.906455 219.844153 
L 86.982545 220.518864 
L 87.058636 220.236489 
L 87.134727 219.954992 
L 87.210818 223.672446 
L 87.286909 223.39223 
L 87.363 223.112874 
L 87.439091 227.056843 
L 87.515182 226.777579 
L 87.667364 226.221586 
L 87.743455 226.990911 
L 87.819545 226.712426 
L 88.504364 224.348432 
L 88.580455 224.991142 
L 88.656545 224.719219 
L 88.808727 224.280535 
L 88.884818 224.915876 
L 88.960909 224.64467 
L 89.265273 223.86662 
L 89.341364 224.590173 
L 89.417455 224.319732 
L 90.102273 222.203703 
L 90.178364 226.877542 
L 90.254455 226.610956 
L 90.863182 224.862101 
L 91.091455 224.167234 
L 91.167545 224.75284 
L 91.243636 224.491899 
L 91.776273 222.76988 
L 91.928455 223.993313 
L 92.004545 223.816834 
L 92.156727 223.301717 
L 92.232818 223.943324 
L 92.308909 223.685218 
L 92.461091 223.171262 
L 92.537182 223.725252 
L 92.613273 223.468185 
L 92.765455 222.956292 
L 92.841545 223.503482 
L 92.917636 223.32366 
L 93.069818 222.812893 
L 93.145909 223.352844 
L 93.222 223.246209 
L 93.526364 222.446027 
L 93.602455 223.757158 
L 93.678545 223.499999 
L 94.059 222.434014 
L 94.135091 222.949009 
L 94.211182 222.693756 
L 94.287273 223.341058 
L 94.363364 223.084487 
L 94.515545 222.64057 
L 94.591636 223.209904 
L 94.667727 223.019678 
L 95.124273 221.621312 
L 95.276455 222.597552 
L 95.352545 222.342604 
L 95.428636 222.82493 
L 95.504727 227.248096 
L 95.580818 226.989376 
L 95.961273 226.002553 
L 96.189545 225.409384 
L 96.417818 224.644892 
L 96.493909 225.101685 
L 96.57 224.847089 
L 96.646091 225.299671 
L 96.722182 225.099918 
L 97.026545 224.407786 
L 97.102636 224.848835 
L 97.483091 223.630361 
L 97.559182 224.113396 
L 97.635273 223.859592 
L 97.711364 224.286964 
L 98.396182 222.164925 
L 98.472273 222.577929 
L 98.624455 222.124131 
L 98.700545 222.531548 
L 98.928818 221.827071 
L 99.004909 229.401435 
L 99.081 229.173079 
L 99.157091 232.735632 
L 99.233182 232.592943 
L 99.309273 232.406615 
L 99.461455 233.227311 
L 99.918 232.011114 
L 99.994091 232.528637 
L 100.070182 232.337559 
L 100.146273 232.769318 
L 100.222364 232.576479 
L 100.374545 232.190847 
L 100.450636 232.575879 
L 101.972455 228.287512 
L 102.048545 228.645741 
L 102.200727 228.202786 
L 102.276818 228.586455 
L 102.581182 227.76126 
L 102.657273 228.106606 
L 103.037727 227.063325 
L 103.266 228.065249 
L 103.494273 227.454364 
L 103.570364 227.779173 
L 103.646455 227.558082 
L 103.722545 227.879139 
L 103.874727 227.436824 
L 103.950818 227.753111 
L 104.255182 226.917962 
L 104.331273 227.226911 
L 104.407364 227.006687 
L 104.483455 227.311943 
L 104.787818 226.475496 
L 104.94 227.089411 
L 105.016091 230.477323 
L 105.092182 230.253832 
L 105.548727 228.926051 
L 105.700909 232.548521 
L 106.005273 231.695681 
L 106.081364 235.037834 
L 106.157455 234.830826 
L 106.233545 235.095205 
L 106.766182 233.553518 
L 106.842273 233.808086 
L 106.994455 200.21226 
L 108.592364 195.36422 
L 108.668455 205.526516 
L 108.744545 205.319444 
L 108.896727 204.906989 
L 109.048909 205.358326 
L 109.505455 204.129452 
L 109.581545 204.765802 
L 109.657636 204.559231 
L 109.962 203.738537 
L 110.038091 203.946073 
L 110.266364 203.342427 
L 110.342455 206.502198 
L 110.418545 206.299666 
L 110.875091 205.07349 
L 110.951182 205.264104 
L 111.483818 203.849666 
L 111.559909 204.03123 
L 111.788182 203.42813 
L 111.864273 203.604701 
L 112.320818 202.407529 
L 112.396909 205.471919 
L 112.473 205.270895 
L 113.31 203.087558 
L 113.386091 203.24101 
L 113.462182 203.041625 
L 113.538273 203.188372 
L 114.223091 201.425728 
L 114.299182 204.396306 
L 114.375273 204.194938 
L 114.603545 203.603312 
L 114.679636 203.728794 
L 116.049273 200.258926 
L 116.125364 203.135323 
L 116.201455 202.944328 
L 116.353636 202.554616 
L 116.505818 202.765295 
L 117.266727 200.82986 
L 117.342818 200.923779 
L 117.571091 200.62734 
L 117.875455 199.878208 
L 117.951545 200.234862 
L 118.408091 199.364733 
L 118.484182 199.441078 
L 118.788545 198.681041 
L 118.864636 201.401761 
L 118.940727 201.198532 
L 119.853818 198.910823 
L 120.006 201.620514 
L 120.843 199.773818 
L 120.919091 199.797927 
L 121.832182 197.500046 
L 121.984364 202.570126 
L 122.060455 202.379568 
L 123.201818 199.550391 
L 123.277909 199.752655 
L 123.658364 199.015485 
L 123.734455 199.017747 
L 124.191 197.910808 
L 124.267091 200.257788 
L 124.343182 200.069975 
L 125.560636 197.237376 
L 125.712818 156.460037 
L 125.788909 156.424916 
L 126.169364 155.712399 
L 126.245455 155.671062 
L 127.995545 151.423458 
L 128.071636 151.50125 
L 131.495727 143.151372 
L 132.865364 140.223106 
L 133.321909 139.156154 
L 133.398 140.928542 
L 133.474091 140.69588 
L 134.615455 138.160932 
L 134.691545 139.837552 
L 134.767636 139.659176 
L 136.289455 136.044157 
L 136.365545 137.597612 
L 136.441636 137.420119 
L 137.202545 135.653383 
L 138.572182 132.510139 
L 138.648273 150.773859 
L 138.724364 150.624685 
L 139.485273 149.119809 
L 141.387545 145.567544 
L 141.615818 147.800912 
L 141.920182 147.200009 
L 141.996273 166.33096 
L 142.072364 166.201457 
L 146.105182 159.565258 
L 147.779182 157.012071 
L 147.855273 157.734912 
L 147.931364 157.617652 
L 148.540091 156.647082 
L 148.616182 157.305262 
L 148.692273 157.152567 
L 149.301 156.16126 
L 149.377091 156.754794 
L 149.453182 156.630085 
L 150.975 154.10642 
L 151.051091 154.564186 
L 151.127182 154.438425 
L 152.649 151.76082 
L 153.181636 150.791785 
L 163.682182 134.139183 
L 163.834364 133.458239 
L 166.725818 129.063246 
L 166.878 128.138196 
L 171.671727 121.233494 
L 174.182727 117.915627 
L 174.258818 144.940403 
L 174.334909 144.862815 
L 176.085 143.108678 
L 176.237182 141.496859 
L 176.769818 140.934157 
L 176.922 139.275949 
L 181.107 134.901909 
L 182.096182 133.888469 
L 182.172273 162.635646 
L 182.248364 162.57999 
L 182.552727 162.358674 
L 182.704909 160.316207 
L 183.161455 160.094748 
L 183.389727 159.920208 
L 183.541909 157.811183 
L 183.846273 157.559353 
L 183.998455 155.357449 
L 184.531091 154.847975 
L 184.683273 152.583679 
L 185.215909 152.189914 
L 185.368091 152.105525 
L 185.900727 151.580065 
L 186.052909 149.20582 
L 186.433364 148.958875 
L 186.585545 148.876335 
L 189.629182 146.108706 
L 191.988 144.081105 
L 192.064091 174.828087 
L 192.140182 174.779571 
L 194.118545 173.592168 
L 194.194636 173.657405 
L 194.499 173.442573 
L 194.575091 173.586846 
L 194.651182 173.543744 
L 195.868636 172.830709 
L 196.020818 169.729537 
L 196.629545 169.484976 
L 196.781727 169.394309 
L 196.933909 166.256829 
L 200.205818 164.171908 
L 200.358 160.78767 
L 201.271091 160.18291 
L 201.423273 160.242367 
L 201.499364 160.193332 
L 201.651545 107.772899 
L 201.955909 107.542466 
L 202.108091 104.003319 
L 202.260273 103.878418 
L 202.336364 103.981858 
L 202.412455 103.920202 
L 202.869 103.55245 
L 203.021182 99.901582 
L 205.836545 97.400599 
L 205.988727 93.581513 
L 207.814909 92.068785 
L 208.043182 92.288813 
L 211.315091 89.713381 
L 211.999909 89.188513 
L 212.152091 84.964626 
L 212.228182 84.901946 
L 212.380364 80.653504 
L 212.760818 80.317502 
L 212.989091 80.603708 
L 214.054364 79.695257 
L 214.130455 79.88294 
L 214.206545 79.81941 
L 215.347909 78.877442 
L 215.500091 74.427797 
L 215.728364 74.227786 
L 215.804455 74.425772 
L 215.880545 74.359951 
L 216.793636 73.577248 
L 216.869727 73.785116 
L 216.945818 73.67426 
L 217.174091 73.482777 
L 217.250182 73.694501 
L 217.326273 73.584436 
L 218.924182 72.233554 
L 219.000273 72.461043 
L 219.076364 72.400586 
L 219.913364 71.741246 
L 220.065545 67.009584 
L 220.522091 66.578402 
L 220.598182 66.815677 
L 220.674273 66.75287 
L 222.196091 65.415476 
L 222.272182 65.618131 
L 222.348273 65.55766 
L 224.098364 64.139081 
L 224.250545 59.154819 
L 226.989818 56.785096 
L 227.294182 56.492697 
L 227.446364 56.373137 
L 227.522455 56.666826 
L 227.598545 56.607821 
L 228.587727 55.741401 
L 228.739909 50.494905 
L 229.120364 50.18461 
L 229.196455 50.48885 
L 229.272545 50.427685 
L 230.337818 49.579625 
L 230.413909 86.807229 
L 230.49 86.757928 
L 235.131545 83.650029 
L 235.359818 72.519737 
L 237.566455 70.939875 
L 237.642545 71.317544 
L 237.718636 71.266672 
L 240.762273 69.224394 
L 240.838364 69.628852 
L 240.914455 69.581179 
L 243.349364 68.02592 
L 243.425455 68.451837 
L 243.501545 68.406729 
L 244.490727 67.825642 
L 244.642909 61.75768 
L 244.719 61.709726 
L 244.795091 55.674418 
L 244.871182 94.768631 
L 244.947273 94.72625 
L 245.251636 94.494222 
L 247.153909 93.392662 
L 247.306091 87.204441 
L 251.110636 84.917738 
L 251.262818 78.539396 
L 251.338909 118.364847 
L 251.415 118.328217 
L 253.165091 117.498794 
L 253.241182 118.003919 
L 253.317273 117.968991 
L 256.817455 116.270918 
L 257.121818 115.999032 
L 257.882727 115.601804 
L 258.111 115.433714 
L 260.393727 114.407979 
L 260.622 114.242188 
L 261.839455 113.749044 
L 261.915545 114.317656 
L 261.991636 114.28771 
L 263.437364 113.652068 
L 263.513455 114.232364 
L 263.589545 114.203673 
L 264.883091 113.721643 
L 264.959182 114.312471 
L 265.035273 114.284974 
L 267.622364 113.371398 
L 267.698455 113.981424 
L 267.774545 113.879117 
L 271.198636 112.674992 
L 271.274727 113.30922 
L 271.350818 113.285417 
L 274.927091 112.201796 
L 275.079273 104.884691 
L 275.155364 105.541754 
L 275.231455 105.517213 
L 277.894636 104.677843 
L 278.046818 97.251921 
L 278.275091 97.173884 
L 278.351182 97.84891 
L 278.427273 97.823436 
L 278.883818 97.671256 
L 278.959909 98.350498 
L 279.036 98.325716 
L 279.873 98.05516 
L 279.949091 98.740935 
L 280.101273 91.242093 
L 288.927818 88.285488 
L 289.612636 87.990208 
L 289.688727 88.731292 
L 289.764818 88.708877 
L 292.808455 87.743731 
L 292.884545 131.306608 
L 292.960636 131.290631 
L 293.188909 131.152249 
L 294.939 130.69957 
L 295.015091 174.365375 
L 295.091182 174.355112 
L 297.754364 174.005543 
L 297.830455 174.799608 
L 297.906545 174.790276 
L 306.276545 173.846752 
L 306.352636 174.682666 
L 306.428727 174.675152 
L 312.972545 174.070843 
L 313.124727 174.930995 
L 314.950909 174.683536 
L 315.103091 174.570626 
L 316.472727 174.463393 
L 316.624909 175.339394 
L 322.788273 174.814102 
L 322.940455 174.70016 
L 325.071 174.565542 
L 325.223182 165.909186 
L 326.060182 165.841142 
L 326.212364 166.753792 
L 329.332091 166.414569 
L 329.484273 166.296772 
L 334.354091 165.848821 
L 334.506273 166.792699 
L 336.865091 166.64646 
L 337.017273 157.765713 
L 343.104545 157.314518 
L 343.256727 148.325042 
L 347.137364 147.9998 
L 347.213455 148.987784 
L 347.289545 148.981838 
L 350.561455 148.732996 
L 350.713636 149.725899 
L 356.268273 149.348555 
L 356.420455 150.358329 
L 358.931455 150.205519 
L 359.007545 196.901821 
L 359.083636 196.899684 
L 362.279455 196.812852 
L 362.431636 196.691493 
L 363.953455 196.651817 
L 364.105636 243.440093 
L 365.931818 243.447215 
L 366.084 243.329616 
L 366.464455 243.331068 
L 366.616636 290.132362 
L 369.279818 290.217314 
L 369.355909 280.905615 
L 369.432 280.907123 
L 370.269 280.923683 
L 370.421182 280.807474 
L 373.160455 280.860559 
L 373.312636 280.743567 
L 373.921364 280.755122 
L 374.073545 280.637901 
L 379.399909 280.736273 
L 379.552091 271.31081 
L 389.748273 271.391925 
L 389.900455 272.482195 
L 391.574455 272.4985 
L 391.726636 262.953537 
L 393.781091 262.955427 
L 393.933273 264.051718 
L 399.411818 264.067248 
L 399.564 311.594809 
L 402.607636 311.659625 
L 402.683727 302.033418 
L 402.759818 302.034427 
L 406.031727 302.077306 
L 406.183909 292.423482 
L 406.336091 292.424327 
L 406.488273 282.765552 
L 409.227545 282.76093 
L 409.379727 282.633686 
L 437.457273 282.609498 
L 437.457273 282.609498 
" clip-path="url(#pec9d1d04e2)" style="fill: none; stroke: #ff7f0e; stroke-width: 2.5; stroke-linecap: square"/>
   </g>
   <g id="text_16">
    <!-- Second-Order Coherence Difference $g_2$ vs $t/\gamma$ ($|\alpha=1\rangle$, $U=0$, $\gamma=1$) -->
    <g transform="translate(23.55 19.28) scale(0.16 -0.16)">
     <defs>
      <path id="STIXGeneral-Regular-53" d="M 3002 2963 
L 2842 2963 
Q 2733 3360 2579 3565 
Q 2189 4064 1651 4064 
Q 1357 4064 1181 3894 
Q 1005 3725 1005 3456 
Q 1005 3328 1069 3206 
Q 1133 3085 1206 2998 
Q 1280 2912 1465 2784 
Q 1651 2656 1766 2589 
Q 1882 2522 2150 2362 
Q 2669 2061 2905 1763 
Q 3142 1466 3142 1107 
Q 3142 576 2771 243 
Q 2400 -90 1837 -90 
Q 1421 -90 1082 58 
Q 915 128 781 128 
Q 704 128 653 70 
Q 602 13 602 -83 
L 461 -83 
L 275 1274 
L 416 1274 
Q 845 141 1734 141 
Q 2074 141 2285 342 
Q 2496 544 2496 858 
Q 2496 1158 2310 1363 
Q 2003 1696 1235 2106 
Q 454 2522 454 3206 
Q 454 3718 768 4022 
Q 1082 4326 1568 4326 
Q 1907 4326 2240 4186 
Q 2413 4109 2522 4109 
Q 2688 4109 2726 4326 
L 2861 4326 
L 3002 2963 
z
" transform="scale(0.015625)"/>
      <path id="STIXGeneral-Regular-2d" d="M 1824 1242 
L 250 1242 
L 250 1645 
L 1824 1645 
L 1824 1242 
z
" transform="scale(0.015625)"/>
      <path id="STIXGeneral-Regular-4f" d="M 4403 2118 
Q 4403 1133 3820 521 
Q 3238 -90 2310 -90 
Q 1376 -90 797 524 
Q 218 1139 218 2138 
Q 218 3110 797 3718 
Q 1376 4326 2310 4326 
Q 3245 4326 3824 3702 
Q 4403 3078 4403 2118 
z
M 3674 2157 
Q 3674 2701 3520 3133 
Q 3366 3565 3091 3795 
Q 2733 4096 2304 4096 
Q 1760 4096 1389 3667 
Q 1184 3437 1065 3011 
Q 947 2586 947 2125 
Q 947 960 1523 429 
Q 1837 141 2317 141 
Q 2816 141 3142 448 
Q 3674 960 3674 2157 
z
" transform="scale(0.015625)"/>
      <path id="STIXGeneral-Regular-43" d="M 3930 838 
L 4051 723 
Q 3482 -90 2304 -90 
Q 1376 -90 794 480 
Q 179 1082 179 2080 
Q 179 3014 755 3661 
Q 1357 4326 2310 4326 
Q 2720 4326 3072 4230 
Q 3475 4115 3514 4115 
Q 3725 4115 3782 4326 
L 3910 4326 
L 3968 2874 
L 3821 2874 
Q 3718 3334 3488 3584 
Q 3034 4070 2458 4070 
Q 1747 4070 1334 3548 
Q 922 3027 922 2182 
Q 922 1152 1382 653 
Q 1811 192 2522 192 
Q 2944 192 3251 339 
Q 3558 486 3930 838 
z
" transform="scale(0.015625)"/>
      <path id="STIXGeneral-Regular-68" d="M 3117 0 
L 1760 0 
L 1760 96 
Q 2042 128 2118 224 
Q 2195 320 2195 653 
L 2195 1920 
Q 2195 2598 1722 2598 
Q 1530 2598 1370 2508 
Q 1210 2419 1005 2195 
L 1005 653 
Q 1005 320 1081 224 
Q 1158 128 1440 96 
L 1440 0 
L 58 0 
L 58 96 
Q 333 134 400 224 
Q 467 314 467 653 
L 467 3667 
Q 467 3872 406 3933 
Q 346 3994 141 3994 
Q 83 3994 64 3987 
L 64 4090 
L 237 4141 
Q 730 4288 973 4371 
L 1005 4352 
L 1005 2406 
Q 1229 2694 1446 2819 
Q 1664 2944 1946 2944 
Q 2733 2944 2733 1926 
L 2733 653 
Q 2733 320 2793 233 
Q 2854 147 3117 96 
L 3117 0 
z
" transform="scale(0.015625)"/>
      <path id="STIXGeneral-Regular-44" d="M 102 4237 
L 1830 4237 
Q 3078 4237 3750 3654 
Q 4384 3110 4384 2138 
Q 4384 966 3514 410 
Q 2880 0 1901 0 
L 102 0 
L 102 122 
Q 474 147 570 252 
Q 666 358 666 736 
L 666 3520 
Q 666 3891 570 3990 
Q 474 4090 102 4115 
L 102 4237 
z
M 1318 3731 
L 1318 538 
Q 1318 365 1379 301 
Q 1440 237 1626 237 
Q 2125 237 2432 307 
Q 2739 378 3021 570 
Q 3686 1018 3686 2099 
Q 3686 3027 3078 3558 
Q 2803 3802 2476 3901 
Q 2150 4000 1658 4000 
Q 1472 4000 1395 3942 
Q 1318 3885 1318 3731 
z
" transform="scale(0.015625)"/>
      <path id="STIXGeneral-Regular-76" d="M 3053 2880 
L 3053 2784 
Q 2906 2771 2835 2688 
Q 2765 2605 2637 2285 
L 1818 230 
Q 1690 -90 1638 -90 
Q 1587 -90 1523 77 
Q 1510 96 1497 141 
Q 1485 186 1472 211 
L 704 2048 
Q 499 2534 403 2652 
Q 307 2771 122 2784 
L 122 2880 
L 1376 2880 
L 1376 2784 
Q 1210 2771 1146 2732 
Q 1082 2694 1082 2611 
Q 1082 2509 1139 2368 
L 1792 730 
L 2426 2387 
Q 2464 2483 2464 2579 
Q 2464 2758 2163 2784 
L 2163 2880 
L 3053 2880 
z
" transform="scale(0.015625)"/>
      <path id="STIXGeneral-Regular-73" d="M 998 1926 
L 1664 1523 
Q 1984 1331 2105 1164 
Q 2227 998 2227 736 
Q 2227 416 1961 176 
Q 1696 -64 1331 -64 
Q 1030 -64 864 -6 
Q 691 51 570 51 
Q 461 51 416 -26 
L 333 -26 
L 333 979 
L 435 979 
Q 538 512 730 294 
Q 922 77 1248 77 
Q 1485 77 1632 211 
Q 1779 346 1779 550 
Q 1779 845 1440 1030 
L 1094 1222 
Q 326 1651 326 2150 
Q 326 2522 566 2730 
Q 806 2938 1210 2938 
Q 1491 2938 1638 2867 
Q 1754 2816 1818 2816 
Q 1862 2816 1920 2880 
L 1990 2880 
L 2022 2010 
L 1926 2010 
Q 1818 2445 1654 2621 
Q 1491 2797 1203 2797 
Q 986 2797 854 2688 
Q 723 2579 723 2362 
Q 723 2253 796 2128 
Q 870 2003 998 1926 
z
" transform="scale(0.015625)"/>
      <path id="STIXGeneral-Regular-28" d="M 1946 -1030 
L 1869 -1133 
Q 1126 -710 716 32 
Q 307 774 307 1613 
Q 307 3386 1888 4326 
L 1946 4224 
Q 1293 3667 1075 3126 
Q 858 2586 858 1632 
Q 858 685 1082 96 
Q 1306 -493 1946 -1030 
z
" transform="scale(0.015625)"/>
      <path id="Cmsy10-6a" d="M 763 -1484 
L 763 4684 
Q 763 4734 800 4767 
Q 838 4800 891 4800 
Q 938 4800 978 4767 
Q 1019 4734 1019 4684 
L 1019 -1484 
Q 1019 -1534 978 -1567 
Q 938 -1600 891 -1600 
Q 838 -1600 800 -1567 
Q 763 -1534 763 -1484 
z
" transform="scale(0.015625)"/>
      <path id="Cmmi10-ae" d="M 1288 -72 
Q 984 -72 748 72 
Q 513 216 384 459 
Q 256 703 256 1013 
Q 256 1447 498 1872 
Q 741 2297 1142 2562 
Q 1544 2828 1984 2828 
Q 2309 2828 2556 2658 
Q 2803 2488 2931 2205 
Q 3059 1922 3059 1600 
L 3066 1172 
Q 3284 1475 3436 1801 
Q 3588 2128 3669 2478 
Q 3681 2516 3719 2516 
L 3794 2516 
Q 3853 2516 3853 2456 
Q 3853 2450 3847 2438 
Q 3772 2144 3659 1873 
Q 3547 1603 3395 1350 
Q 3244 1097 3066 891 
Q 3066 97 3250 97 
Q 3369 97 3445 167 
Q 3522 238 3580 341 
Q 3638 444 3653 447 
L 3731 447 
Q 3781 447 3781 384 
Q 3781 225 3598 76 
Q 3416 -72 3238 -72 
Q 3006 -72 2853 78 
Q 2700 228 2644 469 
Q 2344 213 1994 70 
Q 1644 -72 1288 -72 
z
M 1300 97 
Q 1984 97 2613 659 
Q 2609 697 2603 751 
Q 2597 806 2597 813 
L 2597 1503 
Q 2597 2663 1972 2663 
Q 1597 2663 1315 2342 
Q 1034 2022 892 1576 
Q 750 1131 750 763 
Q 750 484 892 290 
Q 1034 97 1300 97 
z
" transform="scale(0.015625)"/>
      <path id="Cmr10-3d" d="M 481 850 
Q 428 850 393 890 
Q 359 931 359 978 
Q 359 1031 393 1068 
Q 428 1106 481 1106 
L 4500 1106 
Q 4547 1106 4581 1068 
Q 4616 1031 4616 978 
Q 4616 931 4581 890 
Q 4547 850 4500 850 
L 481 850 
z
M 481 2094 
Q 428 2094 393 2131 
Q 359 2169 359 2222 
Q 359 2269 393 2309 
Q 428 2350 481 2350 
L 4500 2350 
Q 4547 2350 4581 2309 
Q 4616 2269 4616 2222 
Q 4616 2169 4581 2131 
Q 4547 2094 4500 2094 
L 481 2094 
z
" transform="scale(0.015625)"/>
      <path id="Cmr10-31" d="M 594 0 
L 594 225 
Q 1394 225 1394 428 
L 1394 3788 
Q 1063 3628 556 3628 
L 556 3853 
Q 1341 3853 1741 4263 
L 1831 4263 
Q 1853 4263 1873 4245 
Q 1894 4228 1894 4206 
L 1894 428 
Q 1894 225 2694 225 
L 2694 0 
L 594 0 
z
" transform="scale(0.015625)"/>
      <path id="Cmex10-ae" d="M 500 -7297 
Q 500 -7263 513 -7250 
L 2119 -3584 
L 513 84 
Q 500 97 500 128 
Q 500 175 537 215 
Q 575 256 628 256 
Q 703 256 750 178 
L 2381 -3541 
Q 2388 -3553 2388 -3584 
Q 2388 -3616 2381 -3634 
L 750 -7347 
Q 700 -7425 628 -7425 
Q 575 -7425 537 -7384 
Q 500 -7344 500 -7297 
z
" transform="scale(0.015625)"/>
      <path id="STIXGeneral-Regular-2c" d="M 531 -902 
L 467 -781 
Q 998 -422 998 -96 
Q 998 -13 909 -13 
Q 883 -13 822 -25 
Q 762 -38 723 -38 
Q 352 -38 352 288 
Q 352 454 457 553 
Q 563 653 736 653 
Q 954 653 1101 496 
Q 1248 339 1248 96 
Q 1248 -198 1053 -473 
Q 858 -749 531 -902 
z
" transform="scale(0.015625)"/>
      <path id="Cmmi10-55" d="M 941 891 
Q 941 656 1033 472 
Q 1125 288 1300 186 
Q 1475 84 1709 84 
Q 1984 84 2245 196 
Q 2506 309 2715 509 
Q 2925 709 3073 965 
Q 3222 1222 3284 1472 
L 3859 3781 
Q 3872 3850 3872 3878 
Q 3872 4147 3378 4147 
Q 3316 4147 3316 4231 
Q 3338 4313 3350 4342 
Q 3363 4372 3425 4372 
L 4813 4372 
Q 4841 4372 4859 4344 
Q 4878 4316 4878 4288 
Q 4878 4284 4865 4239 
Q 4853 4194 4836 4170 
Q 4819 4147 4794 4147 
Q 4181 4147 4084 3756 
L 3506 1447 
Q 3434 1147 3264 864 
Q 3094 581 2845 351 
Q 2597 122 2298 -9 
Q 2000 -141 1691 -141 
Q 1338 -141 1045 14 
Q 753 169 587 447 
Q 422 725 422 1088 
Q 422 1297 469 1472 
L 1088 3956 
Q 1100 4019 1100 4044 
Q 1100 4113 1025 4122 
Q 903 4147 563 4147 
Q 500 4147 500 4231 
Q 522 4313 534 4342 
Q 547 4372 609 4372 
L 2328 4372 
Q 2394 4372 2394 4288 
Q 2391 4272 2381 4234 
Q 2372 4197 2356 4172 
Q 2341 4147 2309 4147 
Q 1919 4147 1766 4103 
Q 1681 4072 1644 3928 
L 1025 1447 
Q 941 1109 941 891 
z
" transform="scale(0.015625)"/>
      <path id="Cmr10-30" d="M 1600 -141 
Q 816 -141 533 504 
Q 250 1150 250 2041 
Q 250 2597 351 3087 
Q 453 3578 754 3920 
Q 1056 4263 1600 4263 
Q 2022 4263 2290 4056 
Q 2559 3850 2700 3523 
Q 2841 3197 2892 2823 
Q 2944 2450 2944 2041 
Q 2944 1491 2842 1011 
Q 2741 531 2444 195 
Q 2147 -141 1600 -141 
z
M 1600 25 
Q 1956 25 2131 390 
Q 2306 756 2347 1200 
Q 2388 1644 2388 2144 
Q 2388 2625 2347 3031 
Q 2306 3438 2132 3767 
Q 1959 4097 1600 4097 
Q 1238 4097 1063 3765 
Q 888 3434 847 3029 
Q 806 2625 806 2144 
Q 806 1788 823 1472 
Q 841 1156 916 820 
Q 991 484 1158 254 
Q 1325 25 1600 25 
z
" transform="scale(0.015625)"/>
      <path id="STIXGeneral-Regular-29" d="M 186 4224 
L 262 4326 
Q 992 3891 1408 3148 
Q 1824 2406 1824 1581 
Q 1824 -166 243 -1133 
L 186 -1030 
Q 845 -486 1059 54 
Q 1274 595 1274 1562 
Q 1274 2534 1059 3120 
Q 845 3706 186 4224 
z
" transform="scale(0.015625)"/>
     </defs>
     <use xlink:href="#STIXGeneral-Regular-53" transform="translate(0 0.658854)"/>
     <use xlink:href="#STIXGeneral-Regular-65" transform="translate(55.599991 0.658854)"/>
     <use xlink:href="#STIXGeneral-Regular-63" transform="translate(99.999985 0.658854)"/>
     <use xlink:href="#STIXGeneral-Regular-6f" transform="translate(144.399979 0.658854)"/>
     <use xlink:href="#STIXGeneral-Regular-6e" transform="translate(194.399963 0.658854)"/>
     <use xlink:href="#STIXGeneral-Regular-64" transform="translate(244.399948 0.658854)"/>
     <use xlink:href="#STIXGeneral-Regular-2d" transform="translate(294.399933 0.658854)"/>
     <use xlink:href="#STIXGeneral-Regular-4f" transform="translate(327.699921 0.658854)"/>
     <use xlink:href="#STIXGeneral-Regular-72" transform="translate(399.899902 0.658854)"/>
     <use xlink:href="#STIXGeneral-Regular-64" transform="translate(433.19989 0.658854)"/>
     <use xlink:href="#STIXGeneral-Regular-65" transform="translate(483.199875 0.658854)"/>
     <use xlink:href="#STIXGeneral-Regular-72" transform="translate(527.599869 0.658854)"/>
     <use xlink:href="#STIXGeneral-Regular-20" transform="translate(560.899857 0.658854)"/>
     <use xlink:href="#STIXGeneral-Regular-43" transform="translate(585.899841 0.658854)"/>
     <use xlink:href="#STIXGeneral-Regular-6f" transform="translate(652.599838 0.658854)"/>
     <use xlink:href="#STIXGeneral-Regular-68" transform="translate(702.599823 0.658854)"/>
     <use xlink:href="#STIXGeneral-Regular-65" transform="translate(752.599808 0.658854)"/>
     <use xlink:href="#STIXGeneral-Regular-72" transform="translate(796.999802 0.658854)"/>
     <use xlink:href="#STIXGeneral-Regular-65" transform="translate(830.299789 0.658854)"/>
     <use xlink:href="#STIXGeneral-Regular-6e" transform="translate(874.699783 0.658854)"/>
     <use xlink:href="#STIXGeneral-Regular-63" transform="translate(924.699768 0.658854)"/>
     <use xlink:href="#STIXGeneral-Regular-65" transform="translate(969.099762 0.658854)"/>
     <use xlink:href="#STIXGeneral-Regular-20" transform="translate(1013.499756 0.658854)"/>
     <use xlink:href="#STIXGeneral-Regular-44" transform="translate(1038.499741 0.658854)"/>
     <use xlink:href="#STIXGeneral-Regular-69" transform="translate(1110.699722 0.658854)"/>
     <use xlink:href="#STIXGeneral-Regular-66" transform="translate(1138.49971 0.658854)"/>
     <use xlink:href="#STIXGeneral-Regular-66" transform="translate(1171.799698 0.658854)"/>
     <use xlink:href="#STIXGeneral-Regular-65" transform="translate(1205.099686 0.658854)"/>
     <use xlink:href="#STIXGeneral-Regular-72" transform="translate(1249.49968 0.658854)"/>
     <use xlink:href="#STIXGeneral-Regular-65" transform="translate(1282.799667 0.658854)"/>
     <use xlink:href="#STIXGeneral-Regular-6e" transform="translate(1327.199661 0.658854)"/>
     <use xlink:href="#STIXGeneral-Regular-63" transform="translate(1377.199646 0.658854)"/>
     <use xlink:href="#STIXGeneral-Regular-65" transform="translate(1421.59964 0.658854)"/>
     <use xlink:href="#STIXGeneral-Regular-20" transform="translate(1465.999634 0.658854)"/>
     <use xlink:href="#Cmmi10-67" transform="translate(1490.999619 0.658854)"/>
     <use xlink:href="#Cmr10-32" transform="translate(1538.704697 -16.347396) scale(0.7)"/>
     <use xlink:href="#STIXGeneral-Regular-20" transform="translate(1580.08204 0.658854)"/>
     <use xlink:href="#STIXGeneral-Regular-76" transform="translate(1605.082025 0.658854)"/>
     <use xlink:href="#STIXGeneral-Regular-73" transform="translate(1655.08201 0.658854)"/>
     <use xlink:href="#STIXGeneral-Regular-20" transform="translate(1693.982004 0.658854)"/>
     <use xlink:href="#Cmmi10-74" transform="translate(1718.981989 0.658854)"/>
     <use xlink:href="#Cmmi10-3d" transform="translate(1755.065973 0.658854)"/>
     <use xlink:href="#Cmmi10-b0" transform="translate(1805.065973 0.658854)"/>
     <use xlink:href="#STIXGeneral-Regular-20" transform="translate(1856.774957 0.658854)"/>
     <use xlink:href="#STIXGeneral-Regular-28" transform="translate(1881.774942 0.658854)"/>
     <use xlink:href="#Cmsy10-6a" transform="translate(1915.07493 0.658854)"/>
     <use xlink:href="#Cmmi10-ae" transform="translate(1942.760477 0.658854)"/>
     <use xlink:href="#Cmr10-3d" transform="translate(2024.235086 0.658854)"/>
     <use xlink:href="#Cmr10-31" transform="translate(2119.479227 0.658854)"/>
     <use xlink:href="#Cmex10-ae" transform="translate(2169.479227 94)"/>
     <use xlink:href="#STIXGeneral-Regular-2c" transform="translate(2216.696024 0.658854)"/>
     <use xlink:href="#STIXGeneral-Regular-20" transform="translate(2241.696008 0.658854)"/>
     <use xlink:href="#Cmmi10-55" transform="translate(2266.695993 0.658854)"/>
     <use xlink:href="#Cmr10-3d" transform="translate(2352.467477 0.658854)"/>
     <use xlink:href="#Cmr10-30" transform="translate(2447.711618 0.658854)"/>
     <use xlink:href="#STIXGeneral-Regular-2c" transform="translate(2497.711618 0.658854)"/>
     <use xlink:href="#STIXGeneral-Regular-20" transform="translate(2522.711603 0.658854)"/>
     <use xlink:href="#Cmmi10-b0" transform="translate(2547.711588 0.658854)"/>
     <use xlink:href="#Cmr10-3d" transform="translate(2616.979166 0.658854)"/>
     <use xlink:href="#Cmr10-31" transform="translate(2712.223306 0.658854)"/>
     <use xlink:href="#STIXGeneral-Regular-29" transform="translate(2762.223306 0.658854)"/>
    </g>
   </g>
   <g id="line2d_124">
    <path d="M 57.002727 211.26705 
L 62.253 211.2656 
L 225.087545 211.160568 
L 238.327364 211.14173 
L 335.343273 210.64554 
L 339.223909 210.269431 
L 344.626364 209.716731 
L 348.050455 209.765998 
L 359.235818 210.074573 
L 375.747545 209.719764 
L 387.009 209.826893 
L 391.650545 209.604919 
L 404.357727 208.927978 
L 417.597545 209.167627 
L 424.597909 208.968571 
L 435.707182 208.944529 
L 437.457273 208.961116 
L 437.457273 208.961116 
" clip-path="url(#pec9d1d04e2)" style="fill: none; stroke: #1f77b4; stroke-width: 2.6; stroke-linecap: square"/>
   </g>
   <g id="legend_1">
    <g id="line2d_125">
     <path d="M 348.865625 50.225625 
L 359.865625 50.225625 
L 370.865625 50.225625 
" style="fill: none; stroke: #1f77b4; stroke-width: 2.6; stroke-linecap: square"/>
    </g>
    <g id="text_17">
     <!-- Density Matrix -->
     <g transform="translate(379.665625 54.075625) scale(0.11 -0.11)">
      <defs>
       <path id="STIXGeneral-Regular-79" d="M 3040 2880 
L 3040 2784 
Q 2925 2771 2854 2700 
Q 2784 2630 2720 2458 
L 1760 -160 
Q 1510 -838 1257 -1116 
Q 1005 -1395 640 -1395 
Q 435 -1395 313 -1289 
Q 192 -1184 192 -1024 
Q 192 -902 272 -816 
Q 352 -730 467 -730 
Q 653 -730 800 -813 
Q 883 -858 966 -858 
Q 1101 -858 1286 -576 
Q 1376 -448 1459 -211 
Q 1542 26 1542 115 
Q 1542 198 1274 762 
L 429 2566 
Q 346 2752 90 2790 
L 90 2880 
L 1402 2880 
L 1402 2784 
Q 1197 2778 1117 2739 
Q 1037 2701 1037 2611 
Q 1037 2541 1120 2349 
L 1837 749 
L 2458 2515 
Q 2483 2573 2483 2630 
Q 2483 2784 2189 2784 
L 2189 2880 
L 3040 2880 
z
" transform="scale(0.015625)"/>
       <path id="STIXGeneral-Regular-4d" d="M 5530 0 
L 3738 0 
L 3738 122 
Q 4115 147 4214 265 
Q 4314 384 4314 787 
L 4314 3661 
L 2682 0 
L 2592 0 
L 979 3514 
L 979 966 
Q 979 448 1088 294 
Q 1197 141 1574 122 
L 1574 0 
L 77 0 
L 77 122 
Q 358 141 480 205 
Q 602 269 650 432 
Q 698 595 698 966 
L 698 3514 
Q 698 3878 589 3984 
Q 480 4090 90 4115 
L 90 4237 
L 1357 4237 
L 2835 1024 
L 4250 4237 
L 5523 4237 
L 5523 4115 
Q 5178 4109 5072 3993 
Q 4966 3878 4966 3520 
L 4966 717 
Q 4966 378 5072 262 
Q 5178 147 5530 122 
L 5530 0 
z
" transform="scale(0.015625)"/>
      </defs>
      <use xlink:href="#STIXGeneral-Regular-44"/>
      <use xlink:href="#STIXGeneral-Regular-65" transform="translate(72.199982 0)"/>
      <use xlink:href="#STIXGeneral-Regular-6e" transform="translate(116.599976 0)"/>
      <use xlink:href="#STIXGeneral-Regular-73" transform="translate(166.59996 0)"/>
      <use xlink:href="#STIXGeneral-Regular-69" transform="translate(205.499954 0)"/>
      <use xlink:href="#STIXGeneral-Regular-74" transform="translate(233.299942 0)"/>
      <use xlink:href="#STIXGeneral-Regular-79" transform="translate(261.09993 0)"/>
      <use xlink:href="#STIXGeneral-Regular-20" transform="translate(311.099915 0)"/>
      <use xlink:href="#STIXGeneral-Regular-4d" transform="translate(336.099899 0)"/>
      <use xlink:href="#STIXGeneral-Regular-61" transform="translate(424.999893 0)"/>
      <use xlink:href="#STIXGeneral-Regular-74" transform="translate(469.399887 0)"/>
      <use xlink:href="#STIXGeneral-Regular-72" transform="translate(497.199875 0)"/>
      <use xlink:href="#STIXGeneral-Regular-69" transform="translate(530.499863 0)"/>
      <use xlink:href="#STIXGeneral-Regular-78" transform="translate(558.29985 0)"/>
     </g>
    </g>
    <g id="line2d_126">
     <path d="M 348.865625 65.823281 
L 359.865625 65.823281 
L 370.865625 65.823281 
" style="fill: none; stroke: #ff7f0e; stroke-width: 2.5; stroke-linecap: square"/>
    </g>
    <g id="text_18">
     <!-- Monte Carlo -->
     <g transform="translate(379.665625 69.673281) scale(0.11 -0.11)">
      <defs>
       <path id="STIXGeneral-Regular-6c" d="M 1645 0 
L 134 0 
L 134 96 
Q 435 122 531 221 
Q 627 320 627 589 
L 627 3590 
Q 627 3821 569 3910 
Q 512 4000 358 4000 
Q 224 4000 122 3987 
L 122 4090 
Q 730 4237 1133 4371 
L 1165 4346 
L 1165 557 
Q 1165 288 1254 201 
Q 1344 115 1645 96 
L 1645 0 
z
" transform="scale(0.015625)"/>
      </defs>
      <use xlink:href="#STIXGeneral-Regular-4d"/>
      <use xlink:href="#STIXGeneral-Regular-6f" transform="translate(88.899994 0)"/>
      <use xlink:href="#STIXGeneral-Regular-6e" transform="translate(138.899979 0)"/>
      <use xlink:href="#STIXGeneral-Regular-74" transform="translate(188.899963 0)"/>
      <use xlink:href="#STIXGeneral-Regular-65" transform="translate(216.699951 0)"/>
      <use xlink:href="#STIXGeneral-Regular-20" transform="translate(261.099945 0)"/>
      <use xlink:href="#STIXGeneral-Regular-43" transform="translate(286.09993 0)"/>
      <use xlink:href="#STIXGeneral-Regular-61" transform="translate(352.799927 0)"/>
      <use xlink:href="#STIXGeneral-Regular-72" transform="translate(397.199921 0)"/>
      <use xlink:href="#STIXGeneral-Regular-6c" transform="translate(430.499908 0)"/>
      <use xlink:href="#STIXGeneral-Regular-6f" transform="translate(458.299896 0)"/>
     </g>
    </g>
    <g id="line2d_127">
     <path d="M 348.865625 81.410625 
L 359.865625 81.410625 
L 370.865625 81.410625 
" style="fill: none; stroke: #2ca02c; stroke-width: 2.7; stroke-linecap: square"/>
    </g>
    <g id="text_19">
     <!-- Positive-P -->
     <g transform="translate(379.665625 85.260625) scale(0.11 -0.11)">
      <defs>
       <path id="STIXGeneral-Regular-50" d="M 102 4237 
L 1760 4237 
Q 2669 4237 3149 3834 
Q 3469 3565 3469 3072 
Q 3469 2560 3104 2234 
Q 2835 1990 2553 1916 
Q 2272 1843 1734 1843 
Q 1549 1843 1293 1862 
L 1293 717 
Q 1293 352 1398 246 
Q 1504 141 1894 122 
L 1894 0 
L 102 0 
L 102 122 
Q 474 147 557 256 
Q 640 365 640 781 
L 640 3526 
Q 640 3885 547 3987 
Q 454 4090 102 4115 
L 102 4237 
z
M 1293 3770 
L 1293 2118 
Q 1510 2099 1683 2099 
Q 2202 2099 2486 2352 
Q 2771 2605 2771 3040 
Q 2771 3558 2476 3779 
Q 2182 4000 1517 4000 
Q 1382 4000 1337 3952 
Q 1293 3904 1293 3770 
z
" transform="scale(0.015625)"/>
      </defs>
      <use xlink:href="#STIXGeneral-Regular-50"/>
      <use xlink:href="#STIXGeneral-Regular-6f" transform="translate(55.699997 0)"/>
      <use xlink:href="#STIXGeneral-Regular-73" transform="translate(105.699982 0)"/>
      <use xlink:href="#STIXGeneral-Regular-69" transform="translate(144.599976 0)"/>
      <use xlink:href="#STIXGeneral-Regular-74" transform="translate(172.399963 0)"/>
      <use xlink:href="#STIXGeneral-Regular-69" transform="translate(200.199951 0)"/>
      <use xlink:href="#STIXGeneral-Regular-76" transform="translate(227.999939 0)"/>
      <use xlink:href="#STIXGeneral-Regular-65" transform="translate(277.999924 0)"/>
      <use xlink:href="#STIXGeneral-Regular-2d" transform="translate(322.399918 0)"/>
      <use xlink:href="#STIXGeneral-Regular-50" transform="translate(355.699905 0)"/>
     </g>
    </g>
   </g>
  </g>
 </g>
 <defs>
  <clipPath id="pec9d1d04e2">
   <rect x="37.98" y="36.475625" width="418.5" height="288.288"/>
  </clipPath>
 </defs>
</svg>
