<?xml version="1.0" encoding="utf-8" standalone="no"?>
<!DOCTYPE svg PUBLIC "-//W3C//DTD SVG 1.1//EN"
  "http://www.w3.org/Graphics/SVG/1.1/DTD/svg11.dtd">
<svg xmlns:xlink="http://www.w3.org/1999/xlink" width="469.08pt" height="349.028pt" viewBox="0 0 469.08 349.028" xmlns="http://www.w3.org/2000/svg" version="1.1">
 <metadata>
  <rdf:RDF xmlns:dc="http://purl.org/dc/elements/1.1/" xmlns:cc="http://creativecommons.org/ns#" xmlns:rdf="http://www.w3.org/1999/02/22-rdf-syntax-ns#">
   <cc:Work>
    <dc:type rdf:resource="http://purl.org/dc/dcmitype/StillImage"/>
    <dc:date>2026-04-18T09:22:02.943753</dc:date>
    <dc:format>image/svg+xml</dc:format>
    <dc:creator>
     <cc:Agent>
      <dc:title>Matplotlib v3.10.8, https://matplotlib.org/</dc:title>
     </cc:Agent>
    </dc:creator>
   </cc:Work>
  </rdf:RDF>
 </metadata>
 <defs>
  <style type="text/css">*{stroke-linejoin: round; stroke-linecap: butt}</style>
 </defs>
 <g id="figure_1">
  <g id="patch_1">
   <path d="M 0 349.028 
L 469.08 349.028 
L 469.08 0 
L 0 0 
z
" style="fill: #ffffff"/>
  </g>
  <g id="axes_1">
   <g id="patch_2">
    <path d="M 46.98 314.528 
L 465.48 314.528 
L 465.48 26.24 
L 46.98 26.24 
z
" style="fill: #ffffff"/>
   </g>
   <g id="matplotlib.axis_1">
    <g id="xtick_1">
     <g id="line2d_1">
      <path d="M 66.002727 314.528 
L 66.002727 26.24 
" clip-path="url(#p6ddb71dc03)" style="fill: none; stroke: #b0b0b0; stroke-opacity: 0.35; stroke-width: 0.5; stroke-linecap: square"/>
     </g>
     <g id="line2d_2">
      <defs>
       <path id="mb8e24b3c1e" d="M 0 0 
L 0 -3 
" style="stroke: #000000; stroke-width: 0.5"/>
      </defs>
      <g>
       <use xlink:href="#mb8e24b3c1e" x="66.002727" y="314.528" style="stroke: #000000; stroke-width: 0.5"/>
      </g>
     </g>
     <g id="line2d_3">
      <defs>
       <path id="mb56275e453" d="M 0 0 
L 0 3 
" style="stroke: #000000; stroke-width: 0.5"/>
      </defs>
      <g>
       <use xlink:href="#mb56275e453" x="66.002727" y="26.24" style="stroke: #000000; stroke-width: 0.5"/>
      </g>
     </g>
     <g id="text_1">
      <!-- $\mathdefault{0}$ -->
      <g transform="translate(63.002727 326.223625) scale(0.12 -0.12)">
       <defs>
        <path id="STIXGeneral-Regular-30" d="M 3046 2112 
Q 3046 1683 2963 1302 
Q 2880 922 2717 602 
Q 2554 282 2266 96 
Q 1978 -90 1600 -90 
Q 1210 -90 915 108 
Q 621 307 461 640 
Q 301 973 227 1350 
Q 154 1728 154 2150 
Q 154 2746 301 3222 
Q 448 3699 790 4012 
Q 1133 4326 1626 4326 
Q 2253 4326 2649 3712 
Q 3046 3098 3046 2112 
z
M 2432 2080 
Q 2432 3091 2217 3625 
Q 2003 4160 1587 4160 
Q 1190 4160 979 3622 
Q 768 3085 768 2106 
Q 768 1120 979 598 
Q 1190 77 1600 77 
Q 2003 77 2217 598 
Q 2432 1120 2432 2080 
z
" transform="scale(0.015625)"/>
       </defs>
       <use xlink:href="#STIXGeneral-Regular-30" transform="translate(0 0.40625)"/>
      </g>
     </g>
    </g>
    <g id="xtick_2">
     <g id="line2d_4">
      <path d="M 142.093636 314.528 
L 142.093636 26.24 
" clip-path="url(#p6ddb71dc03)" style="fill: none; stroke: #b0b0b0; stroke-opacity: 0.35; stroke-width: 0.5; stroke-linecap: square"/>
     </g>
     <g id="line2d_5">
      <g>
       <use xlink:href="#mb8e24b3c1e" x="142.093636" y="314.528" style="stroke: #000000; stroke-width: 0.5"/>
      </g>
     </g>
     <g id="line2d_6">
      <g>
       <use xlink:href="#mb56275e453" x="142.093636" y="26.24" style="stroke: #000000; stroke-width: 0.5"/>
      </g>
     </g>
     <g id="text_2">
      <!-- $\mathdefault{1}$ -->
      <g transform="translate(139.093636 326.223625) scale(0.12 -0.12)">
       <defs>
        <path id="STIXGeneral-Regular-31" d="M 2522 0 
L 755 0 
L 755 96 
Q 1107 115 1235 227 
Q 1363 339 1363 608 
L 1363 3482 
Q 1363 3795 1171 3795 
Q 1082 3795 883 3718 
L 710 3654 
L 710 3744 
L 1856 4326 
L 1914 4307 
L 1914 486 
Q 1914 275 2042 185 
Q 2170 96 2522 96 
L 2522 0 
z
" transform="scale(0.015625)"/>
       </defs>
       <use xlink:href="#STIXGeneral-Regular-31" transform="translate(0 0.40625)"/>
      </g>
     </g>
    </g>
    <g id="xtick_3">
     <g id="line2d_7">
      <path d="M 218.184545 314.528 
L 218.184545 26.24 
" clip-path="url(#p6ddb71dc03)" style="fill: none; stroke: #b0b0b0; stroke-opacity: 0.35; stroke-width: 0.5; stroke-linecap: square"/>
     </g>
     <g id="line2d_8">
      <g>
       <use xlink:href="#mb8e24b3c1e" x="218.184545" y="314.528" style="stroke: #000000; stroke-width: 0.5"/>
      </g>
     </g>
     <g id="line2d_9">
      <g>
       <use xlink:href="#mb56275e453" x="218.184545" y="26.24" style="stroke: #000000; stroke-width: 0.5"/>
      </g>
     </g>
     <g id="text_3">
      <!-- $\mathdefault{2}$ -->
      <g transform="translate(215.184545 326.223625) scale(0.12 -0.12)">
       <defs>
        <path id="STIXGeneral-Regular-32" d="M 3034 877 
L 2688 0 
L 186 0 
L 186 77 
L 1325 1286 
Q 1773 1754 1965 2144 
Q 2157 2534 2157 2950 
Q 2157 3379 1920 3616 
Q 1683 3853 1267 3853 
Q 922 3853 720 3673 
Q 518 3494 326 3021 
L 192 3053 
Q 301 3648 630 3987 
Q 960 4326 1523 4326 
Q 2054 4326 2380 4006 
Q 2707 3686 2707 3200 
Q 2707 2477 1888 1613 
L 832 486 
L 2330 486 
Q 2541 486 2665 569 
Q 2790 653 2944 915 
L 3034 877 
z
" transform="scale(0.015625)"/>
       </defs>
       <use xlink:href="#STIXGeneral-Regular-32" transform="translate(0 0.40625)"/>
      </g>
     </g>
    </g>
    <g id="xtick_4">
     <g id="line2d_10">
      <path d="M 294.275455 314.528 
L 294.275455 26.24 
" clip-path="url(#p6ddb71dc03)" style="fill: none; stroke: #b0b0b0; stroke-opacity: 0.35; stroke-width: 0.5; stroke-linecap: square"/>
     </g>
     <g id="line2d_11">
      <g>
       <use xlink:href="#mb8e24b3c1e" x="294.275455" y="314.528" style="stroke: #000000; stroke-width: 0.5"/>
      </g>
     </g>
     <g id="line2d_12">
      <g>
       <use xlink:href="#mb56275e453" x="294.275455" y="26.24" style="stroke: #000000; stroke-width: 0.5"/>
      </g>
     </g>
     <g id="text_4">
      <!-- $\mathdefault{3}$ -->
      <g transform="translate(291.275455 326.223625) scale(0.12 -0.12)">
       <defs>
        <path id="STIXGeneral-Regular-33" d="M 390 3264 
L 288 3290 
Q 435 3770 748 4048 
Q 1062 4326 1542 4326 
Q 1990 4326 2265 4083 
Q 2541 3840 2541 3450 
Q 2541 2925 1946 2566 
Q 2298 2413 2477 2227 
Q 2758 1914 2758 1402 
Q 2758 890 2464 506 
Q 2246 211 1840 60 
Q 1434 -90 979 -90 
Q 262 -90 262 275 
Q 262 378 339 442 
Q 416 506 525 506 
Q 685 506 915 339 
Q 1197 141 1466 141 
Q 1818 141 2058 425 
Q 2298 710 2298 1120 
Q 2298 1856 1632 2048 
Q 1434 2112 979 2112 
L 979 2202 
Q 1338 2323 1517 2432 
Q 2035 2726 2035 3290 
Q 2035 3610 1852 3776 
Q 1670 3942 1344 3942 
Q 768 3942 390 3264 
z
" transform="scale(0.015625)"/>
       </defs>
       <use xlink:href="#STIXGeneral-Regular-33" transform="translate(0 0.40625)"/>
      </g>
     </g>
    </g>
    <g id="xtick_5">
     <g id="line2d_13">
      <path d="M 370.366364 314.528 
L 370.366364 26.24 
" clip-path="url(#p6ddb71dc03)" style="fill: none; stroke: #b0b0b0; stroke-opacity: 0.35; stroke-width: 0.5; stroke-linecap: square"/>
     </g>
     <g id="line2d_14">
      <g>
       <use xlink:href="#mb8e24b3c1e" x="370.366364" y="314.528" style="stroke: #000000; stroke-width: 0.5"/>
      </g>
     </g>
     <g id="line2d_15">
      <g>
       <use xlink:href="#mb56275e453" x="370.366364" y="26.24" style="stroke: #000000; stroke-width: 0.5"/>
      </g>
     </g>
     <g id="text_5">
      <!-- $\mathdefault{4}$ -->
      <g transform="translate(367.366364 326.223625) scale(0.12 -0.12)">
       <defs>
        <path id="STIXGeneral-Regular-34" d="M 3027 1069 
L 2368 1069 
L 2368 0 
L 1869 0 
L 1869 1069 
L 77 1069 
L 77 1478 
L 2086 4326 
L 2368 4326 
L 2368 1478 
L 3027 1478 
L 3027 1069 
z
M 1869 1478 
L 1869 3674 
L 333 1478 
L 1869 1478 
z
" transform="scale(0.015625)"/>
       </defs>
       <use xlink:href="#STIXGeneral-Regular-34" transform="translate(0 0.40625)"/>
      </g>
     </g>
    </g>
    <g id="xtick_6">
     <g id="line2d_16">
      <path d="M 446.457273 314.528 
L 446.457273 26.24 
" clip-path="url(#p6ddb71dc03)" style="fill: none; stroke: #b0b0b0; stroke-opacity: 0.35; stroke-width: 0.5; stroke-linecap: square"/>
     </g>
     <g id="line2d_17">
      <g>
       <use xlink:href="#mb8e24b3c1e" x="446.457273" y="314.528" style="stroke: #000000; stroke-width: 0.5"/>
      </g>
     </g>
     <g id="line2d_18">
      <g>
       <use xlink:href="#mb56275e453" x="446.457273" y="26.24" style="stroke: #000000; stroke-width: 0.5"/>
      </g>
     </g>
     <g id="text_6">
      <!-- $\mathdefault{5}$ -->
      <g transform="translate(443.457273 326.223625) scale(0.12 -0.12)">
       <defs>
        <path id="STIXGeneral-Regular-35" d="M 2803 4358 
L 2573 3814 
Q 2534 3731 2400 3731 
L 1158 3731 
L 902 3187 
Q 1606 3053 1920 2896 
Q 2234 2739 2502 2368 
Q 2726 2061 2726 1555 
Q 2726 1094 2576 780 
Q 2426 467 2099 224 
Q 1664 -90 1011 -90 
Q 646 -90 422 19 
Q 198 128 198 307 
Q 198 550 486 550 
Q 717 550 960 352 
Q 1210 147 1414 147 
Q 1747 147 2012 480 
Q 2278 813 2278 1229 
Q 2278 1843 1850 2189 
Q 1293 2637 486 2637 
Q 410 2637 410 2688 
L 416 2720 
L 1114 4237 
L 2438 4237 
Q 2547 4237 2608 4269 
Q 2669 4301 2746 4403 
L 2803 4358 
z
" transform="scale(0.015625)"/>
       </defs>
       <use xlink:href="#STIXGeneral-Regular-35" transform="translate(0 0.203125)"/>
      </g>
     </g>
    </g>
    <g id="xtick_7">
     <g id="line2d_19">
      <defs>
       <path id="m953b977742" d="M 0 0 
L 0 -1.5 
" style="stroke: #000000; stroke-width: 0.5"/>
      </defs>
      <g>
       <use xlink:href="#m953b977742" x="50.784545" y="314.528" style="stroke: #000000; stroke-width: 0.5"/>
      </g>
     </g>
     <g id="line2d_20">
      <defs>
       <path id="m4be1aae566" d="M 0 0 
L 0 1.5 
" style="stroke: #000000; stroke-width: 0.5"/>
      </defs>
      <g>
       <use xlink:href="#m4be1aae566" x="50.784545" y="26.24" style="stroke: #000000; stroke-width: 0.5"/>
      </g>
     </g>
    </g>
    <g id="xtick_8">
     <g id="line2d_21">
      <g>
       <use xlink:href="#m953b977742" x="81.220909" y="314.528" style="stroke: #000000; stroke-width: 0.5"/>
      </g>
     </g>
     <g id="line2d_22">
      <g>
       <use xlink:href="#m4be1aae566" x="81.220909" y="26.24" style="stroke: #000000; stroke-width: 0.5"/>
      </g>
     </g>
    </g>
    <g id="xtick_9">
     <g id="line2d_23">
      <g>
       <use xlink:href="#m953b977742" x="96.439091" y="314.528" style="stroke: #000000; stroke-width: 0.5"/>
      </g>
     </g>
     <g id="line2d_24">
      <g>
       <use xlink:href="#m4be1aae566" x="96.439091" y="26.24" style="stroke: #000000; stroke-width: 0.5"/>
      </g>
     </g>
    </g>
    <g id="xtick_10">
     <g id="line2d_25">
      <g>
       <use xlink:href="#m953b977742" x="111.657273" y="314.528" style="stroke: #000000; stroke-width: 0.5"/>
      </g>
     </g>
     <g id="line2d_26">
      <g>
       <use xlink:href="#m4be1aae566" x="111.657273" y="26.24" style="stroke: #000000; stroke-width: 0.5"/>
      </g>
     </g>
    </g>
    <g id="xtick_11">
     <g id="line2d_27">
      <g>
       <use xlink:href="#m953b977742" x="126.875455" y="314.528" style="stroke: #000000; stroke-width: 0.5"/>
      </g>
     </g>
     <g id="line2d_28">
      <g>
       <use xlink:href="#m4be1aae566" x="126.875455" y="26.24" style="stroke: #000000; stroke-width: 0.5"/>
      </g>
     </g>
    </g>
    <g id="xtick_12">
     <g id="line2d_29">
      <g>
       <use xlink:href="#m953b977742" x="157.311818" y="314.528" style="stroke: #000000; stroke-width: 0.5"/>
      </g>
     </g>
     <g id="line2d_30">
      <g>
       <use xlink:href="#m4be1aae566" x="157.311818" y="26.24" style="stroke: #000000; stroke-width: 0.5"/>
      </g>
     </g>
    </g>
    <g id="xtick_13">
     <g id="line2d_31">
      <g>
       <use xlink:href="#m953b977742" x="172.53" y="314.528" style="stroke: #000000; stroke-width: 0.5"/>
      </g>
     </g>
     <g id="line2d_32">
      <g>
       <use xlink:href="#m4be1aae566" x="172.53" y="26.24" style="stroke: #000000; stroke-width: 0.5"/>
      </g>
     </g>
    </g>
    <g id="xtick_14">
     <g id="line2d_33">
      <g>
       <use xlink:href="#m953b977742" x="187.748182" y="314.528" style="stroke: #000000; stroke-width: 0.5"/>
      </g>
     </g>
     <g id="line2d_34">
      <g>
       <use xlink:href="#m4be1aae566" x="187.748182" y="26.24" style="stroke: #000000; stroke-width: 0.5"/>
      </g>
     </g>
    </g>
    <g id="xtick_15">
     <g id="line2d_35">
      <g>
       <use xlink:href="#m953b977742" x="202.966364" y="314.528" style="stroke: #000000; stroke-width: 0.5"/>
      </g>
     </g>
     <g id="line2d_36">
      <g>
       <use xlink:href="#m4be1aae566" x="202.966364" y="26.24" style="stroke: #000000; stroke-width: 0.5"/>
      </g>
     </g>
    </g>
    <g id="xtick_16">
     <g id="line2d_37">
      <g>
       <use xlink:href="#m953b977742" x="233.402727" y="314.528" style="stroke: #000000; stroke-width: 0.5"/>
      </g>
     </g>
     <g id="line2d_38">
      <g>
       <use xlink:href="#m4be1aae566" x="233.402727" y="26.24" style="stroke: #000000; stroke-width: 0.5"/>
      </g>
     </g>
    </g>
    <g id="xtick_17">
     <g id="line2d_39">
      <g>
       <use xlink:href="#m953b977742" x="248.620909" y="314.528" style="stroke: #000000; stroke-width: 0.5"/>
      </g>
     </g>
     <g id="line2d_40">
      <g>
       <use xlink:href="#m4be1aae566" x="248.620909" y="26.24" style="stroke: #000000; stroke-width: 0.5"/>
      </g>
     </g>
    </g>
    <g id="xtick_18">
     <g id="line2d_41">
      <g>
       <use xlink:href="#m953b977742" x="263.839091" y="314.528" style="stroke: #000000; stroke-width: 0.5"/>
      </g>
     </g>
     <g id="line2d_42">
      <g>
       <use xlink:href="#m4be1aae566" x="263.839091" y="26.24" style="stroke: #000000; stroke-width: 0.5"/>
      </g>
     </g>
    </g>
    <g id="xtick_19">
     <g id="line2d_43">
      <g>
       <use xlink:href="#m953b977742" x="279.057273" y="314.528" style="stroke: #000000; stroke-width: 0.5"/>
      </g>
     </g>
     <g id="line2d_44">
      <g>
       <use xlink:href="#m4be1aae566" x="279.057273" y="26.24" style="stroke: #000000; stroke-width: 0.5"/>
      </g>
     </g>
    </g>
    <g id="xtick_20">
     <g id="line2d_45">
      <g>
       <use xlink:href="#m953b977742" x="309.493636" y="314.528" style="stroke: #000000; stroke-width: 0.5"/>
      </g>
     </g>
     <g id="line2d_46">
      <g>
       <use xlink:href="#m4be1aae566" x="309.493636" y="26.24" style="stroke: #000000; stroke-width: 0.5"/>
      </g>
     </g>
    </g>
    <g id="xtick_21">
     <g id="line2d_47">
      <g>
       <use xlink:href="#m953b977742" x="324.711818" y="314.528" style="stroke: #000000; stroke-width: 0.5"/>
      </g>
     </g>
     <g id="line2d_48">
      <g>
       <use xlink:href="#m4be1aae566" x="324.711818" y="26.24" style="stroke: #000000; stroke-width: 0.5"/>
      </g>
     </g>
    </g>
    <g id="xtick_22">
     <g id="line2d_49">
      <g>
       <use xlink:href="#m953b977742" x="339.93" y="314.528" style="stroke: #000000; stroke-width: 0.5"/>
      </g>
     </g>
     <g id="line2d_50">
      <g>
       <use xlink:href="#m4be1aae566" x="339.93" y="26.24" style="stroke: #000000; stroke-width: 0.5"/>
      </g>
     </g>
    </g>
    <g id="xtick_23">
     <g id="line2d_51">
      <g>
       <use xlink:href="#m953b977742" x="355.148182" y="314.528" style="stroke: #000000; stroke-width: 0.5"/>
      </g>
     </g>
     <g id="line2d_52">
      <g>
       <use xlink:href="#m4be1aae566" x="355.148182" y="26.24" style="stroke: #000000; stroke-width: 0.5"/>
      </g>
     </g>
    </g>
    <g id="xtick_24">
     <g id="line2d_53">
      <g>
       <use xlink:href="#m953b977742" x="385.584545" y="314.528" style="stroke: #000000; stroke-width: 0.5"/>
      </g>
     </g>
     <g id="line2d_54">
      <g>
       <use xlink:href="#m4be1aae566" x="385.584545" y="26.24" style="stroke: #000000; stroke-width: 0.5"/>
      </g>
     </g>
    </g>
    <g id="xtick_25">
     <g id="line2d_55">
      <g>
       <use xlink:href="#m953b977742" x="400.802727" y="314.528" style="stroke: #000000; stroke-width: 0.5"/>
      </g>
     </g>
     <g id="line2d_56">
      <g>
       <use xlink:href="#m4be1aae566" x="400.802727" y="26.24" style="stroke: #000000; stroke-width: 0.5"/>
      </g>
     </g>
    </g>
    <g id="xtick_26">
     <g id="line2d_57">
      <g>
       <use xlink:href="#m953b977742" x="416.020909" y="314.528" style="stroke: #000000; stroke-width: 0.5"/>
      </g>
     </g>
     <g id="line2d_58">
      <g>
       <use xlink:href="#m4be1aae566" x="416.020909" y="26.24" style="stroke: #000000; stroke-width: 0.5"/>
      </g>
     </g>
    </g>
    <g id="xtick_27">
     <g id="line2d_59">
      <g>
       <use xlink:href="#m953b977742" x="431.239091" y="314.528" style="stroke: #000000; stroke-width: 0.5"/>
      </g>
     </g>
     <g id="line2d_60">
      <g>
       <use xlink:href="#m4be1aae566" x="431.239091" y="26.24" style="stroke: #000000; stroke-width: 0.5"/>
      </g>
     </g>
    </g>
    <g id="xtick_28">
     <g id="line2d_61">
      <g>
       <use xlink:href="#m953b977742" x="461.675455" y="314.528" style="stroke: #000000; stroke-width: 0.5"/>
      </g>
     </g>
     <g id="line2d_62">
      <g>
       <use xlink:href="#m4be1aae566" x="461.675455" y="26.24" style="stroke: #000000; stroke-width: 0.5"/>
      </g>
     </g>
    </g>
    <g id="text_7">
     <!-- Time -->
     <g transform="translate(241.453438 342.389562) scale(0.14 -0.14)">
      <defs>
       <path id="STIXGeneral-Regular-54" d="M 3795 3149 
L 3642 3149 
Q 3539 3674 3353 3821 
Q 3168 3968 2656 3968 
L 2278 3968 
L 2278 710 
Q 2278 346 2387 243 
Q 2496 141 2893 122 
L 2893 0 
L 1024 0 
L 1024 122 
Q 1427 147 1526 256 
Q 1626 365 1626 787 
L 1626 3968 
L 1242 3968 
Q 723 3968 540 3817 
Q 358 3667 262 3149 
L 109 3149 
L 154 4237 
L 3750 4237 
L 3795 3149 
z
" transform="scale(0.015625)"/>
       <path id="STIXGeneral-Regular-69" d="M 1152 4045 
Q 1152 3904 1056 3811 
Q 960 3718 819 3718 
Q 685 3718 592 3811 
Q 499 3904 499 4045 
Q 499 4179 595 4275 
Q 691 4371 826 4371 
Q 966 4371 1059 4275 
Q 1152 4179 1152 4045 
z
M 1619 0 
L 102 0 
L 102 96 
Q 435 115 521 211 
Q 608 307 608 666 
L 608 2118 
Q 608 2342 563 2432 
Q 518 2522 397 2522 
Q 243 2522 128 2490 
L 128 2592 
L 1120 2944 
L 1146 2918 
L 1146 672 
Q 1146 314 1226 218 
Q 1306 122 1619 96 
L 1619 0 
z
" transform="scale(0.015625)"/>
       <path id="STIXGeneral-Regular-6d" d="M 4960 0 
L 3565 0 
L 3565 96 
Q 3834 122 3907 208 
Q 3981 294 3981 576 
L 3981 1894 
Q 3981 2278 3869 2444 
Q 3757 2611 3488 2611 
Q 3264 2611 3107 2521 
Q 2950 2432 2803 2221 
L 2803 608 
Q 2803 301 2896 201 
Q 2989 102 3264 96 
L 3264 0 
L 1830 0 
L 1830 96 
Q 2112 115 2189 188 
Q 2266 262 2266 550 
L 2266 1901 
Q 2266 2611 1850 2611 
Q 1670 2611 1468 2531 
Q 1267 2451 1171 2336 
Q 1088 2240 1088 2227 
L 1088 448 
Q 1088 243 1177 176 
Q 1267 109 1523 96 
L 1523 0 
L 102 0 
L 102 96 
Q 371 102 460 195 
Q 550 288 550 563 
L 550 2150 
Q 550 2387 499 2480 
Q 448 2573 326 2573 
Q 230 2573 122 2547 
L 122 2656 
Q 557 2778 1011 2944 
L 1062 2925 
L 1062 2451 
L 1075 2451 
Q 1363 2752 1584 2848 
Q 1805 2944 2054 2944 
Q 2560 2944 2733 2406 
Q 3232 2944 3776 2944 
Q 4518 2944 4518 1792 
L 4518 493 
Q 4518 282 4582 202 
Q 4646 122 4794 109 
L 4960 96 
L 4960 0 
z
" transform="scale(0.015625)"/>
       <path id="STIXGeneral-Regular-65" d="M 2611 1050 
L 2714 1005 
Q 2330 -64 1376 -64 
Q 813 -64 486 329 
Q 160 723 160 1389 
Q 160 2074 525 2509 
Q 890 2944 1485 2944 
Q 2061 2944 2374 2502 
Q 2560 2246 2592 1773 
L 621 1773 
Q 646 1370 700 1158 
Q 755 947 915 730 
Q 1184 378 1626 378 
Q 1939 378 2153 531 
Q 2368 685 2611 1050 
z
M 634 1978 
L 1939 1978 
Q 1882 2381 1750 2547 
Q 1619 2714 1312 2714 
Q 1043 2714 864 2525 
Q 685 2336 634 1978 
z
" transform="scale(0.015625)"/>
      </defs>
      <use xlink:href="#STIXGeneral-Regular-54"/>
      <use xlink:href="#STIXGeneral-Regular-69" transform="translate(61.099991 0)"/>
      <use xlink:href="#STIXGeneral-Regular-6d" transform="translate(88.899979 0)"/>
      <use xlink:href="#STIXGeneral-Regular-65" transform="translate(166.699966 0)"/>
     </g>
    </g>
   </g>
   <g id="matplotlib.axis_2">
    <g id="ytick_1">
     <g id="line2d_63">
      <path d="M 46.98 295.724162 
L 465.48 295.724162 
" clip-path="url(#p6ddb71dc03)" style="fill: none; stroke: #b0b0b0; stroke-opacity: 0.35; stroke-width: 0.5; stroke-linecap: square"/>
     </g>
     <g id="line2d_64">
      <defs>
       <path id="m5609b218fb" d="M 0 0 
L 3 0 
" style="stroke: #000000; stroke-width: 0.5"/>
      </defs>
      <g>
       <use xlink:href="#m5609b218fb" x="46.98" y="295.724162" style="stroke: #000000; stroke-width: 0.5"/>
      </g>
     </g>
     <g id="line2d_65">
      <defs>
       <path id="mc1b1e33363" d="M 0 0 
L -3 0 
" style="stroke: #000000; stroke-width: 0.5"/>
      </defs>
      <g>
       <use xlink:href="#mc1b1e33363" x="465.48" y="295.724162" style="stroke: #000000; stroke-width: 0.5"/>
      </g>
     </g>
     <g id="text_8">
      <!-- $\mathdefault{−1.0}$ -->
      <g transform="translate(20.2 299.821975) scale(0.12 -0.12)">
       <defs>
        <path id="STIXGeneral-Regular-2212" d="M 3974 1408 
L 410 1408 
L 410 1830 
L 3974 1830 
L 3974 1408 
z
" transform="scale(0.015625)"/>
        <path id="STIXGeneral-Regular-2e" d="M 1158 275 
Q 1158 134 1052 32 
Q 947 -70 800 -70 
Q 653 -70 550 32 
Q 448 134 448 281 
Q 448 429 553 534 
Q 659 640 806 640 
Q 947 640 1052 531 
Q 1158 422 1158 275 
z
" transform="scale(0.015625)"/>
       </defs>
       <use xlink:href="#STIXGeneral-Regular-2212" transform="translate(0 0.40625)"/>
       <use xlink:href="#STIXGeneral-Regular-31" transform="translate(68.499985 0.40625)"/>
       <use xlink:href="#STIXGeneral-Regular-2e" transform="translate(118.499969 0.40625)"/>
       <use xlink:href="#STIXGeneral-Regular-30" transform="translate(143.499954 0.40625)"/>
      </g>
     </g>
    </g>
    <g id="ytick_2">
     <g id="line2d_66">
      <path d="M 46.98 244.464454 
L 465.48 244.464454 
" clip-path="url(#p6ddb71dc03)" style="fill: none; stroke: #b0b0b0; stroke-opacity: 0.35; stroke-width: 0.5; stroke-linecap: square"/>
     </g>
     <g id="line2d_67">
      <g>
       <use xlink:href="#m5609b218fb" x="46.98" y="244.464454" style="stroke: #000000; stroke-width: 0.5"/>
      </g>
     </g>
     <g id="line2d_68">
      <g>
       <use xlink:href="#mc1b1e33363" x="465.48" y="244.464454" style="stroke: #000000; stroke-width: 0.5"/>
      </g>
     </g>
     <g id="text_9">
      <!-- $\mathdefault{−0.8}$ -->
      <g transform="translate(20.2 248.562267) scale(0.12 -0.12)">
       <defs>
        <path id="STIXGeneral-Regular-38" d="M 2848 992 
Q 2848 499 2505 204 
Q 2163 -90 1587 -90 
Q 1050 -90 704 204 
Q 358 499 358 954 
Q 358 1293 524 1533 
Q 691 1773 1190 2125 
Q 710 2522 553 2765 
Q 397 3008 397 3328 
Q 397 3782 745 4054 
Q 1094 4326 1638 4326 
Q 2106 4326 2410 4060 
Q 2714 3795 2714 3411 
Q 2714 3059 2531 2848 
Q 2349 2637 1856 2374 
Q 2432 1990 2640 1689 
Q 2848 1389 2848 992 
z
M 2272 3411 
Q 2272 3744 2086 3945 
Q 1901 4147 1574 4147 
Q 1248 4147 1059 3977 
Q 870 3808 870 3513 
Q 870 3219 1059 2979 
Q 1248 2739 1670 2490 
Q 1997 2682 2134 2896 
Q 2272 3110 2272 3411 
z
M 1734 1741 
L 1357 1997 
Q 1075 1766 960 1545 
Q 845 1325 845 1011 
Q 845 576 1065 333 
Q 1286 90 1658 90 
Q 1971 90 2166 285 
Q 2362 480 2362 794 
Q 2362 1082 2214 1299 
Q 2067 1517 1734 1741 
z
" transform="scale(0.015625)"/>
       </defs>
       <use xlink:href="#STIXGeneral-Regular-2212" transform="translate(0 0.40625)"/>
       <use xlink:href="#STIXGeneral-Regular-30" transform="translate(68.499985 0.40625)"/>
       <use xlink:href="#STIXGeneral-Regular-2e" transform="translate(118.499969 0.40625)"/>
       <use xlink:href="#STIXGeneral-Regular-38" transform="translate(143.499954 0.40625)"/>
      </g>
     </g>
    </g>
    <g id="ytick_3">
     <g id="line2d_69">
      <path d="M 46.98 193.204747 
L 465.48 193.204747 
" clip-path="url(#p6ddb71dc03)" style="fill: none; stroke: #b0b0b0; stroke-opacity: 0.35; stroke-width: 0.5; stroke-linecap: square"/>
     </g>
     <g id="line2d_70">
      <g>
       <use xlink:href="#m5609b218fb" x="46.98" y="193.204747" style="stroke: #000000; stroke-width: 0.5"/>
      </g>
     </g>
     <g id="line2d_71">
      <g>
       <use xlink:href="#mc1b1e33363" x="465.48" y="193.204747" style="stroke: #000000; stroke-width: 0.5"/>
      </g>
     </g>
     <g id="text_10">
      <!-- $\mathdefault{−0.6}$ -->
      <g transform="translate(20.2 197.302559) scale(0.12 -0.12)">
       <defs>
        <path id="STIXGeneral-Regular-36" d="M 2854 4378 
L 2867 4275 
Q 2112 4154 1606 3664 
Q 1101 3174 973 2451 
Q 1344 2739 1786 2739 
Q 2349 2739 2672 2380 
Q 2995 2022 2995 1402 
Q 2995 774 2669 378 
Q 2291 -90 1651 -90 
Q 870 -90 518 557 
Q 218 1107 218 1786 
Q 218 2835 915 3552 
Q 1312 3962 1731 4131 
Q 2150 4301 2854 4378 
z
M 2419 1203 
Q 2419 2445 1555 2445 
Q 1235 2445 1024 2275 
Q 813 2106 813 1702 
Q 813 954 1046 522 
Q 1280 90 1722 90 
Q 2061 90 2240 394 
Q 2419 698 2419 1203 
z
" transform="scale(0.015625)"/>
       </defs>
       <use xlink:href="#STIXGeneral-Regular-2212" transform="translate(0 0.59375)"/>
       <use xlink:href="#STIXGeneral-Regular-30" transform="translate(68.499985 0.59375)"/>
       <use xlink:href="#STIXGeneral-Regular-2e" transform="translate(118.499969 0.59375)"/>
       <use xlink:href="#STIXGeneral-Regular-36" transform="translate(143.499954 0.59375)"/>
      </g>
     </g>
    </g>
    <g id="ytick_4">
     <g id="line2d_72">
      <path d="M 46.98 141.945039 
L 465.48 141.945039 
" clip-path="url(#p6ddb71dc03)" style="fill: none; stroke: #b0b0b0; stroke-opacity: 0.35; stroke-width: 0.5; stroke-linecap: square"/>
     </g>
     <g id="line2d_73">
      <g>
       <use xlink:href="#m5609b218fb" x="46.98" y="141.945039" style="stroke: #000000; stroke-width: 0.5"/>
      </g>
     </g>
     <g id="line2d_74">
      <g>
       <use xlink:href="#mc1b1e33363" x="465.48" y="141.945039" style="stroke: #000000; stroke-width: 0.5"/>
      </g>
     </g>
     <g id="text_11">
      <!-- $\mathdefault{−0.4}$ -->
      <g transform="translate(20.2 146.042851) scale(0.12 -0.12)">
       <use xlink:href="#STIXGeneral-Regular-2212" transform="translate(0 0.40625)"/>
       <use xlink:href="#STIXGeneral-Regular-30" transform="translate(68.499985 0.40625)"/>
       <use xlink:href="#STIXGeneral-Regular-2e" transform="translate(118.499969 0.40625)"/>
       <use xlink:href="#STIXGeneral-Regular-34" transform="translate(143.499954 0.40625)"/>
      </g>
     </g>
    </g>
    <g id="ytick_5">
     <g id="line2d_75">
      <path d="M 46.98 90.685331 
L 465.48 90.685331 
" clip-path="url(#p6ddb71dc03)" style="fill: none; stroke: #b0b0b0; stroke-opacity: 0.35; stroke-width: 0.5; stroke-linecap: square"/>
     </g>
     <g id="line2d_76">
      <g>
       <use xlink:href="#m5609b218fb" x="46.98" y="90.685331" style="stroke: #000000; stroke-width: 0.5"/>
      </g>
     </g>
     <g id="line2d_77">
      <g>
       <use xlink:href="#mc1b1e33363" x="465.48" y="90.685331" style="stroke: #000000; stroke-width: 0.5"/>
      </g>
     </g>
     <g id="text_12">
      <!-- $\mathdefault{−0.2}$ -->
      <g transform="translate(20.2 94.783144) scale(0.12 -0.12)">
       <use xlink:href="#STIXGeneral-Regular-2212" transform="translate(0 0.40625)"/>
       <use xlink:href="#STIXGeneral-Regular-30" transform="translate(68.499985 0.40625)"/>
       <use xlink:href="#STIXGeneral-Regular-2e" transform="translate(118.499969 0.40625)"/>
       <use xlink:href="#STIXGeneral-Regular-32" transform="translate(143.499954 0.40625)"/>
      </g>
     </g>
    </g>
    <g id="ytick_6">
     <g id="line2d_78">
      <path d="M 46.98 39.425623 
L 465.48 39.425623 
" clip-path="url(#p6ddb71dc03)" style="fill: none; stroke: #b0b0b0; stroke-opacity: 0.35; stroke-width: 0.5; stroke-linecap: square"/>
     </g>
     <g id="line2d_79">
      <g>
       <use xlink:href="#m5609b218fb" x="46.98" y="39.425623" style="stroke: #000000; stroke-width: 0.5"/>
      </g>
     </g>
     <g id="line2d_80">
      <g>
       <use xlink:href="#mc1b1e33363" x="465.48" y="39.425623" style="stroke: #000000; stroke-width: 0.5"/>
      </g>
     </g>
     <g id="text_13">
      <!-- $\mathdefault{0.0}$ -->
      <g transform="translate(28.48 43.523436) scale(0.12 -0.12)">
       <use xlink:href="#STIXGeneral-Regular-30" transform="translate(0 0.40625)"/>
       <use xlink:href="#STIXGeneral-Regular-2e" transform="translate(49.999985 0.40625)"/>
       <use xlink:href="#STIXGeneral-Regular-30" transform="translate(74.999969 0.40625)"/>
      </g>
     </g>
    </g>
    <g id="ytick_7">
     <g id="line2d_81">
      <defs>
       <path id="m3f0e716b1a" d="M 0 0 
L 1.5 0 
" style="stroke: #000000; stroke-width: 0.5"/>
      </defs>
      <g>
       <use xlink:href="#m3f0e716b1a" x="46.98" y="308.539089" style="stroke: #000000; stroke-width: 0.5"/>
      </g>
     </g>
     <g id="line2d_82">
      <defs>
       <path id="mf522c69174" d="M 0 0 
L -1.5 0 
" style="stroke: #000000; stroke-width: 0.5"/>
      </defs>
      <g>
       <use xlink:href="#mf522c69174" x="465.48" y="308.539089" style="stroke: #000000; stroke-width: 0.5"/>
      </g>
     </g>
    </g>
    <g id="ytick_8">
     <g id="line2d_83">
      <g>
       <use xlink:href="#m3f0e716b1a" x="46.98" y="282.909235" style="stroke: #000000; stroke-width: 0.5"/>
      </g>
     </g>
     <g id="line2d_84">
      <g>
       <use xlink:href="#mf522c69174" x="465.48" y="282.909235" style="stroke: #000000; stroke-width: 0.5"/>
      </g>
     </g>
    </g>
    <g id="ytick_9">
     <g id="line2d_85">
      <g>
       <use xlink:href="#m3f0e716b1a" x="46.98" y="270.094308" style="stroke: #000000; stroke-width: 0.5"/>
      </g>
     </g>
     <g id="line2d_86">
      <g>
       <use xlink:href="#mf522c69174" x="465.48" y="270.094308" style="stroke: #000000; stroke-width: 0.5"/>
      </g>
     </g>
    </g>
    <g id="ytick_10">
     <g id="line2d_87">
      <g>
       <use xlink:href="#m3f0e716b1a" x="46.98" y="257.279381" style="stroke: #000000; stroke-width: 0.5"/>
      </g>
     </g>
     <g id="line2d_88">
      <g>
       <use xlink:href="#mf522c69174" x="465.48" y="257.279381" style="stroke: #000000; stroke-width: 0.5"/>
      </g>
     </g>
    </g>
    <g id="ytick_11">
     <g id="line2d_89">
      <g>
       <use xlink:href="#m3f0e716b1a" x="46.98" y="231.649528" style="stroke: #000000; stroke-width: 0.5"/>
      </g>
     </g>
     <g id="line2d_90">
      <g>
       <use xlink:href="#mf522c69174" x="465.48" y="231.649528" style="stroke: #000000; stroke-width: 0.5"/>
      </g>
     </g>
    </g>
    <g id="ytick_12">
     <g id="line2d_91">
      <g>
       <use xlink:href="#m3f0e716b1a" x="46.98" y="218.834601" style="stroke: #000000; stroke-width: 0.5"/>
      </g>
     </g>
     <g id="line2d_92">
      <g>
       <use xlink:href="#mf522c69174" x="465.48" y="218.834601" style="stroke: #000000; stroke-width: 0.5"/>
      </g>
     </g>
    </g>
    <g id="ytick_13">
     <g id="line2d_93">
      <g>
       <use xlink:href="#m3f0e716b1a" x="46.98" y="206.019674" style="stroke: #000000; stroke-width: 0.5"/>
      </g>
     </g>
     <g id="line2d_94">
      <g>
       <use xlink:href="#mf522c69174" x="465.48" y="206.019674" style="stroke: #000000; stroke-width: 0.5"/>
      </g>
     </g>
    </g>
    <g id="ytick_14">
     <g id="line2d_95">
      <g>
       <use xlink:href="#m3f0e716b1a" x="46.98" y="180.38982" style="stroke: #000000; stroke-width: 0.5"/>
      </g>
     </g>
     <g id="line2d_96">
      <g>
       <use xlink:href="#mf522c69174" x="465.48" y="180.38982" style="stroke: #000000; stroke-width: 0.5"/>
      </g>
     </g>
    </g>
    <g id="ytick_15">
     <g id="line2d_97">
      <g>
       <use xlink:href="#m3f0e716b1a" x="46.98" y="167.574893" style="stroke: #000000; stroke-width: 0.5"/>
      </g>
     </g>
     <g id="line2d_98">
      <g>
       <use xlink:href="#mf522c69174" x="465.48" y="167.574893" style="stroke: #000000; stroke-width: 0.5"/>
      </g>
     </g>
    </g>
    <g id="ytick_16">
     <g id="line2d_99">
      <g>
       <use xlink:href="#m3f0e716b1a" x="46.98" y="154.759966" style="stroke: #000000; stroke-width: 0.5"/>
      </g>
     </g>
     <g id="line2d_100">
      <g>
       <use xlink:href="#mf522c69174" x="465.48" y="154.759966" style="stroke: #000000; stroke-width: 0.5"/>
      </g>
     </g>
    </g>
    <g id="ytick_17">
     <g id="line2d_101">
      <g>
       <use xlink:href="#m3f0e716b1a" x="46.98" y="129.130112" style="stroke: #000000; stroke-width: 0.5"/>
      </g>
     </g>
     <g id="line2d_102">
      <g>
       <use xlink:href="#mf522c69174" x="465.48" y="129.130112" style="stroke: #000000; stroke-width: 0.5"/>
      </g>
     </g>
    </g>
    <g id="ytick_18">
     <g id="line2d_103">
      <g>
       <use xlink:href="#m3f0e716b1a" x="46.98" y="116.315185" style="stroke: #000000; stroke-width: 0.5"/>
      </g>
     </g>
     <g id="line2d_104">
      <g>
       <use xlink:href="#mf522c69174" x="465.48" y="116.315185" style="stroke: #000000; stroke-width: 0.5"/>
      </g>
     </g>
    </g>
    <g id="ytick_19">
     <g id="line2d_105">
      <g>
       <use xlink:href="#m3f0e716b1a" x="46.98" y="103.500258" style="stroke: #000000; stroke-width: 0.5"/>
      </g>
     </g>
     <g id="line2d_106">
      <g>
       <use xlink:href="#mf522c69174" x="465.48" y="103.500258" style="stroke: #000000; stroke-width: 0.5"/>
      </g>
     </g>
    </g>
    <g id="ytick_20">
     <g id="line2d_107">
      <g>
       <use xlink:href="#m3f0e716b1a" x="46.98" y="77.870404" style="stroke: #000000; stroke-width: 0.5"/>
      </g>
     </g>
     <g id="line2d_108">
      <g>
       <use xlink:href="#mf522c69174" x="465.48" y="77.870404" style="stroke: #000000; stroke-width: 0.5"/>
      </g>
     </g>
    </g>
    <g id="ytick_21">
     <g id="line2d_109">
      <g>
       <use xlink:href="#m3f0e716b1a" x="46.98" y="65.055477" style="stroke: #000000; stroke-width: 0.5"/>
      </g>
     </g>
     <g id="line2d_110">
      <g>
       <use xlink:href="#mf522c69174" x="465.48" y="65.055477" style="stroke: #000000; stroke-width: 0.5"/>
      </g>
     </g>
    </g>
    <g id="ytick_22">
     <g id="line2d_111">
      <g>
       <use xlink:href="#m3f0e716b1a" x="46.98" y="52.24055" style="stroke: #000000; stroke-width: 0.5"/>
      </g>
     </g>
     <g id="line2d_112">
      <g>
       <use xlink:href="#mf522c69174" x="465.48" y="52.24055" style="stroke: #000000; stroke-width: 0.5"/>
      </g>
     </g>
    </g>
    <g id="ytick_23">
     <g id="line2d_113">
      <g>
       <use xlink:href="#m3f0e716b1a" x="46.98" y="26.610696" style="stroke: #000000; stroke-width: 0.5"/>
      </g>
     </g>
     <g id="line2d_114">
      <g>
       <use xlink:href="#mf522c69174" x="465.48" y="26.610696" style="stroke: #000000; stroke-width: 0.5"/>
      </g>
     </g>
    </g>
    <g id="text_14">
     <!-- Variance difference from exact -->
     <g transform="translate(13.161563 257.648844) rotate(-90) scale(0.14 -0.14)">
      <defs>
       <path id="STIXGeneral-Regular-56" d="M 4461 4237 
L 4461 4115 
Q 4262 4109 4134 3990 
Q 4006 3872 3872 3533 
L 2451 -70 
L 2355 -70 
L 794 3411 
Q 589 3866 467 3987 
Q 346 4109 102 4115 
L 102 4237 
L 1798 4237 
L 1798 4115 
L 1619 4102 
Q 1331 4083 1331 3904 
Q 1331 3776 1581 3219 
L 2554 1030 
L 3494 3392 
Q 3616 3699 3616 3853 
Q 3616 3898 3606 3933 
Q 3597 3968 3584 3993 
Q 3571 4019 3536 4038 
Q 3501 4058 3481 4067 
Q 3462 4077 3411 4086 
Q 3360 4096 3337 4099 
Q 3315 4102 3248 4108 
Q 3181 4115 3155 4115 
L 3155 4237 
L 4461 4237 
z
" transform="scale(0.015625)"/>
       <path id="STIXGeneral-Regular-61" d="M 2829 422 
L 2829 243 
Q 2586 -64 2253 -64 
Q 1888 -64 1843 403 
L 1837 403 
Q 1427 -64 909 -64 
Q 608 -64 422 112 
Q 237 288 237 602 
Q 237 1050 685 1350 
Q 992 1555 1837 1869 
L 1837 2214 
Q 1837 2502 1699 2646 
Q 1562 2790 1338 2790 
Q 1146 2790 1018 2697 
Q 890 2605 890 2477 
Q 890 2419 909 2348 
Q 928 2278 928 2208 
Q 928 2112 841 2029 
Q 755 1946 634 1946 
Q 525 1946 441 2029 
Q 358 2112 358 2240 
Q 358 2547 685 2752 
Q 986 2944 1421 2944 
Q 1939 2944 2176 2656 
Q 2291 2522 2323 2384 
Q 2355 2246 2355 1946 
L 2355 723 
Q 2355 301 2554 301 
Q 2682 301 2829 422 
z
M 1837 813 
L 1837 1715 
Q 1248 1510 1018 1293 
Q 800 1094 800 800 
Q 800 557 921 432 
Q 1043 307 1242 307 
Q 1453 307 1613 410 
Q 1747 506 1792 589 
Q 1837 672 1837 813 
z
" transform="scale(0.015625)"/>
       <path id="STIXGeneral-Regular-72" d="M 1024 2931 
L 1024 2342 
Q 1267 2688 1430 2816 
Q 1594 2944 1792 2944 
Q 1958 2944 2051 2854 
Q 2144 2765 2144 2605 
Q 2144 2470 2077 2393 
Q 2010 2317 1894 2317 
Q 1773 2317 1638 2445 
Q 1536 2541 1472 2541 
Q 1338 2541 1181 2355 
Q 1024 2170 1024 2016 
L 1024 576 
Q 1024 301 1133 205 
Q 1242 109 1568 96 
L 1568 0 
L 32 0 
L 32 96 
Q 339 154 412 224 
Q 486 294 486 538 
L 486 2138 
Q 486 2349 438 2435 
Q 390 2522 269 2522 
Q 166 2522 45 2496 
L 45 2598 
Q 448 2726 992 2944 
L 1024 2931 
z
" transform="scale(0.015625)"/>
       <path id="STIXGeneral-Regular-6e" d="M 3104 0 
L 1773 0 
L 1779 96 
Q 2016 115 2096 233 
Q 2176 352 2176 672 
L 2176 1946 
Q 2176 2592 1709 2592 
Q 1549 2592 1408 2515 
Q 1267 2438 1050 2227 
L 1050 461 
Q 1050 269 1136 192 
Q 1222 115 1466 96 
L 1466 0 
L 115 0 
L 115 96 
Q 358 115 435 214 
Q 512 314 512 602 
L 512 2157 
Q 512 2394 467 2483 
Q 422 2573 288 2573 
Q 160 2573 102 2547 
L 102 2656 
Q 550 2784 979 2944 
L 1030 2925 
L 1030 2426 
L 1037 2426 
Q 1491 2944 1958 2944 
Q 2323 2944 2518 2688 
Q 2714 2432 2714 1958 
L 2714 544 
Q 2714 288 2790 205 
Q 2867 122 3104 96 
L 3104 0 
z
" transform="scale(0.015625)"/>
       <path id="STIXGeneral-Regular-63" d="M 2547 998 
L 2637 941 
Q 2362 403 2112 205 
Q 1786 -64 1376 -64 
Q 845 -64 502 336 
Q 160 736 160 1357 
Q 160 2170 698 2618 
Q 1094 2944 1562 2944 
Q 1965 2944 2256 2749 
Q 2547 2554 2547 2285 
Q 2547 2176 2457 2096 
Q 2368 2016 2246 2016 
Q 2022 2016 1939 2310 
L 1901 2451 
Q 1850 2630 1773 2694 
Q 1696 2758 1523 2758 
Q 1133 2758 893 2451 
Q 653 2144 653 1645 
Q 653 1094 928 745 
Q 1203 397 1645 397 
Q 1920 397 2118 528 
Q 2317 659 2547 998 
z
" transform="scale(0.015625)"/>
       <path id="STIXGeneral-Regular-20" transform="scale(0.015625)"/>
       <path id="STIXGeneral-Regular-64" d="M 3142 269 
L 2202 -64 
L 2176 -45 
L 2176 365 
Q 1869 -64 1357 -64 
Q 826 -64 499 317 
Q 173 698 173 1312 
Q 173 1990 563 2467 
Q 954 2944 1504 2944 
Q 1850 2944 2176 2669 
L 2176 3667 
Q 2176 3866 2118 3930 
Q 2061 3994 1882 3994 
Q 1792 3994 1741 3987 
L 1741 4090 
Q 2323 4243 2682 4371 
L 2714 4358 
L 2714 730 
Q 2714 506 2768 435 
Q 2822 365 2995 365 
Q 3034 365 3142 371 
L 3142 269 
z
M 2176 653 
L 2176 2125 
Q 2176 2381 1981 2573 
Q 1786 2765 1523 2765 
Q 1158 2765 940 2438 
Q 723 2112 723 1568 
Q 723 979 963 624 
Q 1203 269 1606 269 
Q 1907 269 2080 474 
Q 2176 582 2176 653 
z
" transform="scale(0.015625)"/>
       <path id="STIXGeneral-Regular-66" d="M 134 2880 
L 659 2880 
Q 666 3264 710 3478 
Q 755 3693 883 3910 
Q 1152 4371 1786 4371 
Q 2074 4371 2262 4259 
Q 2451 4147 2451 3974 
Q 2451 3866 2374 3789 
Q 2298 3712 2182 3712 
Q 2029 3712 1894 3942 
Q 1741 4192 1555 4192 
Q 1197 4192 1197 3622 
L 1197 2880 
L 1978 2880 
L 1978 2675 
L 1197 2675 
L 1197 666 
Q 1197 307 1299 208 
Q 1402 109 1792 96 
L 1792 0 
L 128 0 
L 128 96 
Q 474 115 566 214 
Q 659 314 659 666 
L 659 2675 
L 134 2675 
L 134 2880 
z
" transform="scale(0.015625)"/>
       <path id="STIXGeneral-Regular-6f" d="M 3008 1478 
Q 3008 806 2608 371 
Q 2208 -64 1568 -64 
Q 979 -64 582 368 
Q 186 800 186 1459 
Q 186 2125 582 2534 
Q 979 2944 1626 2944 
Q 2221 2944 2614 2537 
Q 3008 2131 3008 1478 
z
M 2432 1306 
Q 2432 2035 2112 2445 
Q 1856 2765 1504 2765 
Q 1171 2765 966 2493 
Q 762 2221 762 1747 
Q 762 928 1101 435 
Q 1318 115 1677 115 
Q 2029 115 2230 432 
Q 2432 749 2432 1306 
z
" transform="scale(0.015625)"/>
       <path id="STIXGeneral-Regular-78" d="M 3066 0 
L 1779 0 
L 1779 96 
Q 1939 109 1987 137 
Q 2035 166 2035 250 
Q 2035 307 1997 365 
L 1414 1261 
L 909 474 
Q 781 275 781 211 
Q 781 96 1037 96 
L 1037 0 
L 109 0 
L 109 96 
Q 269 109 355 169 
Q 442 230 576 422 
L 1306 1478 
L 704 2400 
Q 557 2624 454 2704 
Q 352 2784 211 2784 
L 154 2784 
L 154 2880 
L 1478 2880 
L 1478 2784 
Q 1203 2778 1203 2643 
Q 1203 2509 1498 2074 
Q 1581 1958 1587 1946 
Q 1619 1990 1779 2227 
Q 1811 2285 1856 2349 
Q 1901 2413 1923 2451 
Q 1946 2490 1971 2528 
Q 1997 2566 2006 2595 
Q 2016 2624 2016 2643 
Q 2016 2765 1760 2784 
L 1760 2880 
L 2771 2880 
L 2771 2784 
Q 2445 2771 2253 2502 
L 1722 1734 
L 2541 480 
Q 2790 96 3066 96 
L 3066 0 
z
" transform="scale(0.015625)"/>
       <path id="STIXGeneral-Regular-74" d="M 1702 493 
L 1786 422 
Q 1478 -64 1011 -64 
Q 448 -64 448 749 
L 448 2675 
L 109 2675 
Q 83 2694 83 2720 
Q 83 2771 192 2842 
Q 435 2982 813 3526 
Q 826 3546 874 3606 
Q 922 3667 941 3706 
Q 986 3706 986 3622 
L 986 2880 
L 1632 2880 
L 1632 2675 
L 986 2675 
L 986 845 
Q 986 538 1062 403 
Q 1139 269 1318 269 
Q 1510 269 1702 493 
z
" transform="scale(0.015625)"/>
      </defs>
      <use xlink:href="#STIXGeneral-Regular-56"/>
      <use xlink:href="#STIXGeneral-Regular-61" transform="translate(72.199982 0)"/>
      <use xlink:href="#STIXGeneral-Regular-72" transform="translate(116.599976 0)"/>
      <use xlink:href="#STIXGeneral-Regular-69" transform="translate(149.899963 0)"/>
      <use xlink:href="#STIXGeneral-Regular-61" transform="translate(177.699951 0)"/>
      <use xlink:href="#STIXGeneral-Regular-6e" transform="translate(222.099945 0)"/>
      <use xlink:href="#STIXGeneral-Regular-63" transform="translate(272.09993 0)"/>
      <use xlink:href="#STIXGeneral-Regular-65" transform="translate(316.499924 0)"/>
      <use xlink:href="#STIXGeneral-Regular-20" transform="translate(360.899918 0)"/>
      <use xlink:href="#STIXGeneral-Regular-64" transform="translate(385.899902 0)"/>
      <use xlink:href="#STIXGeneral-Regular-69" transform="translate(435.899887 0)"/>
      <use xlink:href="#STIXGeneral-Regular-66" transform="translate(463.699875 0)"/>
      <use xlink:href="#STIXGeneral-Regular-66" transform="translate(496.999863 0)"/>
      <use xlink:href="#STIXGeneral-Regular-65" transform="translate(530.29985 0)"/>
      <use xlink:href="#STIXGeneral-Regular-72" transform="translate(574.699844 0)"/>
      <use xlink:href="#STIXGeneral-Regular-65" transform="translate(607.999832 0)"/>
      <use xlink:href="#STIXGeneral-Regular-6e" transform="translate(652.399826 0)"/>
      <use xlink:href="#STIXGeneral-Regular-63" transform="translate(702.399811 0)"/>
      <use xlink:href="#STIXGeneral-Regular-65" transform="translate(746.799805 0)"/>
      <use xlink:href="#STIXGeneral-Regular-20" transform="translate(791.199799 0)"/>
      <use xlink:href="#STIXGeneral-Regular-66" transform="translate(816.199783 0)"/>
      <use xlink:href="#STIXGeneral-Regular-72" transform="translate(849.499771 0)"/>
      <use xlink:href="#STIXGeneral-Regular-6f" transform="translate(882.799759 0)"/>
      <use xlink:href="#STIXGeneral-Regular-6d" transform="translate(932.799744 0)"/>
      <use xlink:href="#STIXGeneral-Regular-20" transform="translate(1010.599731 0)"/>
      <use xlink:href="#STIXGeneral-Regular-65" transform="translate(1035.599716 0)"/>
      <use xlink:href="#STIXGeneral-Regular-78" transform="translate(1079.99971 0)"/>
      <use xlink:href="#STIXGeneral-Regular-61" transform="translate(1129.999695 0)"/>
      <use xlink:href="#STIXGeneral-Regular-63" transform="translate(1174.399689 0)"/>
      <use xlink:href="#STIXGeneral-Regular-74" transform="translate(1218.799683 0)"/>
     </g>
    </g>
   </g>
   <g id="line2d_115">
    <path d="M 66.002727 39.425623 
L 446.457273 39.425623 
L 446.457273 39.425623 
" clip-path="url(#p6ddb71dc03)" style="fill: none; stroke: #2ca02c; stroke-width: 2.7; stroke-linecap: square"/>
   </g>
   <g id="line2d_116">
    <path d="M 46.98 39.425623 
L 465.48 39.425623 
" clip-path="url(#p6ddb71dc03)" style="fill: none; stroke: #000000; stroke-opacity: 0.6; stroke-linecap: square"/>
   </g>
   <g id="patch_3">
    <path d="M 46.98 314.528 
L 46.98 26.24 
" style="fill: none; stroke: #000000; stroke-width: 0.5; stroke-linejoin: miter; stroke-linecap: square"/>
   </g>
   <g id="patch_4">
    <path d="M 465.48 314.528 
L 465.48 26.24 
" style="fill: none; stroke: #000000; stroke-width: 0.5; stroke-linejoin: miter; stroke-linecap: square"/>
   </g>
   <g id="patch_5">
    <path d="M 46.98 314.528 
L 465.48 314.528 
" style="fill: none; stroke: #000000; stroke-width: 0.5; stroke-linejoin: miter; stroke-linecap: square"/>
   </g>
   <g id="patch_6">
    <path d="M 46.98 26.24 
L 465.48 26.24 
" style="fill: none; stroke: #000000; stroke-width: 0.5; stroke-linejoin: miter; stroke-linecap: square"/>
   </g>
   <g id="line2d_117">
    <path d="M 66.002727 301.424 
L 66.307091 298.502822 
L 66.383182 298.733646 
L 66.459273 298.689015 
L 66.611455 296.318117 
L 66.687545 296.716614 
L 66.763636 296.298246 
L 67.448455 285.417953 
L 67.524545 285.280084 
L 67.981091 278.775982 
L 68.057182 279.320859 
L 68.589818 275.114108 
L 68.818091 272.04226 
L 68.894182 272.248585 
L 68.970273 272.897665 
L 69.122455 270.995126 
L 69.198545 271.153035 
L 69.274636 271.725912 
L 69.579 270.019476 
L 69.655091 268.972442 
L 69.731182 269.933993 
L 69.807273 269.707363 
L 70.111636 266.774871 
L 70.187727 267.482347 
L 70.263818 266.999731 
L 70.339909 265.379317 
L 70.416 265.999529 
L 70.720364 262.779094 
L 70.872545 264.003363 
L 70.948636 263.014634 
L 71.024727 264.841873 
L 71.100818 264.129148 
L 71.253 263.687473 
L 71.405182 264.419996 
L 71.785636 258.311035 
L 71.937818 257.826915 
L 72.013909 257.112862 
L 72.166091 259.48179 
L 72.242182 261.397655 
L 72.318273 260.724982 
L 72.394364 260.574173 
L 72.698727 256.262794 
L 72.774818 257.080004 
L 73.155273 253.943137 
L 73.231364 254.222123 
L 73.383545 252.597433 
L 73.459636 252.981817 
L 73.535727 252.689996 
L 73.611818 253.479662 
L 73.992273 249.342872 
L 74.068364 249.101026 
L 74.220545 246.671582 
L 74.296636 247.881085 
L 74.524909 245.138896 
L 74.981455 247.398271 
L 75.361909 244.680855 
L 75.438 244.718282 
L 75.666273 242.345657 
L 75.742364 243.070357 
L 76.046727 240.778837 
L 76.122818 240.486586 
L 76.427182 236.126234 
L 76.579364 237.45983 
L 76.655455 237.031377 
L 76.959818 234.896099 
L 77.035909 235.02788 
L 77.188091 234.301222 
L 77.264182 235.03676 
L 77.796818 230.187821 
L 77.949 228.002629 
L 78.101182 230.098242 
L 78.177273 229.293514 
L 78.405545 230.737933 
L 78.481636 230.493212 
L 78.709909 229.132479 
L 78.786 230.063282 
L 78.862091 229.703691 
L 78.938182 229.704374 
L 79.090364 228.181042 
L 79.166455 229.673793 
L 79.775182 222.244177 
L 80.079545 218.343692 
L 80.155636 218.037035 
L 80.307818 216.815977 
L 80.383909 216.717848 
L 80.536091 218.330939 
L 80.840455 215.047888 
L 80.992636 215.223581 
L 81.068727 215.066028 
L 81.144818 214.152899 
L 81.220909 214.899477 
L 81.373091 213.930609 
L 81.449182 214.166448 
L 81.601364 212.714909 
L 81.677455 212.518609 
L 81.829636 211.048484 
L 81.905727 211.582875 
L 81.981818 212.982861 
L 82.057909 212.219391 
L 82.134 212.733011 
L 82.286182 210.296913 
L 82.362273 211.083498 
L 82.438364 210.427492 
L 82.514455 210.982263 
L 82.590545 209.855142 
L 82.666636 210.003664 
L 82.971 206.995996 
L 83.047091 207.899395 
L 83.123182 207.739794 
L 83.199273 208.342861 
L 83.275364 208.05811 
L 83.427545 205.385696 
L 83.579727 207.730197 
L 83.731909 206.373581 
L 83.808 206.566852 
L 83.884091 206.41198 
L 84.112364 204.642883 
L 84.264545 205.312613 
L 84.568909 203.015417 
L 84.645 203.153566 
L 84.949364 199.102345 
L 85.025455 199.51086 
L 85.253727 196.170438 
L 85.405909 198.095509 
L 85.558091 196.273408 
L 85.634182 197.343877 
L 85.938545 195.222233 
L 86.014636 195.608978 
L 86.090727 195.212309 
L 86.395091 197.846112 
L 86.851636 194.490482 
L 86.927727 195.249716 
L 87.003818 193.368704 
L 87.079909 193.716616 
L 87.232091 192.343177 
L 87.384273 191.410281 
L 87.612545 189.120393 
L 87.688636 190.239115 
L 87.764727 190.179964 
L 87.840818 189.857003 
L 88.145182 192.17748 
L 88.373455 189.822697 
L 88.449545 189.938514 
L 88.677818 191.739287 
L 88.83 193.694168 
L 88.982182 194.746649 
L 89.286545 192.397995 
L 89.362636 193.178497 
L 89.590909 190.385314 
L 89.667 190.772905 
L 89.743091 191.046667 
L 89.819182 190.966664 
L 90.123545 188.151626 
L 90.199636 188.503301 
L 90.275727 187.070129 
L 90.351818 187.413952 
L 90.808364 184.083792 
L 91.036636 185.504616 
L 91.341 182.054266 
L 91.417091 182.530969 
L 91.645364 179.954028 
L 91.797545 179.471818 
L 91.949727 180.008912 
L 92.406273 175.18343 
L 92.482364 175.398031 
L 92.558455 175.519154 
L 92.634545 174.871476 
L 92.786727 175.784282 
L 93.015 173.720032 
L 93.167182 175.029494 
L 93.243273 174.774498 
L 93.319364 174.805657 
L 93.395455 174.94475 
L 93.623727 173.698915 
L 93.852 172.66054 
L 93.928091 171.365299 
L 94.004182 171.694942 
L 94.080273 172.03675 
L 94.232455 170.632591 
L 94.384636 168.384931 
L 94.536818 169.009608 
L 95.221636 162.561543 
L 95.373818 161.490423 
L 95.449909 160.87607 
L 95.526 160.967763 
L 95.678182 161.117186 
L 95.754273 160.531347 
L 95.830364 161.210068 
L 96.058636 159.535453 
L 96.363 157.621917 
L 96.439091 158.079692 
L 96.515182 157.886324 
L 96.895636 154.138908 
L 96.971727 154.315511 
L 97.047818 154.109753 
L 97.123909 153.490808 
L 97.276091 154.285682 
L 97.352182 153.089961 
L 97.428273 153.473948 
L 97.504364 153.682165 
L 97.580455 153.240368 
L 97.732636 155.013363 
L 97.884818 153.673917 
L 97.960909 154.06511 
L 98.417455 152.083611 
L 98.569636 150.848887 
L 98.645727 151.533362 
L 98.721818 151.267448 
L 98.874 150.470914 
L 99.026182 149.101891 
L 99.102273 149.224316 
L 99.178364 149.072162 
L 99.254455 148.069382 
L 99.330545 149.27226 
L 99.406636 148.999848 
L 99.482727 148.907977 
L 99.634909 147.499666 
L 99.787091 148.030095 
L 100.091455 145.749742 
L 100.243636 145.941521 
L 100.548 144.497445 
L 100.700182 144.949083 
L 100.852364 143.983795 
L 101.080636 142.410027 
L 101.232818 142.327181 
L 101.461091 141.101926 
L 101.537182 141.23115 
L 102.069818 137.766213 
L 102.145909 138.528701 
L 102.222 138.33269 
L 102.298091 138.716123 
L 102.678545 136.62033 
L 102.830727 136.466527 
L 102.982909 135.305707 
L 103.059 135.019334 
L 103.363364 137.31482 
L 103.515545 136.534774 
L 103.667727 137.174799 
L 103.743818 136.299338 
L 103.819909 136.488184 
L 103.972091 137.690609 
L 104.048182 138.252039 
L 104.276455 137.65298 
L 104.352545 137.895259 
L 104.504727 135.818638 
L 104.580818 137.558133 
L 104.656909 137.002351 
L 104.809091 137.661416 
L 104.885182 137.474331 
L 105.113455 135.847445 
L 105.189545 135.87148 
L 105.265636 136.904061 
L 105.341727 136.646487 
L 105.493909 136.942156 
L 105.722182 135.314375 
L 105.798273 136.28227 
L 105.874364 136.156224 
L 106.178727 133.330496 
L 106.254818 133.035573 
L 106.407 131.507429 
L 106.483091 132.271122 
L 106.559182 131.745953 
L 106.635273 132.584203 
L 106.939636 130.889816 
L 107.091818 131.99945 
L 107.244 131.652597 
L 107.548364 129.129787 
L 107.700545 128.325139 
L 107.776636 128.878557 
L 108.157091 126.483245 
L 108.309273 125.747033 
L 108.385364 125.986098 
L 108.461455 125.83927 
L 108.613636 124.681805 
L 108.689727 125.099529 
L 108.841909 124.118213 
L 108.918 122.947914 
L 108.994091 123.011451 
L 109.146273 123.128147 
L 109.298455 121.798789 
L 109.374545 122.270643 
L 109.678909 120.722317 
L 109.831091 122.499278 
L 110.059364 120.526452 
L 110.135455 120.569557 
L 110.211545 120.977829 
L 110.820273 118.642192 
L 110.896364 119.205016 
L 110.972455 118.972189 
L 111.048545 118.344855 
L 111.124636 119.006558 
L 111.352909 117.395129 
L 111.429 117.531299 
L 111.581182 116.904914 
L 111.657273 117.304912 
L 111.733364 116.908595 
L 111.809455 116.93091 
L 111.961636 117.185397 
L 112.189909 115.458332 
L 112.342091 116.097675 
L 112.646455 114.89286 
L 112.722545 114.771537 
L 112.798636 115.50079 
L 112.874727 115.41632 
L 113.103 116.03651 
L 113.179091 115.818314 
L 113.331273 115.081753 
L 113.483455 115.6544 
L 113.635636 114.631654 
L 113.711727 114.518331 
L 113.863909 115.292904 
L 113.94 115.151573 
L 114.092182 115.287953 
L 114.244364 115.167217 
L 114.472636 116.129035 
L 114.548727 116.437151 
L 114.853091 113.897288 
L 114.929182 114.316519 
L 115.005273 113.977611 
L 115.081364 115.701361 
L 115.157455 114.956917 
L 115.309636 114.192636 
L 115.385727 114.122819 
L 115.461818 114.83708 
L 115.690091 114.06376 
L 115.918364 112.664973 
L 116.070545 112.094991 
L 116.146636 112.090516 
L 116.603182 110.303125 
L 116.831455 111.765076 
L 116.983636 110.807789 
L 117.059727 110.951763 
L 117.135818 111.022299 
L 117.364091 109.8102 
L 117.516273 110.606692 
L 117.592364 110.624226 
L 117.896727 108.823754 
L 118.125 110.495692 
L 118.277182 109.609794 
L 118.353273 109.98106 
L 118.429364 109.964974 
L 118.733727 107.891784 
L 118.809818 107.952667 
L 118.962 107.471238 
L 119.038091 108.837547 
L 119.114182 108.449893 
L 119.190273 109.155561 
L 119.494636 107.203536 
L 119.722909 106.75087 
L 119.951182 108.05532 
L 120.027273 108.545811 
L 120.103364 108.139235 
L 120.179455 108.654407 
L 120.255545 108.090607 
L 120.331636 108.257521 
L 120.407727 108.691891 
L 120.940364 104.65357 
L 121.092545 103.806278 
L 121.168636 104.274613 
L 121.549091 102.761243 
L 121.701273 102.155184 
L 122.005636 100.004556 
L 122.31 98.421756 
L 122.386091 98.389169 
L 122.538273 97.719455 
L 122.614364 98.3592 
L 122.690455 97.569973 
L 122.766545 98.063015 
L 122.842636 97.983235 
L 122.918727 97.194783 
L 122.994818 97.272367 
L 123.147 97.847613 
L 123.375273 98.094976 
L 123.451364 97.90299 
L 123.679636 96.518071 
L 123.755727 96.132082 
L 123.831818 96.821052 
L 123.984 95.569417 
L 124.060091 96.012052 
L 124.136182 95.289384 
L 124.212273 95.418591 
L 124.364455 94.45566 
L 124.516636 95.239725 
L 124.744909 94.014863 
L 124.821 94.230235 
L 124.897091 94.834348 
L 125.201455 93.140105 
L 125.277545 93.797756 
L 125.353636 93.445867 
L 125.962364 95.793712 
L 126.114545 95.252094 
L 126.266727 95.645915 
L 126.342818 95.171125 
L 126.495 95.812859 
L 126.571091 95.976497 
L 126.723273 97.128865 
L 127.103727 95.792382 
L 127.179818 96.176127 
L 127.332 95.466409 
L 127.636364 94.810875 
L 127.712455 94.642518 
L 127.864636 93.829852 
L 128.016818 94.411522 
L 128.473364 92.750091 
L 128.549455 93.368348 
L 128.625545 93.181965 
L 128.701636 92.830143 
L 128.777727 93.230699 
L 129.310364 90.971069 
L 129.386455 91.634508 
L 129.462545 91.54279 
L 129.538636 91.601332 
L 129.766909 90.756934 
L 129.843 90.819024 
L 130.071273 90.758068 
L 130.375636 88.784783 
L 130.527818 89.580789 
L 130.68 89.106646 
L 130.756091 89.157663 
L 130.832182 89.411615 
L 130.908273 89.354922 
L 131.364818 87.82825 
L 131.517 86.566437 
L 131.593091 86.620681 
L 131.745273 86.242038 
L 131.897455 86.610643 
L 131.973545 86.219713 
L 132.049636 86.380636 
L 132.201818 87.147567 
L 132.277909 86.979882 
L 132.506182 85.962088 
L 132.582273 85.744045 
L 132.658364 85.871644 
L 133.114909 84.965428 
L 133.191 85.226536 
L 133.419273 84.35085 
L 133.495364 84.427736 
L 133.571455 84.283466 
L 133.647545 84.35168 
L 133.723636 84.31493 
L 133.951909 83.47196 
L 134.028 83.816775 
L 134.332364 82.217982 
L 134.484545 82.477799 
L 134.788909 81.220824 
L 134.865 81.772504 
L 134.941091 81.641002 
L 135.017182 81.378279 
L 135.093273 81.565424 
L 135.321545 81.084572 
L 136.006364 78.385223 
L 136.082455 78.621353 
L 136.386818 77.556822 
L 136.615091 77.728531 
L 136.843364 77.004224 
L 136.995545 77.508739 
L 137.147727 77.492206 
L 137.223818 77.184792 
L 137.299909 77.298533 
L 137.376 77.4995 
L 137.452091 77.416274 
L 137.604273 77.011869 
L 137.680364 77.273138 
L 137.984727 76.331023 
L 138.060818 76.316062 
L 138.213 76.577906 
L 138.669545 75.300226 
L 138.745636 75.263989 
L 138.973909 74.501532 
L 139.05 74.635016 
L 139.430455 73.610842 
L 139.582636 73.037465 
L 139.658727 73.108376 
L 139.734818 73.38641 
L 139.810909 73.259666 
L 140.039182 72.163213 
L 140.267455 72.876454 
L 140.343545 72.796507 
L 140.419636 72.89265 
L 140.495727 73.317545 
L 140.800091 72.335718 
L 140.876182 72.372292 
L 140.952273 72.989795 
L 141.104455 72.352562 
L 141.180545 72.616847 
L 141.256636 72.371511 
L 141.332727 72.679665 
L 141.408818 72.654441 
L 141.637091 71.889608 
L 141.713182 71.545781 
L 141.941455 72.488106 
L 142.093636 72.49382 
L 142.321909 71.888594 
L 142.398 72.264824 
L 142.778455 70.83298 
L 142.930636 70.335911 
L 143.006727 70.402211 
L 143.082818 70.447254 
L 143.158909 70.302332 
L 143.235 70.578141 
L 143.463273 70.005299 
L 143.691545 70.717316 
L 143.995909 69.84073 
L 144.148091 69.629627 
L 144.224182 69.358258 
L 144.300273 69.519956 
L 144.680727 68.475548 
L 144.756818 68.284326 
L 144.832909 68.547899 
L 144.909 68.490308 
L 145.137273 67.931626 
L 145.213364 68.098643 
L 145.365545 68.64638 
L 145.517727 69.384558 
L 145.746 68.629237 
L 145.822091 68.706909 
L 145.898182 68.574454 
L 145.974273 69.015723 
L 146.126455 68.642792 
L 146.278636 68.640918 
L 146.506909 68.493258 
L 146.659091 68.044595 
L 146.735182 68.371186 
L 146.887364 67.600619 
L 146.963455 67.988572 
L 147.039545 67.760841 
L 147.191727 67.891146 
L 147.267818 68.90152 
L 147.343909 68.778875 
L 147.42 69.255558 
L 147.800455 68.029016 
L 147.876545 68.090947 
L 148.028727 67.616543 
L 148.104818 67.971197 
L 148.485273 66.902559 
L 148.561364 66.991574 
L 148.713545 66.875945 
L 148.789636 67.047182 
L 148.865727 66.806926 
L 149.094 67.219671 
L 149.702727 65.426874 
L 149.778818 65.496862 
L 150.007091 65.032059 
L 150.083182 65.226319 
L 150.159273 65.137531 
L 150.235364 64.761185 
L 150.311455 64.969855 
L 150.463636 64.711275 
L 150.691909 65.073938 
L 150.996273 64.265116 
L 151.224545 63.815888 
L 151.300636 63.950334 
L 151.376727 63.872976 
L 151.909364 62.651716 
L 151.985455 62.576464 
L 152.213727 61.938114 
L 152.289818 62.186816 
L 152.442 61.585663 
L 152.594182 62.411782 
L 152.746364 62.513905 
L 152.898545 63.247781 
L 153.202909 62.33872 
L 153.431182 61.998641 
L 154.116 60.394697 
L 154.192091 60.516909 
L 154.268182 60.33031 
L 154.344273 60.363644 
L 154.496455 61.166417 
L 154.572545 60.862535 
L 154.800818 60.351883 
L 154.953 60.121056 
L 155.029091 59.971771 
L 155.409545 60.634312 
L 155.485636 60.524414 
L 155.561727 60.691156 
L 155.713909 60.539177 
L 155.79 60.578276 
L 155.866091 60.481703 
L 156.094364 61.043202 
L 156.170455 60.863699 
L 156.322636 60.686242 
L 156.398727 61.447245 
L 156.474818 61.310558 
L 156.550909 61.356009 
L 156.703091 61.711615 
L 157.235727 60.193933 
L 157.387909 60.148342 
L 157.464 60.106462 
L 157.616182 59.58203 
L 157.692273 59.630831 
L 157.768364 59.501324 
L 157.920545 60.322078 
L 157.996636 60.082858 
L 158.301 61.03924 
L 158.377091 60.780924 
L 158.757545 60.13928 
L 158.833636 60.427176 
L 158.909727 60.365861 
L 158.985818 60.238462 
L 159.214091 60.40346 
L 159.442364 60.141812 
L 159.518455 60.236882 
L 159.594545 60.008496 
L 159.746727 60.470783 
L 159.898909 60.285563 
L 160.051091 60.508225 
L 160.355455 59.722067 
L 160.431545 59.921391 
L 160.507636 59.812905 
L 160.583727 59.888549 
L 160.888091 59.403791 
L 160.964182 59.657629 
L 161.040273 60.337059 
L 161.116364 60.281069 
L 161.344636 60.058942 
L 161.420727 60.215787 
L 161.572909 59.992896 
L 161.725091 60.341005 
L 161.877273 59.9329 
L 161.953364 59.9698 
L 162.029455 60.172859 
L 162.105545 59.992485 
L 162.181636 60.092959 
L 162.257727 60.367748 
L 162.333818 60.266528 
L 162.638182 59.728508 
L 162.714273 59.874873 
L 162.790364 59.818178 
L 162.866455 59.590692 
L 162.942545 59.703172 
L 163.246909 59.232822 
L 163.323 59.164987 
L 163.399091 59.456692 
L 163.855636 58.23709 
L 164.007818 57.840838 
L 164.083909 58.186273 
L 164.16 58.063182 
L 164.464364 57.697491 
L 164.540455 58.123373 
L 164.616545 57.926584 
L 164.844818 57.489748 
L 164.997 57.909438 
L 165.225273 57.929861 
L 165.301364 57.733087 
L 165.453545 58.197167 
L 165.529636 58.060312 
L 165.605727 58.274229 
L 165.834 57.866562 
L 165.910091 57.988782 
L 166.214455 57.454786 
L 166.442727 57.28258 
L 166.518818 57.520915 
L 166.747091 57.097533 
L 166.899273 57.089036 
L 166.975364 56.871069 
L 167.127545 57.421565 
L 167.203636 57.30086 
L 167.431909 56.91235 
L 167.584091 56.959176 
L 167.660182 57.123075 
L 167.736273 56.903964 
L 167.888455 57.347935 
L 168.040636 57.45047 
L 168.116727 57.417884 
L 168.192818 57.223789 
L 168.345 57.522057 
L 168.573273 57.033139 
L 168.801545 56.57339 
L 168.877636 56.744665 
L 169.714636 55.414029 
L 169.790727 55.46545 
L 169.942909 55.083177 
L 170.095091 55.337565 
L 170.247273 54.989029 
L 170.399455 55.374243 
L 170.475545 55.196032 
L 170.627727 55.44369 
L 170.703818 55.765911 
L 170.932091 55.288591 
L 171.008182 55.242673 
L 171.084273 55.337921 
L 171.160364 55.111869 
L 171.236455 55.323714 
L 171.312545 55.195048 
L 171.388636 55.286108 
L 171.769091 54.674976 
L 171.997364 55.2116 
L 172.073455 55.030793 
L 172.149545 55.579216 
L 172.225636 55.509918 
L 172.301727 55.279579 
L 172.377818 55.317366 
L 172.453909 55.372837 
L 172.758273 54.965868 
L 173.138727 55.424714 
L 173.214818 55.227534 
L 173.290909 55.486671 
L 173.595273 54.73561 
L 173.671364 54.802596 
L 173.747455 54.618517 
L 173.823545 54.67317 
L 174.051818 55.046233 
L 174.660545 54.073906 
L 174.736636 54.142035 
L 174.964909 53.751204 
L 175.041 53.85662 
L 175.421455 53.154445 
L 175.497545 53.248896 
L 175.954091 52.634526 
L 176.106273 52.620553 
L 176.182364 52.740615 
L 176.410636 52.316695 
L 176.486727 52.406135 
L 176.715 51.997083 
L 176.791091 52.100485 
L 176.943273 51.341213 
L 177.019364 51.212025 
L 177.171545 51.700498 
L 177.323727 51.622727 
L 177.399818 51.912501 
L 177.475909 51.847035 
L 177.552 51.9761 
L 177.628091 51.807995 
L 177.704182 52.071816 
L 177.780273 52.006 
L 177.932455 51.725615 
L 178.008545 51.840732 
L 178.389 51.282921 
L 178.541182 51.444989 
L 178.845545 50.807644 
L 178.921636 50.856259 
L 179.530364 49.967667 
L 179.606455 50.050558 
L 179.682545 49.937379 
L 179.758636 50.153271 
L 179.910818 49.866489 
L 179.986909 49.938956 
L 180.063 49.961094 
L 180.139091 50.339849 
L 180.215182 50.30121 
L 180.443455 50.518898 
L 181.052182 49.930088 
L 181.128273 50.060184 
L 181.356545 49.773824 
L 181.432636 49.89255 
L 181.660909 49.466275 
L 181.737 49.568792 
L 182.041364 49.250587 
L 182.117455 49.267355 
L 182.421818 48.888429 
L 182.574 49.00082 
L 182.802273 48.733384 
L 182.878364 48.799067 
L 183.258818 48.273601 
L 183.334909 48.444418 
L 183.411 48.355655 
L 183.487091 48.251528 
L 183.563182 48.605674 
L 183.639273 48.504995 
L 184.019727 48.010658 
L 184.095818 48.486243 
L 184.171909 48.405618 
L 184.248 47.728494 
L 184.324091 47.958771 
L 185.008909 47.331519 
L 185.161091 47.485923 
L 185.313273 47.380863 
L 185.465455 47.743355 
L 185.541545 47.81383 
L 186.074182 47.154266 
L 186.150273 47.185046 
L 186.530727 46.811051 
L 187.215545 46.278494 
L 187.367727 46.824716 
L 187.519909 46.713563 
L 187.596 46.760861 
L 187.748182 46.571615 
L 187.824273 46.869644 
L 187.900364 46.789221 
L 188.052545 46.667741 
L 188.128636 46.586173 
L 188.204727 46.691769 
L 188.356909 46.582068 
L 188.509091 46.896414 
L 188.813455 46.601843 
L 188.965636 46.784164 
L 189.726545 46.132338 
L 189.802636 46.330478 
L 189.878727 46.242382 
L 190.030909 46.080197 
L 190.107 46.270313 
L 190.259182 46.130719 
L 190.487455 46.240879 
L 190.563545 46.208949 
L 190.639636 46.625041 
L 190.715727 46.589334 
L 191.324455 46.122864 
L 191.476636 46.056612 
L 191.552727 45.969885 
L 191.857091 46.414377 
L 192.694091 45.820621 
L 192.770182 46.025973 
L 192.846273 45.951354 
L 193.302818 45.535767 
L 193.455 45.634167 
L 193.607182 45.304345 
L 193.683273 45.509244 
L 193.835455 45.558485 
L 193.911545 45.712674 
L 193.987636 45.643592 
L 194.063727 45.63365 
L 194.139818 45.745702 
L 194.215909 45.671153 
L 194.292 45.609989 
L 194.368091 45.769441 
L 194.444182 45.697654 
L 194.672455 45.45113 
L 194.748545 45.674698 
L 194.824636 45.611665 
L 194.900727 45.54001 
L 194.976818 45.697092 
L 195.052909 45.62614 
L 195.357273 45.344517 
L 195.509455 44.78782 
L 195.661636 44.804935 
L 195.737727 44.734796 
L 195.889909 44.9194 
L 195.966 44.857552 
L 196.194273 45.170319 
L 196.650818 44.897254 
L 196.726909 45.046518 
L 196.803 44.985293 
L 197.183455 44.738407 
L 197.335636 44.981662 
L 197.487818 44.92484 
L 197.716091 44.843168 
L 197.868273 44.865835 
L 198.096545 44.744621 
L 198.400909 44.520232 
L 198.553091 44.570476 
L 198.857455 44.370596 
L 199.161818 44.225071 
L 199.618364 43.933979 
L 199.770545 43.93831 
L 199.922727 43.911542 
L 200.074909 43.923781 
L 200.379273 43.650592 
L 200.683636 43.791353 
L 201.064091 43.559541 
L 201.216273 43.557418 
L 201.292364 43.553059 
L 201.368455 43.777623 
L 201.444545 43.723593 
L 201.596727 43.610818 
L 201.825 43.776826 
L 201.977182 43.652871 
L 202.205455 43.989993 
L 202.433727 43.902911 
L 202.662 44.264021 
L 202.890273 44.095521 
L 203.118545 44.440364 
L 203.270727 44.225452 
L 203.346818 44.418865 
L 203.422909 44.367153 
L 203.499 44.348513 
L 203.575091 44.501755 
L 203.651182 44.445206 
L 203.879455 44.306143 
L 204.031636 44.544339 
L 204.336 44.294222 
L 204.488182 44.496644 
L 204.640364 44.378106 
L 204.792545 43.943094 
L 205.020818 43.785882 
L 205.173 43.847072 
L 206.086091 43.371178 
L 206.238273 43.522419 
L 206.618727 43.220722 
L 206.694818 43.426688 
L 206.770909 43.384292 
L 207.075273 43.254312 
L 207.531818 43.157638 
L 207.684 42.801431 
L 207.836182 42.885934 
L 207.912273 42.832883 
L 207.988364 43.053497 
L 208.064455 43.00656 
L 208.292727 42.946766 
L 208.521 43.124887 
L 208.825364 43.079063 
L 208.901455 43.249077 
L 208.977545 43.195261 
L 209.358 42.994148 
L 209.814545 42.829438 
L 210.271091 42.74644 
L 210.879818 42.442067 
L 211.032 42.512109 
L 211.488545 42.35951 
L 211.564636 42.408816 
L 211.640727 42.663708 
L 211.716818 42.604181 
L 211.945091 42.612068 
L 212.173364 42.502343 
L 212.249455 42.68182 
L 212.325545 42.646791 
L 212.553818 42.605612 
L 212.782091 42.657933 
L 213.086455 42.655319 
L 213.390818 42.552875 
L 213.543 42.674251 
L 213.619091 43.025274 
L 213.695182 42.99565 
L 213.847364 43.043798 
L 214.151727 42.903299 
L 214.303909 43.00078 
L 214.684364 42.927468 
L 214.988727 42.897921 
L 215.445273 43.262146 
L 215.597455 43.221993 
L 215.673545 43.16702 
L 215.825727 43.353873 
L 216.054 43.243566 
L 216.206182 43.305215 
L 216.662727 43.083734 
L 216.967091 43.278456 
L 217.651909 42.99055 
L 217.804091 43.072645 
L 218.260636 42.956602 
L 218.488909 42.963225 
L 218.641091 43.217299 
L 219.782455 43.149577 
L 220.771636 42.697353 
L 220.923818 42.920927 
L 222.141273 42.513775 
L 222.521727 42.725574 
L 222.75 42.616425 
L 222.902182 42.681237 
L 222.978273 42.64261 
L 223.054364 42.824532 
L 223.130455 42.776173 
L 224.652273 42.214962 
L 224.804455 42.381495 
L 225.413182 42.23448 
L 225.641455 42.345478 
L 226.098 42.154928 
L 226.326273 42.427185 
L 226.630636 42.327962 
L 226.782818 41.985477 
L 226.858909 41.965693 
L 227.011091 42.226669 
L 227.543727 42.050131 
L 227.695909 42.046849 
L 227.848091 41.408129 
L 227.924182 41.370948 
L 228.076364 41.529542 
L 228.152455 41.512848 
L 228.380727 41.672968 
L 228.609 41.703797 
L 229.141636 41.643958 
L 229.293818 41.757399 
L 229.446 41.483665 
L 230.587364 41.123354 
L 231.12 41.01947 
L 231.272182 41.067796 
L 232.185273 40.919057 
L 232.337455 40.974387 
L 232.413545 40.948945 
L 232.565727 41.086646 
L 232.794 41.069004 
L 233.022273 41.007989 
L 233.098364 41.232491 
L 233.174455 41.206632 
L 233.478818 41.218217 
L 233.935364 41.231146 
L 234.391909 41.15115 
L 234.544091 41.361723 
L 235.381091 41.306231 
L 235.685455 41.405868 
L 235.837636 40.614656 
L 237.816 40.303725 
L 237.968182 40.471884 
L 239.337818 40.340607 
L 239.566091 40.553823 
L 239.870455 40.59622 
L 240.022636 40.806352 
L 240.479182 40.691928 
L 240.631364 40.657436 
L 240.783545 40.791073 
L 241.011818 40.752004 
L 241.164 40.906927 
L 242.229273 40.827824 
L 242.457545 40.879795 
L 243.370636 40.767702 
L 243.522818 40.892187 
L 243.675 40.820823 
L 243.903273 41.110604 
L 245.349 40.852678 
L 245.653364 41.331672 
L 246.338182 41.26527 
L 246.566455 41.478332 
L 248.164364 41.287468 
L 248.392636 41.298679 
L 249.077455 41.147977 
L 249.153545 40.313482 
L 249.229636 40.341801 
L 249.457909 40.355863 
L 251.131909 40.001743 
L 251.436273 39.943783 
L 251.664545 40.085526 
L 252.349364 39.948007 
L 252.501545 40.108467 
L 252.577636 40.094405 
L 252.729818 40.212557 
L 253.034182 40.165641 
L 253.262455 40.363821 
L 253.338545 40.350326 
L 253.490727 40.508194 
L 253.871182 40.430254 
L 254.023364 40.558856 
L 254.632091 40.431045 
L 254.860364 40.652108 
L 256.001727 40.491181 
L 256.153909 40.666926 
L 256.382182 40.628968 
L 256.458273 40.772979 
L 256.610455 40.532656 
L 258.056182 40.418877 
L 258.284455 40.449787 
L 258.436636 40.430655 
L 258.588818 40.728432 
L 259.045364 40.650575 
L 259.197545 40.746239 
L 259.501909 40.746976 
L 259.654091 40.83038 
L 260.034545 40.758649 
L 260.262818 40.945573 
L 261.784636 40.803208 
L 261.936818 40.862451 
L 262.317273 40.822663 
L 262.469455 40.678753 
L 263.078182 40.631099 
L 263.230364 40.768726 
L 263.458636 40.749344 
L 263.610818 40.903322 
L 264.219545 40.901972 
L 264.6 40.851426 
L 264.828273 41.13504 
L 264.980455 40.710762 
L 266.958818 40.577193 
L 267.187091 40.877585 
L 268.176273 40.786591 
L 268.328455 41.02079 
L 269.013273 40.935486 
L 269.317636 41.275041 
L 271.828636 41.095873 
L 271.980818 41.246889 
L 272.437364 41.233383 
L 272.589545 41.381823 
L 272.893909 41.35697 
L 273.046091 41.483318 
L 280.198636 41.02734 
L 280.274727 41.229341 
L 280.426909 41.033393 
L 280.655182 40.996756 
L 280.807364 41.134367 
L 280.883455 41.1255 
L 281.035636 41.233695 
L 282.253091 41.155933 
L 282.709636 41.318663 
L 283.014 41.350033 
L 283.166182 41.455591 
L 284.079273 41.337451 
L 284.992364 41.259082 
L 285.144545 41.357567 
L 286.590273 41.219454 
L 286.742455 41.348693 
L 287.959909 41.244754 
L 288.188182 41.491528 
L 288.416455 41.473495 
L 288.568636 41.580689 
L 291.231818 41.24702 
L 291.916636 41.169262 
L 292.753636 41.08967 
L 292.905818 41.220034 
L 296.558182 41.040272 
L 296.710364 41.144046 
L 298.917 40.942348 
L 299.069182 41.08622 
L 300.514909 41.039725 
L 300.667091 41.128874 
L 303.634636 40.852413 
L 303.786818 41.001158 
L 308.124 40.762541 
L 308.428364 40.779869 
L 321.820364 40.085593 
L 321.972545 40.231851 
L 327.375 40.065347 
L 327.527182 40.203945 
L 330.266455 40.141912 
L 330.418636 40.271849 
L 334.984091 40.095175 
L 335.136273 40.245098 
L 336.353727 40.20021 
L 336.505909 40.324834 
L 338.864727 40.265996 
L 339.016909 40.383021 
L 339.093 40.380958 
L 339.245182 40.557438 
L 348.528273 40.265555 
L 348.832636 40.226749 
L 349.974 40.207842 
L 350.126182 39.871475 
L 350.506636 39.896248 
L 354.919909 39.813816 
L 355.072091 40.031658 
L 361.007182 39.860811 
L 361.311545 39.831231 
L 361.692 39.855792 
L 363.898636 39.844518 
L 372.725182 39.660481 
L 372.877364 39.492262 
L 373.638273 39.461098 
L 376.149273 39.56646 
L 377.899364 39.598541 
L 378.051545 39.444245 
L 425.075727 39.403961 
L 425.304 39.454698 
L 446.457273 39.458301 
L 446.457273 39.458301 
" clip-path="url(#p6ddb71dc03)" style="fill: none; stroke: #ff7f0e; stroke-width: 2.5; stroke-linecap: square"/>
   </g>
   <g id="text_15">
    <!-- Variance Difference vs Time ($|\alpha=\sqrt{50}\rangle$, $\gamma=1$) -->
    <g transform="translate(97.83 20.24) scale(0.16 -0.16)">
     <defs>
      <path id="STIXGeneral-Regular-44" d="M 102 4237 
L 1830 4237 
Q 3078 4237 3750 3654 
Q 4384 3110 4384 2138 
Q 4384 966 3514 410 
Q 2880 0 1901 0 
L 102 0 
L 102 122 
Q 474 147 570 252 
Q 666 358 666 736 
L 666 3520 
Q 666 3891 570 3990 
Q 474 4090 102 4115 
L 102 4237 
z
M 1318 3731 
L 1318 538 
Q 1318 365 1379 301 
Q 1440 237 1626 237 
Q 2125 237 2432 307 
Q 2739 378 3021 570 
Q 3686 1018 3686 2099 
Q 3686 3027 3078 3558 
Q 2803 3802 2476 3901 
Q 2150 4000 1658 4000 
Q 1472 4000 1395 3942 
Q 1318 3885 1318 3731 
z
" transform="scale(0.015625)"/>
      <path id="STIXGeneral-Regular-76" d="M 3053 2880 
L 3053 2784 
Q 2906 2771 2835 2688 
Q 2765 2605 2637 2285 
L 1818 230 
Q 1690 -90 1638 -90 
Q 1587 -90 1523 77 
Q 1510 96 1497 141 
Q 1485 186 1472 211 
L 704 2048 
Q 499 2534 403 2652 
Q 307 2771 122 2784 
L 122 2880 
L 1376 2880 
L 1376 2784 
Q 1210 2771 1146 2732 
Q 1082 2694 1082 2611 
Q 1082 2509 1139 2368 
L 1792 730 
L 2426 2387 
Q 2464 2483 2464 2579 
Q 2464 2758 2163 2784 
L 2163 2880 
L 3053 2880 
z
" transform="scale(0.015625)"/>
      <path id="STIXGeneral-Regular-73" d="M 998 1926 
L 1664 1523 
Q 1984 1331 2105 1164 
Q 2227 998 2227 736 
Q 2227 416 1961 176 
Q 1696 -64 1331 -64 
Q 1030 -64 864 -6 
Q 691 51 570 51 
Q 461 51 416 -26 
L 333 -26 
L 333 979 
L 435 979 
Q 538 512 730 294 
Q 922 77 1248 77 
Q 1485 77 1632 211 
Q 1779 346 1779 550 
Q 1779 845 1440 1030 
L 1094 1222 
Q 326 1651 326 2150 
Q 326 2522 566 2730 
Q 806 2938 1210 2938 
Q 1491 2938 1638 2867 
Q 1754 2816 1818 2816 
Q 1862 2816 1920 2880 
L 1990 2880 
L 2022 2010 
L 1926 2010 
Q 1818 2445 1654 2621 
Q 1491 2797 1203 2797 
Q 986 2797 854 2688 
Q 723 2579 723 2362 
Q 723 2253 796 2128 
Q 870 2003 998 1926 
z
" transform="scale(0.015625)"/>
      <path id="STIXGeneral-Regular-28" d="M 1946 -1030 
L 1869 -1133 
Q 1126 -710 716 32 
Q 307 774 307 1613 
Q 307 3386 1888 4326 
L 1946 4224 
Q 1293 3667 1075 3126 
Q 858 2586 858 1632 
Q 858 685 1082 96 
Q 1306 -493 1946 -1030 
z
" transform="scale(0.015625)"/>
      <path id="Cmsy10-6a" d="M 763 -1484 
L 763 4684 
Q 763 4734 800 4767 
Q 838 4800 891 4800 
Q 938 4800 978 4767 
Q 1019 4734 1019 4684 
L 1019 -1484 
Q 1019 -1534 978 -1567 
Q 938 -1600 891 -1600 
Q 838 -1600 800 -1567 
Q 763 -1534 763 -1484 
z
" transform="scale(0.015625)"/>
      <path id="Cmmi10-ae" d="M 1288 -72 
Q 984 -72 748 72 
Q 513 216 384 459 
Q 256 703 256 1013 
Q 256 1447 498 1872 
Q 741 2297 1142 2562 
Q 1544 2828 1984 2828 
Q 2309 2828 2556 2658 
Q 2803 2488 2931 2205 
Q 3059 1922 3059 1600 
L 3066 1172 
Q 3284 1475 3436 1801 
Q 3588 2128 3669 2478 
Q 3681 2516 3719 2516 
L 3794 2516 
Q 3853 2516 3853 2456 
Q 3853 2450 3847 2438 
Q 3772 2144 3659 1873 
Q 3547 1603 3395 1350 
Q 3244 1097 3066 891 
Q 3066 97 3250 97 
Q 3369 97 3445 167 
Q 3522 238 3580 341 
Q 3638 444 3653 447 
L 3731 447 
Q 3781 447 3781 384 
Q 3781 225 3598 76 
Q 3416 -72 3238 -72 
Q 3006 -72 2853 78 
Q 2700 228 2644 469 
Q 2344 213 1994 70 
Q 1644 -72 1288 -72 
z
M 1300 97 
Q 1984 97 2613 659 
Q 2609 697 2603 751 
Q 2597 806 2597 813 
L 2597 1503 
Q 2597 2663 1972 2663 
Q 1597 2663 1315 2342 
Q 1034 2022 892 1576 
Q 750 1131 750 763 
Q 750 484 892 290 
Q 1034 97 1300 97 
z
" transform="scale(0.015625)"/>
      <path id="Cmr10-3d" d="M 481 850 
Q 428 850 393 890 
Q 359 931 359 978 
Q 359 1031 393 1068 
Q 428 1106 481 1106 
L 4500 1106 
Q 4547 1106 4581 1068 
Q 4616 1031 4616 978 
Q 4616 931 4581 890 
Q 4547 850 4500 850 
L 481 850 
z
M 481 2094 
Q 428 2094 393 2131 
Q 359 2169 359 2222 
Q 359 2269 393 2309 
Q 428 2350 481 2350 
L 4500 2350 
Q 4547 2350 4581 2309 
Q 4616 2269 4616 2222 
Q 4616 2169 4581 2131 
Q 4547 2094 4500 2094 
L 481 2094 
z
" transform="scale(0.015625)"/>
      <path id="Cmex10-70" d="M 2713 -7425 
L 1269 -4063 
L 819 -4409 
L 703 -4294 
L 1619 -3584 
L 2969 -6725 
L 6291 197 
Q 6322 256 6400 256 
Q 6453 256 6490 218 
Q 6528 181 6528 128 
Q 6528 97 6522 84 
L 2950 -7366 
Q 2925 -7425 2853 -7425 
L 2713 -7425 
z
" transform="scale(0.015625)"/>
      <path id="Cmr10-35" d="M 556 728 
Q 622 541 758 387 
Q 894 234 1080 148 
Q 1266 63 1466 63 
Q 1928 63 2103 422 
Q 2278 781 2278 1294 
Q 2278 1516 2270 1667 
Q 2263 1819 2228 1959 
Q 2169 2184 2020 2353 
Q 1872 2522 1656 2522 
Q 1441 2522 1286 2456 
Q 1131 2391 1034 2303 
Q 938 2216 863 2119 
Q 788 2022 769 2016 
L 697 2016 
Q 681 2016 657 2036 
Q 634 2056 634 2075 
L 634 4213 
Q 634 4228 654 4245 
Q 675 4263 697 4263 
L 716 4263 
Q 1147 4056 1631 4056 
Q 2106 4056 2547 4263 
L 2566 4263 
Q 2588 4263 2606 4247 
Q 2625 4231 2625 4213 
L 2625 4153 
Q 2625 4122 2613 4122 
Q 2394 3831 2064 3668 
Q 1734 3506 1381 3506 
Q 1125 3506 856 3578 
L 856 2369 
Q 1069 2541 1236 2614 
Q 1403 2688 1663 2688 
Q 2016 2688 2295 2484 
Q 2575 2281 2725 1954 
Q 2875 1628 2875 1288 
Q 2875 903 2686 575 
Q 2497 247 2172 53 
Q 1847 -141 1466 -141 
Q 1150 -141 886 21 
Q 622 184 470 459 
Q 319 734 319 1044 
Q 319 1188 412 1278 
Q 506 1369 647 1369 
Q 788 1369 883 1276 
Q 978 1184 978 1044 
Q 978 906 883 811 
Q 788 716 647 716 
Q 625 716 597 720 
Q 569 725 556 728 
z
" transform="scale(0.015625)"/>
      <path id="Cmr10-30" d="M 1600 -141 
Q 816 -141 533 504 
Q 250 1150 250 2041 
Q 250 2597 351 3087 
Q 453 3578 754 3920 
Q 1056 4263 1600 4263 
Q 2022 4263 2290 4056 
Q 2559 3850 2700 3523 
Q 2841 3197 2892 2823 
Q 2944 2450 2944 2041 
Q 2944 1491 2842 1011 
Q 2741 531 2444 195 
Q 2147 -141 1600 -141 
z
M 1600 25 
Q 1956 25 2131 390 
Q 2306 756 2347 1200 
Q 2388 1644 2388 2144 
Q 2388 2625 2347 3031 
Q 2306 3438 2132 3767 
Q 1959 4097 1600 4097 
Q 1238 4097 1063 3765 
Q 888 3434 847 3029 
Q 806 2625 806 2144 
Q 806 1788 823 1472 
Q 841 1156 916 820 
Q 991 484 1158 254 
Q 1325 25 1600 25 
z
" transform="scale(0.015625)"/>
      <path id="Cmex10-ae" d="M 500 -7297 
Q 500 -7263 513 -7250 
L 2119 -3584 
L 513 84 
Q 500 97 500 128 
Q 500 175 537 215 
Q 575 256 628 256 
Q 703 256 750 178 
L 2381 -3541 
Q 2388 -3553 2388 -3584 
Q 2388 -3616 2381 -3634 
L 750 -7347 
Q 700 -7425 628 -7425 
Q 575 -7425 537 -7384 
Q 500 -7344 500 -7297 
z
" transform="scale(0.015625)"/>
      <path id="STIXGeneral-Regular-2c" d="M 531 -902 
L 467 -781 
Q 998 -422 998 -96 
Q 998 -13 909 -13 
Q 883 -13 822 -25 
Q 762 -38 723 -38 
Q 352 -38 352 288 
Q 352 454 457 553 
Q 563 653 736 653 
Q 954 653 1101 496 
Q 1248 339 1248 96 
Q 1248 -198 1053 -473 
Q 858 -749 531 -902 
z
" transform="scale(0.015625)"/>
      <path id="Cmmi10-b0" d="M 1888 -1253 
Q 1888 -1109 1952 -834 
Q 2016 -559 2108 -248 
Q 2200 63 2266 263 
Q 2291 581 2291 744 
Q 2291 1156 2209 1511 
Q 2128 1866 1903 2105 
Q 1678 2344 1275 2344 
Q 1063 2344 852 2253 
Q 641 2163 489 2000 
Q 338 1838 281 1631 
Q 269 1594 231 1594 
L 153 1594 
Q 103 1594 103 1650 
L 103 1672 
Q 175 1959 358 2226 
Q 541 2494 805 2661 
Q 1069 2828 1363 2828 
Q 1663 2828 1881 2625 
Q 2100 2422 2231 2109 
Q 2363 1797 2420 1478 
Q 2478 1159 2478 878 
Q 2800 1753 3200 2534 
L 3297 2741 
Q 3316 2759 3341 2759 
L 3419 2759 
Q 3469 2759 3469 2700 
Q 3469 2688 3456 2663 
L 3359 2463 
Q 3081 1909 2848 1340 
Q 2616 772 2450 244 
Q 2425 28 2354 -347 
Q 2284 -722 2184 -1045 
Q 2084 -1369 1984 -1381 
Q 1888 -1381 1888 -1253 
z
" transform="scale(0.015625)"/>
      <path id="Cmr10-31" d="M 594 0 
L 594 225 
Q 1394 225 1394 428 
L 1394 3788 
Q 1063 3628 556 3628 
L 556 3853 
Q 1341 3853 1741 4263 
L 1831 4263 
Q 1853 4263 1873 4245 
Q 1894 4228 1894 4206 
L 1894 428 
Q 1894 225 2694 225 
L 2694 0 
L 594 0 
z
" transform="scale(0.015625)"/>
      <path id="STIXGeneral-Regular-29" d="M 186 4224 
L 262 4326 
Q 992 3891 1408 3148 
Q 1824 2406 1824 1581 
Q 1824 -166 243 -1133 
L 186 -1030 
Q 845 -486 1059 54 
Q 1274 595 1274 1562 
Q 1274 2534 1059 3120 
Q 845 3706 186 4224 
z
" transform="scale(0.015625)"/>
     </defs>
     <use xlink:href="#STIXGeneral-Regular-56" transform="translate(0 0.15625)"/>
     <use xlink:href="#STIXGeneral-Regular-61" transform="translate(72.199982 0.15625)"/>
     <use xlink:href="#STIXGeneral-Regular-72" transform="translate(116.599976 0.15625)"/>
     <use xlink:href="#STIXGeneral-Regular-69" transform="translate(149.899963 0.15625)"/>
     <use xlink:href="#STIXGeneral-Regular-61" transform="translate(177.699951 0.15625)"/>
     <use xlink:href="#STIXGeneral-Regular-6e" transform="translate(222.099945 0.15625)"/>
     <use xlink:href="#STIXGeneral-Regular-63" transform="translate(272.09993 0.15625)"/>
     <use xlink:href="#STIXGeneral-Regular-65" transform="translate(316.499924 0.15625)"/>
     <use xlink:href="#STIXGeneral-Regular-20" transform="translate(360.899918 0.15625)"/>
     <use xlink:href="#STIXGeneral-Regular-44" transform="translate(385.899902 0.15625)"/>
     <use xlink:href="#STIXGeneral-Regular-69" transform="translate(458.099884 0.15625)"/>
     <use xlink:href="#STIXGeneral-Regular-66" transform="translate(485.899872 0.15625)"/>
     <use xlink:href="#STIXGeneral-Regular-66" transform="translate(519.19986 0.15625)"/>
     <use xlink:href="#STIXGeneral-Regular-65" transform="translate(552.499847 0.15625)"/>
     <use xlink:href="#STIXGeneral-Regular-72" transform="translate(596.899841 0.15625)"/>
     <use xlink:href="#STIXGeneral-Regular-65" transform="translate(630.199829 0.15625)"/>
     <use xlink:href="#STIXGeneral-Regular-6e" transform="translate(674.599823 0.15625)"/>
     <use xlink:href="#STIXGeneral-Regular-63" transform="translate(724.599808 0.15625)"/>
     <use xlink:href="#STIXGeneral-Regular-65" transform="translate(768.999802 0.15625)"/>
     <use xlink:href="#STIXGeneral-Regular-20" transform="translate(813.399796 0.15625)"/>
     <use xlink:href="#STIXGeneral-Regular-76" transform="translate(838.39978 0.15625)"/>
     <use xlink:href="#STIXGeneral-Regular-73" transform="translate(888.399765 0.15625)"/>
     <use xlink:href="#STIXGeneral-Regular-20" transform="translate(927.299759 0.15625)"/>
     <use xlink:href="#STIXGeneral-Regular-54" transform="translate(952.299744 0.15625)"/>
     <use xlink:href="#STIXGeneral-Regular-69" transform="translate(1013.399734 0.15625)"/>
     <use xlink:href="#STIXGeneral-Regular-6d" transform="translate(1041.199722 0.15625)"/>
     <use xlink:href="#STIXGeneral-Regular-65" transform="translate(1118.99971 0.15625)"/>
     <use xlink:href="#STIXGeneral-Regular-20" transform="translate(1163.399704 0.15625)"/>
     <use xlink:href="#STIXGeneral-Regular-28" transform="translate(1188.399689 0.15625)"/>
     <use xlink:href="#Cmsy10-6a" transform="translate(1221.699677 0.15625)"/>
     <use xlink:href="#Cmmi10-ae" transform="translate(1249.385223 0.15625)"/>
     <use xlink:href="#Cmr10-3d" transform="translate(1330.859833 0.15625)"/>
     <use xlink:href="#Cmex10-70" transform="translate(1426.103973 94.65625) scale(0.833746)"/>
     <use xlink:href="#Cmr10-35" transform="translate(1521.963348 0.140625)"/>
     <use xlink:href="#Cmr10-30" transform="translate(1571.963348 0.140625)"/>
     <use xlink:href="#Cmex10-ae" transform="translate(1634.463348 93.497396)"/>
     <use xlink:href="#STIXGeneral-Regular-2c" transform="translate(1681.680145 0.15625)"/>
     <use xlink:href="#STIXGeneral-Regular-20" transform="translate(1706.68013 0.15625)"/>
     <use xlink:href="#Cmmi10-b0" transform="translate(1731.680115 0.15625)"/>
     <use xlink:href="#Cmr10-3d" transform="translate(1800.947693 0.15625)"/>
     <use xlink:href="#Cmr10-31" transform="translate(1896.191833 0.15625)"/>
     <use xlink:href="#STIXGeneral-Regular-29" transform="translate(1946.191833 0.15625)"/>
     <path d="M 1509.463348 91.5 
L 1509.463348 97.75 
L 1634.463348 97.75 
L 1634.463348 91.5 
L 1509.463348 91.5 
z
"/>
    </g>
   </g>
   <g id="line2d_118">
    <path d="M 66.002727 301.424 
L 68.894182 282.495257 
L 71.861727 264.499023 
L 74.829273 247.843867 
L 77.796818 232.429514 
L 80.764364 218.163202 
L 83.731909 204.959115 
L 86.699455 192.737864 
L 89.743091 181.146918 
L 92.786727 170.438878 
L 95.830364 160.546796 
L 98.874 151.408197 
L 101.917636 142.965412 
L 104.961273 135.165226 
L 108.004909 127.958503 
L 111.124636 121.140007 
L 114.244364 114.852262 
L 117.364091 109.053707 
L 120.559909 103.580981 
L 123.755727 98.543547 
L 127.027636 93.800799 
L 130.299545 89.44347 
L 133.647545 85.350899 
L 137.071636 81.516321 
L 140.571818 77.932064 
L 144.148091 74.589735 
L 147.800455 71.480284 
L 151.528909 68.594174 
L 155.409545 65.870659 
L 159.442364 63.314308 
L 163.627364 60.927363 
L 167.964545 58.709936 
L 172.53 56.627491 
L 177.323727 54.687744 
L 182.345727 52.895149 
L 187.672091 51.22894 
L 193.378909 49.677529 
L 199.542273 48.236324 
L 206.162182 46.919607 
L 213.390818 45.712243 
L 221.304273 44.619484 
L 230.054727 43.638424 
L 239.946545 42.758762 
L 251.208 41.98736 
L 264.219545 41.324887 
L 279.742091 40.764751 
L 298.840909 40.307722 
L 323.646545 39.949785 
L 358.115727 39.690712 
L 413.053364 39.525567 
L 446.457273 39.483892 
L 446.457273 39.483892 
" clip-path="url(#p6ddb71dc03)" style="fill: none; stroke: #1f77b4; stroke-width: 2.6; stroke-linecap: square"/>
   </g>
   <g id="legend_1">
    <g id="line2d_119">
     <path d="M 357.865625 267.205656 
L 368.865625 267.205656 
L 379.865625 267.205656 
" style="fill: none; stroke: #1f77b4; stroke-width: 2.6; stroke-linecap: square"/>
    </g>
    <g id="text_16">
     <!-- Density Matrix -->
     <g transform="translate(388.665625 271.055656) scale(0.11 -0.11)">
      <defs>
       <path id="STIXGeneral-Regular-79" d="M 3040 2880 
L 3040 2784 
Q 2925 2771 2854 2700 
Q 2784 2630 2720 2458 
L 1760 -160 
Q 1510 -838 1257 -1116 
Q 1005 -1395 640 -1395 
Q 435 -1395 313 -1289 
Q 192 -1184 192 -1024 
Q 192 -902 272 -816 
Q 352 -730 467 -730 
Q 653 -730 800 -813 
Q 883 -858 966 -858 
Q 1101 -858 1286 -576 
Q 1376 -448 1459 -211 
Q 1542 26 1542 115 
Q 1542 198 1274 762 
L 429 2566 
Q 346 2752 90 2790 
L 90 2880 
L 1402 2880 
L 1402 2784 
Q 1197 2778 1117 2739 
Q 1037 2701 1037 2611 
Q 1037 2541 1120 2349 
L 1837 749 
L 2458 2515 
Q 2483 2573 2483 2630 
Q 2483 2784 2189 2784 
L 2189 2880 
L 3040 2880 
z
" transform="scale(0.015625)"/>
       <path id="STIXGeneral-Regular-4d" d="M 5530 0 
L 3738 0 
L 3738 122 
Q 4115 147 4214 265 
Q 4314 384 4314 787 
L 4314 3661 
L 2682 0 
L 2592 0 
L 979 3514 
L 979 966 
Q 979 448 1088 294 
Q 1197 141 1574 122 
L 1574 0 
L 77 0 
L 77 122 
Q 358 141 480 205 
Q 602 269 650 432 
Q 698 595 698 966 
L 698 3514 
Q 698 3878 589 3984 
Q 480 4090 90 4115 
L 90 4237 
L 1357 4237 
L 2835 1024 
L 4250 4237 
L 5523 4237 
L 5523 4115 
Q 5178 4109 5072 3993 
Q 4966 3878 4966 3520 
L 4966 717 
Q 4966 378 5072 262 
Q 5178 147 5530 122 
L 5530 0 
z
" transform="scale(0.015625)"/>
      </defs>
      <use xlink:href="#STIXGeneral-Regular-44"/>
      <use xlink:href="#STIXGeneral-Regular-65" transform="translate(72.199982 0)"/>
      <use xlink:href="#STIXGeneral-Regular-6e" transform="translate(116.599976 0)"/>
      <use xlink:href="#STIXGeneral-Regular-73" transform="translate(166.59996 0)"/>
      <use xlink:href="#STIXGeneral-Regular-69" transform="translate(205.499954 0)"/>
      <use xlink:href="#STIXGeneral-Regular-74" transform="translate(233.299942 0)"/>
      <use xlink:href="#STIXGeneral-Regular-79" transform="translate(261.09993 0)"/>
      <use xlink:href="#STIXGeneral-Regular-20" transform="translate(311.099915 0)"/>
      <use xlink:href="#STIXGeneral-Regular-4d" transform="translate(336.099899 0)"/>
      <use xlink:href="#STIXGeneral-Regular-61" transform="translate(424.999893 0)"/>
      <use xlink:href="#STIXGeneral-Regular-74" transform="translate(469.399887 0)"/>
      <use xlink:href="#STIXGeneral-Regular-72" transform="translate(497.199875 0)"/>
      <use xlink:href="#STIXGeneral-Regular-69" transform="translate(530.499863 0)"/>
      <use xlink:href="#STIXGeneral-Regular-78" transform="translate(558.29985 0)"/>
     </g>
    </g>
    <g id="line2d_120">
     <path d="M 357.865625 282.803312 
L 368.865625 282.803312 
L 379.865625 282.803312 
" style="fill: none; stroke: #ff7f0e; stroke-width: 2.5; stroke-linecap: square"/>
    </g>
    <g id="text_17">
     <!-- Monte Carlo -->
     <g transform="translate(388.665625 286.653312) scale(0.11 -0.11)">
      <defs>
       <path id="STIXGeneral-Regular-43" d="M 3930 838 
L 4051 723 
Q 3482 -90 2304 -90 
Q 1376 -90 794 480 
Q 179 1082 179 2080 
Q 179 3014 755 3661 
Q 1357 4326 2310 4326 
Q 2720 4326 3072 4230 
Q 3475 4115 3514 4115 
Q 3725 4115 3782 4326 
L 3910 4326 
L 3968 2874 
L 3821 2874 
Q 3718 3334 3488 3584 
Q 3034 4070 2458 4070 
Q 1747 4070 1334 3548 
Q 922 3027 922 2182 
Q 922 1152 1382 653 
Q 1811 192 2522 192 
Q 2944 192 3251 339 
Q 3558 486 3930 838 
z
" transform="scale(0.015625)"/>
       <path id="STIXGeneral-Regular-6c" d="M 1645 0 
L 134 0 
L 134 96 
Q 435 122 531 221 
Q 627 320 627 589 
L 627 3590 
Q 627 3821 569 3910 
Q 512 4000 358 4000 
Q 224 4000 122 3987 
L 122 4090 
Q 730 4237 1133 4371 
L 1165 4346 
L 1165 557 
Q 1165 288 1254 201 
Q 1344 115 1645 96 
L 1645 0 
z
" transform="scale(0.015625)"/>
      </defs>
      <use xlink:href="#STIXGeneral-Regular-4d"/>
      <use xlink:href="#STIXGeneral-Regular-6f" transform="translate(88.899994 0)"/>
      <use xlink:href="#STIXGeneral-Regular-6e" transform="translate(138.899979 0)"/>
      <use xlink:href="#STIXGeneral-Regular-74" transform="translate(188.899963 0)"/>
      <use xlink:href="#STIXGeneral-Regular-65" transform="translate(216.699951 0)"/>
      <use xlink:href="#STIXGeneral-Regular-20" transform="translate(261.099945 0)"/>
      <use xlink:href="#STIXGeneral-Regular-43" transform="translate(286.09993 0)"/>
      <use xlink:href="#STIXGeneral-Regular-61" transform="translate(352.799927 0)"/>
      <use xlink:href="#STIXGeneral-Regular-72" transform="translate(397.199921 0)"/>
      <use xlink:href="#STIXGeneral-Regular-6c" transform="translate(430.499908 0)"/>
      <use xlink:href="#STIXGeneral-Regular-6f" transform="translate(458.299896 0)"/>
     </g>
    </g>
    <g id="line2d_121">
     <path d="M 357.865625 298.390656 
L 368.865625 298.390656 
L 379.865625 298.390656 
" style="fill: none; stroke: #2ca02c; stroke-width: 2.7; stroke-linecap: square"/>
    </g>
    <g id="text_18">
     <!-- Positive-P -->
     <g transform="translate(388.665625 302.240656) scale(0.11 -0.11)">
      <defs>
       <path id="STIXGeneral-Regular-50" d="M 102 4237 
L 1760 4237 
Q 2669 4237 3149 3834 
Q 3469 3565 3469 3072 
Q 3469 2560 3104 2234 
Q 2835 1990 2553 1916 
Q 2272 1843 1734 1843 
Q 1549 1843 1293 1862 
L 1293 717 
Q 1293 352 1398 246 
Q 1504 141 1894 122 
L 1894 0 
L 102 0 
L 102 122 
Q 474 147 557 256 
Q 640 365 640 781 
L 640 3526 
Q 640 3885 547 3987 
Q 454 4090 102 4115 
L 102 4237 
z
M 1293 3770 
L 1293 2118 
Q 1510 2099 1683 2099 
Q 2202 2099 2486 2352 
Q 2771 2605 2771 3040 
Q 2771 3558 2476 3779 
Q 2182 4000 1517 4000 
Q 1382 4000 1337 3952 
Q 1293 3904 1293 3770 
z
" transform="scale(0.015625)"/>
       <path id="STIXGeneral-Regular-2d" d="M 1824 1242 
L 250 1242 
L 250 1645 
L 1824 1645 
L 1824 1242 
z
" transform="scale(0.015625)"/>
      </defs>
      <use xlink:href="#STIXGeneral-Regular-50"/>
      <use xlink:href="#STIXGeneral-Regular-6f" transform="translate(55.699997 0)"/>
      <use xlink:href="#STIXGeneral-Regular-73" transform="translate(105.699982 0)"/>
      <use xlink:href="#STIXGeneral-Regular-69" transform="translate(144.599976 0)"/>
      <use xlink:href="#STIXGeneral-Regular-74" transform="translate(172.399963 0)"/>
      <use xlink:href="#STIXGeneral-Regular-69" transform="translate(200.199951 0)"/>
      <use xlink:href="#STIXGeneral-Regular-76" transform="translate(227.999939 0)"/>
      <use xlink:href="#STIXGeneral-Regular-65" transform="translate(277.999924 0)"/>
      <use xlink:href="#STIXGeneral-Regular-2d" transform="translate(322.399918 0)"/>
      <use xlink:href="#STIXGeneral-Regular-50" transform="translate(355.699905 0)"/>
     </g>
    </g>
   </g>
  </g>
 </g>
 <defs>
  <clipPath id="p6ddb71dc03">
   <rect x="46.98" y="26.24" width="418.5" height="288.288"/>
  </clipPath>
 </defs>
</svg>
