<?xml version="1.0" encoding="utf-8" standalone="no"?>
<!DOCTYPE svg PUBLIC "-//W3C//DTD SVG 1.1//EN"
  "http://www.w3.org/Graphics/SVG/1.1/DTD/svg11.dtd">
<svg xmlns:xlink="http://www.w3.org/1999/xlink" width="482.79pt" height="360.223625pt" viewBox="0 0 482.79 360.223625" xmlns="http://www.w3.org/2000/svg" version="1.1">
 <metadata>
  <rdf:RDF xmlns:dc="http://purl.org/dc/elements/1.1/" xmlns:cc="http://creativecommons.org/ns#" xmlns:rdf="http://www.w3.org/1999/02/22-rdf-syntax-ns#">
   <cc:Work>
    <dc:type rdf:resource="http://purl.org/dc/dcmitype/StillImage"/>
    <dc:date>2026-04-18T18:50:18.471506</dc:date>
    <dc:format>image/svg+xml</dc:format>
    <dc:creator>
     <cc:Agent>
      <dc:title>Matplotlib v3.10.8, https://matplotlib.org/</dc:title>
     </cc:Agent>
    </dc:creator>
   </cc:Work>
  </rdf:RDF>
 </metadata>
 <defs>
  <style type="text/css">*{stroke-linejoin: round; stroke-linecap: butt}</style>
 </defs>
 <g id="figure_1">
  <g id="patch_1">
   <path d="M 0 360.223625 
L 482.79 360.223625 
L 482.79 0 
L 0 0 
z
" style="fill: #ffffff"/>
  </g>
  <g id="axes_1">
   <g id="patch_2">
    <path d="M 52.98 325.723625 
L 471.48 325.723625 
L 471.48 37.435625 
L 52.98 37.435625 
z
" style="fill: #ffffff"/>
   </g>
   <g id="matplotlib.axis_1">
    <g id="xtick_1">
     <g id="line2d_1">
      <path d="M 72.002727 325.723625 
L 72.002727 37.435625 
" clip-path="url(#p327d0e8929)" style="fill: none; stroke: #b0b0b0; stroke-opacity: 0.35; stroke-width: 0.5; stroke-linecap: square"/>
     </g>
     <g id="line2d_2">
      <defs>
       <path id="m6ba2c0f635" d="M 0 0 
L 0 -3 
" style="stroke: #000000; stroke-width: 0.5"/>
      </defs>
      <g>
       <use xlink:href="#m6ba2c0f635" x="72.002727" y="325.723625" style="stroke: #000000; stroke-width: 0.5"/>
      </g>
     </g>
     <g id="line2d_3">
      <defs>
       <path id="mcc72661781" d="M 0 0 
L 0 3 
" style="stroke: #000000; stroke-width: 0.5"/>
      </defs>
      <g>
       <use xlink:href="#mcc72661781" x="72.002727" y="37.435625" style="stroke: #000000; stroke-width: 0.5"/>
      </g>
     </g>
     <g id="text_1">
      <!-- $\mathdefault{0}$ -->
      <g transform="translate(69.002727 337.41925) scale(0.12 -0.12)">
       <defs>
        <path id="STIXGeneral-Regular-30" d="M 3046 2112 
Q 3046 1683 2963 1302 
Q 2880 922 2717 602 
Q 2554 282 2266 96 
Q 1978 -90 1600 -90 
Q 1210 -90 915 108 
Q 621 307 461 640 
Q 301 973 227 1350 
Q 154 1728 154 2150 
Q 154 2746 301 3222 
Q 448 3699 790 4012 
Q 1133 4326 1626 4326 
Q 2253 4326 2649 3712 
Q 3046 3098 3046 2112 
z
M 2432 2080 
Q 2432 3091 2217 3625 
Q 2003 4160 1587 4160 
Q 1190 4160 979 3622 
Q 768 3085 768 2106 
Q 768 1120 979 598 
Q 1190 77 1600 77 
Q 2003 77 2217 598 
Q 2432 1120 2432 2080 
z
" transform="scale(0.015625)"/>
       </defs>
       <use xlink:href="#STIXGeneral-Regular-30" transform="translate(0 0.40625)"/>
      </g>
     </g>
    </g>
    <g id="xtick_2">
     <g id="line2d_4">
      <path d="M 148.093636 325.723625 
L 148.093636 37.435625 
" clip-path="url(#p327d0e8929)" style="fill: none; stroke: #b0b0b0; stroke-opacity: 0.35; stroke-width: 0.5; stroke-linecap: square"/>
     </g>
     <g id="line2d_5">
      <g>
       <use xlink:href="#m6ba2c0f635" x="148.093636" y="325.723625" style="stroke: #000000; stroke-width: 0.5"/>
      </g>
     </g>
     <g id="line2d_6">
      <g>
       <use xlink:href="#mcc72661781" x="148.093636" y="37.435625" style="stroke: #000000; stroke-width: 0.5"/>
      </g>
     </g>
     <g id="text_2">
      <!-- $\mathdefault{1}$ -->
      <g transform="translate(145.093636 337.41925) scale(0.12 -0.12)">
       <defs>
        <path id="STIXGeneral-Regular-31" d="M 2522 0 
L 755 0 
L 755 96 
Q 1107 115 1235 227 
Q 1363 339 1363 608 
L 1363 3482 
Q 1363 3795 1171 3795 
Q 1082 3795 883 3718 
L 710 3654 
L 710 3744 
L 1856 4326 
L 1914 4307 
L 1914 486 
Q 1914 275 2042 185 
Q 2170 96 2522 96 
L 2522 0 
z
" transform="scale(0.015625)"/>
       </defs>
       <use xlink:href="#STIXGeneral-Regular-31" transform="translate(0 0.40625)"/>
      </g>
     </g>
    </g>
    <g id="xtick_3">
     <g id="line2d_7">
      <path d="M 224.184545 325.723625 
L 224.184545 37.435625 
" clip-path="url(#p327d0e8929)" style="fill: none; stroke: #b0b0b0; stroke-opacity: 0.35; stroke-width: 0.5; stroke-linecap: square"/>
     </g>
     <g id="line2d_8">
      <g>
       <use xlink:href="#m6ba2c0f635" x="224.184545" y="325.723625" style="stroke: #000000; stroke-width: 0.5"/>
      </g>
     </g>
     <g id="line2d_9">
      <g>
       <use xlink:href="#mcc72661781" x="224.184545" y="37.435625" style="stroke: #000000; stroke-width: 0.5"/>
      </g>
     </g>
     <g id="text_3">
      <!-- $\mathdefault{2}$ -->
      <g transform="translate(221.184545 337.41925) scale(0.12 -0.12)">
       <defs>
        <path id="STIXGeneral-Regular-32" d="M 3034 877 
L 2688 0 
L 186 0 
L 186 77 
L 1325 1286 
Q 1773 1754 1965 2144 
Q 2157 2534 2157 2950 
Q 2157 3379 1920 3616 
Q 1683 3853 1267 3853 
Q 922 3853 720 3673 
Q 518 3494 326 3021 
L 192 3053 
Q 301 3648 630 3987 
Q 960 4326 1523 4326 
Q 2054 4326 2380 4006 
Q 2707 3686 2707 3200 
Q 2707 2477 1888 1613 
L 832 486 
L 2330 486 
Q 2541 486 2665 569 
Q 2790 653 2944 915 
L 3034 877 
z
" transform="scale(0.015625)"/>
       </defs>
       <use xlink:href="#STIXGeneral-Regular-32" transform="translate(0 0.40625)"/>
      </g>
     </g>
    </g>
    <g id="xtick_4">
     <g id="line2d_10">
      <path d="M 300.275455 325.723625 
L 300.275455 37.435625 
" clip-path="url(#p327d0e8929)" style="fill: none; stroke: #b0b0b0; stroke-opacity: 0.35; stroke-width: 0.5; stroke-linecap: square"/>
     </g>
     <g id="line2d_11">
      <g>
       <use xlink:href="#m6ba2c0f635" x="300.275455" y="325.723625" style="stroke: #000000; stroke-width: 0.5"/>
      </g>
     </g>
     <g id="line2d_12">
      <g>
       <use xlink:href="#mcc72661781" x="300.275455" y="37.435625" style="stroke: #000000; stroke-width: 0.5"/>
      </g>
     </g>
     <g id="text_4">
      <!-- $\mathdefault{3}$ -->
      <g transform="translate(297.275455 337.41925) scale(0.12 -0.12)">
       <defs>
        <path id="STIXGeneral-Regular-33" d="M 390 3264 
L 288 3290 
Q 435 3770 748 4048 
Q 1062 4326 1542 4326 
Q 1990 4326 2265 4083 
Q 2541 3840 2541 3450 
Q 2541 2925 1946 2566 
Q 2298 2413 2477 2227 
Q 2758 1914 2758 1402 
Q 2758 890 2464 506 
Q 2246 211 1840 60 
Q 1434 -90 979 -90 
Q 262 -90 262 275 
Q 262 378 339 442 
Q 416 506 525 506 
Q 685 506 915 339 
Q 1197 141 1466 141 
Q 1818 141 2058 425 
Q 2298 710 2298 1120 
Q 2298 1856 1632 2048 
Q 1434 2112 979 2112 
L 979 2202 
Q 1338 2323 1517 2432 
Q 2035 2726 2035 3290 
Q 2035 3610 1852 3776 
Q 1670 3942 1344 3942 
Q 768 3942 390 3264 
z
" transform="scale(0.015625)"/>
       </defs>
       <use xlink:href="#STIXGeneral-Regular-33" transform="translate(0 0.40625)"/>
      </g>
     </g>
    </g>
    <g id="xtick_5">
     <g id="line2d_13">
      <path d="M 376.366364 325.723625 
L 376.366364 37.435625 
" clip-path="url(#p327d0e8929)" style="fill: none; stroke: #b0b0b0; stroke-opacity: 0.35; stroke-width: 0.5; stroke-linecap: square"/>
     </g>
     <g id="line2d_14">
      <g>
       <use xlink:href="#m6ba2c0f635" x="376.366364" y="325.723625" style="stroke: #000000; stroke-width: 0.5"/>
      </g>
     </g>
     <g id="line2d_15">
      <g>
       <use xlink:href="#mcc72661781" x="376.366364" y="37.435625" style="stroke: #000000; stroke-width: 0.5"/>
      </g>
     </g>
     <g id="text_5">
      <!-- $\mathdefault{4}$ -->
      <g transform="translate(373.366364 337.41925) scale(0.12 -0.12)">
       <defs>
        <path id="STIXGeneral-Regular-34" d="M 3027 1069 
L 2368 1069 
L 2368 0 
L 1869 0 
L 1869 1069 
L 77 1069 
L 77 1478 
L 2086 4326 
L 2368 4326 
L 2368 1478 
L 3027 1478 
L 3027 1069 
z
M 1869 1478 
L 1869 3674 
L 333 1478 
L 1869 1478 
z
" transform="scale(0.015625)"/>
       </defs>
       <use xlink:href="#STIXGeneral-Regular-34" transform="translate(0 0.40625)"/>
      </g>
     </g>
    </g>
    <g id="xtick_6">
     <g id="line2d_16">
      <path d="M 452.457273 325.723625 
L 452.457273 37.435625 
" clip-path="url(#p327d0e8929)" style="fill: none; stroke: #b0b0b0; stroke-opacity: 0.35; stroke-width: 0.5; stroke-linecap: square"/>
     </g>
     <g id="line2d_17">
      <g>
       <use xlink:href="#m6ba2c0f635" x="452.457273" y="325.723625" style="stroke: #000000; stroke-width: 0.5"/>
      </g>
     </g>
     <g id="line2d_18">
      <g>
       <use xlink:href="#mcc72661781" x="452.457273" y="37.435625" style="stroke: #000000; stroke-width: 0.5"/>
      </g>
     </g>
     <g id="text_6">
      <!-- $\mathdefault{5}$ -->
      <g transform="translate(449.457273 337.41925) scale(0.12 -0.12)">
       <defs>
        <path id="STIXGeneral-Regular-35" d="M 2803 4358 
L 2573 3814 
Q 2534 3731 2400 3731 
L 1158 3731 
L 902 3187 
Q 1606 3053 1920 2896 
Q 2234 2739 2502 2368 
Q 2726 2061 2726 1555 
Q 2726 1094 2576 780 
Q 2426 467 2099 224 
Q 1664 -90 1011 -90 
Q 646 -90 422 19 
Q 198 128 198 307 
Q 198 550 486 550 
Q 717 550 960 352 
Q 1210 147 1414 147 
Q 1747 147 2012 480 
Q 2278 813 2278 1229 
Q 2278 1843 1850 2189 
Q 1293 2637 486 2637 
Q 410 2637 410 2688 
L 416 2720 
L 1114 4237 
L 2438 4237 
Q 2547 4237 2608 4269 
Q 2669 4301 2746 4403 
L 2803 4358 
z
" transform="scale(0.015625)"/>
       </defs>
       <use xlink:href="#STIXGeneral-Regular-35" transform="translate(0 0.203125)"/>
      </g>
     </g>
    </g>
    <g id="xtick_7">
     <g id="line2d_19">
      <defs>
       <path id="m8e4f940659" d="M 0 0 
L 0 -1.5 
" style="stroke: #000000; stroke-width: 0.5"/>
      </defs>
      <g>
       <use xlink:href="#m8e4f940659" x="56.784545" y="325.723625" style="stroke: #000000; stroke-width: 0.5"/>
      </g>
     </g>
     <g id="line2d_20">
      <defs>
       <path id="m8e8c340232" d="M 0 0 
L 0 1.5 
" style="stroke: #000000; stroke-width: 0.5"/>
      </defs>
      <g>
       <use xlink:href="#m8e8c340232" x="56.784545" y="37.435625" style="stroke: #000000; stroke-width: 0.5"/>
      </g>
     </g>
    </g>
    <g id="xtick_8">
     <g id="line2d_21">
      <g>
       <use xlink:href="#m8e4f940659" x="87.220909" y="325.723625" style="stroke: #000000; stroke-width: 0.5"/>
      </g>
     </g>
     <g id="line2d_22">
      <g>
       <use xlink:href="#m8e8c340232" x="87.220909" y="37.435625" style="stroke: #000000; stroke-width: 0.5"/>
      </g>
     </g>
    </g>
    <g id="xtick_9">
     <g id="line2d_23">
      <g>
       <use xlink:href="#m8e4f940659" x="102.439091" y="325.723625" style="stroke: #000000; stroke-width: 0.5"/>
      </g>
     </g>
     <g id="line2d_24">
      <g>
       <use xlink:href="#m8e8c340232" x="102.439091" y="37.435625" style="stroke: #000000; stroke-width: 0.5"/>
      </g>
     </g>
    </g>
    <g id="xtick_10">
     <g id="line2d_25">
      <g>
       <use xlink:href="#m8e4f940659" x="117.657273" y="325.723625" style="stroke: #000000; stroke-width: 0.5"/>
      </g>
     </g>
     <g id="line2d_26">
      <g>
       <use xlink:href="#m8e8c340232" x="117.657273" y="37.435625" style="stroke: #000000; stroke-width: 0.5"/>
      </g>
     </g>
    </g>
    <g id="xtick_11">
     <g id="line2d_27">
      <g>
       <use xlink:href="#m8e4f940659" x="132.875455" y="325.723625" style="stroke: #000000; stroke-width: 0.5"/>
      </g>
     </g>
     <g id="line2d_28">
      <g>
       <use xlink:href="#m8e8c340232" x="132.875455" y="37.435625" style="stroke: #000000; stroke-width: 0.5"/>
      </g>
     </g>
    </g>
    <g id="xtick_12">
     <g id="line2d_29">
      <g>
       <use xlink:href="#m8e4f940659" x="163.311818" y="325.723625" style="stroke: #000000; stroke-width: 0.5"/>
      </g>
     </g>
     <g id="line2d_30">
      <g>
       <use xlink:href="#m8e8c340232" x="163.311818" y="37.435625" style="stroke: #000000; stroke-width: 0.5"/>
      </g>
     </g>
    </g>
    <g id="xtick_13">
     <g id="line2d_31">
      <g>
       <use xlink:href="#m8e4f940659" x="178.53" y="325.723625" style="stroke: #000000; stroke-width: 0.5"/>
      </g>
     </g>
     <g id="line2d_32">
      <g>
       <use xlink:href="#m8e8c340232" x="178.53" y="37.435625" style="stroke: #000000; stroke-width: 0.5"/>
      </g>
     </g>
    </g>
    <g id="xtick_14">
     <g id="line2d_33">
      <g>
       <use xlink:href="#m8e4f940659" x="193.748182" y="325.723625" style="stroke: #000000; stroke-width: 0.5"/>
      </g>
     </g>
     <g id="line2d_34">
      <g>
       <use xlink:href="#m8e8c340232" x="193.748182" y="37.435625" style="stroke: #000000; stroke-width: 0.5"/>
      </g>
     </g>
    </g>
    <g id="xtick_15">
     <g id="line2d_35">
      <g>
       <use xlink:href="#m8e4f940659" x="208.966364" y="325.723625" style="stroke: #000000; stroke-width: 0.5"/>
      </g>
     </g>
     <g id="line2d_36">
      <g>
       <use xlink:href="#m8e8c340232" x="208.966364" y="37.435625" style="stroke: #000000; stroke-width: 0.5"/>
      </g>
     </g>
    </g>
    <g id="xtick_16">
     <g id="line2d_37">
      <g>
       <use xlink:href="#m8e4f940659" x="239.402727" y="325.723625" style="stroke: #000000; stroke-width: 0.5"/>
      </g>
     </g>
     <g id="line2d_38">
      <g>
       <use xlink:href="#m8e8c340232" x="239.402727" y="37.435625" style="stroke: #000000; stroke-width: 0.5"/>
      </g>
     </g>
    </g>
    <g id="xtick_17">
     <g id="line2d_39">
      <g>
       <use xlink:href="#m8e4f940659" x="254.620909" y="325.723625" style="stroke: #000000; stroke-width: 0.5"/>
      </g>
     </g>
     <g id="line2d_40">
      <g>
       <use xlink:href="#m8e8c340232" x="254.620909" y="37.435625" style="stroke: #000000; stroke-width: 0.5"/>
      </g>
     </g>
    </g>
    <g id="xtick_18">
     <g id="line2d_41">
      <g>
       <use xlink:href="#m8e4f940659" x="269.839091" y="325.723625" style="stroke: #000000; stroke-width: 0.5"/>
      </g>
     </g>
     <g id="line2d_42">
      <g>
       <use xlink:href="#m8e8c340232" x="269.839091" y="37.435625" style="stroke: #000000; stroke-width: 0.5"/>
      </g>
     </g>
    </g>
    <g id="xtick_19">
     <g id="line2d_43">
      <g>
       <use xlink:href="#m8e4f940659" x="285.057273" y="325.723625" style="stroke: #000000; stroke-width: 0.5"/>
      </g>
     </g>
     <g id="line2d_44">
      <g>
       <use xlink:href="#m8e8c340232" x="285.057273" y="37.435625" style="stroke: #000000; stroke-width: 0.5"/>
      </g>
     </g>
    </g>
    <g id="xtick_20">
     <g id="line2d_45">
      <g>
       <use xlink:href="#m8e4f940659" x="315.493636" y="325.723625" style="stroke: #000000; stroke-width: 0.5"/>
      </g>
     </g>
     <g id="line2d_46">
      <g>
       <use xlink:href="#m8e8c340232" x="315.493636" y="37.435625" style="stroke: #000000; stroke-width: 0.5"/>
      </g>
     </g>
    </g>
    <g id="xtick_21">
     <g id="line2d_47">
      <g>
       <use xlink:href="#m8e4f940659" x="330.711818" y="325.723625" style="stroke: #000000; stroke-width: 0.5"/>
      </g>
     </g>
     <g id="line2d_48">
      <g>
       <use xlink:href="#m8e8c340232" x="330.711818" y="37.435625" style="stroke: #000000; stroke-width: 0.5"/>
      </g>
     </g>
    </g>
    <g id="xtick_22">
     <g id="line2d_49">
      <g>
       <use xlink:href="#m8e4f940659" x="345.93" y="325.723625" style="stroke: #000000; stroke-width: 0.5"/>
      </g>
     </g>
     <g id="line2d_50">
      <g>
       <use xlink:href="#m8e8c340232" x="345.93" y="37.435625" style="stroke: #000000; stroke-width: 0.5"/>
      </g>
     </g>
    </g>
    <g id="xtick_23">
     <g id="line2d_51">
      <g>
       <use xlink:href="#m8e4f940659" x="361.148182" y="325.723625" style="stroke: #000000; stroke-width: 0.5"/>
      </g>
     </g>
     <g id="line2d_52">
      <g>
       <use xlink:href="#m8e8c340232" x="361.148182" y="37.435625" style="stroke: #000000; stroke-width: 0.5"/>
      </g>
     </g>
    </g>
    <g id="xtick_24">
     <g id="line2d_53">
      <g>
       <use xlink:href="#m8e4f940659" x="391.584545" y="325.723625" style="stroke: #000000; stroke-width: 0.5"/>
      </g>
     </g>
     <g id="line2d_54">
      <g>
       <use xlink:href="#m8e8c340232" x="391.584545" y="37.435625" style="stroke: #000000; stroke-width: 0.5"/>
      </g>
     </g>
    </g>
    <g id="xtick_25">
     <g id="line2d_55">
      <g>
       <use xlink:href="#m8e4f940659" x="406.802727" y="325.723625" style="stroke: #000000; stroke-width: 0.5"/>
      </g>
     </g>
     <g id="line2d_56">
      <g>
       <use xlink:href="#m8e8c340232" x="406.802727" y="37.435625" style="stroke: #000000; stroke-width: 0.5"/>
      </g>
     </g>
    </g>
    <g id="xtick_26">
     <g id="line2d_57">
      <g>
       <use xlink:href="#m8e4f940659" x="422.020909" y="325.723625" style="stroke: #000000; stroke-width: 0.5"/>
      </g>
     </g>
     <g id="line2d_58">
      <g>
       <use xlink:href="#m8e8c340232" x="422.020909" y="37.435625" style="stroke: #000000; stroke-width: 0.5"/>
      </g>
     </g>
    </g>
    <g id="xtick_27">
     <g id="line2d_59">
      <g>
       <use xlink:href="#m8e4f940659" x="437.239091" y="325.723625" style="stroke: #000000; stroke-width: 0.5"/>
      </g>
     </g>
     <g id="line2d_60">
      <g>
       <use xlink:href="#m8e8c340232" x="437.239091" y="37.435625" style="stroke: #000000; stroke-width: 0.5"/>
      </g>
     </g>
    </g>
    <g id="xtick_28">
     <g id="line2d_61">
      <g>
       <use xlink:href="#m8e4f940659" x="467.675455" y="325.723625" style="stroke: #000000; stroke-width: 0.5"/>
      </g>
     </g>
     <g id="line2d_62">
      <g>
       <use xlink:href="#m8e8c340232" x="467.675455" y="37.435625" style="stroke: #000000; stroke-width: 0.5"/>
      </g>
     </g>
    </g>
    <g id="text_7">
     <!-- Time -->
     <g transform="translate(247.453438 353.585187) scale(0.14 -0.14)">
      <defs>
       <path id="STIXGeneral-Regular-54" d="M 3795 3149 
L 3642 3149 
Q 3539 3674 3353 3821 
Q 3168 3968 2656 3968 
L 2278 3968 
L 2278 710 
Q 2278 346 2387 243 
Q 2496 141 2893 122 
L 2893 0 
L 1024 0 
L 1024 122 
Q 1427 147 1526 256 
Q 1626 365 1626 787 
L 1626 3968 
L 1242 3968 
Q 723 3968 540 3817 
Q 358 3667 262 3149 
L 109 3149 
L 154 4237 
L 3750 4237 
L 3795 3149 
z
" transform="scale(0.015625)"/>
       <path id="STIXGeneral-Regular-69" d="M 1152 4045 
Q 1152 3904 1056 3811 
Q 960 3718 819 3718 
Q 685 3718 592 3811 
Q 499 3904 499 4045 
Q 499 4179 595 4275 
Q 691 4371 826 4371 
Q 966 4371 1059 4275 
Q 1152 4179 1152 4045 
z
M 1619 0 
L 102 0 
L 102 96 
Q 435 115 521 211 
Q 608 307 608 666 
L 608 2118 
Q 608 2342 563 2432 
Q 518 2522 397 2522 
Q 243 2522 128 2490 
L 128 2592 
L 1120 2944 
L 1146 2918 
L 1146 672 
Q 1146 314 1226 218 
Q 1306 122 1619 96 
L 1619 0 
z
" transform="scale(0.015625)"/>
       <path id="STIXGeneral-Regular-6d" d="M 4960 0 
L 3565 0 
L 3565 96 
Q 3834 122 3907 208 
Q 3981 294 3981 576 
L 3981 1894 
Q 3981 2278 3869 2444 
Q 3757 2611 3488 2611 
Q 3264 2611 3107 2521 
Q 2950 2432 2803 2221 
L 2803 608 
Q 2803 301 2896 201 
Q 2989 102 3264 96 
L 3264 0 
L 1830 0 
L 1830 96 
Q 2112 115 2189 188 
Q 2266 262 2266 550 
L 2266 1901 
Q 2266 2611 1850 2611 
Q 1670 2611 1468 2531 
Q 1267 2451 1171 2336 
Q 1088 2240 1088 2227 
L 1088 448 
Q 1088 243 1177 176 
Q 1267 109 1523 96 
L 1523 0 
L 102 0 
L 102 96 
Q 371 102 460 195 
Q 550 288 550 563 
L 550 2150 
Q 550 2387 499 2480 
Q 448 2573 326 2573 
Q 230 2573 122 2547 
L 122 2656 
Q 557 2778 1011 2944 
L 1062 2925 
L 1062 2451 
L 1075 2451 
Q 1363 2752 1584 2848 
Q 1805 2944 2054 2944 
Q 2560 2944 2733 2406 
Q 3232 2944 3776 2944 
Q 4518 2944 4518 1792 
L 4518 493 
Q 4518 282 4582 202 
Q 4646 122 4794 109 
L 4960 96 
L 4960 0 
z
" transform="scale(0.015625)"/>
       <path id="STIXGeneral-Regular-65" d="M 2611 1050 
L 2714 1005 
Q 2330 -64 1376 -64 
Q 813 -64 486 329 
Q 160 723 160 1389 
Q 160 2074 525 2509 
Q 890 2944 1485 2944 
Q 2061 2944 2374 2502 
Q 2560 2246 2592 1773 
L 621 1773 
Q 646 1370 700 1158 
Q 755 947 915 730 
Q 1184 378 1626 378 
Q 1939 378 2153 531 
Q 2368 685 2611 1050 
z
M 634 1978 
L 1939 1978 
Q 1882 2381 1750 2547 
Q 1619 2714 1312 2714 
Q 1043 2714 864 2525 
Q 685 2336 634 1978 
z
" transform="scale(0.015625)"/>
      </defs>
      <use xlink:href="#STIXGeneral-Regular-54"/>
      <use xlink:href="#STIXGeneral-Regular-69" transform="translate(61.099991 0)"/>
      <use xlink:href="#STIXGeneral-Regular-6d" transform="translate(88.899979 0)"/>
      <use xlink:href="#STIXGeneral-Regular-65" transform="translate(166.699966 0)"/>
     </g>
    </g>
   </g>
   <g id="matplotlib.axis_2">
    <g id="ytick_1">
     <g id="line2d_63">
      <path d="M 52.98 325.46875 
L 471.48 325.46875 
" clip-path="url(#p327d0e8929)" style="fill: none; stroke: #b0b0b0; stroke-opacity: 0.35; stroke-width: 0.5; stroke-linecap: square"/>
     </g>
     <g id="line2d_64">
      <defs>
       <path id="m3d7a7027b1" d="M 0 0 
L 3 0 
" style="stroke: #000000; stroke-width: 0.5"/>
      </defs>
      <g>
       <use xlink:href="#m3d7a7027b1" x="52.98" y="325.46875" style="stroke: #000000; stroke-width: 0.5"/>
      </g>
     </g>
     <g id="line2d_65">
      <defs>
       <path id="m267cf13a70" d="M 0 0 
L -3 0 
" style="stroke: #000000; stroke-width: 0.5"/>
      </defs>
      <g>
       <use xlink:href="#m267cf13a70" x="471.48" y="325.46875" style="stroke: #000000; stroke-width: 0.5"/>
      </g>
     </g>
     <g id="text_8">
      <!-- $\mathdefault{−1.00}$ -->
      <g transform="translate(20.2 329.571437) scale(0.12 -0.12)">
       <defs>
        <path id="STIXGeneral-Regular-2212" d="M 3974 1408 
L 410 1408 
L 410 1830 
L 3974 1830 
L 3974 1408 
z
" transform="scale(0.015625)"/>
        <path id="STIXGeneral-Regular-2e" d="M 1158 275 
Q 1158 134 1052 32 
Q 947 -70 800 -70 
Q 653 -70 550 32 
Q 448 134 448 281 
Q 448 429 553 534 
Q 659 640 806 640 
Q 947 640 1052 531 
Q 1158 422 1158 275 
z
" transform="scale(0.015625)"/>
       </defs>
       <use xlink:href="#STIXGeneral-Regular-2212" transform="translate(0 0.40625)"/>
       <use xlink:href="#STIXGeneral-Regular-31" transform="translate(68.499985 0.40625)"/>
       <use xlink:href="#STIXGeneral-Regular-2e" transform="translate(118.499969 0.40625)"/>
       <use xlink:href="#STIXGeneral-Regular-30" transform="translate(143.499954 0.40625)"/>
       <use xlink:href="#STIXGeneral-Regular-30" transform="translate(193.499939 0.40625)"/>
      </g>
     </g>
    </g>
    <g id="ytick_2">
     <g id="line2d_66">
      <path d="M 52.98 289.5 
L 471.48 289.5 
" clip-path="url(#p327d0e8929)" style="fill: none; stroke: #b0b0b0; stroke-opacity: 0.35; stroke-width: 0.5; stroke-linecap: square"/>
     </g>
     <g id="line2d_67">
      <g>
       <use xlink:href="#m3d7a7027b1" x="52.98" y="289.5" style="stroke: #000000; stroke-width: 0.5"/>
      </g>
     </g>
     <g id="line2d_68">
      <g>
       <use xlink:href="#m267cf13a70" x="471.48" y="289.5" style="stroke: #000000; stroke-width: 0.5"/>
      </g>
     </g>
     <g id="text_9">
      <!-- $\mathdefault{−0.75}$ -->
      <g transform="translate(20.2 293.602688) scale(0.12 -0.12)">
       <defs>
        <path id="STIXGeneral-Regular-37" d="M 2874 4134 
L 1517 -51 
L 1101 -51 
L 2368 3763 
L 992 3763 
Q 717 3763 582 3667 
Q 448 3571 243 3238 
L 128 3296 
L 512 4237 
L 2874 4237 
L 2874 4134 
z
" transform="scale(0.015625)"/>
       </defs>
       <use xlink:href="#STIXGeneral-Regular-2212" transform="translate(0 0.203125)"/>
       <use xlink:href="#STIXGeneral-Regular-30" transform="translate(68.499985 0.203125)"/>
       <use xlink:href="#STIXGeneral-Regular-2e" transform="translate(118.499969 0.203125)"/>
       <use xlink:href="#STIXGeneral-Regular-37" transform="translate(143.499954 0.203125)"/>
       <use xlink:href="#STIXGeneral-Regular-35" transform="translate(193.499939 0.203125)"/>
      </g>
     </g>
    </g>
    <g id="ytick_3">
     <g id="line2d_69">
      <path d="M 52.98 253.53125 
L 471.48 253.53125 
" clip-path="url(#p327d0e8929)" style="fill: none; stroke: #b0b0b0; stroke-opacity: 0.35; stroke-width: 0.5; stroke-linecap: square"/>
     </g>
     <g id="line2d_70">
      <g>
       <use xlink:href="#m3d7a7027b1" x="52.98" y="253.53125" style="stroke: #000000; stroke-width: 0.5"/>
      </g>
     </g>
     <g id="line2d_71">
      <g>
       <use xlink:href="#m267cf13a70" x="471.48" y="253.53125" style="stroke: #000000; stroke-width: 0.5"/>
      </g>
     </g>
     <g id="text_10">
      <!-- $\mathdefault{−0.50}$ -->
      <g transform="translate(20.2 257.633938) scale(0.12 -0.12)">
       <use xlink:href="#STIXGeneral-Regular-2212" transform="translate(0 0.203125)"/>
       <use xlink:href="#STIXGeneral-Regular-30" transform="translate(68.499985 0.203125)"/>
       <use xlink:href="#STIXGeneral-Regular-2e" transform="translate(118.499969 0.203125)"/>
       <use xlink:href="#STIXGeneral-Regular-35" transform="translate(143.499954 0.203125)"/>
       <use xlink:href="#STIXGeneral-Regular-30" transform="translate(193.499939 0.203125)"/>
      </g>
     </g>
    </g>
    <g id="ytick_4">
     <g id="line2d_72">
      <path d="M 52.98 217.5625 
L 471.48 217.5625 
" clip-path="url(#p327d0e8929)" style="fill: none; stroke: #b0b0b0; stroke-opacity: 0.35; stroke-width: 0.5; stroke-linecap: square"/>
     </g>
     <g id="line2d_73">
      <g>
       <use xlink:href="#m3d7a7027b1" x="52.98" y="217.5625" style="stroke: #000000; stroke-width: 0.5"/>
      </g>
     </g>
     <g id="line2d_74">
      <g>
       <use xlink:href="#m267cf13a70" x="471.48" y="217.5625" style="stroke: #000000; stroke-width: 0.5"/>
      </g>
     </g>
     <g id="text_11">
      <!-- $\mathdefault{−0.25}$ -->
      <g transform="translate(20.2 221.665187) scale(0.12 -0.12)">
       <use xlink:href="#STIXGeneral-Regular-2212" transform="translate(0 0.203125)"/>
       <use xlink:href="#STIXGeneral-Regular-30" transform="translate(68.499985 0.203125)"/>
       <use xlink:href="#STIXGeneral-Regular-2e" transform="translate(118.499969 0.203125)"/>
       <use xlink:href="#STIXGeneral-Regular-32" transform="translate(143.499954 0.203125)"/>
       <use xlink:href="#STIXGeneral-Regular-35" transform="translate(193.499939 0.203125)"/>
      </g>
     </g>
    </g>
    <g id="ytick_5">
     <g id="line2d_75">
      <path d="M 52.98 181.59375 
L 471.48 181.59375 
" clip-path="url(#p327d0e8929)" style="fill: none; stroke: #b0b0b0; stroke-opacity: 0.35; stroke-width: 0.5; stroke-linecap: square"/>
     </g>
     <g id="line2d_76">
      <g>
       <use xlink:href="#m3d7a7027b1" x="52.98" y="181.59375" style="stroke: #000000; stroke-width: 0.5"/>
      </g>
     </g>
     <g id="line2d_77">
      <g>
       <use xlink:href="#m267cf13a70" x="471.48" y="181.59375" style="stroke: #000000; stroke-width: 0.5"/>
      </g>
     </g>
     <g id="text_12">
      <!-- $\mathdefault{0.00}$ -->
      <g transform="translate(28.48 185.696437) scale(0.12 -0.12)">
       <use xlink:href="#STIXGeneral-Regular-30" transform="translate(0 0.40625)"/>
       <use xlink:href="#STIXGeneral-Regular-2e" transform="translate(49.999985 0.40625)"/>
       <use xlink:href="#STIXGeneral-Regular-30" transform="translate(74.999969 0.40625)"/>
       <use xlink:href="#STIXGeneral-Regular-30" transform="translate(124.999954 0.40625)"/>
      </g>
     </g>
    </g>
    <g id="ytick_6">
     <g id="line2d_78">
      <path d="M 52.98 145.625 
L 471.48 145.625 
" clip-path="url(#p327d0e8929)" style="fill: none; stroke: #b0b0b0; stroke-opacity: 0.35; stroke-width: 0.5; stroke-linecap: square"/>
     </g>
     <g id="line2d_79">
      <g>
       <use xlink:href="#m3d7a7027b1" x="52.98" y="145.625" style="stroke: #000000; stroke-width: 0.5"/>
      </g>
     </g>
     <g id="line2d_80">
      <g>
       <use xlink:href="#m267cf13a70" x="471.48" y="145.625" style="stroke: #000000; stroke-width: 0.5"/>
      </g>
     </g>
     <g id="text_13">
      <!-- $\mathdefault{0.25}$ -->
      <g transform="translate(28.48 149.727687) scale(0.12 -0.12)">
       <use xlink:href="#STIXGeneral-Regular-30" transform="translate(0 0.203125)"/>
       <use xlink:href="#STIXGeneral-Regular-2e" transform="translate(49.999985 0.203125)"/>
       <use xlink:href="#STIXGeneral-Regular-32" transform="translate(74.999969 0.203125)"/>
       <use xlink:href="#STIXGeneral-Regular-35" transform="translate(124.999954 0.203125)"/>
      </g>
     </g>
    </g>
    <g id="ytick_7">
     <g id="line2d_81">
      <path d="M 52.98 109.65625 
L 471.48 109.65625 
" clip-path="url(#p327d0e8929)" style="fill: none; stroke: #b0b0b0; stroke-opacity: 0.35; stroke-width: 0.5; stroke-linecap: square"/>
     </g>
     <g id="line2d_82">
      <g>
       <use xlink:href="#m3d7a7027b1" x="52.98" y="109.65625" style="stroke: #000000; stroke-width: 0.5"/>
      </g>
     </g>
     <g id="line2d_83">
      <g>
       <use xlink:href="#m267cf13a70" x="471.48" y="109.65625" style="stroke: #000000; stroke-width: 0.5"/>
      </g>
     </g>
     <g id="text_14">
      <!-- $\mathdefault{0.50}$ -->
      <g transform="translate(28.48 113.758937) scale(0.12 -0.12)">
       <use xlink:href="#STIXGeneral-Regular-30" transform="translate(0 0.203125)"/>
       <use xlink:href="#STIXGeneral-Regular-2e" transform="translate(49.999985 0.203125)"/>
       <use xlink:href="#STIXGeneral-Regular-35" transform="translate(74.999969 0.203125)"/>
       <use xlink:href="#STIXGeneral-Regular-30" transform="translate(124.999954 0.203125)"/>
      </g>
     </g>
    </g>
    <g id="ytick_8">
     <g id="line2d_84">
      <path d="M 52.98 73.65625 
L 471.48 73.65625 
" clip-path="url(#p327d0e8929)" style="fill: none; stroke: #b0b0b0; stroke-opacity: 0.35; stroke-width: 0.5; stroke-linecap: square"/>
     </g>
     <g id="line2d_85">
      <g>
       <use xlink:href="#m3d7a7027b1" x="52.98" y="73.65625" style="stroke: #000000; stroke-width: 0.5"/>
      </g>
     </g>
     <g id="line2d_86">
      <g>
       <use xlink:href="#m267cf13a70" x="471.48" y="73.65625" style="stroke: #000000; stroke-width: 0.5"/>
      </g>
     </g>
     <g id="text_15">
      <!-- $\mathdefault{0.75}$ -->
      <g transform="translate(28.48 77.758937) scale(0.12 -0.12)">
       <use xlink:href="#STIXGeneral-Regular-30" transform="translate(0 0.203125)"/>
       <use xlink:href="#STIXGeneral-Regular-2e" transform="translate(49.999985 0.203125)"/>
       <use xlink:href="#STIXGeneral-Regular-37" transform="translate(74.999969 0.203125)"/>
       <use xlink:href="#STIXGeneral-Regular-35" transform="translate(124.999954 0.203125)"/>
      </g>
     </g>
    </g>
    <g id="ytick_9">
     <g id="line2d_87">
      <path d="M 52.98 37.6875 
L 471.48 37.6875 
" clip-path="url(#p327d0e8929)" style="fill: none; stroke: #b0b0b0; stroke-opacity: 0.35; stroke-width: 0.5; stroke-linecap: square"/>
     </g>
     <g id="line2d_88">
      <g>
       <use xlink:href="#m3d7a7027b1" x="52.98" y="37.6875" style="stroke: #000000; stroke-width: 0.5"/>
      </g>
     </g>
     <g id="line2d_89">
      <g>
       <use xlink:href="#m267cf13a70" x="471.48" y="37.6875" style="stroke: #000000; stroke-width: 0.5"/>
      </g>
     </g>
     <g id="text_16">
      <!-- $\mathdefault{1.00}$ -->
      <g transform="translate(28.48 41.790187) scale(0.12 -0.12)">
       <use xlink:href="#STIXGeneral-Regular-31" transform="translate(0 0.40625)"/>
       <use xlink:href="#STIXGeneral-Regular-2e" transform="translate(49.999985 0.40625)"/>
       <use xlink:href="#STIXGeneral-Regular-30" transform="translate(74.999969 0.40625)"/>
       <use xlink:href="#STIXGeneral-Regular-30" transform="translate(124.999954 0.40625)"/>
      </g>
     </g>
    </g>
    <g id="ytick_10">
     <g id="line2d_90">
      <defs>
       <path id="m006fa83766" d="M 0 0 
L 1.5 0 
" style="stroke: #000000; stroke-width: 0.5"/>
      </defs>
      <g>
       <use xlink:href="#m006fa83766" x="52.98" y="316.5" style="stroke: #000000; stroke-width: 0.5"/>
      </g>
     </g>
     <g id="line2d_91">
      <defs>
       <path id="m360cdd9eee" d="M 0 0 
L -1.5 0 
" style="stroke: #000000; stroke-width: 0.5"/>
      </defs>
      <g>
       <use xlink:href="#m360cdd9eee" x="471.48" y="316.5" style="stroke: #000000; stroke-width: 0.5"/>
      </g>
     </g>
    </g>
    <g id="ytick_11">
     <g id="line2d_92">
      <g>
       <use xlink:href="#m006fa83766" x="52.98" y="307.5" style="stroke: #000000; stroke-width: 0.5"/>
      </g>
     </g>
     <g id="line2d_93">
      <g>
       <use xlink:href="#m360cdd9eee" x="471.48" y="307.5" style="stroke: #000000; stroke-width: 0.5"/>
      </g>
     </g>
    </g>
    <g id="ytick_12">
     <g id="line2d_94">
      <g>
       <use xlink:href="#m006fa83766" x="52.98" y="298.5" style="stroke: #000000; stroke-width: 0.5"/>
      </g>
     </g>
     <g id="line2d_95">
      <g>
       <use xlink:href="#m360cdd9eee" x="471.48" y="298.5" style="stroke: #000000; stroke-width: 0.5"/>
      </g>
     </g>
    </g>
    <g id="ytick_13">
     <g id="line2d_96">
      <g>
       <use xlink:href="#m006fa83766" x="52.98" y="280.5" style="stroke: #000000; stroke-width: 0.5"/>
      </g>
     </g>
     <g id="line2d_97">
      <g>
       <use xlink:href="#m360cdd9eee" x="471.48" y="280.5" style="stroke: #000000; stroke-width: 0.5"/>
      </g>
     </g>
    </g>
    <g id="ytick_14">
     <g id="line2d_98">
      <g>
       <use xlink:href="#m006fa83766" x="52.98" y="271.53125" style="stroke: #000000; stroke-width: 0.5"/>
      </g>
     </g>
     <g id="line2d_99">
      <g>
       <use xlink:href="#m360cdd9eee" x="471.48" y="271.53125" style="stroke: #000000; stroke-width: 0.5"/>
      </g>
     </g>
    </g>
    <g id="ytick_15">
     <g id="line2d_100">
      <g>
       <use xlink:href="#m006fa83766" x="52.98" y="262.53125" style="stroke: #000000; stroke-width: 0.5"/>
      </g>
     </g>
     <g id="line2d_101">
      <g>
       <use xlink:href="#m360cdd9eee" x="471.48" y="262.53125" style="stroke: #000000; stroke-width: 0.5"/>
      </g>
     </g>
    </g>
    <g id="ytick_16">
     <g id="line2d_102">
      <g>
       <use xlink:href="#m006fa83766" x="52.98" y="253.53125" style="stroke: #000000; stroke-width: 0.5"/>
      </g>
     </g>
     <g id="line2d_103">
      <g>
       <use xlink:href="#m360cdd9eee" x="471.48" y="253.53125" style="stroke: #000000; stroke-width: 0.5"/>
      </g>
     </g>
    </g>
    <g id="ytick_17">
     <g id="line2d_104">
      <g>
       <use xlink:href="#m006fa83766" x="52.98" y="244.53125" style="stroke: #000000; stroke-width: 0.5"/>
      </g>
     </g>
     <g id="line2d_105">
      <g>
       <use xlink:href="#m360cdd9eee" x="471.48" y="244.53125" style="stroke: #000000; stroke-width: 0.5"/>
      </g>
     </g>
    </g>
    <g id="ytick_18">
     <g id="line2d_106">
      <g>
       <use xlink:href="#m006fa83766" x="52.98" y="235.53125" style="stroke: #000000; stroke-width: 0.5"/>
      </g>
     </g>
     <g id="line2d_107">
      <g>
       <use xlink:href="#m360cdd9eee" x="471.48" y="235.53125" style="stroke: #000000; stroke-width: 0.5"/>
      </g>
     </g>
    </g>
    <g id="ytick_19">
     <g id="line2d_108">
      <g>
       <use xlink:href="#m006fa83766" x="52.98" y="226.5625" style="stroke: #000000; stroke-width: 0.5"/>
      </g>
     </g>
     <g id="line2d_109">
      <g>
       <use xlink:href="#m360cdd9eee" x="471.48" y="226.5625" style="stroke: #000000; stroke-width: 0.5"/>
      </g>
     </g>
    </g>
    <g id="ytick_20">
     <g id="line2d_110">
      <g>
       <use xlink:href="#m006fa83766" x="52.98" y="217.5625" style="stroke: #000000; stroke-width: 0.5"/>
      </g>
     </g>
     <g id="line2d_111">
      <g>
       <use xlink:href="#m360cdd9eee" x="471.48" y="217.5625" style="stroke: #000000; stroke-width: 0.5"/>
      </g>
     </g>
    </g>
    <g id="ytick_21">
     <g id="line2d_112">
      <g>
       <use xlink:href="#m006fa83766" x="52.98" y="208.5625" style="stroke: #000000; stroke-width: 0.5"/>
      </g>
     </g>
     <g id="line2d_113">
      <g>
       <use xlink:href="#m360cdd9eee" x="471.48" y="208.5625" style="stroke: #000000; stroke-width: 0.5"/>
      </g>
     </g>
    </g>
    <g id="ytick_22">
     <g id="line2d_114">
      <g>
       <use xlink:href="#m006fa83766" x="52.98" y="199.5625" style="stroke: #000000; stroke-width: 0.5"/>
      </g>
     </g>
     <g id="line2d_115">
      <g>
       <use xlink:href="#m360cdd9eee" x="471.48" y="199.5625" style="stroke: #000000; stroke-width: 0.5"/>
      </g>
     </g>
    </g>
    <g id="ytick_23">
     <g id="line2d_116">
      <g>
       <use xlink:href="#m006fa83766" x="52.98" y="190.5625" style="stroke: #000000; stroke-width: 0.5"/>
      </g>
     </g>
     <g id="line2d_117">
      <g>
       <use xlink:href="#m360cdd9eee" x="471.48" y="190.5625" style="stroke: #000000; stroke-width: 0.5"/>
      </g>
     </g>
    </g>
    <g id="ytick_24">
     <g id="line2d_118">
      <g>
       <use xlink:href="#m006fa83766" x="52.98" y="172.59375" style="stroke: #000000; stroke-width: 0.5"/>
      </g>
     </g>
     <g id="line2d_119">
      <g>
       <use xlink:href="#m360cdd9eee" x="471.48" y="172.59375" style="stroke: #000000; stroke-width: 0.5"/>
      </g>
     </g>
    </g>
    <g id="ytick_25">
     <g id="line2d_120">
      <g>
       <use xlink:href="#m006fa83766" x="52.98" y="163.5625" style="stroke: #000000; stroke-width: 0.5"/>
      </g>
     </g>
     <g id="line2d_121">
      <g>
       <use xlink:href="#m360cdd9eee" x="471.48" y="163.5625" style="stroke: #000000; stroke-width: 0.5"/>
      </g>
     </g>
    </g>
    <g id="ytick_26">
     <g id="line2d_122">
      <g>
       <use xlink:href="#m006fa83766" x="52.98" y="154.59375" style="stroke: #000000; stroke-width: 0.5"/>
      </g>
     </g>
     <g id="line2d_123">
      <g>
       <use xlink:href="#m360cdd9eee" x="471.48" y="154.59375" style="stroke: #000000; stroke-width: 0.5"/>
      </g>
     </g>
    </g>
    <g id="ytick_27">
     <g id="line2d_124">
      <g>
       <use xlink:href="#m006fa83766" x="52.98" y="136.59375" style="stroke: #000000; stroke-width: 0.5"/>
      </g>
     </g>
     <g id="line2d_125">
      <g>
       <use xlink:href="#m360cdd9eee" x="471.48" y="136.59375" style="stroke: #000000; stroke-width: 0.5"/>
      </g>
     </g>
    </g>
    <g id="ytick_28">
     <g id="line2d_126">
      <g>
       <use xlink:href="#m006fa83766" x="52.98" y="127.59375" style="stroke: #000000; stroke-width: 0.5"/>
      </g>
     </g>
     <g id="line2d_127">
      <g>
       <use xlink:href="#m360cdd9eee" x="471.48" y="127.59375" style="stroke: #000000; stroke-width: 0.5"/>
      </g>
     </g>
    </g>
    <g id="ytick_29">
     <g id="line2d_128">
      <g>
       <use xlink:href="#m006fa83766" x="52.98" y="118.625" style="stroke: #000000; stroke-width: 0.5"/>
      </g>
     </g>
     <g id="line2d_129">
      <g>
       <use xlink:href="#m360cdd9eee" x="471.48" y="118.625" style="stroke: #000000; stroke-width: 0.5"/>
      </g>
     </g>
    </g>
    <g id="ytick_30">
     <g id="line2d_130">
      <g>
       <use xlink:href="#m006fa83766" x="52.98" y="100.625" style="stroke: #000000; stroke-width: 0.5"/>
      </g>
     </g>
     <g id="line2d_131">
      <g>
       <use xlink:href="#m360cdd9eee" x="471.48" y="100.625" style="stroke: #000000; stroke-width: 0.5"/>
      </g>
     </g>
    </g>
    <g id="ytick_31">
     <g id="line2d_132">
      <g>
       <use xlink:href="#m006fa83766" x="52.98" y="91.625" style="stroke: #000000; stroke-width: 0.5"/>
      </g>
     </g>
     <g id="line2d_133">
      <g>
       <use xlink:href="#m360cdd9eee" x="471.48" y="91.625" style="stroke: #000000; stroke-width: 0.5"/>
      </g>
     </g>
    </g>
    <g id="ytick_32">
     <g id="line2d_134">
      <g>
       <use xlink:href="#m006fa83766" x="52.98" y="82.65625" style="stroke: #000000; stroke-width: 0.5"/>
      </g>
     </g>
     <g id="line2d_135">
      <g>
       <use xlink:href="#m360cdd9eee" x="471.48" y="82.65625" style="stroke: #000000; stroke-width: 0.5"/>
      </g>
     </g>
    </g>
    <g id="ytick_33">
     <g id="line2d_136">
      <g>
       <use xlink:href="#m006fa83766" x="52.98" y="64.65625" style="stroke: #000000; stroke-width: 0.5"/>
      </g>
     </g>
     <g id="line2d_137">
      <g>
       <use xlink:href="#m360cdd9eee" x="471.48" y="64.65625" style="stroke: #000000; stroke-width: 0.5"/>
      </g>
     </g>
    </g>
    <g id="ytick_34">
     <g id="line2d_138">
      <g>
       <use xlink:href="#m006fa83766" x="52.98" y="55.65625" style="stroke: #000000; stroke-width: 0.5"/>
      </g>
     </g>
     <g id="line2d_139">
      <g>
       <use xlink:href="#m360cdd9eee" x="471.48" y="55.65625" style="stroke: #000000; stroke-width: 0.5"/>
      </g>
     </g>
    </g>
    <g id="ytick_35">
     <g id="line2d_140">
      <g>
       <use xlink:href="#m006fa83766" x="52.98" y="46.65625" style="stroke: #000000; stroke-width: 0.5"/>
      </g>
     </g>
     <g id="line2d_141">
      <g>
       <use xlink:href="#m360cdd9eee" x="471.48" y="46.65625" style="stroke: #000000; stroke-width: 0.5"/>
      </g>
     </g>
    </g>
    <g id="text_17">
     <!-- $g_2$ -->
     <g transform="translate(13.161563 187.879625) rotate(-90) scale(0.14 -0.14)">
      <defs>
       <path id="Cmmi10-67" d="M 91 -916 
Q 91 -759 198 -642 
Q 306 -525 459 -525 
Q 563 -525 633 -589 
Q 703 -653 703 -756 
Q 703 -872 637 -964 
Q 572 -1056 469 -1094 
Q 641 -1147 1006 -1147 
Q 1300 -1147 1544 -920 
Q 1788 -694 1863 -397 
L 2047 353 
Q 1700 0 1325 0 
Q 1050 0 854 140 
Q 659 281 556 515 
Q 453 750 453 1013 
Q 453 1306 573 1628 
Q 694 1950 911 2225 
Q 1128 2500 1409 2664 
Q 1691 2828 2003 2828 
Q 2191 2828 2341 2725 
Q 2491 2622 2578 2450 
Q 2641 2700 2853 2700 
Q 2934 2700 2990 2651 
Q 3047 2603 3047 2522 
Q 3047 2503 3045 2493 
Q 3044 2484 3041 2472 
L 2309 -434 
Q 2259 -634 2125 -800 
Q 1991 -966 1809 -1077 
Q 1628 -1188 1412 -1250 
Q 1197 -1313 997 -1313 
Q 631 -1313 361 -1242 
Q 91 -1172 91 -916 
z
M 1338 166 
Q 1747 166 2144 728 
L 2497 2125 
Q 2453 2347 2322 2505 
Q 2191 2663 1991 2663 
Q 1778 2663 1589 2489 
Q 1400 2316 1275 2075 
Q 1156 1844 1045 1411 
Q 934 978 934 728 
Q 934 509 1034 337 
Q 1134 166 1338 166 
z
" transform="scale(0.015625)"/>
       <path id="Cmr10-32" d="M 319 0 
L 319 172 
Q 319 188 331 206 
L 1325 1306 
Q 1550 1550 1690 1715 
Q 1831 1881 1968 2097 
Q 2106 2313 2186 2536 
Q 2266 2759 2266 3009 
Q 2266 3272 2169 3511 
Q 2072 3750 1880 3894 
Q 1688 4038 1416 4038 
Q 1138 4038 916 3870 
Q 694 3703 603 3438 
Q 628 3444 672 3444 
Q 816 3444 917 3347 
Q 1019 3250 1019 3097 
Q 1019 2950 917 2848 
Q 816 2747 672 2747 
Q 522 2747 420 2851 
Q 319 2956 319 3097 
Q 319 3338 409 3548 
Q 500 3759 670 3923 
Q 841 4088 1055 4175 
Q 1269 4263 1509 4263 
Q 1875 4263 2190 4108 
Q 2506 3953 2690 3670 
Q 2875 3388 2875 3009 
Q 2875 2731 2753 2481 
Q 2631 2231 2440 2026 
Q 2250 1822 1953 1562 
Q 1656 1303 1563 1216 
L 838 519 
L 1453 519 
Q 1906 519 2211 526 
Q 2516 534 2534 550 
Q 2609 631 2688 1141 
L 2875 1141 
L 2694 0 
L 319 0 
z
" transform="scale(0.015625)"/>
      </defs>
      <use xlink:href="#Cmmi10-67" transform="translate(0 0.8125)"/>
      <use xlink:href="#Cmr10-32" transform="translate(47.705078 -16.19375) scale(0.7)"/>
     </g>
    </g>
    <g id="text_18">
     <!-- $\times\mathdefault{10^{−12}}\mathdefault{+10 \times 10^{−1}}$ -->
     <g transform="translate(52.98 34.435625) scale(0.12 -0.12)">
      <defs>
       <path id="Cmsy10-a3" d="M 941 184 
Q 941 234 972 275 
L 2303 1600 
L 972 2931 
Q 941 2963 941 3016 
Q 941 3063 978 3103 
Q 1016 3144 1069 3144 
Q 1113 3144 1166 3103 
L 2491 1778 
L 3809 3103 
Q 3863 3144 3903 3144 
Q 3956 3144 3993 3106 
Q 4031 3069 4031 3016 
Q 4031 2963 4000 2931 
L 2669 1600 
L 4000 275 
Q 4031 234 4031 184 
Q 4031 131 3993 93 
Q 3956 56 3903 56 
Q 3856 56 3809 103 
L 2491 1422 
L 1166 103 
Q 1119 56 1069 56 
Q 1016 56 978 97 
Q 941 138 941 184 
z
" transform="scale(0.015625)"/>
       <path id="STIXGeneral-Regular-2b" d="M 4070 1408 
L 2400 1408 
L 2400 -262 
L 1978 -262 
L 1978 1408 
L 307 1408 
L 307 1830 
L 1978 1830 
L 1978 3501 
L 2400 3501 
L 2400 1830 
L 4070 1830 
L 4070 1408 
z
" transform="scale(0.015625)"/>
       <path id="STIXGeneral-Regular-d7" d="M 3821 141 
L 3526 -160 
L 2048 1312 
L 570 -160 
L 275 134 
L 1747 1613 
L 275 3091 
L 576 3386 
L 2048 1914 
L 3526 3386 
L 3821 3098 
L 2349 1613 
L 3821 141 
z
" transform="scale(0.015625)"/>
      </defs>
      <use xlink:href="#Cmsy10-a3" transform="translate(0 0.684375)"/>
      <use xlink:href="#STIXGeneral-Regular-31" transform="translate(77.685547 0.684375)"/>
      <use xlink:href="#STIXGeneral-Regular-30" transform="translate(127.685532 0.684375)"/>
      <use xlink:href="#STIXGeneral-Regular-2212" transform="translate(179.260516 36.684375) scale(0.7)"/>
      <use xlink:href="#STIXGeneral-Regular-31" transform="translate(227.210506 36.684375) scale(0.7)"/>
      <use xlink:href="#STIXGeneral-Regular-32" transform="translate(262.210495 36.684375) scale(0.7)"/>
      <use xlink:href="#STIXGeneral-Regular-2b" transform="translate(301.710484 0.684375)"/>
      <use xlink:href="#STIXGeneral-Regular-31" transform="translate(370.210469 0.684375)"/>
      <use xlink:href="#STIXGeneral-Regular-30" transform="translate(420.210454 0.684375)"/>
      <use xlink:href="#STIXGeneral-Regular-d7" transform="translate(487.769032 0.684375)"/>
      <use xlink:href="#STIXGeneral-Regular-31" transform="translate(569.327611 0.684375)"/>
      <use xlink:href="#STIXGeneral-Regular-30" transform="translate(619.327596 0.684375)"/>
      <use xlink:href="#STIXGeneral-Regular-2212" transform="translate(670.90258 36.684375) scale(0.7)"/>
      <use xlink:href="#STIXGeneral-Regular-31" transform="translate(718.85257 36.684375) scale(0.7)"/>
     </g>
    </g>
   </g>
   <g id="line2d_142">
    <path d="M 72.002727 181.59375 
L 365.028818 181.65625 
L 365.181 181.65625 
L 366.170182 181.59375 
L 366.246273 181.5 
L 366.398455 181.65625 
L 366.626727 181.5625 
L 366.855 181.5625 
L 383.518909 181.59375 
L 383.671091 181.65625 
L 383.899364 181.65625 
L 383.975455 181.65625 
L 384.051545 181.53125 
L 384.127636 181.65625 
L 384.279818 181.53125 
L 384.355909 181.6875 
L 384.432 181.59375 
L 391.280182 181.5625 
L 391.356273 181.71875 
L 391.508455 181.5625 
L 391.736727 181.59375 
L 391.812818 181.71875 
L 392.041091 181.53125 
L 392.193273 181.59375 
L 392.269364 181.53125 
L 392.421545 181.65625 
L 392.497636 181.53125 
L 392.573727 181.59375 
L 392.725909 181.59375 
L 392.802 181.71875 
L 392.878091 181.59375 
L 392.954182 181.65625 
L 393.106364 181.65625 
L 393.182455 181.53125 
L 393.258545 181.65625 
L 393.334636 181.59375 
L 393.410727 181.65625 
L 393.639 181.53125 
L 394.019455 181.65625 
L 394.095545 181.53125 
L 394.171636 181.59375 
L 395.845636 181.5625 
L 395.997818 181.71875 
L 396.15 181.53125 
L 396.226091 181.65625 
L 396.378273 181.65625 
L 396.454364 181.53125 
L 396.606545 181.6875 
L 396.758727 181.5625 
L 396.834818 181.6875 
L 396.987 181.53125 
L 397.215273 181.53125 
L 397.367455 181.53125 
L 397.519636 181.71875 
L 397.747909 181.53125 
L 397.900091 181.65625 
L 397.976182 181.65625 
L 398.128364 181.53125 
L 398.204455 181.65625 
L 398.280545 181.59375 
L 401.172 181.59375 
L 401.248091 181.71875 
L 401.400273 181.59375 
L 401.476364 181.6875 
L 401.552455 181.5625 
L 401.780727 181.6875 
L 401.932909 181.53125 
L 402.085091 181.65625 
L 402.237273 181.5 
L 402.389455 181.65625 
L 402.465545 181.46875 
L 402.617727 181.59375 
L 402.693818 181.53125 
L 402.922091 181.71875 
L 403.074273 181.65625 
L 403.226455 181.5 
L 403.454727 181.71875 
L 403.530818 181.59375 
L 403.606909 181.65625 
L 403.683 181.71875 
L 403.835182 181.53125 
L 403.911273 181.65625 
L 404.063455 181.5 
L 404.291727 181.71875 
L 404.367818 181.5625 
L 404.443909 181.65625 
L 404.596091 181.65625 
L 404.900455 181.53125 
L 405.052636 181.71875 
L 405.128727 181.71875 
L 405.357 181.5 
L 405.585273 181.5625 
L 405.737455 181.65625 
L 405.889636 181.5 
L 405.965727 181.65625 
L 406.041818 181.53125 
L 406.117909 181.71875 
L 406.270091 181.53125 
L 406.346182 181.5 
L 406.498364 181.65625 
L 406.650545 181.6875 
L 406.726636 181.5 
L 406.802727 181.59375 
L 406.878818 181.65625 
L 407.031 181.53125 
L 407.183182 181.59375 
L 407.259273 181.5 
L 407.411455 181.71875 
L 407.563636 181.5 
L 407.639727 181.46875 
L 407.715818 181.71875 
L 407.791909 181.5625 
L 407.868 181.65625 
L 408.020182 181.65625 
L 408.096273 181.65625 
L 408.248455 181.53125 
L 408.400636 181.71875 
L 408.476727 181.5 
L 408.552818 181.5625 
L 408.628909 181.65625 
L 408.705 181.5625 
L 408.781091 181.6875 
L 409.009364 181.46875 
L 409.085455 181.71875 
L 409.161545 181.59375 
L 409.237636 181.65625 
L 409.313727 181.5625 
L 409.389818 181.65625 
L 409.618091 181.46875 
L 409.846364 181.5625 
L 409.922455 181.5 
L 409.998545 181.65625 
L 410.074636 181.5625 
L 410.150727 181.5625 
L 410.226818 181.6875 
L 410.302909 181.46875 
L 410.379 181.6875 
L 410.455091 181.65625 
L 410.607273 181.53125 
L 410.835545 181.65625 
L 410.987727 181.53125 
L 411.063818 181.53125 
L 411.139909 181.71875 
L 411.216 181.59375 
L 411.368182 181.75 
L 411.596455 181.53125 
L 411.672545 181.71875 
L 411.748636 181.53125 
L 411.824727 181.5625 
L 411.900818 181.71875 
L 412.053 181.59375 
L 412.357364 181.53125 
L 412.509545 181.78125 
L 412.585636 181.46875 
L 412.737818 181.71875 
L 412.89 181.59375 
L 412.966091 181.78125 
L 413.118273 181.53125 
L 413.270455 181.6875 
L 413.346545 181.46875 
L 413.422636 181.65625 
L 413.498727 181.5625 
L 414.335727 181.65625 
L 414.411818 181.6875 
L 414.564 181.53125 
L 414.792273 181.59375 
L 417.683727 181.65625 
L 417.759818 181.71875 
L 417.912 181.53125 
L 418.140273 181.71875 
L 418.216364 181.53125 
L 418.292455 181.5625 
L 418.444636 181.5625 
L 418.520727 181.5 
L 418.596818 181.65625 
L 418.672909 181.53125 
L 418.749 181.65625 
L 418.825091 181.59375 
L 419.053364 181.5 
L 419.129455 181.71875 
L 419.205545 181.53125 
L 419.281636 181.5625 
L 419.357727 181.65625 
L 419.433818 181.53125 
L 419.509909 181.59375 
L 420.499091 181.59375 
L 420.575182 181.71875 
L 420.651273 181.53125 
L 420.727364 181.5625 
L 420.955636 181.65625 
L 421.031727 181.5 
L 421.107818 181.59375 
L 421.183909 181.71875 
L 421.26 181.65625 
L 421.488273 181.5625 
L 421.640455 181.5 
L 421.868727 181.65625 
L 422.325273 181.65625 
L 422.477455 181.53125 
L 422.705727 181.59375 
L 422.781818 181.5625 
L 422.857909 181.6875 
L 423.010091 181.5 
L 423.162273 181.6875 
L 423.238364 181.6875 
L 423.390545 181.53125 
L 423.466636 181.65625 
L 423.542727 181.59375 
L 423.694909 181.53125 
L 423.847091 181.65625 
L 423.923182 181.53125 
L 423.999273 181.6875 
L 424.075364 181.53125 
L 424.227545 181.65625 
L 424.379727 181.53125 
L 424.531909 181.65625 
L 424.608 181.53125 
L 424.760182 181.6875 
L 425.064545 181.5 
L 425.216727 181.65625 
L 425.292818 181.5625 
L 425.521091 181.6875 
L 425.597182 181.53125 
L 425.673273 181.65625 
L 425.749364 181.59375 
L 425.901545 181.65625 
L 425.977636 181.5 
L 426.053727 181.6875 
L 426.205909 181.5625 
L 426.282 181.71875 
L 426.434182 181.59375 
L 426.510273 181.6875 
L 426.662455 181.5 
L 426.890727 181.65625 
L 427.042909 181.53125 
L 427.119 181.5 
L 427.271182 181.65625 
L 427.575545 181.5625 
L 427.651636 181.53125 
L 427.727727 181.6875 
L 427.803818 181.53125 
L 427.956 181.65625 
L 428.108182 181.6875 
L 428.184273 181.5 
L 428.260364 181.59375 
L 428.412545 181.6875 
L 428.564727 181.53125 
L 428.640818 181.71875 
L 428.793 181.53125 
L 428.945182 181.71875 
L 429.097364 181.5 
L 429.249545 181.5625 
L 429.325636 181.5 
L 429.401727 181.65625 
L 429.477818 181.53125 
L 429.553909 181.71875 
L 429.63 181.65625 
L 430.543091 181.59375 
L 430.619182 181.53125 
L 430.771364 181.65625 
L 430.999636 181.53125 
L 431.227909 181.71875 
L 431.304 181.5 
L 431.456182 181.65625 
L 431.532273 181.5 
L 431.684455 181.71875 
L 432.064909 181.5 
L 432.369273 181.5625 
L 432.445364 181.65625 
L 432.521455 181.46875 
L 432.673636 181.65625 
L 432.825818 181.46875 
L 433.358455 181.71875 
L 433.434545 181.5625 
L 433.510636 181.65625 
L 433.586727 181.59375 
L 433.662818 181.6875 
L 433.815 181.46875 
L 433.891091 181.65625 
L 433.967182 181.5625 
L 434.043273 181.71875 
L 434.119364 181.5625 
L 434.195455 181.71875 
L 434.271545 181.65625 
L 434.347636 181.71875 
L 434.499818 181.46875 
L 434.575909 181.65625 
L 434.728091 181.5 
L 434.804182 181.65625 
L 434.880273 181.59375 
L 434.956364 181.6875 
L 435.108545 181.46875 
L 435.184636 181.59375 
L 435.260727 181.5 
L 435.336818 181.5625 
L 435.412909 181.53125 
L 435.565091 181.71875 
L 435.793364 181.5 
L 435.869455 181.71875 
L 436.021636 181.46875 
L 436.173818 181.75 
L 436.326 181.46875 
L 436.858636 181.53125 
L 437.010818 181.71875 
L 437.239091 181.5 
L 437.315182 181.71875 
L 437.391273 181.53125 
L 437.467364 181.75 
L 437.543455 181.5 
L 437.619545 181.5625 
L 437.695636 181.71875 
L 437.847818 181.5625 
L 438.228273 181.71875 
L 438.304364 181.53125 
L 438.456545 181.71875 
L 438.532636 181.5625 
L 438.608727 181.71875 
L 438.684818 181.46875 
L 438.760909 181.53125 
L 438.837 181.5625 
L 438.913091 181.71875 
L 438.989182 181.46875 
L 439.065273 181.53125 
L 439.217455 181.4375 
L 439.369636 181.71875 
L 439.521818 181.75 
L 439.597909 181.59375 
L 439.674 181.6875 
L 439.902273 181.6875 
L 440.054455 181.46875 
L 440.206636 181.65625 
L 440.282727 181.53125 
L 440.358818 181.65625 
L 440.511 181.59375 
L 440.891455 181.6875 
L 440.967545 181.75 
L 441.119727 181.5 
L 441.271909 181.71875 
L 441.500182 181.75 
L 441.576273 181.53125 
L 441.652364 181.59375 
L 441.804545 181.4375 
L 441.880636 181.75 
L 441.956727 181.4375 
L 442.032818 181.5625 
L 442.108909 181.5 
L 442.185 181.59375 
L 442.261091 181.5 
L 442.413273 181.75 
L 442.565455 181.46875 
L 442.641545 181.71875 
L 442.717636 181.59375 
L 442.793727 181.46875 
L 442.869818 181.75 
L 442.945909 181.4375 
L 443.022 181.6875 
L 443.174182 181.46875 
L 443.706818 181.65625 
L 443.782909 181.5 
L 443.859 181.71875 
L 444.011182 181.5625 
L 444.087273 181.65625 
L 444.163364 181.4375 
L 444.239455 181.53125 
L 444.315545 181.46875 
L 444.391636 181.65625 
L 444.467727 181.4375 
L 444.543818 181.5 
L 444.619909 181.4375 
L 444.696 181.65625 
L 444.772091 181.46875 
L 444.924273 181.71875 
L 445.152545 181.4375 
L 445.304727 181.5625 
L 445.380818 181.5625 
L 445.456909 181.75 
L 445.533 181.59375 
L 445.609091 181.65625 
L 445.685182 181.78125 
L 445.761273 181.46875 
L 445.837364 181.59375 
L 445.913455 181.4375 
L 445.989545 181.65625 
L 446.065636 181.46875 
L 446.141727 181.5 
L 446.217818 181.46875 
L 446.446091 181.8125 
L 446.522182 181.4375 
L 446.674364 181.71875 
L 446.750455 181.4375 
L 446.826545 181.65625 
L 446.902636 181.59375 
L 446.978727 181.5625 
L 447.130909 181.78125 
L 447.207 181.46875 
L 447.359182 181.78125 
L 447.435273 181.4375 
L 447.511364 181.5625 
L 447.587455 181.8125 
L 447.663545 181.5 
L 447.739636 181.71875 
L 447.815727 181.65625 
L 448.044 181.8125 
L 448.196182 181.4375 
L 448.348364 181.75 
L 448.424455 181.65625 
L 448.576636 181.4375 
L 448.652727 181.8125 
L 448.728818 181.59375 
L 448.881 181.71875 
L 448.957091 181.75 
L 449.185364 181.5 
L 449.261455 181.8125 
L 449.337545 181.78125 
L 449.489727 181.4375 
L 449.565818 181.5625 
L 449.794091 181.78125 
L 449.870182 181.4375 
L 449.946273 181.65625 
L 450.098455 181.4375 
L 450.250636 181.71875 
L 450.326727 181.53125 
L 450.402818 181.78125 
L 450.478909 181.375 
L 450.631091 181.71875 
L 450.707182 181.8125 
L 450.783273 181.65625 
L 450.859364 181.71875 
L 451.011545 181.71875 
L 451.087636 181.4375 
L 451.239818 181.65625 
L 451.315909 181.65625 
L 451.468091 181.4375 
L 451.620273 181.71875 
L 451.772455 181.46875 
L 451.848545 181.71875 
L 451.924636 181.6875 
L 452.000727 181.71875 
L 452.152909 181.53125 
L 452.229 181.8125 
L 452.305091 181.6875 
L 452.457273 181.4375 
L 452.457273 181.4375 
" clip-path="url(#p327d0e8929)" style="fill: none; stroke: #0b3c5d; stroke-width: 2.6; stroke-linecap: square"/>
   </g>
   <g id="line2d_143">
    <path d="M 72.002727 181.59375 
L 365.028818 181.65625 
L 365.181 181.65625 
L 366.170182 181.59375 
L 366.246273 181.5 
L 366.398455 181.65625 
L 366.626727 181.5625 
L 366.855 181.5625 
L 383.518909 181.59375 
L 383.671091 181.65625 
L 383.899364 181.65625 
L 383.975455 181.65625 
L 384.051545 181.53125 
L 384.127636 181.65625 
L 384.279818 181.53125 
L 384.355909 181.6875 
L 384.432 181.59375 
L 391.280182 181.5625 
L 391.356273 181.71875 
L 391.508455 181.5625 
L 391.736727 181.59375 
L 391.812818 181.71875 
L 392.041091 181.53125 
L 392.193273 181.59375 
L 392.269364 181.53125 
L 392.421545 181.65625 
L 392.497636 181.53125 
L 392.573727 181.59375 
L 392.725909 181.59375 
L 392.802 181.71875 
L 392.878091 181.59375 
L 392.954182 181.65625 
L 393.106364 181.65625 
L 393.182455 181.53125 
L 393.258545 181.65625 
L 393.334636 181.59375 
L 393.410727 181.65625 
L 393.639 181.53125 
L 394.019455 181.65625 
L 394.095545 181.53125 
L 394.171636 181.59375 
L 395.845636 181.5625 
L 395.997818 181.71875 
L 396.15 181.53125 
L 396.226091 181.65625 
L 396.378273 181.65625 
L 396.454364 181.53125 
L 396.606545 181.6875 
L 396.758727 181.5625 
L 396.834818 181.6875 
L 396.987 181.53125 
L 397.215273 181.53125 
L 397.367455 181.53125 
L 397.519636 181.71875 
L 397.747909 181.53125 
L 397.900091 181.65625 
L 397.976182 181.65625 
L 398.128364 181.53125 
L 398.204455 181.65625 
L 398.280545 181.59375 
L 401.172 181.59375 
L 401.248091 181.71875 
L 401.400273 181.59375 
L 401.476364 181.6875 
L 401.552455 181.5625 
L 401.780727 181.6875 
L 401.932909 181.53125 
L 402.085091 181.65625 
L 402.237273 181.5 
L 402.389455 181.65625 
L 402.465545 181.46875 
L 402.617727 181.59375 
L 402.693818 181.53125 
L 402.922091 181.71875 
L 403.074273 181.65625 
L 403.226455 181.5 
L 403.454727 181.71875 
L 403.530818 181.59375 
L 403.606909 181.65625 
L 403.683 181.71875 
L 403.835182 181.53125 
L 403.911273 181.65625 
L 404.063455 181.5 
L 404.291727 181.71875 
L 404.367818 181.5625 
L 404.443909 181.65625 
L 404.596091 181.65625 
L 404.900455 181.53125 
L 405.052636 181.71875 
L 405.128727 181.71875 
L 405.357 181.5 
L 405.585273 181.5625 
L 405.737455 181.65625 
L 405.889636 181.5 
L 405.965727 181.65625 
L 406.041818 181.53125 
L 406.117909 181.71875 
L 406.270091 181.53125 
L 406.346182 181.5 
L 406.498364 181.65625 
L 406.650545 181.6875 
L 406.726636 181.5 
L 406.802727 181.59375 
L 406.878818 181.65625 
L 407.031 181.53125 
L 407.183182 181.59375 
L 407.259273 181.5 
L 407.411455 181.71875 
L 407.563636 181.5 
L 407.639727 181.46875 
L 407.715818 181.71875 
L 407.791909 181.5625 
L 407.868 181.65625 
L 408.020182 181.65625 
L 408.096273 181.65625 
L 408.248455 181.53125 
L 408.400636 181.71875 
L 408.476727 181.5 
L 408.552818 181.5625 
L 408.628909 181.65625 
L 408.705 181.5625 
L 408.781091 181.6875 
L 409.009364 181.46875 
L 409.085455 181.71875 
L 409.161545 181.59375 
L 409.237636 181.65625 
L 409.313727 181.5625 
L 409.389818 181.65625 
L 409.618091 181.46875 
L 409.846364 181.5625 
L 409.922455 181.5 
L 409.998545 181.65625 
L 410.074636 181.5625 
L 410.150727 181.5625 
L 410.226818 181.6875 
L 410.302909 181.46875 
L 410.379 181.6875 
L 410.455091 181.65625 
L 410.607273 181.53125 
L 410.835545 181.65625 
L 410.987727 181.53125 
L 411.063818 181.53125 
L 411.139909 181.71875 
L 411.216 181.59375 
L 411.368182 181.75 
L 411.596455 181.53125 
L 411.672545 181.71875 
L 411.748636 181.53125 
L 411.824727 181.5625 
L 411.900818 181.71875 
L 412.053 181.59375 
L 412.357364 181.53125 
L 412.509545 181.78125 
L 412.585636 181.46875 
L 412.737818 181.71875 
L 412.89 181.59375 
L 412.966091 181.78125 
L 413.118273 181.53125 
L 413.270455 181.6875 
L 413.346545 181.46875 
L 413.422636 181.65625 
L 413.498727 181.5625 
L 414.335727 181.65625 
L 414.411818 181.6875 
L 414.564 181.53125 
L 414.792273 181.59375 
L 417.683727 181.65625 
L 417.759818 181.71875 
L 417.912 181.53125 
L 418.140273 181.71875 
L 418.216364 181.53125 
L 418.292455 181.5625 
L 418.444636 181.5625 
L 418.520727 181.5 
L 418.596818 181.65625 
L 418.672909 181.53125 
L 418.749 181.65625 
L 418.825091 181.59375 
L 419.053364 181.5 
L 419.129455 181.71875 
L 419.205545 181.53125 
L 419.281636 181.5625 
L 419.357727 181.65625 
L 419.433818 181.53125 
L 419.509909 181.59375 
L 420.499091 181.59375 
L 420.575182 181.71875 
L 420.651273 181.53125 
L 420.727364 181.5625 
L 420.955636 181.65625 
L 421.031727 181.5 
L 421.107818 181.59375 
L 421.183909 181.71875 
L 421.26 181.65625 
L 421.488273 181.5625 
L 421.640455 181.5 
L 421.868727 181.65625 
L 422.325273 181.65625 
L 422.477455 181.53125 
L 422.705727 181.59375 
L 422.781818 181.5625 
L 422.857909 181.6875 
L 423.010091 181.5 
L 423.162273 181.6875 
L 423.238364 181.6875 
L 423.390545 181.53125 
L 423.466636 181.65625 
L 423.542727 181.59375 
L 423.694909 181.53125 
L 423.847091 181.65625 
L 423.923182 181.53125 
L 423.999273 181.6875 
L 424.075364 181.53125 
L 424.227545 181.65625 
L 424.379727 181.53125 
L 424.531909 181.65625 
L 424.608 181.53125 
L 424.760182 181.6875 
L 425.064545 181.5 
L 425.216727 181.65625 
L 425.292818 181.5625 
L 425.521091 181.6875 
L 425.597182 181.53125 
L 425.673273 181.65625 
L 425.749364 181.59375 
L 425.901545 181.65625 
L 425.977636 181.5 
L 426.053727 181.6875 
L 426.205909 181.5625 
L 426.282 181.71875 
L 426.434182 181.59375 
L 426.510273 181.6875 
L 426.662455 181.5 
L 426.890727 181.65625 
L 427.042909 181.53125 
L 427.119 181.5 
L 427.271182 181.65625 
L 427.575545 181.5625 
L 427.651636 181.53125 
L 427.727727 181.6875 
L 427.803818 181.53125 
L 427.956 181.65625 
L 428.108182 181.6875 
L 428.184273 181.5 
L 428.260364 181.59375 
L 428.412545 181.6875 
L 428.564727 181.53125 
L 428.640818 181.71875 
L 428.793 181.53125 
L 428.945182 181.71875 
L 429.097364 181.5 
L 429.249545 181.5625 
L 429.325636 181.5 
L 429.401727 181.65625 
L 429.477818 181.53125 
L 429.553909 181.71875 
L 429.63 181.65625 
L 430.543091 181.59375 
L 430.619182 181.53125 
L 430.771364 181.65625 
L 430.999636 181.53125 
L 431.227909 181.71875 
L 431.304 181.5 
L 431.456182 181.65625 
L 431.532273 181.5 
L 431.684455 181.71875 
L 432.064909 181.5 
L 432.369273 181.5625 
L 432.445364 181.65625 
L 432.521455 181.46875 
L 432.673636 181.65625 
L 432.825818 181.46875 
L 433.358455 181.71875 
L 433.434545 181.5625 
L 433.510636 181.65625 
L 433.586727 181.59375 
L 433.662818 181.6875 
L 433.815 181.46875 
L 433.891091 181.65625 
L 433.967182 181.5625 
L 434.043273 181.71875 
L 434.119364 181.5625 
L 434.195455 181.71875 
L 434.271545 181.65625 
L 434.347636 181.71875 
L 434.499818 181.46875 
L 434.575909 181.65625 
L 434.728091 181.5 
L 434.804182 181.65625 
L 434.880273 181.59375 
L 434.956364 181.6875 
L 435.108545 181.46875 
L 435.184636 181.59375 
L 435.260727 181.5 
L 435.336818 181.5625 
L 435.412909 181.53125 
L 435.565091 181.71875 
L 435.793364 181.5 
L 435.869455 181.71875 
L 436.021636 181.46875 
L 436.173818 181.75 
L 436.326 181.46875 
L 436.858636 181.53125 
L 437.010818 181.71875 
L 437.239091 181.5 
L 437.315182 181.71875 
L 437.391273 181.53125 
L 437.467364 181.75 
L 437.543455 181.5 
L 437.619545 181.5625 
L 437.695636 181.71875 
L 437.847818 181.5625 
L 438.228273 181.71875 
L 438.304364 181.53125 
L 438.456545 181.71875 
L 438.532636 181.5625 
L 438.608727 181.71875 
L 438.684818 181.46875 
L 438.760909 181.53125 
L 438.837 181.5625 
L 438.913091 181.71875 
L 438.989182 181.46875 
L 439.065273 181.53125 
L 439.217455 181.4375 
L 439.369636 181.71875 
L 439.521818 181.75 
L 439.597909 181.59375 
L 439.674 181.6875 
L 439.902273 181.6875 
L 440.054455 181.46875 
L 440.206636 181.65625 
L 440.282727 181.53125 
L 440.358818 181.65625 
L 440.511 181.59375 
L 440.891455 181.6875 
L 440.967545 181.75 
L 441.119727 181.5 
L 441.271909 181.71875 
L 441.500182 181.75 
L 441.576273 181.53125 
L 441.652364 181.59375 
L 441.804545 181.4375 
L 441.880636 181.75 
L 441.956727 181.4375 
L 442.032818 181.5625 
L 442.108909 181.5 
L 442.185 181.59375 
L 442.261091 181.5 
L 442.413273 181.75 
L 442.565455 181.46875 
L 442.641545 181.71875 
L 442.717636 181.59375 
L 442.793727 181.46875 
L 442.869818 181.75 
L 442.945909 181.4375 
L 443.022 181.6875 
L 443.174182 181.46875 
L 443.706818 181.65625 
L 443.782909 181.5 
L 443.859 181.71875 
L 444.011182 181.5625 
L 444.087273 181.65625 
L 444.163364 181.4375 
L 444.239455 181.53125 
L 444.315545 181.46875 
L 444.391636 181.65625 
L 444.467727 181.4375 
L 444.543818 181.5 
L 444.619909 181.4375 
L 444.696 181.65625 
L 444.772091 181.46875 
L 444.924273 181.71875 
L 445.152545 181.4375 
L 445.304727 181.5625 
L 445.380818 181.5625 
L 445.456909 181.75 
L 445.533 181.59375 
L 445.609091 181.65625 
L 445.685182 181.78125 
L 445.761273 181.46875 
L 445.837364 181.59375 
L 445.913455 181.4375 
L 445.989545 181.65625 
L 446.065636 181.46875 
L 446.141727 181.5 
L 446.217818 181.46875 
L 446.446091 181.8125 
L 446.522182 181.4375 
L 446.674364 181.71875 
L 446.750455 181.4375 
L 446.826545 181.65625 
L 446.902636 181.59375 
L 446.978727 181.5625 
L 447.130909 181.78125 
L 447.207 181.46875 
L 447.359182 181.78125 
L 447.435273 181.4375 
L 447.511364 181.5625 
L 447.587455 181.8125 
L 447.663545 181.5 
L 447.739636 181.71875 
L 447.815727 181.65625 
L 448.044 181.8125 
L 448.196182 181.4375 
L 448.348364 181.75 
L 448.424455 181.65625 
L 448.576636 181.4375 
L 448.652727 181.8125 
L 448.728818 181.59375 
L 448.881 181.71875 
L 448.957091 181.75 
L 449.185364 181.5 
L 449.261455 181.8125 
L 449.337545 181.78125 
L 449.489727 181.4375 
L 449.565818 181.5625 
L 449.794091 181.78125 
L 449.870182 181.4375 
L 449.946273 181.65625 
L 450.098455 181.4375 
L 450.250636 181.71875 
L 450.326727 181.53125 
L 450.402818 181.78125 
L 450.478909 181.375 
L 450.631091 181.71875 
L 450.707182 181.8125 
L 450.783273 181.65625 
L 450.859364 181.71875 
L 451.011545 181.71875 
L 451.087636 181.4375 
L 451.239818 181.65625 
L 451.315909 181.65625 
L 451.468091 181.4375 
L 451.620273 181.71875 
L 451.772455 181.46875 
L 451.848545 181.71875 
L 451.924636 181.6875 
L 452.000727 181.71875 
L 452.152909 181.53125 
L 452.229 181.8125 
L 452.305091 181.6875 
L 452.457273 181.4375 
L 452.457273 181.4375 
" clip-path="url(#p327d0e8929)" style="fill: none; stroke-dasharray: 9.62,4.16; stroke-dashoffset: 0; stroke: #c0392b; stroke-width: 2.6"/>
   </g>
   <g id="patch_3">
    <path d="M 52.98 325.71875 
L 52.98 37.4375 
" style="fill: none; stroke: #000000; stroke-width: 0.5; stroke-linejoin: miter; stroke-linecap: square"/>
   </g>
   <g id="patch_4">
    <path d="M 471.48 325.71875 
L 471.48 37.4375 
" style="fill: none; stroke: #000000; stroke-width: 0.5; stroke-linejoin: miter; stroke-linecap: square"/>
   </g>
   <g id="patch_5">
    <path d="M 52.98 325.723625 
L 471.48 325.723625 
" style="fill: none; stroke: #000000; stroke-width: 0.5; stroke-linejoin: miter; stroke-linecap: square"/>
   </g>
   <g id="patch_6">
    <path d="M 52.98 37.435625 
L 471.48 37.435625 
" style="fill: none; stroke: #000000; stroke-width: 0.5; stroke-linejoin: miter; stroke-linecap: square"/>
   </g>
   <g id="text_19">
    <!-- Second-Order Coherence $g_2$ for $U=0$ vs $U=1$ ($|\alpha=\sqrt{10}\rangle$, $\gamma=1$) -->
    <g transform="translate(45.27 20.24) scale(0.16 -0.16)">
     <defs>
      <path id="STIXGeneral-Regular-53" d="M 3002 2963 
L 2842 2963 
Q 2733 3360 2579 3565 
Q 2189 4064 1651 4064 
Q 1357 4064 1181 3894 
Q 1005 3725 1005 3456 
Q 1005 3328 1069 3206 
Q 1133 3085 1206 2998 
Q 1280 2912 1465 2784 
Q 1651 2656 1766 2589 
Q 1882 2522 2150 2362 
Q 2669 2061 2905 1763 
Q 3142 1466 3142 1107 
Q 3142 576 2771 243 
Q 2400 -90 1837 -90 
Q 1421 -90 1082 58 
Q 915 128 781 128 
Q 704 128 653 70 
Q 602 13 602 -83 
L 461 -83 
L 275 1274 
L 416 1274 
Q 845 141 1734 141 
Q 2074 141 2285 342 
Q 2496 544 2496 858 
Q 2496 1158 2310 1363 
Q 2003 1696 1235 2106 
Q 454 2522 454 3206 
Q 454 3718 768 4022 
Q 1082 4326 1568 4326 
Q 1907 4326 2240 4186 
Q 2413 4109 2522 4109 
Q 2688 4109 2726 4326 
L 2861 4326 
L 3002 2963 
z
" transform="scale(0.015625)"/>
      <path id="STIXGeneral-Regular-63" d="M 2547 998 
L 2637 941 
Q 2362 403 2112 205 
Q 1786 -64 1376 -64 
Q 845 -64 502 336 
Q 160 736 160 1357 
Q 160 2170 698 2618 
Q 1094 2944 1562 2944 
Q 1965 2944 2256 2749 
Q 2547 2554 2547 2285 
Q 2547 2176 2457 2096 
Q 2368 2016 2246 2016 
Q 2022 2016 1939 2310 
L 1901 2451 
Q 1850 2630 1773 2694 
Q 1696 2758 1523 2758 
Q 1133 2758 893 2451 
Q 653 2144 653 1645 
Q 653 1094 928 745 
Q 1203 397 1645 397 
Q 1920 397 2118 528 
Q 2317 659 2547 998 
z
" transform="scale(0.015625)"/>
      <path id="STIXGeneral-Regular-6f" d="M 3008 1478 
Q 3008 806 2608 371 
Q 2208 -64 1568 -64 
Q 979 -64 582 368 
Q 186 800 186 1459 
Q 186 2125 582 2534 
Q 979 2944 1626 2944 
Q 2221 2944 2614 2537 
Q 3008 2131 3008 1478 
z
M 2432 1306 
Q 2432 2035 2112 2445 
Q 1856 2765 1504 2765 
Q 1171 2765 966 2493 
Q 762 2221 762 1747 
Q 762 928 1101 435 
Q 1318 115 1677 115 
Q 2029 115 2230 432 
Q 2432 749 2432 1306 
z
" transform="scale(0.015625)"/>
      <path id="STIXGeneral-Regular-6e" d="M 3104 0 
L 1773 0 
L 1779 96 
Q 2016 115 2096 233 
Q 2176 352 2176 672 
L 2176 1946 
Q 2176 2592 1709 2592 
Q 1549 2592 1408 2515 
Q 1267 2438 1050 2227 
L 1050 461 
Q 1050 269 1136 192 
Q 1222 115 1466 96 
L 1466 0 
L 115 0 
L 115 96 
Q 358 115 435 214 
Q 512 314 512 602 
L 512 2157 
Q 512 2394 467 2483 
Q 422 2573 288 2573 
Q 160 2573 102 2547 
L 102 2656 
Q 550 2784 979 2944 
L 1030 2925 
L 1030 2426 
L 1037 2426 
Q 1491 2944 1958 2944 
Q 2323 2944 2518 2688 
Q 2714 2432 2714 1958 
L 2714 544 
Q 2714 288 2790 205 
Q 2867 122 3104 96 
L 3104 0 
z
" transform="scale(0.015625)"/>
      <path id="STIXGeneral-Regular-64" d="M 3142 269 
L 2202 -64 
L 2176 -45 
L 2176 365 
Q 1869 -64 1357 -64 
Q 826 -64 499 317 
Q 173 698 173 1312 
Q 173 1990 563 2467 
Q 954 2944 1504 2944 
Q 1850 2944 2176 2669 
L 2176 3667 
Q 2176 3866 2118 3930 
Q 2061 3994 1882 3994 
Q 1792 3994 1741 3987 
L 1741 4090 
Q 2323 4243 2682 4371 
L 2714 4358 
L 2714 730 
Q 2714 506 2768 435 
Q 2822 365 2995 365 
Q 3034 365 3142 371 
L 3142 269 
z
M 2176 653 
L 2176 2125 
Q 2176 2381 1981 2573 
Q 1786 2765 1523 2765 
Q 1158 2765 940 2438 
Q 723 2112 723 1568 
Q 723 979 963 624 
Q 1203 269 1606 269 
Q 1907 269 2080 474 
Q 2176 582 2176 653 
z
" transform="scale(0.015625)"/>
      <path id="STIXGeneral-Regular-2d" d="M 1824 1242 
L 250 1242 
L 250 1645 
L 1824 1645 
L 1824 1242 
z
" transform="scale(0.015625)"/>
      <path id="STIXGeneral-Regular-4f" d="M 4403 2118 
Q 4403 1133 3820 521 
Q 3238 -90 2310 -90 
Q 1376 -90 797 524 
Q 218 1139 218 2138 
Q 218 3110 797 3718 
Q 1376 4326 2310 4326 
Q 3245 4326 3824 3702 
Q 4403 3078 4403 2118 
z
M 3674 2157 
Q 3674 2701 3520 3133 
Q 3366 3565 3091 3795 
Q 2733 4096 2304 4096 
Q 1760 4096 1389 3667 
Q 1184 3437 1065 3011 
Q 947 2586 947 2125 
Q 947 960 1523 429 
Q 1837 141 2317 141 
Q 2816 141 3142 448 
Q 3674 960 3674 2157 
z
" transform="scale(0.015625)"/>
      <path id="STIXGeneral-Regular-72" d="M 1024 2931 
L 1024 2342 
Q 1267 2688 1430 2816 
Q 1594 2944 1792 2944 
Q 1958 2944 2051 2854 
Q 2144 2765 2144 2605 
Q 2144 2470 2077 2393 
Q 2010 2317 1894 2317 
Q 1773 2317 1638 2445 
Q 1536 2541 1472 2541 
Q 1338 2541 1181 2355 
Q 1024 2170 1024 2016 
L 1024 576 
Q 1024 301 1133 205 
Q 1242 109 1568 96 
L 1568 0 
L 32 0 
L 32 96 
Q 339 154 412 224 
Q 486 294 486 538 
L 486 2138 
Q 486 2349 438 2435 
Q 390 2522 269 2522 
Q 166 2522 45 2496 
L 45 2598 
Q 448 2726 992 2944 
L 1024 2931 
z
" transform="scale(0.015625)"/>
      <path id="STIXGeneral-Regular-20" transform="scale(0.015625)"/>
      <path id="STIXGeneral-Regular-43" d="M 3930 838 
L 4051 723 
Q 3482 -90 2304 -90 
Q 1376 -90 794 480 
Q 179 1082 179 2080 
Q 179 3014 755 3661 
Q 1357 4326 2310 4326 
Q 2720 4326 3072 4230 
Q 3475 4115 3514 4115 
Q 3725 4115 3782 4326 
L 3910 4326 
L 3968 2874 
L 3821 2874 
Q 3718 3334 3488 3584 
Q 3034 4070 2458 4070 
Q 1747 4070 1334 3548 
Q 922 3027 922 2182 
Q 922 1152 1382 653 
Q 1811 192 2522 192 
Q 2944 192 3251 339 
Q 3558 486 3930 838 
z
" transform="scale(0.015625)"/>
      <path id="STIXGeneral-Regular-68" d="M 3117 0 
L 1760 0 
L 1760 96 
Q 2042 128 2118 224 
Q 2195 320 2195 653 
L 2195 1920 
Q 2195 2598 1722 2598 
Q 1530 2598 1370 2508 
Q 1210 2419 1005 2195 
L 1005 653 
Q 1005 320 1081 224 
Q 1158 128 1440 96 
L 1440 0 
L 58 0 
L 58 96 
Q 333 134 400 224 
Q 467 314 467 653 
L 467 3667 
Q 467 3872 406 3933 
Q 346 3994 141 3994 
Q 83 3994 64 3987 
L 64 4090 
L 237 4141 
Q 730 4288 973 4371 
L 1005 4352 
L 1005 2406 
Q 1229 2694 1446 2819 
Q 1664 2944 1946 2944 
Q 2733 2944 2733 1926 
L 2733 653 
Q 2733 320 2793 233 
Q 2854 147 3117 96 
L 3117 0 
z
" transform="scale(0.015625)"/>
      <path id="STIXGeneral-Regular-66" d="M 134 2880 
L 659 2880 
Q 666 3264 710 3478 
Q 755 3693 883 3910 
Q 1152 4371 1786 4371 
Q 2074 4371 2262 4259 
Q 2451 4147 2451 3974 
Q 2451 3866 2374 3789 
Q 2298 3712 2182 3712 
Q 2029 3712 1894 3942 
Q 1741 4192 1555 4192 
Q 1197 4192 1197 3622 
L 1197 2880 
L 1978 2880 
L 1978 2675 
L 1197 2675 
L 1197 666 
Q 1197 307 1299 208 
Q 1402 109 1792 96 
L 1792 0 
L 128 0 
L 128 96 
Q 474 115 566 214 
Q 659 314 659 666 
L 659 2675 
L 134 2675 
L 134 2880 
z
" transform="scale(0.015625)"/>
      <path id="Cmmi10-55" d="M 941 891 
Q 941 656 1033 472 
Q 1125 288 1300 186 
Q 1475 84 1709 84 
Q 1984 84 2245 196 
Q 2506 309 2715 509 
Q 2925 709 3073 965 
Q 3222 1222 3284 1472 
L 3859 3781 
Q 3872 3850 3872 3878 
Q 3872 4147 3378 4147 
Q 3316 4147 3316 4231 
Q 3338 4313 3350 4342 
Q 3363 4372 3425 4372 
L 4813 4372 
Q 4841 4372 4859 4344 
Q 4878 4316 4878 4288 
Q 4878 4284 4865 4239 
Q 4853 4194 4836 4170 
Q 4819 4147 4794 4147 
Q 4181 4147 4084 3756 
L 3506 1447 
Q 3434 1147 3264 864 
Q 3094 581 2845 351 
Q 2597 122 2298 -9 
Q 2000 -141 1691 -141 
Q 1338 -141 1045 14 
Q 753 169 587 447 
Q 422 725 422 1088 
Q 422 1297 469 1472 
L 1088 3956 
Q 1100 4019 1100 4044 
Q 1100 4113 1025 4122 
Q 903 4147 563 4147 
Q 500 4147 500 4231 
Q 522 4313 534 4342 
Q 547 4372 609 4372 
L 2328 4372 
Q 2394 4372 2394 4288 
Q 2391 4272 2381 4234 
Q 2372 4197 2356 4172 
Q 2341 4147 2309 4147 
Q 1919 4147 1766 4103 
Q 1681 4072 1644 3928 
L 1025 1447 
Q 941 1109 941 891 
z
" transform="scale(0.015625)"/>
      <path id="Cmr10-3d" d="M 481 850 
Q 428 850 393 890 
Q 359 931 359 978 
Q 359 1031 393 1068 
Q 428 1106 481 1106 
L 4500 1106 
Q 4547 1106 4581 1068 
Q 4616 1031 4616 978 
Q 4616 931 4581 890 
Q 4547 850 4500 850 
L 481 850 
z
M 481 2094 
Q 428 2094 393 2131 
Q 359 2169 359 2222 
Q 359 2269 393 2309 
Q 428 2350 481 2350 
L 4500 2350 
Q 4547 2350 4581 2309 
Q 4616 2269 4616 2222 
Q 4616 2169 4581 2131 
Q 4547 2094 4500 2094 
L 481 2094 
z
" transform="scale(0.015625)"/>
      <path id="Cmr10-30" d="M 1600 -141 
Q 816 -141 533 504 
Q 250 1150 250 2041 
Q 250 2597 351 3087 
Q 453 3578 754 3920 
Q 1056 4263 1600 4263 
Q 2022 4263 2290 4056 
Q 2559 3850 2700 3523 
Q 2841 3197 2892 2823 
Q 2944 2450 2944 2041 
Q 2944 1491 2842 1011 
Q 2741 531 2444 195 
Q 2147 -141 1600 -141 
z
M 1600 25 
Q 1956 25 2131 390 
Q 2306 756 2347 1200 
Q 2388 1644 2388 2144 
Q 2388 2625 2347 3031 
Q 2306 3438 2132 3767 
Q 1959 4097 1600 4097 
Q 1238 4097 1063 3765 
Q 888 3434 847 3029 
Q 806 2625 806 2144 
Q 806 1788 823 1472 
Q 841 1156 916 820 
Q 991 484 1158 254 
Q 1325 25 1600 25 
z
" transform="scale(0.015625)"/>
      <path id="STIXGeneral-Regular-76" d="M 3053 2880 
L 3053 2784 
Q 2906 2771 2835 2688 
Q 2765 2605 2637 2285 
L 1818 230 
Q 1690 -90 1638 -90 
Q 1587 -90 1523 77 
Q 1510 96 1497 141 
Q 1485 186 1472 211 
L 704 2048 
Q 499 2534 403 2652 
Q 307 2771 122 2784 
L 122 2880 
L 1376 2880 
L 1376 2784 
Q 1210 2771 1146 2732 
Q 1082 2694 1082 2611 
Q 1082 2509 1139 2368 
L 1792 730 
L 2426 2387 
Q 2464 2483 2464 2579 
Q 2464 2758 2163 2784 
L 2163 2880 
L 3053 2880 
z
" transform="scale(0.015625)"/>
      <path id="STIXGeneral-Regular-73" d="M 998 1926 
L 1664 1523 
Q 1984 1331 2105 1164 
Q 2227 998 2227 736 
Q 2227 416 1961 176 
Q 1696 -64 1331 -64 
Q 1030 -64 864 -6 
Q 691 51 570 51 
Q 461 51 416 -26 
L 333 -26 
L 333 979 
L 435 979 
Q 538 512 730 294 
Q 922 77 1248 77 
Q 1485 77 1632 211 
Q 1779 346 1779 550 
Q 1779 845 1440 1030 
L 1094 1222 
Q 326 1651 326 2150 
Q 326 2522 566 2730 
Q 806 2938 1210 2938 
Q 1491 2938 1638 2867 
Q 1754 2816 1818 2816 
Q 1862 2816 1920 2880 
L 1990 2880 
L 2022 2010 
L 1926 2010 
Q 1818 2445 1654 2621 
Q 1491 2797 1203 2797 
Q 986 2797 854 2688 
Q 723 2579 723 2362 
Q 723 2253 796 2128 
Q 870 2003 998 1926 
z
" transform="scale(0.015625)"/>
      <path id="Cmr10-31" d="M 594 0 
L 594 225 
Q 1394 225 1394 428 
L 1394 3788 
Q 1063 3628 556 3628 
L 556 3853 
Q 1341 3853 1741 4263 
L 1831 4263 
Q 1853 4263 1873 4245 
Q 1894 4228 1894 4206 
L 1894 428 
Q 1894 225 2694 225 
L 2694 0 
L 594 0 
z
" transform="scale(0.015625)"/>
      <path id="STIXGeneral-Regular-28" d="M 1946 -1030 
L 1869 -1133 
Q 1126 -710 716 32 
Q 307 774 307 1613 
Q 307 3386 1888 4326 
L 1946 4224 
Q 1293 3667 1075 3126 
Q 858 2586 858 1632 
Q 858 685 1082 96 
Q 1306 -493 1946 -1030 
z
" transform="scale(0.015625)"/>
      <path id="Cmsy10-6a" d="M 763 -1484 
L 763 4684 
Q 763 4734 800 4767 
Q 838 4800 891 4800 
Q 938 4800 978 4767 
Q 1019 4734 1019 4684 
L 1019 -1484 
Q 1019 -1534 978 -1567 
Q 938 -1600 891 -1600 
Q 838 -1600 800 -1567 
Q 763 -1534 763 -1484 
z
" transform="scale(0.015625)"/>
      <path id="Cmmi10-ae" d="M 1288 -72 
Q 984 -72 748 72 
Q 513 216 384 459 
Q 256 703 256 1013 
Q 256 1447 498 1872 
Q 741 2297 1142 2562 
Q 1544 2828 1984 2828 
Q 2309 2828 2556 2658 
Q 2803 2488 2931 2205 
Q 3059 1922 3059 1600 
L 3066 1172 
Q 3284 1475 3436 1801 
Q 3588 2128 3669 2478 
Q 3681 2516 3719 2516 
L 3794 2516 
Q 3853 2516 3853 2456 
Q 3853 2450 3847 2438 
Q 3772 2144 3659 1873 
Q 3547 1603 3395 1350 
Q 3244 1097 3066 891 
Q 3066 97 3250 97 
Q 3369 97 3445 167 
Q 3522 238 3580 341 
Q 3638 444 3653 447 
L 3731 447 
Q 3781 447 3781 384 
Q 3781 225 3598 76 
Q 3416 -72 3238 -72 
Q 3006 -72 2853 78 
Q 2700 228 2644 469 
Q 2344 213 1994 70 
Q 1644 -72 1288 -72 
z
M 1300 97 
Q 1984 97 2613 659 
Q 2609 697 2603 751 
Q 2597 806 2597 813 
L 2597 1503 
Q 2597 2663 1972 2663 
Q 1597 2663 1315 2342 
Q 1034 2022 892 1576 
Q 750 1131 750 763 
Q 750 484 892 290 
Q 1034 97 1300 97 
z
" transform="scale(0.015625)"/>
      <path id="Cmex10-70" d="M 2713 -7425 
L 1269 -4063 
L 819 -4409 
L 703 -4294 
L 1619 -3584 
L 2969 -6725 
L 6291 197 
Q 6322 256 6400 256 
Q 6453 256 6490 218 
Q 6528 181 6528 128 
Q 6528 97 6522 84 
L 2950 -7366 
Q 2925 -7425 2853 -7425 
L 2713 -7425 
z
" transform="scale(0.015625)"/>
      <path id="Cmex10-ae" d="M 500 -7297 
Q 500 -7263 513 -7250 
L 2119 -3584 
L 513 84 
Q 500 97 500 128 
Q 500 175 537 215 
Q 575 256 628 256 
Q 703 256 750 178 
L 2381 -3541 
Q 2388 -3553 2388 -3584 
Q 2388 -3616 2381 -3634 
L 750 -7347 
Q 700 -7425 628 -7425 
Q 575 -7425 537 -7384 
Q 500 -7344 500 -7297 
z
" transform="scale(0.015625)"/>
      <path id="STIXGeneral-Regular-2c" d="M 531 -902 
L 467 -781 
Q 998 -422 998 -96 
Q 998 -13 909 -13 
Q 883 -13 822 -25 
Q 762 -38 723 -38 
Q 352 -38 352 288 
Q 352 454 457 553 
Q 563 653 736 653 
Q 954 653 1101 496 
Q 1248 339 1248 96 
Q 1248 -198 1053 -473 
Q 858 -749 531 -902 
z
" transform="scale(0.015625)"/>
      <path id="Cmmi10-b0" d="M 1888 -1253 
Q 1888 -1109 1952 -834 
Q 2016 -559 2108 -248 
Q 2200 63 2266 263 
Q 2291 581 2291 744 
Q 2291 1156 2209 1511 
Q 2128 1866 1903 2105 
Q 1678 2344 1275 2344 
Q 1063 2344 852 2253 
Q 641 2163 489 2000 
Q 338 1838 281 1631 
Q 269 1594 231 1594 
L 153 1594 
Q 103 1594 103 1650 
L 103 1672 
Q 175 1959 358 2226 
Q 541 2494 805 2661 
Q 1069 2828 1363 2828 
Q 1663 2828 1881 2625 
Q 2100 2422 2231 2109 
Q 2363 1797 2420 1478 
Q 2478 1159 2478 878 
Q 2800 1753 3200 2534 
L 3297 2741 
Q 3316 2759 3341 2759 
L 3419 2759 
Q 3469 2759 3469 2700 
Q 3469 2688 3456 2663 
L 3359 2463 
Q 3081 1909 2848 1340 
Q 2616 772 2450 244 
Q 2425 28 2354 -347 
Q 2284 -722 2184 -1045 
Q 2084 -1369 1984 -1381 
Q 1888 -1381 1888 -1253 
z
" transform="scale(0.015625)"/>
      <path id="STIXGeneral-Regular-29" d="M 186 4224 
L 262 4326 
Q 992 3891 1408 3148 
Q 1824 2406 1824 1581 
Q 1824 -166 243 -1133 
L 186 -1030 
Q 845 -486 1059 54 
Q 1274 595 1274 1562 
Q 1274 2534 1059 3120 
Q 845 3706 186 4224 
z
" transform="scale(0.015625)"/>
     </defs>
     <use xlink:href="#STIXGeneral-Regular-53" transform="translate(0 0.15625)"/>
     <use xlink:href="#STIXGeneral-Regular-65" transform="translate(55.599991 0.15625)"/>
     <use xlink:href="#STIXGeneral-Regular-63" transform="translate(99.999985 0.15625)"/>
     <use xlink:href="#STIXGeneral-Regular-6f" transform="translate(144.399979 0.15625)"/>
     <use xlink:href="#STIXGeneral-Regular-6e" transform="translate(194.399963 0.15625)"/>
     <use xlink:href="#STIXGeneral-Regular-64" transform="translate(244.399948 0.15625)"/>
     <use xlink:href="#STIXGeneral-Regular-2d" transform="translate(294.399933 0.15625)"/>
     <use xlink:href="#STIXGeneral-Regular-4f" transform="translate(327.699921 0.15625)"/>
     <use xlink:href="#STIXGeneral-Regular-72" transform="translate(399.899902 0.15625)"/>
     <use xlink:href="#STIXGeneral-Regular-64" transform="translate(433.19989 0.15625)"/>
     <use xlink:href="#STIXGeneral-Regular-65" transform="translate(483.199875 0.15625)"/>
     <use xlink:href="#STIXGeneral-Regular-72" transform="translate(527.599869 0.15625)"/>
     <use xlink:href="#STIXGeneral-Regular-20" transform="translate(560.899857 0.15625)"/>
     <use xlink:href="#STIXGeneral-Regular-43" transform="translate(585.899841 0.15625)"/>
     <use xlink:href="#STIXGeneral-Regular-6f" transform="translate(652.599838 0.15625)"/>
     <use xlink:href="#STIXGeneral-Regular-68" transform="translate(702.599823 0.15625)"/>
     <use xlink:href="#STIXGeneral-Regular-65" transform="translate(752.599808 0.15625)"/>
     <use xlink:href="#STIXGeneral-Regular-72" transform="translate(796.999802 0.15625)"/>
     <use xlink:href="#STIXGeneral-Regular-65" transform="translate(830.299789 0.15625)"/>
     <use xlink:href="#STIXGeneral-Regular-6e" transform="translate(874.699783 0.15625)"/>
     <use xlink:href="#STIXGeneral-Regular-63" transform="translate(924.699768 0.15625)"/>
     <use xlink:href="#STIXGeneral-Regular-65" transform="translate(969.099762 0.15625)"/>
     <use xlink:href="#STIXGeneral-Regular-20" transform="translate(1013.499756 0.15625)"/>
     <use xlink:href="#Cmmi10-67" transform="translate(1038.499741 0.15625)"/>
     <use xlink:href="#Cmr10-32" transform="translate(1086.204819 -16.85) scale(0.7)"/>
     <use xlink:href="#STIXGeneral-Regular-20" transform="translate(1127.582162 0.15625)"/>
     <use xlink:href="#STIXGeneral-Regular-66" transform="translate(1152.582147 0.15625)"/>
     <use xlink:href="#STIXGeneral-Regular-6f" transform="translate(1185.882135 0.15625)"/>
     <use xlink:href="#STIXGeneral-Regular-72" transform="translate(1235.88212 0.15625)"/>
     <use xlink:href="#STIXGeneral-Regular-20" transform="translate(1269.182108 0.15625)"/>
     <use xlink:href="#Cmmi10-55" transform="translate(1294.182092 0.15625)"/>
     <use xlink:href="#Cmr10-3d" transform="translate(1379.953577 0.15625)"/>
     <use xlink:href="#Cmr10-30" transform="translate(1475.197717 0.15625)"/>
     <use xlink:href="#STIXGeneral-Regular-20" transform="translate(1525.197717 0.15625)"/>
     <use xlink:href="#STIXGeneral-Regular-76" transform="translate(1550.197702 0.15625)"/>
     <use xlink:href="#STIXGeneral-Regular-73" transform="translate(1600.197687 0.15625)"/>
     <use xlink:href="#STIXGeneral-Regular-20" transform="translate(1639.097681 0.15625)"/>
     <use xlink:href="#Cmmi10-55" transform="translate(1664.097665 0.15625)"/>
     <use xlink:href="#Cmr10-3d" transform="translate(1749.86915 0.15625)"/>
     <use xlink:href="#Cmr10-31" transform="translate(1845.11329 0.15625)"/>
     <use xlink:href="#STIXGeneral-Regular-20" transform="translate(1895.11329 0.15625)"/>
     <use xlink:href="#STIXGeneral-Regular-28" transform="translate(1920.113275 0.15625)"/>
     <use xlink:href="#Cmsy10-6a" transform="translate(1953.413263 0.15625)"/>
     <use xlink:href="#Cmmi10-ae" transform="translate(1981.09881 0.15625)"/>
     <use xlink:href="#Cmr10-3d" transform="translate(2062.573419 0.15625)"/>
     <use xlink:href="#Cmex10-70" transform="translate(2157.81756 94.65625) scale(0.833746)"/>
     <use xlink:href="#Cmr10-31" transform="translate(2253.676935 0.140625)"/>
     <use xlink:href="#Cmr10-30" transform="translate(2303.676935 0.140625)"/>
     <use xlink:href="#Cmex10-ae" transform="translate(2366.176935 93.497396)"/>
     <use xlink:href="#STIXGeneral-Regular-2c" transform="translate(2413.393732 0.15625)"/>
     <use xlink:href="#STIXGeneral-Regular-20" transform="translate(2438.393716 0.15625)"/>
     <use xlink:href="#Cmmi10-b0" transform="translate(2463.393701 0.15625)"/>
     <use xlink:href="#Cmr10-3d" transform="translate(2532.661279 0.15625)"/>
     <use xlink:href="#Cmr10-31" transform="translate(2627.90542 0.15625)"/>
     <use xlink:href="#STIXGeneral-Regular-29" transform="translate(2677.90542 0.15625)"/>
     <path d="M 2241.176935 91.5 
L 2241.176935 97.75 
L 2366.176935 97.75 
L 2366.176935 91.5 
L 2241.176935 91.5 
z
"/>
    </g>
   </g>
   <g id="legend_1">
    <g id="line2d_144">
     <path d="M 405.26 51.185625 
L 416.26 51.185625 
L 427.26 51.185625 
" style="fill: none; stroke: #0b3c5d; stroke-width: 2.6; stroke-linecap: square"/>
    </g>
    <g id="text_20">
     <!-- $U=0$ -->
     <g transform="translate(436.06 55.035625) scale(0.11 -0.11)">
      <use xlink:href="#Cmmi10-55" transform="translate(0 0.6875)"/>
      <use xlink:href="#Cmr10-3d" transform="translate(85.771484 0.6875)"/>
      <use xlink:href="#Cmr10-30" transform="translate(181.015625 0.6875)"/>
     </g>
    </g>
    <g id="line2d_145">
     <path d="M 405.26 66.772969 
L 416.26 66.772969 
L 427.26 66.772969 
" style="fill: none; stroke-dasharray: 9.62,4.16; stroke-dashoffset: 0; stroke: #c0392b; stroke-width: 2.6"/>
    </g>
    <g id="text_21">
     <!-- $U=1$ -->
     <g transform="translate(436.06 70.622969) scale(0.11 -0.11)">
      <use xlink:href="#Cmmi10-55" transform="translate(0 0.6875)"/>
      <use xlink:href="#Cmr10-3d" transform="translate(85.771484 0.6875)"/>
      <use xlink:href="#Cmr10-31" transform="translate(181.015625 0.6875)"/>
     </g>
    </g>
   </g>
  </g>
 </g>
 <defs>
  <clipPath id="p327d0e8929">
   <rect x="52.98" y="37.435625" width="418.5" height="288.288"/>
  </clipPath>
 </defs>
</svg>
