<?xml version="1.0" encoding="utf-8" standalone="no"?>
<!DOCTYPE svg PUBLIC "-//W3C//DTD SVG 1.1//EN"
  "http://www.w3.org/Graphics/SVG/1.1/DTD/svg11.dtd">
<svg xmlns:xlink="http://www.w3.org/1999/xlink" width="484.03pt" height="359.263625pt" viewBox="0 0 484.03 359.263625" xmlns="http://www.w3.org/2000/svg" version="1.1">
 <metadata>
  <rdf:RDF xmlns:dc="http://purl.org/dc/elements/1.1/" xmlns:cc="http://creativecommons.org/ns#" xmlns:rdf="http://www.w3.org/1999/02/22-rdf-syntax-ns#">
   <cc:Work>
    <dc:type rdf:resource="http://purl.org/dc/dcmitype/StillImage"/>
    <dc:date>2026-04-18T22:57:16.943486</dc:date>
    <dc:format>image/svg+xml</dc:format>
    <dc:creator>
     <cc:Agent>
      <dc:title>Matplotlib v3.10.8, https://matplotlib.org/</dc:title>
     </cc:Agent>
    </dc:creator>
   </cc:Work>
  </rdf:RDF>
 </metadata>
 <defs>
  <style type="text/css">*{stroke-linejoin: round; stroke-linecap: butt}</style>
 </defs>
 <g id="figure_1">
  <g id="patch_1">
   <path d="M 0 359.263625 
L 484.03 359.263625 
L 484.03 0 
L 0 0 
z
" style="fill: #ffffff"/>
  </g>
  <g id="axes_1">
   <g id="patch_2">
    <path d="M 37.98 324.763625 
L 456.48 324.763625 
L 456.48 36.475625 
L 37.98 36.475625 
z
" style="fill: #ffffff"/>
   </g>
   <g id="matplotlib.axis_1">
    <g id="xtick_1">
     <g id="line2d_1">
      <path d="M 57.002727 324.763625 
L 57.002727 36.475625 
" clip-path="url(#p6a5502b6eb)" style="fill: none; stroke: #b0b0b0; stroke-opacity: 0.35; stroke-width: 0.5; stroke-linecap: square"/>
     </g>
     <g id="line2d_2">
      <defs>
       <path id="mb6f9f46c0f" d="M 0 0 
L 0 -3 
" style="stroke: #000000; stroke-width: 0.5"/>
      </defs>
      <g>
       <use xlink:href="#mb6f9f46c0f" x="57.002727" y="324.763625" style="stroke: #000000; stroke-width: 0.5"/>
      </g>
     </g>
     <g id="line2d_3">
      <defs>
       <path id="m7560bbfa77" d="M 0 0 
L 0 3 
" style="stroke: #000000; stroke-width: 0.5"/>
      </defs>
      <g>
       <use xlink:href="#m7560bbfa77" x="57.002727" y="36.475625" style="stroke: #000000; stroke-width: 0.5"/>
      </g>
     </g>
     <g id="text_1">
      <!-- $\mathdefault{0}$ -->
      <g transform="translate(54.002727 336.45925) scale(0.12 -0.12)">
       <defs>
        <path id="STIXGeneral-Regular-30" d="M 3046 2112 
Q 3046 1683 2963 1302 
Q 2880 922 2717 602 
Q 2554 282 2266 96 
Q 1978 -90 1600 -90 
Q 1210 -90 915 108 
Q 621 307 461 640 
Q 301 973 227 1350 
Q 154 1728 154 2150 
Q 154 2746 301 3222 
Q 448 3699 790 4012 
Q 1133 4326 1626 4326 
Q 2253 4326 2649 3712 
Q 3046 3098 3046 2112 
z
M 2432 2080 
Q 2432 3091 2217 3625 
Q 2003 4160 1587 4160 
Q 1190 4160 979 3622 
Q 768 3085 768 2106 
Q 768 1120 979 598 
Q 1190 77 1600 77 
Q 2003 77 2217 598 
Q 2432 1120 2432 2080 
z
" transform="scale(0.015625)"/>
       </defs>
       <use xlink:href="#STIXGeneral-Regular-30" transform="translate(0 0.40625)"/>
      </g>
     </g>
    </g>
    <g id="xtick_2">
     <g id="line2d_4">
      <path d="M 133.093636 324.763625 
L 133.093636 36.475625 
" clip-path="url(#p6a5502b6eb)" style="fill: none; stroke: #b0b0b0; stroke-opacity: 0.35; stroke-width: 0.5; stroke-linecap: square"/>
     </g>
     <g id="line2d_5">
      <g>
       <use xlink:href="#mb6f9f46c0f" x="133.093636" y="324.763625" style="stroke: #000000; stroke-width: 0.5"/>
      </g>
     </g>
     <g id="line2d_6">
      <g>
       <use xlink:href="#m7560bbfa77" x="133.093636" y="36.475625" style="stroke: #000000; stroke-width: 0.5"/>
      </g>
     </g>
     <g id="text_2">
      <!-- $\mathdefault{1}$ -->
      <g transform="translate(130.093636 336.45925) scale(0.12 -0.12)">
       <defs>
        <path id="STIXGeneral-Regular-31" d="M 2522 0 
L 755 0 
L 755 96 
Q 1107 115 1235 227 
Q 1363 339 1363 608 
L 1363 3482 
Q 1363 3795 1171 3795 
Q 1082 3795 883 3718 
L 710 3654 
L 710 3744 
L 1856 4326 
L 1914 4307 
L 1914 486 
Q 1914 275 2042 185 
Q 2170 96 2522 96 
L 2522 0 
z
" transform="scale(0.015625)"/>
       </defs>
       <use xlink:href="#STIXGeneral-Regular-31" transform="translate(0 0.40625)"/>
      </g>
     </g>
    </g>
    <g id="xtick_3">
     <g id="line2d_7">
      <path d="M 209.184545 324.763625 
L 209.184545 36.475625 
" clip-path="url(#p6a5502b6eb)" style="fill: none; stroke: #b0b0b0; stroke-opacity: 0.35; stroke-width: 0.5; stroke-linecap: square"/>
     </g>
     <g id="line2d_8">
      <g>
       <use xlink:href="#mb6f9f46c0f" x="209.184545" y="324.763625" style="stroke: #000000; stroke-width: 0.5"/>
      </g>
     </g>
     <g id="line2d_9">
      <g>
       <use xlink:href="#m7560bbfa77" x="209.184545" y="36.475625" style="stroke: #000000; stroke-width: 0.5"/>
      </g>
     </g>
     <g id="text_3">
      <!-- $\mathdefault{2}$ -->
      <g transform="translate(206.184545 336.45925) scale(0.12 -0.12)">
       <defs>
        <path id="STIXGeneral-Regular-32" d="M 3034 877 
L 2688 0 
L 186 0 
L 186 77 
L 1325 1286 
Q 1773 1754 1965 2144 
Q 2157 2534 2157 2950 
Q 2157 3379 1920 3616 
Q 1683 3853 1267 3853 
Q 922 3853 720 3673 
Q 518 3494 326 3021 
L 192 3053 
Q 301 3648 630 3987 
Q 960 4326 1523 4326 
Q 2054 4326 2380 4006 
Q 2707 3686 2707 3200 
Q 2707 2477 1888 1613 
L 832 486 
L 2330 486 
Q 2541 486 2665 569 
Q 2790 653 2944 915 
L 3034 877 
z
" transform="scale(0.015625)"/>
       </defs>
       <use xlink:href="#STIXGeneral-Regular-32" transform="translate(0 0.40625)"/>
      </g>
     </g>
    </g>
    <g id="xtick_4">
     <g id="line2d_10">
      <path d="M 285.275455 324.763625 
L 285.275455 36.475625 
" clip-path="url(#p6a5502b6eb)" style="fill: none; stroke: #b0b0b0; stroke-opacity: 0.35; stroke-width: 0.5; stroke-linecap: square"/>
     </g>
     <g id="line2d_11">
      <g>
       <use xlink:href="#mb6f9f46c0f" x="285.275455" y="324.763625" style="stroke: #000000; stroke-width: 0.5"/>
      </g>
     </g>
     <g id="line2d_12">
      <g>
       <use xlink:href="#m7560bbfa77" x="285.275455" y="36.475625" style="stroke: #000000; stroke-width: 0.5"/>
      </g>
     </g>
     <g id="text_4">
      <!-- $\mathdefault{3}$ -->
      <g transform="translate(282.275455 336.45925) scale(0.12 -0.12)">
       <defs>
        <path id="STIXGeneral-Regular-33" d="M 390 3264 
L 288 3290 
Q 435 3770 748 4048 
Q 1062 4326 1542 4326 
Q 1990 4326 2265 4083 
Q 2541 3840 2541 3450 
Q 2541 2925 1946 2566 
Q 2298 2413 2477 2227 
Q 2758 1914 2758 1402 
Q 2758 890 2464 506 
Q 2246 211 1840 60 
Q 1434 -90 979 -90 
Q 262 -90 262 275 
Q 262 378 339 442 
Q 416 506 525 506 
Q 685 506 915 339 
Q 1197 141 1466 141 
Q 1818 141 2058 425 
Q 2298 710 2298 1120 
Q 2298 1856 1632 2048 
Q 1434 2112 979 2112 
L 979 2202 
Q 1338 2323 1517 2432 
Q 2035 2726 2035 3290 
Q 2035 3610 1852 3776 
Q 1670 3942 1344 3942 
Q 768 3942 390 3264 
z
" transform="scale(0.015625)"/>
       </defs>
       <use xlink:href="#STIXGeneral-Regular-33" transform="translate(0 0.40625)"/>
      </g>
     </g>
    </g>
    <g id="xtick_5">
     <g id="line2d_13">
      <path d="M 361.366364 324.763625 
L 361.366364 36.475625 
" clip-path="url(#p6a5502b6eb)" style="fill: none; stroke: #b0b0b0; stroke-opacity: 0.35; stroke-width: 0.5; stroke-linecap: square"/>
     </g>
     <g id="line2d_14">
      <g>
       <use xlink:href="#mb6f9f46c0f" x="361.366364" y="324.763625" style="stroke: #000000; stroke-width: 0.5"/>
      </g>
     </g>
     <g id="line2d_15">
      <g>
       <use xlink:href="#m7560bbfa77" x="361.366364" y="36.475625" style="stroke: #000000; stroke-width: 0.5"/>
      </g>
     </g>
     <g id="text_5">
      <!-- $\mathdefault{4}$ -->
      <g transform="translate(358.366364 336.45925) scale(0.12 -0.12)">
       <defs>
        <path id="STIXGeneral-Regular-34" d="M 3027 1069 
L 2368 1069 
L 2368 0 
L 1869 0 
L 1869 1069 
L 77 1069 
L 77 1478 
L 2086 4326 
L 2368 4326 
L 2368 1478 
L 3027 1478 
L 3027 1069 
z
M 1869 1478 
L 1869 3674 
L 333 1478 
L 1869 1478 
z
" transform="scale(0.015625)"/>
       </defs>
       <use xlink:href="#STIXGeneral-Regular-34" transform="translate(0 0.40625)"/>
      </g>
     </g>
    </g>
    <g id="xtick_6">
     <g id="line2d_16">
      <path d="M 437.457273 324.763625 
L 437.457273 36.475625 
" clip-path="url(#p6a5502b6eb)" style="fill: none; stroke: #b0b0b0; stroke-opacity: 0.35; stroke-width: 0.5; stroke-linecap: square"/>
     </g>
     <g id="line2d_17">
      <g>
       <use xlink:href="#mb6f9f46c0f" x="437.457273" y="324.763625" style="stroke: #000000; stroke-width: 0.5"/>
      </g>
     </g>
     <g id="line2d_18">
      <g>
       <use xlink:href="#m7560bbfa77" x="437.457273" y="36.475625" style="stroke: #000000; stroke-width: 0.5"/>
      </g>
     </g>
     <g id="text_6">
      <!-- $\mathdefault{5}$ -->
      <g transform="translate(434.457273 336.45925) scale(0.12 -0.12)">
       <defs>
        <path id="STIXGeneral-Regular-35" d="M 2803 4358 
L 2573 3814 
Q 2534 3731 2400 3731 
L 1158 3731 
L 902 3187 
Q 1606 3053 1920 2896 
Q 2234 2739 2502 2368 
Q 2726 2061 2726 1555 
Q 2726 1094 2576 780 
Q 2426 467 2099 224 
Q 1664 -90 1011 -90 
Q 646 -90 422 19 
Q 198 128 198 307 
Q 198 550 486 550 
Q 717 550 960 352 
Q 1210 147 1414 147 
Q 1747 147 2012 480 
Q 2278 813 2278 1229 
Q 2278 1843 1850 2189 
Q 1293 2637 486 2637 
Q 410 2637 410 2688 
L 416 2720 
L 1114 4237 
L 2438 4237 
Q 2547 4237 2608 4269 
Q 2669 4301 2746 4403 
L 2803 4358 
z
" transform="scale(0.015625)"/>
       </defs>
       <use xlink:href="#STIXGeneral-Regular-35" transform="translate(0 0.203125)"/>
      </g>
     </g>
    </g>
    <g id="xtick_7">
     <g id="line2d_19">
      <defs>
       <path id="m5cf37083a1" d="M 0 0 
L 0 -1.5 
" style="stroke: #000000; stroke-width: 0.5"/>
      </defs>
      <g>
       <use xlink:href="#m5cf37083a1" x="41.784545" y="324.763625" style="stroke: #000000; stroke-width: 0.5"/>
      </g>
     </g>
     <g id="line2d_20">
      <defs>
       <path id="m7864c5e071" d="M 0 0 
L 0 1.5 
" style="stroke: #000000; stroke-width: 0.5"/>
      </defs>
      <g>
       <use xlink:href="#m7864c5e071" x="41.784545" y="36.475625" style="stroke: #000000; stroke-width: 0.5"/>
      </g>
     </g>
    </g>
    <g id="xtick_8">
     <g id="line2d_21">
      <g>
       <use xlink:href="#m5cf37083a1" x="72.220909" y="324.763625" style="stroke: #000000; stroke-width: 0.5"/>
      </g>
     </g>
     <g id="line2d_22">
      <g>
       <use xlink:href="#m7864c5e071" x="72.220909" y="36.475625" style="stroke: #000000; stroke-width: 0.5"/>
      </g>
     </g>
    </g>
    <g id="xtick_9">
     <g id="line2d_23">
      <g>
       <use xlink:href="#m5cf37083a1" x="87.439091" y="324.763625" style="stroke: #000000; stroke-width: 0.5"/>
      </g>
     </g>
     <g id="line2d_24">
      <g>
       <use xlink:href="#m7864c5e071" x="87.439091" y="36.475625" style="stroke: #000000; stroke-width: 0.5"/>
      </g>
     </g>
    </g>
    <g id="xtick_10">
     <g id="line2d_25">
      <g>
       <use xlink:href="#m5cf37083a1" x="102.657273" y="324.763625" style="stroke: #000000; stroke-width: 0.5"/>
      </g>
     </g>
     <g id="line2d_26">
      <g>
       <use xlink:href="#m7864c5e071" x="102.657273" y="36.475625" style="stroke: #000000; stroke-width: 0.5"/>
      </g>
     </g>
    </g>
    <g id="xtick_11">
     <g id="line2d_27">
      <g>
       <use xlink:href="#m5cf37083a1" x="117.875455" y="324.763625" style="stroke: #000000; stroke-width: 0.5"/>
      </g>
     </g>
     <g id="line2d_28">
      <g>
       <use xlink:href="#m7864c5e071" x="117.875455" y="36.475625" style="stroke: #000000; stroke-width: 0.5"/>
      </g>
     </g>
    </g>
    <g id="xtick_12">
     <g id="line2d_29">
      <g>
       <use xlink:href="#m5cf37083a1" x="148.311818" y="324.763625" style="stroke: #000000; stroke-width: 0.5"/>
      </g>
     </g>
     <g id="line2d_30">
      <g>
       <use xlink:href="#m7864c5e071" x="148.311818" y="36.475625" style="stroke: #000000; stroke-width: 0.5"/>
      </g>
     </g>
    </g>
    <g id="xtick_13">
     <g id="line2d_31">
      <g>
       <use xlink:href="#m5cf37083a1" x="163.53" y="324.763625" style="stroke: #000000; stroke-width: 0.5"/>
      </g>
     </g>
     <g id="line2d_32">
      <g>
       <use xlink:href="#m7864c5e071" x="163.53" y="36.475625" style="stroke: #000000; stroke-width: 0.5"/>
      </g>
     </g>
    </g>
    <g id="xtick_14">
     <g id="line2d_33">
      <g>
       <use xlink:href="#m5cf37083a1" x="178.748182" y="324.763625" style="stroke: #000000; stroke-width: 0.5"/>
      </g>
     </g>
     <g id="line2d_34">
      <g>
       <use xlink:href="#m7864c5e071" x="178.748182" y="36.475625" style="stroke: #000000; stroke-width: 0.5"/>
      </g>
     </g>
    </g>
    <g id="xtick_15">
     <g id="line2d_35">
      <g>
       <use xlink:href="#m5cf37083a1" x="193.966364" y="324.763625" style="stroke: #000000; stroke-width: 0.5"/>
      </g>
     </g>
     <g id="line2d_36">
      <g>
       <use xlink:href="#m7864c5e071" x="193.966364" y="36.475625" style="stroke: #000000; stroke-width: 0.5"/>
      </g>
     </g>
    </g>
    <g id="xtick_16">
     <g id="line2d_37">
      <g>
       <use xlink:href="#m5cf37083a1" x="224.402727" y="324.763625" style="stroke: #000000; stroke-width: 0.5"/>
      </g>
     </g>
     <g id="line2d_38">
      <g>
       <use xlink:href="#m7864c5e071" x="224.402727" y="36.475625" style="stroke: #000000; stroke-width: 0.5"/>
      </g>
     </g>
    </g>
    <g id="xtick_17">
     <g id="line2d_39">
      <g>
       <use xlink:href="#m5cf37083a1" x="239.620909" y="324.763625" style="stroke: #000000; stroke-width: 0.5"/>
      </g>
     </g>
     <g id="line2d_40">
      <g>
       <use xlink:href="#m7864c5e071" x="239.620909" y="36.475625" style="stroke: #000000; stroke-width: 0.5"/>
      </g>
     </g>
    </g>
    <g id="xtick_18">
     <g id="line2d_41">
      <g>
       <use xlink:href="#m5cf37083a1" x="254.839091" y="324.763625" style="stroke: #000000; stroke-width: 0.5"/>
      </g>
     </g>
     <g id="line2d_42">
      <g>
       <use xlink:href="#m7864c5e071" x="254.839091" y="36.475625" style="stroke: #000000; stroke-width: 0.5"/>
      </g>
     </g>
    </g>
    <g id="xtick_19">
     <g id="line2d_43">
      <g>
       <use xlink:href="#m5cf37083a1" x="270.057273" y="324.763625" style="stroke: #000000; stroke-width: 0.5"/>
      </g>
     </g>
     <g id="line2d_44">
      <g>
       <use xlink:href="#m7864c5e071" x="270.057273" y="36.475625" style="stroke: #000000; stroke-width: 0.5"/>
      </g>
     </g>
    </g>
    <g id="xtick_20">
     <g id="line2d_45">
      <g>
       <use xlink:href="#m5cf37083a1" x="300.493636" y="324.763625" style="stroke: #000000; stroke-width: 0.5"/>
      </g>
     </g>
     <g id="line2d_46">
      <g>
       <use xlink:href="#m7864c5e071" x="300.493636" y="36.475625" style="stroke: #000000; stroke-width: 0.5"/>
      </g>
     </g>
    </g>
    <g id="xtick_21">
     <g id="line2d_47">
      <g>
       <use xlink:href="#m5cf37083a1" x="315.711818" y="324.763625" style="stroke: #000000; stroke-width: 0.5"/>
      </g>
     </g>
     <g id="line2d_48">
      <g>
       <use xlink:href="#m7864c5e071" x="315.711818" y="36.475625" style="stroke: #000000; stroke-width: 0.5"/>
      </g>
     </g>
    </g>
    <g id="xtick_22">
     <g id="line2d_49">
      <g>
       <use xlink:href="#m5cf37083a1" x="330.93" y="324.763625" style="stroke: #000000; stroke-width: 0.5"/>
      </g>
     </g>
     <g id="line2d_50">
      <g>
       <use xlink:href="#m7864c5e071" x="330.93" y="36.475625" style="stroke: #000000; stroke-width: 0.5"/>
      </g>
     </g>
    </g>
    <g id="xtick_23">
     <g id="line2d_51">
      <g>
       <use xlink:href="#m5cf37083a1" x="346.148182" y="324.763625" style="stroke: #000000; stroke-width: 0.5"/>
      </g>
     </g>
     <g id="line2d_52">
      <g>
       <use xlink:href="#m7864c5e071" x="346.148182" y="36.475625" style="stroke: #000000; stroke-width: 0.5"/>
      </g>
     </g>
    </g>
    <g id="xtick_24">
     <g id="line2d_53">
      <g>
       <use xlink:href="#m5cf37083a1" x="376.584545" y="324.763625" style="stroke: #000000; stroke-width: 0.5"/>
      </g>
     </g>
     <g id="line2d_54">
      <g>
       <use xlink:href="#m7864c5e071" x="376.584545" y="36.475625" style="stroke: #000000; stroke-width: 0.5"/>
      </g>
     </g>
    </g>
    <g id="xtick_25">
     <g id="line2d_55">
      <g>
       <use xlink:href="#m5cf37083a1" x="391.802727" y="324.763625" style="stroke: #000000; stroke-width: 0.5"/>
      </g>
     </g>
     <g id="line2d_56">
      <g>
       <use xlink:href="#m7864c5e071" x="391.802727" y="36.475625" style="stroke: #000000; stroke-width: 0.5"/>
      </g>
     </g>
    </g>
    <g id="xtick_26">
     <g id="line2d_57">
      <g>
       <use xlink:href="#m5cf37083a1" x="407.020909" y="324.763625" style="stroke: #000000; stroke-width: 0.5"/>
      </g>
     </g>
     <g id="line2d_58">
      <g>
       <use xlink:href="#m7864c5e071" x="407.020909" y="36.475625" style="stroke: #000000; stroke-width: 0.5"/>
      </g>
     </g>
    </g>
    <g id="xtick_27">
     <g id="line2d_59">
      <g>
       <use xlink:href="#m5cf37083a1" x="422.239091" y="324.763625" style="stroke: #000000; stroke-width: 0.5"/>
      </g>
     </g>
     <g id="line2d_60">
      <g>
       <use xlink:href="#m7864c5e071" x="422.239091" y="36.475625" style="stroke: #000000; stroke-width: 0.5"/>
      </g>
     </g>
    </g>
    <g id="xtick_28">
     <g id="line2d_61">
      <g>
       <use xlink:href="#m5cf37083a1" x="452.675455" y="324.763625" style="stroke: #000000; stroke-width: 0.5"/>
      </g>
     </g>
     <g id="line2d_62">
      <g>
       <use xlink:href="#m7864c5e071" x="452.675455" y="36.475625" style="stroke: #000000; stroke-width: 0.5"/>
      </g>
     </g>
    </g>
    <g id="text_7">
     <!-- Time -->
     <g transform="translate(232.453438 352.625188) scale(0.14 -0.14)">
      <defs>
       <path id="STIXGeneral-Regular-54" d="M 3795 3149 
L 3642 3149 
Q 3539 3674 3353 3821 
Q 3168 3968 2656 3968 
L 2278 3968 
L 2278 710 
Q 2278 346 2387 243 
Q 2496 141 2893 122 
L 2893 0 
L 1024 0 
L 1024 122 
Q 1427 147 1526 256 
Q 1626 365 1626 787 
L 1626 3968 
L 1242 3968 
Q 723 3968 540 3817 
Q 358 3667 262 3149 
L 109 3149 
L 154 4237 
L 3750 4237 
L 3795 3149 
z
" transform="scale(0.015625)"/>
       <path id="STIXGeneral-Regular-69" d="M 1152 4045 
Q 1152 3904 1056 3811 
Q 960 3718 819 3718 
Q 685 3718 592 3811 
Q 499 3904 499 4045 
Q 499 4179 595 4275 
Q 691 4371 826 4371 
Q 966 4371 1059 4275 
Q 1152 4179 1152 4045 
z
M 1619 0 
L 102 0 
L 102 96 
Q 435 115 521 211 
Q 608 307 608 666 
L 608 2118 
Q 608 2342 563 2432 
Q 518 2522 397 2522 
Q 243 2522 128 2490 
L 128 2592 
L 1120 2944 
L 1146 2918 
L 1146 672 
Q 1146 314 1226 218 
Q 1306 122 1619 96 
L 1619 0 
z
" transform="scale(0.015625)"/>
       <path id="STIXGeneral-Regular-6d" d="M 4960 0 
L 3565 0 
L 3565 96 
Q 3834 122 3907 208 
Q 3981 294 3981 576 
L 3981 1894 
Q 3981 2278 3869 2444 
Q 3757 2611 3488 2611 
Q 3264 2611 3107 2521 
Q 2950 2432 2803 2221 
L 2803 608 
Q 2803 301 2896 201 
Q 2989 102 3264 96 
L 3264 0 
L 1830 0 
L 1830 96 
Q 2112 115 2189 188 
Q 2266 262 2266 550 
L 2266 1901 
Q 2266 2611 1850 2611 
Q 1670 2611 1468 2531 
Q 1267 2451 1171 2336 
Q 1088 2240 1088 2227 
L 1088 448 
Q 1088 243 1177 176 
Q 1267 109 1523 96 
L 1523 0 
L 102 0 
L 102 96 
Q 371 102 460 195 
Q 550 288 550 563 
L 550 2150 
Q 550 2387 499 2480 
Q 448 2573 326 2573 
Q 230 2573 122 2547 
L 122 2656 
Q 557 2778 1011 2944 
L 1062 2925 
L 1062 2451 
L 1075 2451 
Q 1363 2752 1584 2848 
Q 1805 2944 2054 2944 
Q 2560 2944 2733 2406 
Q 3232 2944 3776 2944 
Q 4518 2944 4518 1792 
L 4518 493 
Q 4518 282 4582 202 
Q 4646 122 4794 109 
L 4960 96 
L 4960 0 
z
" transform="scale(0.015625)"/>
       <path id="STIXGeneral-Regular-65" d="M 2611 1050 
L 2714 1005 
Q 2330 -64 1376 -64 
Q 813 -64 486 329 
Q 160 723 160 1389 
Q 160 2074 525 2509 
Q 890 2944 1485 2944 
Q 2061 2944 2374 2502 
Q 2560 2246 2592 1773 
L 621 1773 
Q 646 1370 700 1158 
Q 755 947 915 730 
Q 1184 378 1626 378 
Q 1939 378 2153 531 
Q 2368 685 2611 1050 
z
M 634 1978 
L 1939 1978 
Q 1882 2381 1750 2547 
Q 1619 2714 1312 2714 
Q 1043 2714 864 2525 
Q 685 2336 634 1978 
z
" transform="scale(0.015625)"/>
      </defs>
      <use xlink:href="#STIXGeneral-Regular-54"/>
      <use xlink:href="#STIXGeneral-Regular-69" transform="translate(61.099991 0)"/>
      <use xlink:href="#STIXGeneral-Regular-6d" transform="translate(88.899979 0)"/>
      <use xlink:href="#STIXGeneral-Regular-65" transform="translate(166.699966 0)"/>
     </g>
    </g>
   </g>
   <g id="matplotlib.axis_2">
    <g id="ytick_1">
     <g id="line2d_63">
      <path d="M 37.98 307.555402 
L 456.48 307.555402 
" clip-path="url(#p6a5502b6eb)" style="fill: none; stroke: #b0b0b0; stroke-opacity: 0.35; stroke-width: 0.5; stroke-linecap: square"/>
     </g>
     <g id="line2d_64">
      <defs>
       <path id="m80ed1745a6" d="M 0 0 
L 3 0 
" style="stroke: #000000; stroke-width: 0.5"/>
      </defs>
      <g>
       <use xlink:href="#m80ed1745a6" x="37.98" y="307.555402" style="stroke: #000000; stroke-width: 0.5"/>
      </g>
     </g>
     <g id="line2d_65">
      <defs>
       <path id="m7fbb450c2f" d="M 0 0 
L -3 0 
" style="stroke: #000000; stroke-width: 0.5"/>
      </defs>
      <g>
       <use xlink:href="#m7fbb450c2f" x="456.48" y="307.555402" style="stroke: #000000; stroke-width: 0.5"/>
      </g>
     </g>
     <g id="text_8">
      <!-- $\mathdefault{−7}$ -->
      <g transform="translate(20.2 311.653215) scale(0.12 -0.12)">
       <defs>
        <path id="STIXGeneral-Regular-2212" d="M 3974 1408 
L 410 1408 
L 410 1830 
L 3974 1830 
L 3974 1408 
z
" transform="scale(0.015625)"/>
        <path id="STIXGeneral-Regular-37" d="M 2874 4134 
L 1517 -51 
L 1101 -51 
L 2368 3763 
L 992 3763 
Q 717 3763 582 3667 
Q 448 3571 243 3238 
L 128 3296 
L 512 4237 
L 2874 4237 
L 2874 4134 
z
" transform="scale(0.015625)"/>
       </defs>
       <use xlink:href="#STIXGeneral-Regular-2212" transform="translate(0 0.796875)"/>
       <use xlink:href="#STIXGeneral-Regular-37" transform="translate(68.499985 0.796875)"/>
      </g>
     </g>
    </g>
    <g id="ytick_2">
     <g id="line2d_66">
      <path d="M 37.98 272.069985 
L 456.48 272.069985 
" clip-path="url(#p6a5502b6eb)" style="fill: none; stroke: #b0b0b0; stroke-opacity: 0.35; stroke-width: 0.5; stroke-linecap: square"/>
     </g>
     <g id="line2d_67">
      <g>
       <use xlink:href="#m80ed1745a6" x="37.98" y="272.069985" style="stroke: #000000; stroke-width: 0.5"/>
      </g>
     </g>
     <g id="line2d_68">
      <g>
       <use xlink:href="#m7fbb450c2f" x="456.48" y="272.069985" style="stroke: #000000; stroke-width: 0.5"/>
      </g>
     </g>
     <g id="text_9">
      <!-- $\mathdefault{−6}$ -->
      <g transform="translate(20.2 276.167798) scale(0.12 -0.12)">
       <defs>
        <path id="STIXGeneral-Regular-36" d="M 2854 4378 
L 2867 4275 
Q 2112 4154 1606 3664 
Q 1101 3174 973 2451 
Q 1344 2739 1786 2739 
Q 2349 2739 2672 2380 
Q 2995 2022 2995 1402 
Q 2995 774 2669 378 
Q 2291 -90 1651 -90 
Q 870 -90 518 557 
Q 218 1107 218 1786 
Q 218 2835 915 3552 
Q 1312 3962 1731 4131 
Q 2150 4301 2854 4378 
z
M 2419 1203 
Q 2419 2445 1555 2445 
Q 1235 2445 1024 2275 
Q 813 2106 813 1702 
Q 813 954 1046 522 
Q 1280 90 1722 90 
Q 2061 90 2240 394 
Q 2419 698 2419 1203 
z
" transform="scale(0.015625)"/>
       </defs>
       <use xlink:href="#STIXGeneral-Regular-2212" transform="translate(0 0.59375)"/>
       <use xlink:href="#STIXGeneral-Regular-36" transform="translate(68.499985 0.59375)"/>
      </g>
     </g>
    </g>
    <g id="ytick_3">
     <g id="line2d_69">
      <path d="M 37.98 236.584568 
L 456.48 236.584568 
" clip-path="url(#p6a5502b6eb)" style="fill: none; stroke: #b0b0b0; stroke-opacity: 0.35; stroke-width: 0.5; stroke-linecap: square"/>
     </g>
     <g id="line2d_70">
      <g>
       <use xlink:href="#m80ed1745a6" x="37.98" y="236.584568" style="stroke: #000000; stroke-width: 0.5"/>
      </g>
     </g>
     <g id="line2d_71">
      <g>
       <use xlink:href="#m7fbb450c2f" x="456.48" y="236.584568" style="stroke: #000000; stroke-width: 0.5"/>
      </g>
     </g>
     <g id="text_10">
      <!-- $\mathdefault{−5}$ -->
      <g transform="translate(20.2 240.682381) scale(0.12 -0.12)">
       <use xlink:href="#STIXGeneral-Regular-2212" transform="translate(0 0.203125)"/>
       <use xlink:href="#STIXGeneral-Regular-35" transform="translate(68.499985 0.203125)"/>
      </g>
     </g>
    </g>
    <g id="ytick_4">
     <g id="line2d_72">
      <path d="M 37.98 201.099151 
L 456.48 201.099151 
" clip-path="url(#p6a5502b6eb)" style="fill: none; stroke: #b0b0b0; stroke-opacity: 0.35; stroke-width: 0.5; stroke-linecap: square"/>
     </g>
     <g id="line2d_73">
      <g>
       <use xlink:href="#m80ed1745a6" x="37.98" y="201.099151" style="stroke: #000000; stroke-width: 0.5"/>
      </g>
     </g>
     <g id="line2d_74">
      <g>
       <use xlink:href="#m7fbb450c2f" x="456.48" y="201.099151" style="stroke: #000000; stroke-width: 0.5"/>
      </g>
     </g>
     <g id="text_11">
      <!-- $\mathdefault{−4}$ -->
      <g transform="translate(20.2 205.196963) scale(0.12 -0.12)">
       <use xlink:href="#STIXGeneral-Regular-2212" transform="translate(0 0.40625)"/>
       <use xlink:href="#STIXGeneral-Regular-34" transform="translate(68.499985 0.40625)"/>
      </g>
     </g>
    </g>
    <g id="ytick_5">
     <g id="line2d_75">
      <path d="M 37.98 165.613734 
L 456.48 165.613734 
" clip-path="url(#p6a5502b6eb)" style="fill: none; stroke: #b0b0b0; stroke-opacity: 0.35; stroke-width: 0.5; stroke-linecap: square"/>
     </g>
     <g id="line2d_76">
      <g>
       <use xlink:href="#m80ed1745a6" x="37.98" y="165.613734" style="stroke: #000000; stroke-width: 0.5"/>
      </g>
     </g>
     <g id="line2d_77">
      <g>
       <use xlink:href="#m7fbb450c2f" x="456.48" y="165.613734" style="stroke: #000000; stroke-width: 0.5"/>
      </g>
     </g>
     <g id="text_12">
      <!-- $\mathdefault{−3}$ -->
      <g transform="translate(20.2 169.711546) scale(0.12 -0.12)">
       <use xlink:href="#STIXGeneral-Regular-2212" transform="translate(0 0.40625)"/>
       <use xlink:href="#STIXGeneral-Regular-33" transform="translate(68.499985 0.40625)"/>
      </g>
     </g>
    </g>
    <g id="ytick_6">
     <g id="line2d_78">
      <path d="M 37.98 130.128316 
L 456.48 130.128316 
" clip-path="url(#p6a5502b6eb)" style="fill: none; stroke: #b0b0b0; stroke-opacity: 0.35; stroke-width: 0.5; stroke-linecap: square"/>
     </g>
     <g id="line2d_79">
      <g>
       <use xlink:href="#m80ed1745a6" x="37.98" y="130.128316" style="stroke: #000000; stroke-width: 0.5"/>
      </g>
     </g>
     <g id="line2d_80">
      <g>
       <use xlink:href="#m7fbb450c2f" x="456.48" y="130.128316" style="stroke: #000000; stroke-width: 0.5"/>
      </g>
     </g>
     <g id="text_13">
      <!-- $\mathdefault{−2}$ -->
      <g transform="translate(20.2 134.226129) scale(0.12 -0.12)">
       <use xlink:href="#STIXGeneral-Regular-2212" transform="translate(0 0.40625)"/>
       <use xlink:href="#STIXGeneral-Regular-32" transform="translate(68.499985 0.40625)"/>
      </g>
     </g>
    </g>
    <g id="ytick_7">
     <g id="line2d_81">
      <path d="M 37.98 94.642899 
L 456.48 94.642899 
" clip-path="url(#p6a5502b6eb)" style="fill: none; stroke: #b0b0b0; stroke-opacity: 0.35; stroke-width: 0.5; stroke-linecap: square"/>
     </g>
     <g id="line2d_82">
      <g>
       <use xlink:href="#m80ed1745a6" x="37.98" y="94.642899" style="stroke: #000000; stroke-width: 0.5"/>
      </g>
     </g>
     <g id="line2d_83">
      <g>
       <use xlink:href="#m7fbb450c2f" x="456.48" y="94.642899" style="stroke: #000000; stroke-width: 0.5"/>
      </g>
     </g>
     <g id="text_14">
      <!-- $\mathdefault{−1}$ -->
      <g transform="translate(20.2 98.740712) scale(0.12 -0.12)">
       <use xlink:href="#STIXGeneral-Regular-2212" transform="translate(0 0.40625)"/>
       <use xlink:href="#STIXGeneral-Regular-31" transform="translate(68.499985 0.40625)"/>
      </g>
     </g>
    </g>
    <g id="ytick_8">
     <g id="line2d_84">
      <path d="M 37.98 59.157482 
L 456.48 59.157482 
" clip-path="url(#p6a5502b6eb)" style="fill: none; stroke: #b0b0b0; stroke-opacity: 0.35; stroke-width: 0.5; stroke-linecap: square"/>
     </g>
     <g id="line2d_85">
      <g>
       <use xlink:href="#m80ed1745a6" x="37.98" y="59.157482" style="stroke: #000000; stroke-width: 0.5"/>
      </g>
     </g>
     <g id="line2d_86">
      <g>
       <use xlink:href="#m7fbb450c2f" x="456.48" y="59.157482" style="stroke: #000000; stroke-width: 0.5"/>
      </g>
     </g>
     <g id="text_15">
      <!-- $\mathdefault{0}$ -->
      <g transform="translate(28.48 63.255295) scale(0.12 -0.12)">
       <use xlink:href="#STIXGeneral-Regular-30" transform="translate(0 0.40625)"/>
      </g>
     </g>
    </g>
    <g id="ytick_9">
     <g id="line2d_87">
      <defs>
       <path id="m455b55934d" d="M 0 0 
L 1.5 0 
" style="stroke: #000000; stroke-width: 0.5"/>
      </defs>
      <g>
       <use xlink:href="#m455b55934d" x="37.98" y="321.749569" style="stroke: #000000; stroke-width: 0.5"/>
      </g>
     </g>
     <g id="line2d_88">
      <defs>
       <path id="mb1010934a8" d="M 0 0 
L -1.5 0 
" style="stroke: #000000; stroke-width: 0.5"/>
      </defs>
      <g>
       <use xlink:href="#mb1010934a8" x="456.48" y="321.749569" style="stroke: #000000; stroke-width: 0.5"/>
      </g>
     </g>
    </g>
    <g id="ytick_10">
     <g id="line2d_89">
      <g>
       <use xlink:href="#m455b55934d" x="37.98" y="314.652486" style="stroke: #000000; stroke-width: 0.5"/>
      </g>
     </g>
     <g id="line2d_90">
      <g>
       <use xlink:href="#mb1010934a8" x="456.48" y="314.652486" style="stroke: #000000; stroke-width: 0.5"/>
      </g>
     </g>
    </g>
    <g id="ytick_11">
     <g id="line2d_91">
      <g>
       <use xlink:href="#m455b55934d" x="37.98" y="300.458319" style="stroke: #000000; stroke-width: 0.5"/>
      </g>
     </g>
     <g id="line2d_92">
      <g>
       <use xlink:href="#mb1010934a8" x="456.48" y="300.458319" style="stroke: #000000; stroke-width: 0.5"/>
      </g>
     </g>
    </g>
    <g id="ytick_12">
     <g id="line2d_93">
      <g>
       <use xlink:href="#m455b55934d" x="37.98" y="293.361236" style="stroke: #000000; stroke-width: 0.5"/>
      </g>
     </g>
     <g id="line2d_94">
      <g>
       <use xlink:href="#mb1010934a8" x="456.48" y="293.361236" style="stroke: #000000; stroke-width: 0.5"/>
      </g>
     </g>
    </g>
    <g id="ytick_13">
     <g id="line2d_95">
      <g>
       <use xlink:href="#m455b55934d" x="37.98" y="286.264152" style="stroke: #000000; stroke-width: 0.5"/>
      </g>
     </g>
     <g id="line2d_96">
      <g>
       <use xlink:href="#mb1010934a8" x="456.48" y="286.264152" style="stroke: #000000; stroke-width: 0.5"/>
      </g>
     </g>
    </g>
    <g id="ytick_14">
     <g id="line2d_97">
      <g>
       <use xlink:href="#m455b55934d" x="37.98" y="279.167069" style="stroke: #000000; stroke-width: 0.5"/>
      </g>
     </g>
     <g id="line2d_98">
      <g>
       <use xlink:href="#mb1010934a8" x="456.48" y="279.167069" style="stroke: #000000; stroke-width: 0.5"/>
      </g>
     </g>
    </g>
    <g id="ytick_15">
     <g id="line2d_99">
      <g>
       <use xlink:href="#m455b55934d" x="37.98" y="264.972902" style="stroke: #000000; stroke-width: 0.5"/>
      </g>
     </g>
     <g id="line2d_100">
      <g>
       <use xlink:href="#mb1010934a8" x="456.48" y="264.972902" style="stroke: #000000; stroke-width: 0.5"/>
      </g>
     </g>
    </g>
    <g id="ytick_16">
     <g id="line2d_101">
      <g>
       <use xlink:href="#m455b55934d" x="37.98" y="257.875818" style="stroke: #000000; stroke-width: 0.5"/>
      </g>
     </g>
     <g id="line2d_102">
      <g>
       <use xlink:href="#mb1010934a8" x="456.48" y="257.875818" style="stroke: #000000; stroke-width: 0.5"/>
      </g>
     </g>
    </g>
    <g id="ytick_17">
     <g id="line2d_103">
      <g>
       <use xlink:href="#m455b55934d" x="37.98" y="250.778735" style="stroke: #000000; stroke-width: 0.5"/>
      </g>
     </g>
     <g id="line2d_104">
      <g>
       <use xlink:href="#mb1010934a8" x="456.48" y="250.778735" style="stroke: #000000; stroke-width: 0.5"/>
      </g>
     </g>
    </g>
    <g id="ytick_18">
     <g id="line2d_105">
      <g>
       <use xlink:href="#m455b55934d" x="37.98" y="243.681651" style="stroke: #000000; stroke-width: 0.5"/>
      </g>
     </g>
     <g id="line2d_106">
      <g>
       <use xlink:href="#mb1010934a8" x="456.48" y="243.681651" style="stroke: #000000; stroke-width: 0.5"/>
      </g>
     </g>
    </g>
    <g id="ytick_19">
     <g id="line2d_107">
      <g>
       <use xlink:href="#m455b55934d" x="37.98" y="229.487485" style="stroke: #000000; stroke-width: 0.5"/>
      </g>
     </g>
     <g id="line2d_108">
      <g>
       <use xlink:href="#mb1010934a8" x="456.48" y="229.487485" style="stroke: #000000; stroke-width: 0.5"/>
      </g>
     </g>
    </g>
    <g id="ytick_20">
     <g id="line2d_109">
      <g>
       <use xlink:href="#m455b55934d" x="37.98" y="222.390401" style="stroke: #000000; stroke-width: 0.5"/>
      </g>
     </g>
     <g id="line2d_110">
      <g>
       <use xlink:href="#mb1010934a8" x="456.48" y="222.390401" style="stroke: #000000; stroke-width: 0.5"/>
      </g>
     </g>
    </g>
    <g id="ytick_21">
     <g id="line2d_111">
      <g>
       <use xlink:href="#m455b55934d" x="37.98" y="215.293318" style="stroke: #000000; stroke-width: 0.5"/>
      </g>
     </g>
     <g id="line2d_112">
      <g>
       <use xlink:href="#mb1010934a8" x="456.48" y="215.293318" style="stroke: #000000; stroke-width: 0.5"/>
      </g>
     </g>
    </g>
    <g id="ytick_22">
     <g id="line2d_113">
      <g>
       <use xlink:href="#m455b55934d" x="37.98" y="208.196234" style="stroke: #000000; stroke-width: 0.5"/>
      </g>
     </g>
     <g id="line2d_114">
      <g>
       <use xlink:href="#mb1010934a8" x="456.48" y="208.196234" style="stroke: #000000; stroke-width: 0.5"/>
      </g>
     </g>
    </g>
    <g id="ytick_23">
     <g id="line2d_115">
      <g>
       <use xlink:href="#m455b55934d" x="37.98" y="194.002067" style="stroke: #000000; stroke-width: 0.5"/>
      </g>
     </g>
     <g id="line2d_116">
      <g>
       <use xlink:href="#mb1010934a8" x="456.48" y="194.002067" style="stroke: #000000; stroke-width: 0.5"/>
      </g>
     </g>
    </g>
    <g id="ytick_24">
     <g id="line2d_117">
      <g>
       <use xlink:href="#m455b55934d" x="37.98" y="186.904984" style="stroke: #000000; stroke-width: 0.5"/>
      </g>
     </g>
     <g id="line2d_118">
      <g>
       <use xlink:href="#mb1010934a8" x="456.48" y="186.904984" style="stroke: #000000; stroke-width: 0.5"/>
      </g>
     </g>
    </g>
    <g id="ytick_25">
     <g id="line2d_119">
      <g>
       <use xlink:href="#m455b55934d" x="37.98" y="179.807901" style="stroke: #000000; stroke-width: 0.5"/>
      </g>
     </g>
     <g id="line2d_120">
      <g>
       <use xlink:href="#mb1010934a8" x="456.48" y="179.807901" style="stroke: #000000; stroke-width: 0.5"/>
      </g>
     </g>
    </g>
    <g id="ytick_26">
     <g id="line2d_121">
      <g>
       <use xlink:href="#m455b55934d" x="37.98" y="172.710817" style="stroke: #000000; stroke-width: 0.5"/>
      </g>
     </g>
     <g id="line2d_122">
      <g>
       <use xlink:href="#mb1010934a8" x="456.48" y="172.710817" style="stroke: #000000; stroke-width: 0.5"/>
      </g>
     </g>
    </g>
    <g id="ytick_27">
     <g id="line2d_123">
      <g>
       <use xlink:href="#m455b55934d" x="37.98" y="158.51665" style="stroke: #000000; stroke-width: 0.5"/>
      </g>
     </g>
     <g id="line2d_124">
      <g>
       <use xlink:href="#mb1010934a8" x="456.48" y="158.51665" style="stroke: #000000; stroke-width: 0.5"/>
      </g>
     </g>
    </g>
    <g id="ytick_28">
     <g id="line2d_125">
      <g>
       <use xlink:href="#m455b55934d" x="37.98" y="151.419567" style="stroke: #000000; stroke-width: 0.5"/>
      </g>
     </g>
     <g id="line2d_126">
      <g>
       <use xlink:href="#mb1010934a8" x="456.48" y="151.419567" style="stroke: #000000; stroke-width: 0.5"/>
      </g>
     </g>
    </g>
    <g id="ytick_29">
     <g id="line2d_127">
      <g>
       <use xlink:href="#m455b55934d" x="37.98" y="144.322483" style="stroke: #000000; stroke-width: 0.5"/>
      </g>
     </g>
     <g id="line2d_128">
      <g>
       <use xlink:href="#mb1010934a8" x="456.48" y="144.322483" style="stroke: #000000; stroke-width: 0.5"/>
      </g>
     </g>
    </g>
    <g id="ytick_30">
     <g id="line2d_129">
      <g>
       <use xlink:href="#m455b55934d" x="37.98" y="137.2254" style="stroke: #000000; stroke-width: 0.5"/>
      </g>
     </g>
     <g id="line2d_130">
      <g>
       <use xlink:href="#mb1010934a8" x="456.48" y="137.2254" style="stroke: #000000; stroke-width: 0.5"/>
      </g>
     </g>
    </g>
    <g id="ytick_31">
     <g id="line2d_131">
      <g>
       <use xlink:href="#m455b55934d" x="37.98" y="123.031233" style="stroke: #000000; stroke-width: 0.5"/>
      </g>
     </g>
     <g id="line2d_132">
      <g>
       <use xlink:href="#mb1010934a8" x="456.48" y="123.031233" style="stroke: #000000; stroke-width: 0.5"/>
      </g>
     </g>
    </g>
    <g id="ytick_32">
     <g id="line2d_133">
      <g>
       <use xlink:href="#m455b55934d" x="37.98" y="115.93415" style="stroke: #000000; stroke-width: 0.5"/>
      </g>
     </g>
     <g id="line2d_134">
      <g>
       <use xlink:href="#mb1010934a8" x="456.48" y="115.93415" style="stroke: #000000; stroke-width: 0.5"/>
      </g>
     </g>
    </g>
    <g id="ytick_33">
     <g id="line2d_135">
      <g>
       <use xlink:href="#m455b55934d" x="37.98" y="108.837066" style="stroke: #000000; stroke-width: 0.5"/>
      </g>
     </g>
     <g id="line2d_136">
      <g>
       <use xlink:href="#mb1010934a8" x="456.48" y="108.837066" style="stroke: #000000; stroke-width: 0.5"/>
      </g>
     </g>
    </g>
    <g id="ytick_34">
     <g id="line2d_137">
      <g>
       <use xlink:href="#m455b55934d" x="37.98" y="101.739983" style="stroke: #000000; stroke-width: 0.5"/>
      </g>
     </g>
     <g id="line2d_138">
      <g>
       <use xlink:href="#mb1010934a8" x="456.48" y="101.739983" style="stroke: #000000; stroke-width: 0.5"/>
      </g>
     </g>
    </g>
    <g id="ytick_35">
     <g id="line2d_139">
      <g>
       <use xlink:href="#m455b55934d" x="37.98" y="87.545816" style="stroke: #000000; stroke-width: 0.5"/>
      </g>
     </g>
     <g id="line2d_140">
      <g>
       <use xlink:href="#mb1010934a8" x="456.48" y="87.545816" style="stroke: #000000; stroke-width: 0.5"/>
      </g>
     </g>
    </g>
    <g id="ytick_36">
     <g id="line2d_141">
      <g>
       <use xlink:href="#m455b55934d" x="37.98" y="80.448732" style="stroke: #000000; stroke-width: 0.5"/>
      </g>
     </g>
     <g id="line2d_142">
      <g>
       <use xlink:href="#mb1010934a8" x="456.48" y="80.448732" style="stroke: #000000; stroke-width: 0.5"/>
      </g>
     </g>
    </g>
    <g id="ytick_37">
     <g id="line2d_143">
      <g>
       <use xlink:href="#m455b55934d" x="37.98" y="73.351649" style="stroke: #000000; stroke-width: 0.5"/>
      </g>
     </g>
     <g id="line2d_144">
      <g>
       <use xlink:href="#mb1010934a8" x="456.48" y="73.351649" style="stroke: #000000; stroke-width: 0.5"/>
      </g>
     </g>
    </g>
    <g id="ytick_38">
     <g id="line2d_145">
      <g>
       <use xlink:href="#m455b55934d" x="37.98" y="66.254565" style="stroke: #000000; stroke-width: 0.5"/>
      </g>
     </g>
     <g id="line2d_146">
      <g>
       <use xlink:href="#mb1010934a8" x="456.48" y="66.254565" style="stroke: #000000; stroke-width: 0.5"/>
      </g>
     </g>
    </g>
    <g id="ytick_39">
     <g id="line2d_147">
      <g>
       <use xlink:href="#m455b55934d" x="37.98" y="52.060399" style="stroke: #000000; stroke-width: 0.5"/>
      </g>
     </g>
     <g id="line2d_148">
      <g>
       <use xlink:href="#mb1010934a8" x="456.48" y="52.060399" style="stroke: #000000; stroke-width: 0.5"/>
      </g>
     </g>
    </g>
    <g id="ytick_40">
     <g id="line2d_149">
      <g>
       <use xlink:href="#m455b55934d" x="37.98" y="44.963315" style="stroke: #000000; stroke-width: 0.5"/>
      </g>
     </g>
     <g id="line2d_150">
      <g>
       <use xlink:href="#mb1010934a8" x="456.48" y="44.963315" style="stroke: #000000; stroke-width: 0.5"/>
      </g>
     </g>
    </g>
    <g id="ytick_41">
     <g id="line2d_151">
      <g>
       <use xlink:href="#m455b55934d" x="37.98" y="37.866232" style="stroke: #000000; stroke-width: 0.5"/>
      </g>
     </g>
     <g id="line2d_152">
      <g>
       <use xlink:href="#mb1010934a8" x="456.48" y="37.866232" style="stroke: #000000; stroke-width: 0.5"/>
      </g>
     </g>
    </g>
    <g id="text_16">
     <!-- $g_2$ difference from exact -->
     <g transform="translate(13.161563 248.869625) rotate(-90) scale(0.14 -0.14)">
      <defs>
       <path id="Cmmi10-67" d="M 91 -916 
Q 91 -759 198 -642 
Q 306 -525 459 -525 
Q 563 -525 633 -589 
Q 703 -653 703 -756 
Q 703 -872 637 -964 
Q 572 -1056 469 -1094 
Q 641 -1147 1006 -1147 
Q 1300 -1147 1544 -920 
Q 1788 -694 1863 -397 
L 2047 353 
Q 1700 0 1325 0 
Q 1050 0 854 140 
Q 659 281 556 515 
Q 453 750 453 1013 
Q 453 1306 573 1628 
Q 694 1950 911 2225 
Q 1128 2500 1409 2664 
Q 1691 2828 2003 2828 
Q 2191 2828 2341 2725 
Q 2491 2622 2578 2450 
Q 2641 2700 2853 2700 
Q 2934 2700 2990 2651 
Q 3047 2603 3047 2522 
Q 3047 2503 3045 2493 
Q 3044 2484 3041 2472 
L 2309 -434 
Q 2259 -634 2125 -800 
Q 1991 -966 1809 -1077 
Q 1628 -1188 1412 -1250 
Q 1197 -1313 997 -1313 
Q 631 -1313 361 -1242 
Q 91 -1172 91 -916 
z
M 1338 166 
Q 1747 166 2144 728 
L 2497 2125 
Q 2453 2347 2322 2505 
Q 2191 2663 1991 2663 
Q 1778 2663 1589 2489 
Q 1400 2316 1275 2075 
Q 1156 1844 1045 1411 
Q 934 978 934 728 
Q 934 509 1034 337 
Q 1134 166 1338 166 
z
" transform="scale(0.015625)"/>
       <path id="Cmr10-32" d="M 319 0 
L 319 172 
Q 319 188 331 206 
L 1325 1306 
Q 1550 1550 1690 1715 
Q 1831 1881 1968 2097 
Q 2106 2313 2186 2536 
Q 2266 2759 2266 3009 
Q 2266 3272 2169 3511 
Q 2072 3750 1880 3894 
Q 1688 4038 1416 4038 
Q 1138 4038 916 3870 
Q 694 3703 603 3438 
Q 628 3444 672 3444 
Q 816 3444 917 3347 
Q 1019 3250 1019 3097 
Q 1019 2950 917 2848 
Q 816 2747 672 2747 
Q 522 2747 420 2851 
Q 319 2956 319 3097 
Q 319 3338 409 3548 
Q 500 3759 670 3923 
Q 841 4088 1055 4175 
Q 1269 4263 1509 4263 
Q 1875 4263 2190 4108 
Q 2506 3953 2690 3670 
Q 2875 3388 2875 3009 
Q 2875 2731 2753 2481 
Q 2631 2231 2440 2026 
Q 2250 1822 1953 1562 
Q 1656 1303 1563 1216 
L 838 519 
L 1453 519 
Q 1906 519 2211 526 
Q 2516 534 2534 550 
Q 2609 631 2688 1141 
L 2875 1141 
L 2694 0 
L 319 0 
z
" transform="scale(0.015625)"/>
       <path id="STIXGeneral-Regular-20" transform="scale(0.015625)"/>
       <path id="STIXGeneral-Regular-64" d="M 3142 269 
L 2202 -64 
L 2176 -45 
L 2176 365 
Q 1869 -64 1357 -64 
Q 826 -64 499 317 
Q 173 698 173 1312 
Q 173 1990 563 2467 
Q 954 2944 1504 2944 
Q 1850 2944 2176 2669 
L 2176 3667 
Q 2176 3866 2118 3930 
Q 2061 3994 1882 3994 
Q 1792 3994 1741 3987 
L 1741 4090 
Q 2323 4243 2682 4371 
L 2714 4358 
L 2714 730 
Q 2714 506 2768 435 
Q 2822 365 2995 365 
Q 3034 365 3142 371 
L 3142 269 
z
M 2176 653 
L 2176 2125 
Q 2176 2381 1981 2573 
Q 1786 2765 1523 2765 
Q 1158 2765 940 2438 
Q 723 2112 723 1568 
Q 723 979 963 624 
Q 1203 269 1606 269 
Q 1907 269 2080 474 
Q 2176 582 2176 653 
z
" transform="scale(0.015625)"/>
       <path id="STIXGeneral-Regular-66" d="M 134 2880 
L 659 2880 
Q 666 3264 710 3478 
Q 755 3693 883 3910 
Q 1152 4371 1786 4371 
Q 2074 4371 2262 4259 
Q 2451 4147 2451 3974 
Q 2451 3866 2374 3789 
Q 2298 3712 2182 3712 
Q 2029 3712 1894 3942 
Q 1741 4192 1555 4192 
Q 1197 4192 1197 3622 
L 1197 2880 
L 1978 2880 
L 1978 2675 
L 1197 2675 
L 1197 666 
Q 1197 307 1299 208 
Q 1402 109 1792 96 
L 1792 0 
L 128 0 
L 128 96 
Q 474 115 566 214 
Q 659 314 659 666 
L 659 2675 
L 134 2675 
L 134 2880 
z
" transform="scale(0.015625)"/>
       <path id="STIXGeneral-Regular-72" d="M 1024 2931 
L 1024 2342 
Q 1267 2688 1430 2816 
Q 1594 2944 1792 2944 
Q 1958 2944 2051 2854 
Q 2144 2765 2144 2605 
Q 2144 2470 2077 2393 
Q 2010 2317 1894 2317 
Q 1773 2317 1638 2445 
Q 1536 2541 1472 2541 
Q 1338 2541 1181 2355 
Q 1024 2170 1024 2016 
L 1024 576 
Q 1024 301 1133 205 
Q 1242 109 1568 96 
L 1568 0 
L 32 0 
L 32 96 
Q 339 154 412 224 
Q 486 294 486 538 
L 486 2138 
Q 486 2349 438 2435 
Q 390 2522 269 2522 
Q 166 2522 45 2496 
L 45 2598 
Q 448 2726 992 2944 
L 1024 2931 
z
" transform="scale(0.015625)"/>
       <path id="STIXGeneral-Regular-6e" d="M 3104 0 
L 1773 0 
L 1779 96 
Q 2016 115 2096 233 
Q 2176 352 2176 672 
L 2176 1946 
Q 2176 2592 1709 2592 
Q 1549 2592 1408 2515 
Q 1267 2438 1050 2227 
L 1050 461 
Q 1050 269 1136 192 
Q 1222 115 1466 96 
L 1466 0 
L 115 0 
L 115 96 
Q 358 115 435 214 
Q 512 314 512 602 
L 512 2157 
Q 512 2394 467 2483 
Q 422 2573 288 2573 
Q 160 2573 102 2547 
L 102 2656 
Q 550 2784 979 2944 
L 1030 2925 
L 1030 2426 
L 1037 2426 
Q 1491 2944 1958 2944 
Q 2323 2944 2518 2688 
Q 2714 2432 2714 1958 
L 2714 544 
Q 2714 288 2790 205 
Q 2867 122 3104 96 
L 3104 0 
z
" transform="scale(0.015625)"/>
       <path id="STIXGeneral-Regular-63" d="M 2547 998 
L 2637 941 
Q 2362 403 2112 205 
Q 1786 -64 1376 -64 
Q 845 -64 502 336 
Q 160 736 160 1357 
Q 160 2170 698 2618 
Q 1094 2944 1562 2944 
Q 1965 2944 2256 2749 
Q 2547 2554 2547 2285 
Q 2547 2176 2457 2096 
Q 2368 2016 2246 2016 
Q 2022 2016 1939 2310 
L 1901 2451 
Q 1850 2630 1773 2694 
Q 1696 2758 1523 2758 
Q 1133 2758 893 2451 
Q 653 2144 653 1645 
Q 653 1094 928 745 
Q 1203 397 1645 397 
Q 1920 397 2118 528 
Q 2317 659 2547 998 
z
" transform="scale(0.015625)"/>
       <path id="STIXGeneral-Regular-6f" d="M 3008 1478 
Q 3008 806 2608 371 
Q 2208 -64 1568 -64 
Q 979 -64 582 368 
Q 186 800 186 1459 
Q 186 2125 582 2534 
Q 979 2944 1626 2944 
Q 2221 2944 2614 2537 
Q 3008 2131 3008 1478 
z
M 2432 1306 
Q 2432 2035 2112 2445 
Q 1856 2765 1504 2765 
Q 1171 2765 966 2493 
Q 762 2221 762 1747 
Q 762 928 1101 435 
Q 1318 115 1677 115 
Q 2029 115 2230 432 
Q 2432 749 2432 1306 
z
" transform="scale(0.015625)"/>
       <path id="STIXGeneral-Regular-78" d="M 3066 0 
L 1779 0 
L 1779 96 
Q 1939 109 1987 137 
Q 2035 166 2035 250 
Q 2035 307 1997 365 
L 1414 1261 
L 909 474 
Q 781 275 781 211 
Q 781 96 1037 96 
L 1037 0 
L 109 0 
L 109 96 
Q 269 109 355 169 
Q 442 230 576 422 
L 1306 1478 
L 704 2400 
Q 557 2624 454 2704 
Q 352 2784 211 2784 
L 154 2784 
L 154 2880 
L 1478 2880 
L 1478 2784 
Q 1203 2778 1203 2643 
Q 1203 2509 1498 2074 
Q 1581 1958 1587 1946 
Q 1619 1990 1779 2227 
Q 1811 2285 1856 2349 
Q 1901 2413 1923 2451 
Q 1946 2490 1971 2528 
Q 1997 2566 2006 2595 
Q 2016 2624 2016 2643 
Q 2016 2765 1760 2784 
L 1760 2880 
L 2771 2880 
L 2771 2784 
Q 2445 2771 2253 2502 
L 1722 1734 
L 2541 480 
Q 2790 96 3066 96 
L 3066 0 
z
" transform="scale(0.015625)"/>
       <path id="STIXGeneral-Regular-61" d="M 2829 422 
L 2829 243 
Q 2586 -64 2253 -64 
Q 1888 -64 1843 403 
L 1837 403 
Q 1427 -64 909 -64 
Q 608 -64 422 112 
Q 237 288 237 602 
Q 237 1050 685 1350 
Q 992 1555 1837 1869 
L 1837 2214 
Q 1837 2502 1699 2646 
Q 1562 2790 1338 2790 
Q 1146 2790 1018 2697 
Q 890 2605 890 2477 
Q 890 2419 909 2348 
Q 928 2278 928 2208 
Q 928 2112 841 2029 
Q 755 1946 634 1946 
Q 525 1946 441 2029 
Q 358 2112 358 2240 
Q 358 2547 685 2752 
Q 986 2944 1421 2944 
Q 1939 2944 2176 2656 
Q 2291 2522 2323 2384 
Q 2355 2246 2355 1946 
L 2355 723 
Q 2355 301 2554 301 
Q 2682 301 2829 422 
z
M 1837 813 
L 1837 1715 
Q 1248 1510 1018 1293 
Q 800 1094 800 800 
Q 800 557 921 432 
Q 1043 307 1242 307 
Q 1453 307 1613 410 
Q 1747 506 1792 589 
Q 1837 672 1837 813 
z
" transform="scale(0.015625)"/>
       <path id="STIXGeneral-Regular-74" d="M 1702 493 
L 1786 422 
Q 1478 -64 1011 -64 
Q 448 -64 448 749 
L 448 2675 
L 109 2675 
Q 83 2694 83 2720 
Q 83 2771 192 2842 
Q 435 2982 813 3526 
Q 826 3546 874 3606 
Q 922 3667 941 3706 
Q 986 3706 986 3622 
L 986 2880 
L 1632 2880 
L 1632 2675 
L 986 2675 
L 986 845 
Q 986 538 1062 403 
Q 1139 269 1318 269 
Q 1510 269 1702 493 
z
" transform="scale(0.015625)"/>
      </defs>
      <use xlink:href="#Cmmi10-67" transform="translate(0 0.703125)"/>
      <use xlink:href="#Cmr10-32" transform="translate(47.705078 -16.303125) scale(0.7)"/>
      <use xlink:href="#STIXGeneral-Regular-20" transform="translate(89.082422 0.703125)"/>
      <use xlink:href="#STIXGeneral-Regular-64" transform="translate(114.082407 0.703125)"/>
      <use xlink:href="#STIXGeneral-Regular-69" transform="translate(164.082391 0.703125)"/>
      <use xlink:href="#STIXGeneral-Regular-66" transform="translate(191.882379 0.703125)"/>
      <use xlink:href="#STIXGeneral-Regular-66" transform="translate(225.182367 0.703125)"/>
      <use xlink:href="#STIXGeneral-Regular-65" transform="translate(258.482355 0.703125)"/>
      <use xlink:href="#STIXGeneral-Regular-72" transform="translate(302.882349 0.703125)"/>
      <use xlink:href="#STIXGeneral-Regular-65" transform="translate(336.182336 0.703125)"/>
      <use xlink:href="#STIXGeneral-Regular-6e" transform="translate(380.58233 0.703125)"/>
      <use xlink:href="#STIXGeneral-Regular-63" transform="translate(430.582315 0.703125)"/>
      <use xlink:href="#STIXGeneral-Regular-65" transform="translate(474.982309 0.703125)"/>
      <use xlink:href="#STIXGeneral-Regular-20" transform="translate(519.382303 0.703125)"/>
      <use xlink:href="#STIXGeneral-Regular-66" transform="translate(544.382288 0.703125)"/>
      <use xlink:href="#STIXGeneral-Regular-72" transform="translate(577.682275 0.703125)"/>
      <use xlink:href="#STIXGeneral-Regular-6f" transform="translate(610.982263 0.703125)"/>
      <use xlink:href="#STIXGeneral-Regular-6d" transform="translate(660.982248 0.703125)"/>
      <use xlink:href="#STIXGeneral-Regular-20" transform="translate(738.782236 0.703125)"/>
      <use xlink:href="#STIXGeneral-Regular-65" transform="translate(763.78222 0.703125)"/>
      <use xlink:href="#STIXGeneral-Regular-78" transform="translate(808.182214 0.703125)"/>
      <use xlink:href="#STIXGeneral-Regular-61" transform="translate(858.182199 0.703125)"/>
      <use xlink:href="#STIXGeneral-Regular-63" transform="translate(902.582193 0.703125)"/>
      <use xlink:href="#STIXGeneral-Regular-74" transform="translate(946.982187 0.703125)"/>
     </g>
    </g>
    <g id="text_17">
     <!-- $\times\mathdefault{10^{4}}\mathdefault{}$ -->
     <g transform="translate(37.98 33.475625) scale(0.12 -0.12)">
      <defs>
       <path id="Cmsy10-a3" d="M 941 184 
Q 941 234 972 275 
L 2303 1600 
L 972 2931 
Q 941 2963 941 3016 
Q 941 3063 978 3103 
Q 1016 3144 1069 3144 
Q 1113 3144 1166 3103 
L 2491 1778 
L 3809 3103 
Q 3863 3144 3903 3144 
Q 3956 3144 3993 3106 
Q 4031 3069 4031 3016 
Q 4031 2963 4000 2931 
L 2669 1600 
L 4000 275 
Q 4031 234 4031 184 
Q 4031 131 3993 93 
Q 3956 56 3903 56 
Q 3856 56 3809 103 
L 2491 1422 
L 1166 103 
Q 1119 56 1069 56 
Q 1016 56 978 97 
Q 941 138 941 184 
z
" transform="scale(0.015625)"/>
      </defs>
      <use xlink:href="#Cmsy10-a3" transform="translate(0 0.684375)"/>
      <use xlink:href="#STIXGeneral-Regular-31" transform="translate(77.685547 0.684375)"/>
      <use xlink:href="#STIXGeneral-Regular-30" transform="translate(127.685532 0.684375)"/>
      <use xlink:href="#STIXGeneral-Regular-34" transform="translate(179.260516 36.684375) scale(0.7)"/>
     </g>
    </g>
   </g>
   <g id="line2d_153">
    <path d="M 57.002727 59.157503 
L 224.554909 59.238424 
L 225.924545 59.249305 
L 226.989818 59.24602 
L 232.544455 59.2675 
L 234.979364 59.226818 
L 238.86 59.262211 
L 239.697 59.257172 
L 246.773455 59.287219 
L 247.534364 59.296477 
L 248.447455 59.261899 
L 248.904 59.276323 
L 249.512727 59.281927 
L 250.882364 59.284954 
L 255.067364 59.22879 
L 256.817455 59.198528 
L 258.034909 59.270325 
L 258.491455 59.237355 
L 260.165455 59.275075 
L 260.774182 59.268949 
L 265.491818 59.368875 
L 265.948364 59.366264 
L 268.992 59.434157 
L 269.524636 59.368962 
L 274.090091 59.290725 
L 274.698818 59.300179 
L 275.307545 59.297066 
L 276.296727 59.329734 
L 277.514182 59.339338 
L 277.894636 59.335508 
L 279.492545 59.266907 
L 280.329545 59.303309 
L 280.71 59.29132 
L 281.090455 59.273639 
L 281.623091 59.25933 
L 284.818909 59.288599 
L 285.199364 59.308897 
L 286.036364 59.391504 
L 286.416818 59.432716 
L 286.873364 59.415257 
L 287.253818 59.401361 
L 287.558182 59.425431 
L 288.014727 59.399776 
L 289.612636 59.426691 
L 290.069182 59.381219 
L 291.362727 59.333057 
L 291.971455 59.331498 
L 292.275818 59.339518 
L 292.580182 59.353083 
L 292.884545 59.347067 
L 293.417182 59.443779 
L 293.873727 59.457494 
L 296.689091 59.43764 
L 296.993455 59.416656 
L 297.45 59.393929 
L 298.134818 59.398865 
L 299.808818 59.179314 
L 300.189273 59.11558 
L 300.798 59.082615 
L 301.178455 59.070088 
L 301.939364 59.209586 
L 302.319818 59.439713 
L 302.548091 59.571745 
L 302.852455 59.776216 
L 303.080727 59.829569 
L 303.461182 59.781565 
L 303.613364 59.775958 
L 304.146 59.79839 
L 304.602545 59.926512 
L 304.754727 59.876836 
L 305.135182 59.799218 
L 305.287364 59.790409 
L 305.515636 59.920948 
L 306.124364 59.883845 
L 306.428727 59.908093 
L 307.417909 59.73015 
L 307.798364 59.794187 
L 308.483182 59.625275 
L 308.711455 59.648872 
L 309.091909 59.591532 
L 309.396273 59.546985 
L 309.928909 59.626538 
L 310.309364 59.519172 
L 310.918091 59.585226 
L 311.526818 59.420166 
L 311.983364 59.379644 
L 312.439909 59.339283 
L 312.744273 59.251794 
L 313.276909 59.249945 
L 315.940091 59.183868 
L 316.320545 59.133971 
L 316.777091 59.173592 
L 317.233636 59.302599 
L 317.461909 59.388666 
L 317.766273 59.440375 
L 317.918455 59.397532 
L 318.222818 59.50789 
L 319.592455 59.490194 
L 319.896818 59.459472 
L 320.809909 59.441428 
L 321.114273 59.420608 
L 321.418636 59.468869 
L 321.646909 59.471534 
L 322.027364 59.522766 
L 322.407818 59.534014 
L 322.712182 59.616205 
L 322.864364 59.673796 
L 324.005727 59.751094 
L 325.527545 59.716847 
L 326.897182 59.747993 
L 327.125455 59.709413 
L 328.114636 59.83211 
L 328.190727 59.788322 
L 328.342909 59.884408 
L 329.256 60.106993 
L 329.484273 60.423199 
L 329.636455 60.292271 
L 330.245182 60.242973 
L 330.397364 60.178443 
L 330.777818 60.454553 
L 330.93 60.481754 
L 331.006091 60.531168 
L 331.082182 60.769932 
L 331.310455 60.346622 
L 331.462636 60.324776 
L 331.614818 60.190838 
L 332.147455 60.121699 
L 332.527909 60.104765 
L 332.680091 60.017724 
L 333.212727 60.156385 
L 333.441 59.960152 
L 333.897545 60.061116 
L 334.125818 59.996719 
L 334.278 60.112419 
L 334.430182 60.141053 
L 334.734545 60.141807 
L 334.962818 60.493706 
L 335.267182 60.185838 
L 335.799818 60.173172 
L 336.104182 60.208396 
L 336.332455 60.359114 
L 336.560727 60.236184 
L 336.941182 60.15271 
L 337.093364 60.291738 
L 337.245545 60.223381 
L 337.397727 60.290397 
L 337.473818 60.214802 
L 337.778182 60.505775 
L 338.006455 60.398233 
L 338.234727 60.500373 
L 338.310818 60.394374 
L 338.386909 60.462157 
L 338.539091 60.655486 
L 338.615182 60.446474 
L 338.691273 60.480705 
L 338.919545 60.642761 
L 338.995636 60.816437 
L 339.147818 60.671908 
L 339.528273 60.778987 
L 339.604364 60.742249 
L 339.680455 61.059581 
L 339.984818 60.485527 
L 340.365273 60.6167 
L 340.517455 60.874942 
L 340.745727 60.424761 
L 340.897909 60.251811 
L 341.126182 60.025118 
L 341.278364 60.057126 
L 341.430545 59.970433 
L 341.734909 60.479454 
L 341.811 60.475995 
L 341.963182 60.326897 
L 342.115364 60.509322 
L 342.267545 60.307805 
L 342.343636 60.444324 
L 342.571909 60.505154 
L 342.724091 60.782684 
L 342.800182 60.547386 
L 342.876273 60.579326 
L 343.104545 60.322855 
L 343.180636 60.444527 
L 343.256727 60.361098 
L 343.865455 60.053647 
L 344.093727 60.368046 
L 344.322 60.568537 
L 344.550273 60.302112 
L 344.702455 60.644325 
L 344.778545 60.586995 
L 345.159 60.430314 
L 345.311182 60.650395 
L 345.387273 60.58607 
L 345.615545 61.241379 
L 345.691636 60.912769 
L 345.767727 61.02118 
L 345.996 61.553169 
L 346.148182 61.117291 
L 346.452545 61.251679 
L 346.680818 62.460692 
L 346.756909 62.835649 
L 347.061273 61.468684 
L 347.137364 61.791985 
L 347.289545 63.036406 
L 347.441727 62.597847 
L 347.593909 63.298066 
L 347.67 62.351011 
L 347.746091 62.611946 
L 347.898273 61.670099 
L 348.050455 61.301158 
L 348.278727 61.784508 
L 348.354818 61.631719 
L 348.430909 62.044314 
L 348.507 61.960125 
L 348.887455 60.778488 
L 349.115727 61.254486 
L 349.191818 61.097663 
L 349.648364 61.621748 
L 349.876636 60.963427 
L 349.952727 61.26312 
L 350.104909 60.676376 
L 350.181 60.75097 
L 350.409273 60.502147 
L 350.561455 60.496151 
L 350.789727 60.427855 
L 350.865818 60.487936 
L 350.941909 60.303106 
L 351.018 60.487149 
L 351.094091 60.400369 
L 351.322364 60.476084 
L 351.626727 60.62317 
L 351.855 61.183752 
L 352.007182 61.01961 
L 352.159364 61.635895 
L 352.235455 61.631337 
L 352.387636 61.004416 
L 352.539818 61.45692 
L 352.615909 61.930709 
L 352.844182 61.384439 
L 352.996364 61.627977 
L 353.072455 61.417768 
L 353.148545 61.553222 
L 353.224636 61.385058 
L 353.300727 61.591888 
L 353.452909 61.056241 
L 353.605091 61.699173 
L 353.757273 61.655158 
L 353.909455 62.610176 
L 353.985545 62.268772 
L 354.213818 63.523259 
L 354.289909 63.667976 
L 354.366 64.159432 
L 354.442091 63.243401 
L 354.594273 64.462668 
L 354.746455 63.109726 
L 354.822545 63.501556 
L 354.898636 63.745274 
L 355.050818 62.488156 
L 355.279091 62.167748 
L 355.583455 60.983742 
L 355.887818 61.904443 
L 355.963909 61.636794 
L 356.192182 61.634202 
L 356.268273 62.083769 
L 356.344364 61.822154 
L 356.572636 62.326398 
L 356.648727 62.307972 
L 356.800909 62.446258 
L 356.953091 62.492583 
L 357.029182 62.951267 
L 357.105273 62.202153 
L 357.181364 62.258586 
L 357.333545 61.941271 
L 357.485727 62.412384 
L 357.790091 61.30886 
L 357.942273 60.966385 
L 358.018364 61.158347 
L 358.094455 61.115669 
L 358.474909 60.779999 
L 358.551 60.761267 
L 358.703182 60.585349 
L 358.931455 60.642906 
L 359.159727 60.556074 
L 359.311909 60.932597 
L 359.464091 61.541684 
L 359.616273 60.478648 
L 359.692364 60.532945 
L 359.768455 60.225629 
L 359.844545 60.458298 
L 359.920636 60.314583 
L 359.996727 60.388858 
L 360.225 60.80471 
L 360.453273 60.649176 
L 360.529364 61.005417 
L 360.605455 60.74816 
L 360.681545 60.818254 
L 360.833727 61.022924 
L 360.909818 61.35485 
L 360.985909 61.116452 
L 361.062 61.226899 
L 361.442455 63.395553 
L 361.518545 62.785802 
L 361.594636 63.764797 
L 361.746818 62.032121 
L 361.822909 62.931316 
L 361.899 62.472599 
L 361.975091 62.580044 
L 362.355545 61.10445 
L 362.431636 61.391971 
L 362.507727 61.396646 
L 362.583818 61.199764 
L 362.659909 61.623337 
L 362.736 61.506074 
L 362.964273 61.521903 
L 363.116455 62.488237 
L 363.192545 62.376898 
L 363.268636 61.805182 
L 363.496909 63.243168 
L 363.649091 64.361176 
L 363.725182 64.285825 
L 363.953455 63.016648 
L 364.029545 63.80209 
L 364.105636 63.312386 
L 364.333909 66.407147 
L 364.41 65.025612 
L 364.486091 65.248846 
L 364.638273 68.108449 
L 364.714364 67.553357 
L 364.790455 68.11839 
L 364.866545 70.34182 
L 364.942636 68.742832 
L 365.018727 70.956248 
L 365.094818 70.711314 
L 365.170909 69.755252 
L 365.247 72.021184 
L 365.323091 71.286952 
L 365.399182 71.349046 
L 365.475273 69.321911 
L 365.551364 71.595346 
L 365.627455 70.960069 
L 365.703545 71.935774 
L 365.855727 77.480871 
L 365.931818 78.347685 
L 366.084 72.500684 
L 366.160091 72.902764 
L 366.312273 74.264578 
L 366.388364 75.194991 
L 366.464455 81.346262 
L 366.616636 73.995401 
L 366.768818 79.425478 
L 366.921 103.221443 
L 367.073182 86.523365 
L 367.225364 121.34726 
L 367.301455 118.341381 
L 367.377545 90.133938 
L 367.453636 99.990529 
L 367.681909 140.29998 
L 367.758 130.423001 
L 367.910182 87.167072 
L 367.986273 87.809876 
L 368.062364 81.904486 
L 368.138455 95.202637 
L 368.214545 86.120295 
L 368.518909 311.659625 
L 368.747182 118.795707 
L 368.975455 86.507995 
L 369.051545 110.139267 
L 369.279818 77.186386 
L 369.432 66.753683 
L 369.584182 67.83524 
L 369.660273 66.660385 
L 369.736364 66.749998 
L 369.812455 66.809566 
L 369.888545 68.893905 
L 369.964636 65.968387 
L 370.040727 66.697054 
L 370.192909 64.889384 
L 370.269 64.984184 
L 370.345091 63.765104 
L 370.497273 65.399503 
L 370.725545 66.320794 
L 370.877727 70.07426 
L 371.334273 91.284212 
L 371.486455 74.3615 
L 371.562545 75.13977 
L 371.638636 73.559937 
L 371.943 104.086889 
L 372.171273 77.34585 
L 372.247364 75.687592 
L 372.323455 70.026282 
L 372.399545 74.264449 
L 372.475636 73.879228 
L 372.551727 72.193182 
L 372.627818 75.797092 
L 372.703909 73.117819 
L 372.78 75.418681 
L 372.856091 71.256084 
L 372.932182 71.670994 
L 373.008273 73.52634 
L 373.084364 79.23453 
L 373.160455 73.567388 
L 373.236545 73.948883 
L 373.312636 71.719101 
L 373.464818 75.556539 
L 373.540909 74.27946 
L 373.693091 81.99071 
L 373.769182 81.805528 
L 373.845273 73.382882 
L 373.997455 83.740892 
L 374.149636 77.88101 
L 374.301818 85.721867 
L 374.530091 69.919895 
L 374.606182 66.701323 
L 374.682273 68.195009 
L 374.758364 67.556116 
L 374.986636 62.439767 
L 375.062727 62.557209 
L 375.138818 62.550015 
L 375.291 61.546608 
L 375.367091 61.646102 
L 375.519273 63.426228 
L 375.595364 63.330998 
L 375.671455 62.321076 
L 375.747545 62.354796 
L 375.823636 62.709829 
L 375.975818 62.058816 
L 376.051909 62.161229 
L 376.204091 61.581293 
L 376.280182 61.684761 
L 376.432364 62.311927 
L 376.584545 61.806852 
L 376.660636 61.436132 
L 376.736727 61.589437 
L 376.812818 61.635176 
L 377.041091 62.051548 
L 377.193273 61.757476 
L 377.269364 61.701058 
L 377.421545 61.269359 
L 377.573727 61.996298 
L 377.649818 62.481996 
L 377.725909 61.993482 
L 377.802 62.371377 
L 378.030273 60.754308 
L 378.106364 60.647683 
L 378.258545 60.885631 
L 378.562909 60.299201 
L 378.639 60.418583 
L 378.715091 60.312754 
L 378.791182 60.378851 
L 378.867273 60.374539 
L 378.943364 60.543008 
L 379.019455 60.290607 
L 379.095545 60.342082 
L 379.171636 60.187396 
L 379.247727 60.33404 
L 379.399909 60.137385 
L 379.780364 60.509949 
L 379.932545 60.488868 
L 380.160818 59.970861 
L 380.389091 60.263838 
L 380.541273 60.340122 
L 380.693455 60.1225 
L 380.769545 60.234653 
L 380.997818 59.917111 
L 381.15 60.021554 
L 381.378273 59.434178 
L 381.530455 59.251957 
L 381.758727 59.895083 
L 381.910909 59.677274 
L 381.987 59.854732 
L 382.139182 59.763929 
L 382.215273 59.902499 
L 382.291364 59.7477 
L 382.367455 59.883388 
L 382.443545 59.795305 
L 382.519636 59.580697 
L 382.595727 59.63021 
L 382.671818 59.568589 
L 382.824 59.671778 
L 382.900091 59.61416 
L 382.976182 59.75318 
L 383.128364 59.501818 
L 383.204455 59.468995 
L 383.280545 59.306226 
L 383.356636 59.350607 
L 383.508818 59.507969 
L 383.584909 59.383562 
L 383.737091 59.587274 
L 384.421909 59.15474 
L 384.498 58.998398 
L 384.574091 59.046939 
L 384.726273 58.825053 
L 384.802364 58.753804 
L 385.030636 59.008472 
L 385.106727 58.789283 
L 385.335 59.000075 
L 385.639364 59.123704 
L 385.715455 59.031117 
L 385.791545 59.113625 
L 385.867636 59.017512 
L 385.943727 59.140014 
L 386.019818 59.065618 
L 386.095909 58.965945 
L 386.248091 59.025201 
L 386.400273 58.799165 
L 386.476364 58.859057 
L 386.704636 58.929354 
L 386.932909 59.05003 
L 387.161182 59.215242 
L 387.389455 59.125698 
L 387.541636 59.332056 
L 388.150364 59.950489 
L 388.683 59.516781 
L 388.759091 59.60464 
L 388.835182 59.387512 
L 388.911273 59.472166 
L 388.987364 59.594282 
L 389.139545 59.153153 
L 389.215636 59.18435 
L 389.367818 59.310612 
L 389.443909 59.081257 
L 389.52 59.216513 
L 389.596091 59.037531 
L 389.672182 59.173431 
L 389.748273 59.094895 
L 389.824364 59.080881 
L 389.976545 59.408196 
L 390.357 59.20569 
L 390.661364 58.957735 
L 390.813545 59.059363 
L 390.965727 58.887644 
L 391.194 58.725546 
L 391.346182 59.133426 
L 391.422273 59.073217 
L 391.498364 58.984286 
L 391.726636 59.248813 
L 391.878818 59.04379 
L 392.107091 59.428067 
L 392.259273 59.026428 
L 392.411455 59.321932 
L 392.487545 59.372029 
L 392.639727 59.162745 
L 392.715818 59.135626 
L 392.791909 58.917497 
L 392.944091 59.327924 
L 393.020182 59.234046 
L 393.096273 59.255386 
L 393.248455 59.4557 
L 393.324545 59.408136 
L 393.400636 58.845187 
L 393.476727 59.095216 
L 393.628909 58.608686 
L 393.781091 58.9826 
L 394.085455 57.981852 
L 394.237636 56.928252 
L 394.313727 56.960701 
L 394.465909 56.363901 
L 394.542 55.868528 
L 394.618091 56.63807 
L 394.846364 55.044267 
L 395.074636 49.632873 
L 395.150727 50.873088 
L 395.302909 49.579625 
L 395.379 53.363549 
L 395.455091 52.119443 
L 395.531182 52.280317 
L 395.607273 50.652202 
L 395.683364 51.336281 
L 395.835545 54.105217 
L 395.911636 53.781941 
L 396.063818 55.111323 
L 396.139909 55.079914 
L 396.216 54.47866 
L 396.292091 54.635605 
L 396.368182 51.616259 
L 396.444273 51.87323 
L 396.596455 56.067501 
L 396.900818 52.649462 
L 396.976909 52.661964 
L 397.205182 55.56274 
L 397.281273 54.950605 
L 397.357364 55.601784 
L 397.737818 49.987653 
L 397.89 52.85921 
L 397.966091 54.059234 
L 398.042182 53.287594 
L 398.118273 55.288738 
L 398.194364 54.698284 
L 398.346545 52.612507 
L 398.422636 53.79172 
L 398.498727 52.365581 
L 398.574818 52.492558 
L 398.650909 54.504027 
L 398.727 54.377152 
L 399.031364 51.627887 
L 399.183545 54.146199 
L 399.259636 53.752565 
L 399.335727 53.979195 
L 399.411818 53.920477 
L 399.487909 54.067836 
L 399.640091 56.701399 
L 399.716182 56.671346 
L 399.944455 58.759007 
L 400.020545 58.652062 
L 400.172727 57.898846 
L 400.248818 58.357266 
L 400.324909 57.886982 
L 400.477091 58.646022 
L 400.553182 58.282952 
L 400.629273 58.316692 
L 400.705364 58.687786 
L 400.781455 58.625198 
L 401.085818 58.374027 
L 401.161909 58.684439 
L 401.238 58.585322 
L 401.314091 58.652401 
L 401.390182 58.544652 
L 401.466273 58.604884 
L 401.542364 58.824424 
L 401.618455 58.578012 
L 401.694545 58.896228 
L 401.770636 58.651754 
L 401.846727 58.705572 
L 401.922818 58.606142 
L 402.151091 58.904458 
L 402.227182 58.85708 
L 402.303273 58.971899 
L 402.379364 58.898928 
L 402.455455 58.942016 
L 402.607636 58.860478 
L 402.759818 59.05836 
L 402.835909 59.028443 
L 403.064182 59.382355 
L 403.444636 59.366177 
L 404.053364 59.529573 
L 404.205545 60.166996 
L 404.433818 59.934585 
L 404.509909 59.872178 
L 404.586 60.044077 
L 404.662091 59.993546 
L 404.814273 59.830423 
L 405.346909 60.037063 
L 405.499091 60.312179 
L 405.651273 60.050032 
L 405.727364 60.118195 
L 406.031727 61.393769 
L 406.183909 60.691396 
L 406.336091 61.109844 
L 406.564364 60.167884 
L 406.944818 59.78993 
L 407.020909 59.805692 
L 407.097 60.085019 
L 407.173091 60.003199 
L 407.249182 60.110407 
L 407.477455 59.709066 
L 407.553545 59.720125 
L 407.705727 60.20572 
L 407.781818 60.639063 
L 407.857909 60.601224 
L 407.934 60.387931 
L 408.010091 60.545693 
L 408.086182 60.482815 
L 408.238364 60.389199 
L 408.390545 59.849217 
L 408.466636 59.693167 
L 408.618818 59.766451 
L 408.694909 59.668893 
L 408.771 59.918896 
L 408.847091 59.806603 
L 408.923182 59.658708 
L 409.075364 60.313641 
L 409.151455 60.215187 
L 409.303636 60.471067 
L 409.379727 61.185751 
L 409.455818 60.837453 
L 409.608 61.291752 
L 409.760182 60.643133 
L 409.836273 60.610431 
L 409.912364 60.717305 
L 410.064545 60.329477 
L 410.216727 60.428097 
L 410.292818 60.73553 
L 410.368909 60.563206 
L 410.445 60.920872 
L 410.749364 59.960175 
L 410.977636 60.245362 
L 411.053727 60.071549 
L 411.129818 60.138238 
L 411.358091 60.946263 
L 411.434182 60.577388 
L 411.738545 61.257097 
L 411.814636 61.271806 
L 411.966818 63.092617 
L 412.195091 65.436324 
L 412.423364 63.466513 
L 412.499455 63.244084 
L 412.575545 63.393887 
L 412.727727 64.227819 
L 412.803818 63.940251 
L 412.879909 62.714974 
L 412.956 62.841743 
L 413.032091 63.06819 
L 413.108182 62.833599 
L 413.184273 63.095505 
L 413.260364 64.263923 
L 413.336455 64.001134 
L 413.488636 62.667669 
L 413.564727 62.759728 
L 413.869091 61.014019 
L 414.021273 60.956237 
L 414.097364 60.239737 
L 414.173455 60.316293 
L 414.401727 60.546097 
L 415.771364 59.595089 
L 415.923545 59.660194 
L 415.999636 59.611889 
L 416.075727 59.795114 
L 416.151818 59.654929 
L 416.304 59.855217 
L 416.456182 59.778995 
L 416.608364 59.93248 
L 416.684455 60.134978 
L 416.760545 59.949404 
L 416.836636 60.087519 
L 416.988818 59.976875 
L 417.141 60.077382 
L 417.217091 60.07807 
L 417.445364 59.752158 
L 417.521455 59.781688 
L 417.673636 59.43029 
L 417.825818 59.741877 
L 417.901909 59.75434 
L 418.054091 59.367261 
L 418.206273 59.617678 
L 418.282364 59.651029 
L 418.586727 59.306728 
L 418.738909 59.44258 
L 418.967182 58.922943 
L 419.195455 58.565425 
L 419.499818 58.97309 
L 420.412909 59.664306 
L 420.641182 60.088666 
L 420.793364 59.926227 
L 420.869455 60.22242 
L 421.097727 59.754211 
L 421.326 59.4494 
L 421.554273 59.443211 
L 421.782545 59.777407 
L 421.858636 59.565505 
L 422.086909 60.212558 
L 422.315182 61.04696 
L 422.467364 60.427016 
L 422.543455 60.548902 
L 422.771727 59.862119 
L 422.923909 59.891236 
L 423.228273 59.632299 
L 423.380455 59.376953 
L 423.532636 59.610938 
L 424.141364 58.734366 
L 424.217455 58.661882 
L 424.445727 58.860499 
L 424.902273 58.734557 
L 425.282727 59.074882 
L 425.511 58.9243 
L 425.663182 58.881717 
L 425.815364 58.665028 
L 425.967545 58.877235 
L 426.119727 58.76221 
L 426.195818 58.702014 
L 426.348 58.889491 
L 426.424091 58.790921 
L 426.576273 59.058751 
L 426.880636 59.232941 
L 427.032818 59.019201 
L 427.413273 58.999895 
L 427.945909 59.042677 
L 428.250273 58.912338 
L 428.402455 58.911436 
L 428.630727 58.880658 
L 429.163364 58.782174 
L 429.924273 58.912974 
L 430.076455 58.958468 
L 430.989545 58.754326 
L 431.522182 58.846366 
L 431.598273 58.769417 
L 431.674364 58.856263 
L 431.826545 58.789902 
L 432.130909 58.775528 
L 432.359182 58.926886 
L 432.511364 58.843168 
L 432.815727 58.82464 
L 433.272273 58.861085 
L 433.576636 58.964763 
L 433.728818 58.93976 
L 434.261455 59.127903 
L 434.413636 59.098881 
L 434.641909 59.071512 
L 434.946273 59.021454 
L 435.098455 59.085833 
L 436.239818 58.940404 
L 436.544182 59.010237 
L 437.000727 58.927378 
L 437.305091 59.003453 
L 437.381182 58.899658 
L 437.457273 58.965178 
" clip-path="url(#p6a5502b6eb)" style="fill: none; stroke: #2ca02c; stroke-width: 2.7; stroke-linecap: square"/>
   </g>
   <g id="line2d_154">
    <path d="M 37.98 59.157482 
L 456.48 59.157482 
" clip-path="url(#p6a5502b6eb)" style="fill: none; stroke: #000000; stroke-opacity: 0.6; stroke-linecap: square"/>
   </g>
   <g id="patch_3">
    <path d="M 37.98 324.763625 
L 37.98 36.475625 
" style="fill: none; stroke: #000000; stroke-width: 0.5; stroke-linejoin: miter; stroke-linecap: square"/>
   </g>
   <g id="patch_4">
    <path d="M 456.48 324.763625 
L 456.48 36.475625 
" style="fill: none; stroke: #000000; stroke-width: 0.5; stroke-linejoin: miter; stroke-linecap: square"/>
   </g>
   <g id="patch_5">
    <path d="M 37.98 324.763625 
L 456.48 324.763625 
" style="fill: none; stroke: #000000; stroke-width: 0.5; stroke-linejoin: miter; stroke-linecap: square"/>
   </g>
   <g id="patch_6">
    <path d="M 37.98 36.475625 
L 456.48 36.475625 
" style="fill: none; stroke: #000000; stroke-width: 0.5; stroke-linejoin: miter; stroke-linecap: square"/>
   </g>
   <g id="line2d_155">
    <path d="M 57.002727 59.157482 
L 437.457273 59.158413 
L 437.457273 59.158413 
" clip-path="url(#p6a5502b6eb)" style="fill: none; stroke: #ff7f0e; stroke-width: 2.5; stroke-linecap: square"/>
   </g>
   <g id="text_18">
    <!-- Second-Order Coherence Difference $g_2$ vs Time ($|n=10\rangle$, $U=1$, $\gamma=1$) -->
    <g transform="translate(14.03 19.28) scale(0.16 -0.16)">
     <defs>
      <path id="STIXGeneral-Regular-53" d="M 3002 2963 
L 2842 2963 
Q 2733 3360 2579 3565 
Q 2189 4064 1651 4064 
Q 1357 4064 1181 3894 
Q 1005 3725 1005 3456 
Q 1005 3328 1069 3206 
Q 1133 3085 1206 2998 
Q 1280 2912 1465 2784 
Q 1651 2656 1766 2589 
Q 1882 2522 2150 2362 
Q 2669 2061 2905 1763 
Q 3142 1466 3142 1107 
Q 3142 576 2771 243 
Q 2400 -90 1837 -90 
Q 1421 -90 1082 58 
Q 915 128 781 128 
Q 704 128 653 70 
Q 602 13 602 -83 
L 461 -83 
L 275 1274 
L 416 1274 
Q 845 141 1734 141 
Q 2074 141 2285 342 
Q 2496 544 2496 858 
Q 2496 1158 2310 1363 
Q 2003 1696 1235 2106 
Q 454 2522 454 3206 
Q 454 3718 768 4022 
Q 1082 4326 1568 4326 
Q 1907 4326 2240 4186 
Q 2413 4109 2522 4109 
Q 2688 4109 2726 4326 
L 2861 4326 
L 3002 2963 
z
" transform="scale(0.015625)"/>
      <path id="STIXGeneral-Regular-2d" d="M 1824 1242 
L 250 1242 
L 250 1645 
L 1824 1645 
L 1824 1242 
z
" transform="scale(0.015625)"/>
      <path id="STIXGeneral-Regular-4f" d="M 4403 2118 
Q 4403 1133 3820 521 
Q 3238 -90 2310 -90 
Q 1376 -90 797 524 
Q 218 1139 218 2138 
Q 218 3110 797 3718 
Q 1376 4326 2310 4326 
Q 3245 4326 3824 3702 
Q 4403 3078 4403 2118 
z
M 3674 2157 
Q 3674 2701 3520 3133 
Q 3366 3565 3091 3795 
Q 2733 4096 2304 4096 
Q 1760 4096 1389 3667 
Q 1184 3437 1065 3011 
Q 947 2586 947 2125 
Q 947 960 1523 429 
Q 1837 141 2317 141 
Q 2816 141 3142 448 
Q 3674 960 3674 2157 
z
" transform="scale(0.015625)"/>
      <path id="STIXGeneral-Regular-43" d="M 3930 838 
L 4051 723 
Q 3482 -90 2304 -90 
Q 1376 -90 794 480 
Q 179 1082 179 2080 
Q 179 3014 755 3661 
Q 1357 4326 2310 4326 
Q 2720 4326 3072 4230 
Q 3475 4115 3514 4115 
Q 3725 4115 3782 4326 
L 3910 4326 
L 3968 2874 
L 3821 2874 
Q 3718 3334 3488 3584 
Q 3034 4070 2458 4070 
Q 1747 4070 1334 3548 
Q 922 3027 922 2182 
Q 922 1152 1382 653 
Q 1811 192 2522 192 
Q 2944 192 3251 339 
Q 3558 486 3930 838 
z
" transform="scale(0.015625)"/>
      <path id="STIXGeneral-Regular-68" d="M 3117 0 
L 1760 0 
L 1760 96 
Q 2042 128 2118 224 
Q 2195 320 2195 653 
L 2195 1920 
Q 2195 2598 1722 2598 
Q 1530 2598 1370 2508 
Q 1210 2419 1005 2195 
L 1005 653 
Q 1005 320 1081 224 
Q 1158 128 1440 96 
L 1440 0 
L 58 0 
L 58 96 
Q 333 134 400 224 
Q 467 314 467 653 
L 467 3667 
Q 467 3872 406 3933 
Q 346 3994 141 3994 
Q 83 3994 64 3987 
L 64 4090 
L 237 4141 
Q 730 4288 973 4371 
L 1005 4352 
L 1005 2406 
Q 1229 2694 1446 2819 
Q 1664 2944 1946 2944 
Q 2733 2944 2733 1926 
L 2733 653 
Q 2733 320 2793 233 
Q 2854 147 3117 96 
L 3117 0 
z
" transform="scale(0.015625)"/>
      <path id="STIXGeneral-Regular-44" d="M 102 4237 
L 1830 4237 
Q 3078 4237 3750 3654 
Q 4384 3110 4384 2138 
Q 4384 966 3514 410 
Q 2880 0 1901 0 
L 102 0 
L 102 122 
Q 474 147 570 252 
Q 666 358 666 736 
L 666 3520 
Q 666 3891 570 3990 
Q 474 4090 102 4115 
L 102 4237 
z
M 1318 3731 
L 1318 538 
Q 1318 365 1379 301 
Q 1440 237 1626 237 
Q 2125 237 2432 307 
Q 2739 378 3021 570 
Q 3686 1018 3686 2099 
Q 3686 3027 3078 3558 
Q 2803 3802 2476 3901 
Q 2150 4000 1658 4000 
Q 1472 4000 1395 3942 
Q 1318 3885 1318 3731 
z
" transform="scale(0.015625)"/>
      <path id="STIXGeneral-Regular-76" d="M 3053 2880 
L 3053 2784 
Q 2906 2771 2835 2688 
Q 2765 2605 2637 2285 
L 1818 230 
Q 1690 -90 1638 -90 
Q 1587 -90 1523 77 
Q 1510 96 1497 141 
Q 1485 186 1472 211 
L 704 2048 
Q 499 2534 403 2652 
Q 307 2771 122 2784 
L 122 2880 
L 1376 2880 
L 1376 2784 
Q 1210 2771 1146 2732 
Q 1082 2694 1082 2611 
Q 1082 2509 1139 2368 
L 1792 730 
L 2426 2387 
Q 2464 2483 2464 2579 
Q 2464 2758 2163 2784 
L 2163 2880 
L 3053 2880 
z
" transform="scale(0.015625)"/>
      <path id="STIXGeneral-Regular-73" d="M 998 1926 
L 1664 1523 
Q 1984 1331 2105 1164 
Q 2227 998 2227 736 
Q 2227 416 1961 176 
Q 1696 -64 1331 -64 
Q 1030 -64 864 -6 
Q 691 51 570 51 
Q 461 51 416 -26 
L 333 -26 
L 333 979 
L 435 979 
Q 538 512 730 294 
Q 922 77 1248 77 
Q 1485 77 1632 211 
Q 1779 346 1779 550 
Q 1779 845 1440 1030 
L 1094 1222 
Q 326 1651 326 2150 
Q 326 2522 566 2730 
Q 806 2938 1210 2938 
Q 1491 2938 1638 2867 
Q 1754 2816 1818 2816 
Q 1862 2816 1920 2880 
L 1990 2880 
L 2022 2010 
L 1926 2010 
Q 1818 2445 1654 2621 
Q 1491 2797 1203 2797 
Q 986 2797 854 2688 
Q 723 2579 723 2362 
Q 723 2253 796 2128 
Q 870 2003 998 1926 
z
" transform="scale(0.015625)"/>
      <path id="STIXGeneral-Regular-28" d="M 1946 -1030 
L 1869 -1133 
Q 1126 -710 716 32 
Q 307 774 307 1613 
Q 307 3386 1888 4326 
L 1946 4224 
Q 1293 3667 1075 3126 
Q 858 2586 858 1632 
Q 858 685 1082 96 
Q 1306 -493 1946 -1030 
z
" transform="scale(0.015625)"/>
      <path id="Cmsy10-6a" d="M 763 -1484 
L 763 4684 
Q 763 4734 800 4767 
Q 838 4800 891 4800 
Q 938 4800 978 4767 
Q 1019 4734 1019 4684 
L 1019 -1484 
Q 1019 -1534 978 -1567 
Q 938 -1600 891 -1600 
Q 838 -1600 800 -1567 
Q 763 -1534 763 -1484 
z
" transform="scale(0.015625)"/>
      <path id="Cmmi10-6e" d="M 494 109 
Q 494 147 500 166 
L 978 2075 
Q 1025 2253 1025 2388 
Q 1025 2663 838 2663 
Q 638 2663 541 2423 
Q 444 2184 353 1819 
Q 353 1800 334 1789 
Q 316 1778 300 1778 
L 225 1778 
Q 203 1778 187 1801 
Q 172 1825 172 1844 
Q 241 2122 305 2315 
Q 369 2509 505 2668 
Q 641 2828 844 2828 
Q 1084 2828 1268 2676 
Q 1453 2525 1453 2291 
Q 1644 2541 1900 2684 
Q 2156 2828 2444 2828 
Q 2672 2828 2837 2750 
Q 3003 2672 3095 2514 
Q 3188 2356 3188 2138 
Q 3188 1875 3070 1503 
Q 2953 1131 2778 672 
Q 2688 463 2688 288 
Q 2688 97 2834 97 
Q 3084 97 3251 365 
Q 3419 634 3488 941 
Q 3500 978 3541 978 
L 3616 978 
Q 3641 978 3658 962 
Q 3675 947 3675 922 
Q 3675 916 3669 903 
Q 3581 541 3364 234 
Q 3147 -72 2822 -72 
Q 2597 -72 2437 83 
Q 2278 238 2278 459 
Q 2278 578 2328 709 
Q 2409 919 2514 1209 
Q 2619 1500 2686 1765 
Q 2753 2031 2753 2234 
Q 2753 2413 2679 2538 
Q 2606 2663 2431 2663 
Q 2197 2663 2000 2559 
Q 1803 2456 1656 2286 
Q 1509 2116 1388 1881 
L 953 141 
Q 931 53 854 -9 
Q 778 -72 684 -72 
Q 606 -72 550 -22 
Q 494 28 494 109 
z
" transform="scale(0.015625)"/>
      <path id="Cmr10-3d" d="M 481 850 
Q 428 850 393 890 
Q 359 931 359 978 
Q 359 1031 393 1068 
Q 428 1106 481 1106 
L 4500 1106 
Q 4547 1106 4581 1068 
Q 4616 1031 4616 978 
Q 4616 931 4581 890 
Q 4547 850 4500 850 
L 481 850 
z
M 481 2094 
Q 428 2094 393 2131 
Q 359 2169 359 2222 
Q 359 2269 393 2309 
Q 428 2350 481 2350 
L 4500 2350 
Q 4547 2350 4581 2309 
Q 4616 2269 4616 2222 
Q 4616 2169 4581 2131 
Q 4547 2094 4500 2094 
L 481 2094 
z
" transform="scale(0.015625)"/>
      <path id="Cmr10-31" d="M 594 0 
L 594 225 
Q 1394 225 1394 428 
L 1394 3788 
Q 1063 3628 556 3628 
L 556 3853 
Q 1341 3853 1741 4263 
L 1831 4263 
Q 1853 4263 1873 4245 
Q 1894 4228 1894 4206 
L 1894 428 
Q 1894 225 2694 225 
L 2694 0 
L 594 0 
z
" transform="scale(0.015625)"/>
      <path id="Cmr10-30" d="M 1600 -141 
Q 816 -141 533 504 
Q 250 1150 250 2041 
Q 250 2597 351 3087 
Q 453 3578 754 3920 
Q 1056 4263 1600 4263 
Q 2022 4263 2290 4056 
Q 2559 3850 2700 3523 
Q 2841 3197 2892 2823 
Q 2944 2450 2944 2041 
Q 2944 1491 2842 1011 
Q 2741 531 2444 195 
Q 2147 -141 1600 -141 
z
M 1600 25 
Q 1956 25 2131 390 
Q 2306 756 2347 1200 
Q 2388 1644 2388 2144 
Q 2388 2625 2347 3031 
Q 2306 3438 2132 3767 
Q 1959 4097 1600 4097 
Q 1238 4097 1063 3765 
Q 888 3434 847 3029 
Q 806 2625 806 2144 
Q 806 1788 823 1472 
Q 841 1156 916 820 
Q 991 484 1158 254 
Q 1325 25 1600 25 
z
" transform="scale(0.015625)"/>
      <path id="Cmex10-ae" d="M 500 -7297 
Q 500 -7263 513 -7250 
L 2119 -3584 
L 513 84 
Q 500 97 500 128 
Q 500 175 537 215 
Q 575 256 628 256 
Q 703 256 750 178 
L 2381 -3541 
Q 2388 -3553 2388 -3584 
Q 2388 -3616 2381 -3634 
L 750 -7347 
Q 700 -7425 628 -7425 
Q 575 -7425 537 -7384 
Q 500 -7344 500 -7297 
z
" transform="scale(0.015625)"/>
      <path id="STIXGeneral-Regular-2c" d="M 531 -902 
L 467 -781 
Q 998 -422 998 -96 
Q 998 -13 909 -13 
Q 883 -13 822 -25 
Q 762 -38 723 -38 
Q 352 -38 352 288 
Q 352 454 457 553 
Q 563 653 736 653 
Q 954 653 1101 496 
Q 1248 339 1248 96 
Q 1248 -198 1053 -473 
Q 858 -749 531 -902 
z
" transform="scale(0.015625)"/>
      <path id="Cmmi10-55" d="M 941 891 
Q 941 656 1033 472 
Q 1125 288 1300 186 
Q 1475 84 1709 84 
Q 1984 84 2245 196 
Q 2506 309 2715 509 
Q 2925 709 3073 965 
Q 3222 1222 3284 1472 
L 3859 3781 
Q 3872 3850 3872 3878 
Q 3872 4147 3378 4147 
Q 3316 4147 3316 4231 
Q 3338 4313 3350 4342 
Q 3363 4372 3425 4372 
L 4813 4372 
Q 4841 4372 4859 4344 
Q 4878 4316 4878 4288 
Q 4878 4284 4865 4239 
Q 4853 4194 4836 4170 
Q 4819 4147 4794 4147 
Q 4181 4147 4084 3756 
L 3506 1447 
Q 3434 1147 3264 864 
Q 3094 581 2845 351 
Q 2597 122 2298 -9 
Q 2000 -141 1691 -141 
Q 1338 -141 1045 14 
Q 753 169 587 447 
Q 422 725 422 1088 
Q 422 1297 469 1472 
L 1088 3956 
Q 1100 4019 1100 4044 
Q 1100 4113 1025 4122 
Q 903 4147 563 4147 
Q 500 4147 500 4231 
Q 522 4313 534 4342 
Q 547 4372 609 4372 
L 2328 4372 
Q 2394 4372 2394 4288 
Q 2391 4272 2381 4234 
Q 2372 4197 2356 4172 
Q 2341 4147 2309 4147 
Q 1919 4147 1766 4103 
Q 1681 4072 1644 3928 
L 1025 1447 
Q 941 1109 941 891 
z
" transform="scale(0.015625)"/>
      <path id="Cmmi10-b0" d="M 1888 -1253 
Q 1888 -1109 1952 -834 
Q 2016 -559 2108 -248 
Q 2200 63 2266 263 
Q 2291 581 2291 744 
Q 2291 1156 2209 1511 
Q 2128 1866 1903 2105 
Q 1678 2344 1275 2344 
Q 1063 2344 852 2253 
Q 641 2163 489 2000 
Q 338 1838 281 1631 
Q 269 1594 231 1594 
L 153 1594 
Q 103 1594 103 1650 
L 103 1672 
Q 175 1959 358 2226 
Q 541 2494 805 2661 
Q 1069 2828 1363 2828 
Q 1663 2828 1881 2625 
Q 2100 2422 2231 2109 
Q 2363 1797 2420 1478 
Q 2478 1159 2478 878 
Q 2800 1753 3200 2534 
L 3297 2741 
Q 3316 2759 3341 2759 
L 3419 2759 
Q 3469 2759 3469 2700 
Q 3469 2688 3456 2663 
L 3359 2463 
Q 3081 1909 2848 1340 
Q 2616 772 2450 244 
Q 2425 28 2354 -347 
Q 2284 -722 2184 -1045 
Q 2084 -1369 1984 -1381 
Q 1888 -1381 1888 -1253 
z
" transform="scale(0.015625)"/>
      <path id="STIXGeneral-Regular-29" d="M 186 4224 
L 262 4326 
Q 992 3891 1408 3148 
Q 1824 2406 1824 1581 
Q 1824 -166 243 -1133 
L 186 -1030 
Q 845 -486 1059 54 
Q 1274 595 1274 1562 
Q 1274 2534 1059 3120 
Q 845 3706 186 4224 
z
" transform="scale(0.015625)"/>
     </defs>
     <use xlink:href="#STIXGeneral-Regular-53" transform="translate(0 0.658854)"/>
     <use xlink:href="#STIXGeneral-Regular-65" transform="translate(55.599991 0.658854)"/>
     <use xlink:href="#STIXGeneral-Regular-63" transform="translate(99.999985 0.658854)"/>
     <use xlink:href="#STIXGeneral-Regular-6f" transform="translate(144.399979 0.658854)"/>
     <use xlink:href="#STIXGeneral-Regular-6e" transform="translate(194.399963 0.658854)"/>
     <use xlink:href="#STIXGeneral-Regular-64" transform="translate(244.399948 0.658854)"/>
     <use xlink:href="#STIXGeneral-Regular-2d" transform="translate(294.399933 0.658854)"/>
     <use xlink:href="#STIXGeneral-Regular-4f" transform="translate(327.699921 0.658854)"/>
     <use xlink:href="#STIXGeneral-Regular-72" transform="translate(399.899902 0.658854)"/>
     <use xlink:href="#STIXGeneral-Regular-64" transform="translate(433.19989 0.658854)"/>
     <use xlink:href="#STIXGeneral-Regular-65" transform="translate(483.199875 0.658854)"/>
     <use xlink:href="#STIXGeneral-Regular-72" transform="translate(527.599869 0.658854)"/>
     <use xlink:href="#STIXGeneral-Regular-20" transform="translate(560.899857 0.658854)"/>
     <use xlink:href="#STIXGeneral-Regular-43" transform="translate(585.899841 0.658854)"/>
     <use xlink:href="#STIXGeneral-Regular-6f" transform="translate(652.599838 0.658854)"/>
     <use xlink:href="#STIXGeneral-Regular-68" transform="translate(702.599823 0.658854)"/>
     <use xlink:href="#STIXGeneral-Regular-65" transform="translate(752.599808 0.658854)"/>
     <use xlink:href="#STIXGeneral-Regular-72" transform="translate(796.999802 0.658854)"/>
     <use xlink:href="#STIXGeneral-Regular-65" transform="translate(830.299789 0.658854)"/>
     <use xlink:href="#STIXGeneral-Regular-6e" transform="translate(874.699783 0.658854)"/>
     <use xlink:href="#STIXGeneral-Regular-63" transform="translate(924.699768 0.658854)"/>
     <use xlink:href="#STIXGeneral-Regular-65" transform="translate(969.099762 0.658854)"/>
     <use xlink:href="#STIXGeneral-Regular-20" transform="translate(1013.499756 0.658854)"/>
     <use xlink:href="#STIXGeneral-Regular-44" transform="translate(1038.499741 0.658854)"/>
     <use xlink:href="#STIXGeneral-Regular-69" transform="translate(1110.699722 0.658854)"/>
     <use xlink:href="#STIXGeneral-Regular-66" transform="translate(1138.49971 0.658854)"/>
     <use xlink:href="#STIXGeneral-Regular-66" transform="translate(1171.799698 0.658854)"/>
     <use xlink:href="#STIXGeneral-Regular-65" transform="translate(1205.099686 0.658854)"/>
     <use xlink:href="#STIXGeneral-Regular-72" transform="translate(1249.49968 0.658854)"/>
     <use xlink:href="#STIXGeneral-Regular-65" transform="translate(1282.799667 0.658854)"/>
     <use xlink:href="#STIXGeneral-Regular-6e" transform="translate(1327.199661 0.658854)"/>
     <use xlink:href="#STIXGeneral-Regular-63" transform="translate(1377.199646 0.658854)"/>
     <use xlink:href="#STIXGeneral-Regular-65" transform="translate(1421.59964 0.658854)"/>
     <use xlink:href="#STIXGeneral-Regular-20" transform="translate(1465.999634 0.658854)"/>
     <use xlink:href="#Cmmi10-67" transform="translate(1490.999619 0.658854)"/>
     <use xlink:href="#Cmr10-32" transform="translate(1538.704697 -16.347396) scale(0.7)"/>
     <use xlink:href="#STIXGeneral-Regular-20" transform="translate(1580.08204 0.658854)"/>
     <use xlink:href="#STIXGeneral-Regular-76" transform="translate(1605.082025 0.658854)"/>
     <use xlink:href="#STIXGeneral-Regular-73" transform="translate(1655.08201 0.658854)"/>
     <use xlink:href="#STIXGeneral-Regular-20" transform="translate(1693.982004 0.658854)"/>
     <use xlink:href="#STIXGeneral-Regular-54" transform="translate(1718.981989 0.658854)"/>
     <use xlink:href="#STIXGeneral-Regular-69" transform="translate(1780.081979 0.658854)"/>
     <use xlink:href="#STIXGeneral-Regular-6d" transform="translate(1807.881967 0.658854)"/>
     <use xlink:href="#STIXGeneral-Regular-65" transform="translate(1885.681955 0.658854)"/>
     <use xlink:href="#STIXGeneral-Regular-20" transform="translate(1930.081949 0.658854)"/>
     <use xlink:href="#STIXGeneral-Regular-28" transform="translate(1955.081934 0.658854)"/>
     <use xlink:href="#Cmsy10-6a" transform="translate(1988.381921 0.658854)"/>
     <use xlink:href="#Cmmi10-6e" transform="translate(2016.067468 0.658854)"/>
     <use xlink:href="#Cmr10-3d" transform="translate(2093.635828 0.658854)"/>
     <use xlink:href="#Cmr10-31" transform="translate(2188.879968 0.658854)"/>
     <use xlink:href="#Cmr10-30" transform="translate(2238.879968 0.658854)"/>
     <use xlink:href="#Cmex10-ae" transform="translate(2288.879968 94)"/>
     <use xlink:href="#STIXGeneral-Regular-2c" transform="translate(2336.096765 0.658854)"/>
     <use xlink:href="#STIXGeneral-Regular-20" transform="translate(2361.09675 0.658854)"/>
     <use xlink:href="#Cmmi10-55" transform="translate(2386.096735 0.658854)"/>
     <use xlink:href="#Cmr10-3d" transform="translate(2471.868219 0.658854)"/>
     <use xlink:href="#Cmr10-31" transform="translate(2567.11236 0.658854)"/>
     <use xlink:href="#STIXGeneral-Regular-2c" transform="translate(2617.11236 0.658854)"/>
     <use xlink:href="#STIXGeneral-Regular-20" transform="translate(2642.112344 0.658854)"/>
     <use xlink:href="#Cmmi10-b0" transform="translate(2667.112329 0.658854)"/>
     <use xlink:href="#Cmr10-3d" transform="translate(2736.379907 0.658854)"/>
     <use xlink:href="#Cmr10-31" transform="translate(2831.624048 0.658854)"/>
     <use xlink:href="#STIXGeneral-Regular-29" transform="translate(2881.624048 0.658854)"/>
    </g>
   </g>
   <g id="line2d_156">
    <path d="M 57.002727 59.157482 
L 437.457273 59.157482 
L 437.457273 59.157482 
" clip-path="url(#p6a5502b6eb)" style="fill: none; stroke: #1f77b4; stroke-width: 2.6; stroke-linecap: square"/>
   </g>
   <g id="legend_1">
    <g id="line2d_157">
     <path d="M 47.88 277.441281 
L 58.88 277.441281 
L 69.88 277.441281 
" style="fill: none; stroke: #1f77b4; stroke-width: 2.6; stroke-linecap: square"/>
    </g>
    <g id="text_19">
     <!-- Density Matrix -->
     <g transform="translate(78.68 281.291281) scale(0.11 -0.11)">
      <defs>
       <path id="STIXGeneral-Regular-79" d="M 3040 2880 
L 3040 2784 
Q 2925 2771 2854 2700 
Q 2784 2630 2720 2458 
L 1760 -160 
Q 1510 -838 1257 -1116 
Q 1005 -1395 640 -1395 
Q 435 -1395 313 -1289 
Q 192 -1184 192 -1024 
Q 192 -902 272 -816 
Q 352 -730 467 -730 
Q 653 -730 800 -813 
Q 883 -858 966 -858 
Q 1101 -858 1286 -576 
Q 1376 -448 1459 -211 
Q 1542 26 1542 115 
Q 1542 198 1274 762 
L 429 2566 
Q 346 2752 90 2790 
L 90 2880 
L 1402 2880 
L 1402 2784 
Q 1197 2778 1117 2739 
Q 1037 2701 1037 2611 
Q 1037 2541 1120 2349 
L 1837 749 
L 2458 2515 
Q 2483 2573 2483 2630 
Q 2483 2784 2189 2784 
L 2189 2880 
L 3040 2880 
z
" transform="scale(0.015625)"/>
       <path id="STIXGeneral-Regular-4d" d="M 5530 0 
L 3738 0 
L 3738 122 
Q 4115 147 4214 265 
Q 4314 384 4314 787 
L 4314 3661 
L 2682 0 
L 2592 0 
L 979 3514 
L 979 966 
Q 979 448 1088 294 
Q 1197 141 1574 122 
L 1574 0 
L 77 0 
L 77 122 
Q 358 141 480 205 
Q 602 269 650 432 
Q 698 595 698 966 
L 698 3514 
Q 698 3878 589 3984 
Q 480 4090 90 4115 
L 90 4237 
L 1357 4237 
L 2835 1024 
L 4250 4237 
L 5523 4237 
L 5523 4115 
Q 5178 4109 5072 3993 
Q 4966 3878 4966 3520 
L 4966 717 
Q 4966 378 5072 262 
Q 5178 147 5530 122 
L 5530 0 
z
" transform="scale(0.015625)"/>
      </defs>
      <use xlink:href="#STIXGeneral-Regular-44"/>
      <use xlink:href="#STIXGeneral-Regular-65" transform="translate(72.199982 0)"/>
      <use xlink:href="#STIXGeneral-Regular-6e" transform="translate(116.599976 0)"/>
      <use xlink:href="#STIXGeneral-Regular-73" transform="translate(166.59996 0)"/>
      <use xlink:href="#STIXGeneral-Regular-69" transform="translate(205.499954 0)"/>
      <use xlink:href="#STIXGeneral-Regular-74" transform="translate(233.299942 0)"/>
      <use xlink:href="#STIXGeneral-Regular-79" transform="translate(261.09993 0)"/>
      <use xlink:href="#STIXGeneral-Regular-20" transform="translate(311.099915 0)"/>
      <use xlink:href="#STIXGeneral-Regular-4d" transform="translate(336.099899 0)"/>
      <use xlink:href="#STIXGeneral-Regular-61" transform="translate(424.999893 0)"/>
      <use xlink:href="#STIXGeneral-Regular-74" transform="translate(469.399887 0)"/>
      <use xlink:href="#STIXGeneral-Regular-72" transform="translate(497.199875 0)"/>
      <use xlink:href="#STIXGeneral-Regular-69" transform="translate(530.499863 0)"/>
      <use xlink:href="#STIXGeneral-Regular-78" transform="translate(558.29985 0)"/>
     </g>
    </g>
    <g id="line2d_158">
     <path d="M 47.88 293.038938 
L 58.88 293.038938 
L 69.88 293.038938 
" style="fill: none; stroke: #ff7f0e; stroke-width: 2.5; stroke-linecap: square"/>
    </g>
    <g id="text_20">
     <!-- Monte Carlo -->
     <g transform="translate(78.68 296.888938) scale(0.11 -0.11)">
      <defs>
       <path id="STIXGeneral-Regular-6c" d="M 1645 0 
L 134 0 
L 134 96 
Q 435 122 531 221 
Q 627 320 627 589 
L 627 3590 
Q 627 3821 569 3910 
Q 512 4000 358 4000 
Q 224 4000 122 3987 
L 122 4090 
Q 730 4237 1133 4371 
L 1165 4346 
L 1165 557 
Q 1165 288 1254 201 
Q 1344 115 1645 96 
L 1645 0 
z
" transform="scale(0.015625)"/>
      </defs>
      <use xlink:href="#STIXGeneral-Regular-4d"/>
      <use xlink:href="#STIXGeneral-Regular-6f" transform="translate(88.899994 0)"/>
      <use xlink:href="#STIXGeneral-Regular-6e" transform="translate(138.899979 0)"/>
      <use xlink:href="#STIXGeneral-Regular-74" transform="translate(188.899963 0)"/>
      <use xlink:href="#STIXGeneral-Regular-65" transform="translate(216.699951 0)"/>
      <use xlink:href="#STIXGeneral-Regular-20" transform="translate(261.099945 0)"/>
      <use xlink:href="#STIXGeneral-Regular-43" transform="translate(286.09993 0)"/>
      <use xlink:href="#STIXGeneral-Regular-61" transform="translate(352.799927 0)"/>
      <use xlink:href="#STIXGeneral-Regular-72" transform="translate(397.199921 0)"/>
      <use xlink:href="#STIXGeneral-Regular-6c" transform="translate(430.499908 0)"/>
      <use xlink:href="#STIXGeneral-Regular-6f" transform="translate(458.299896 0)"/>
     </g>
    </g>
    <g id="line2d_159">
     <path d="M 47.88 308.626281 
L 58.88 308.626281 
L 69.88 308.626281 
" style="fill: none; stroke: #2ca02c; stroke-width: 2.7; stroke-linecap: square"/>
    </g>
    <g id="text_21">
     <!-- Positive-P -->
     <g transform="translate(78.68 312.476281) scale(0.11 -0.11)">
      <defs>
       <path id="STIXGeneral-Regular-50" d="M 102 4237 
L 1760 4237 
Q 2669 4237 3149 3834 
Q 3469 3565 3469 3072 
Q 3469 2560 3104 2234 
Q 2835 1990 2553 1916 
Q 2272 1843 1734 1843 
Q 1549 1843 1293 1862 
L 1293 717 
Q 1293 352 1398 246 
Q 1504 141 1894 122 
L 1894 0 
L 102 0 
L 102 122 
Q 474 147 557 256 
Q 640 365 640 781 
L 640 3526 
Q 640 3885 547 3987 
Q 454 4090 102 4115 
L 102 4237 
z
M 1293 3770 
L 1293 2118 
Q 1510 2099 1683 2099 
Q 2202 2099 2486 2352 
Q 2771 2605 2771 3040 
Q 2771 3558 2476 3779 
Q 2182 4000 1517 4000 
Q 1382 4000 1337 3952 
Q 1293 3904 1293 3770 
z
" transform="scale(0.015625)"/>
      </defs>
      <use xlink:href="#STIXGeneral-Regular-50"/>
      <use xlink:href="#STIXGeneral-Regular-6f" transform="translate(55.699997 0)"/>
      <use xlink:href="#STIXGeneral-Regular-73" transform="translate(105.699982 0)"/>
      <use xlink:href="#STIXGeneral-Regular-69" transform="translate(144.599976 0)"/>
      <use xlink:href="#STIXGeneral-Regular-74" transform="translate(172.399963 0)"/>
      <use xlink:href="#STIXGeneral-Regular-69" transform="translate(200.199951 0)"/>
      <use xlink:href="#STIXGeneral-Regular-76" transform="translate(227.999939 0)"/>
      <use xlink:href="#STIXGeneral-Regular-65" transform="translate(277.999924 0)"/>
      <use xlink:href="#STIXGeneral-Regular-2d" transform="translate(322.399918 0)"/>
      <use xlink:href="#STIXGeneral-Regular-50" transform="translate(355.699905 0)"/>
     </g>
    </g>
   </g>
  </g>
 </g>
 <defs>
  <clipPath id="p6a5502b6eb">
   <rect x="37.98" y="36.475625" width="418.5" height="288.288"/>
  </clipPath>
 </defs>
</svg>
