<?xml version="1.0" encoding="utf-8" standalone="no"?>
<!DOCTYPE svg PUBLIC "-//W3C//DTD SVG 1.1//EN"
  "http://www.w3.org/Graphics/SVG/1.1/DTD/svg11.dtd">
<svg xmlns:xlink="http://www.w3.org/1999/xlink" width="487.75pt" height="359.263625pt" viewBox="0 0 487.75 359.263625" xmlns="http://www.w3.org/2000/svg" version="1.1">
 <metadata>
  <rdf:RDF xmlns:dc="http://purl.org/dc/elements/1.1/" xmlns:cc="http://creativecommons.org/ns#" xmlns:rdf="http://www.w3.org/1999/02/22-rdf-syntax-ns#">
   <cc:Work>
    <dc:type rdf:resource="http://purl.org/dc/dcmitype/StillImage"/>
    <dc:date>2026-04-18T22:57:16.294053</dc:date>
    <dc:format>image/svg+xml</dc:format>
    <dc:creator>
     <cc:Agent>
      <dc:title>Matplotlib v3.10.8, https://matplotlib.org/</dc:title>
     </cc:Agent>
    </dc:creator>
   </cc:Work>
  </rdf:RDF>
 </metadata>
 <defs>
  <style type="text/css">*{stroke-linejoin: round; stroke-linecap: butt}</style>
 </defs>
 <g id="figure_1">
  <g id="patch_1">
   <path d="M 0 359.263625 
L 487.75 359.263625 
L 487.75 0 
L 0 0 
z
" style="fill: #ffffff"/>
  </g>
  <g id="axes_1">
   <g id="patch_2">
    <path d="M 46.1 324.763625 
L 464.6 324.763625 
L 464.6 36.475625 
L 46.1 36.475625 
z
" style="fill: #ffffff"/>
   </g>
   <g id="matplotlib.axis_1">
    <g id="xtick_1">
     <g id="line2d_1">
      <path d="M 65.122727 324.763625 
L 65.122727 36.475625 
" clip-path="url(#pb9418ca21a)" style="fill: none; stroke: #b0b0b0; stroke-opacity: 0.35; stroke-width: 0.5; stroke-linecap: square"/>
     </g>
     <g id="line2d_2">
      <defs>
       <path id="mb69a6a0f39" d="M 0 0 
L 0 -3 
" style="stroke: #000000; stroke-width: 0.5"/>
      </defs>
      <g>
       <use xlink:href="#mb69a6a0f39" x="65.122727" y="324.763625" style="stroke: #000000; stroke-width: 0.5"/>
      </g>
     </g>
     <g id="line2d_3">
      <defs>
       <path id="m0778e4f85f" d="M 0 0 
L 0 3 
" style="stroke: #000000; stroke-width: 0.5"/>
      </defs>
      <g>
       <use xlink:href="#m0778e4f85f" x="65.122727" y="36.475625" style="stroke: #000000; stroke-width: 0.5"/>
      </g>
     </g>
     <g id="text_1">
      <!-- $\mathdefault{0}$ -->
      <g transform="translate(62.122727 336.45925) scale(0.12 -0.12)">
       <defs>
        <path id="STIXGeneral-Regular-30" d="M 3046 2112 
Q 3046 1683 2963 1302 
Q 2880 922 2717 602 
Q 2554 282 2266 96 
Q 1978 -90 1600 -90 
Q 1210 -90 915 108 
Q 621 307 461 640 
Q 301 973 227 1350 
Q 154 1728 154 2150 
Q 154 2746 301 3222 
Q 448 3699 790 4012 
Q 1133 4326 1626 4326 
Q 2253 4326 2649 3712 
Q 3046 3098 3046 2112 
z
M 2432 2080 
Q 2432 3091 2217 3625 
Q 2003 4160 1587 4160 
Q 1190 4160 979 3622 
Q 768 3085 768 2106 
Q 768 1120 979 598 
Q 1190 77 1600 77 
Q 2003 77 2217 598 
Q 2432 1120 2432 2080 
z
" transform="scale(0.015625)"/>
       </defs>
       <use xlink:href="#STIXGeneral-Regular-30" transform="translate(0 0.40625)"/>
      </g>
     </g>
    </g>
    <g id="xtick_2">
     <g id="line2d_4">
      <path d="M 141.213636 324.763625 
L 141.213636 36.475625 
" clip-path="url(#pb9418ca21a)" style="fill: none; stroke: #b0b0b0; stroke-opacity: 0.35; stroke-width: 0.5; stroke-linecap: square"/>
     </g>
     <g id="line2d_5">
      <g>
       <use xlink:href="#mb69a6a0f39" x="141.213636" y="324.763625" style="stroke: #000000; stroke-width: 0.5"/>
      </g>
     </g>
     <g id="line2d_6">
      <g>
       <use xlink:href="#m0778e4f85f" x="141.213636" y="36.475625" style="stroke: #000000; stroke-width: 0.5"/>
      </g>
     </g>
     <g id="text_2">
      <!-- $\mathdefault{1}$ -->
      <g transform="translate(138.213636 336.45925) scale(0.12 -0.12)">
       <defs>
        <path id="STIXGeneral-Regular-31" d="M 2522 0 
L 755 0 
L 755 96 
Q 1107 115 1235 227 
Q 1363 339 1363 608 
L 1363 3482 
Q 1363 3795 1171 3795 
Q 1082 3795 883 3718 
L 710 3654 
L 710 3744 
L 1856 4326 
L 1914 4307 
L 1914 486 
Q 1914 275 2042 185 
Q 2170 96 2522 96 
L 2522 0 
z
" transform="scale(0.015625)"/>
       </defs>
       <use xlink:href="#STIXGeneral-Regular-31" transform="translate(0 0.40625)"/>
      </g>
     </g>
    </g>
    <g id="xtick_3">
     <g id="line2d_7">
      <path d="M 217.304545 324.763625 
L 217.304545 36.475625 
" clip-path="url(#pb9418ca21a)" style="fill: none; stroke: #b0b0b0; stroke-opacity: 0.35; stroke-width: 0.5; stroke-linecap: square"/>
     </g>
     <g id="line2d_8">
      <g>
       <use xlink:href="#mb69a6a0f39" x="217.304545" y="324.763625" style="stroke: #000000; stroke-width: 0.5"/>
      </g>
     </g>
     <g id="line2d_9">
      <g>
       <use xlink:href="#m0778e4f85f" x="217.304545" y="36.475625" style="stroke: #000000; stroke-width: 0.5"/>
      </g>
     </g>
     <g id="text_3">
      <!-- $\mathdefault{2}$ -->
      <g transform="translate(214.304545 336.45925) scale(0.12 -0.12)">
       <defs>
        <path id="STIXGeneral-Regular-32" d="M 3034 877 
L 2688 0 
L 186 0 
L 186 77 
L 1325 1286 
Q 1773 1754 1965 2144 
Q 2157 2534 2157 2950 
Q 2157 3379 1920 3616 
Q 1683 3853 1267 3853 
Q 922 3853 720 3673 
Q 518 3494 326 3021 
L 192 3053 
Q 301 3648 630 3987 
Q 960 4326 1523 4326 
Q 2054 4326 2380 4006 
Q 2707 3686 2707 3200 
Q 2707 2477 1888 1613 
L 832 486 
L 2330 486 
Q 2541 486 2665 569 
Q 2790 653 2944 915 
L 3034 877 
z
" transform="scale(0.015625)"/>
       </defs>
       <use xlink:href="#STIXGeneral-Regular-32" transform="translate(0 0.40625)"/>
      </g>
     </g>
    </g>
    <g id="xtick_4">
     <g id="line2d_10">
      <path d="M 293.395455 324.763625 
L 293.395455 36.475625 
" clip-path="url(#pb9418ca21a)" style="fill: none; stroke: #b0b0b0; stroke-opacity: 0.35; stroke-width: 0.5; stroke-linecap: square"/>
     </g>
     <g id="line2d_11">
      <g>
       <use xlink:href="#mb69a6a0f39" x="293.395455" y="324.763625" style="stroke: #000000; stroke-width: 0.5"/>
      </g>
     </g>
     <g id="line2d_12">
      <g>
       <use xlink:href="#m0778e4f85f" x="293.395455" y="36.475625" style="stroke: #000000; stroke-width: 0.5"/>
      </g>
     </g>
     <g id="text_4">
      <!-- $\mathdefault{3}$ -->
      <g transform="translate(290.395455 336.45925) scale(0.12 -0.12)">
       <defs>
        <path id="STIXGeneral-Regular-33" d="M 390 3264 
L 288 3290 
Q 435 3770 748 4048 
Q 1062 4326 1542 4326 
Q 1990 4326 2265 4083 
Q 2541 3840 2541 3450 
Q 2541 2925 1946 2566 
Q 2298 2413 2477 2227 
Q 2758 1914 2758 1402 
Q 2758 890 2464 506 
Q 2246 211 1840 60 
Q 1434 -90 979 -90 
Q 262 -90 262 275 
Q 262 378 339 442 
Q 416 506 525 506 
Q 685 506 915 339 
Q 1197 141 1466 141 
Q 1818 141 2058 425 
Q 2298 710 2298 1120 
Q 2298 1856 1632 2048 
Q 1434 2112 979 2112 
L 979 2202 
Q 1338 2323 1517 2432 
Q 2035 2726 2035 3290 
Q 2035 3610 1852 3776 
Q 1670 3942 1344 3942 
Q 768 3942 390 3264 
z
" transform="scale(0.015625)"/>
       </defs>
       <use xlink:href="#STIXGeneral-Regular-33" transform="translate(0 0.40625)"/>
      </g>
     </g>
    </g>
    <g id="xtick_5">
     <g id="line2d_13">
      <path d="M 369.486364 324.763625 
L 369.486364 36.475625 
" clip-path="url(#pb9418ca21a)" style="fill: none; stroke: #b0b0b0; stroke-opacity: 0.35; stroke-width: 0.5; stroke-linecap: square"/>
     </g>
     <g id="line2d_14">
      <g>
       <use xlink:href="#mb69a6a0f39" x="369.486364" y="324.763625" style="stroke: #000000; stroke-width: 0.5"/>
      </g>
     </g>
     <g id="line2d_15">
      <g>
       <use xlink:href="#m0778e4f85f" x="369.486364" y="36.475625" style="stroke: #000000; stroke-width: 0.5"/>
      </g>
     </g>
     <g id="text_5">
      <!-- $\mathdefault{4}$ -->
      <g transform="translate(366.486364 336.45925) scale(0.12 -0.12)">
       <defs>
        <path id="STIXGeneral-Regular-34" d="M 3027 1069 
L 2368 1069 
L 2368 0 
L 1869 0 
L 1869 1069 
L 77 1069 
L 77 1478 
L 2086 4326 
L 2368 4326 
L 2368 1478 
L 3027 1478 
L 3027 1069 
z
M 1869 1478 
L 1869 3674 
L 333 1478 
L 1869 1478 
z
" transform="scale(0.015625)"/>
       </defs>
       <use xlink:href="#STIXGeneral-Regular-34" transform="translate(0 0.40625)"/>
      </g>
     </g>
    </g>
    <g id="xtick_6">
     <g id="line2d_16">
      <path d="M 445.577273 324.763625 
L 445.577273 36.475625 
" clip-path="url(#pb9418ca21a)" style="fill: none; stroke: #b0b0b0; stroke-opacity: 0.35; stroke-width: 0.5; stroke-linecap: square"/>
     </g>
     <g id="line2d_17">
      <g>
       <use xlink:href="#mb69a6a0f39" x="445.577273" y="324.763625" style="stroke: #000000; stroke-width: 0.5"/>
      </g>
     </g>
     <g id="line2d_18">
      <g>
       <use xlink:href="#m0778e4f85f" x="445.577273" y="36.475625" style="stroke: #000000; stroke-width: 0.5"/>
      </g>
     </g>
     <g id="text_6">
      <!-- $\mathdefault{5}$ -->
      <g transform="translate(442.577273 336.45925) scale(0.12 -0.12)">
       <defs>
        <path id="STIXGeneral-Regular-35" d="M 2803 4358 
L 2573 3814 
Q 2534 3731 2400 3731 
L 1158 3731 
L 902 3187 
Q 1606 3053 1920 2896 
Q 2234 2739 2502 2368 
Q 2726 2061 2726 1555 
Q 2726 1094 2576 780 
Q 2426 467 2099 224 
Q 1664 -90 1011 -90 
Q 646 -90 422 19 
Q 198 128 198 307 
Q 198 550 486 550 
Q 717 550 960 352 
Q 1210 147 1414 147 
Q 1747 147 2012 480 
Q 2278 813 2278 1229 
Q 2278 1843 1850 2189 
Q 1293 2637 486 2637 
Q 410 2637 410 2688 
L 416 2720 
L 1114 4237 
L 2438 4237 
Q 2547 4237 2608 4269 
Q 2669 4301 2746 4403 
L 2803 4358 
z
" transform="scale(0.015625)"/>
       </defs>
       <use xlink:href="#STIXGeneral-Regular-35" transform="translate(0 0.203125)"/>
      </g>
     </g>
    </g>
    <g id="xtick_7">
     <g id="line2d_19">
      <defs>
       <path id="ma41ff111b9" d="M 0 0 
L 0 -1.5 
" style="stroke: #000000; stroke-width: 0.5"/>
      </defs>
      <g>
       <use xlink:href="#ma41ff111b9" x="49.904545" y="324.763625" style="stroke: #000000; stroke-width: 0.5"/>
      </g>
     </g>
     <g id="line2d_20">
      <defs>
       <path id="m87d8c89c40" d="M 0 0 
L 0 1.5 
" style="stroke: #000000; stroke-width: 0.5"/>
      </defs>
      <g>
       <use xlink:href="#m87d8c89c40" x="49.904545" y="36.475625" style="stroke: #000000; stroke-width: 0.5"/>
      </g>
     </g>
    </g>
    <g id="xtick_8">
     <g id="line2d_21">
      <g>
       <use xlink:href="#ma41ff111b9" x="80.340909" y="324.763625" style="stroke: #000000; stroke-width: 0.5"/>
      </g>
     </g>
     <g id="line2d_22">
      <g>
       <use xlink:href="#m87d8c89c40" x="80.340909" y="36.475625" style="stroke: #000000; stroke-width: 0.5"/>
      </g>
     </g>
    </g>
    <g id="xtick_9">
     <g id="line2d_23">
      <g>
       <use xlink:href="#ma41ff111b9" x="95.559091" y="324.763625" style="stroke: #000000; stroke-width: 0.5"/>
      </g>
     </g>
     <g id="line2d_24">
      <g>
       <use xlink:href="#m87d8c89c40" x="95.559091" y="36.475625" style="stroke: #000000; stroke-width: 0.5"/>
      </g>
     </g>
    </g>
    <g id="xtick_10">
     <g id="line2d_25">
      <g>
       <use xlink:href="#ma41ff111b9" x="110.777273" y="324.763625" style="stroke: #000000; stroke-width: 0.5"/>
      </g>
     </g>
     <g id="line2d_26">
      <g>
       <use xlink:href="#m87d8c89c40" x="110.777273" y="36.475625" style="stroke: #000000; stroke-width: 0.5"/>
      </g>
     </g>
    </g>
    <g id="xtick_11">
     <g id="line2d_27">
      <g>
       <use xlink:href="#ma41ff111b9" x="125.995455" y="324.763625" style="stroke: #000000; stroke-width: 0.5"/>
      </g>
     </g>
     <g id="line2d_28">
      <g>
       <use xlink:href="#m87d8c89c40" x="125.995455" y="36.475625" style="stroke: #000000; stroke-width: 0.5"/>
      </g>
     </g>
    </g>
    <g id="xtick_12">
     <g id="line2d_29">
      <g>
       <use xlink:href="#ma41ff111b9" x="156.431818" y="324.763625" style="stroke: #000000; stroke-width: 0.5"/>
      </g>
     </g>
     <g id="line2d_30">
      <g>
       <use xlink:href="#m87d8c89c40" x="156.431818" y="36.475625" style="stroke: #000000; stroke-width: 0.5"/>
      </g>
     </g>
    </g>
    <g id="xtick_13">
     <g id="line2d_31">
      <g>
       <use xlink:href="#ma41ff111b9" x="171.65" y="324.763625" style="stroke: #000000; stroke-width: 0.5"/>
      </g>
     </g>
     <g id="line2d_32">
      <g>
       <use xlink:href="#m87d8c89c40" x="171.65" y="36.475625" style="stroke: #000000; stroke-width: 0.5"/>
      </g>
     </g>
    </g>
    <g id="xtick_14">
     <g id="line2d_33">
      <g>
       <use xlink:href="#ma41ff111b9" x="186.868182" y="324.763625" style="stroke: #000000; stroke-width: 0.5"/>
      </g>
     </g>
     <g id="line2d_34">
      <g>
       <use xlink:href="#m87d8c89c40" x="186.868182" y="36.475625" style="stroke: #000000; stroke-width: 0.5"/>
      </g>
     </g>
    </g>
    <g id="xtick_15">
     <g id="line2d_35">
      <g>
       <use xlink:href="#ma41ff111b9" x="202.086364" y="324.763625" style="stroke: #000000; stroke-width: 0.5"/>
      </g>
     </g>
     <g id="line2d_36">
      <g>
       <use xlink:href="#m87d8c89c40" x="202.086364" y="36.475625" style="stroke: #000000; stroke-width: 0.5"/>
      </g>
     </g>
    </g>
    <g id="xtick_16">
     <g id="line2d_37">
      <g>
       <use xlink:href="#ma41ff111b9" x="232.522727" y="324.763625" style="stroke: #000000; stroke-width: 0.5"/>
      </g>
     </g>
     <g id="line2d_38">
      <g>
       <use xlink:href="#m87d8c89c40" x="232.522727" y="36.475625" style="stroke: #000000; stroke-width: 0.5"/>
      </g>
     </g>
    </g>
    <g id="xtick_17">
     <g id="line2d_39">
      <g>
       <use xlink:href="#ma41ff111b9" x="247.740909" y="324.763625" style="stroke: #000000; stroke-width: 0.5"/>
      </g>
     </g>
     <g id="line2d_40">
      <g>
       <use xlink:href="#m87d8c89c40" x="247.740909" y="36.475625" style="stroke: #000000; stroke-width: 0.5"/>
      </g>
     </g>
    </g>
    <g id="xtick_18">
     <g id="line2d_41">
      <g>
       <use xlink:href="#ma41ff111b9" x="262.959091" y="324.763625" style="stroke: #000000; stroke-width: 0.5"/>
      </g>
     </g>
     <g id="line2d_42">
      <g>
       <use xlink:href="#m87d8c89c40" x="262.959091" y="36.475625" style="stroke: #000000; stroke-width: 0.5"/>
      </g>
     </g>
    </g>
    <g id="xtick_19">
     <g id="line2d_43">
      <g>
       <use xlink:href="#ma41ff111b9" x="278.177273" y="324.763625" style="stroke: #000000; stroke-width: 0.5"/>
      </g>
     </g>
     <g id="line2d_44">
      <g>
       <use xlink:href="#m87d8c89c40" x="278.177273" y="36.475625" style="stroke: #000000; stroke-width: 0.5"/>
      </g>
     </g>
    </g>
    <g id="xtick_20">
     <g id="line2d_45">
      <g>
       <use xlink:href="#ma41ff111b9" x="308.613636" y="324.763625" style="stroke: #000000; stroke-width: 0.5"/>
      </g>
     </g>
     <g id="line2d_46">
      <g>
       <use xlink:href="#m87d8c89c40" x="308.613636" y="36.475625" style="stroke: #000000; stroke-width: 0.5"/>
      </g>
     </g>
    </g>
    <g id="xtick_21">
     <g id="line2d_47">
      <g>
       <use xlink:href="#ma41ff111b9" x="323.831818" y="324.763625" style="stroke: #000000; stroke-width: 0.5"/>
      </g>
     </g>
     <g id="line2d_48">
      <g>
       <use xlink:href="#m87d8c89c40" x="323.831818" y="36.475625" style="stroke: #000000; stroke-width: 0.5"/>
      </g>
     </g>
    </g>
    <g id="xtick_22">
     <g id="line2d_49">
      <g>
       <use xlink:href="#ma41ff111b9" x="339.05" y="324.763625" style="stroke: #000000; stroke-width: 0.5"/>
      </g>
     </g>
     <g id="line2d_50">
      <g>
       <use xlink:href="#m87d8c89c40" x="339.05" y="36.475625" style="stroke: #000000; stroke-width: 0.5"/>
      </g>
     </g>
    </g>
    <g id="xtick_23">
     <g id="line2d_51">
      <g>
       <use xlink:href="#ma41ff111b9" x="354.268182" y="324.763625" style="stroke: #000000; stroke-width: 0.5"/>
      </g>
     </g>
     <g id="line2d_52">
      <g>
       <use xlink:href="#m87d8c89c40" x="354.268182" y="36.475625" style="stroke: #000000; stroke-width: 0.5"/>
      </g>
     </g>
    </g>
    <g id="xtick_24">
     <g id="line2d_53">
      <g>
       <use xlink:href="#ma41ff111b9" x="384.704545" y="324.763625" style="stroke: #000000; stroke-width: 0.5"/>
      </g>
     </g>
     <g id="line2d_54">
      <g>
       <use xlink:href="#m87d8c89c40" x="384.704545" y="36.475625" style="stroke: #000000; stroke-width: 0.5"/>
      </g>
     </g>
    </g>
    <g id="xtick_25">
     <g id="line2d_55">
      <g>
       <use xlink:href="#ma41ff111b9" x="399.922727" y="324.763625" style="stroke: #000000; stroke-width: 0.5"/>
      </g>
     </g>
     <g id="line2d_56">
      <g>
       <use xlink:href="#m87d8c89c40" x="399.922727" y="36.475625" style="stroke: #000000; stroke-width: 0.5"/>
      </g>
     </g>
    </g>
    <g id="xtick_26">
     <g id="line2d_57">
      <g>
       <use xlink:href="#ma41ff111b9" x="415.140909" y="324.763625" style="stroke: #000000; stroke-width: 0.5"/>
      </g>
     </g>
     <g id="line2d_58">
      <g>
       <use xlink:href="#m87d8c89c40" x="415.140909" y="36.475625" style="stroke: #000000; stroke-width: 0.5"/>
      </g>
     </g>
    </g>
    <g id="xtick_27">
     <g id="line2d_59">
      <g>
       <use xlink:href="#ma41ff111b9" x="430.359091" y="324.763625" style="stroke: #000000; stroke-width: 0.5"/>
      </g>
     </g>
     <g id="line2d_60">
      <g>
       <use xlink:href="#m87d8c89c40" x="430.359091" y="36.475625" style="stroke: #000000; stroke-width: 0.5"/>
      </g>
     </g>
    </g>
    <g id="xtick_28">
     <g id="line2d_61">
      <g>
       <use xlink:href="#ma41ff111b9" x="460.795455" y="324.763625" style="stroke: #000000; stroke-width: 0.5"/>
      </g>
     </g>
     <g id="line2d_62">
      <g>
       <use xlink:href="#m87d8c89c40" x="460.795455" y="36.475625" style="stroke: #000000; stroke-width: 0.5"/>
      </g>
     </g>
    </g>
    <g id="text_7">
     <!-- Time -->
     <g transform="translate(240.573438 352.625188) scale(0.14 -0.14)">
      <defs>
       <path id="STIXGeneral-Regular-54" d="M 3795 3149 
L 3642 3149 
Q 3539 3674 3353 3821 
Q 3168 3968 2656 3968 
L 2278 3968 
L 2278 710 
Q 2278 346 2387 243 
Q 2496 141 2893 122 
L 2893 0 
L 1024 0 
L 1024 122 
Q 1427 147 1526 256 
Q 1626 365 1626 787 
L 1626 3968 
L 1242 3968 
Q 723 3968 540 3817 
Q 358 3667 262 3149 
L 109 3149 
L 154 4237 
L 3750 4237 
L 3795 3149 
z
" transform="scale(0.015625)"/>
       <path id="STIXGeneral-Regular-69" d="M 1152 4045 
Q 1152 3904 1056 3811 
Q 960 3718 819 3718 
Q 685 3718 592 3811 
Q 499 3904 499 4045 
Q 499 4179 595 4275 
Q 691 4371 826 4371 
Q 966 4371 1059 4275 
Q 1152 4179 1152 4045 
z
M 1619 0 
L 102 0 
L 102 96 
Q 435 115 521 211 
Q 608 307 608 666 
L 608 2118 
Q 608 2342 563 2432 
Q 518 2522 397 2522 
Q 243 2522 128 2490 
L 128 2592 
L 1120 2944 
L 1146 2918 
L 1146 672 
Q 1146 314 1226 218 
Q 1306 122 1619 96 
L 1619 0 
z
" transform="scale(0.015625)"/>
       <path id="STIXGeneral-Regular-6d" d="M 4960 0 
L 3565 0 
L 3565 96 
Q 3834 122 3907 208 
Q 3981 294 3981 576 
L 3981 1894 
Q 3981 2278 3869 2444 
Q 3757 2611 3488 2611 
Q 3264 2611 3107 2521 
Q 2950 2432 2803 2221 
L 2803 608 
Q 2803 301 2896 201 
Q 2989 102 3264 96 
L 3264 0 
L 1830 0 
L 1830 96 
Q 2112 115 2189 188 
Q 2266 262 2266 550 
L 2266 1901 
Q 2266 2611 1850 2611 
Q 1670 2611 1468 2531 
Q 1267 2451 1171 2336 
Q 1088 2240 1088 2227 
L 1088 448 
Q 1088 243 1177 176 
Q 1267 109 1523 96 
L 1523 0 
L 102 0 
L 102 96 
Q 371 102 460 195 
Q 550 288 550 563 
L 550 2150 
Q 550 2387 499 2480 
Q 448 2573 326 2573 
Q 230 2573 122 2547 
L 122 2656 
Q 557 2778 1011 2944 
L 1062 2925 
L 1062 2451 
L 1075 2451 
Q 1363 2752 1584 2848 
Q 1805 2944 2054 2944 
Q 2560 2944 2733 2406 
Q 3232 2944 3776 2944 
Q 4518 2944 4518 1792 
L 4518 493 
Q 4518 282 4582 202 
Q 4646 122 4794 109 
L 4960 96 
L 4960 0 
z
" transform="scale(0.015625)"/>
       <path id="STIXGeneral-Regular-65" d="M 2611 1050 
L 2714 1005 
Q 2330 -64 1376 -64 
Q 813 -64 486 329 
Q 160 723 160 1389 
Q 160 2074 525 2509 
Q 890 2944 1485 2944 
Q 2061 2944 2374 2502 
Q 2560 2246 2592 1773 
L 621 1773 
Q 646 1370 700 1158 
Q 755 947 915 730 
Q 1184 378 1626 378 
Q 1939 378 2153 531 
Q 2368 685 2611 1050 
z
M 634 1978 
L 1939 1978 
Q 1882 2381 1750 2547 
Q 1619 2714 1312 2714 
Q 1043 2714 864 2525 
Q 685 2336 634 1978 
z
" transform="scale(0.015625)"/>
      </defs>
      <use xlink:href="#STIXGeneral-Regular-54"/>
      <use xlink:href="#STIXGeneral-Regular-69" transform="translate(61.099991 0)"/>
      <use xlink:href="#STIXGeneral-Regular-6d" transform="translate(88.899979 0)"/>
      <use xlink:href="#STIXGeneral-Regular-65" transform="translate(166.699966 0)"/>
     </g>
    </g>
   </g>
   <g id="matplotlib.axis_2">
    <g id="ytick_1">
     <g id="line2d_63">
      <path d="M 46.1 311.659625 
L 464.6 311.659625 
" clip-path="url(#pb9418ca21a)" style="fill: none; stroke: #b0b0b0; stroke-opacity: 0.35; stroke-width: 0.5; stroke-linecap: square"/>
     </g>
     <g id="line2d_64">
      <defs>
       <path id="m0a4291bb7a" d="M 0 0 
L 3 0 
" style="stroke: #000000; stroke-width: 0.5"/>
      </defs>
      <g>
       <use xlink:href="#m0a4291bb7a" x="46.1" y="311.659625" style="stroke: #000000; stroke-width: 0.5"/>
      </g>
     </g>
     <g id="line2d_65">
      <defs>
       <path id="md573b462b5" d="M 0 0 
L -3 0 
" style="stroke: #000000; stroke-width: 0.5"/>
      </defs>
      <g>
       <use xlink:href="#md573b462b5" x="464.6" y="311.659625" style="stroke: #000000; stroke-width: 0.5"/>
      </g>
     </g>
     <g id="text_8">
      <!-- $\mathdefault{0.00}$ -->
      <g transform="translate(21.6 315.757438) scale(0.12 -0.12)">
       <defs>
        <path id="STIXGeneral-Regular-2e" d="M 1158 275 
Q 1158 134 1052 32 
Q 947 -70 800 -70 
Q 653 -70 550 32 
Q 448 134 448 281 
Q 448 429 553 534 
Q 659 640 806 640 
Q 947 640 1052 531 
Q 1158 422 1158 275 
z
" transform="scale(0.015625)"/>
       </defs>
       <use xlink:href="#STIXGeneral-Regular-30" transform="translate(0 0.40625)"/>
       <use xlink:href="#STIXGeneral-Regular-2e" transform="translate(49.999985 0.40625)"/>
       <use xlink:href="#STIXGeneral-Regular-30" transform="translate(74.999969 0.40625)"/>
       <use xlink:href="#STIXGeneral-Regular-30" transform="translate(124.999954 0.40625)"/>
      </g>
     </g>
    </g>
    <g id="ytick_2">
     <g id="line2d_66">
      <path d="M 46.1 277.050737 
L 464.6 277.050737 
" clip-path="url(#pb9418ca21a)" style="fill: none; stroke: #b0b0b0; stroke-opacity: 0.35; stroke-width: 0.5; stroke-linecap: square"/>
     </g>
     <g id="line2d_67">
      <g>
       <use xlink:href="#m0a4291bb7a" x="46.1" y="277.050737" style="stroke: #000000; stroke-width: 0.5"/>
      </g>
     </g>
     <g id="line2d_68">
      <g>
       <use xlink:href="#md573b462b5" x="464.6" y="277.050737" style="stroke: #000000; stroke-width: 0.5"/>
      </g>
     </g>
     <g id="text_9">
      <!-- $\mathdefault{0.25}$ -->
      <g transform="translate(21.6 281.14855) scale(0.12 -0.12)">
       <use xlink:href="#STIXGeneral-Regular-30" transform="translate(0 0.203125)"/>
       <use xlink:href="#STIXGeneral-Regular-2e" transform="translate(49.999985 0.203125)"/>
       <use xlink:href="#STIXGeneral-Regular-32" transform="translate(74.999969 0.203125)"/>
       <use xlink:href="#STIXGeneral-Regular-35" transform="translate(124.999954 0.203125)"/>
      </g>
     </g>
    </g>
    <g id="ytick_3">
     <g id="line2d_69">
      <path d="M 46.1 242.441849 
L 464.6 242.441849 
" clip-path="url(#pb9418ca21a)" style="fill: none; stroke: #b0b0b0; stroke-opacity: 0.35; stroke-width: 0.5; stroke-linecap: square"/>
     </g>
     <g id="line2d_70">
      <g>
       <use xlink:href="#m0a4291bb7a" x="46.1" y="242.441849" style="stroke: #000000; stroke-width: 0.5"/>
      </g>
     </g>
     <g id="line2d_71">
      <g>
       <use xlink:href="#md573b462b5" x="464.6" y="242.441849" style="stroke: #000000; stroke-width: 0.5"/>
      </g>
     </g>
     <g id="text_10">
      <!-- $\mathdefault{0.50}$ -->
      <g transform="translate(21.6 246.539662) scale(0.12 -0.12)">
       <use xlink:href="#STIXGeneral-Regular-30" transform="translate(0 0.203125)"/>
       <use xlink:href="#STIXGeneral-Regular-2e" transform="translate(49.999985 0.203125)"/>
       <use xlink:href="#STIXGeneral-Regular-35" transform="translate(74.999969 0.203125)"/>
       <use xlink:href="#STIXGeneral-Regular-30" transform="translate(124.999954 0.203125)"/>
      </g>
     </g>
    </g>
    <g id="ytick_4">
     <g id="line2d_72">
      <path d="M 46.1 207.832961 
L 464.6 207.832961 
" clip-path="url(#pb9418ca21a)" style="fill: none; stroke: #b0b0b0; stroke-opacity: 0.35; stroke-width: 0.5; stroke-linecap: square"/>
     </g>
     <g id="line2d_73">
      <g>
       <use xlink:href="#m0a4291bb7a" x="46.1" y="207.832961" style="stroke: #000000; stroke-width: 0.5"/>
      </g>
     </g>
     <g id="line2d_74">
      <g>
       <use xlink:href="#md573b462b5" x="464.6" y="207.832961" style="stroke: #000000; stroke-width: 0.5"/>
      </g>
     </g>
     <g id="text_11">
      <!-- $\mathdefault{0.75}$ -->
      <g transform="translate(21.6 211.930774) scale(0.12 -0.12)">
       <defs>
        <path id="STIXGeneral-Regular-37" d="M 2874 4134 
L 1517 -51 
L 1101 -51 
L 2368 3763 
L 992 3763 
Q 717 3763 582 3667 
Q 448 3571 243 3238 
L 128 3296 
L 512 4237 
L 2874 4237 
L 2874 4134 
z
" transform="scale(0.015625)"/>
       </defs>
       <use xlink:href="#STIXGeneral-Regular-30" transform="translate(0 0.203125)"/>
       <use xlink:href="#STIXGeneral-Regular-2e" transform="translate(49.999985 0.203125)"/>
       <use xlink:href="#STIXGeneral-Regular-37" transform="translate(74.999969 0.203125)"/>
       <use xlink:href="#STIXGeneral-Regular-35" transform="translate(124.999954 0.203125)"/>
      </g>
     </g>
    </g>
    <g id="ytick_5">
     <g id="line2d_75">
      <path d="M 46.1 173.224073 
L 464.6 173.224073 
" clip-path="url(#pb9418ca21a)" style="fill: none; stroke: #b0b0b0; stroke-opacity: 0.35; stroke-width: 0.5; stroke-linecap: square"/>
     </g>
     <g id="line2d_76">
      <g>
       <use xlink:href="#m0a4291bb7a" x="46.1" y="173.224073" style="stroke: #000000; stroke-width: 0.5"/>
      </g>
     </g>
     <g id="line2d_77">
      <g>
       <use xlink:href="#md573b462b5" x="464.6" y="173.224073" style="stroke: #000000; stroke-width: 0.5"/>
      </g>
     </g>
     <g id="text_12">
      <!-- $\mathdefault{1.00}$ -->
      <g transform="translate(21.6 177.321886) scale(0.12 -0.12)">
       <use xlink:href="#STIXGeneral-Regular-31" transform="translate(0 0.40625)"/>
       <use xlink:href="#STIXGeneral-Regular-2e" transform="translate(49.999985 0.40625)"/>
       <use xlink:href="#STIXGeneral-Regular-30" transform="translate(74.999969 0.40625)"/>
       <use xlink:href="#STIXGeneral-Regular-30" transform="translate(124.999954 0.40625)"/>
      </g>
     </g>
    </g>
    <g id="ytick_6">
     <g id="line2d_78">
      <path d="M 46.1 138.615186 
L 464.6 138.615186 
" clip-path="url(#pb9418ca21a)" style="fill: none; stroke: #b0b0b0; stroke-opacity: 0.35; stroke-width: 0.5; stroke-linecap: square"/>
     </g>
     <g id="line2d_79">
      <g>
       <use xlink:href="#m0a4291bb7a" x="46.1" y="138.615186" style="stroke: #000000; stroke-width: 0.5"/>
      </g>
     </g>
     <g id="line2d_80">
      <g>
       <use xlink:href="#md573b462b5" x="464.6" y="138.615186" style="stroke: #000000; stroke-width: 0.5"/>
      </g>
     </g>
     <g id="text_13">
      <!-- $\mathdefault{1.25}$ -->
      <g transform="translate(21.6 142.712998) scale(0.12 -0.12)">
       <use xlink:href="#STIXGeneral-Regular-31" transform="translate(0 0.203125)"/>
       <use xlink:href="#STIXGeneral-Regular-2e" transform="translate(49.999985 0.203125)"/>
       <use xlink:href="#STIXGeneral-Regular-32" transform="translate(74.999969 0.203125)"/>
       <use xlink:href="#STIXGeneral-Regular-35" transform="translate(124.999954 0.203125)"/>
      </g>
     </g>
    </g>
    <g id="ytick_7">
     <g id="line2d_81">
      <path d="M 46.1 104.006298 
L 464.6 104.006298 
" clip-path="url(#pb9418ca21a)" style="fill: none; stroke: #b0b0b0; stroke-opacity: 0.35; stroke-width: 0.5; stroke-linecap: square"/>
     </g>
     <g id="line2d_82">
      <g>
       <use xlink:href="#m0a4291bb7a" x="46.1" y="104.006298" style="stroke: #000000; stroke-width: 0.5"/>
      </g>
     </g>
     <g id="line2d_83">
      <g>
       <use xlink:href="#md573b462b5" x="464.6" y="104.006298" style="stroke: #000000; stroke-width: 0.5"/>
      </g>
     </g>
     <g id="text_14">
      <!-- $\mathdefault{1.50}$ -->
      <g transform="translate(21.6 108.10411) scale(0.12 -0.12)">
       <use xlink:href="#STIXGeneral-Regular-31" transform="translate(0 0.203125)"/>
       <use xlink:href="#STIXGeneral-Regular-2e" transform="translate(49.999985 0.203125)"/>
       <use xlink:href="#STIXGeneral-Regular-35" transform="translate(74.999969 0.203125)"/>
       <use xlink:href="#STIXGeneral-Regular-30" transform="translate(124.999954 0.203125)"/>
      </g>
     </g>
    </g>
    <g id="ytick_8">
     <g id="line2d_84">
      <path d="M 46.1 69.39741 
L 464.6 69.39741 
" clip-path="url(#pb9418ca21a)" style="fill: none; stroke: #b0b0b0; stroke-opacity: 0.35; stroke-width: 0.5; stroke-linecap: square"/>
     </g>
     <g id="line2d_85">
      <g>
       <use xlink:href="#m0a4291bb7a" x="46.1" y="69.39741" style="stroke: #000000; stroke-width: 0.5"/>
      </g>
     </g>
     <g id="line2d_86">
      <g>
       <use xlink:href="#md573b462b5" x="464.6" y="69.39741" style="stroke: #000000; stroke-width: 0.5"/>
      </g>
     </g>
     <g id="text_15">
      <!-- $\mathdefault{1.75}$ -->
      <g transform="translate(21.6 73.495222) scale(0.12 -0.12)">
       <use xlink:href="#STIXGeneral-Regular-31" transform="translate(0 0.203125)"/>
       <use xlink:href="#STIXGeneral-Regular-2e" transform="translate(49.999985 0.203125)"/>
       <use xlink:href="#STIXGeneral-Regular-37" transform="translate(74.999969 0.203125)"/>
       <use xlink:href="#STIXGeneral-Regular-35" transform="translate(124.999954 0.203125)"/>
      </g>
     </g>
    </g>
    <g id="ytick_9">
     <g id="line2d_87">
      <defs>
       <path id="m72b3a91f1a" d="M 0 0 
L 1.5 0 
" style="stroke: #000000; stroke-width: 0.5"/>
      </defs>
      <g>
       <use xlink:href="#m72b3a91f1a" x="46.1" y="318.581403" style="stroke: #000000; stroke-width: 0.5"/>
      </g>
     </g>
     <g id="line2d_88">
      <defs>
       <path id="m327bb6badc" d="M 0 0 
L -1.5 0 
" style="stroke: #000000; stroke-width: 0.5"/>
      </defs>
      <g>
       <use xlink:href="#m327bb6badc" x="464.6" y="318.581403" style="stroke: #000000; stroke-width: 0.5"/>
      </g>
     </g>
    </g>
    <g id="ytick_10">
     <g id="line2d_89">
      <g>
       <use xlink:href="#m72b3a91f1a" x="46.1" y="304.737847" style="stroke: #000000; stroke-width: 0.5"/>
      </g>
     </g>
     <g id="line2d_90">
      <g>
       <use xlink:href="#m327bb6badc" x="464.6" y="304.737847" style="stroke: #000000; stroke-width: 0.5"/>
      </g>
     </g>
    </g>
    <g id="ytick_11">
     <g id="line2d_91">
      <g>
       <use xlink:href="#m72b3a91f1a" x="46.1" y="297.81607" style="stroke: #000000; stroke-width: 0.5"/>
      </g>
     </g>
     <g id="line2d_92">
      <g>
       <use xlink:href="#m327bb6badc" x="464.6" y="297.81607" style="stroke: #000000; stroke-width: 0.5"/>
      </g>
     </g>
    </g>
    <g id="ytick_12">
     <g id="line2d_93">
      <g>
       <use xlink:href="#m72b3a91f1a" x="46.1" y="290.894292" style="stroke: #000000; stroke-width: 0.5"/>
      </g>
     </g>
     <g id="line2d_94">
      <g>
       <use xlink:href="#m327bb6badc" x="464.6" y="290.894292" style="stroke: #000000; stroke-width: 0.5"/>
      </g>
     </g>
    </g>
    <g id="ytick_13">
     <g id="line2d_95">
      <g>
       <use xlink:href="#m72b3a91f1a" x="46.1" y="283.972515" style="stroke: #000000; stroke-width: 0.5"/>
      </g>
     </g>
     <g id="line2d_96">
      <g>
       <use xlink:href="#m327bb6badc" x="464.6" y="283.972515" style="stroke: #000000; stroke-width: 0.5"/>
      </g>
     </g>
    </g>
    <g id="ytick_14">
     <g id="line2d_97">
      <g>
       <use xlink:href="#m72b3a91f1a" x="46.1" y="270.12896" style="stroke: #000000; stroke-width: 0.5"/>
      </g>
     </g>
     <g id="line2d_98">
      <g>
       <use xlink:href="#m327bb6badc" x="464.6" y="270.12896" style="stroke: #000000; stroke-width: 0.5"/>
      </g>
     </g>
    </g>
    <g id="ytick_15">
     <g id="line2d_99">
      <g>
       <use xlink:href="#m72b3a91f1a" x="46.1" y="263.207182" style="stroke: #000000; stroke-width: 0.5"/>
      </g>
     </g>
     <g id="line2d_100">
      <g>
       <use xlink:href="#m327bb6badc" x="464.6" y="263.207182" style="stroke: #000000; stroke-width: 0.5"/>
      </g>
     </g>
    </g>
    <g id="ytick_16">
     <g id="line2d_101">
      <g>
       <use xlink:href="#m72b3a91f1a" x="46.1" y="256.285404" style="stroke: #000000; stroke-width: 0.5"/>
      </g>
     </g>
     <g id="line2d_102">
      <g>
       <use xlink:href="#m327bb6badc" x="464.6" y="256.285404" style="stroke: #000000; stroke-width: 0.5"/>
      </g>
     </g>
    </g>
    <g id="ytick_17">
     <g id="line2d_103">
      <g>
       <use xlink:href="#m72b3a91f1a" x="46.1" y="249.363627" style="stroke: #000000; stroke-width: 0.5"/>
      </g>
     </g>
     <g id="line2d_104">
      <g>
       <use xlink:href="#m327bb6badc" x="464.6" y="249.363627" style="stroke: #000000; stroke-width: 0.5"/>
      </g>
     </g>
    </g>
    <g id="ytick_18">
     <g id="line2d_105">
      <g>
       <use xlink:href="#m72b3a91f1a" x="46.1" y="235.520072" style="stroke: #000000; stroke-width: 0.5"/>
      </g>
     </g>
     <g id="line2d_106">
      <g>
       <use xlink:href="#m327bb6badc" x="464.6" y="235.520072" style="stroke: #000000; stroke-width: 0.5"/>
      </g>
     </g>
    </g>
    <g id="ytick_19">
     <g id="line2d_107">
      <g>
       <use xlink:href="#m72b3a91f1a" x="46.1" y="228.598294" style="stroke: #000000; stroke-width: 0.5"/>
      </g>
     </g>
     <g id="line2d_108">
      <g>
       <use xlink:href="#m327bb6badc" x="464.6" y="228.598294" style="stroke: #000000; stroke-width: 0.5"/>
      </g>
     </g>
    </g>
    <g id="ytick_20">
     <g id="line2d_109">
      <g>
       <use xlink:href="#m72b3a91f1a" x="46.1" y="221.676517" style="stroke: #000000; stroke-width: 0.5"/>
      </g>
     </g>
     <g id="line2d_110">
      <g>
       <use xlink:href="#m327bb6badc" x="464.6" y="221.676517" style="stroke: #000000; stroke-width: 0.5"/>
      </g>
     </g>
    </g>
    <g id="ytick_21">
     <g id="line2d_111">
      <g>
       <use xlink:href="#m72b3a91f1a" x="46.1" y="214.754739" style="stroke: #000000; stroke-width: 0.5"/>
      </g>
     </g>
     <g id="line2d_112">
      <g>
       <use xlink:href="#m327bb6badc" x="464.6" y="214.754739" style="stroke: #000000; stroke-width: 0.5"/>
      </g>
     </g>
    </g>
    <g id="ytick_22">
     <g id="line2d_113">
      <g>
       <use xlink:href="#m72b3a91f1a" x="46.1" y="200.911184" style="stroke: #000000; stroke-width: 0.5"/>
      </g>
     </g>
     <g id="line2d_114">
      <g>
       <use xlink:href="#m327bb6badc" x="464.6" y="200.911184" style="stroke: #000000; stroke-width: 0.5"/>
      </g>
     </g>
    </g>
    <g id="ytick_23">
     <g id="line2d_115">
      <g>
       <use xlink:href="#m72b3a91f1a" x="46.1" y="193.989406" style="stroke: #000000; stroke-width: 0.5"/>
      </g>
     </g>
     <g id="line2d_116">
      <g>
       <use xlink:href="#m327bb6badc" x="464.6" y="193.989406" style="stroke: #000000; stroke-width: 0.5"/>
      </g>
     </g>
    </g>
    <g id="ytick_24">
     <g id="line2d_117">
      <g>
       <use xlink:href="#m72b3a91f1a" x="46.1" y="187.067629" style="stroke: #000000; stroke-width: 0.5"/>
      </g>
     </g>
     <g id="line2d_118">
      <g>
       <use xlink:href="#m327bb6badc" x="464.6" y="187.067629" style="stroke: #000000; stroke-width: 0.5"/>
      </g>
     </g>
    </g>
    <g id="ytick_25">
     <g id="line2d_119">
      <g>
       <use xlink:href="#m72b3a91f1a" x="46.1" y="180.145851" style="stroke: #000000; stroke-width: 0.5"/>
      </g>
     </g>
     <g id="line2d_120">
      <g>
       <use xlink:href="#m327bb6badc" x="464.6" y="180.145851" style="stroke: #000000; stroke-width: 0.5"/>
      </g>
     </g>
    </g>
    <g id="ytick_26">
     <g id="line2d_121">
      <g>
       <use xlink:href="#m72b3a91f1a" x="46.1" y="166.302296" style="stroke: #000000; stroke-width: 0.5"/>
      </g>
     </g>
     <g id="line2d_122">
      <g>
       <use xlink:href="#m327bb6badc" x="464.6" y="166.302296" style="stroke: #000000; stroke-width: 0.5"/>
      </g>
     </g>
    </g>
    <g id="ytick_27">
     <g id="line2d_123">
      <g>
       <use xlink:href="#m72b3a91f1a" x="46.1" y="159.380518" style="stroke: #000000; stroke-width: 0.5"/>
      </g>
     </g>
     <g id="line2d_124">
      <g>
       <use xlink:href="#m327bb6badc" x="464.6" y="159.380518" style="stroke: #000000; stroke-width: 0.5"/>
      </g>
     </g>
    </g>
    <g id="ytick_28">
     <g id="line2d_125">
      <g>
       <use xlink:href="#m72b3a91f1a" x="46.1" y="152.458741" style="stroke: #000000; stroke-width: 0.5"/>
      </g>
     </g>
     <g id="line2d_126">
      <g>
       <use xlink:href="#m327bb6badc" x="464.6" y="152.458741" style="stroke: #000000; stroke-width: 0.5"/>
      </g>
     </g>
    </g>
    <g id="ytick_29">
     <g id="line2d_127">
      <g>
       <use xlink:href="#m72b3a91f1a" x="46.1" y="145.536963" style="stroke: #000000; stroke-width: 0.5"/>
      </g>
     </g>
     <g id="line2d_128">
      <g>
       <use xlink:href="#m327bb6badc" x="464.6" y="145.536963" style="stroke: #000000; stroke-width: 0.5"/>
      </g>
     </g>
    </g>
    <g id="ytick_30">
     <g id="line2d_129">
      <g>
       <use xlink:href="#m72b3a91f1a" x="46.1" y="131.693408" style="stroke: #000000; stroke-width: 0.5"/>
      </g>
     </g>
     <g id="line2d_130">
      <g>
       <use xlink:href="#m327bb6badc" x="464.6" y="131.693408" style="stroke: #000000; stroke-width: 0.5"/>
      </g>
     </g>
    </g>
    <g id="ytick_31">
     <g id="line2d_131">
      <g>
       <use xlink:href="#m72b3a91f1a" x="46.1" y="124.77163" style="stroke: #000000; stroke-width: 0.5"/>
      </g>
     </g>
     <g id="line2d_132">
      <g>
       <use xlink:href="#m327bb6badc" x="464.6" y="124.77163" style="stroke: #000000; stroke-width: 0.5"/>
      </g>
     </g>
    </g>
    <g id="ytick_32">
     <g id="line2d_133">
      <g>
       <use xlink:href="#m72b3a91f1a" x="46.1" y="117.849853" style="stroke: #000000; stroke-width: 0.5"/>
      </g>
     </g>
     <g id="line2d_134">
      <g>
       <use xlink:href="#m327bb6badc" x="464.6" y="117.849853" style="stroke: #000000; stroke-width: 0.5"/>
      </g>
     </g>
    </g>
    <g id="ytick_33">
     <g id="line2d_135">
      <g>
       <use xlink:href="#m72b3a91f1a" x="46.1" y="110.928075" style="stroke: #000000; stroke-width: 0.5"/>
      </g>
     </g>
     <g id="line2d_136">
      <g>
       <use xlink:href="#m327bb6badc" x="464.6" y="110.928075" style="stroke: #000000; stroke-width: 0.5"/>
      </g>
     </g>
    </g>
    <g id="ytick_34">
     <g id="line2d_137">
      <g>
       <use xlink:href="#m72b3a91f1a" x="46.1" y="97.08452" style="stroke: #000000; stroke-width: 0.5"/>
      </g>
     </g>
     <g id="line2d_138">
      <g>
       <use xlink:href="#m327bb6badc" x="464.6" y="97.08452" style="stroke: #000000; stroke-width: 0.5"/>
      </g>
     </g>
    </g>
    <g id="ytick_35">
     <g id="line2d_139">
      <g>
       <use xlink:href="#m72b3a91f1a" x="46.1" y="90.162743" style="stroke: #000000; stroke-width: 0.5"/>
      </g>
     </g>
     <g id="line2d_140">
      <g>
       <use xlink:href="#m327bb6badc" x="464.6" y="90.162743" style="stroke: #000000; stroke-width: 0.5"/>
      </g>
     </g>
    </g>
    <g id="ytick_36">
     <g id="line2d_141">
      <g>
       <use xlink:href="#m72b3a91f1a" x="46.1" y="83.240965" style="stroke: #000000; stroke-width: 0.5"/>
      </g>
     </g>
     <g id="line2d_142">
      <g>
       <use xlink:href="#m327bb6badc" x="464.6" y="83.240965" style="stroke: #000000; stroke-width: 0.5"/>
      </g>
     </g>
    </g>
    <g id="ytick_37">
     <g id="line2d_143">
      <g>
       <use xlink:href="#m72b3a91f1a" x="46.1" y="76.319187" style="stroke: #000000; stroke-width: 0.5"/>
      </g>
     </g>
     <g id="line2d_144">
      <g>
       <use xlink:href="#m327bb6badc" x="464.6" y="76.319187" style="stroke: #000000; stroke-width: 0.5"/>
      </g>
     </g>
    </g>
    <g id="ytick_38">
     <g id="line2d_145">
      <g>
       <use xlink:href="#m72b3a91f1a" x="46.1" y="62.475632" style="stroke: #000000; stroke-width: 0.5"/>
      </g>
     </g>
     <g id="line2d_146">
      <g>
       <use xlink:href="#m327bb6badc" x="464.6" y="62.475632" style="stroke: #000000; stroke-width: 0.5"/>
      </g>
     </g>
    </g>
    <g id="ytick_39">
     <g id="line2d_147">
      <g>
       <use xlink:href="#m72b3a91f1a" x="46.1" y="55.553855" style="stroke: #000000; stroke-width: 0.5"/>
      </g>
     </g>
     <g id="line2d_148">
      <g>
       <use xlink:href="#m327bb6badc" x="464.6" y="55.553855" style="stroke: #000000; stroke-width: 0.5"/>
      </g>
     </g>
    </g>
    <g id="ytick_40">
     <g id="line2d_149">
      <g>
       <use xlink:href="#m72b3a91f1a" x="46.1" y="48.632077" style="stroke: #000000; stroke-width: 0.5"/>
      </g>
     </g>
     <g id="line2d_150">
      <g>
       <use xlink:href="#m327bb6badc" x="464.6" y="48.632077" style="stroke: #000000; stroke-width: 0.5"/>
      </g>
     </g>
    </g>
    <g id="ytick_41">
     <g id="line2d_151">
      <g>
       <use xlink:href="#m72b3a91f1a" x="46.1" y="41.7103" style="stroke: #000000; stroke-width: 0.5"/>
      </g>
     </g>
     <g id="line2d_152">
      <g>
       <use xlink:href="#m327bb6badc" x="464.6" y="41.7103" style="stroke: #000000; stroke-width: 0.5"/>
      </g>
     </g>
    </g>
    <g id="text_16">
     <!-- $|g_1|$ difference from exact -->
     <g transform="translate(14.1 252.789625) rotate(-90) scale(0.14 -0.14)">
      <defs>
       <path id="Cmsy10-6a" d="M 763 -1484 
L 763 4684 
Q 763 4734 800 4767 
Q 838 4800 891 4800 
Q 938 4800 978 4767 
Q 1019 4734 1019 4684 
L 1019 -1484 
Q 1019 -1534 978 -1567 
Q 938 -1600 891 -1600 
Q 838 -1600 800 -1567 
Q 763 -1534 763 -1484 
z
" transform="scale(0.015625)"/>
       <path id="Cmmi10-67" d="M 91 -916 
Q 91 -759 198 -642 
Q 306 -525 459 -525 
Q 563 -525 633 -589 
Q 703 -653 703 -756 
Q 703 -872 637 -964 
Q 572 -1056 469 -1094 
Q 641 -1147 1006 -1147 
Q 1300 -1147 1544 -920 
Q 1788 -694 1863 -397 
L 2047 353 
Q 1700 0 1325 0 
Q 1050 0 854 140 
Q 659 281 556 515 
Q 453 750 453 1013 
Q 453 1306 573 1628 
Q 694 1950 911 2225 
Q 1128 2500 1409 2664 
Q 1691 2828 2003 2828 
Q 2191 2828 2341 2725 
Q 2491 2622 2578 2450 
Q 2641 2700 2853 2700 
Q 2934 2700 2990 2651 
Q 3047 2603 3047 2522 
Q 3047 2503 3045 2493 
Q 3044 2484 3041 2472 
L 2309 -434 
Q 2259 -634 2125 -800 
Q 1991 -966 1809 -1077 
Q 1628 -1188 1412 -1250 
Q 1197 -1313 997 -1313 
Q 631 -1313 361 -1242 
Q 91 -1172 91 -916 
z
M 1338 166 
Q 1747 166 2144 728 
L 2497 2125 
Q 2453 2347 2322 2505 
Q 2191 2663 1991 2663 
Q 1778 2663 1589 2489 
Q 1400 2316 1275 2075 
Q 1156 1844 1045 1411 
Q 934 978 934 728 
Q 934 509 1034 337 
Q 1134 166 1338 166 
z
" transform="scale(0.015625)"/>
       <path id="Cmr10-31" d="M 594 0 
L 594 225 
Q 1394 225 1394 428 
L 1394 3788 
Q 1063 3628 556 3628 
L 556 3853 
Q 1341 3853 1741 4263 
L 1831 4263 
Q 1853 4263 1873 4245 
Q 1894 4228 1894 4206 
L 1894 428 
Q 1894 225 2694 225 
L 2694 0 
L 594 0 
z
" transform="scale(0.015625)"/>
       <path id="STIXGeneral-Regular-20" transform="scale(0.015625)"/>
       <path id="STIXGeneral-Regular-64" d="M 3142 269 
L 2202 -64 
L 2176 -45 
L 2176 365 
Q 1869 -64 1357 -64 
Q 826 -64 499 317 
Q 173 698 173 1312 
Q 173 1990 563 2467 
Q 954 2944 1504 2944 
Q 1850 2944 2176 2669 
L 2176 3667 
Q 2176 3866 2118 3930 
Q 2061 3994 1882 3994 
Q 1792 3994 1741 3987 
L 1741 4090 
Q 2323 4243 2682 4371 
L 2714 4358 
L 2714 730 
Q 2714 506 2768 435 
Q 2822 365 2995 365 
Q 3034 365 3142 371 
L 3142 269 
z
M 2176 653 
L 2176 2125 
Q 2176 2381 1981 2573 
Q 1786 2765 1523 2765 
Q 1158 2765 940 2438 
Q 723 2112 723 1568 
Q 723 979 963 624 
Q 1203 269 1606 269 
Q 1907 269 2080 474 
Q 2176 582 2176 653 
z
" transform="scale(0.015625)"/>
       <path id="STIXGeneral-Regular-66" d="M 134 2880 
L 659 2880 
Q 666 3264 710 3478 
Q 755 3693 883 3910 
Q 1152 4371 1786 4371 
Q 2074 4371 2262 4259 
Q 2451 4147 2451 3974 
Q 2451 3866 2374 3789 
Q 2298 3712 2182 3712 
Q 2029 3712 1894 3942 
Q 1741 4192 1555 4192 
Q 1197 4192 1197 3622 
L 1197 2880 
L 1978 2880 
L 1978 2675 
L 1197 2675 
L 1197 666 
Q 1197 307 1299 208 
Q 1402 109 1792 96 
L 1792 0 
L 128 0 
L 128 96 
Q 474 115 566 214 
Q 659 314 659 666 
L 659 2675 
L 134 2675 
L 134 2880 
z
" transform="scale(0.015625)"/>
       <path id="STIXGeneral-Regular-72" d="M 1024 2931 
L 1024 2342 
Q 1267 2688 1430 2816 
Q 1594 2944 1792 2944 
Q 1958 2944 2051 2854 
Q 2144 2765 2144 2605 
Q 2144 2470 2077 2393 
Q 2010 2317 1894 2317 
Q 1773 2317 1638 2445 
Q 1536 2541 1472 2541 
Q 1338 2541 1181 2355 
Q 1024 2170 1024 2016 
L 1024 576 
Q 1024 301 1133 205 
Q 1242 109 1568 96 
L 1568 0 
L 32 0 
L 32 96 
Q 339 154 412 224 
Q 486 294 486 538 
L 486 2138 
Q 486 2349 438 2435 
Q 390 2522 269 2522 
Q 166 2522 45 2496 
L 45 2598 
Q 448 2726 992 2944 
L 1024 2931 
z
" transform="scale(0.015625)"/>
       <path id="STIXGeneral-Regular-6e" d="M 3104 0 
L 1773 0 
L 1779 96 
Q 2016 115 2096 233 
Q 2176 352 2176 672 
L 2176 1946 
Q 2176 2592 1709 2592 
Q 1549 2592 1408 2515 
Q 1267 2438 1050 2227 
L 1050 461 
Q 1050 269 1136 192 
Q 1222 115 1466 96 
L 1466 0 
L 115 0 
L 115 96 
Q 358 115 435 214 
Q 512 314 512 602 
L 512 2157 
Q 512 2394 467 2483 
Q 422 2573 288 2573 
Q 160 2573 102 2547 
L 102 2656 
Q 550 2784 979 2944 
L 1030 2925 
L 1030 2426 
L 1037 2426 
Q 1491 2944 1958 2944 
Q 2323 2944 2518 2688 
Q 2714 2432 2714 1958 
L 2714 544 
Q 2714 288 2790 205 
Q 2867 122 3104 96 
L 3104 0 
z
" transform="scale(0.015625)"/>
       <path id="STIXGeneral-Regular-63" d="M 2547 998 
L 2637 941 
Q 2362 403 2112 205 
Q 1786 -64 1376 -64 
Q 845 -64 502 336 
Q 160 736 160 1357 
Q 160 2170 698 2618 
Q 1094 2944 1562 2944 
Q 1965 2944 2256 2749 
Q 2547 2554 2547 2285 
Q 2547 2176 2457 2096 
Q 2368 2016 2246 2016 
Q 2022 2016 1939 2310 
L 1901 2451 
Q 1850 2630 1773 2694 
Q 1696 2758 1523 2758 
Q 1133 2758 893 2451 
Q 653 2144 653 1645 
Q 653 1094 928 745 
Q 1203 397 1645 397 
Q 1920 397 2118 528 
Q 2317 659 2547 998 
z
" transform="scale(0.015625)"/>
       <path id="STIXGeneral-Regular-6f" d="M 3008 1478 
Q 3008 806 2608 371 
Q 2208 -64 1568 -64 
Q 979 -64 582 368 
Q 186 800 186 1459 
Q 186 2125 582 2534 
Q 979 2944 1626 2944 
Q 2221 2944 2614 2537 
Q 3008 2131 3008 1478 
z
M 2432 1306 
Q 2432 2035 2112 2445 
Q 1856 2765 1504 2765 
Q 1171 2765 966 2493 
Q 762 2221 762 1747 
Q 762 928 1101 435 
Q 1318 115 1677 115 
Q 2029 115 2230 432 
Q 2432 749 2432 1306 
z
" transform="scale(0.015625)"/>
       <path id="STIXGeneral-Regular-78" d="M 3066 0 
L 1779 0 
L 1779 96 
Q 1939 109 1987 137 
Q 2035 166 2035 250 
Q 2035 307 1997 365 
L 1414 1261 
L 909 474 
Q 781 275 781 211 
Q 781 96 1037 96 
L 1037 0 
L 109 0 
L 109 96 
Q 269 109 355 169 
Q 442 230 576 422 
L 1306 1478 
L 704 2400 
Q 557 2624 454 2704 
Q 352 2784 211 2784 
L 154 2784 
L 154 2880 
L 1478 2880 
L 1478 2784 
Q 1203 2778 1203 2643 
Q 1203 2509 1498 2074 
Q 1581 1958 1587 1946 
Q 1619 1990 1779 2227 
Q 1811 2285 1856 2349 
Q 1901 2413 1923 2451 
Q 1946 2490 1971 2528 
Q 1997 2566 2006 2595 
Q 2016 2624 2016 2643 
Q 2016 2765 1760 2784 
L 1760 2880 
L 2771 2880 
L 2771 2784 
Q 2445 2771 2253 2502 
L 1722 1734 
L 2541 480 
Q 2790 96 3066 96 
L 3066 0 
z
" transform="scale(0.015625)"/>
       <path id="STIXGeneral-Regular-61" d="M 2829 422 
L 2829 243 
Q 2586 -64 2253 -64 
Q 1888 -64 1843 403 
L 1837 403 
Q 1427 -64 909 -64 
Q 608 -64 422 112 
Q 237 288 237 602 
Q 237 1050 685 1350 
Q 992 1555 1837 1869 
L 1837 2214 
Q 1837 2502 1699 2646 
Q 1562 2790 1338 2790 
Q 1146 2790 1018 2697 
Q 890 2605 890 2477 
Q 890 2419 909 2348 
Q 928 2278 928 2208 
Q 928 2112 841 2029 
Q 755 1946 634 1946 
Q 525 1946 441 2029 
Q 358 2112 358 2240 
Q 358 2547 685 2752 
Q 986 2944 1421 2944 
Q 1939 2944 2176 2656 
Q 2291 2522 2323 2384 
Q 2355 2246 2355 1946 
L 2355 723 
Q 2355 301 2554 301 
Q 2682 301 2829 422 
z
M 1837 813 
L 1837 1715 
Q 1248 1510 1018 1293 
Q 800 1094 800 800 
Q 800 557 921 432 
Q 1043 307 1242 307 
Q 1453 307 1613 410 
Q 1747 506 1792 589 
Q 1837 672 1837 813 
z
" transform="scale(0.015625)"/>
       <path id="STIXGeneral-Regular-74" d="M 1702 493 
L 1786 422 
Q 1478 -64 1011 -64 
Q 448 -64 448 749 
L 448 2675 
L 109 2675 
Q 83 2694 83 2720 
Q 83 2771 192 2842 
Q 435 2982 813 3526 
Q 826 3546 874 3606 
Q 922 3667 941 3706 
Q 986 3706 986 3622 
L 986 2880 
L 1632 2880 
L 1632 2675 
L 986 2675 
L 986 845 
Q 986 538 1062 403 
Q 1139 269 1318 269 
Q 1510 269 1702 493 
z
" transform="scale(0.015625)"/>
      </defs>
      <use xlink:href="#Cmsy10-6a"/>
      <use xlink:href="#Cmmi10-67" transform="translate(27.685547 0)"/>
      <use xlink:href="#Cmr10-31" transform="translate(75.390625 -17.00625) scale(0.7)"/>
      <use xlink:href="#Cmsy10-6a" transform="translate(116.767969 0)"/>
      <use xlink:href="#STIXGeneral-Regular-20" transform="translate(144.453516 0)"/>
      <use xlink:href="#STIXGeneral-Regular-64" transform="translate(169.4535 0)"/>
      <use xlink:href="#STIXGeneral-Regular-69" transform="translate(219.453485 0)"/>
      <use xlink:href="#STIXGeneral-Regular-66" transform="translate(247.253473 0)"/>
      <use xlink:href="#STIXGeneral-Regular-66" transform="translate(280.553461 0)"/>
      <use xlink:href="#STIXGeneral-Regular-65" transform="translate(313.853448 0)"/>
      <use xlink:href="#STIXGeneral-Regular-72" transform="translate(358.253442 0)"/>
      <use xlink:href="#STIXGeneral-Regular-65" transform="translate(391.55343 0)"/>
      <use xlink:href="#STIXGeneral-Regular-6e" transform="translate(435.953424 0)"/>
      <use xlink:href="#STIXGeneral-Regular-63" transform="translate(485.953409 0)"/>
      <use xlink:href="#STIXGeneral-Regular-65" transform="translate(530.353403 0)"/>
      <use xlink:href="#STIXGeneral-Regular-20" transform="translate(574.753397 0)"/>
      <use xlink:href="#STIXGeneral-Regular-66" transform="translate(599.753381 0)"/>
      <use xlink:href="#STIXGeneral-Regular-72" transform="translate(633.053369 0)"/>
      <use xlink:href="#STIXGeneral-Regular-6f" transform="translate(666.353357 0)"/>
      <use xlink:href="#STIXGeneral-Regular-6d" transform="translate(716.353342 0)"/>
      <use xlink:href="#STIXGeneral-Regular-20" transform="translate(794.153329 0)"/>
      <use xlink:href="#STIXGeneral-Regular-65" transform="translate(819.153314 0)"/>
      <use xlink:href="#STIXGeneral-Regular-78" transform="translate(863.553308 0)"/>
      <use xlink:href="#STIXGeneral-Regular-61" transform="translate(913.553293 0)"/>
      <use xlink:href="#STIXGeneral-Regular-63" transform="translate(957.953287 0)"/>
      <use xlink:href="#STIXGeneral-Regular-74" transform="translate(1002.353281 0)"/>
     </g>
    </g>
    <g id="text_17">
     <!-- $\times\mathdefault{10^{43}}\mathdefault{}$ -->
     <g transform="translate(46.1 33.475625) scale(0.12 -0.12)">
      <defs>
       <path id="Cmsy10-a3" d="M 941 184 
Q 941 234 972 275 
L 2303 1600 
L 972 2931 
Q 941 2963 941 3016 
Q 941 3063 978 3103 
Q 1016 3144 1069 3144 
Q 1113 3144 1166 3103 
L 2491 1778 
L 3809 3103 
Q 3863 3144 3903 3144 
Q 3956 3144 3993 3106 
Q 4031 3069 4031 3016 
Q 4031 2963 4000 2931 
L 2669 1600 
L 4000 275 
Q 4031 234 4031 184 
Q 4031 131 3993 93 
Q 3956 56 3903 56 
Q 3856 56 3809 103 
L 2491 1422 
L 1166 103 
Q 1119 56 1069 56 
Q 1016 56 978 97 
Q 941 138 941 184 
z
" transform="scale(0.015625)"/>
      </defs>
      <use xlink:href="#Cmsy10-a3" transform="translate(0 0.684375)"/>
      <use xlink:href="#STIXGeneral-Regular-31" transform="translate(77.685547 0.684375)"/>
      <use xlink:href="#STIXGeneral-Regular-30" transform="translate(127.685532 0.684375)"/>
      <use xlink:href="#STIXGeneral-Regular-34" transform="translate(179.260516 36.684375) scale(0.7)"/>
      <use xlink:href="#STIXGeneral-Regular-33" transform="translate(214.260506 36.684375) scale(0.7)"/>
     </g>
    </g>
   </g>
   <g id="line2d_153">
    <path d="M 65.122727 311.659625 
L 346.659091 311.550668 
L 350.996273 311.214985 
L 352.670273 310.794736 
L 353.050727 310.667285 
L 354.876909 310.26388 
L 355.713909 309.88299 
L 356.398727 309.674829 
L 356.703091 309.70945 
L 357.083545 309.523689 
L 357.311818 309.46942 
L 357.464 309.453708 
L 357.692273 309.285521 
L 357.920545 309.151596 
L 358.148818 308.959463 
L 358.453182 308.781546 
L 358.529273 308.827938 
L 358.605364 308.608027 
L 358.681455 308.659224 
L 358.833636 308.62354 
L 358.985818 308.675705 
L 360.203273 308.113584 
L 360.355455 308.022192 
L 360.583727 307.838683 
L 360.735909 307.837365 
L 360.964182 307.56894 
L 361.040273 307.543386 
L 361.116364 307.331324 
L 361.268545 307.456014 
L 361.572909 307.275455 
L 361.801182 307.180817 
L 362.409909 306.70067 
L 362.638182 306.597004 
L 362.714273 306.495523 
L 362.790364 306.164916 
L 362.866455 306.201938 
L 363.018636 306.130845 
L 363.323 305.748191 
L 363.475182 305.53117 
L 363.703455 305.202168 
L 363.855636 304.946643 
L 364.007818 305.061629 
L 364.083909 304.880796 
L 364.16 304.996022 
L 364.236091 304.921151 
L 364.312182 305.017408 
L 364.692636 304.256028 
L 364.920909 303.563878 
L 365.073091 303.358563 
L 365.377455 302.592605 
L 365.605727 302.512229 
L 365.834 302.595315 
L 366.214455 301.832885 
L 366.366636 301.350287 
L 366.518818 301.460102 
L 366.671 300.884437 
L 366.747091 300.921267 
L 367.051455 300.499016 
L 367.127545 300.889723 
L 367.203636 300.867073 
L 367.584091 299.370493 
L 367.660182 299.541282 
L 367.964545 298.843099 
L 368.040636 298.133797 
L 368.116727 298.340989 
L 368.192818 298.106424 
L 368.268909 298.29838 
L 368.421091 297.607466 
L 368.497182 297.583722 
L 368.953727 293.980942 
L 369.029818 293.59672 
L 369.258091 291.569573 
L 369.562455 289.689245 
L 369.790727 287.313296 
L 369.942909 286.412327 
L 370.323364 283.622848 
L 370.399455 284.031067 
L 370.551636 283.297068 
L 370.703818 281.17374 
L 370.779909 281.28849 
L 371.008182 280.087653 
L 371.084273 280.42513 
L 371.388636 273.976737 
L 371.464727 274.038558 
L 371.616909 273.847584 
L 371.769091 270.864177 
L 371.845182 270.73086 
L 371.921273 269.058397 
L 371.997364 269.386158 
L 372.073455 270.444332 
L 372.149545 270.064622 
L 372.225636 269.124592 
L 372.301727 270.357151 
L 372.453909 268.582941 
L 372.53 269.141577 
L 372.606091 269.738335 
L 372.682182 268.05612 
L 372.758273 268.781196 
L 372.834364 268.499235 
L 373.671364 256.394887 
L 373.823545 253.825316 
L 374.432273 243.225197 
L 374.508364 243.310583 
L 374.584455 241.702755 
L 374.660545 242.146654 
L 374.888818 240.334516 
L 374.964909 241.466103 
L 375.421455 234.101219 
L 375.497545 236.55358 
L 375.649727 229.652108 
L 375.725818 230.681404 
L 376.030182 236.37618 
L 376.258455 231.73281 
L 376.334545 233.033577 
L 376.410636 232.625434 
L 376.486727 232.597291 
L 376.943273 220.44741 
L 377.019364 221.115346 
L 377.399818 214.446915 
L 377.552 217.261743 
L 377.704182 211.59849 
L 377.780273 213.514919 
L 377.932455 211.820968 
L 378.084636 207.708867 
L 378.160727 207.844958 
L 378.617273 196.11382 
L 378.769455 200.99734 
L 378.845545 198.746323 
L 378.921636 198.754438 
L 379.149909 197.450469 
L 379.226 202.944556 
L 379.454273 193.793449 
L 379.530364 194.272742 
L 379.606455 196.142903 
L 379.910818 182.329844 
L 379.986909 182.638308 
L 380.139091 186.683392 
L 380.443455 180.48073 
L 380.519545 182.060173 
L 380.595636 179.881553 
L 380.671727 184.532264 
L 380.747818 183.76464 
L 380.9 180.028497 
L 380.976091 181.932205 
L 381.128273 175.62634 
L 381.356545 181.94989 
L 381.432636 179.675934 
L 381.584818 185.872138 
L 381.660909 183.723787 
L 381.737 184.58316 
L 381.813091 187.096925 
L 381.889182 185.790752 
L 381.965273 186.896805 
L 382.117455 194.744949 
L 382.345727 188.015156 
L 382.421818 188.259206 
L 382.726182 191.883339 
L 383.334909 179.444316 
L 383.411 179.473467 
L 383.715364 194.617481 
L 383.867545 190.384414 
L 383.943636 192.033954 
L 384.019727 191.264752 
L 384.095818 191.788778 
L 384.171909 195.136104 
L 384.248 194.094653 
L 384.324091 192.592834 
L 384.400182 186.359515 
L 384.476273 188.798501 
L 384.552364 188.464066 
L 384.704545 182.047338 
L 384.780636 182.533868 
L 384.856727 180.309227 
L 385.085 187.36219 
L 385.313273 182.83108 
L 385.389364 185.847993 
L 385.617636 174.655071 
L 385.922 187.053855 
L 385.998091 185.232165 
L 386.074182 188.017521 
L 386.150273 187.005147 
L 386.226364 185.686889 
L 386.302455 178.722603 
L 386.378545 178.794592 
L 386.606818 184.062458 
L 386.682909 179.629609 
L 386.759 185.791518 
L 386.835091 185.201551 
L 386.911182 184.247176 
L 386.987273 186.306197 
L 387.139455 183.553239 
L 387.367727 187.840982 
L 387.443818 187.109086 
L 387.519909 190.498385 
L 387.596 188.622484 
L 387.824273 194.238107 
L 387.976455 189.562963 
L 388.052545 187.859182 
L 388.128636 191.293426 
L 388.204727 188.573379 
L 388.280818 188.88195 
L 388.356909 191.218947 
L 388.509091 186.104247 
L 388.661273 190.332063 
L 388.737364 189.950304 
L 388.813455 189.892525 
L 388.965636 185.975264 
L 389.041727 185.855981 
L 389.117818 191.829495 
L 389.193909 191.256105 
L 389.422182 197.957767 
L 389.650455 190.063552 
L 389.802636 177.911204 
L 389.878727 179.506977 
L 389.954818 178.16009 
L 390.183091 183.879306 
L 390.335273 181.858294 
L 390.411364 182.000277 
L 390.487455 176.929707 
L 390.563545 179.196115 
L 390.639636 178.90111 
L 390.715727 183.701492 
L 390.791818 182.802452 
L 390.867909 179.206807 
L 391.020091 185.013649 
L 391.096182 181.981682 
L 391.172273 182.666476 
L 391.400545 186.984071 
L 391.628818 180.789568 
L 391.704909 179.22942 
L 391.933182 182.733297 
L 392.161455 178.668952 
L 392.541909 172.572244 
L 392.618 165.880709 
L 392.846273 171.975228 
L 392.922364 171.196878 
L 393.302818 180.453349 
L 393.378909 180.146152 
L 393.455 175.925734 
L 393.531091 179.353818 
L 393.683273 173.941996 
L 393.911545 181.803269 
L 394.063727 193.116052 
L 394.139818 191.81631 
L 394.215909 191.018471 
L 394.444182 199.585013 
L 394.520273 197.305645 
L 394.596364 200.101899 
L 394.672455 200.02222 
L 394.824636 196.089848 
L 394.900727 201.275162 
L 394.976818 200.696262 
L 395.129 204.329465 
L 395.205091 201.184701 
L 395.433364 208.422814 
L 395.737727 203.253727 
L 395.889909 208.449939 
L 395.966 207.450859 
L 396.194273 214.177733 
L 396.270364 211.7748 
L 396.498636 220.802513 
L 396.574727 221.657315 
L 396.726909 217.068706 
L 396.803 217.125026 
L 396.879091 219.80415 
L 396.955182 219.079098 
L 397.107364 220.213694 
L 397.183455 220.832384 
L 397.335636 224.964395 
L 397.411727 224.21494 
L 397.487818 225.398971 
L 397.563909 225.285761 
L 397.64 219.860639 
L 397.716091 220.707555 
L 397.944364 222.717473 
L 398.020455 221.500083 
L 398.172636 223.236105 
L 398.400909 230.201502 
L 398.477 229.092933 
L 398.857455 234.802984 
L 399.009636 233.488034 
L 399.161818 237.945224 
L 399.237909 236.638655 
L 399.542273 241.883837 
L 399.618364 240.418521 
L 399.694455 242.754444 
L 399.846636 241.38441 
L 399.922727 241.943766 
L 400.074909 238.47667 
L 400.151 238.624568 
L 400.379273 242.42506 
L 400.455364 242.180969 
L 400.531455 243.785272 
L 400.607545 243.733379 
L 400.683636 243.720463 
L 400.835818 246.168808 
L 400.911909 244.129689 
L 401.292364 250.825099 
L 401.368455 249.40983 
L 401.520636 247.907556 
L 401.596727 247.711386 
L 401.748909 249.811374 
L 401.825 250.049925 
L 401.977182 246.25308 
L 402.053273 248.572348 
L 402.129364 247.654524 
L 402.509818 249.122298 
L 402.585909 250.335404 
L 402.662 248.10518 
L 402.738091 248.118739 
L 402.814182 251.157452 
L 402.890273 249.850307 
L 402.966364 249.106231 
L 403.118545 249.704251 
L 403.270727 248.708537 
L 403.727273 254.755585 
L 403.803364 255.082777 
L 403.955545 257.060818 
L 404.336 251.130692 
L 404.412091 251.001604 
L 404.488182 251.486175 
L 404.716455 256.675915 
L 404.792545 256.080702 
L 405.020818 258.230377 
L 405.173 257.316494 
L 405.249091 255.6969 
L 405.325182 257.848629 
L 405.477364 256.356599 
L 405.629545 258.331741 
L 405.705636 258.823961 
L 405.933909 263.380071 
L 406.01 263.378881 
L 406.238273 266.966265 
L 406.314364 266.758997 
L 406.390455 266.257278 
L 406.542636 263.570312 
L 406.770909 267.231314 
L 406.923091 264.426543 
L 406.999182 262.914033 
L 407.227455 264.571952 
L 407.455727 263.683495 
L 407.531818 264.052448 
L 407.607909 262.540755 
L 407.760091 263.351352 
L 407.836182 263.544101 
L 407.912273 262.834027 
L 407.988364 263.694243 
L 408.140545 261.006222 
L 408.216636 261.293532 
L 408.292727 261.389759 
L 408.597091 257.76863 
L 408.825364 261.749607 
L 408.901455 262.238172 
L 408.977545 261.98306 
L 409.053636 263.460648 
L 409.205818 259.699359 
L 409.281909 260.594366 
L 409.510182 258.705358 
L 409.814545 261.609243 
L 409.890636 261.127745 
L 410.499364 252.550061 
L 410.727636 250.933713 
L 411.108091 241.294797 
L 411.184182 240.690078 
L 411.336364 241.801702 
L 411.488545 245.403237 
L 411.564636 244.030428 
L 411.640727 244.583634 
L 411.716818 243.845772 
L 411.792909 245.254609 
L 411.945091 243.187909 
L 412.097273 245.222775 
L 412.173364 245.044953 
L 412.249455 247.560781 
L 412.325545 246.505962 
L 412.477727 247.433828 
L 412.553818 243.639815 
L 412.629909 246.42705 
L 413.238636 235.434576 
L 413.314727 237.424211 
L 413.466909 235.796758 
L 413.543 236.468835 
L 413.771273 234.694794 
L 413.847364 235.396801 
L 414.151727 228.14104 
L 414.38 224.563868 
L 414.608273 219.437147 
L 414.760455 220.557683 
L 414.988727 215.511392 
L 415.064818 215.812304 
L 415.293091 219.843874 
L 415.445273 218.762725 
L 415.597455 223.144193 
L 415.673545 221.920117 
L 415.749636 223.21623 
L 416.510545 205.87965 
L 416.586636 207.24251 
L 416.891 200.655544 
L 416.967091 201.6371 
L 417.119273 199.794522 
L 417.195364 199.298395 
L 417.651909 187.231263 
L 417.728 189.670987 
L 417.804091 186.760901 
L 417.956273 190.416801 
L 418.260636 183.01695 
L 418.717182 162.734947 
L 418.793273 163.588346 
L 419.021545 155.068381 
L 419.097636 152.838221 
L 419.173727 154.44643 
L 419.249818 153.807422 
L 419.325909 154.793268 
L 419.478091 149.680328 
L 419.630273 155.747321 
L 419.782455 156.99472 
L 419.858545 156.541724 
L 419.934636 149.062821 
L 420.086818 152.948021 
L 420.162909 147.720757 
L 420.239 148.750645 
L 420.315091 148.011002 
L 420.391182 150.964602 
L 420.543364 137.175133 
L 420.695545 139.683929 
L 420.847727 132.814915 
L 420.923818 136.677204 
L 420.999909 133.276143 
L 421.228182 148.718055 
L 421.456455 143.358247 
L 421.608636 150.569778 
L 421.684727 150.352303 
L 421.760818 152.362431 
L 421.836909 157.604745 
L 421.913 152.976799 
L 421.989091 155.307076 
L 422.141273 153.623315 
L 422.217364 153.956946 
L 422.293455 154.950827 
L 422.369545 147.687952 
L 422.445636 149.837881 
L 422.597818 143.760372 
L 422.75 146.030159 
L 422.826091 142.095681 
L 422.902182 147.487115 
L 422.978273 145.044363 
L 423.130455 151.621344 
L 423.282636 139.481949 
L 423.358727 139.797353 
L 423.434818 138.932123 
L 423.587 131.271761 
L 423.663091 133.928413 
L 423.739182 136.432079 
L 423.815273 131.96279 
L 423.891364 132.848037 
L 423.967455 133.764309 
L 424.347909 117.858823 
L 424.424 116.92626 
L 424.576182 125.601868 
L 424.804455 119.639506 
L 424.956636 111.325567 
L 425.032727 112.20743 
L 425.108818 113.564745 
L 425.184909 102.528962 
L 425.261 104.502902 
L 425.413182 102.516816 
L 425.565364 91.701117 
L 425.717545 100.825596 
L 425.793636 97.236982 
L 426.021909 85.117251 
L 426.098 91.148123 
L 426.174091 90.742048 
L 426.250182 85.006132 
L 426.326273 85.257962 
L 426.554545 95.128357 
L 426.706727 83.509952 
L 426.782818 83.221147 
L 426.858909 81.205752 
L 427.011091 92.08329 
L 427.087182 99.048345 
L 427.315455 91.393593 
L 427.543727 104.19342 
L 427.695909 93.309346 
L 427.772 90.284935 
L 427.848091 99.556359 
L 427.924182 92.807127 
L 428.000273 96.323671 
L 428.076364 94.901062 
L 428.152455 94.085479 
L 428.380727 105.547246 
L 428.456818 98.03986 
L 428.532909 103.474527 
L 428.609 103.147683 
L 428.685091 103.104336 
L 428.989455 85.90006 
L 429.065545 87.603918 
L 429.217727 76.898356 
L 429.369909 83.498737 
L 429.522091 80.117963 
L 429.598182 79.884326 
L 429.674273 80.812004 
L 429.750364 86.965722 
L 429.902545 71.131534 
L 429.978636 70.804033 
L 430.206909 49.848009 
L 430.511273 70.40333 
L 430.739545 54.22523 
L 430.815636 53.556718 
L 430.891727 49.579625 
L 431.12 63.66306 
L 431.196091 70.094149 
L 431.272182 68.359237 
L 431.424364 59.080611 
L 431.500455 64.982788 
L 431.576545 53.095949 
L 431.652636 60.948731 
L 431.728727 60.18628 
L 431.804818 61.225176 
L 432.033091 81.463268 
L 432.261364 87.045576 
L 432.489636 63.696599 
L 432.565727 64.754829 
L 432.717909 74.859514 
L 433.022273 89.004331 
L 433.098364 80.429295 
L 433.174455 82.004166 
L 433.326636 84.143778 
L 433.478818 104.957123 
L 433.554909 103.575113 
L 433.859273 114.802093 
L 434.011455 108.982021 
L 434.163636 123.435998 
L 434.315818 122.072248 
L 434.391909 120.845046 
L 434.468 117.149813 
L 434.544091 118.205774 
L 434.620182 120.801076 
L 434.696273 127.407567 
L 434.772364 126.313112 
L 434.924545 122.600219 
L 435.076727 130.628748 
L 435.152818 125.867838 
L 435.228909 128.460374 
L 435.305 126.900036 
L 435.381091 121.112066 
L 435.457182 123.430664 
L 435.609364 132.572857 
L 435.913727 114.61562 
L 435.989818 116.17021 
L 436.065909 120.399472 
L 436.142 132.061796 
L 436.218091 130.038474 
L 436.370273 125.940194 
L 436.598545 130.15924 
L 436.674636 129.925949 
L 436.826818 132.304687 
L 436.979 124.490294 
L 437.055091 125.173624 
L 437.131182 124.766353 
L 437.283364 120.966106 
L 437.663818 136.050384 
L 437.892091 117.212591 
L 437.968182 119.111898 
L 438.196455 139.332025 
L 438.424727 156.033455 
L 438.500818 157.748882 
L 438.653 155.647708 
L 438.729091 158.421271 
L 438.957364 154.438235 
L 439.033455 156.017726 
L 439.261727 168.214675 
L 439.337818 167.033449 
L 439.642182 160.728631 
L 439.718273 160.652392 
L 439.870455 162.200879 
L 439.946545 161.568954 
L 440.022636 162.49231 
L 440.098727 161.597087 
L 440.174818 157.43662 
L 440.250909 157.621401 
L 440.403091 163.397845 
L 440.555273 161.727924 
L 440.783545 170.363666 
L 440.859636 169.475266 
L 440.935727 164.836123 
L 441.011818 166.870953 
L 441.087909 163.056454 
L 441.164 164.729631 
L 441.240091 161.744594 
L 441.316182 153.609566 
L 441.392273 161.352971 
L 441.468364 151.793664 
L 441.544455 151.814886 
L 441.620545 151.781962 
L 441.848818 157.311509 
L 441.924909 156.393999 
L 442.001 153.136396 
L 442.229273 157.211443 
L 442.457545 147.43849 
L 442.761909 158.848008 
L 442.914091 145.725237 
L 442.990182 148.328473 
L 443.446727 128.010671 
L 443.522818 127.15434 
L 443.675 120.610323 
L 443.827182 119.856772 
L 443.979364 111.42348 
L 444.055455 115.920408 
L 444.131545 114.975105 
L 444.207636 114.59982 
L 444.435909 121.213853 
L 444.588091 114.775487 
L 444.664182 116.754588 
L 444.892455 101.469648 
L 445.120727 109.124821 
L 445.272909 103.549538 
L 445.349 108.729815 
L 445.577273 97.037112 
L 445.577273 97.037112 
" clip-path="url(#pb9418ca21a)" style="fill: none; stroke: #2ca02c; stroke-width: 2.7; stroke-linecap: square"/>
   </g>
   <g id="line2d_154">
    <path d="M 46.1 311.659625 
L 464.6 311.659625 
" clip-path="url(#pb9418ca21a)" style="fill: none; stroke: #000000; stroke-opacity: 0.6; stroke-linecap: square"/>
   </g>
   <g id="patch_3">
    <path d="M 46.1 324.763625 
L 46.1 36.475625 
" style="fill: none; stroke: #000000; stroke-width: 0.5; stroke-linejoin: miter; stroke-linecap: square"/>
   </g>
   <g id="patch_4">
    <path d="M 464.6 324.763625 
L 464.6 36.475625 
" style="fill: none; stroke: #000000; stroke-width: 0.5; stroke-linejoin: miter; stroke-linecap: square"/>
   </g>
   <g id="patch_5">
    <path d="M 46.1 324.763625 
L 464.6 324.763625 
" style="fill: none; stroke: #000000; stroke-width: 0.5; stroke-linejoin: miter; stroke-linecap: square"/>
   </g>
   <g id="patch_6">
    <path d="M 46.1 36.475625 
L 464.6 36.475625 
" style="fill: none; stroke: #000000; stroke-width: 0.5; stroke-linejoin: miter; stroke-linecap: square"/>
   </g>
   <g id="line2d_155">
    <path d="M 65.122727 311.659625 
L 445.577273 311.659625 
L 445.577273 311.659625 
" clip-path="url(#pb9418ca21a)" style="fill: none; stroke: #ff7f0e; stroke-width: 2.5; stroke-linecap: square"/>
   </g>
   <g id="text_18">
    <!-- First-Order Coherence Difference $|g_1|$ vs Time ($|n=10\rangle$, $U=1$, $\gamma=1$) -->
    <g transform="translate(26.55 19.28) scale(0.16 -0.16)">
     <defs>
      <path id="STIXGeneral-Regular-46" d="M 3494 3322 
L 3334 3322 
Q 3264 3757 3094 3875 
Q 2925 3994 2349 3994 
L 1504 3994 
Q 1370 3994 1328 3946 
Q 1286 3898 1286 3744 
L 1286 2355 
L 2195 2355 
Q 2598 2355 2736 2470 
Q 2874 2586 2918 2963 
L 3066 2963 
L 3066 1472 
L 2918 1472 
Q 2880 1862 2745 1977 
Q 2611 2093 2195 2093 
L 1286 2093 
L 1286 717 
Q 1286 352 1392 246 
Q 1498 141 1869 122 
L 1869 0 
L 70 0 
L 70 122 
Q 435 147 534 259 
Q 634 371 634 787 
L 634 3526 
Q 634 3878 538 3984 
Q 442 4090 77 4115 
L 77 4237 
L 3462 4237 
L 3494 3322 
z
" transform="scale(0.015625)"/>
      <path id="STIXGeneral-Regular-73" d="M 998 1926 
L 1664 1523 
Q 1984 1331 2105 1164 
Q 2227 998 2227 736 
Q 2227 416 1961 176 
Q 1696 -64 1331 -64 
Q 1030 -64 864 -6 
Q 691 51 570 51 
Q 461 51 416 -26 
L 333 -26 
L 333 979 
L 435 979 
Q 538 512 730 294 
Q 922 77 1248 77 
Q 1485 77 1632 211 
Q 1779 346 1779 550 
Q 1779 845 1440 1030 
L 1094 1222 
Q 326 1651 326 2150 
Q 326 2522 566 2730 
Q 806 2938 1210 2938 
Q 1491 2938 1638 2867 
Q 1754 2816 1818 2816 
Q 1862 2816 1920 2880 
L 1990 2880 
L 2022 2010 
L 1926 2010 
Q 1818 2445 1654 2621 
Q 1491 2797 1203 2797 
Q 986 2797 854 2688 
Q 723 2579 723 2362 
Q 723 2253 796 2128 
Q 870 2003 998 1926 
z
" transform="scale(0.015625)"/>
      <path id="STIXGeneral-Regular-2d" d="M 1824 1242 
L 250 1242 
L 250 1645 
L 1824 1645 
L 1824 1242 
z
" transform="scale(0.015625)"/>
      <path id="STIXGeneral-Regular-4f" d="M 4403 2118 
Q 4403 1133 3820 521 
Q 3238 -90 2310 -90 
Q 1376 -90 797 524 
Q 218 1139 218 2138 
Q 218 3110 797 3718 
Q 1376 4326 2310 4326 
Q 3245 4326 3824 3702 
Q 4403 3078 4403 2118 
z
M 3674 2157 
Q 3674 2701 3520 3133 
Q 3366 3565 3091 3795 
Q 2733 4096 2304 4096 
Q 1760 4096 1389 3667 
Q 1184 3437 1065 3011 
Q 947 2586 947 2125 
Q 947 960 1523 429 
Q 1837 141 2317 141 
Q 2816 141 3142 448 
Q 3674 960 3674 2157 
z
" transform="scale(0.015625)"/>
      <path id="STIXGeneral-Regular-43" d="M 3930 838 
L 4051 723 
Q 3482 -90 2304 -90 
Q 1376 -90 794 480 
Q 179 1082 179 2080 
Q 179 3014 755 3661 
Q 1357 4326 2310 4326 
Q 2720 4326 3072 4230 
Q 3475 4115 3514 4115 
Q 3725 4115 3782 4326 
L 3910 4326 
L 3968 2874 
L 3821 2874 
Q 3718 3334 3488 3584 
Q 3034 4070 2458 4070 
Q 1747 4070 1334 3548 
Q 922 3027 922 2182 
Q 922 1152 1382 653 
Q 1811 192 2522 192 
Q 2944 192 3251 339 
Q 3558 486 3930 838 
z
" transform="scale(0.015625)"/>
      <path id="STIXGeneral-Regular-68" d="M 3117 0 
L 1760 0 
L 1760 96 
Q 2042 128 2118 224 
Q 2195 320 2195 653 
L 2195 1920 
Q 2195 2598 1722 2598 
Q 1530 2598 1370 2508 
Q 1210 2419 1005 2195 
L 1005 653 
Q 1005 320 1081 224 
Q 1158 128 1440 96 
L 1440 0 
L 58 0 
L 58 96 
Q 333 134 400 224 
Q 467 314 467 653 
L 467 3667 
Q 467 3872 406 3933 
Q 346 3994 141 3994 
Q 83 3994 64 3987 
L 64 4090 
L 237 4141 
Q 730 4288 973 4371 
L 1005 4352 
L 1005 2406 
Q 1229 2694 1446 2819 
Q 1664 2944 1946 2944 
Q 2733 2944 2733 1926 
L 2733 653 
Q 2733 320 2793 233 
Q 2854 147 3117 96 
L 3117 0 
z
" transform="scale(0.015625)"/>
      <path id="STIXGeneral-Regular-44" d="M 102 4237 
L 1830 4237 
Q 3078 4237 3750 3654 
Q 4384 3110 4384 2138 
Q 4384 966 3514 410 
Q 2880 0 1901 0 
L 102 0 
L 102 122 
Q 474 147 570 252 
Q 666 358 666 736 
L 666 3520 
Q 666 3891 570 3990 
Q 474 4090 102 4115 
L 102 4237 
z
M 1318 3731 
L 1318 538 
Q 1318 365 1379 301 
Q 1440 237 1626 237 
Q 2125 237 2432 307 
Q 2739 378 3021 570 
Q 3686 1018 3686 2099 
Q 3686 3027 3078 3558 
Q 2803 3802 2476 3901 
Q 2150 4000 1658 4000 
Q 1472 4000 1395 3942 
Q 1318 3885 1318 3731 
z
" transform="scale(0.015625)"/>
      <path id="STIXGeneral-Regular-76" d="M 3053 2880 
L 3053 2784 
Q 2906 2771 2835 2688 
Q 2765 2605 2637 2285 
L 1818 230 
Q 1690 -90 1638 -90 
Q 1587 -90 1523 77 
Q 1510 96 1497 141 
Q 1485 186 1472 211 
L 704 2048 
Q 499 2534 403 2652 
Q 307 2771 122 2784 
L 122 2880 
L 1376 2880 
L 1376 2784 
Q 1210 2771 1146 2732 
Q 1082 2694 1082 2611 
Q 1082 2509 1139 2368 
L 1792 730 
L 2426 2387 
Q 2464 2483 2464 2579 
Q 2464 2758 2163 2784 
L 2163 2880 
L 3053 2880 
z
" transform="scale(0.015625)"/>
      <path id="STIXGeneral-Regular-28" d="M 1946 -1030 
L 1869 -1133 
Q 1126 -710 716 32 
Q 307 774 307 1613 
Q 307 3386 1888 4326 
L 1946 4224 
Q 1293 3667 1075 3126 
Q 858 2586 858 1632 
Q 858 685 1082 96 
Q 1306 -493 1946 -1030 
z
" transform="scale(0.015625)"/>
      <path id="Cmmi10-6e" d="M 494 109 
Q 494 147 500 166 
L 978 2075 
Q 1025 2253 1025 2388 
Q 1025 2663 838 2663 
Q 638 2663 541 2423 
Q 444 2184 353 1819 
Q 353 1800 334 1789 
Q 316 1778 300 1778 
L 225 1778 
Q 203 1778 187 1801 
Q 172 1825 172 1844 
Q 241 2122 305 2315 
Q 369 2509 505 2668 
Q 641 2828 844 2828 
Q 1084 2828 1268 2676 
Q 1453 2525 1453 2291 
Q 1644 2541 1900 2684 
Q 2156 2828 2444 2828 
Q 2672 2828 2837 2750 
Q 3003 2672 3095 2514 
Q 3188 2356 3188 2138 
Q 3188 1875 3070 1503 
Q 2953 1131 2778 672 
Q 2688 463 2688 288 
Q 2688 97 2834 97 
Q 3084 97 3251 365 
Q 3419 634 3488 941 
Q 3500 978 3541 978 
L 3616 978 
Q 3641 978 3658 962 
Q 3675 947 3675 922 
Q 3675 916 3669 903 
Q 3581 541 3364 234 
Q 3147 -72 2822 -72 
Q 2597 -72 2437 83 
Q 2278 238 2278 459 
Q 2278 578 2328 709 
Q 2409 919 2514 1209 
Q 2619 1500 2686 1765 
Q 2753 2031 2753 2234 
Q 2753 2413 2679 2538 
Q 2606 2663 2431 2663 
Q 2197 2663 2000 2559 
Q 1803 2456 1656 2286 
Q 1509 2116 1388 1881 
L 953 141 
Q 931 53 854 -9 
Q 778 -72 684 -72 
Q 606 -72 550 -22 
Q 494 28 494 109 
z
" transform="scale(0.015625)"/>
      <path id="Cmr10-3d" d="M 481 850 
Q 428 850 393 890 
Q 359 931 359 978 
Q 359 1031 393 1068 
Q 428 1106 481 1106 
L 4500 1106 
Q 4547 1106 4581 1068 
Q 4616 1031 4616 978 
Q 4616 931 4581 890 
Q 4547 850 4500 850 
L 481 850 
z
M 481 2094 
Q 428 2094 393 2131 
Q 359 2169 359 2222 
Q 359 2269 393 2309 
Q 428 2350 481 2350 
L 4500 2350 
Q 4547 2350 4581 2309 
Q 4616 2269 4616 2222 
Q 4616 2169 4581 2131 
Q 4547 2094 4500 2094 
L 481 2094 
z
" transform="scale(0.015625)"/>
      <path id="Cmr10-30" d="M 1600 -141 
Q 816 -141 533 504 
Q 250 1150 250 2041 
Q 250 2597 351 3087 
Q 453 3578 754 3920 
Q 1056 4263 1600 4263 
Q 2022 4263 2290 4056 
Q 2559 3850 2700 3523 
Q 2841 3197 2892 2823 
Q 2944 2450 2944 2041 
Q 2944 1491 2842 1011 
Q 2741 531 2444 195 
Q 2147 -141 1600 -141 
z
M 1600 25 
Q 1956 25 2131 390 
Q 2306 756 2347 1200 
Q 2388 1644 2388 2144 
Q 2388 2625 2347 3031 
Q 2306 3438 2132 3767 
Q 1959 4097 1600 4097 
Q 1238 4097 1063 3765 
Q 888 3434 847 3029 
Q 806 2625 806 2144 
Q 806 1788 823 1472 
Q 841 1156 916 820 
Q 991 484 1158 254 
Q 1325 25 1600 25 
z
" transform="scale(0.015625)"/>
      <path id="Cmex10-ae" d="M 500 -7297 
Q 500 -7263 513 -7250 
L 2119 -3584 
L 513 84 
Q 500 97 500 128 
Q 500 175 537 215 
Q 575 256 628 256 
Q 703 256 750 178 
L 2381 -3541 
Q 2388 -3553 2388 -3584 
Q 2388 -3616 2381 -3634 
L 750 -7347 
Q 700 -7425 628 -7425 
Q 575 -7425 537 -7384 
Q 500 -7344 500 -7297 
z
" transform="scale(0.015625)"/>
      <path id="STIXGeneral-Regular-2c" d="M 531 -902 
L 467 -781 
Q 998 -422 998 -96 
Q 998 -13 909 -13 
Q 883 -13 822 -25 
Q 762 -38 723 -38 
Q 352 -38 352 288 
Q 352 454 457 553 
Q 563 653 736 653 
Q 954 653 1101 496 
Q 1248 339 1248 96 
Q 1248 -198 1053 -473 
Q 858 -749 531 -902 
z
" transform="scale(0.015625)"/>
      <path id="Cmmi10-55" d="M 941 891 
Q 941 656 1033 472 
Q 1125 288 1300 186 
Q 1475 84 1709 84 
Q 1984 84 2245 196 
Q 2506 309 2715 509 
Q 2925 709 3073 965 
Q 3222 1222 3284 1472 
L 3859 3781 
Q 3872 3850 3872 3878 
Q 3872 4147 3378 4147 
Q 3316 4147 3316 4231 
Q 3338 4313 3350 4342 
Q 3363 4372 3425 4372 
L 4813 4372 
Q 4841 4372 4859 4344 
Q 4878 4316 4878 4288 
Q 4878 4284 4865 4239 
Q 4853 4194 4836 4170 
Q 4819 4147 4794 4147 
Q 4181 4147 4084 3756 
L 3506 1447 
Q 3434 1147 3264 864 
Q 3094 581 2845 351 
Q 2597 122 2298 -9 
Q 2000 -141 1691 -141 
Q 1338 -141 1045 14 
Q 753 169 587 447 
Q 422 725 422 1088 
Q 422 1297 469 1472 
L 1088 3956 
Q 1100 4019 1100 4044 
Q 1100 4113 1025 4122 
Q 903 4147 563 4147 
Q 500 4147 500 4231 
Q 522 4313 534 4342 
Q 547 4372 609 4372 
L 2328 4372 
Q 2394 4372 2394 4288 
Q 2391 4272 2381 4234 
Q 2372 4197 2356 4172 
Q 2341 4147 2309 4147 
Q 1919 4147 1766 4103 
Q 1681 4072 1644 3928 
L 1025 1447 
Q 941 1109 941 891 
z
" transform="scale(0.015625)"/>
      <path id="Cmmi10-b0" d="M 1888 -1253 
Q 1888 -1109 1952 -834 
Q 2016 -559 2108 -248 
Q 2200 63 2266 263 
Q 2291 581 2291 744 
Q 2291 1156 2209 1511 
Q 2128 1866 1903 2105 
Q 1678 2344 1275 2344 
Q 1063 2344 852 2253 
Q 641 2163 489 2000 
Q 338 1838 281 1631 
Q 269 1594 231 1594 
L 153 1594 
Q 103 1594 103 1650 
L 103 1672 
Q 175 1959 358 2226 
Q 541 2494 805 2661 
Q 1069 2828 1363 2828 
Q 1663 2828 1881 2625 
Q 2100 2422 2231 2109 
Q 2363 1797 2420 1478 
Q 2478 1159 2478 878 
Q 2800 1753 3200 2534 
L 3297 2741 
Q 3316 2759 3341 2759 
L 3419 2759 
Q 3469 2759 3469 2700 
Q 3469 2688 3456 2663 
L 3359 2463 
Q 3081 1909 2848 1340 
Q 2616 772 2450 244 
Q 2425 28 2354 -347 
Q 2284 -722 2184 -1045 
Q 2084 -1369 1984 -1381 
Q 1888 -1381 1888 -1253 
z
" transform="scale(0.015625)"/>
      <path id="STIXGeneral-Regular-29" d="M 186 4224 
L 262 4326 
Q 992 3891 1408 3148 
Q 1824 2406 1824 1581 
Q 1824 -166 243 -1133 
L 186 -1030 
Q 845 -486 1059 54 
Q 1274 595 1274 1562 
Q 1274 2534 1059 3120 
Q 845 3706 186 4224 
z
" transform="scale(0.015625)"/>
     </defs>
     <use xlink:href="#STIXGeneral-Regular-46" transform="translate(0 0.658854)"/>
     <use xlink:href="#STIXGeneral-Regular-69" transform="translate(55.599991 0.658854)"/>
     <use xlink:href="#STIXGeneral-Regular-72" transform="translate(83.399979 0.658854)"/>
     <use xlink:href="#STIXGeneral-Regular-73" transform="translate(116.699966 0.658854)"/>
     <use xlink:href="#STIXGeneral-Regular-74" transform="translate(155.59996 0.658854)"/>
     <use xlink:href="#STIXGeneral-Regular-2d" transform="translate(183.399948 0.658854)"/>
     <use xlink:href="#STIXGeneral-Regular-4f" transform="translate(216.699936 0.658854)"/>
     <use xlink:href="#STIXGeneral-Regular-72" transform="translate(288.899918 0.658854)"/>
     <use xlink:href="#STIXGeneral-Regular-64" transform="translate(322.199905 0.658854)"/>
     <use xlink:href="#STIXGeneral-Regular-65" transform="translate(372.19989 0.658854)"/>
     <use xlink:href="#STIXGeneral-Regular-72" transform="translate(416.599884 0.658854)"/>
     <use xlink:href="#STIXGeneral-Regular-20" transform="translate(449.899872 0.658854)"/>
     <use xlink:href="#STIXGeneral-Regular-43" transform="translate(474.899857 0.658854)"/>
     <use xlink:href="#STIXGeneral-Regular-6f" transform="translate(541.599854 0.658854)"/>
     <use xlink:href="#STIXGeneral-Regular-68" transform="translate(591.599838 0.658854)"/>
     <use xlink:href="#STIXGeneral-Regular-65" transform="translate(641.599823 0.658854)"/>
     <use xlink:href="#STIXGeneral-Regular-72" transform="translate(685.999817 0.658854)"/>
     <use xlink:href="#STIXGeneral-Regular-65" transform="translate(719.299805 0.658854)"/>
     <use xlink:href="#STIXGeneral-Regular-6e" transform="translate(763.699799 0.658854)"/>
     <use xlink:href="#STIXGeneral-Regular-63" transform="translate(813.699783 0.658854)"/>
     <use xlink:href="#STIXGeneral-Regular-65" transform="translate(858.099777 0.658854)"/>
     <use xlink:href="#STIXGeneral-Regular-20" transform="translate(902.499771 0.658854)"/>
     <use xlink:href="#STIXGeneral-Regular-44" transform="translate(927.499756 0.658854)"/>
     <use xlink:href="#STIXGeneral-Regular-69" transform="translate(999.699738 0.658854)"/>
     <use xlink:href="#STIXGeneral-Regular-66" transform="translate(1027.499725 0.658854)"/>
     <use xlink:href="#STIXGeneral-Regular-66" transform="translate(1060.799713 0.658854)"/>
     <use xlink:href="#STIXGeneral-Regular-65" transform="translate(1094.099701 0.658854)"/>
     <use xlink:href="#STIXGeneral-Regular-72" transform="translate(1138.499695 0.658854)"/>
     <use xlink:href="#STIXGeneral-Regular-65" transform="translate(1171.799683 0.658854)"/>
     <use xlink:href="#STIXGeneral-Regular-6e" transform="translate(1216.199677 0.658854)"/>
     <use xlink:href="#STIXGeneral-Regular-63" transform="translate(1266.199661 0.658854)"/>
     <use xlink:href="#STIXGeneral-Regular-65" transform="translate(1310.599655 0.658854)"/>
     <use xlink:href="#STIXGeneral-Regular-20" transform="translate(1354.999649 0.658854)"/>
     <use xlink:href="#Cmsy10-6a" transform="translate(1379.999634 0.658854)"/>
     <use xlink:href="#Cmmi10-67" transform="translate(1407.685181 0.658854)"/>
     <use xlink:href="#Cmr10-31" transform="translate(1455.390259 -16.347396) scale(0.7)"/>
     <use xlink:href="#Cmsy10-6a" transform="translate(1496.767603 0.658854)"/>
     <use xlink:href="#STIXGeneral-Regular-20" transform="translate(1524.453149 0.658854)"/>
     <use xlink:href="#STIXGeneral-Regular-76" transform="translate(1549.453134 0.658854)"/>
     <use xlink:href="#STIXGeneral-Regular-73" transform="translate(1599.453119 0.658854)"/>
     <use xlink:href="#STIXGeneral-Regular-20" transform="translate(1638.353113 0.658854)"/>
     <use xlink:href="#STIXGeneral-Regular-54" transform="translate(1663.353098 0.658854)"/>
     <use xlink:href="#STIXGeneral-Regular-69" transform="translate(1724.453088 0.658854)"/>
     <use xlink:href="#STIXGeneral-Regular-6d" transform="translate(1752.253076 0.658854)"/>
     <use xlink:href="#STIXGeneral-Regular-65" transform="translate(1830.053064 0.658854)"/>
     <use xlink:href="#STIXGeneral-Regular-20" transform="translate(1874.453058 0.658854)"/>
     <use xlink:href="#STIXGeneral-Regular-28" transform="translate(1899.453043 0.658854)"/>
     <use xlink:href="#Cmsy10-6a" transform="translate(1932.75303 0.658854)"/>
     <use xlink:href="#Cmmi10-6e" transform="translate(1960.438577 0.658854)"/>
     <use xlink:href="#Cmr10-3d" transform="translate(2038.006937 0.658854)"/>
     <use xlink:href="#Cmr10-31" transform="translate(2133.251077 0.658854)"/>
     <use xlink:href="#Cmr10-30" transform="translate(2183.251077 0.658854)"/>
     <use xlink:href="#Cmex10-ae" transform="translate(2233.251077 94)"/>
     <use xlink:href="#STIXGeneral-Regular-2c" transform="translate(2280.467874 0.658854)"/>
     <use xlink:href="#STIXGeneral-Regular-20" transform="translate(2305.467859 0.658854)"/>
     <use xlink:href="#Cmmi10-55" transform="translate(2330.467844 0.658854)"/>
     <use xlink:href="#Cmr10-3d" transform="translate(2416.239328 0.658854)"/>
     <use xlink:href="#Cmr10-31" transform="translate(2511.483469 0.658854)"/>
     <use xlink:href="#STIXGeneral-Regular-2c" transform="translate(2561.483469 0.658854)"/>
     <use xlink:href="#STIXGeneral-Regular-20" transform="translate(2586.483453 0.658854)"/>
     <use xlink:href="#Cmmi10-b0" transform="translate(2611.483438 0.658854)"/>
     <use xlink:href="#Cmr10-3d" transform="translate(2680.751016 0.658854)"/>
     <use xlink:href="#Cmr10-31" transform="translate(2775.995157 0.658854)"/>
     <use xlink:href="#STIXGeneral-Regular-29" transform="translate(2825.995157 0.658854)"/>
    </g>
   </g>
   <g id="line2d_156">
    <path d="M 65.122727 311.659625 
L 445.577273 311.659625 
L 445.577273 311.659625 
" clip-path="url(#pb9418ca21a)" style="fill: none; stroke: #1f77b4; stroke-width: 2.6; stroke-linecap: square"/>
   </g>
   <g id="legend_1">
    <g id="line2d_157">
     <path d="M 56 50.225625 
L 67 50.225625 
L 78 50.225625 
" style="fill: none; stroke: #1f77b4; stroke-width: 2.6; stroke-linecap: square"/>
    </g>
    <g id="text_19">
     <!-- Density Matrix -->
     <g transform="translate(86.8 54.075625) scale(0.11 -0.11)">
      <defs>
       <path id="STIXGeneral-Regular-79" d="M 3040 2880 
L 3040 2784 
Q 2925 2771 2854 2700 
Q 2784 2630 2720 2458 
L 1760 -160 
Q 1510 -838 1257 -1116 
Q 1005 -1395 640 -1395 
Q 435 -1395 313 -1289 
Q 192 -1184 192 -1024 
Q 192 -902 272 -816 
Q 352 -730 467 -730 
Q 653 -730 800 -813 
Q 883 -858 966 -858 
Q 1101 -858 1286 -576 
Q 1376 -448 1459 -211 
Q 1542 26 1542 115 
Q 1542 198 1274 762 
L 429 2566 
Q 346 2752 90 2790 
L 90 2880 
L 1402 2880 
L 1402 2784 
Q 1197 2778 1117 2739 
Q 1037 2701 1037 2611 
Q 1037 2541 1120 2349 
L 1837 749 
L 2458 2515 
Q 2483 2573 2483 2630 
Q 2483 2784 2189 2784 
L 2189 2880 
L 3040 2880 
z
" transform="scale(0.015625)"/>
       <path id="STIXGeneral-Regular-4d" d="M 5530 0 
L 3738 0 
L 3738 122 
Q 4115 147 4214 265 
Q 4314 384 4314 787 
L 4314 3661 
L 2682 0 
L 2592 0 
L 979 3514 
L 979 966 
Q 979 448 1088 294 
Q 1197 141 1574 122 
L 1574 0 
L 77 0 
L 77 122 
Q 358 141 480 205 
Q 602 269 650 432 
Q 698 595 698 966 
L 698 3514 
Q 698 3878 589 3984 
Q 480 4090 90 4115 
L 90 4237 
L 1357 4237 
L 2835 1024 
L 4250 4237 
L 5523 4237 
L 5523 4115 
Q 5178 4109 5072 3993 
Q 4966 3878 4966 3520 
L 4966 717 
Q 4966 378 5072 262 
Q 5178 147 5530 122 
L 5530 0 
z
" transform="scale(0.015625)"/>
      </defs>
      <use xlink:href="#STIXGeneral-Regular-44"/>
      <use xlink:href="#STIXGeneral-Regular-65" transform="translate(72.199982 0)"/>
      <use xlink:href="#STIXGeneral-Regular-6e" transform="translate(116.599976 0)"/>
      <use xlink:href="#STIXGeneral-Regular-73" transform="translate(166.59996 0)"/>
      <use xlink:href="#STIXGeneral-Regular-69" transform="translate(205.499954 0)"/>
      <use xlink:href="#STIXGeneral-Regular-74" transform="translate(233.299942 0)"/>
      <use xlink:href="#STIXGeneral-Regular-79" transform="translate(261.09993 0)"/>
      <use xlink:href="#STIXGeneral-Regular-20" transform="translate(311.099915 0)"/>
      <use xlink:href="#STIXGeneral-Regular-4d" transform="translate(336.099899 0)"/>
      <use xlink:href="#STIXGeneral-Regular-61" transform="translate(424.999893 0)"/>
      <use xlink:href="#STIXGeneral-Regular-74" transform="translate(469.399887 0)"/>
      <use xlink:href="#STIXGeneral-Regular-72" transform="translate(497.199875 0)"/>
      <use xlink:href="#STIXGeneral-Regular-69" transform="translate(530.499863 0)"/>
      <use xlink:href="#STIXGeneral-Regular-78" transform="translate(558.29985 0)"/>
     </g>
    </g>
    <g id="line2d_158">
     <path d="M 56 65.823281 
L 67 65.823281 
L 78 65.823281 
" style="fill: none; stroke: #ff7f0e; stroke-width: 2.5; stroke-linecap: square"/>
    </g>
    <g id="text_20">
     <!-- Monte Carlo -->
     <g transform="translate(86.8 69.673281) scale(0.11 -0.11)">
      <defs>
       <path id="STIXGeneral-Regular-6c" d="M 1645 0 
L 134 0 
L 134 96 
Q 435 122 531 221 
Q 627 320 627 589 
L 627 3590 
Q 627 3821 569 3910 
Q 512 4000 358 4000 
Q 224 4000 122 3987 
L 122 4090 
Q 730 4237 1133 4371 
L 1165 4346 
L 1165 557 
Q 1165 288 1254 201 
Q 1344 115 1645 96 
L 1645 0 
z
" transform="scale(0.015625)"/>
      </defs>
      <use xlink:href="#STIXGeneral-Regular-4d"/>
      <use xlink:href="#STIXGeneral-Regular-6f" transform="translate(88.899994 0)"/>
      <use xlink:href="#STIXGeneral-Regular-6e" transform="translate(138.899979 0)"/>
      <use xlink:href="#STIXGeneral-Regular-74" transform="translate(188.899963 0)"/>
      <use xlink:href="#STIXGeneral-Regular-65" transform="translate(216.699951 0)"/>
      <use xlink:href="#STIXGeneral-Regular-20" transform="translate(261.099945 0)"/>
      <use xlink:href="#STIXGeneral-Regular-43" transform="translate(286.09993 0)"/>
      <use xlink:href="#STIXGeneral-Regular-61" transform="translate(352.799927 0)"/>
      <use xlink:href="#STIXGeneral-Regular-72" transform="translate(397.199921 0)"/>
      <use xlink:href="#STIXGeneral-Regular-6c" transform="translate(430.499908 0)"/>
      <use xlink:href="#STIXGeneral-Regular-6f" transform="translate(458.299896 0)"/>
     </g>
    </g>
    <g id="line2d_159">
     <path d="M 56 81.410625 
L 67 81.410625 
L 78 81.410625 
" style="fill: none; stroke: #2ca02c; stroke-width: 2.7; stroke-linecap: square"/>
    </g>
    <g id="text_21">
     <!-- Positive-P -->
     <g transform="translate(86.8 85.260625) scale(0.11 -0.11)">
      <defs>
       <path id="STIXGeneral-Regular-50" d="M 102 4237 
L 1760 4237 
Q 2669 4237 3149 3834 
Q 3469 3565 3469 3072 
Q 3469 2560 3104 2234 
Q 2835 1990 2553 1916 
Q 2272 1843 1734 1843 
Q 1549 1843 1293 1862 
L 1293 717 
Q 1293 352 1398 246 
Q 1504 141 1894 122 
L 1894 0 
L 102 0 
L 102 122 
Q 474 147 557 256 
Q 640 365 640 781 
L 640 3526 
Q 640 3885 547 3987 
Q 454 4090 102 4115 
L 102 4237 
z
M 1293 3770 
L 1293 2118 
Q 1510 2099 1683 2099 
Q 2202 2099 2486 2352 
Q 2771 2605 2771 3040 
Q 2771 3558 2476 3779 
Q 2182 4000 1517 4000 
Q 1382 4000 1337 3952 
Q 1293 3904 1293 3770 
z
" transform="scale(0.015625)"/>
      </defs>
      <use xlink:href="#STIXGeneral-Regular-50"/>
      <use xlink:href="#STIXGeneral-Regular-6f" transform="translate(55.699997 0)"/>
      <use xlink:href="#STIXGeneral-Regular-73" transform="translate(105.699982 0)"/>
      <use xlink:href="#STIXGeneral-Regular-69" transform="translate(144.599976 0)"/>
      <use xlink:href="#STIXGeneral-Regular-74" transform="translate(172.399963 0)"/>
      <use xlink:href="#STIXGeneral-Regular-69" transform="translate(200.199951 0)"/>
      <use xlink:href="#STIXGeneral-Regular-76" transform="translate(227.999939 0)"/>
      <use xlink:href="#STIXGeneral-Regular-65" transform="translate(277.999924 0)"/>
      <use xlink:href="#STIXGeneral-Regular-2d" transform="translate(322.399918 0)"/>
      <use xlink:href="#STIXGeneral-Regular-50" transform="translate(355.699905 0)"/>
     </g>
    </g>
   </g>
  </g>
 </g>
 <defs>
  <clipPath id="pb9418ca21a">
   <rect x="46.1" y="36.475625" width="418.5" height="288.288"/>
  </clipPath>
 </defs>
</svg>
