<?xml version="1.0" encoding="utf-8" standalone="no"?>
<!DOCTYPE svg PUBLIC "-//W3C//DTD SVG 1.1//EN"
  "http://www.w3.org/Graphics/SVG/1.1/DTD/svg11.dtd">
<svg xmlns:xlink="http://www.w3.org/1999/xlink" width="486.35pt" height="360.663625pt" viewBox="0 0 486.35 360.663625" xmlns="http://www.w3.org/2000/svg" version="1.1">
 <metadata>
  <rdf:RDF xmlns:dc="http://purl.org/dc/elements/1.1/" xmlns:cc="http://creativecommons.org/ns#" xmlns:rdf="http://www.w3.org/1999/02/22-rdf-syntax-ns#">
   <cc:Work>
    <dc:type rdf:resource="http://purl.org/dc/dcmitype/StillImage"/>
    <dc:date>2026-04-24T08:32:54.746818</dc:date>
    <dc:format>image/svg+xml</dc:format>
    <dc:creator>
     <cc:Agent>
      <dc:title>Matplotlib v3.10.8, https://matplotlib.org/</dc:title>
     </cc:Agent>
    </dc:creator>
   </cc:Work>
  </rdf:RDF>
 </metadata>
 <defs>
  <style type="text/css">*{stroke-linejoin: round; stroke-linecap: butt}</style>
 </defs>
 <g id="figure_1">
  <g id="patch_1">
   <path d="M 0 360.663625 
L 486.35 360.663625 
L 486.35 0 
L 0 0 
z
" style="fill: #ffffff"/>
  </g>
  <g id="axes_1">
   <g id="patch_2">
    <path d="M 48.38 324.763625 
L 466.88 324.763625 
L 466.88 36.475625 
L 48.38 36.475625 
z
" style="fill: #ffffff"/>
   </g>
   <g id="matplotlib.axis_1">
    <g id="xtick_1">
     <g id="line2d_1">
      <path d="M 67.402727 324.763625 
L 67.402727 36.475625 
" clip-path="url(#p97b3527758)" style="fill: none; stroke: #b0b0b0; stroke-opacity: 0.35; stroke-width: 0.5; stroke-linecap: square"/>
     </g>
     <g id="line2d_2">
      <defs>
       <path id="ma73e4867d6" d="M 0 0 
L 0 -3 
" style="stroke: #000000; stroke-width: 0.5"/>
      </defs>
      <g>
       <use xlink:href="#ma73e4867d6" x="67.402727" y="324.763625" style="stroke: #000000; stroke-width: 0.5"/>
      </g>
     </g>
     <g id="line2d_3">
      <defs>
       <path id="m790b163fbe" d="M 0 0 
L 0 3 
" style="stroke: #000000; stroke-width: 0.5"/>
      </defs>
      <g>
       <use xlink:href="#m790b163fbe" x="67.402727" y="36.475625" style="stroke: #000000; stroke-width: 0.5"/>
      </g>
     </g>
     <g id="text_1">
      <!-- $\mathdefault{0}$ -->
      <g transform="translate(64.402727 336.45925) scale(0.12 -0.12)">
       <defs>
        <path id="STIXGeneral-Regular-30" d="M 3046 2112 
Q 3046 1683 2963 1302 
Q 2880 922 2717 602 
Q 2554 282 2266 96 
Q 1978 -90 1600 -90 
Q 1210 -90 915 108 
Q 621 307 461 640 
Q 301 973 227 1350 
Q 154 1728 154 2150 
Q 154 2746 301 3222 
Q 448 3699 790 4012 
Q 1133 4326 1626 4326 
Q 2253 4326 2649 3712 
Q 3046 3098 3046 2112 
z
M 2432 2080 
Q 2432 3091 2217 3625 
Q 2003 4160 1587 4160 
Q 1190 4160 979 3622 
Q 768 3085 768 2106 
Q 768 1120 979 598 
Q 1190 77 1600 77 
Q 2003 77 2217 598 
Q 2432 1120 2432 2080 
z
" transform="scale(0.015625)"/>
       </defs>
       <use xlink:href="#STIXGeneral-Regular-30" transform="translate(0 0.40625)"/>
      </g>
     </g>
    </g>
    <g id="xtick_2">
     <g id="line2d_4">
      <path d="M 143.493636 324.763625 
L 143.493636 36.475625 
" clip-path="url(#p97b3527758)" style="fill: none; stroke: #b0b0b0; stroke-opacity: 0.35; stroke-width: 0.5; stroke-linecap: square"/>
     </g>
     <g id="line2d_5">
      <g>
       <use xlink:href="#ma73e4867d6" x="143.493636" y="324.763625" style="stroke: #000000; stroke-width: 0.5"/>
      </g>
     </g>
     <g id="line2d_6">
      <g>
       <use xlink:href="#m790b163fbe" x="143.493636" y="36.475625" style="stroke: #000000; stroke-width: 0.5"/>
      </g>
     </g>
     <g id="text_2">
      <!-- $\mathdefault{1}$ -->
      <g transform="translate(140.493636 336.45925) scale(0.12 -0.12)">
       <defs>
        <path id="STIXGeneral-Regular-31" d="M 2522 0 
L 755 0 
L 755 96 
Q 1107 115 1235 227 
Q 1363 339 1363 608 
L 1363 3482 
Q 1363 3795 1171 3795 
Q 1082 3795 883 3718 
L 710 3654 
L 710 3744 
L 1856 4326 
L 1914 4307 
L 1914 486 
Q 1914 275 2042 185 
Q 2170 96 2522 96 
L 2522 0 
z
" transform="scale(0.015625)"/>
       </defs>
       <use xlink:href="#STIXGeneral-Regular-31" transform="translate(0 0.40625)"/>
      </g>
     </g>
    </g>
    <g id="xtick_3">
     <g id="line2d_7">
      <path d="M 219.584545 324.763625 
L 219.584545 36.475625 
" clip-path="url(#p97b3527758)" style="fill: none; stroke: #b0b0b0; stroke-opacity: 0.35; stroke-width: 0.5; stroke-linecap: square"/>
     </g>
     <g id="line2d_8">
      <g>
       <use xlink:href="#ma73e4867d6" x="219.584545" y="324.763625" style="stroke: #000000; stroke-width: 0.5"/>
      </g>
     </g>
     <g id="line2d_9">
      <g>
       <use xlink:href="#m790b163fbe" x="219.584545" y="36.475625" style="stroke: #000000; stroke-width: 0.5"/>
      </g>
     </g>
     <g id="text_3">
      <!-- $\mathdefault{2}$ -->
      <g transform="translate(216.584545 336.45925) scale(0.12 -0.12)">
       <defs>
        <path id="STIXGeneral-Regular-32" d="M 3034 877 
L 2688 0 
L 186 0 
L 186 77 
L 1325 1286 
Q 1773 1754 1965 2144 
Q 2157 2534 2157 2950 
Q 2157 3379 1920 3616 
Q 1683 3853 1267 3853 
Q 922 3853 720 3673 
Q 518 3494 326 3021 
L 192 3053 
Q 301 3648 630 3987 
Q 960 4326 1523 4326 
Q 2054 4326 2380 4006 
Q 2707 3686 2707 3200 
Q 2707 2477 1888 1613 
L 832 486 
L 2330 486 
Q 2541 486 2665 569 
Q 2790 653 2944 915 
L 3034 877 
z
" transform="scale(0.015625)"/>
       </defs>
       <use xlink:href="#STIXGeneral-Regular-32" transform="translate(0 0.40625)"/>
      </g>
     </g>
    </g>
    <g id="xtick_4">
     <g id="line2d_10">
      <path d="M 295.675455 324.763625 
L 295.675455 36.475625 
" clip-path="url(#p97b3527758)" style="fill: none; stroke: #b0b0b0; stroke-opacity: 0.35; stroke-width: 0.5; stroke-linecap: square"/>
     </g>
     <g id="line2d_11">
      <g>
       <use xlink:href="#ma73e4867d6" x="295.675455" y="324.763625" style="stroke: #000000; stroke-width: 0.5"/>
      </g>
     </g>
     <g id="line2d_12">
      <g>
       <use xlink:href="#m790b163fbe" x="295.675455" y="36.475625" style="stroke: #000000; stroke-width: 0.5"/>
      </g>
     </g>
     <g id="text_4">
      <!-- $\mathdefault{3}$ -->
      <g transform="translate(292.675455 336.45925) scale(0.12 -0.12)">
       <defs>
        <path id="STIXGeneral-Regular-33" d="M 390 3264 
L 288 3290 
Q 435 3770 748 4048 
Q 1062 4326 1542 4326 
Q 1990 4326 2265 4083 
Q 2541 3840 2541 3450 
Q 2541 2925 1946 2566 
Q 2298 2413 2477 2227 
Q 2758 1914 2758 1402 
Q 2758 890 2464 506 
Q 2246 211 1840 60 
Q 1434 -90 979 -90 
Q 262 -90 262 275 
Q 262 378 339 442 
Q 416 506 525 506 
Q 685 506 915 339 
Q 1197 141 1466 141 
Q 1818 141 2058 425 
Q 2298 710 2298 1120 
Q 2298 1856 1632 2048 
Q 1434 2112 979 2112 
L 979 2202 
Q 1338 2323 1517 2432 
Q 2035 2726 2035 3290 
Q 2035 3610 1852 3776 
Q 1670 3942 1344 3942 
Q 768 3942 390 3264 
z
" transform="scale(0.015625)"/>
       </defs>
       <use xlink:href="#STIXGeneral-Regular-33" transform="translate(0 0.40625)"/>
      </g>
     </g>
    </g>
    <g id="xtick_5">
     <g id="line2d_13">
      <path d="M 371.766364 324.763625 
L 371.766364 36.475625 
" clip-path="url(#p97b3527758)" style="fill: none; stroke: #b0b0b0; stroke-opacity: 0.35; stroke-width: 0.5; stroke-linecap: square"/>
     </g>
     <g id="line2d_14">
      <g>
       <use xlink:href="#ma73e4867d6" x="371.766364" y="324.763625" style="stroke: #000000; stroke-width: 0.5"/>
      </g>
     </g>
     <g id="line2d_15">
      <g>
       <use xlink:href="#m790b163fbe" x="371.766364" y="36.475625" style="stroke: #000000; stroke-width: 0.5"/>
      </g>
     </g>
     <g id="text_5">
      <!-- $\mathdefault{4}$ -->
      <g transform="translate(368.766364 336.45925) scale(0.12 -0.12)">
       <defs>
        <path id="STIXGeneral-Regular-34" d="M 3027 1069 
L 2368 1069 
L 2368 0 
L 1869 0 
L 1869 1069 
L 77 1069 
L 77 1478 
L 2086 4326 
L 2368 4326 
L 2368 1478 
L 3027 1478 
L 3027 1069 
z
M 1869 1478 
L 1869 3674 
L 333 1478 
L 1869 1478 
z
" transform="scale(0.015625)"/>
       </defs>
       <use xlink:href="#STIXGeneral-Regular-34" transform="translate(0 0.40625)"/>
      </g>
     </g>
    </g>
    <g id="xtick_6">
     <g id="line2d_16">
      <path d="M 447.857273 324.763625 
L 447.857273 36.475625 
" clip-path="url(#p97b3527758)" style="fill: none; stroke: #b0b0b0; stroke-opacity: 0.35; stroke-width: 0.5; stroke-linecap: square"/>
     </g>
     <g id="line2d_17">
      <g>
       <use xlink:href="#ma73e4867d6" x="447.857273" y="324.763625" style="stroke: #000000; stroke-width: 0.5"/>
      </g>
     </g>
     <g id="line2d_18">
      <g>
       <use xlink:href="#m790b163fbe" x="447.857273" y="36.475625" style="stroke: #000000; stroke-width: 0.5"/>
      </g>
     </g>
     <g id="text_6">
      <!-- $\mathdefault{5}$ -->
      <g transform="translate(444.857273 336.45925) scale(0.12 -0.12)">
       <defs>
        <path id="STIXGeneral-Regular-35" d="M 2803 4358 
L 2573 3814 
Q 2534 3731 2400 3731 
L 1158 3731 
L 902 3187 
Q 1606 3053 1920 2896 
Q 2234 2739 2502 2368 
Q 2726 2061 2726 1555 
Q 2726 1094 2576 780 
Q 2426 467 2099 224 
Q 1664 -90 1011 -90 
Q 646 -90 422 19 
Q 198 128 198 307 
Q 198 550 486 550 
Q 717 550 960 352 
Q 1210 147 1414 147 
Q 1747 147 2012 480 
Q 2278 813 2278 1229 
Q 2278 1843 1850 2189 
Q 1293 2637 486 2637 
Q 410 2637 410 2688 
L 416 2720 
L 1114 4237 
L 2438 4237 
Q 2547 4237 2608 4269 
Q 2669 4301 2746 4403 
L 2803 4358 
z
" transform="scale(0.015625)"/>
       </defs>
       <use xlink:href="#STIXGeneral-Regular-35" transform="translate(0 0.203125)"/>
      </g>
     </g>
    </g>
    <g id="xtick_7">
     <g id="line2d_19">
      <defs>
       <path id="mf20febbbf3" d="M 0 0 
L 0 -1.5 
" style="stroke: #000000; stroke-width: 0.5"/>
      </defs>
      <g>
       <use xlink:href="#mf20febbbf3" x="52.184545" y="324.763625" style="stroke: #000000; stroke-width: 0.5"/>
      </g>
     </g>
     <g id="line2d_20">
      <defs>
       <path id="m5ab5002574" d="M 0 0 
L 0 1.5 
" style="stroke: #000000; stroke-width: 0.5"/>
      </defs>
      <g>
       <use xlink:href="#m5ab5002574" x="52.184545" y="36.475625" style="stroke: #000000; stroke-width: 0.5"/>
      </g>
     </g>
    </g>
    <g id="xtick_8">
     <g id="line2d_21">
      <g>
       <use xlink:href="#mf20febbbf3" x="82.620909" y="324.763625" style="stroke: #000000; stroke-width: 0.5"/>
      </g>
     </g>
     <g id="line2d_22">
      <g>
       <use xlink:href="#m5ab5002574" x="82.620909" y="36.475625" style="stroke: #000000; stroke-width: 0.5"/>
      </g>
     </g>
    </g>
    <g id="xtick_9">
     <g id="line2d_23">
      <g>
       <use xlink:href="#mf20febbbf3" x="97.839091" y="324.763625" style="stroke: #000000; stroke-width: 0.5"/>
      </g>
     </g>
     <g id="line2d_24">
      <g>
       <use xlink:href="#m5ab5002574" x="97.839091" y="36.475625" style="stroke: #000000; stroke-width: 0.5"/>
      </g>
     </g>
    </g>
    <g id="xtick_10">
     <g id="line2d_25">
      <g>
       <use xlink:href="#mf20febbbf3" x="113.057273" y="324.763625" style="stroke: #000000; stroke-width: 0.5"/>
      </g>
     </g>
     <g id="line2d_26">
      <g>
       <use xlink:href="#m5ab5002574" x="113.057273" y="36.475625" style="stroke: #000000; stroke-width: 0.5"/>
      </g>
     </g>
    </g>
    <g id="xtick_11">
     <g id="line2d_27">
      <g>
       <use xlink:href="#mf20febbbf3" x="128.275455" y="324.763625" style="stroke: #000000; stroke-width: 0.5"/>
      </g>
     </g>
     <g id="line2d_28">
      <g>
       <use xlink:href="#m5ab5002574" x="128.275455" y="36.475625" style="stroke: #000000; stroke-width: 0.5"/>
      </g>
     </g>
    </g>
    <g id="xtick_12">
     <g id="line2d_29">
      <g>
       <use xlink:href="#mf20febbbf3" x="158.711818" y="324.763625" style="stroke: #000000; stroke-width: 0.5"/>
      </g>
     </g>
     <g id="line2d_30">
      <g>
       <use xlink:href="#m5ab5002574" x="158.711818" y="36.475625" style="stroke: #000000; stroke-width: 0.5"/>
      </g>
     </g>
    </g>
    <g id="xtick_13">
     <g id="line2d_31">
      <g>
       <use xlink:href="#mf20febbbf3" x="173.93" y="324.763625" style="stroke: #000000; stroke-width: 0.5"/>
      </g>
     </g>
     <g id="line2d_32">
      <g>
       <use xlink:href="#m5ab5002574" x="173.93" y="36.475625" style="stroke: #000000; stroke-width: 0.5"/>
      </g>
     </g>
    </g>
    <g id="xtick_14">
     <g id="line2d_33">
      <g>
       <use xlink:href="#mf20febbbf3" x="189.148182" y="324.763625" style="stroke: #000000; stroke-width: 0.5"/>
      </g>
     </g>
     <g id="line2d_34">
      <g>
       <use xlink:href="#m5ab5002574" x="189.148182" y="36.475625" style="stroke: #000000; stroke-width: 0.5"/>
      </g>
     </g>
    </g>
    <g id="xtick_15">
     <g id="line2d_35">
      <g>
       <use xlink:href="#mf20febbbf3" x="204.366364" y="324.763625" style="stroke: #000000; stroke-width: 0.5"/>
      </g>
     </g>
     <g id="line2d_36">
      <g>
       <use xlink:href="#m5ab5002574" x="204.366364" y="36.475625" style="stroke: #000000; stroke-width: 0.5"/>
      </g>
     </g>
    </g>
    <g id="xtick_16">
     <g id="line2d_37">
      <g>
       <use xlink:href="#mf20febbbf3" x="234.802727" y="324.763625" style="stroke: #000000; stroke-width: 0.5"/>
      </g>
     </g>
     <g id="line2d_38">
      <g>
       <use xlink:href="#m5ab5002574" x="234.802727" y="36.475625" style="stroke: #000000; stroke-width: 0.5"/>
      </g>
     </g>
    </g>
    <g id="xtick_17">
     <g id="line2d_39">
      <g>
       <use xlink:href="#mf20febbbf3" x="250.020909" y="324.763625" style="stroke: #000000; stroke-width: 0.5"/>
      </g>
     </g>
     <g id="line2d_40">
      <g>
       <use xlink:href="#m5ab5002574" x="250.020909" y="36.475625" style="stroke: #000000; stroke-width: 0.5"/>
      </g>
     </g>
    </g>
    <g id="xtick_18">
     <g id="line2d_41">
      <g>
       <use xlink:href="#mf20febbbf3" x="265.239091" y="324.763625" style="stroke: #000000; stroke-width: 0.5"/>
      </g>
     </g>
     <g id="line2d_42">
      <g>
       <use xlink:href="#m5ab5002574" x="265.239091" y="36.475625" style="stroke: #000000; stroke-width: 0.5"/>
      </g>
     </g>
    </g>
    <g id="xtick_19">
     <g id="line2d_43">
      <g>
       <use xlink:href="#mf20febbbf3" x="280.457273" y="324.763625" style="stroke: #000000; stroke-width: 0.5"/>
      </g>
     </g>
     <g id="line2d_44">
      <g>
       <use xlink:href="#m5ab5002574" x="280.457273" y="36.475625" style="stroke: #000000; stroke-width: 0.5"/>
      </g>
     </g>
    </g>
    <g id="xtick_20">
     <g id="line2d_45">
      <g>
       <use xlink:href="#mf20febbbf3" x="310.893636" y="324.763625" style="stroke: #000000; stroke-width: 0.5"/>
      </g>
     </g>
     <g id="line2d_46">
      <g>
       <use xlink:href="#m5ab5002574" x="310.893636" y="36.475625" style="stroke: #000000; stroke-width: 0.5"/>
      </g>
     </g>
    </g>
    <g id="xtick_21">
     <g id="line2d_47">
      <g>
       <use xlink:href="#mf20febbbf3" x="326.111818" y="324.763625" style="stroke: #000000; stroke-width: 0.5"/>
      </g>
     </g>
     <g id="line2d_48">
      <g>
       <use xlink:href="#m5ab5002574" x="326.111818" y="36.475625" style="stroke: #000000; stroke-width: 0.5"/>
      </g>
     </g>
    </g>
    <g id="xtick_22">
     <g id="line2d_49">
      <g>
       <use xlink:href="#mf20febbbf3" x="341.33" y="324.763625" style="stroke: #000000; stroke-width: 0.5"/>
      </g>
     </g>
     <g id="line2d_50">
      <g>
       <use xlink:href="#m5ab5002574" x="341.33" y="36.475625" style="stroke: #000000; stroke-width: 0.5"/>
      </g>
     </g>
    </g>
    <g id="xtick_23">
     <g id="line2d_51">
      <g>
       <use xlink:href="#mf20febbbf3" x="356.548182" y="324.763625" style="stroke: #000000; stroke-width: 0.5"/>
      </g>
     </g>
     <g id="line2d_52">
      <g>
       <use xlink:href="#m5ab5002574" x="356.548182" y="36.475625" style="stroke: #000000; stroke-width: 0.5"/>
      </g>
     </g>
    </g>
    <g id="xtick_24">
     <g id="line2d_53">
      <g>
       <use xlink:href="#mf20febbbf3" x="386.984545" y="324.763625" style="stroke: #000000; stroke-width: 0.5"/>
      </g>
     </g>
     <g id="line2d_54">
      <g>
       <use xlink:href="#m5ab5002574" x="386.984545" y="36.475625" style="stroke: #000000; stroke-width: 0.5"/>
      </g>
     </g>
    </g>
    <g id="xtick_25">
     <g id="line2d_55">
      <g>
       <use xlink:href="#mf20febbbf3" x="402.202727" y="324.763625" style="stroke: #000000; stroke-width: 0.5"/>
      </g>
     </g>
     <g id="line2d_56">
      <g>
       <use xlink:href="#m5ab5002574" x="402.202727" y="36.475625" style="stroke: #000000; stroke-width: 0.5"/>
      </g>
     </g>
    </g>
    <g id="xtick_26">
     <g id="line2d_57">
      <g>
       <use xlink:href="#mf20febbbf3" x="417.420909" y="324.763625" style="stroke: #000000; stroke-width: 0.5"/>
      </g>
     </g>
     <g id="line2d_58">
      <g>
       <use xlink:href="#m5ab5002574" x="417.420909" y="36.475625" style="stroke: #000000; stroke-width: 0.5"/>
      </g>
     </g>
    </g>
    <g id="xtick_27">
     <g id="line2d_59">
      <g>
       <use xlink:href="#mf20febbbf3" x="432.639091" y="324.763625" style="stroke: #000000; stroke-width: 0.5"/>
      </g>
     </g>
     <g id="line2d_60">
      <g>
       <use xlink:href="#m5ab5002574" x="432.639091" y="36.475625" style="stroke: #000000; stroke-width: 0.5"/>
      </g>
     </g>
    </g>
    <g id="xtick_28">
     <g id="line2d_61">
      <g>
       <use xlink:href="#mf20febbbf3" x="463.075455" y="324.763625" style="stroke: #000000; stroke-width: 0.5"/>
      </g>
     </g>
     <g id="line2d_62">
      <g>
       <use xlink:href="#m5ab5002574" x="463.075455" y="36.475625" style="stroke: #000000; stroke-width: 0.5"/>
      </g>
     </g>
    </g>
    <g id="text_7">
     <!-- $t/\gamma$ -->
     <g transform="translate(247.97 353.563625) scale(0.14 -0.14)">
      <defs>
       <path id="Cmmi10-74" d="M 397 519 
Q 397 613 416 697 
L 878 2534 
L 206 2534 
Q 141 2534 141 2619 
Q 166 2759 225 2759 
L 934 2759 
L 1191 3803 
Q 1216 3888 1291 3947 
Q 1366 4006 1459 4006 
Q 1541 4006 1595 3957 
Q 1650 3909 1650 3828 
Q 1650 3809 1648 3798 
Q 1647 3788 1644 3775 
L 1388 2759 
L 2047 2759 
Q 2113 2759 2113 2675 
Q 2109 2659 2100 2621 
Q 2091 2584 2075 2559 
Q 2059 2534 2028 2534 
L 1331 2534 
L 872 684 
Q 825 503 825 372 
Q 825 97 1013 97 
Q 1294 97 1511 361 
Q 1728 625 1844 941 
Q 1869 978 1894 978 
L 1972 978 
Q 1997 978 2012 961 
Q 2028 944 2028 922 
Q 2028 909 2022 903 
Q 1881 516 1612 222 
Q 1344 -72 997 -72 
Q 744 -72 570 93 
Q 397 259 397 519 
z
" transform="scale(0.015625)"/>
       <path id="Cmmi10-3d" d="M 359 -1472 
Q 359 -1453 366 -1447 
L 2591 4722 
Q 2603 4759 2634 4779 
Q 2666 4800 2706 4800 
Q 2763 4800 2798 4765 
Q 2834 4731 2834 4672 
L 2834 4647 
L 609 -1522 
Q 572 -1600 488 -1600 
Q 434 -1600 396 -1562 
Q 359 -1525 359 -1472 
z
" transform="scale(0.015625)"/>
       <path id="Cmmi10-b0" d="M 1888 -1253 
Q 1888 -1109 1952 -834 
Q 2016 -559 2108 -248 
Q 2200 63 2266 263 
Q 2291 581 2291 744 
Q 2291 1156 2209 1511 
Q 2128 1866 1903 2105 
Q 1678 2344 1275 2344 
Q 1063 2344 852 2253 
Q 641 2163 489 2000 
Q 338 1838 281 1631 
Q 269 1594 231 1594 
L 153 1594 
Q 103 1594 103 1650 
L 103 1672 
Q 175 1959 358 2226 
Q 541 2494 805 2661 
Q 1069 2828 1363 2828 
Q 1663 2828 1881 2625 
Q 2100 2422 2231 2109 
Q 2363 1797 2420 1478 
Q 2478 1159 2478 878 
Q 2800 1753 3200 2534 
L 3297 2741 
Q 3316 2759 3341 2759 
L 3419 2759 
Q 3469 2759 3469 2700 
Q 3469 2688 3456 2663 
L 3359 2463 
Q 3081 1909 2848 1340 
Q 2616 772 2450 244 
Q 2425 28 2354 -347 
Q 2284 -722 2184 -1045 
Q 2084 -1369 1984 -1381 
Q 1888 -1381 1888 -1253 
z
" transform="scale(0.015625)"/>
      </defs>
      <use xlink:href="#Cmmi10-74"/>
      <use xlink:href="#Cmmi10-3d" transform="translate(36.083984 0)"/>
      <use xlink:href="#Cmmi10-b0" transform="translate(86.083984 0)"/>
     </g>
    </g>
   </g>
   <g id="matplotlib.axis_2">
    <g id="ytick_1">
     <g id="line2d_63">
      <path d="M 48.38 289.534642 
L 466.88 289.534642 
" clip-path="url(#p97b3527758)" style="fill: none; stroke: #b0b0b0; stroke-opacity: 0.35; stroke-width: 0.5; stroke-linecap: square"/>
     </g>
     <g id="line2d_64">
      <defs>
       <path id="m7cb6b82c89" d="M 0 0 
L 3 0 
" style="stroke: #000000; stroke-width: 0.5"/>
      </defs>
      <g>
       <use xlink:href="#m7cb6b82c89" x="48.38" y="289.534642" style="stroke: #000000; stroke-width: 0.5"/>
      </g>
     </g>
     <g id="line2d_65">
      <defs>
       <path id="m0094cd0404" d="M 0 0 
L -3 0 
" style="stroke: #000000; stroke-width: 0.5"/>
      </defs>
      <g>
       <use xlink:href="#m0094cd0404" x="466.88" y="289.534642" style="stroke: #000000; stroke-width: 0.5"/>
      </g>
     </g>
     <g id="text_8">
      <!-- $\mathdefault{−2.5}$ -->
      <g transform="translate(21.6 293.632455) scale(0.12 -0.12)">
       <defs>
        <path id="STIXGeneral-Regular-2212" d="M 3974 1408 
L 410 1408 
L 410 1830 
L 3974 1830 
L 3974 1408 
z
" transform="scale(0.015625)"/>
        <path id="STIXGeneral-Regular-2e" d="M 1158 275 
Q 1158 134 1052 32 
Q 947 -70 800 -70 
Q 653 -70 550 32 
Q 448 134 448 281 
Q 448 429 553 534 
Q 659 640 806 640 
Q 947 640 1052 531 
Q 1158 422 1158 275 
z
" transform="scale(0.015625)"/>
       </defs>
       <use xlink:href="#STIXGeneral-Regular-2212" transform="translate(0 0.203125)"/>
       <use xlink:href="#STIXGeneral-Regular-32" transform="translate(68.499985 0.203125)"/>
       <use xlink:href="#STIXGeneral-Regular-2e" transform="translate(118.499969 0.203125)"/>
       <use xlink:href="#STIXGeneral-Regular-35" transform="translate(143.499954 0.203125)"/>
      </g>
     </g>
    </g>
    <g id="ytick_2">
     <g id="line2d_66">
      <path d="M 48.38 241.543639 
L 466.88 241.543639 
" clip-path="url(#p97b3527758)" style="fill: none; stroke: #b0b0b0; stroke-opacity: 0.35; stroke-width: 0.5; stroke-linecap: square"/>
     </g>
     <g id="line2d_67">
      <g>
       <use xlink:href="#m7cb6b82c89" x="48.38" y="241.543639" style="stroke: #000000; stroke-width: 0.5"/>
      </g>
     </g>
     <g id="line2d_68">
      <g>
       <use xlink:href="#m0094cd0404" x="466.88" y="241.543639" style="stroke: #000000; stroke-width: 0.5"/>
      </g>
     </g>
     <g id="text_9">
      <!-- $\mathdefault{−2.0}$ -->
      <g transform="translate(21.6 245.641451) scale(0.12 -0.12)">
       <use xlink:href="#STIXGeneral-Regular-2212" transform="translate(0 0.40625)"/>
       <use xlink:href="#STIXGeneral-Regular-32" transform="translate(68.499985 0.40625)"/>
       <use xlink:href="#STIXGeneral-Regular-2e" transform="translate(118.499969 0.40625)"/>
       <use xlink:href="#STIXGeneral-Regular-30" transform="translate(143.499954 0.40625)"/>
      </g>
     </g>
    </g>
    <g id="ytick_3">
     <g id="line2d_69">
      <path d="M 48.38 193.552635 
L 466.88 193.552635 
" clip-path="url(#p97b3527758)" style="fill: none; stroke: #b0b0b0; stroke-opacity: 0.35; stroke-width: 0.5; stroke-linecap: square"/>
     </g>
     <g id="line2d_70">
      <g>
       <use xlink:href="#m7cb6b82c89" x="48.38" y="193.552635" style="stroke: #000000; stroke-width: 0.5"/>
      </g>
     </g>
     <g id="line2d_71">
      <g>
       <use xlink:href="#m0094cd0404" x="466.88" y="193.552635" style="stroke: #000000; stroke-width: 0.5"/>
      </g>
     </g>
     <g id="text_10">
      <!-- $\mathdefault{−1.5}$ -->
      <g transform="translate(21.6 197.650448) scale(0.12 -0.12)">
       <use xlink:href="#STIXGeneral-Regular-2212" transform="translate(0 0.203125)"/>
       <use xlink:href="#STIXGeneral-Regular-31" transform="translate(68.499985 0.203125)"/>
       <use xlink:href="#STIXGeneral-Regular-2e" transform="translate(118.499969 0.203125)"/>
       <use xlink:href="#STIXGeneral-Regular-35" transform="translate(143.499954 0.203125)"/>
      </g>
     </g>
    </g>
    <g id="ytick_4">
     <g id="line2d_72">
      <path d="M 48.38 145.561632 
L 466.88 145.561632 
" clip-path="url(#p97b3527758)" style="fill: none; stroke: #b0b0b0; stroke-opacity: 0.35; stroke-width: 0.5; stroke-linecap: square"/>
     </g>
     <g id="line2d_73">
      <g>
       <use xlink:href="#m7cb6b82c89" x="48.38" y="145.561632" style="stroke: #000000; stroke-width: 0.5"/>
      </g>
     </g>
     <g id="line2d_74">
      <g>
       <use xlink:href="#m0094cd0404" x="466.88" y="145.561632" style="stroke: #000000; stroke-width: 0.5"/>
      </g>
     </g>
     <g id="text_11">
      <!-- $\mathdefault{−1.0}$ -->
      <g transform="translate(21.6 149.659444) scale(0.12 -0.12)">
       <use xlink:href="#STIXGeneral-Regular-2212" transform="translate(0 0.40625)"/>
       <use xlink:href="#STIXGeneral-Regular-31" transform="translate(68.499985 0.40625)"/>
       <use xlink:href="#STIXGeneral-Regular-2e" transform="translate(118.499969 0.40625)"/>
       <use xlink:href="#STIXGeneral-Regular-30" transform="translate(143.499954 0.40625)"/>
      </g>
     </g>
    </g>
    <g id="ytick_5">
     <g id="line2d_75">
      <path d="M 48.38 97.570628 
L 466.88 97.570628 
" clip-path="url(#p97b3527758)" style="fill: none; stroke: #b0b0b0; stroke-opacity: 0.35; stroke-width: 0.5; stroke-linecap: square"/>
     </g>
     <g id="line2d_76">
      <g>
       <use xlink:href="#m7cb6b82c89" x="48.38" y="97.570628" style="stroke: #000000; stroke-width: 0.5"/>
      </g>
     </g>
     <g id="line2d_77">
      <g>
       <use xlink:href="#m0094cd0404" x="466.88" y="97.570628" style="stroke: #000000; stroke-width: 0.5"/>
      </g>
     </g>
     <g id="text_12">
      <!-- $\mathdefault{−0.5}$ -->
      <g transform="translate(21.6 101.668441) scale(0.12 -0.12)">
       <use xlink:href="#STIXGeneral-Regular-2212" transform="translate(0 0.203125)"/>
       <use xlink:href="#STIXGeneral-Regular-30" transform="translate(68.499985 0.203125)"/>
       <use xlink:href="#STIXGeneral-Regular-2e" transform="translate(118.499969 0.203125)"/>
       <use xlink:href="#STIXGeneral-Regular-35" transform="translate(143.499954 0.203125)"/>
      </g>
     </g>
    </g>
    <g id="ytick_6">
     <g id="line2d_78">
      <path d="M 48.38 49.579625 
L 466.88 49.579625 
" clip-path="url(#p97b3527758)" style="fill: none; stroke: #b0b0b0; stroke-opacity: 0.35; stroke-width: 0.5; stroke-linecap: square"/>
     </g>
     <g id="line2d_79">
      <g>
       <use xlink:href="#m7cb6b82c89" x="48.38" y="49.579625" style="stroke: #000000; stroke-width: 0.5"/>
      </g>
     </g>
     <g id="line2d_80">
      <g>
       <use xlink:href="#m0094cd0404" x="466.88" y="49.579625" style="stroke: #000000; stroke-width: 0.5"/>
      </g>
     </g>
     <g id="text_13">
      <!-- $\mathdefault{0.0}$ -->
      <g transform="translate(29.88 53.677437) scale(0.12 -0.12)">
       <use xlink:href="#STIXGeneral-Regular-30" transform="translate(0 0.40625)"/>
       <use xlink:href="#STIXGeneral-Regular-2e" transform="translate(49.999985 0.40625)"/>
       <use xlink:href="#STIXGeneral-Regular-30" transform="translate(74.999969 0.40625)"/>
      </g>
     </g>
    </g>
    <g id="ytick_7">
     <g id="line2d_81">
      <defs>
       <path id="m7648a8de04" d="M 0 0 
L 1.5 0 
" style="stroke: #000000; stroke-width: 0.5"/>
      </defs>
      <g>
       <use xlink:href="#m7648a8de04" x="48.38" y="318.329244" style="stroke: #000000; stroke-width: 0.5"/>
      </g>
     </g>
     <g id="line2d_82">
      <defs>
       <path id="mcc5c144dfb" d="M 0 0 
L -1.5 0 
" style="stroke: #000000; stroke-width: 0.5"/>
      </defs>
      <g>
       <use xlink:href="#mcc5c144dfb" x="466.88" y="318.329244" style="stroke: #000000; stroke-width: 0.5"/>
      </g>
     </g>
    </g>
    <g id="ytick_8">
     <g id="line2d_83">
      <g>
       <use xlink:href="#m7648a8de04" x="48.38" y="308.731044" style="stroke: #000000; stroke-width: 0.5"/>
      </g>
     </g>
     <g id="line2d_84">
      <g>
       <use xlink:href="#mcc5c144dfb" x="466.88" y="308.731044" style="stroke: #000000; stroke-width: 0.5"/>
      </g>
     </g>
    </g>
    <g id="ytick_9">
     <g id="line2d_85">
      <g>
       <use xlink:href="#m7648a8de04" x="48.38" y="299.132843" style="stroke: #000000; stroke-width: 0.5"/>
      </g>
     </g>
     <g id="line2d_86">
      <g>
       <use xlink:href="#mcc5c144dfb" x="466.88" y="299.132843" style="stroke: #000000; stroke-width: 0.5"/>
      </g>
     </g>
    </g>
    <g id="ytick_10">
     <g id="line2d_87">
      <g>
       <use xlink:href="#m7648a8de04" x="48.38" y="279.936442" style="stroke: #000000; stroke-width: 0.5"/>
      </g>
     </g>
     <g id="line2d_88">
      <g>
       <use xlink:href="#mcc5c144dfb" x="466.88" y="279.936442" style="stroke: #000000; stroke-width: 0.5"/>
      </g>
     </g>
    </g>
    <g id="ytick_11">
     <g id="line2d_89">
      <g>
       <use xlink:href="#m7648a8de04" x="48.38" y="270.338241" style="stroke: #000000; stroke-width: 0.5"/>
      </g>
     </g>
     <g id="line2d_90">
      <g>
       <use xlink:href="#mcc5c144dfb" x="466.88" y="270.338241" style="stroke: #000000; stroke-width: 0.5"/>
      </g>
     </g>
    </g>
    <g id="ytick_12">
     <g id="line2d_91">
      <g>
       <use xlink:href="#m7648a8de04" x="48.38" y="260.74004" style="stroke: #000000; stroke-width: 0.5"/>
      </g>
     </g>
     <g id="line2d_92">
      <g>
       <use xlink:href="#mcc5c144dfb" x="466.88" y="260.74004" style="stroke: #000000; stroke-width: 0.5"/>
      </g>
     </g>
    </g>
    <g id="ytick_13">
     <g id="line2d_93">
      <g>
       <use xlink:href="#m7648a8de04" x="48.38" y="251.14184" style="stroke: #000000; stroke-width: 0.5"/>
      </g>
     </g>
     <g id="line2d_94">
      <g>
       <use xlink:href="#mcc5c144dfb" x="466.88" y="251.14184" style="stroke: #000000; stroke-width: 0.5"/>
      </g>
     </g>
    </g>
    <g id="ytick_14">
     <g id="line2d_95">
      <g>
       <use xlink:href="#m7648a8de04" x="48.38" y="231.945438" style="stroke: #000000; stroke-width: 0.5"/>
      </g>
     </g>
     <g id="line2d_96">
      <g>
       <use xlink:href="#mcc5c144dfb" x="466.88" y="231.945438" style="stroke: #000000; stroke-width: 0.5"/>
      </g>
     </g>
    </g>
    <g id="ytick_15">
     <g id="line2d_97">
      <g>
       <use xlink:href="#m7648a8de04" x="48.38" y="222.347237" style="stroke: #000000; stroke-width: 0.5"/>
      </g>
     </g>
     <g id="line2d_98">
      <g>
       <use xlink:href="#mcc5c144dfb" x="466.88" y="222.347237" style="stroke: #000000; stroke-width: 0.5"/>
      </g>
     </g>
    </g>
    <g id="ytick_16">
     <g id="line2d_99">
      <g>
       <use xlink:href="#m7648a8de04" x="48.38" y="212.749037" style="stroke: #000000; stroke-width: 0.5"/>
      </g>
     </g>
     <g id="line2d_100">
      <g>
       <use xlink:href="#mcc5c144dfb" x="466.88" y="212.749037" style="stroke: #000000; stroke-width: 0.5"/>
      </g>
     </g>
    </g>
    <g id="ytick_17">
     <g id="line2d_101">
      <g>
       <use xlink:href="#m7648a8de04" x="48.38" y="203.150836" style="stroke: #000000; stroke-width: 0.5"/>
      </g>
     </g>
     <g id="line2d_102">
      <g>
       <use xlink:href="#mcc5c144dfb" x="466.88" y="203.150836" style="stroke: #000000; stroke-width: 0.5"/>
      </g>
     </g>
    </g>
    <g id="ytick_18">
     <g id="line2d_103">
      <g>
       <use xlink:href="#m7648a8de04" x="48.38" y="183.954435" style="stroke: #000000; stroke-width: 0.5"/>
      </g>
     </g>
     <g id="line2d_104">
      <g>
       <use xlink:href="#mcc5c144dfb" x="466.88" y="183.954435" style="stroke: #000000; stroke-width: 0.5"/>
      </g>
     </g>
    </g>
    <g id="ytick_19">
     <g id="line2d_105">
      <g>
       <use xlink:href="#m7648a8de04" x="48.38" y="174.356234" style="stroke: #000000; stroke-width: 0.5"/>
      </g>
     </g>
     <g id="line2d_106">
      <g>
       <use xlink:href="#mcc5c144dfb" x="466.88" y="174.356234" style="stroke: #000000; stroke-width: 0.5"/>
      </g>
     </g>
    </g>
    <g id="ytick_20">
     <g id="line2d_107">
      <g>
       <use xlink:href="#m7648a8de04" x="48.38" y="164.758033" style="stroke: #000000; stroke-width: 0.5"/>
      </g>
     </g>
     <g id="line2d_108">
      <g>
       <use xlink:href="#mcc5c144dfb" x="466.88" y="164.758033" style="stroke: #000000; stroke-width: 0.5"/>
      </g>
     </g>
    </g>
    <g id="ytick_21">
     <g id="line2d_109">
      <g>
       <use xlink:href="#m7648a8de04" x="48.38" y="155.159833" style="stroke: #000000; stroke-width: 0.5"/>
      </g>
     </g>
     <g id="line2d_110">
      <g>
       <use xlink:href="#mcc5c144dfb" x="466.88" y="155.159833" style="stroke: #000000; stroke-width: 0.5"/>
      </g>
     </g>
    </g>
    <g id="ytick_22">
     <g id="line2d_111">
      <g>
       <use xlink:href="#m7648a8de04" x="48.38" y="135.963431" style="stroke: #000000; stroke-width: 0.5"/>
      </g>
     </g>
     <g id="line2d_112">
      <g>
       <use xlink:href="#mcc5c144dfb" x="466.88" y="135.963431" style="stroke: #000000; stroke-width: 0.5"/>
      </g>
     </g>
    </g>
    <g id="ytick_23">
     <g id="line2d_113">
      <g>
       <use xlink:href="#m7648a8de04" x="48.38" y="126.365231" style="stroke: #000000; stroke-width: 0.5"/>
      </g>
     </g>
     <g id="line2d_114">
      <g>
       <use xlink:href="#mcc5c144dfb" x="466.88" y="126.365231" style="stroke: #000000; stroke-width: 0.5"/>
      </g>
     </g>
    </g>
    <g id="ytick_24">
     <g id="line2d_115">
      <g>
       <use xlink:href="#m7648a8de04" x="48.38" y="116.76703" style="stroke: #000000; stroke-width: 0.5"/>
      </g>
     </g>
     <g id="line2d_116">
      <g>
       <use xlink:href="#mcc5c144dfb" x="466.88" y="116.76703" style="stroke: #000000; stroke-width: 0.5"/>
      </g>
     </g>
    </g>
    <g id="ytick_25">
     <g id="line2d_117">
      <g>
       <use xlink:href="#m7648a8de04" x="48.38" y="107.168829" style="stroke: #000000; stroke-width: 0.5"/>
      </g>
     </g>
     <g id="line2d_118">
      <g>
       <use xlink:href="#mcc5c144dfb" x="466.88" y="107.168829" style="stroke: #000000; stroke-width: 0.5"/>
      </g>
     </g>
    </g>
    <g id="ytick_26">
     <g id="line2d_119">
      <g>
       <use xlink:href="#m7648a8de04" x="48.38" y="87.972428" style="stroke: #000000; stroke-width: 0.5"/>
      </g>
     </g>
     <g id="line2d_120">
      <g>
       <use xlink:href="#mcc5c144dfb" x="466.88" y="87.972428" style="stroke: #000000; stroke-width: 0.5"/>
      </g>
     </g>
    </g>
    <g id="ytick_27">
     <g id="line2d_121">
      <g>
       <use xlink:href="#m7648a8de04" x="48.38" y="78.374227" style="stroke: #000000; stroke-width: 0.5"/>
      </g>
     </g>
     <g id="line2d_122">
      <g>
       <use xlink:href="#mcc5c144dfb" x="466.88" y="78.374227" style="stroke: #000000; stroke-width: 0.5"/>
      </g>
     </g>
    </g>
    <g id="ytick_28">
     <g id="line2d_123">
      <g>
       <use xlink:href="#m7648a8de04" x="48.38" y="68.776026" style="stroke: #000000; stroke-width: 0.5"/>
      </g>
     </g>
     <g id="line2d_124">
      <g>
       <use xlink:href="#mcc5c144dfb" x="466.88" y="68.776026" style="stroke: #000000; stroke-width: 0.5"/>
      </g>
     </g>
    </g>
    <g id="ytick_29">
     <g id="line2d_125">
      <g>
       <use xlink:href="#m7648a8de04" x="48.38" y="59.177826" style="stroke: #000000; stroke-width: 0.5"/>
      </g>
     </g>
     <g id="line2d_126">
      <g>
       <use xlink:href="#mcc5c144dfb" x="466.88" y="59.177826" style="stroke: #000000; stroke-width: 0.5"/>
      </g>
     </g>
    </g>
    <g id="ytick_30">
     <g id="line2d_127">
      <g>
       <use xlink:href="#m7648a8de04" x="48.38" y="39.981424" style="stroke: #000000; stroke-width: 0.5"/>
      </g>
     </g>
     <g id="line2d_128">
      <g>
       <use xlink:href="#mcc5c144dfb" x="466.88" y="39.981424" style="stroke: #000000; stroke-width: 0.5"/>
      </g>
     </g>
    </g>
    <g id="text_14">
     <!-- $|g_1|$ difference from exact -->
     <g transform="translate(14.1 252.789625) rotate(-90) scale(0.14 -0.14)">
      <defs>
       <path id="Cmsy10-6a" d="M 763 -1484 
L 763 4684 
Q 763 4734 800 4767 
Q 838 4800 891 4800 
Q 938 4800 978 4767 
Q 1019 4734 1019 4684 
L 1019 -1484 
Q 1019 -1534 978 -1567 
Q 938 -1600 891 -1600 
Q 838 -1600 800 -1567 
Q 763 -1534 763 -1484 
z
" transform="scale(0.015625)"/>
       <path id="Cmmi10-67" d="M 91 -916 
Q 91 -759 198 -642 
Q 306 -525 459 -525 
Q 563 -525 633 -589 
Q 703 -653 703 -756 
Q 703 -872 637 -964 
Q 572 -1056 469 -1094 
Q 641 -1147 1006 -1147 
Q 1300 -1147 1544 -920 
Q 1788 -694 1863 -397 
L 2047 353 
Q 1700 0 1325 0 
Q 1050 0 854 140 
Q 659 281 556 515 
Q 453 750 453 1013 
Q 453 1306 573 1628 
Q 694 1950 911 2225 
Q 1128 2500 1409 2664 
Q 1691 2828 2003 2828 
Q 2191 2828 2341 2725 
Q 2491 2622 2578 2450 
Q 2641 2700 2853 2700 
Q 2934 2700 2990 2651 
Q 3047 2603 3047 2522 
Q 3047 2503 3045 2493 
Q 3044 2484 3041 2472 
L 2309 -434 
Q 2259 -634 2125 -800 
Q 1991 -966 1809 -1077 
Q 1628 -1188 1412 -1250 
Q 1197 -1313 997 -1313 
Q 631 -1313 361 -1242 
Q 91 -1172 91 -916 
z
M 1338 166 
Q 1747 166 2144 728 
L 2497 2125 
Q 2453 2347 2322 2505 
Q 2191 2663 1991 2663 
Q 1778 2663 1589 2489 
Q 1400 2316 1275 2075 
Q 1156 1844 1045 1411 
Q 934 978 934 728 
Q 934 509 1034 337 
Q 1134 166 1338 166 
z
" transform="scale(0.015625)"/>
       <path id="Cmr10-31" d="M 594 0 
L 594 225 
Q 1394 225 1394 428 
L 1394 3788 
Q 1063 3628 556 3628 
L 556 3853 
Q 1341 3853 1741 4263 
L 1831 4263 
Q 1853 4263 1873 4245 
Q 1894 4228 1894 4206 
L 1894 428 
Q 1894 225 2694 225 
L 2694 0 
L 594 0 
z
" transform="scale(0.015625)"/>
       <path id="STIXGeneral-Regular-20" transform="scale(0.015625)"/>
       <path id="STIXGeneral-Regular-64" d="M 3142 269 
L 2202 -64 
L 2176 -45 
L 2176 365 
Q 1869 -64 1357 -64 
Q 826 -64 499 317 
Q 173 698 173 1312 
Q 173 1990 563 2467 
Q 954 2944 1504 2944 
Q 1850 2944 2176 2669 
L 2176 3667 
Q 2176 3866 2118 3930 
Q 2061 3994 1882 3994 
Q 1792 3994 1741 3987 
L 1741 4090 
Q 2323 4243 2682 4371 
L 2714 4358 
L 2714 730 
Q 2714 506 2768 435 
Q 2822 365 2995 365 
Q 3034 365 3142 371 
L 3142 269 
z
M 2176 653 
L 2176 2125 
Q 2176 2381 1981 2573 
Q 1786 2765 1523 2765 
Q 1158 2765 940 2438 
Q 723 2112 723 1568 
Q 723 979 963 624 
Q 1203 269 1606 269 
Q 1907 269 2080 474 
Q 2176 582 2176 653 
z
" transform="scale(0.015625)"/>
       <path id="STIXGeneral-Regular-69" d="M 1152 4045 
Q 1152 3904 1056 3811 
Q 960 3718 819 3718 
Q 685 3718 592 3811 
Q 499 3904 499 4045 
Q 499 4179 595 4275 
Q 691 4371 826 4371 
Q 966 4371 1059 4275 
Q 1152 4179 1152 4045 
z
M 1619 0 
L 102 0 
L 102 96 
Q 435 115 521 211 
Q 608 307 608 666 
L 608 2118 
Q 608 2342 563 2432 
Q 518 2522 397 2522 
Q 243 2522 128 2490 
L 128 2592 
L 1120 2944 
L 1146 2918 
L 1146 672 
Q 1146 314 1226 218 
Q 1306 122 1619 96 
L 1619 0 
z
" transform="scale(0.015625)"/>
       <path id="STIXGeneral-Regular-66" d="M 134 2880 
L 659 2880 
Q 666 3264 710 3478 
Q 755 3693 883 3910 
Q 1152 4371 1786 4371 
Q 2074 4371 2262 4259 
Q 2451 4147 2451 3974 
Q 2451 3866 2374 3789 
Q 2298 3712 2182 3712 
Q 2029 3712 1894 3942 
Q 1741 4192 1555 4192 
Q 1197 4192 1197 3622 
L 1197 2880 
L 1978 2880 
L 1978 2675 
L 1197 2675 
L 1197 666 
Q 1197 307 1299 208 
Q 1402 109 1792 96 
L 1792 0 
L 128 0 
L 128 96 
Q 474 115 566 214 
Q 659 314 659 666 
L 659 2675 
L 134 2675 
L 134 2880 
z
" transform="scale(0.015625)"/>
       <path id="STIXGeneral-Regular-65" d="M 2611 1050 
L 2714 1005 
Q 2330 -64 1376 -64 
Q 813 -64 486 329 
Q 160 723 160 1389 
Q 160 2074 525 2509 
Q 890 2944 1485 2944 
Q 2061 2944 2374 2502 
Q 2560 2246 2592 1773 
L 621 1773 
Q 646 1370 700 1158 
Q 755 947 915 730 
Q 1184 378 1626 378 
Q 1939 378 2153 531 
Q 2368 685 2611 1050 
z
M 634 1978 
L 1939 1978 
Q 1882 2381 1750 2547 
Q 1619 2714 1312 2714 
Q 1043 2714 864 2525 
Q 685 2336 634 1978 
z
" transform="scale(0.015625)"/>
       <path id="STIXGeneral-Regular-72" d="M 1024 2931 
L 1024 2342 
Q 1267 2688 1430 2816 
Q 1594 2944 1792 2944 
Q 1958 2944 2051 2854 
Q 2144 2765 2144 2605 
Q 2144 2470 2077 2393 
Q 2010 2317 1894 2317 
Q 1773 2317 1638 2445 
Q 1536 2541 1472 2541 
Q 1338 2541 1181 2355 
Q 1024 2170 1024 2016 
L 1024 576 
Q 1024 301 1133 205 
Q 1242 109 1568 96 
L 1568 0 
L 32 0 
L 32 96 
Q 339 154 412 224 
Q 486 294 486 538 
L 486 2138 
Q 486 2349 438 2435 
Q 390 2522 269 2522 
Q 166 2522 45 2496 
L 45 2598 
Q 448 2726 992 2944 
L 1024 2931 
z
" transform="scale(0.015625)"/>
       <path id="STIXGeneral-Regular-6e" d="M 3104 0 
L 1773 0 
L 1779 96 
Q 2016 115 2096 233 
Q 2176 352 2176 672 
L 2176 1946 
Q 2176 2592 1709 2592 
Q 1549 2592 1408 2515 
Q 1267 2438 1050 2227 
L 1050 461 
Q 1050 269 1136 192 
Q 1222 115 1466 96 
L 1466 0 
L 115 0 
L 115 96 
Q 358 115 435 214 
Q 512 314 512 602 
L 512 2157 
Q 512 2394 467 2483 
Q 422 2573 288 2573 
Q 160 2573 102 2547 
L 102 2656 
Q 550 2784 979 2944 
L 1030 2925 
L 1030 2426 
L 1037 2426 
Q 1491 2944 1958 2944 
Q 2323 2944 2518 2688 
Q 2714 2432 2714 1958 
L 2714 544 
Q 2714 288 2790 205 
Q 2867 122 3104 96 
L 3104 0 
z
" transform="scale(0.015625)"/>
       <path id="STIXGeneral-Regular-63" d="M 2547 998 
L 2637 941 
Q 2362 403 2112 205 
Q 1786 -64 1376 -64 
Q 845 -64 502 336 
Q 160 736 160 1357 
Q 160 2170 698 2618 
Q 1094 2944 1562 2944 
Q 1965 2944 2256 2749 
Q 2547 2554 2547 2285 
Q 2547 2176 2457 2096 
Q 2368 2016 2246 2016 
Q 2022 2016 1939 2310 
L 1901 2451 
Q 1850 2630 1773 2694 
Q 1696 2758 1523 2758 
Q 1133 2758 893 2451 
Q 653 2144 653 1645 
Q 653 1094 928 745 
Q 1203 397 1645 397 
Q 1920 397 2118 528 
Q 2317 659 2547 998 
z
" transform="scale(0.015625)"/>
       <path id="STIXGeneral-Regular-6f" d="M 3008 1478 
Q 3008 806 2608 371 
Q 2208 -64 1568 -64 
Q 979 -64 582 368 
Q 186 800 186 1459 
Q 186 2125 582 2534 
Q 979 2944 1626 2944 
Q 2221 2944 2614 2537 
Q 3008 2131 3008 1478 
z
M 2432 1306 
Q 2432 2035 2112 2445 
Q 1856 2765 1504 2765 
Q 1171 2765 966 2493 
Q 762 2221 762 1747 
Q 762 928 1101 435 
Q 1318 115 1677 115 
Q 2029 115 2230 432 
Q 2432 749 2432 1306 
z
" transform="scale(0.015625)"/>
       <path id="STIXGeneral-Regular-6d" d="M 4960 0 
L 3565 0 
L 3565 96 
Q 3834 122 3907 208 
Q 3981 294 3981 576 
L 3981 1894 
Q 3981 2278 3869 2444 
Q 3757 2611 3488 2611 
Q 3264 2611 3107 2521 
Q 2950 2432 2803 2221 
L 2803 608 
Q 2803 301 2896 201 
Q 2989 102 3264 96 
L 3264 0 
L 1830 0 
L 1830 96 
Q 2112 115 2189 188 
Q 2266 262 2266 550 
L 2266 1901 
Q 2266 2611 1850 2611 
Q 1670 2611 1468 2531 
Q 1267 2451 1171 2336 
Q 1088 2240 1088 2227 
L 1088 448 
Q 1088 243 1177 176 
Q 1267 109 1523 96 
L 1523 0 
L 102 0 
L 102 96 
Q 371 102 460 195 
Q 550 288 550 563 
L 550 2150 
Q 550 2387 499 2480 
Q 448 2573 326 2573 
Q 230 2573 122 2547 
L 122 2656 
Q 557 2778 1011 2944 
L 1062 2925 
L 1062 2451 
L 1075 2451 
Q 1363 2752 1584 2848 
Q 1805 2944 2054 2944 
Q 2560 2944 2733 2406 
Q 3232 2944 3776 2944 
Q 4518 2944 4518 1792 
L 4518 493 
Q 4518 282 4582 202 
Q 4646 122 4794 109 
L 4960 96 
L 4960 0 
z
" transform="scale(0.015625)"/>
       <path id="STIXGeneral-Regular-78" d="M 3066 0 
L 1779 0 
L 1779 96 
Q 1939 109 1987 137 
Q 2035 166 2035 250 
Q 2035 307 1997 365 
L 1414 1261 
L 909 474 
Q 781 275 781 211 
Q 781 96 1037 96 
L 1037 0 
L 109 0 
L 109 96 
Q 269 109 355 169 
Q 442 230 576 422 
L 1306 1478 
L 704 2400 
Q 557 2624 454 2704 
Q 352 2784 211 2784 
L 154 2784 
L 154 2880 
L 1478 2880 
L 1478 2784 
Q 1203 2778 1203 2643 
Q 1203 2509 1498 2074 
Q 1581 1958 1587 1946 
Q 1619 1990 1779 2227 
Q 1811 2285 1856 2349 
Q 1901 2413 1923 2451 
Q 1946 2490 1971 2528 
Q 1997 2566 2006 2595 
Q 2016 2624 2016 2643 
Q 2016 2765 1760 2784 
L 1760 2880 
L 2771 2880 
L 2771 2784 
Q 2445 2771 2253 2502 
L 1722 1734 
L 2541 480 
Q 2790 96 3066 96 
L 3066 0 
z
" transform="scale(0.015625)"/>
       <path id="STIXGeneral-Regular-61" d="M 2829 422 
L 2829 243 
Q 2586 -64 2253 -64 
Q 1888 -64 1843 403 
L 1837 403 
Q 1427 -64 909 -64 
Q 608 -64 422 112 
Q 237 288 237 602 
Q 237 1050 685 1350 
Q 992 1555 1837 1869 
L 1837 2214 
Q 1837 2502 1699 2646 
Q 1562 2790 1338 2790 
Q 1146 2790 1018 2697 
Q 890 2605 890 2477 
Q 890 2419 909 2348 
Q 928 2278 928 2208 
Q 928 2112 841 2029 
Q 755 1946 634 1946 
Q 525 1946 441 2029 
Q 358 2112 358 2240 
Q 358 2547 685 2752 
Q 986 2944 1421 2944 
Q 1939 2944 2176 2656 
Q 2291 2522 2323 2384 
Q 2355 2246 2355 1946 
L 2355 723 
Q 2355 301 2554 301 
Q 2682 301 2829 422 
z
M 1837 813 
L 1837 1715 
Q 1248 1510 1018 1293 
Q 800 1094 800 800 
Q 800 557 921 432 
Q 1043 307 1242 307 
Q 1453 307 1613 410 
Q 1747 506 1792 589 
Q 1837 672 1837 813 
z
" transform="scale(0.015625)"/>
       <path id="STIXGeneral-Regular-74" d="M 1702 493 
L 1786 422 
Q 1478 -64 1011 -64 
Q 448 -64 448 749 
L 448 2675 
L 109 2675 
Q 83 2694 83 2720 
Q 83 2771 192 2842 
Q 435 2982 813 3526 
Q 826 3546 874 3606 
Q 922 3667 941 3706 
Q 986 3706 986 3622 
L 986 2880 
L 1632 2880 
L 1632 2675 
L 986 2675 
L 986 845 
Q 986 538 1062 403 
Q 1139 269 1318 269 
Q 1510 269 1702 493 
z
" transform="scale(0.015625)"/>
      </defs>
      <use xlink:href="#Cmsy10-6a"/>
      <use xlink:href="#Cmmi10-67" transform="translate(27.685547 0)"/>
      <use xlink:href="#Cmr10-31" transform="translate(75.390625 -17.00625) scale(0.7)"/>
      <use xlink:href="#Cmsy10-6a" transform="translate(116.767969 0)"/>
      <use xlink:href="#STIXGeneral-Regular-20" transform="translate(144.453516 0)"/>
      <use xlink:href="#STIXGeneral-Regular-64" transform="translate(169.4535 0)"/>
      <use xlink:href="#STIXGeneral-Regular-69" transform="translate(219.453485 0)"/>
      <use xlink:href="#STIXGeneral-Regular-66" transform="translate(247.253473 0)"/>
      <use xlink:href="#STIXGeneral-Regular-66" transform="translate(280.553461 0)"/>
      <use xlink:href="#STIXGeneral-Regular-65" transform="translate(313.853448 0)"/>
      <use xlink:href="#STIXGeneral-Regular-72" transform="translate(358.253442 0)"/>
      <use xlink:href="#STIXGeneral-Regular-65" transform="translate(391.55343 0)"/>
      <use xlink:href="#STIXGeneral-Regular-6e" transform="translate(435.953424 0)"/>
      <use xlink:href="#STIXGeneral-Regular-63" transform="translate(485.953409 0)"/>
      <use xlink:href="#STIXGeneral-Regular-65" transform="translate(530.353403 0)"/>
      <use xlink:href="#STIXGeneral-Regular-20" transform="translate(574.753397 0)"/>
      <use xlink:href="#STIXGeneral-Regular-66" transform="translate(599.753381 0)"/>
      <use xlink:href="#STIXGeneral-Regular-72" transform="translate(633.053369 0)"/>
      <use xlink:href="#STIXGeneral-Regular-6f" transform="translate(666.353357 0)"/>
      <use xlink:href="#STIXGeneral-Regular-6d" transform="translate(716.353342 0)"/>
      <use xlink:href="#STIXGeneral-Regular-20" transform="translate(794.153329 0)"/>
      <use xlink:href="#STIXGeneral-Regular-65" transform="translate(819.153314 0)"/>
      <use xlink:href="#STIXGeneral-Regular-78" transform="translate(863.553308 0)"/>
      <use xlink:href="#STIXGeneral-Regular-61" transform="translate(913.553293 0)"/>
      <use xlink:href="#STIXGeneral-Regular-63" transform="translate(957.953287 0)"/>
      <use xlink:href="#STIXGeneral-Regular-74" transform="translate(1002.353281 0)"/>
     </g>
    </g>
    <g id="text_15">
     <!-- $\times\mathdefault{10^{−3}}\mathdefault{}$ -->
     <g transform="translate(48.38 33.475625) scale(0.12 -0.12)">
      <defs>
       <path id="Cmsy10-a3" d="M 941 184 
Q 941 234 972 275 
L 2303 1600 
L 972 2931 
Q 941 2963 941 3016 
Q 941 3063 978 3103 
Q 1016 3144 1069 3144 
Q 1113 3144 1166 3103 
L 2491 1778 
L 3809 3103 
Q 3863 3144 3903 3144 
Q 3956 3144 3993 3106 
Q 4031 3069 4031 3016 
Q 4031 2963 4000 2931 
L 2669 1600 
L 4000 275 
Q 4031 234 4031 184 
Q 4031 131 3993 93 
Q 3956 56 3903 56 
Q 3856 56 3809 103 
L 2491 1422 
L 1166 103 
Q 1119 56 1069 56 
Q 1016 56 978 97 
Q 941 138 941 184 
z
" transform="scale(0.015625)"/>
      </defs>
      <use xlink:href="#Cmsy10-a3" transform="translate(0 0.684375)"/>
      <use xlink:href="#STIXGeneral-Regular-31" transform="translate(77.685547 0.684375)"/>
      <use xlink:href="#STIXGeneral-Regular-30" transform="translate(127.685532 0.684375)"/>
      <use xlink:href="#STIXGeneral-Regular-2212" transform="translate(179.260516 36.684375) scale(0.7)"/>
      <use xlink:href="#STIXGeneral-Regular-33" transform="translate(227.210506 36.684375) scale(0.7)"/>
     </g>
    </g>
   </g>
   <g id="line2d_129">
    <path d="M 67.402727 49.579625 
L 447.857273 49.579625 
L 447.857273 49.579625 
" clip-path="url(#p97b3527758)" style="fill: none; stroke: #2ca02c; stroke-width: 2.7; stroke-linecap: square"/>
   </g>
   <g id="line2d_130">
    <path d="M 48.38 49.579625 
L 466.88 49.579625 
" clip-path="url(#p97b3527758)" style="fill: none; stroke: #000000; stroke-opacity: 0.6; stroke-linecap: square"/>
   </g>
   <g id="patch_3">
    <path d="M 48.38 324.763625 
L 48.38 36.475625 
" style="fill: none; stroke: #000000; stroke-width: 0.5; stroke-linejoin: miter; stroke-linecap: square"/>
   </g>
   <g id="patch_4">
    <path d="M 466.88 324.763625 
L 466.88 36.475625 
" style="fill: none; stroke: #000000; stroke-width: 0.5; stroke-linejoin: miter; stroke-linecap: square"/>
   </g>
   <g id="patch_5">
    <path d="M 48.38 324.763625 
L 466.88 324.763625 
" style="fill: none; stroke: #000000; stroke-width: 0.5; stroke-linejoin: miter; stroke-linecap: square"/>
   </g>
   <g id="patch_6">
    <path d="M 48.38 36.475625 
L 466.88 36.475625 
" style="fill: none; stroke: #000000; stroke-width: 0.5; stroke-linejoin: miter; stroke-linecap: square"/>
   </g>
   <g id="line2d_131">
    <path d="M 67.402727 287.600994 
L 67.478818 287.481388 
L 67.554909 288.391215 
L 67.859273 284.818244 
L 67.935364 286.719608 
L 68.087545 284.437603 
L 68.391909 286.87546 
L 68.544091 286.573903 
L 68.772364 289.027558 
L 68.924545 287.719246 
L 69.076727 287.377021 
L 69.305 284.951978 
L 69.381091 285.725178 
L 69.609364 283.316476 
L 69.685455 283.140383 
L 69.761545 282.034047 
L 69.837636 282.782914 
L 69.913727 282.601561 
L 70.142 280.223837 
L 70.218091 284.850943 
L 70.294182 284.654344 
L 70.522455 282.264361 
L 70.598545 282.067733 
L 70.826818 279.703882 
L 70.979 279.30898 
L 71.055091 279.98155 
L 71.283364 277.637185 
L 71.435545 278.942725 
L 71.511636 278.730343 
L 71.587727 278.516449 
L 71.816 275.34311 
L 71.892091 276.808164 
L 71.968182 276.589957 
L 72.044273 276.370292 
L 72.272545 274.057718 
L 72.348636 277.46539 
L 72.424727 276.418766 
L 72.576909 277.58098 
L 72.653 276.536229 
L 72.729091 279.880333 
L 72.805182 278.832451 
L 72.881273 277.789179 
L 73.109545 283.332405 
L 73.337818 280.97871 
L 73.49 280.456123 
L 73.566091 280.965199 
L 73.642182 279.928588 
L 73.794364 282.450812 
L 73.870455 282.171457 
L 73.946545 281.132965 
L 74.022636 284.277269 
L 74.098727 283.988267 
L 74.174818 284.447714 
L 74.327 282.370659 
L 74.403091 282.821266 
L 74.479182 285.157523 
L 74.555273 284.85584 
L 74.707455 283.519144 
L 74.935727 288.092024 
L 75.011818 287.770031 
L 75.087909 286.730411 
L 75.164 288.984707 
L 75.468364 286.259622 
L 75.544455 287.334533 
L 75.620545 287.001819 
L 75.696636 286.668234 
L 75.772727 289.553753 
L 75.848818 289.209845 
L 76.229273 284.76839 
L 76.305364 285.104722 
L 76.533636 284.076684 
L 76.914091 280.383483 
L 77.066273 279.701604 
L 77.142364 281.780017 
L 77.370636 279.451792 
L 77.522818 280.029932 
L 77.903273 276.392754 
L 77.979364 277.28652 
L 78.359818 273.074815 
L 78.588091 273.837897 
L 78.664182 273.481747 
L 79.272909 267.119838 
L 79.349 266.772106 
L 79.425091 265.846133 
L 79.501182 266.074998 
L 79.577273 265.725636 
L 79.805545 264.107652 
L 79.881636 264.322979 
L 79.957727 263.97105 
L 80.414273 259.650783 
L 80.490364 259.303984 
L 80.794727 256.833734 
L 80.870818 256.488791 
L 80.946909 258.284478 
L 81.403455 253.033946 
L 81.479545 262.117037 
L 81.555636 261.24136 
L 81.707818 260.01562 
L 81.783909 259.148663 
L 81.936091 263.60614 
L 82.012182 262.731517 
L 82.088273 262.870538 
L 82.164364 261.99911 
L 82.316545 265.857557 
L 82.392636 265.4779 
L 82.620909 262.862436 
L 82.697 262.976968 
L 82.925273 261.360138 
L 83.001364 260.501712 
L 83.077455 261.567849 
L 83.381818 259.098483 
L 83.534 258.342613 
L 83.610091 258.431739 
L 83.686182 260.472116 
L 83.762273 259.621013 
L 83.838364 259.697299 
L 84.142727 257.690692 
L 84.218818 256.851026 
L 84.294909 258.381522 
L 84.371 257.991481 
L 84.599273 255.487484 
L 84.675364 255.544713 
L 84.751455 255.157464 
L 85.055818 262.810709 
L 85.284091 261.140048 
L 85.360182 261.155108 
L 85.436273 260.741146 
L 85.512364 261.175166 
L 85.892818 258.673034 
L 86.121091 256.604557 
L 86.197182 256.601603 
L 86.805909 250.912531 
L 87.262455 248.101857 
L 87.795091 243.404325 
L 88.023364 241.849778 
L 88.099455 245.191452 
L 88.175545 244.419303 
L 88.479909 241.724539 
L 88.632091 252.672127 
L 88.784273 251.116272 
L 89.012545 298.935368 
L 89.164727 300.697866 
L 89.240818 299.884785 
L 89.469091 298.154074 
L 89.545182 305.607561 
L 89.621273 304.791449 
L 89.925636 302.230751 
L 90.001727 303.671715 
L 90.077818 303.198079 
L 90.23 302.251523 
L 90.306091 303.665782 
L 90.382182 303.187626 
L 91.067 298.261244 
L 91.219182 296.685595 
L 91.371364 310.926934 
L 91.447455 310.1198 
L 91.523545 309.935836 
L 91.599636 309.440778 
L 91.675727 311.659625 
L 91.751818 310.849826 
L 92.208364 306.947401 
L 92.360545 305.659175 
L 92.436636 308.346786 
L 92.512727 307.549722 
L 92.741 305.465952 
L 92.817091 306.391857 
L 93.578 299.174129 
L 94.034545 297.611894 
L 94.110636 298.479639 
L 94.186727 298.255062 
L 94.795455 292.745003 
L 94.871545 293.5819 
L 95.328091 290.154976 
L 95.632455 287.228108 
L 95.708545 289.563222 
L 95.784636 289.078658 
L 95.860727 288.59459 
L 95.936818 289.38208 
L 96.317273 286.232342 
L 96.393364 287.48046 
L 96.697727 284.83225 
L 96.773818 285.58379 
L 96.849909 285.099853 
L 96.926 285.842112 
L 97.306455 282.275076 
L 97.382545 283.001361 
L 97.534727 281.587578 
L 97.610818 287.653916 
L 97.686909 286.93992 
L 97.763 286.228311 
L 97.839091 292.693173 
L 97.915182 291.971494 
L 98.067364 290.535291 
L 98.143455 291.428798 
L 98.904364 284.5712 
L 98.980455 285.220668 
L 99.208727 283.343825 
L 99.284818 283.981281 
L 99.665273 281.145412 
L 99.741364 281.96613 
L 100.502273 275.782468 
L 100.578364 282.841903 
L 100.654455 282.160828 
L 101.339273 277.04783 
L 101.491455 275.723728 
L 101.567545 276.276596 
L 102.176273 271.228069 
L 102.328455 272.465666 
L 102.556727 270.699613 
L 102.632818 271.388879 
L 102.861091 269.460829 
L 102.937182 269.968643 
L 103.165455 268.054693 
L 103.241545 268.553087 
L 103.469818 266.816708 
L 103.545909 267.305126 
L 103.774182 266.060576 
L 103.926364 264.966141 
L 104.002455 266.537004 
L 104.078545 265.90756 
L 104.459 263.255321 
L 104.535091 263.710069 
L 104.611182 263.089313 
L 104.687273 263.844137 
L 104.915545 262.137077 
L 104.991636 262.7258 
L 105.524273 258.879363 
L 105.600364 259.301471 
L 105.676455 259.719099 
L 105.752545 259.110362 
L 105.828636 259.522278 
L 105.904727 265.523798 
L 105.980818 264.902789 
L 106.361273 262.525112 
L 106.589545 261.107693 
L 106.817818 259.288649 
L 106.893909 259.661136 
L 106.97 259.057439 
L 107.046091 259.424562 
L 107.426545 257.350539 
L 107.502636 257.703965 
L 107.883091 254.858584 
L 107.959182 255.32979 
L 108.035273 254.73846 
L 108.111364 255.076156 
L 108.796182 250.193685 
L 108.872273 250.516396 
L 109.024455 249.485418 
L 109.100545 249.801707 
L 109.328818 248.201854 
L 109.404909 266.836621 
L 109.481 266.248749 
L 109.557091 270.599099 
L 109.633182 270.237645 
L 109.709273 269.75992 
L 109.861455 270.300876 
L 110.318 267.209784 
L 110.394091 267.802514 
L 110.470182 267.325741 
L 110.546273 267.687604 
L 110.774545 266.256736 
L 110.850636 266.499682 
L 112.144182 257.395019 
L 112.600727 254.935152 
L 112.676818 255.248081 
L 112.981182 253.239974 
L 113.057273 253.446781 
L 113.437727 250.912068 
L 113.666 251.499449 
L 113.894273 250.059523 
L 113.970364 250.246082 
L 114.274727 248.813441 
L 114.350818 248.991749 
L 114.655182 247.032648 
L 114.731273 247.204404 
L 114.807364 246.673068 
L 114.883455 246.841184 
L 115.187818 244.89992 
L 115.263909 245.146878 
L 115.34 245.305406 
L 115.416091 249.055639 
L 115.492182 248.521215 
L 115.948727 245.347486 
L 116.100909 249.076317 
L 116.405273 247.119417 
L 116.481364 250.740418 
L 116.557455 250.286017 
L 116.633545 250.401362 
L 117.166182 246.779305 
L 117.242273 246.887816 
L 117.318364 297.643577 
L 117.394455 297.109324 
L 118.992364 286.577202 
L 119.068455 302.775625 
L 119.144545 302.254069 
L 119.296727 301.215205 
L 119.372818 301.273824 
L 119.448909 301.330077 
L 119.905455 298.307054 
L 119.981545 298.918895 
L 120.666364 295.026566 
L 120.742455 298.122443 
L 120.818545 297.675687 
L 121.579455 293.240441 
L 122.720818 287.039849 
L 122.796909 289.948235 
L 122.873 289.461294 
L 123.786091 284.298633 
L 124.623091 279.828972 
L 124.699182 282.572413 
L 124.775273 282.15489 
L 126.449273 272.824114 
L 126.525364 275.417673 
L 126.601455 274.969464 
L 126.829727 274.092101 
L 126.905818 274.061602 
L 128.275455 267.203343 
L 128.351545 267.552715 
L 128.808091 265.409611 
L 128.884182 265.364606 
L 129.188545 263.709567 
L 129.264636 266.086501 
L 129.340727 265.698673 
L 130.253818 260.77689 
L 130.329909 263.073894 
L 130.406 263.011026 
L 131.243 258.84764 
L 131.319091 258.814938 
L 132.232182 254.149525 
L 132.384364 258.451792 
L 132.460455 258.045721 
L 133.601818 252.106401 
L 133.677909 252.329418 
L 134.058364 250.684511 
L 134.134455 250.597474 
L 134.591 248.287656 
L 134.667091 250.339241 
L 134.743182 249.952879 
L 135.960636 244.229942 
L 136.036727 289.863439 
L 136.112818 289.486383 
L 136.188909 289.383866 
L 136.341091 288.904172 
L 136.417182 288.850684 
L 136.949818 286.769636 
L 139.308636 276.516309 
L 143.721909 259.057861 
L 143.798 260.54791 
L 143.874091 260.269918 
L 144.939364 256.383897 
L 145.015455 256.081913 
L 145.091545 257.508481 
L 145.167636 257.203884 
L 146.689455 251.512126 
L 146.765545 252.862556 
L 146.841636 252.568415 
L 148.972182 244.966974 
L 149.048273 254.375197 
L 149.124364 254.083589 
L 151.787545 244.698467 
L 152.015818 246.683919 
L 152.320182 245.584622 
L 152.396273 254.321459 
L 152.472364 254.033387 
L 154.602909 246.358668 
L 154.907273 245.50118 
L 156.581273 239.897763 
L 156.809545 239.224716 
L 158.179182 234.765431 
L 158.255273 235.675762 
L 158.331364 235.42467 
L 158.940091 233.53358 
L 159.016182 234.420159 
L 159.092273 234.17828 
L 159.701 232.211442 
L 159.777091 233.075297 
L 159.853182 232.82883 
L 161.375 228.096995 
L 161.451091 228.915755 
L 161.527182 228.677335 
L 163.125091 223.968193 
L 163.505545 222.97918 
L 165.407818 217.645243 
L 166.168727 215.624645 
L 166.244818 216.336225 
L 166.320909 216.121368 
L 168.755818 209.528101 
L 168.831909 209.380308 
L 168.908 210.033332 
L 168.984091 209.834806 
L 170.886364 205.08476 
L 172.484273 201.14499 
L 172.560364 201.7335 
L 172.636455 201.546069 
L 174.082182 198.179774 
L 174.158273 198.742065 
L 174.234364 198.559979 
L 176.897545 192.477975 
L 177.125818 191.999386 
L 177.201909 192.518339 
L 177.278 192.347759 
L 180.245545 185.978378 
L 183.137 180.205214 
L 184.582727 177.45487 
L 184.658818 180.916531 
L 184.734909 180.763469 
L 186.485 177.37633 
L 186.561091 177.786741 
L 186.637182 177.638868 
L 187.169818 176.626116 
L 187.245909 177.042876 
L 187.322 176.896232 
L 190.517818 170.984346 
L 192.496182 167.520708 
L 192.572273 170.000328 
L 192.648364 169.86114 
L 192.952727 169.306695 
L 193.028818 169.662625 
L 193.104909 169.52867 
L 193.789727 168.302986 
L 193.865818 168.653474 
L 193.941909 168.519993 
L 194.246273 167.974159 
L 194.322364 168.321633 
L 194.398455 168.185364 
L 194.931091 167.239964 
L 195.007182 167.583514 
L 195.083273 167.448692 
L 196.300727 165.326007 
L 196.376818 165.662517 
L 196.452909 165.530877 
L 200.029182 159.572439 
L 202.388 155.883812 
L 202.464091 157.30205 
L 202.540182 157.178715 
L 206.268636 151.342649 
L 206.344727 151.640001 
L 206.420818 151.527741 
L 207.181727 150.383916 
L 207.257818 150.679201 
L 207.333909 150.566575 
L 210.605818 145.882306 
L 210.681909 146.172187 
L 210.758 146.06686 
L 211.899364 144.492919 
L 211.975455 180.468379 
L 212.051545 180.356023 
L 212.355909 179.89937 
L 212.432 180.175153 
L 212.508091 180.061304 
L 213.269 178.91699 
L 213.345091 179.193886 
L 213.421182 179.081617 
L 216.236545 175.039647 
L 216.312636 175.312156 
L 216.388727 175.205469 
L 220.954182 168.996487 
L 222.399909 167.144527 
L 222.476 167.4155 
L 222.552091 167.319282 
L 222.628182 167.223187 
L 222.704273 167.49406 
L 222.780364 167.398095 
L 225.747909 163.684899 
L 225.824 163.956164 
L 225.900091 163.864876 
L 230.313364 158.673686 
L 230.389455 158.946647 
L 230.465545 158.86172 
L 234.498364 154.467353 
L 234.574455 154.742722 
L 234.650545 154.663146 
L 238.987727 150.268182 
L 239.063818 150.546722 
L 239.139909 150.472402 
L 240.737818 148.903554 
L 240.89 147.595451 
L 245.303273 143.352391 
L 245.531545 143.142995 
L 245.759818 143.633849 
L 250.934 138.997116 
L 254.890727 135.634174 
L 254.966818 135.922803 
L 255.042909 135.861102 
L 255.119 135.799467 
L 255.195091 136.088278 
L 255.347273 134.259495 
L 257.553909 132.446284 
L 257.63 132.734841 
L 257.706091 132.673186 
L 261.510636 129.680134 
L 261.586727 129.971868 
L 261.662818 129.913559 
L 261.815 127.910348 
L 267.293545 123.725716 
L 272.848182 119.803241 
L 275.283091 118.151516 
L 275.663545 117.8683 
L 282.511727 113.540149 
L 285.327091 111.894368 
L 285.403182 112.196787 
L 285.479273 112.153145 
L 285.859727 111.900037 
L 288.294636 110.532011 
L 288.370727 110.834944 
L 288.446818 110.792878 
L 290.349091 109.646965 
L 290.425182 109.950099 
L 290.501273 109.909057 
L 296.664636 106.712085 
L 303.208455 103.534436 
L 303.360636 101.056347 
L 305.339 100.15482 
L 305.491182 97.673079 
L 313.024182 94.369529 
L 320.937636 91.216365 
L 330.068545 87.908011 
L 335.471 86.152117 
L 335.547091 86.438034 
L 335.623182 86.413922 
L 344.678 83.663396 
L 347.265091 82.900273 
L 347.341182 83.176343 
L 347.417273 83.155114 
L 353.504545 81.511666 
L 353.656727 81.761956 
L 365.298636 78.825357 
L 369.331455 77.87658 
L 369.483636 75.728612 
L 374.353455 74.713867 
L 374.505636 72.611547 
L 376.864455 72.160846 
L 377.016636 70.082368 
L 379.679818 69.608033 
L 379.832 69.840026 
L 389.799909 68.186168 
L 389.952091 68.408491 
L 401.974455 66.593047 
L 402.126636 66.803413 
L 409.811818 65.741038 
L 409.964 63.966942 
L 413.007636 63.606344 
L 413.159818 63.807083 
L 416.431727 63.429082 
L 416.583909 63.626277 
L 416.736091 63.608861 
L 416.888273 63.805581 
L 430.889 62.302584 
L 446.487636 60.852047 
L 447.857273 60.734652 
L 447.857273 60.734652 
" clip-path="url(#p97b3527758)" style="fill: none; stroke: #ff7f0e; stroke-width: 2.5; stroke-linecap: square"/>
   </g>
   <g id="text_16">
    <!-- First-Order Coherence Difference $|g_1|$ vs Time ($|\alpha=1\rangle$, $U=0$, $\gamma=1$) -->
    <g transform="translate(32.51 19.28) scale(0.16 -0.16)">
     <defs>
      <path id="STIXGeneral-Regular-46" d="M 3494 3322 
L 3334 3322 
Q 3264 3757 3094 3875 
Q 2925 3994 2349 3994 
L 1504 3994 
Q 1370 3994 1328 3946 
Q 1286 3898 1286 3744 
L 1286 2355 
L 2195 2355 
Q 2598 2355 2736 2470 
Q 2874 2586 2918 2963 
L 3066 2963 
L 3066 1472 
L 2918 1472 
Q 2880 1862 2745 1977 
Q 2611 2093 2195 2093 
L 1286 2093 
L 1286 717 
Q 1286 352 1392 246 
Q 1498 141 1869 122 
L 1869 0 
L 70 0 
L 70 122 
Q 435 147 534 259 
Q 634 371 634 787 
L 634 3526 
Q 634 3878 538 3984 
Q 442 4090 77 4115 
L 77 4237 
L 3462 4237 
L 3494 3322 
z
" transform="scale(0.015625)"/>
      <path id="STIXGeneral-Regular-73" d="M 998 1926 
L 1664 1523 
Q 1984 1331 2105 1164 
Q 2227 998 2227 736 
Q 2227 416 1961 176 
Q 1696 -64 1331 -64 
Q 1030 -64 864 -6 
Q 691 51 570 51 
Q 461 51 416 -26 
L 333 -26 
L 333 979 
L 435 979 
Q 538 512 730 294 
Q 922 77 1248 77 
Q 1485 77 1632 211 
Q 1779 346 1779 550 
Q 1779 845 1440 1030 
L 1094 1222 
Q 326 1651 326 2150 
Q 326 2522 566 2730 
Q 806 2938 1210 2938 
Q 1491 2938 1638 2867 
Q 1754 2816 1818 2816 
Q 1862 2816 1920 2880 
L 1990 2880 
L 2022 2010 
L 1926 2010 
Q 1818 2445 1654 2621 
Q 1491 2797 1203 2797 
Q 986 2797 854 2688 
Q 723 2579 723 2362 
Q 723 2253 796 2128 
Q 870 2003 998 1926 
z
" transform="scale(0.015625)"/>
      <path id="STIXGeneral-Regular-2d" d="M 1824 1242 
L 250 1242 
L 250 1645 
L 1824 1645 
L 1824 1242 
z
" transform="scale(0.015625)"/>
      <path id="STIXGeneral-Regular-4f" d="M 4403 2118 
Q 4403 1133 3820 521 
Q 3238 -90 2310 -90 
Q 1376 -90 797 524 
Q 218 1139 218 2138 
Q 218 3110 797 3718 
Q 1376 4326 2310 4326 
Q 3245 4326 3824 3702 
Q 4403 3078 4403 2118 
z
M 3674 2157 
Q 3674 2701 3520 3133 
Q 3366 3565 3091 3795 
Q 2733 4096 2304 4096 
Q 1760 4096 1389 3667 
Q 1184 3437 1065 3011 
Q 947 2586 947 2125 
Q 947 960 1523 429 
Q 1837 141 2317 141 
Q 2816 141 3142 448 
Q 3674 960 3674 2157 
z
" transform="scale(0.015625)"/>
      <path id="STIXGeneral-Regular-43" d="M 3930 838 
L 4051 723 
Q 3482 -90 2304 -90 
Q 1376 -90 794 480 
Q 179 1082 179 2080 
Q 179 3014 755 3661 
Q 1357 4326 2310 4326 
Q 2720 4326 3072 4230 
Q 3475 4115 3514 4115 
Q 3725 4115 3782 4326 
L 3910 4326 
L 3968 2874 
L 3821 2874 
Q 3718 3334 3488 3584 
Q 3034 4070 2458 4070 
Q 1747 4070 1334 3548 
Q 922 3027 922 2182 
Q 922 1152 1382 653 
Q 1811 192 2522 192 
Q 2944 192 3251 339 
Q 3558 486 3930 838 
z
" transform="scale(0.015625)"/>
      <path id="STIXGeneral-Regular-68" d="M 3117 0 
L 1760 0 
L 1760 96 
Q 2042 128 2118 224 
Q 2195 320 2195 653 
L 2195 1920 
Q 2195 2598 1722 2598 
Q 1530 2598 1370 2508 
Q 1210 2419 1005 2195 
L 1005 653 
Q 1005 320 1081 224 
Q 1158 128 1440 96 
L 1440 0 
L 58 0 
L 58 96 
Q 333 134 400 224 
Q 467 314 467 653 
L 467 3667 
Q 467 3872 406 3933 
Q 346 3994 141 3994 
Q 83 3994 64 3987 
L 64 4090 
L 237 4141 
Q 730 4288 973 4371 
L 1005 4352 
L 1005 2406 
Q 1229 2694 1446 2819 
Q 1664 2944 1946 2944 
Q 2733 2944 2733 1926 
L 2733 653 
Q 2733 320 2793 233 
Q 2854 147 3117 96 
L 3117 0 
z
" transform="scale(0.015625)"/>
      <path id="STIXGeneral-Regular-44" d="M 102 4237 
L 1830 4237 
Q 3078 4237 3750 3654 
Q 4384 3110 4384 2138 
Q 4384 966 3514 410 
Q 2880 0 1901 0 
L 102 0 
L 102 122 
Q 474 147 570 252 
Q 666 358 666 736 
L 666 3520 
Q 666 3891 570 3990 
Q 474 4090 102 4115 
L 102 4237 
z
M 1318 3731 
L 1318 538 
Q 1318 365 1379 301 
Q 1440 237 1626 237 
Q 2125 237 2432 307 
Q 2739 378 3021 570 
Q 3686 1018 3686 2099 
Q 3686 3027 3078 3558 
Q 2803 3802 2476 3901 
Q 2150 4000 1658 4000 
Q 1472 4000 1395 3942 
Q 1318 3885 1318 3731 
z
" transform="scale(0.015625)"/>
      <path id="STIXGeneral-Regular-76" d="M 3053 2880 
L 3053 2784 
Q 2906 2771 2835 2688 
Q 2765 2605 2637 2285 
L 1818 230 
Q 1690 -90 1638 -90 
Q 1587 -90 1523 77 
Q 1510 96 1497 141 
Q 1485 186 1472 211 
L 704 2048 
Q 499 2534 403 2652 
Q 307 2771 122 2784 
L 122 2880 
L 1376 2880 
L 1376 2784 
Q 1210 2771 1146 2732 
Q 1082 2694 1082 2611 
Q 1082 2509 1139 2368 
L 1792 730 
L 2426 2387 
Q 2464 2483 2464 2579 
Q 2464 2758 2163 2784 
L 2163 2880 
L 3053 2880 
z
" transform="scale(0.015625)"/>
      <path id="STIXGeneral-Regular-54" d="M 3795 3149 
L 3642 3149 
Q 3539 3674 3353 3821 
Q 3168 3968 2656 3968 
L 2278 3968 
L 2278 710 
Q 2278 346 2387 243 
Q 2496 141 2893 122 
L 2893 0 
L 1024 0 
L 1024 122 
Q 1427 147 1526 256 
Q 1626 365 1626 787 
L 1626 3968 
L 1242 3968 
Q 723 3968 540 3817 
Q 358 3667 262 3149 
L 109 3149 
L 154 4237 
L 3750 4237 
L 3795 3149 
z
" transform="scale(0.015625)"/>
      <path id="STIXGeneral-Regular-28" d="M 1946 -1030 
L 1869 -1133 
Q 1126 -710 716 32 
Q 307 774 307 1613 
Q 307 3386 1888 4326 
L 1946 4224 
Q 1293 3667 1075 3126 
Q 858 2586 858 1632 
Q 858 685 1082 96 
Q 1306 -493 1946 -1030 
z
" transform="scale(0.015625)"/>
      <path id="Cmmi10-ae" d="M 1288 -72 
Q 984 -72 748 72 
Q 513 216 384 459 
Q 256 703 256 1013 
Q 256 1447 498 1872 
Q 741 2297 1142 2562 
Q 1544 2828 1984 2828 
Q 2309 2828 2556 2658 
Q 2803 2488 2931 2205 
Q 3059 1922 3059 1600 
L 3066 1172 
Q 3284 1475 3436 1801 
Q 3588 2128 3669 2478 
Q 3681 2516 3719 2516 
L 3794 2516 
Q 3853 2516 3853 2456 
Q 3853 2450 3847 2438 
Q 3772 2144 3659 1873 
Q 3547 1603 3395 1350 
Q 3244 1097 3066 891 
Q 3066 97 3250 97 
Q 3369 97 3445 167 
Q 3522 238 3580 341 
Q 3638 444 3653 447 
L 3731 447 
Q 3781 447 3781 384 
Q 3781 225 3598 76 
Q 3416 -72 3238 -72 
Q 3006 -72 2853 78 
Q 2700 228 2644 469 
Q 2344 213 1994 70 
Q 1644 -72 1288 -72 
z
M 1300 97 
Q 1984 97 2613 659 
Q 2609 697 2603 751 
Q 2597 806 2597 813 
L 2597 1503 
Q 2597 2663 1972 2663 
Q 1597 2663 1315 2342 
Q 1034 2022 892 1576 
Q 750 1131 750 763 
Q 750 484 892 290 
Q 1034 97 1300 97 
z
" transform="scale(0.015625)"/>
      <path id="Cmr10-3d" d="M 481 850 
Q 428 850 393 890 
Q 359 931 359 978 
Q 359 1031 393 1068 
Q 428 1106 481 1106 
L 4500 1106 
Q 4547 1106 4581 1068 
Q 4616 1031 4616 978 
Q 4616 931 4581 890 
Q 4547 850 4500 850 
L 481 850 
z
M 481 2094 
Q 428 2094 393 2131 
Q 359 2169 359 2222 
Q 359 2269 393 2309 
Q 428 2350 481 2350 
L 4500 2350 
Q 4547 2350 4581 2309 
Q 4616 2269 4616 2222 
Q 4616 2169 4581 2131 
Q 4547 2094 4500 2094 
L 481 2094 
z
" transform="scale(0.015625)"/>
      <path id="Cmex10-ae" d="M 500 -7297 
Q 500 -7263 513 -7250 
L 2119 -3584 
L 513 84 
Q 500 97 500 128 
Q 500 175 537 215 
Q 575 256 628 256 
Q 703 256 750 178 
L 2381 -3541 
Q 2388 -3553 2388 -3584 
Q 2388 -3616 2381 -3634 
L 750 -7347 
Q 700 -7425 628 -7425 
Q 575 -7425 537 -7384 
Q 500 -7344 500 -7297 
z
" transform="scale(0.015625)"/>
      <path id="STIXGeneral-Regular-2c" d="M 531 -902 
L 467 -781 
Q 998 -422 998 -96 
Q 998 -13 909 -13 
Q 883 -13 822 -25 
Q 762 -38 723 -38 
Q 352 -38 352 288 
Q 352 454 457 553 
Q 563 653 736 653 
Q 954 653 1101 496 
Q 1248 339 1248 96 
Q 1248 -198 1053 -473 
Q 858 -749 531 -902 
z
" transform="scale(0.015625)"/>
      <path id="Cmmi10-55" d="M 941 891 
Q 941 656 1033 472 
Q 1125 288 1300 186 
Q 1475 84 1709 84 
Q 1984 84 2245 196 
Q 2506 309 2715 509 
Q 2925 709 3073 965 
Q 3222 1222 3284 1472 
L 3859 3781 
Q 3872 3850 3872 3878 
Q 3872 4147 3378 4147 
Q 3316 4147 3316 4231 
Q 3338 4313 3350 4342 
Q 3363 4372 3425 4372 
L 4813 4372 
Q 4841 4372 4859 4344 
Q 4878 4316 4878 4288 
Q 4878 4284 4865 4239 
Q 4853 4194 4836 4170 
Q 4819 4147 4794 4147 
Q 4181 4147 4084 3756 
L 3506 1447 
Q 3434 1147 3264 864 
Q 3094 581 2845 351 
Q 2597 122 2298 -9 
Q 2000 -141 1691 -141 
Q 1338 -141 1045 14 
Q 753 169 587 447 
Q 422 725 422 1088 
Q 422 1297 469 1472 
L 1088 3956 
Q 1100 4019 1100 4044 
Q 1100 4113 1025 4122 
Q 903 4147 563 4147 
Q 500 4147 500 4231 
Q 522 4313 534 4342 
Q 547 4372 609 4372 
L 2328 4372 
Q 2394 4372 2394 4288 
Q 2391 4272 2381 4234 
Q 2372 4197 2356 4172 
Q 2341 4147 2309 4147 
Q 1919 4147 1766 4103 
Q 1681 4072 1644 3928 
L 1025 1447 
Q 941 1109 941 891 
z
" transform="scale(0.015625)"/>
      <path id="Cmr10-30" d="M 1600 -141 
Q 816 -141 533 504 
Q 250 1150 250 2041 
Q 250 2597 351 3087 
Q 453 3578 754 3920 
Q 1056 4263 1600 4263 
Q 2022 4263 2290 4056 
Q 2559 3850 2700 3523 
Q 2841 3197 2892 2823 
Q 2944 2450 2944 2041 
Q 2944 1491 2842 1011 
Q 2741 531 2444 195 
Q 2147 -141 1600 -141 
z
M 1600 25 
Q 1956 25 2131 390 
Q 2306 756 2347 1200 
Q 2388 1644 2388 2144 
Q 2388 2625 2347 3031 
Q 2306 3438 2132 3767 
Q 1959 4097 1600 4097 
Q 1238 4097 1063 3765 
Q 888 3434 847 3029 
Q 806 2625 806 2144 
Q 806 1788 823 1472 
Q 841 1156 916 820 
Q 991 484 1158 254 
Q 1325 25 1600 25 
z
" transform="scale(0.015625)"/>
      <path id="STIXGeneral-Regular-29" d="M 186 4224 
L 262 4326 
Q 992 3891 1408 3148 
Q 1824 2406 1824 1581 
Q 1824 -166 243 -1133 
L 186 -1030 
Q 845 -486 1059 54 
Q 1274 595 1274 1562 
Q 1274 2534 1059 3120 
Q 845 3706 186 4224 
z
" transform="scale(0.015625)"/>
     </defs>
     <use xlink:href="#STIXGeneral-Regular-46" transform="translate(0 0.658854)"/>
     <use xlink:href="#STIXGeneral-Regular-69" transform="translate(55.599991 0.658854)"/>
     <use xlink:href="#STIXGeneral-Regular-72" transform="translate(83.399979 0.658854)"/>
     <use xlink:href="#STIXGeneral-Regular-73" transform="translate(116.699966 0.658854)"/>
     <use xlink:href="#STIXGeneral-Regular-74" transform="translate(155.59996 0.658854)"/>
     <use xlink:href="#STIXGeneral-Regular-2d" transform="translate(183.399948 0.658854)"/>
     <use xlink:href="#STIXGeneral-Regular-4f" transform="translate(216.699936 0.658854)"/>
     <use xlink:href="#STIXGeneral-Regular-72" transform="translate(288.899918 0.658854)"/>
     <use xlink:href="#STIXGeneral-Regular-64" transform="translate(322.199905 0.658854)"/>
     <use xlink:href="#STIXGeneral-Regular-65" transform="translate(372.19989 0.658854)"/>
     <use xlink:href="#STIXGeneral-Regular-72" transform="translate(416.599884 0.658854)"/>
     <use xlink:href="#STIXGeneral-Regular-20" transform="translate(449.899872 0.658854)"/>
     <use xlink:href="#STIXGeneral-Regular-43" transform="translate(474.899857 0.658854)"/>
     <use xlink:href="#STIXGeneral-Regular-6f" transform="translate(541.599854 0.658854)"/>
     <use xlink:href="#STIXGeneral-Regular-68" transform="translate(591.599838 0.658854)"/>
     <use xlink:href="#STIXGeneral-Regular-65" transform="translate(641.599823 0.658854)"/>
     <use xlink:href="#STIXGeneral-Regular-72" transform="translate(685.999817 0.658854)"/>
     <use xlink:href="#STIXGeneral-Regular-65" transform="translate(719.299805 0.658854)"/>
     <use xlink:href="#STIXGeneral-Regular-6e" transform="translate(763.699799 0.658854)"/>
     <use xlink:href="#STIXGeneral-Regular-63" transform="translate(813.699783 0.658854)"/>
     <use xlink:href="#STIXGeneral-Regular-65" transform="translate(858.099777 0.658854)"/>
     <use xlink:href="#STIXGeneral-Regular-20" transform="translate(902.499771 0.658854)"/>
     <use xlink:href="#STIXGeneral-Regular-44" transform="translate(927.499756 0.658854)"/>
     <use xlink:href="#STIXGeneral-Regular-69" transform="translate(999.699738 0.658854)"/>
     <use xlink:href="#STIXGeneral-Regular-66" transform="translate(1027.499725 0.658854)"/>
     <use xlink:href="#STIXGeneral-Regular-66" transform="translate(1060.799713 0.658854)"/>
     <use xlink:href="#STIXGeneral-Regular-65" transform="translate(1094.099701 0.658854)"/>
     <use xlink:href="#STIXGeneral-Regular-72" transform="translate(1138.499695 0.658854)"/>
     <use xlink:href="#STIXGeneral-Regular-65" transform="translate(1171.799683 0.658854)"/>
     <use xlink:href="#STIXGeneral-Regular-6e" transform="translate(1216.199677 0.658854)"/>
     <use xlink:href="#STIXGeneral-Regular-63" transform="translate(1266.199661 0.658854)"/>
     <use xlink:href="#STIXGeneral-Regular-65" transform="translate(1310.599655 0.658854)"/>
     <use xlink:href="#STIXGeneral-Regular-20" transform="translate(1354.999649 0.658854)"/>
     <use xlink:href="#Cmsy10-6a" transform="translate(1379.999634 0.658854)"/>
     <use xlink:href="#Cmmi10-67" transform="translate(1407.685181 0.658854)"/>
     <use xlink:href="#Cmr10-31" transform="translate(1455.390259 -16.347396) scale(0.7)"/>
     <use xlink:href="#Cmsy10-6a" transform="translate(1496.767603 0.658854)"/>
     <use xlink:href="#STIXGeneral-Regular-20" transform="translate(1524.453149 0.658854)"/>
     <use xlink:href="#STIXGeneral-Regular-76" transform="translate(1549.453134 0.658854)"/>
     <use xlink:href="#STIXGeneral-Regular-73" transform="translate(1599.453119 0.658854)"/>
     <use xlink:href="#STIXGeneral-Regular-20" transform="translate(1638.353113 0.658854)"/>
     <use xlink:href="#STIXGeneral-Regular-54" transform="translate(1663.353098 0.658854)"/>
     <use xlink:href="#STIXGeneral-Regular-69" transform="translate(1724.453088 0.658854)"/>
     <use xlink:href="#STIXGeneral-Regular-6d" transform="translate(1752.253076 0.658854)"/>
     <use xlink:href="#STIXGeneral-Regular-65" transform="translate(1830.053064 0.658854)"/>
     <use xlink:href="#STIXGeneral-Regular-20" transform="translate(1874.453058 0.658854)"/>
     <use xlink:href="#STIXGeneral-Regular-28" transform="translate(1899.453043 0.658854)"/>
     <use xlink:href="#Cmsy10-6a" transform="translate(1932.75303 0.658854)"/>
     <use xlink:href="#Cmmi10-ae" transform="translate(1960.438577 0.658854)"/>
     <use xlink:href="#Cmr10-3d" transform="translate(2041.913187 0.658854)"/>
     <use xlink:href="#Cmr10-31" transform="translate(2137.157327 0.658854)"/>
     <use xlink:href="#Cmex10-ae" transform="translate(2187.157327 94)"/>
     <use xlink:href="#STIXGeneral-Regular-2c" transform="translate(2234.374124 0.658854)"/>
     <use xlink:href="#STIXGeneral-Regular-20" transform="translate(2259.374109 0.658854)"/>
     <use xlink:href="#Cmmi10-55" transform="translate(2284.374094 0.658854)"/>
     <use xlink:href="#Cmr10-3d" transform="translate(2370.145578 0.658854)"/>
     <use xlink:href="#Cmr10-30" transform="translate(2465.389719 0.658854)"/>
     <use xlink:href="#STIXGeneral-Regular-2c" transform="translate(2515.389719 0.658854)"/>
     <use xlink:href="#STIXGeneral-Regular-20" transform="translate(2540.389703 0.658854)"/>
     <use xlink:href="#Cmmi10-b0" transform="translate(2565.389688 0.658854)"/>
     <use xlink:href="#Cmr10-3d" transform="translate(2634.657266 0.658854)"/>
     <use xlink:href="#Cmr10-31" transform="translate(2729.901407 0.658854)"/>
     <use xlink:href="#STIXGeneral-Regular-29" transform="translate(2779.901407 0.658854)"/>
    </g>
   </g>
   <g id="line2d_132">
    <path d="M 67.402727 287.600994 
L 72.805182 279.298718 
L 79.196818 269.850322 
L 85.664545 260.684961 
L 92.132273 251.900966 
L 98.676091 243.385542 
L 105.296 235.135719 
L 111.992 227.148263 
L 118.688 219.504635 
L 125.460091 212.10875 
L 132.308273 204.957058 
L 139.232545 198.045808 
L 146.232909 191.371058 
L 153.309364 184.928702 
L 160.461909 178.714473 
L 167.766636 172.662411 
L 175.147455 166.835343 
L 182.680455 161.172496 
L 190.289545 155.730047 
L 198.050818 150.452107 
L 205.964273 145.340783 
L 214.029909 140.39759 
L 222.247727 135.623478 
L 230.617727 131.01885 
L 239.139909 126.583594 
L 247.890364 122.280755 
L 256.869091 118.115466 
L 266 114.124246 
L 275.435273 110.244007 
L 285.098818 106.511573 
L 295.066727 102.902029 
L 305.262909 99.446478 
L 315.839545 96.098421 
L 326.720545 92.888449 
L 337.982 89.799299 
L 349.623909 86.837222 
L 361.722364 83.989902 
L 374.277364 81.264979 
L 387.365 78.653906 
L 400.985273 76.164782 
L 415.214273 73.791703 
L 430.128091 71.531463 
L 445.802818 69.382955 
L 447.857273 69.117404 
L 447.857273 69.117404 
" clip-path="url(#p97b3527758)" style="fill: none; stroke: #1f77b4; stroke-width: 2.6; stroke-linecap: square"/>
   </g>
   <g id="legend_1">
    <g id="line2d_133">
     <path d="M 359.265625 277.441281 
L 370.265625 277.441281 
L 381.265625 277.441281 
" style="fill: none; stroke: #1f77b4; stroke-width: 2.6; stroke-linecap: square"/>
    </g>
    <g id="text_17">
     <!-- Density Matrix -->
     <g transform="translate(390.065625 281.291281) scale(0.11 -0.11)">
      <defs>
       <path id="STIXGeneral-Regular-79" d="M 3040 2880 
L 3040 2784 
Q 2925 2771 2854 2700 
Q 2784 2630 2720 2458 
L 1760 -160 
Q 1510 -838 1257 -1116 
Q 1005 -1395 640 -1395 
Q 435 -1395 313 -1289 
Q 192 -1184 192 -1024 
Q 192 -902 272 -816 
Q 352 -730 467 -730 
Q 653 -730 800 -813 
Q 883 -858 966 -858 
Q 1101 -858 1286 -576 
Q 1376 -448 1459 -211 
Q 1542 26 1542 115 
Q 1542 198 1274 762 
L 429 2566 
Q 346 2752 90 2790 
L 90 2880 
L 1402 2880 
L 1402 2784 
Q 1197 2778 1117 2739 
Q 1037 2701 1037 2611 
Q 1037 2541 1120 2349 
L 1837 749 
L 2458 2515 
Q 2483 2573 2483 2630 
Q 2483 2784 2189 2784 
L 2189 2880 
L 3040 2880 
z
" transform="scale(0.015625)"/>
       <path id="STIXGeneral-Regular-4d" d="M 5530 0 
L 3738 0 
L 3738 122 
Q 4115 147 4214 265 
Q 4314 384 4314 787 
L 4314 3661 
L 2682 0 
L 2592 0 
L 979 3514 
L 979 966 
Q 979 448 1088 294 
Q 1197 141 1574 122 
L 1574 0 
L 77 0 
L 77 122 
Q 358 141 480 205 
Q 602 269 650 432 
Q 698 595 698 966 
L 698 3514 
Q 698 3878 589 3984 
Q 480 4090 90 4115 
L 90 4237 
L 1357 4237 
L 2835 1024 
L 4250 4237 
L 5523 4237 
L 5523 4115 
Q 5178 4109 5072 3993 
Q 4966 3878 4966 3520 
L 4966 717 
Q 4966 378 5072 262 
Q 5178 147 5530 122 
L 5530 0 
z
" transform="scale(0.015625)"/>
      </defs>
      <use xlink:href="#STIXGeneral-Regular-44"/>
      <use xlink:href="#STIXGeneral-Regular-65" transform="translate(72.199982 0)"/>
      <use xlink:href="#STIXGeneral-Regular-6e" transform="translate(116.599976 0)"/>
      <use xlink:href="#STIXGeneral-Regular-73" transform="translate(166.59996 0)"/>
      <use xlink:href="#STIXGeneral-Regular-69" transform="translate(205.499954 0)"/>
      <use xlink:href="#STIXGeneral-Regular-74" transform="translate(233.299942 0)"/>
      <use xlink:href="#STIXGeneral-Regular-79" transform="translate(261.09993 0)"/>
      <use xlink:href="#STIXGeneral-Regular-20" transform="translate(311.099915 0)"/>
      <use xlink:href="#STIXGeneral-Regular-4d" transform="translate(336.099899 0)"/>
      <use xlink:href="#STIXGeneral-Regular-61" transform="translate(424.999893 0)"/>
      <use xlink:href="#STIXGeneral-Regular-74" transform="translate(469.399887 0)"/>
      <use xlink:href="#STIXGeneral-Regular-72" transform="translate(497.199875 0)"/>
      <use xlink:href="#STIXGeneral-Regular-69" transform="translate(530.499863 0)"/>
      <use xlink:href="#STIXGeneral-Regular-78" transform="translate(558.29985 0)"/>
     </g>
    </g>
    <g id="line2d_134">
     <path d="M 359.265625 293.038937 
L 370.265625 293.038937 
L 381.265625 293.038937 
" style="fill: none; stroke: #ff7f0e; stroke-width: 2.5; stroke-linecap: square"/>
    </g>
    <g id="text_18">
     <!-- Monte Carlo -->
     <g transform="translate(390.065625 296.888937) scale(0.11 -0.11)">
      <defs>
       <path id="STIXGeneral-Regular-6c" d="M 1645 0 
L 134 0 
L 134 96 
Q 435 122 531 221 
Q 627 320 627 589 
L 627 3590 
Q 627 3821 569 3910 
Q 512 4000 358 4000 
Q 224 4000 122 3987 
L 122 4090 
Q 730 4237 1133 4371 
L 1165 4346 
L 1165 557 
Q 1165 288 1254 201 
Q 1344 115 1645 96 
L 1645 0 
z
" transform="scale(0.015625)"/>
      </defs>
      <use xlink:href="#STIXGeneral-Regular-4d"/>
      <use xlink:href="#STIXGeneral-Regular-6f" transform="translate(88.899994 0)"/>
      <use xlink:href="#STIXGeneral-Regular-6e" transform="translate(138.899979 0)"/>
      <use xlink:href="#STIXGeneral-Regular-74" transform="translate(188.899963 0)"/>
      <use xlink:href="#STIXGeneral-Regular-65" transform="translate(216.699951 0)"/>
      <use xlink:href="#STIXGeneral-Regular-20" transform="translate(261.099945 0)"/>
      <use xlink:href="#STIXGeneral-Regular-43" transform="translate(286.09993 0)"/>
      <use xlink:href="#STIXGeneral-Regular-61" transform="translate(352.799927 0)"/>
      <use xlink:href="#STIXGeneral-Regular-72" transform="translate(397.199921 0)"/>
      <use xlink:href="#STIXGeneral-Regular-6c" transform="translate(430.499908 0)"/>
      <use xlink:href="#STIXGeneral-Regular-6f" transform="translate(458.299896 0)"/>
     </g>
    </g>
    <g id="line2d_135">
     <path d="M 359.265625 308.626281 
L 370.265625 308.626281 
L 381.265625 308.626281 
" style="fill: none; stroke: #2ca02c; stroke-width: 2.7; stroke-linecap: square"/>
    </g>
    <g id="text_19">
     <!-- Positive-P -->
     <g transform="translate(390.065625 312.476281) scale(0.11 -0.11)">
      <defs>
       <path id="STIXGeneral-Regular-50" d="M 102 4237 
L 1760 4237 
Q 2669 4237 3149 3834 
Q 3469 3565 3469 3072 
Q 3469 2560 3104 2234 
Q 2835 1990 2553 1916 
Q 2272 1843 1734 1843 
Q 1549 1843 1293 1862 
L 1293 717 
Q 1293 352 1398 246 
Q 1504 141 1894 122 
L 1894 0 
L 102 0 
L 102 122 
Q 474 147 557 256 
Q 640 365 640 781 
L 640 3526 
Q 640 3885 547 3987 
Q 454 4090 102 4115 
L 102 4237 
z
M 1293 3770 
L 1293 2118 
Q 1510 2099 1683 2099 
Q 2202 2099 2486 2352 
Q 2771 2605 2771 3040 
Q 2771 3558 2476 3779 
Q 2182 4000 1517 4000 
Q 1382 4000 1337 3952 
Q 1293 3904 1293 3770 
z
" transform="scale(0.015625)"/>
      </defs>
      <use xlink:href="#STIXGeneral-Regular-50"/>
      <use xlink:href="#STIXGeneral-Regular-6f" transform="translate(55.699997 0)"/>
      <use xlink:href="#STIXGeneral-Regular-73" transform="translate(105.699982 0)"/>
      <use xlink:href="#STIXGeneral-Regular-69" transform="translate(144.599976 0)"/>
      <use xlink:href="#STIXGeneral-Regular-74" transform="translate(172.399963 0)"/>
      <use xlink:href="#STIXGeneral-Regular-69" transform="translate(200.199951 0)"/>
      <use xlink:href="#STIXGeneral-Regular-76" transform="translate(227.999939 0)"/>
      <use xlink:href="#STIXGeneral-Regular-65" transform="translate(277.999924 0)"/>
      <use xlink:href="#STIXGeneral-Regular-2d" transform="translate(322.399918 0)"/>
      <use xlink:href="#STIXGeneral-Regular-50" transform="translate(355.699905 0)"/>
     </g>
    </g>
   </g>
  </g>
 </g>
 <defs>
  <clipPath id="p97b3527758">
   <rect x="48.38" y="36.475625" width="418.5" height="288.288"/>
  </clipPath>
 </defs>
</svg>
