<?xml version="1.0" encoding="utf-8" standalone="no"?>
<!DOCTYPE svg PUBLIC "-//W3C//DTD SVG 1.1//EN"
  "http://www.w3.org/Graphics/SVG/1.1/DTD/svg11.dtd">
<svg xmlns:xlink="http://www.w3.org/1999/xlink" width="481.08pt" height="348.068pt" viewBox="0 0 481.08 348.068" xmlns="http://www.w3.org/2000/svg" version="1.1">
 <metadata>
  <rdf:RDF xmlns:dc="http://purl.org/dc/elements/1.1/" xmlns:cc="http://creativecommons.org/ns#" xmlns:rdf="http://www.w3.org/1999/02/22-rdf-syntax-ns#">
   <cc:Work>
    <dc:type rdf:resource="http://purl.org/dc/dcmitype/StillImage"/>
    <dc:date>2026-04-16T02:26:56.839063</dc:date>
    <dc:format>image/svg+xml</dc:format>
    <dc:creator>
     <cc:Agent>
      <dc:title>Matplotlib v3.10.8, https://matplotlib.org/</dc:title>
     </cc:Agent>
    </dc:creator>
   </cc:Work>
  </rdf:RDF>
 </metadata>
 <defs>
  <style type="text/css">*{stroke-linejoin: round; stroke-linecap: butt}</style>
 </defs>
 <g id="figure_1">
  <g id="patch_1">
   <path d="M -0 348.068 
L 481.08 348.068 
L 481.08 0 
L -0 0 
z
" style="fill: #ffffff"/>
  </g>
  <g id="axes_1">
   <g id="patch_2">
    <path d="M 58.98 313.568 
L 477.48 313.568 
L 477.48 25.28 
L 58.98 25.28 
z
" style="fill: #ffffff"/>
   </g>
   <g id="matplotlib.axis_1">
    <g id="xtick_1">
     <g id="line2d_1">
      <path d="M 78.002727 313.568 
L 78.002727 25.28 
" clip-path="url(#pe7230ff116)" style="fill: none; stroke: #b0b0b0; stroke-opacity: 0.35; stroke-width: 0.5; stroke-linecap: square"/>
     </g>
     <g id="line2d_2">
      <defs>
       <path id="m2a6b70f6b0" d="M 0 0 
L 0 -3 
" style="stroke: #000000; stroke-width: 0.5"/>
      </defs>
      <g>
       <use xlink:href="#m2a6b70f6b0" x="78.002727" y="313.568" style="stroke: #000000; stroke-width: 0.5"/>
      </g>
     </g>
     <g id="line2d_3">
      <defs>
       <path id="mc62fb9f078" d="M 0 0 
L 0 3 
" style="stroke: #000000; stroke-width: 0.5"/>
      </defs>
      <g>
       <use xlink:href="#mc62fb9f078" x="78.002727" y="25.28" style="stroke: #000000; stroke-width: 0.5"/>
      </g>
     </g>
     <g id="text_1">
      <!-- $\mathdefault{0}$ -->
      <g transform="translate(75.002727 325.263625) scale(0.12 -0.12)">
       <defs>
        <path id="STIXGeneral-Regular-30" d="M 3046 2112 
Q 3046 1683 2963 1302 
Q 2880 922 2717 602 
Q 2554 282 2266 96 
Q 1978 -90 1600 -90 
Q 1210 -90 915 108 
Q 621 307 461 640 
Q 301 973 227 1350 
Q 154 1728 154 2150 
Q 154 2746 301 3222 
Q 448 3699 790 4012 
Q 1133 4326 1626 4326 
Q 2253 4326 2649 3712 
Q 3046 3098 3046 2112 
z
M 2432 2080 
Q 2432 3091 2217 3625 
Q 2003 4160 1587 4160 
Q 1190 4160 979 3622 
Q 768 3085 768 2106 
Q 768 1120 979 598 
Q 1190 77 1600 77 
Q 2003 77 2217 598 
Q 2432 1120 2432 2080 
z
" transform="scale(0.015625)"/>
       </defs>
       <use xlink:href="#STIXGeneral-Regular-30" transform="translate(0 0.40625)"/>
      </g>
     </g>
    </g>
    <g id="xtick_2">
     <g id="line2d_4">
      <path d="M 154.093636 313.568 
L 154.093636 25.28 
" clip-path="url(#pe7230ff116)" style="fill: none; stroke: #b0b0b0; stroke-opacity: 0.35; stroke-width: 0.5; stroke-linecap: square"/>
     </g>
     <g id="line2d_5">
      <g>
       <use xlink:href="#m2a6b70f6b0" x="154.093636" y="313.568" style="stroke: #000000; stroke-width: 0.5"/>
      </g>
     </g>
     <g id="line2d_6">
      <g>
       <use xlink:href="#mc62fb9f078" x="154.093636" y="25.28" style="stroke: #000000; stroke-width: 0.5"/>
      </g>
     </g>
     <g id="text_2">
      <!-- $\mathdefault{1}$ -->
      <g transform="translate(151.093636 325.263625) scale(0.12 -0.12)">
       <defs>
        <path id="STIXGeneral-Regular-31" d="M 2522 0 
L 755 0 
L 755 96 
Q 1107 115 1235 227 
Q 1363 339 1363 608 
L 1363 3482 
Q 1363 3795 1171 3795 
Q 1082 3795 883 3718 
L 710 3654 
L 710 3744 
L 1856 4326 
L 1914 4307 
L 1914 486 
Q 1914 275 2042 185 
Q 2170 96 2522 96 
L 2522 0 
z
" transform="scale(0.015625)"/>
       </defs>
       <use xlink:href="#STIXGeneral-Regular-31" transform="translate(0 0.40625)"/>
      </g>
     </g>
    </g>
    <g id="xtick_3">
     <g id="line2d_7">
      <path d="M 230.184545 313.568 
L 230.184545 25.28 
" clip-path="url(#pe7230ff116)" style="fill: none; stroke: #b0b0b0; stroke-opacity: 0.35; stroke-width: 0.5; stroke-linecap: square"/>
     </g>
     <g id="line2d_8">
      <g>
       <use xlink:href="#m2a6b70f6b0" x="230.184545" y="313.568" style="stroke: #000000; stroke-width: 0.5"/>
      </g>
     </g>
     <g id="line2d_9">
      <g>
       <use xlink:href="#mc62fb9f078" x="230.184545" y="25.28" style="stroke: #000000; stroke-width: 0.5"/>
      </g>
     </g>
     <g id="text_3">
      <!-- $\mathdefault{2}$ -->
      <g transform="translate(227.184545 325.263625) scale(0.12 -0.12)">
       <defs>
        <path id="STIXGeneral-Regular-32" d="M 3034 877 
L 2688 0 
L 186 0 
L 186 77 
L 1325 1286 
Q 1773 1754 1965 2144 
Q 2157 2534 2157 2950 
Q 2157 3379 1920 3616 
Q 1683 3853 1267 3853 
Q 922 3853 720 3673 
Q 518 3494 326 3021 
L 192 3053 
Q 301 3648 630 3987 
Q 960 4326 1523 4326 
Q 2054 4326 2380 4006 
Q 2707 3686 2707 3200 
Q 2707 2477 1888 1613 
L 832 486 
L 2330 486 
Q 2541 486 2665 569 
Q 2790 653 2944 915 
L 3034 877 
z
" transform="scale(0.015625)"/>
       </defs>
       <use xlink:href="#STIXGeneral-Regular-32" transform="translate(0 0.40625)"/>
      </g>
     </g>
    </g>
    <g id="xtick_4">
     <g id="line2d_10">
      <path d="M 306.275455 313.568 
L 306.275455 25.28 
" clip-path="url(#pe7230ff116)" style="fill: none; stroke: #b0b0b0; stroke-opacity: 0.35; stroke-width: 0.5; stroke-linecap: square"/>
     </g>
     <g id="line2d_11">
      <g>
       <use xlink:href="#m2a6b70f6b0" x="306.275455" y="313.568" style="stroke: #000000; stroke-width: 0.5"/>
      </g>
     </g>
     <g id="line2d_12">
      <g>
       <use xlink:href="#mc62fb9f078" x="306.275455" y="25.28" style="stroke: #000000; stroke-width: 0.5"/>
      </g>
     </g>
     <g id="text_4">
      <!-- $\mathdefault{3}$ -->
      <g transform="translate(303.275455 325.263625) scale(0.12 -0.12)">
       <defs>
        <path id="STIXGeneral-Regular-33" d="M 390 3264 
L 288 3290 
Q 435 3770 748 4048 
Q 1062 4326 1542 4326 
Q 1990 4326 2265 4083 
Q 2541 3840 2541 3450 
Q 2541 2925 1946 2566 
Q 2298 2413 2477 2227 
Q 2758 1914 2758 1402 
Q 2758 890 2464 506 
Q 2246 211 1840 60 
Q 1434 -90 979 -90 
Q 262 -90 262 275 
Q 262 378 339 442 
Q 416 506 525 506 
Q 685 506 915 339 
Q 1197 141 1466 141 
Q 1818 141 2058 425 
Q 2298 710 2298 1120 
Q 2298 1856 1632 2048 
Q 1434 2112 979 2112 
L 979 2202 
Q 1338 2323 1517 2432 
Q 2035 2726 2035 3290 
Q 2035 3610 1852 3776 
Q 1670 3942 1344 3942 
Q 768 3942 390 3264 
z
" transform="scale(0.015625)"/>
       </defs>
       <use xlink:href="#STIXGeneral-Regular-33" transform="translate(0 0.40625)"/>
      </g>
     </g>
    </g>
    <g id="xtick_5">
     <g id="line2d_13">
      <path d="M 382.366364 313.568 
L 382.366364 25.28 
" clip-path="url(#pe7230ff116)" style="fill: none; stroke: #b0b0b0; stroke-opacity: 0.35; stroke-width: 0.5; stroke-linecap: square"/>
     </g>
     <g id="line2d_14">
      <g>
       <use xlink:href="#m2a6b70f6b0" x="382.366364" y="313.568" style="stroke: #000000; stroke-width: 0.5"/>
      </g>
     </g>
     <g id="line2d_15">
      <g>
       <use xlink:href="#mc62fb9f078" x="382.366364" y="25.28" style="stroke: #000000; stroke-width: 0.5"/>
      </g>
     </g>
     <g id="text_5">
      <!-- $\mathdefault{4}$ -->
      <g transform="translate(379.366364 325.263625) scale(0.12 -0.12)">
       <defs>
        <path id="STIXGeneral-Regular-34" d="M 3027 1069 
L 2368 1069 
L 2368 0 
L 1869 0 
L 1869 1069 
L 77 1069 
L 77 1478 
L 2086 4326 
L 2368 4326 
L 2368 1478 
L 3027 1478 
L 3027 1069 
z
M 1869 1478 
L 1869 3674 
L 333 1478 
L 1869 1478 
z
" transform="scale(0.015625)"/>
       </defs>
       <use xlink:href="#STIXGeneral-Regular-34" transform="translate(0 0.40625)"/>
      </g>
     </g>
    </g>
    <g id="xtick_6">
     <g id="line2d_16">
      <path d="M 458.457273 313.568 
L 458.457273 25.28 
" clip-path="url(#pe7230ff116)" style="fill: none; stroke: #b0b0b0; stroke-opacity: 0.35; stroke-width: 0.5; stroke-linecap: square"/>
     </g>
     <g id="line2d_17">
      <g>
       <use xlink:href="#m2a6b70f6b0" x="458.457273" y="313.568" style="stroke: #000000; stroke-width: 0.5"/>
      </g>
     </g>
     <g id="line2d_18">
      <g>
       <use xlink:href="#mc62fb9f078" x="458.457273" y="25.28" style="stroke: #000000; stroke-width: 0.5"/>
      </g>
     </g>
     <g id="text_6">
      <!-- $\mathdefault{5}$ -->
      <g transform="translate(455.457273 325.263625) scale(0.12 -0.12)">
       <defs>
        <path id="STIXGeneral-Regular-35" d="M 2803 4358 
L 2573 3814 
Q 2534 3731 2400 3731 
L 1158 3731 
L 902 3187 
Q 1606 3053 1920 2896 
Q 2234 2739 2502 2368 
Q 2726 2061 2726 1555 
Q 2726 1094 2576 780 
Q 2426 467 2099 224 
Q 1664 -90 1011 -90 
Q 646 -90 422 19 
Q 198 128 198 307 
Q 198 550 486 550 
Q 717 550 960 352 
Q 1210 147 1414 147 
Q 1747 147 2012 480 
Q 2278 813 2278 1229 
Q 2278 1843 1850 2189 
Q 1293 2637 486 2637 
Q 410 2637 410 2688 
L 416 2720 
L 1114 4237 
L 2438 4237 
Q 2547 4237 2608 4269 
Q 2669 4301 2746 4403 
L 2803 4358 
z
" transform="scale(0.015625)"/>
       </defs>
       <use xlink:href="#STIXGeneral-Regular-35" transform="translate(0 0.203125)"/>
      </g>
     </g>
    </g>
    <g id="xtick_7">
     <g id="line2d_19">
      <defs>
       <path id="m529169781f" d="M 0 0 
L 0 -1.5 
" style="stroke: #000000; stroke-width: 0.5"/>
      </defs>
      <g>
       <use xlink:href="#m529169781f" x="62.784545" y="313.568" style="stroke: #000000; stroke-width: 0.5"/>
      </g>
     </g>
     <g id="line2d_20">
      <defs>
       <path id="m9a607968e4" d="M 0 0 
L 0 1.5 
" style="stroke: #000000; stroke-width: 0.5"/>
      </defs>
      <g>
       <use xlink:href="#m9a607968e4" x="62.784545" y="25.28" style="stroke: #000000; stroke-width: 0.5"/>
      </g>
     </g>
    </g>
    <g id="xtick_8">
     <g id="line2d_21">
      <g>
       <use xlink:href="#m529169781f" x="93.220909" y="313.568" style="stroke: #000000; stroke-width: 0.5"/>
      </g>
     </g>
     <g id="line2d_22">
      <g>
       <use xlink:href="#m9a607968e4" x="93.220909" y="25.28" style="stroke: #000000; stroke-width: 0.5"/>
      </g>
     </g>
    </g>
    <g id="xtick_9">
     <g id="line2d_23">
      <g>
       <use xlink:href="#m529169781f" x="108.439091" y="313.568" style="stroke: #000000; stroke-width: 0.5"/>
      </g>
     </g>
     <g id="line2d_24">
      <g>
       <use xlink:href="#m9a607968e4" x="108.439091" y="25.28" style="stroke: #000000; stroke-width: 0.5"/>
      </g>
     </g>
    </g>
    <g id="xtick_10">
     <g id="line2d_25">
      <g>
       <use xlink:href="#m529169781f" x="123.657273" y="313.568" style="stroke: #000000; stroke-width: 0.5"/>
      </g>
     </g>
     <g id="line2d_26">
      <g>
       <use xlink:href="#m9a607968e4" x="123.657273" y="25.28" style="stroke: #000000; stroke-width: 0.5"/>
      </g>
     </g>
    </g>
    <g id="xtick_11">
     <g id="line2d_27">
      <g>
       <use xlink:href="#m529169781f" x="138.875455" y="313.568" style="stroke: #000000; stroke-width: 0.5"/>
      </g>
     </g>
     <g id="line2d_28">
      <g>
       <use xlink:href="#m9a607968e4" x="138.875455" y="25.28" style="stroke: #000000; stroke-width: 0.5"/>
      </g>
     </g>
    </g>
    <g id="xtick_12">
     <g id="line2d_29">
      <g>
       <use xlink:href="#m529169781f" x="169.311818" y="313.568" style="stroke: #000000; stroke-width: 0.5"/>
      </g>
     </g>
     <g id="line2d_30">
      <g>
       <use xlink:href="#m9a607968e4" x="169.311818" y="25.28" style="stroke: #000000; stroke-width: 0.5"/>
      </g>
     </g>
    </g>
    <g id="xtick_13">
     <g id="line2d_31">
      <g>
       <use xlink:href="#m529169781f" x="184.53" y="313.568" style="stroke: #000000; stroke-width: 0.5"/>
      </g>
     </g>
     <g id="line2d_32">
      <g>
       <use xlink:href="#m9a607968e4" x="184.53" y="25.28" style="stroke: #000000; stroke-width: 0.5"/>
      </g>
     </g>
    </g>
    <g id="xtick_14">
     <g id="line2d_33">
      <g>
       <use xlink:href="#m529169781f" x="199.748182" y="313.568" style="stroke: #000000; stroke-width: 0.5"/>
      </g>
     </g>
     <g id="line2d_34">
      <g>
       <use xlink:href="#m9a607968e4" x="199.748182" y="25.28" style="stroke: #000000; stroke-width: 0.5"/>
      </g>
     </g>
    </g>
    <g id="xtick_15">
     <g id="line2d_35">
      <g>
       <use xlink:href="#m529169781f" x="214.966364" y="313.568" style="stroke: #000000; stroke-width: 0.5"/>
      </g>
     </g>
     <g id="line2d_36">
      <g>
       <use xlink:href="#m9a607968e4" x="214.966364" y="25.28" style="stroke: #000000; stroke-width: 0.5"/>
      </g>
     </g>
    </g>
    <g id="xtick_16">
     <g id="line2d_37">
      <g>
       <use xlink:href="#m529169781f" x="245.402727" y="313.568" style="stroke: #000000; stroke-width: 0.5"/>
      </g>
     </g>
     <g id="line2d_38">
      <g>
       <use xlink:href="#m9a607968e4" x="245.402727" y="25.28" style="stroke: #000000; stroke-width: 0.5"/>
      </g>
     </g>
    </g>
    <g id="xtick_17">
     <g id="line2d_39">
      <g>
       <use xlink:href="#m529169781f" x="260.620909" y="313.568" style="stroke: #000000; stroke-width: 0.5"/>
      </g>
     </g>
     <g id="line2d_40">
      <g>
       <use xlink:href="#m9a607968e4" x="260.620909" y="25.28" style="stroke: #000000; stroke-width: 0.5"/>
      </g>
     </g>
    </g>
    <g id="xtick_18">
     <g id="line2d_41">
      <g>
       <use xlink:href="#m529169781f" x="275.839091" y="313.568" style="stroke: #000000; stroke-width: 0.5"/>
      </g>
     </g>
     <g id="line2d_42">
      <g>
       <use xlink:href="#m9a607968e4" x="275.839091" y="25.28" style="stroke: #000000; stroke-width: 0.5"/>
      </g>
     </g>
    </g>
    <g id="xtick_19">
     <g id="line2d_43">
      <g>
       <use xlink:href="#m529169781f" x="291.057273" y="313.568" style="stroke: #000000; stroke-width: 0.5"/>
      </g>
     </g>
     <g id="line2d_44">
      <g>
       <use xlink:href="#m9a607968e4" x="291.057273" y="25.28" style="stroke: #000000; stroke-width: 0.5"/>
      </g>
     </g>
    </g>
    <g id="xtick_20">
     <g id="line2d_45">
      <g>
       <use xlink:href="#m529169781f" x="321.493636" y="313.568" style="stroke: #000000; stroke-width: 0.5"/>
      </g>
     </g>
     <g id="line2d_46">
      <g>
       <use xlink:href="#m9a607968e4" x="321.493636" y="25.28" style="stroke: #000000; stroke-width: 0.5"/>
      </g>
     </g>
    </g>
    <g id="xtick_21">
     <g id="line2d_47">
      <g>
       <use xlink:href="#m529169781f" x="336.711818" y="313.568" style="stroke: #000000; stroke-width: 0.5"/>
      </g>
     </g>
     <g id="line2d_48">
      <g>
       <use xlink:href="#m9a607968e4" x="336.711818" y="25.28" style="stroke: #000000; stroke-width: 0.5"/>
      </g>
     </g>
    </g>
    <g id="xtick_22">
     <g id="line2d_49">
      <g>
       <use xlink:href="#m529169781f" x="351.93" y="313.568" style="stroke: #000000; stroke-width: 0.5"/>
      </g>
     </g>
     <g id="line2d_50">
      <g>
       <use xlink:href="#m9a607968e4" x="351.93" y="25.28" style="stroke: #000000; stroke-width: 0.5"/>
      </g>
     </g>
    </g>
    <g id="xtick_23">
     <g id="line2d_51">
      <g>
       <use xlink:href="#m529169781f" x="367.148182" y="313.568" style="stroke: #000000; stroke-width: 0.5"/>
      </g>
     </g>
     <g id="line2d_52">
      <g>
       <use xlink:href="#m9a607968e4" x="367.148182" y="25.28" style="stroke: #000000; stroke-width: 0.5"/>
      </g>
     </g>
    </g>
    <g id="xtick_24">
     <g id="line2d_53">
      <g>
       <use xlink:href="#m529169781f" x="397.584545" y="313.568" style="stroke: #000000; stroke-width: 0.5"/>
      </g>
     </g>
     <g id="line2d_54">
      <g>
       <use xlink:href="#m9a607968e4" x="397.584545" y="25.28" style="stroke: #000000; stroke-width: 0.5"/>
      </g>
     </g>
    </g>
    <g id="xtick_25">
     <g id="line2d_55">
      <g>
       <use xlink:href="#m529169781f" x="412.802727" y="313.568" style="stroke: #000000; stroke-width: 0.5"/>
      </g>
     </g>
     <g id="line2d_56">
      <g>
       <use xlink:href="#m9a607968e4" x="412.802727" y="25.28" style="stroke: #000000; stroke-width: 0.5"/>
      </g>
     </g>
    </g>
    <g id="xtick_26">
     <g id="line2d_57">
      <g>
       <use xlink:href="#m529169781f" x="428.020909" y="313.568" style="stroke: #000000; stroke-width: 0.5"/>
      </g>
     </g>
     <g id="line2d_58">
      <g>
       <use xlink:href="#m9a607968e4" x="428.020909" y="25.28" style="stroke: #000000; stroke-width: 0.5"/>
      </g>
     </g>
    </g>
    <g id="xtick_27">
     <g id="line2d_59">
      <g>
       <use xlink:href="#m529169781f" x="443.239091" y="313.568" style="stroke: #000000; stroke-width: 0.5"/>
      </g>
     </g>
     <g id="line2d_60">
      <g>
       <use xlink:href="#m9a607968e4" x="443.239091" y="25.28" style="stroke: #000000; stroke-width: 0.5"/>
      </g>
     </g>
    </g>
    <g id="xtick_28">
     <g id="line2d_61">
      <g>
       <use xlink:href="#m529169781f" x="473.675455" y="313.568" style="stroke: #000000; stroke-width: 0.5"/>
      </g>
     </g>
     <g id="line2d_62">
      <g>
       <use xlink:href="#m9a607968e4" x="473.675455" y="25.28" style="stroke: #000000; stroke-width: 0.5"/>
      </g>
     </g>
    </g>
    <g id="text_7">
     <!-- Time -->
     <g transform="translate(253.453438 341.429562) scale(0.14 -0.14)">
      <defs>
       <path id="STIXGeneral-Regular-54" d="M 3795 3149 
L 3642 3149 
Q 3539 3674 3353 3821 
Q 3168 3968 2656 3968 
L 2278 3968 
L 2278 710 
Q 2278 346 2387 243 
Q 2496 141 2893 122 
L 2893 0 
L 1024 0 
L 1024 122 
Q 1427 147 1526 256 
Q 1626 365 1626 787 
L 1626 3968 
L 1242 3968 
Q 723 3968 540 3817 
Q 358 3667 262 3149 
L 109 3149 
L 154 4237 
L 3750 4237 
L 3795 3149 
z
" transform="scale(0.015625)"/>
       <path id="STIXGeneral-Regular-69" d="M 1152 4045 
Q 1152 3904 1056 3811 
Q 960 3718 819 3718 
Q 685 3718 592 3811 
Q 499 3904 499 4045 
Q 499 4179 595 4275 
Q 691 4371 826 4371 
Q 966 4371 1059 4275 
Q 1152 4179 1152 4045 
z
M 1619 0 
L 102 0 
L 102 96 
Q 435 115 521 211 
Q 608 307 608 666 
L 608 2118 
Q 608 2342 563 2432 
Q 518 2522 397 2522 
Q 243 2522 128 2490 
L 128 2592 
L 1120 2944 
L 1146 2918 
L 1146 672 
Q 1146 314 1226 218 
Q 1306 122 1619 96 
L 1619 0 
z
" transform="scale(0.015625)"/>
       <path id="STIXGeneral-Regular-6d" d="M 4960 0 
L 3565 0 
L 3565 96 
Q 3834 122 3907 208 
Q 3981 294 3981 576 
L 3981 1894 
Q 3981 2278 3869 2444 
Q 3757 2611 3488 2611 
Q 3264 2611 3107 2521 
Q 2950 2432 2803 2221 
L 2803 608 
Q 2803 301 2896 201 
Q 2989 102 3264 96 
L 3264 0 
L 1830 0 
L 1830 96 
Q 2112 115 2189 188 
Q 2266 262 2266 550 
L 2266 1901 
Q 2266 2611 1850 2611 
Q 1670 2611 1468 2531 
Q 1267 2451 1171 2336 
Q 1088 2240 1088 2227 
L 1088 448 
Q 1088 243 1177 176 
Q 1267 109 1523 96 
L 1523 0 
L 102 0 
L 102 96 
Q 371 102 460 195 
Q 550 288 550 563 
L 550 2150 
Q 550 2387 499 2480 
Q 448 2573 326 2573 
Q 230 2573 122 2547 
L 122 2656 
Q 557 2778 1011 2944 
L 1062 2925 
L 1062 2451 
L 1075 2451 
Q 1363 2752 1584 2848 
Q 1805 2944 2054 2944 
Q 2560 2944 2733 2406 
Q 3232 2944 3776 2944 
Q 4518 2944 4518 1792 
L 4518 493 
Q 4518 282 4582 202 
Q 4646 122 4794 109 
L 4960 96 
L 4960 0 
z
" transform="scale(0.015625)"/>
       <path id="STIXGeneral-Regular-65" d="M 2611 1050 
L 2714 1005 
Q 2330 -64 1376 -64 
Q 813 -64 486 329 
Q 160 723 160 1389 
Q 160 2074 525 2509 
Q 890 2944 1485 2944 
Q 2061 2944 2374 2502 
Q 2560 2246 2592 1773 
L 621 1773 
Q 646 1370 700 1158 
Q 755 947 915 730 
Q 1184 378 1626 378 
Q 1939 378 2153 531 
Q 2368 685 2611 1050 
z
M 634 1978 
L 1939 1978 
Q 1882 2381 1750 2547 
Q 1619 2714 1312 2714 
Q 1043 2714 864 2525 
Q 685 2336 634 1978 
z
" transform="scale(0.015625)"/>
      </defs>
      <use xlink:href="#STIXGeneral-Regular-54"/>
      <use xlink:href="#STIXGeneral-Regular-69" transform="translate(61.099991 0)"/>
      <use xlink:href="#STIXGeneral-Regular-6d" transform="translate(88.899979 0)"/>
      <use xlink:href="#STIXGeneral-Regular-65" transform="translate(166.699966 0)"/>
     </g>
    </g>
   </g>
   <g id="matplotlib.axis_2">
    <g id="ytick_1">
     <g id="line2d_63">
      <path d="M 58.98 268.6397 
L 477.48 268.6397 
" clip-path="url(#pe7230ff116)" style="fill: none; stroke: #b0b0b0; stroke-opacity: 0.35; stroke-width: 0.5; stroke-linecap: square"/>
     </g>
     <g id="line2d_64">
      <defs>
       <path id="m762a6a4dae" d="M 0 0 
L 3 0 
" style="stroke: #000000; stroke-width: 0.5"/>
      </defs>
      <g>
       <use xlink:href="#m762a6a4dae" x="58.98" y="268.6397" style="stroke: #000000; stroke-width: 0.5"/>
      </g>
     </g>
     <g id="line2d_65">
      <defs>
       <path id="mcb95e8d5b0" d="M 0 0 
L -3 0 
" style="stroke: #000000; stroke-width: 0.5"/>
      </defs>
      <g>
       <use xlink:href="#mcb95e8d5b0" x="477.48" y="268.6397" style="stroke: #000000; stroke-width: 0.5"/>
      </g>
     </g>
     <g id="text_8">
      <!-- $\mathdefault{−0.004}$ -->
      <g transform="translate(20.2 272.737513) scale(0.12 -0.12)">
       <defs>
        <path id="STIXGeneral-Regular-2212" d="M 3974 1408 
L 410 1408 
L 410 1830 
L 3974 1830 
L 3974 1408 
z
" transform="scale(0.015625)"/>
        <path id="STIXGeneral-Regular-2e" d="M 1158 275 
Q 1158 134 1052 32 
Q 947 -70 800 -70 
Q 653 -70 550 32 
Q 448 134 448 281 
Q 448 429 553 534 
Q 659 640 806 640 
Q 947 640 1052 531 
Q 1158 422 1158 275 
z
" transform="scale(0.015625)"/>
       </defs>
       <use xlink:href="#STIXGeneral-Regular-2212" transform="translate(0 0.40625)"/>
       <use xlink:href="#STIXGeneral-Regular-30" transform="translate(68.499985 0.40625)"/>
       <use xlink:href="#STIXGeneral-Regular-2e" transform="translate(118.499969 0.40625)"/>
       <use xlink:href="#STIXGeneral-Regular-30" transform="translate(143.499954 0.40625)"/>
       <use xlink:href="#STIXGeneral-Regular-30" transform="translate(193.499939 0.40625)"/>
       <use xlink:href="#STIXGeneral-Regular-34" transform="translate(243.499924 0.40625)"/>
      </g>
     </g>
    </g>
    <g id="ytick_2">
     <g id="line2d_66">
      <path d="M 58.98 211.258302 
L 477.48 211.258302 
" clip-path="url(#pe7230ff116)" style="fill: none; stroke: #b0b0b0; stroke-opacity: 0.35; stroke-width: 0.5; stroke-linecap: square"/>
     </g>
     <g id="line2d_67">
      <g>
       <use xlink:href="#m762a6a4dae" x="58.98" y="211.258302" style="stroke: #000000; stroke-width: 0.5"/>
      </g>
     </g>
     <g id="line2d_68">
      <g>
       <use xlink:href="#mcb95e8d5b0" x="477.48" y="211.258302" style="stroke: #000000; stroke-width: 0.5"/>
      </g>
     </g>
     <g id="text_9">
      <!-- $\mathdefault{−0.003}$ -->
      <g transform="translate(20.2 215.356115) scale(0.12 -0.12)">
       <use xlink:href="#STIXGeneral-Regular-2212" transform="translate(0 0.40625)"/>
       <use xlink:href="#STIXGeneral-Regular-30" transform="translate(68.499985 0.40625)"/>
       <use xlink:href="#STIXGeneral-Regular-2e" transform="translate(118.499969 0.40625)"/>
       <use xlink:href="#STIXGeneral-Regular-30" transform="translate(143.499954 0.40625)"/>
       <use xlink:href="#STIXGeneral-Regular-30" transform="translate(193.499939 0.40625)"/>
       <use xlink:href="#STIXGeneral-Regular-33" transform="translate(243.499924 0.40625)"/>
      </g>
     </g>
    </g>
    <g id="ytick_3">
     <g id="line2d_69">
      <path d="M 58.98 153.876904 
L 477.48 153.876904 
" clip-path="url(#pe7230ff116)" style="fill: none; stroke: #b0b0b0; stroke-opacity: 0.35; stroke-width: 0.5; stroke-linecap: square"/>
     </g>
     <g id="line2d_70">
      <g>
       <use xlink:href="#m762a6a4dae" x="58.98" y="153.876904" style="stroke: #000000; stroke-width: 0.5"/>
      </g>
     </g>
     <g id="line2d_71">
      <g>
       <use xlink:href="#mcb95e8d5b0" x="477.48" y="153.876904" style="stroke: #000000; stroke-width: 0.5"/>
      </g>
     </g>
     <g id="text_10">
      <!-- $\mathdefault{−0.002}$ -->
      <g transform="translate(20.2 157.974717) scale(0.12 -0.12)">
       <use xlink:href="#STIXGeneral-Regular-2212" transform="translate(0 0.40625)"/>
       <use xlink:href="#STIXGeneral-Regular-30" transform="translate(68.499985 0.40625)"/>
       <use xlink:href="#STIXGeneral-Regular-2e" transform="translate(118.499969 0.40625)"/>
       <use xlink:href="#STIXGeneral-Regular-30" transform="translate(143.499954 0.40625)"/>
       <use xlink:href="#STIXGeneral-Regular-30" transform="translate(193.499939 0.40625)"/>
       <use xlink:href="#STIXGeneral-Regular-32" transform="translate(243.499924 0.40625)"/>
      </g>
     </g>
    </g>
    <g id="ytick_4">
     <g id="line2d_72">
      <path d="M 58.98 96.495507 
L 477.48 96.495507 
" clip-path="url(#pe7230ff116)" style="fill: none; stroke: #b0b0b0; stroke-opacity: 0.35; stroke-width: 0.5; stroke-linecap: square"/>
     </g>
     <g id="line2d_73">
      <g>
       <use xlink:href="#m762a6a4dae" x="58.98" y="96.495507" style="stroke: #000000; stroke-width: 0.5"/>
      </g>
     </g>
     <g id="line2d_74">
      <g>
       <use xlink:href="#mcb95e8d5b0" x="477.48" y="96.495507" style="stroke: #000000; stroke-width: 0.5"/>
      </g>
     </g>
     <g id="text_11">
      <!-- $\mathdefault{−0.001}$ -->
      <g transform="translate(20.2 100.593319) scale(0.12 -0.12)">
       <use xlink:href="#STIXGeneral-Regular-2212" transform="translate(0 0.40625)"/>
       <use xlink:href="#STIXGeneral-Regular-30" transform="translate(68.499985 0.40625)"/>
       <use xlink:href="#STIXGeneral-Regular-2e" transform="translate(118.499969 0.40625)"/>
       <use xlink:href="#STIXGeneral-Regular-30" transform="translate(143.499954 0.40625)"/>
       <use xlink:href="#STIXGeneral-Regular-30" transform="translate(193.499939 0.40625)"/>
       <use xlink:href="#STIXGeneral-Regular-31" transform="translate(243.499924 0.40625)"/>
      </g>
     </g>
    </g>
    <g id="ytick_5">
     <g id="line2d_75">
      <path d="M 58.98 39.114109 
L 477.48 39.114109 
" clip-path="url(#pe7230ff116)" style="fill: none; stroke: #b0b0b0; stroke-opacity: 0.35; stroke-width: 0.5; stroke-linecap: square"/>
     </g>
     <g id="line2d_76">
      <g>
       <use xlink:href="#m762a6a4dae" x="58.98" y="39.114109" style="stroke: #000000; stroke-width: 0.5"/>
      </g>
     </g>
     <g id="line2d_77">
      <g>
       <use xlink:href="#mcb95e8d5b0" x="477.48" y="39.114109" style="stroke: #000000; stroke-width: 0.5"/>
      </g>
     </g>
     <g id="text_12">
      <!-- $\mathdefault{0.000}$ -->
      <g transform="translate(28.48 43.211921) scale(0.12 -0.12)">
       <use xlink:href="#STIXGeneral-Regular-30" transform="translate(0 0.40625)"/>
       <use xlink:href="#STIXGeneral-Regular-2e" transform="translate(49.999985 0.40625)"/>
       <use xlink:href="#STIXGeneral-Regular-30" transform="translate(74.999969 0.40625)"/>
       <use xlink:href="#STIXGeneral-Regular-30" transform="translate(124.999954 0.40625)"/>
       <use xlink:href="#STIXGeneral-Regular-30" transform="translate(174.999939 0.40625)"/>
      </g>
     </g>
    </g>
    <g id="ytick_6">
     <g id="line2d_78">
      <defs>
       <path id="m7bf09c9b25" d="M 0 0 
L 1.5 0 
" style="stroke: #000000; stroke-width: 0.5"/>
      </defs>
      <g>
       <use xlink:href="#m7bf09c9b25" x="58.98" y="303.068539" style="stroke: #000000; stroke-width: 0.5"/>
      </g>
     </g>
     <g id="line2d_79">
      <defs>
       <path id="m7c335529f6" d="M 0 0 
L -1.5 0 
" style="stroke: #000000; stroke-width: 0.5"/>
      </defs>
      <g>
       <use xlink:href="#m7c335529f6" x="477.48" y="303.068539" style="stroke: #000000; stroke-width: 0.5"/>
      </g>
     </g>
    </g>
    <g id="ytick_7">
     <g id="line2d_80">
      <g>
       <use xlink:href="#m7bf09c9b25" x="58.98" y="291.592259" style="stroke: #000000; stroke-width: 0.5"/>
      </g>
     </g>
     <g id="line2d_81">
      <g>
       <use xlink:href="#m7c335529f6" x="477.48" y="291.592259" style="stroke: #000000; stroke-width: 0.5"/>
      </g>
     </g>
    </g>
    <g id="ytick_8">
     <g id="line2d_82">
      <g>
       <use xlink:href="#m7bf09c9b25" x="58.98" y="280.11598" style="stroke: #000000; stroke-width: 0.5"/>
      </g>
     </g>
     <g id="line2d_83">
      <g>
       <use xlink:href="#m7c335529f6" x="477.48" y="280.11598" style="stroke: #000000; stroke-width: 0.5"/>
      </g>
     </g>
    </g>
    <g id="ytick_9">
     <g id="line2d_84">
      <g>
       <use xlink:href="#m7bf09c9b25" x="58.98" y="257.16342" style="stroke: #000000; stroke-width: 0.5"/>
      </g>
     </g>
     <g id="line2d_85">
      <g>
       <use xlink:href="#m7c335529f6" x="477.48" y="257.16342" style="stroke: #000000; stroke-width: 0.5"/>
      </g>
     </g>
    </g>
    <g id="ytick_10">
     <g id="line2d_86">
      <g>
       <use xlink:href="#m7bf09c9b25" x="58.98" y="245.687141" style="stroke: #000000; stroke-width: 0.5"/>
      </g>
     </g>
     <g id="line2d_87">
      <g>
       <use xlink:href="#m7c335529f6" x="477.48" y="245.687141" style="stroke: #000000; stroke-width: 0.5"/>
      </g>
     </g>
    </g>
    <g id="ytick_11">
     <g id="line2d_88">
      <g>
       <use xlink:href="#m7bf09c9b25" x="58.98" y="234.210861" style="stroke: #000000; stroke-width: 0.5"/>
      </g>
     </g>
     <g id="line2d_89">
      <g>
       <use xlink:href="#m7c335529f6" x="477.48" y="234.210861" style="stroke: #000000; stroke-width: 0.5"/>
      </g>
     </g>
    </g>
    <g id="ytick_12">
     <g id="line2d_90">
      <g>
       <use xlink:href="#m7bf09c9b25" x="58.98" y="222.734582" style="stroke: #000000; stroke-width: 0.5"/>
      </g>
     </g>
     <g id="line2d_91">
      <g>
       <use xlink:href="#m7c335529f6" x="477.48" y="222.734582" style="stroke: #000000; stroke-width: 0.5"/>
      </g>
     </g>
    </g>
    <g id="ytick_13">
     <g id="line2d_92">
      <g>
       <use xlink:href="#m7bf09c9b25" x="58.98" y="199.782023" style="stroke: #000000; stroke-width: 0.5"/>
      </g>
     </g>
     <g id="line2d_93">
      <g>
       <use xlink:href="#m7c335529f6" x="477.48" y="199.782023" style="stroke: #000000; stroke-width: 0.5"/>
      </g>
     </g>
    </g>
    <g id="ytick_14">
     <g id="line2d_94">
      <g>
       <use xlink:href="#m7bf09c9b25" x="58.98" y="188.305743" style="stroke: #000000; stroke-width: 0.5"/>
      </g>
     </g>
     <g id="line2d_95">
      <g>
       <use xlink:href="#m7c335529f6" x="477.48" y="188.305743" style="stroke: #000000; stroke-width: 0.5"/>
      </g>
     </g>
    </g>
    <g id="ytick_15">
     <g id="line2d_96">
      <g>
       <use xlink:href="#m7bf09c9b25" x="58.98" y="176.829464" style="stroke: #000000; stroke-width: 0.5"/>
      </g>
     </g>
     <g id="line2d_97">
      <g>
       <use xlink:href="#m7c335529f6" x="477.48" y="176.829464" style="stroke: #000000; stroke-width: 0.5"/>
      </g>
     </g>
    </g>
    <g id="ytick_16">
     <g id="line2d_98">
      <g>
       <use xlink:href="#m7bf09c9b25" x="58.98" y="165.353184" style="stroke: #000000; stroke-width: 0.5"/>
      </g>
     </g>
     <g id="line2d_99">
      <g>
       <use xlink:href="#m7c335529f6" x="477.48" y="165.353184" style="stroke: #000000; stroke-width: 0.5"/>
      </g>
     </g>
    </g>
    <g id="ytick_17">
     <g id="line2d_100">
      <g>
       <use xlink:href="#m7bf09c9b25" x="58.98" y="142.400625" style="stroke: #000000; stroke-width: 0.5"/>
      </g>
     </g>
     <g id="line2d_101">
      <g>
       <use xlink:href="#m7c335529f6" x="477.48" y="142.400625" style="stroke: #000000; stroke-width: 0.5"/>
      </g>
     </g>
    </g>
    <g id="ytick_18">
     <g id="line2d_102">
      <g>
       <use xlink:href="#m7bf09c9b25" x="58.98" y="130.924345" style="stroke: #000000; stroke-width: 0.5"/>
      </g>
     </g>
     <g id="line2d_103">
      <g>
       <use xlink:href="#m7c335529f6" x="477.48" y="130.924345" style="stroke: #000000; stroke-width: 0.5"/>
      </g>
     </g>
    </g>
    <g id="ytick_19">
     <g id="line2d_104">
      <g>
       <use xlink:href="#m7bf09c9b25" x="58.98" y="119.448066" style="stroke: #000000; stroke-width: 0.5"/>
      </g>
     </g>
     <g id="line2d_105">
      <g>
       <use xlink:href="#m7c335529f6" x="477.48" y="119.448066" style="stroke: #000000; stroke-width: 0.5"/>
      </g>
     </g>
    </g>
    <g id="ytick_20">
     <g id="line2d_106">
      <g>
       <use xlink:href="#m7bf09c9b25" x="58.98" y="107.971786" style="stroke: #000000; stroke-width: 0.5"/>
      </g>
     </g>
     <g id="line2d_107">
      <g>
       <use xlink:href="#m7c335529f6" x="477.48" y="107.971786" style="stroke: #000000; stroke-width: 0.5"/>
      </g>
     </g>
    </g>
    <g id="ytick_21">
     <g id="line2d_108">
      <g>
       <use xlink:href="#m7bf09c9b25" x="58.98" y="85.019227" style="stroke: #000000; stroke-width: 0.5"/>
      </g>
     </g>
     <g id="line2d_109">
      <g>
       <use xlink:href="#m7c335529f6" x="477.48" y="85.019227" style="stroke: #000000; stroke-width: 0.5"/>
      </g>
     </g>
    </g>
    <g id="ytick_22">
     <g id="line2d_110">
      <g>
       <use xlink:href="#m7bf09c9b25" x="58.98" y="73.542948" style="stroke: #000000; stroke-width: 0.5"/>
      </g>
     </g>
     <g id="line2d_111">
      <g>
       <use xlink:href="#m7c335529f6" x="477.48" y="73.542948" style="stroke: #000000; stroke-width: 0.5"/>
      </g>
     </g>
    </g>
    <g id="ytick_23">
     <g id="line2d_112">
      <g>
       <use xlink:href="#m7bf09c9b25" x="58.98" y="62.066668" style="stroke: #000000; stroke-width: 0.5"/>
      </g>
     </g>
     <g id="line2d_113">
      <g>
       <use xlink:href="#m7c335529f6" x="477.48" y="62.066668" style="stroke: #000000; stroke-width: 0.5"/>
      </g>
     </g>
    </g>
    <g id="ytick_24">
     <g id="line2d_114">
      <g>
       <use xlink:href="#m7bf09c9b25" x="58.98" y="50.590388" style="stroke: #000000; stroke-width: 0.5"/>
      </g>
     </g>
     <g id="line2d_115">
      <g>
       <use xlink:href="#m7c335529f6" x="477.48" y="50.590388" style="stroke: #000000; stroke-width: 0.5"/>
      </g>
     </g>
    </g>
    <g id="ytick_25">
     <g id="line2d_116">
      <g>
       <use xlink:href="#m7bf09c9b25" x="58.98" y="27.637829" style="stroke: #000000; stroke-width: 0.5"/>
      </g>
     </g>
     <g id="line2d_117">
      <g>
       <use xlink:href="#m7c335529f6" x="477.48" y="27.637829" style="stroke: #000000; stroke-width: 0.5"/>
      </g>
     </g>
    </g>
    <g id="text_13">
     <!-- Variance difference from exact -->
     <g transform="translate(13.161562 256.688844) rotate(-90) scale(0.14 -0.14)">
      <defs>
       <path id="STIXGeneral-Regular-56" d="M 4461 4237 
L 4461 4115 
Q 4262 4109 4134 3990 
Q 4006 3872 3872 3533 
L 2451 -70 
L 2355 -70 
L 794 3411 
Q 589 3866 467 3987 
Q 346 4109 102 4115 
L 102 4237 
L 1798 4237 
L 1798 4115 
L 1619 4102 
Q 1331 4083 1331 3904 
Q 1331 3776 1581 3219 
L 2554 1030 
L 3494 3392 
Q 3616 3699 3616 3853 
Q 3616 3898 3606 3933 
Q 3597 3968 3584 3993 
Q 3571 4019 3536 4038 
Q 3501 4058 3481 4067 
Q 3462 4077 3411 4086 
Q 3360 4096 3337 4099 
Q 3315 4102 3248 4108 
Q 3181 4115 3155 4115 
L 3155 4237 
L 4461 4237 
z
" transform="scale(0.015625)"/>
       <path id="STIXGeneral-Regular-61" d="M 2829 422 
L 2829 243 
Q 2586 -64 2253 -64 
Q 1888 -64 1843 403 
L 1837 403 
Q 1427 -64 909 -64 
Q 608 -64 422 112 
Q 237 288 237 602 
Q 237 1050 685 1350 
Q 992 1555 1837 1869 
L 1837 2214 
Q 1837 2502 1699 2646 
Q 1562 2790 1338 2790 
Q 1146 2790 1018 2697 
Q 890 2605 890 2477 
Q 890 2419 909 2348 
Q 928 2278 928 2208 
Q 928 2112 841 2029 
Q 755 1946 634 1946 
Q 525 1946 441 2029 
Q 358 2112 358 2240 
Q 358 2547 685 2752 
Q 986 2944 1421 2944 
Q 1939 2944 2176 2656 
Q 2291 2522 2323 2384 
Q 2355 2246 2355 1946 
L 2355 723 
Q 2355 301 2554 301 
Q 2682 301 2829 422 
z
M 1837 813 
L 1837 1715 
Q 1248 1510 1018 1293 
Q 800 1094 800 800 
Q 800 557 921 432 
Q 1043 307 1242 307 
Q 1453 307 1613 410 
Q 1747 506 1792 589 
Q 1837 672 1837 813 
z
" transform="scale(0.015625)"/>
       <path id="STIXGeneral-Regular-72" d="M 1024 2931 
L 1024 2342 
Q 1267 2688 1430 2816 
Q 1594 2944 1792 2944 
Q 1958 2944 2051 2854 
Q 2144 2765 2144 2605 
Q 2144 2470 2077 2393 
Q 2010 2317 1894 2317 
Q 1773 2317 1638 2445 
Q 1536 2541 1472 2541 
Q 1338 2541 1181 2355 
Q 1024 2170 1024 2016 
L 1024 576 
Q 1024 301 1133 205 
Q 1242 109 1568 96 
L 1568 0 
L 32 0 
L 32 96 
Q 339 154 412 224 
Q 486 294 486 538 
L 486 2138 
Q 486 2349 438 2435 
Q 390 2522 269 2522 
Q 166 2522 45 2496 
L 45 2598 
Q 448 2726 992 2944 
L 1024 2931 
z
" transform="scale(0.015625)"/>
       <path id="STIXGeneral-Regular-6e" d="M 3104 0 
L 1773 0 
L 1779 96 
Q 2016 115 2096 233 
Q 2176 352 2176 672 
L 2176 1946 
Q 2176 2592 1709 2592 
Q 1549 2592 1408 2515 
Q 1267 2438 1050 2227 
L 1050 461 
Q 1050 269 1136 192 
Q 1222 115 1466 96 
L 1466 0 
L 115 0 
L 115 96 
Q 358 115 435 214 
Q 512 314 512 602 
L 512 2157 
Q 512 2394 467 2483 
Q 422 2573 288 2573 
Q 160 2573 102 2547 
L 102 2656 
Q 550 2784 979 2944 
L 1030 2925 
L 1030 2426 
L 1037 2426 
Q 1491 2944 1958 2944 
Q 2323 2944 2518 2688 
Q 2714 2432 2714 1958 
L 2714 544 
Q 2714 288 2790 205 
Q 2867 122 3104 96 
L 3104 0 
z
" transform="scale(0.015625)"/>
       <path id="STIXGeneral-Regular-63" d="M 2547 998 
L 2637 941 
Q 2362 403 2112 205 
Q 1786 -64 1376 -64 
Q 845 -64 502 336 
Q 160 736 160 1357 
Q 160 2170 698 2618 
Q 1094 2944 1562 2944 
Q 1965 2944 2256 2749 
Q 2547 2554 2547 2285 
Q 2547 2176 2457 2096 
Q 2368 2016 2246 2016 
Q 2022 2016 1939 2310 
L 1901 2451 
Q 1850 2630 1773 2694 
Q 1696 2758 1523 2758 
Q 1133 2758 893 2451 
Q 653 2144 653 1645 
Q 653 1094 928 745 
Q 1203 397 1645 397 
Q 1920 397 2118 528 
Q 2317 659 2547 998 
z
" transform="scale(0.015625)"/>
       <path id="STIXGeneral-Regular-20" transform="scale(0.015625)"/>
       <path id="STIXGeneral-Regular-64" d="M 3142 269 
L 2202 -64 
L 2176 -45 
L 2176 365 
Q 1869 -64 1357 -64 
Q 826 -64 499 317 
Q 173 698 173 1312 
Q 173 1990 563 2467 
Q 954 2944 1504 2944 
Q 1850 2944 2176 2669 
L 2176 3667 
Q 2176 3866 2118 3930 
Q 2061 3994 1882 3994 
Q 1792 3994 1741 3987 
L 1741 4090 
Q 2323 4243 2682 4371 
L 2714 4358 
L 2714 730 
Q 2714 506 2768 435 
Q 2822 365 2995 365 
Q 3034 365 3142 371 
L 3142 269 
z
M 2176 653 
L 2176 2125 
Q 2176 2381 1981 2573 
Q 1786 2765 1523 2765 
Q 1158 2765 940 2438 
Q 723 2112 723 1568 
Q 723 979 963 624 
Q 1203 269 1606 269 
Q 1907 269 2080 474 
Q 2176 582 2176 653 
z
" transform="scale(0.015625)"/>
       <path id="STIXGeneral-Regular-66" d="M 134 2880 
L 659 2880 
Q 666 3264 710 3478 
Q 755 3693 883 3910 
Q 1152 4371 1786 4371 
Q 2074 4371 2262 4259 
Q 2451 4147 2451 3974 
Q 2451 3866 2374 3789 
Q 2298 3712 2182 3712 
Q 2029 3712 1894 3942 
Q 1741 4192 1555 4192 
Q 1197 4192 1197 3622 
L 1197 2880 
L 1978 2880 
L 1978 2675 
L 1197 2675 
L 1197 666 
Q 1197 307 1299 208 
Q 1402 109 1792 96 
L 1792 0 
L 128 0 
L 128 96 
Q 474 115 566 214 
Q 659 314 659 666 
L 659 2675 
L 134 2675 
L 134 2880 
z
" transform="scale(0.015625)"/>
       <path id="STIXGeneral-Regular-6f" d="M 3008 1478 
Q 3008 806 2608 371 
Q 2208 -64 1568 -64 
Q 979 -64 582 368 
Q 186 800 186 1459 
Q 186 2125 582 2534 
Q 979 2944 1626 2944 
Q 2221 2944 2614 2537 
Q 3008 2131 3008 1478 
z
M 2432 1306 
Q 2432 2035 2112 2445 
Q 1856 2765 1504 2765 
Q 1171 2765 966 2493 
Q 762 2221 762 1747 
Q 762 928 1101 435 
Q 1318 115 1677 115 
Q 2029 115 2230 432 
Q 2432 749 2432 1306 
z
" transform="scale(0.015625)"/>
       <path id="STIXGeneral-Regular-78" d="M 3066 0 
L 1779 0 
L 1779 96 
Q 1939 109 1987 137 
Q 2035 166 2035 250 
Q 2035 307 1997 365 
L 1414 1261 
L 909 474 
Q 781 275 781 211 
Q 781 96 1037 96 
L 1037 0 
L 109 0 
L 109 96 
Q 269 109 355 169 
Q 442 230 576 422 
L 1306 1478 
L 704 2400 
Q 557 2624 454 2704 
Q 352 2784 211 2784 
L 154 2784 
L 154 2880 
L 1478 2880 
L 1478 2784 
Q 1203 2778 1203 2643 
Q 1203 2509 1498 2074 
Q 1581 1958 1587 1946 
Q 1619 1990 1779 2227 
Q 1811 2285 1856 2349 
Q 1901 2413 1923 2451 
Q 1946 2490 1971 2528 
Q 1997 2566 2006 2595 
Q 2016 2624 2016 2643 
Q 2016 2765 1760 2784 
L 1760 2880 
L 2771 2880 
L 2771 2784 
Q 2445 2771 2253 2502 
L 1722 1734 
L 2541 480 
Q 2790 96 3066 96 
L 3066 0 
z
" transform="scale(0.015625)"/>
       <path id="STIXGeneral-Regular-74" d="M 1702 493 
L 1786 422 
Q 1478 -64 1011 -64 
Q 448 -64 448 749 
L 448 2675 
L 109 2675 
Q 83 2694 83 2720 
Q 83 2771 192 2842 
Q 435 2982 813 3526 
Q 826 3546 874 3606 
Q 922 3667 941 3706 
Q 986 3706 986 3622 
L 986 2880 
L 1632 2880 
L 1632 2675 
L 986 2675 
L 986 845 
Q 986 538 1062 403 
Q 1139 269 1318 269 
Q 1510 269 1702 493 
z
" transform="scale(0.015625)"/>
      </defs>
      <use xlink:href="#STIXGeneral-Regular-56"/>
      <use xlink:href="#STIXGeneral-Regular-61" transform="translate(72.199982 0)"/>
      <use xlink:href="#STIXGeneral-Regular-72" transform="translate(116.599976 0)"/>
      <use xlink:href="#STIXGeneral-Regular-69" transform="translate(149.899963 0)"/>
      <use xlink:href="#STIXGeneral-Regular-61" transform="translate(177.699951 0)"/>
      <use xlink:href="#STIXGeneral-Regular-6e" transform="translate(222.099945 0)"/>
      <use xlink:href="#STIXGeneral-Regular-63" transform="translate(272.09993 0)"/>
      <use xlink:href="#STIXGeneral-Regular-65" transform="translate(316.499924 0)"/>
      <use xlink:href="#STIXGeneral-Regular-20" transform="translate(360.899918 0)"/>
      <use xlink:href="#STIXGeneral-Regular-64" transform="translate(385.899902 0)"/>
      <use xlink:href="#STIXGeneral-Regular-69" transform="translate(435.899887 0)"/>
      <use xlink:href="#STIXGeneral-Regular-66" transform="translate(463.699875 0)"/>
      <use xlink:href="#STIXGeneral-Regular-66" transform="translate(496.999863 0)"/>
      <use xlink:href="#STIXGeneral-Regular-65" transform="translate(530.29985 0)"/>
      <use xlink:href="#STIXGeneral-Regular-72" transform="translate(574.699844 0)"/>
      <use xlink:href="#STIXGeneral-Regular-65" transform="translate(607.999832 0)"/>
      <use xlink:href="#STIXGeneral-Regular-6e" transform="translate(652.399826 0)"/>
      <use xlink:href="#STIXGeneral-Regular-63" transform="translate(702.399811 0)"/>
      <use xlink:href="#STIXGeneral-Regular-65" transform="translate(746.799805 0)"/>
      <use xlink:href="#STIXGeneral-Regular-20" transform="translate(791.199799 0)"/>
      <use xlink:href="#STIXGeneral-Regular-66" transform="translate(816.199783 0)"/>
      <use xlink:href="#STIXGeneral-Regular-72" transform="translate(849.499771 0)"/>
      <use xlink:href="#STIXGeneral-Regular-6f" transform="translate(882.799759 0)"/>
      <use xlink:href="#STIXGeneral-Regular-6d" transform="translate(932.799744 0)"/>
      <use xlink:href="#STIXGeneral-Regular-20" transform="translate(1010.599731 0)"/>
      <use xlink:href="#STIXGeneral-Regular-65" transform="translate(1035.599716 0)"/>
      <use xlink:href="#STIXGeneral-Regular-78" transform="translate(1079.99971 0)"/>
      <use xlink:href="#STIXGeneral-Regular-61" transform="translate(1129.999695 0)"/>
      <use xlink:href="#STIXGeneral-Regular-63" transform="translate(1174.399689 0)"/>
      <use xlink:href="#STIXGeneral-Regular-74" transform="translate(1218.799683 0)"/>
     </g>
    </g>
   </g>
   <g id="line2d_118">
    <path d="M 78.002727 39.114109 
L 458.457273 39.114109 
L 458.457273 39.114109 
" clip-path="url(#pe7230ff116)" style="fill: none; stroke: #2ca02c; stroke-width: 2.2; stroke-linecap: square"/>
   </g>
   <g id="line2d_119">
    <path d="M 58.98 39.114109 
L 477.48 39.114109 
" clip-path="url(#pe7230ff116)" style="fill: none; stroke: #000000; stroke-opacity: 0.6; stroke-linecap: square"/>
   </g>
   <g id="patch_3">
    <path d="M 58.98 313.568 
L 58.98 25.28 
" style="fill: none; stroke: #000000; stroke-width: 0.5; stroke-linejoin: miter; stroke-linecap: square"/>
   </g>
   <g id="patch_4">
    <path d="M 477.48 313.568 
L 477.48 25.28 
" style="fill: none; stroke: #000000; stroke-width: 0.5; stroke-linejoin: miter; stroke-linecap: square"/>
   </g>
   <g id="patch_5">
    <path d="M 58.98 313.568 
L 477.48 313.568 
" style="fill: none; stroke: #000000; stroke-width: 0.5; stroke-linejoin: miter; stroke-linecap: square"/>
   </g>
   <g id="patch_6">
    <path d="M 58.98 25.28 
L 477.48 25.28 
" style="fill: none; stroke: #000000; stroke-width: 0.5; stroke-linejoin: miter; stroke-linecap: square"/>
   </g>
   <g id="line2d_120">
    <path d="M 78.002727 300.464 
L 78.078818 299.966954 
L 78.307091 295.702666 
L 78.383182 297.960606 
L 78.611455 293.728136 
L 78.687545 294.578038 
L 78.991909 288.576455 
L 79.068 288.082681 
L 79.144091 286.278085 
L 79.220182 289.695461 
L 79.296273 289.183875 
L 79.600636 282.03695 
L 79.676727 282.807352 
L 79.905 280.049175 
L 79.981091 279.548253 
L 80.057182 277.811653 
L 80.133273 280.997829 
L 80.285455 277.529164 
L 80.361545 279.440482 
L 80.437636 278.918498 
L 80.894182 269.915001 
L 80.970273 270.575312 
L 81.198545 266.751634 
L 81.274636 267.389092 
L 81.426818 266.369205 
L 81.731182 262.102175 
L 81.807273 261.596295 
L 82.263818 253.197843 
L 82.492091 262.136469 
L 82.568182 261.609104 
L 82.644273 262.12124 
L 82.872545 259.488488 
L 83.100818 257.886759 
L 83.253 258.811714 
L 83.557364 254.656174 
L 83.633455 255.088016 
L 83.937818 250.984671 
L 84.013909 254.819171 
L 84.09 253.318483 
L 84.166091 251.826746 
L 84.242182 252.212239 
L 84.318273 252.587242 
L 84.394364 257.254568 
L 84.470455 256.674598 
L 84.546545 256.093952 
L 84.927 250.506965 
L 85.079182 252.011731 
L 85.459636 246.501079 
L 85.535727 247.635919 
L 85.840091 243.622963 
L 85.992273 241.640227 
L 86.372727 236.3485 
L 86.524909 234.424349 
L 86.981455 227.970134 
L 87.285818 225.029504 
L 87.818455 216.8516 
L 87.894545 217.053803 
L 88.046727 215.284534 
L 88.275 212.30455 
L 88.351091 213.189774 
L 88.655455 211.089666 
L 88.731545 213.413091 
L 89.188091 207.561154 
L 89.340273 210.602005 
L 89.872909 206.833343 
L 90.025091 219.685607 
L 90.709909 210.418189 
L 91.242545 206.020276 
L 91.318636 208.035032 
L 91.394727 207.482884 
L 91.623 204.723828 
L 91.699091 204.726661 
L 91.851273 203.087406 
L 92.079545 200.386008 
L 92.155636 200.377064 
L 92.612182 196.616897 
L 92.688273 195.570113 
L 92.764364 197.440115 
L 92.840455 196.394548 
L 92.992636 200.077991 
L 93.220909 197.925942 
L 93.297 197.860731 
L 93.449182 196.75377 
L 93.525273 196.678166 
L 93.753545 194.074458 
L 93.829636 194.458205 
L 94.362273 188.797562 
L 94.666636 186.199885 
L 95.047091 183.096953 
L 95.199273 181.614376 
L 95.275364 181.919057 
L 95.427545 180.441659 
L 95.503636 182.450927 
L 95.579727 181.505207 
L 95.655818 183.084325 
L 95.731909 182.943341 
L 95.808 182.798046 
L 96.873273 174.467118 
L 97.101545 172.508766 
L 97.177636 173.952113 
L 97.329818 172.528305 
L 97.405909 173.948111 
L 97.482 173.409905 
L 98.090727 167.469929 
L 98.166818 167.27868 
L 98.242909 166.428171 
L 98.319 167.778455 
L 98.623364 165.044334 
L 98.699455 166.993817 
L 98.775545 166.77895 
L 98.851636 165.937387 
L 99.003818 167.925831 
L 99.079909 167.080187 
L 99.232091 165.403155 
L 99.308182 168.740452 
L 99.384273 167.896903 
L 99.460364 167.650557 
L 100.297364 159.515005 
L 100.601727 156.907163 
L 100.677818 158.332535 
L 100.753909 158.079012 
L 100.982182 156.783042 
L 101.514818 152.428788 
L 101.590909 153.518964 
L 101.667 153.252232 
L 102.275727 148.948791 
L 102.351818 156.254629 
L 102.427909 155.733925 
L 102.884455 153.071783 
L 102.960545 154.04701 
L 103.188818 152.273693 
L 103.264909 153.226379 
L 103.645364 150.224056 
L 103.797545 149.201013 
L 104.254091 144.994311 
L 104.330182 147.667395 
L 104.406273 146.968712 
L 104.862818 143.774037 
L 104.938909 144.625709 
L 105.015 143.944199 
L 105.091091 144.7836 
L 105.243273 143.603193 
L 105.319364 144.426364 
L 105.395455 144.098148 
L 105.928091 140.106965 
L 106.004182 140.891679 
L 106.308545 138.761216 
L 106.384636 139.522803 
L 106.536818 138.226905 
L 106.612909 139.129682 
L 107.221636 134.495341 
L 107.297727 135.209331 
L 107.373818 134.728954 
L 107.449909 135.430915 
L 108.210818 129.999095 
L 108.363 129.20091 
L 108.439091 129.857152 
L 109.047818 125.915534 
L 109.123909 125.460845 
L 109.2 131.221811 
L 109.276091 130.634588 
L 109.808727 126.724247 
L 109.884818 127.417737 
L 109.960909 126.851489 
L 110.037 127.532652 
L 110.189182 126.510904 
L 110.265273 127.175978 
L 110.417455 126.050997 
L 110.493545 126.701098 
L 111.558818 119.67418 
L 111.634909 119.149556 
L 111.711 119.74312 
L 112.471909 114.87441 
L 112.548 115.34774 
L 112.852364 113.600158 
L 113.080636 112.209428 
L 113.156727 112.660306 
L 113.232818 117.555137 
L 113.308909 117.056138 
L 113.689364 114.889687 
L 114.145909 112.28639 
L 114.222 112.687778 
L 114.906818 108.630214 
L 114.982909 109.009316 
L 116.580818 100.348407 
L 116.656909 104.624139 
L 116.733 104.20289 
L 116.809091 104.522278 
L 117.57 100.502845 
L 117.722182 104.945544 
L 118.711364 99.860697 
L 118.787455 100.766368 
L 118.863545 100.375435 
L 119.015727 104.522701 
L 119.091818 104.122076 
L 119.167909 104.352765 
L 119.700545 102.29516 
L 119.852727 115.85335 
L 120.157091 114.338306 
L 120.309273 114.71023 
L 120.765818 112.911594 
L 122.211545 106.465208 
L 122.287636 106.609968 
L 122.972455 103.954397 
L 123.048545 104.083077 
L 123.505091 102.026442 
L 123.581182 105.265662 
L 123.657273 104.916902 
L 124.113818 103.346475 
L 124.266 107.464475 
L 125.331273 103.06659 
L 125.407364 103.130072 
L 126.320455 99.200534 
L 126.396545 99.252486 
L 126.548727 99.34778 
L 127.690091 94.714368 
L 127.766182 94.747612 
L 128.755364 91.274867 
L 128.907545 91.612619 
L 130.201091 87.177294 
L 130.277182 87.180368 
L 131.646818 82.758677 
L 131.722909 82.749392 
L 131.951182 81.998276 
L 132.027273 93.013536 
L 132.103364 92.987972 
L 132.179455 92.960478 
L 132.788182 91.148515 
L 132.864273 91.320079 
L 133.853455 88.350036 
L 133.929545 88.307443 
L 134.233909 87.545894 
L 134.31 87.499122 
L 134.994818 85.433922 
L 135.070909 85.556917 
L 135.984 82.895369 
L 136.060091 93.254112 
L 136.136182 93.028955 
L 136.364455 92.652251 
L 137.962364 88.236206 
L 138.342818 87.701953 
L 139.179818 85.601101 
L 139.255909 87.727807 
L 139.332 87.551066 
L 139.636364 86.959004 
L 139.864636 89.905222 
L 140.016818 89.636925 
L 141.843 85.493009 
L 142.375636 84.343688 
L 142.451727 85.726 
L 142.527818 85.558616 
L 143.897455 82.777598 
L 144.125727 82.371207 
L 144.277909 82.063158 
L 144.354 83.230448 
L 144.430091 83.128619 
L 145.951909 80.138139 
L 146.104091 82.23169 
L 146.180182 82.076034 
L 147.017182 80.433478 
L 147.473727 79.567857 
L 148.539 77.553991 
L 149.223818 76.347257 
L 150.289091 74.473236 
L 150.365182 75.264241 
L 150.441273 75.120656 
L 151.430455 73.526943 
L 151.506545 74.253935 
L 151.582636 74.113326 
L 151.810909 73.738978 
L 151.887 74.428194 
L 151.963091 74.300786 
L 153.104455 72.386041 
L 153.180545 79.981571 
L 153.256636 79.850344 
L 154.245818 78.131994 
L 154.321909 78.702394 
L 154.398 78.560356 
L 155.082818 77.384087 
L 155.158909 77.916883 
L 155.235 77.790484 
L 157.213364 74.607541 
L 157.289455 75.050239 
L 157.365545 74.933522 
L 159.648273 71.554977 
L 159.724364 71.905255 
L 159.800455 71.799166 
L 161.017909 70.079034 
L 161.094 70.380314 
L 161.170091 70.254114 
L 161.474455 69.850387 
L 161.550545 70.134306 
L 161.626636 70.031954 
L 162.768 68.520013 
L 164.213727 66.674086 
L 164.289818 66.87458 
L 164.365909 66.772029 
L 164.822455 66.157936 
L 167.713909 62.898651 
L 167.866091 63.114817 
L 167.942182 63.03448 
L 169.235727 61.573486 
L 169.311818 66.795417 
L 169.387909 66.710378 
L 171.822818 64.110065 
L 171.898909 68.982879 
L 171.975 68.895902 
L 176.007818 64.462283 
L 176.997 63.468485 
L 177.301364 63.166469 
L 177.377455 67.324712 
L 177.453545 67.229761 
L 183.997364 60.517799 
L 189.323727 56.164582 
L 193.508727 53.284575 
L 193.737 52.990695 
L 194.954455 52.275366 
L 195.106636 52.029184 
L 197.161091 50.909367 
L 197.313273 50.664376 
L 197.845909 50.398913 
L 197.998091 50.154335 
L 199.063364 49.642567 
L 199.215545 49.399385 
L 200.356909 48.878946 
L 200.509091 48.637767 
L 201.27 48.294018 
L 201.422182 48.054585 
L 205.759364 46.354733 
L 208.955182 45.29333 
L 209.107364 45.075286 
L 209.411727 44.986575 
L 209.487818 46.281089 
L 209.563909 46.254308 
L 212.759727 45.1635 
L 212.911909 44.950022 
L 214.129364 44.577527 
L 214.281545 44.369748 
L 214.357636 45.37044 
L 214.433727 45.344726 
L 216.640364 44.609724 
L 216.868636 44.222767 
L 221.662364 42.747419 
L 221.738455 49.607156 
L 221.814545 49.586102 
L 221.966727 49.399219 
L 231.478091 46.925158 
L 231.934636 46.834566 
L 232.086818 47.022259 
L 235.587 46.178194 
L 235.739182 46.047102 
L 242.206909 44.762335 
L 242.435182 44.639099 
L 250.729091 43.338918 
L 258.794727 42.429338 
L 265.871182 41.764917 
L 266.023364 41.258868 
L 276.143455 40.503532 
L 284.741727 40.116602 
L 295.318364 39.812135 
L 304.068818 39.698648 
L 304.221 39.073956 
L 317.993455 38.949003 
L 318.297818 38.986568 
L 319.134818 38.980507 
L 319.287 38.389026 
L 334.200818 38.437916 
L 355.278 38.562893 
L 355.582364 38.604512 
L 371.409273 38.733356 
L 371.713636 38.771967 
L 458.457273 39.012943 
L 458.457273 39.012943 
" clip-path="url(#pe7230ff116)" style="fill: none; stroke: #ff7f0e; stroke-width: 1.9; stroke-linecap: square"/>
   </g>
   <g id="text_14">
    <!-- Variance Difference vs Time (Coherent state $|\alpha=1\rangle$, $\gamma=1$) -->
    <g transform="translate(74.47 19.28) scale(0.16 -0.16)">
     <defs>
      <path id="STIXGeneral-Regular-44" d="M 102 4237 
L 1830 4237 
Q 3078 4237 3750 3654 
Q 4384 3110 4384 2138 
Q 4384 966 3514 410 
Q 2880 0 1901 0 
L 102 0 
L 102 122 
Q 474 147 570 252 
Q 666 358 666 736 
L 666 3520 
Q 666 3891 570 3990 
Q 474 4090 102 4115 
L 102 4237 
z
M 1318 3731 
L 1318 538 
Q 1318 365 1379 301 
Q 1440 237 1626 237 
Q 2125 237 2432 307 
Q 2739 378 3021 570 
Q 3686 1018 3686 2099 
Q 3686 3027 3078 3558 
Q 2803 3802 2476 3901 
Q 2150 4000 1658 4000 
Q 1472 4000 1395 3942 
Q 1318 3885 1318 3731 
z
" transform="scale(0.015625)"/>
      <path id="STIXGeneral-Regular-76" d="M 3053 2880 
L 3053 2784 
Q 2906 2771 2835 2688 
Q 2765 2605 2637 2285 
L 1818 230 
Q 1690 -90 1638 -90 
Q 1587 -90 1523 77 
Q 1510 96 1497 141 
Q 1485 186 1472 211 
L 704 2048 
Q 499 2534 403 2652 
Q 307 2771 122 2784 
L 122 2880 
L 1376 2880 
L 1376 2784 
Q 1210 2771 1146 2732 
Q 1082 2694 1082 2611 
Q 1082 2509 1139 2368 
L 1792 730 
L 2426 2387 
Q 2464 2483 2464 2579 
Q 2464 2758 2163 2784 
L 2163 2880 
L 3053 2880 
z
" transform="scale(0.015625)"/>
      <path id="STIXGeneral-Regular-73" d="M 998 1926 
L 1664 1523 
Q 1984 1331 2105 1164 
Q 2227 998 2227 736 
Q 2227 416 1961 176 
Q 1696 -64 1331 -64 
Q 1030 -64 864 -6 
Q 691 51 570 51 
Q 461 51 416 -26 
L 333 -26 
L 333 979 
L 435 979 
Q 538 512 730 294 
Q 922 77 1248 77 
Q 1485 77 1632 211 
Q 1779 346 1779 550 
Q 1779 845 1440 1030 
L 1094 1222 
Q 326 1651 326 2150 
Q 326 2522 566 2730 
Q 806 2938 1210 2938 
Q 1491 2938 1638 2867 
Q 1754 2816 1818 2816 
Q 1862 2816 1920 2880 
L 1990 2880 
L 2022 2010 
L 1926 2010 
Q 1818 2445 1654 2621 
Q 1491 2797 1203 2797 
Q 986 2797 854 2688 
Q 723 2579 723 2362 
Q 723 2253 796 2128 
Q 870 2003 998 1926 
z
" transform="scale(0.015625)"/>
      <path id="STIXGeneral-Regular-28" d="M 1946 -1030 
L 1869 -1133 
Q 1126 -710 716 32 
Q 307 774 307 1613 
Q 307 3386 1888 4326 
L 1946 4224 
Q 1293 3667 1075 3126 
Q 858 2586 858 1632 
Q 858 685 1082 96 
Q 1306 -493 1946 -1030 
z
" transform="scale(0.015625)"/>
      <path id="STIXGeneral-Regular-43" d="M 3930 838 
L 4051 723 
Q 3482 -90 2304 -90 
Q 1376 -90 794 480 
Q 179 1082 179 2080 
Q 179 3014 755 3661 
Q 1357 4326 2310 4326 
Q 2720 4326 3072 4230 
Q 3475 4115 3514 4115 
Q 3725 4115 3782 4326 
L 3910 4326 
L 3968 2874 
L 3821 2874 
Q 3718 3334 3488 3584 
Q 3034 4070 2458 4070 
Q 1747 4070 1334 3548 
Q 922 3027 922 2182 
Q 922 1152 1382 653 
Q 1811 192 2522 192 
Q 2944 192 3251 339 
Q 3558 486 3930 838 
z
" transform="scale(0.015625)"/>
      <path id="STIXGeneral-Regular-68" d="M 3117 0 
L 1760 0 
L 1760 96 
Q 2042 128 2118 224 
Q 2195 320 2195 653 
L 2195 1920 
Q 2195 2598 1722 2598 
Q 1530 2598 1370 2508 
Q 1210 2419 1005 2195 
L 1005 653 
Q 1005 320 1081 224 
Q 1158 128 1440 96 
L 1440 0 
L 58 0 
L 58 96 
Q 333 134 400 224 
Q 467 314 467 653 
L 467 3667 
Q 467 3872 406 3933 
Q 346 3994 141 3994 
Q 83 3994 64 3987 
L 64 4090 
L 237 4141 
Q 730 4288 973 4371 
L 1005 4352 
L 1005 2406 
Q 1229 2694 1446 2819 
Q 1664 2944 1946 2944 
Q 2733 2944 2733 1926 
L 2733 653 
Q 2733 320 2793 233 
Q 2854 147 3117 96 
L 3117 0 
z
" transform="scale(0.015625)"/>
      <path id="Cmsy10-6a" d="M 763 -1484 
L 763 4684 
Q 763 4734 800 4767 
Q 838 4800 891 4800 
Q 938 4800 978 4767 
Q 1019 4734 1019 4684 
L 1019 -1484 
Q 1019 -1534 978 -1567 
Q 938 -1600 891 -1600 
Q 838 -1600 800 -1567 
Q 763 -1534 763 -1484 
z
" transform="scale(0.015625)"/>
      <path id="Cmmi10-ae" d="M 1288 -72 
Q 984 -72 748 72 
Q 513 216 384 459 
Q 256 703 256 1013 
Q 256 1447 498 1872 
Q 741 2297 1142 2562 
Q 1544 2828 1984 2828 
Q 2309 2828 2556 2658 
Q 2803 2488 2931 2205 
Q 3059 1922 3059 1600 
L 3066 1172 
Q 3284 1475 3436 1801 
Q 3588 2128 3669 2478 
Q 3681 2516 3719 2516 
L 3794 2516 
Q 3853 2516 3853 2456 
Q 3853 2450 3847 2438 
Q 3772 2144 3659 1873 
Q 3547 1603 3395 1350 
Q 3244 1097 3066 891 
Q 3066 97 3250 97 
Q 3369 97 3445 167 
Q 3522 238 3580 341 
Q 3638 444 3653 447 
L 3731 447 
Q 3781 447 3781 384 
Q 3781 225 3598 76 
Q 3416 -72 3238 -72 
Q 3006 -72 2853 78 
Q 2700 228 2644 469 
Q 2344 213 1994 70 
Q 1644 -72 1288 -72 
z
M 1300 97 
Q 1984 97 2613 659 
Q 2609 697 2603 751 
Q 2597 806 2597 813 
L 2597 1503 
Q 2597 2663 1972 2663 
Q 1597 2663 1315 2342 
Q 1034 2022 892 1576 
Q 750 1131 750 763 
Q 750 484 892 290 
Q 1034 97 1300 97 
z
" transform="scale(0.015625)"/>
      <path id="Cmr10-3d" d="M 481 850 
Q 428 850 393 890 
Q 359 931 359 978 
Q 359 1031 393 1068 
Q 428 1106 481 1106 
L 4500 1106 
Q 4547 1106 4581 1068 
Q 4616 1031 4616 978 
Q 4616 931 4581 890 
Q 4547 850 4500 850 
L 481 850 
z
M 481 2094 
Q 428 2094 393 2131 
Q 359 2169 359 2222 
Q 359 2269 393 2309 
Q 428 2350 481 2350 
L 4500 2350 
Q 4547 2350 4581 2309 
Q 4616 2269 4616 2222 
Q 4616 2169 4581 2131 
Q 4547 2094 4500 2094 
L 481 2094 
z
" transform="scale(0.015625)"/>
      <path id="Cmr10-31" d="M 594 0 
L 594 225 
Q 1394 225 1394 428 
L 1394 3788 
Q 1063 3628 556 3628 
L 556 3853 
Q 1341 3853 1741 4263 
L 1831 4263 
Q 1853 4263 1873 4245 
Q 1894 4228 1894 4206 
L 1894 428 
Q 1894 225 2694 225 
L 2694 0 
L 594 0 
z
" transform="scale(0.015625)"/>
      <path id="Cmex10-ae" d="M 500 -7297 
Q 500 -7263 513 -7250 
L 2119 -3584 
L 513 84 
Q 500 97 500 128 
Q 500 175 537 215 
Q 575 256 628 256 
Q 703 256 750 178 
L 2381 -3541 
Q 2388 -3553 2388 -3584 
Q 2388 -3616 2381 -3634 
L 750 -7347 
Q 700 -7425 628 -7425 
Q 575 -7425 537 -7384 
Q 500 -7344 500 -7297 
z
" transform="scale(0.015625)"/>
      <path id="STIXGeneral-Regular-2c" d="M 531 -902 
L 467 -781 
Q 998 -422 998 -96 
Q 998 -13 909 -13 
Q 883 -13 822 -25 
Q 762 -38 723 -38 
Q 352 -38 352 288 
Q 352 454 457 553 
Q 563 653 736 653 
Q 954 653 1101 496 
Q 1248 339 1248 96 
Q 1248 -198 1053 -473 
Q 858 -749 531 -902 
z
" transform="scale(0.015625)"/>
      <path id="Cmmi10-b0" d="M 1888 -1253 
Q 1888 -1109 1952 -834 
Q 2016 -559 2108 -248 
Q 2200 63 2266 263 
Q 2291 581 2291 744 
Q 2291 1156 2209 1511 
Q 2128 1866 1903 2105 
Q 1678 2344 1275 2344 
Q 1063 2344 852 2253 
Q 641 2163 489 2000 
Q 338 1838 281 1631 
Q 269 1594 231 1594 
L 153 1594 
Q 103 1594 103 1650 
L 103 1672 
Q 175 1959 358 2226 
Q 541 2494 805 2661 
Q 1069 2828 1363 2828 
Q 1663 2828 1881 2625 
Q 2100 2422 2231 2109 
Q 2363 1797 2420 1478 
Q 2478 1159 2478 878 
Q 2800 1753 3200 2534 
L 3297 2741 
Q 3316 2759 3341 2759 
L 3419 2759 
Q 3469 2759 3469 2700 
Q 3469 2688 3456 2663 
L 3359 2463 
Q 3081 1909 2848 1340 
Q 2616 772 2450 244 
Q 2425 28 2354 -347 
Q 2284 -722 2184 -1045 
Q 2084 -1369 1984 -1381 
Q 1888 -1381 1888 -1253 
z
" transform="scale(0.015625)"/>
      <path id="STIXGeneral-Regular-29" d="M 186 4224 
L 262 4326 
Q 992 3891 1408 3148 
Q 1824 2406 1824 1581 
Q 1824 -166 243 -1133 
L 186 -1030 
Q 845 -486 1059 54 
Q 1274 595 1274 1562 
Q 1274 2534 1059 3120 
Q 845 3706 186 4224 
z
" transform="scale(0.015625)"/>
     </defs>
     <use xlink:href="#STIXGeneral-Regular-56" transform="translate(0 0.658854)"/>
     <use xlink:href="#STIXGeneral-Regular-61" transform="translate(72.199982 0.658854)"/>
     <use xlink:href="#STIXGeneral-Regular-72" transform="translate(116.599976 0.658854)"/>
     <use xlink:href="#STIXGeneral-Regular-69" transform="translate(149.899963 0.658854)"/>
     <use xlink:href="#STIXGeneral-Regular-61" transform="translate(177.699951 0.658854)"/>
     <use xlink:href="#STIXGeneral-Regular-6e" transform="translate(222.099945 0.658854)"/>
     <use xlink:href="#STIXGeneral-Regular-63" transform="translate(272.09993 0.658854)"/>
     <use xlink:href="#STIXGeneral-Regular-65" transform="translate(316.499924 0.658854)"/>
     <use xlink:href="#STIXGeneral-Regular-20" transform="translate(360.899918 0.658854)"/>
     <use xlink:href="#STIXGeneral-Regular-44" transform="translate(385.899902 0.658854)"/>
     <use xlink:href="#STIXGeneral-Regular-69" transform="translate(458.099884 0.658854)"/>
     <use xlink:href="#STIXGeneral-Regular-66" transform="translate(485.899872 0.658854)"/>
     <use xlink:href="#STIXGeneral-Regular-66" transform="translate(519.19986 0.658854)"/>
     <use xlink:href="#STIXGeneral-Regular-65" transform="translate(552.499847 0.658854)"/>
     <use xlink:href="#STIXGeneral-Regular-72" transform="translate(596.899841 0.658854)"/>
     <use xlink:href="#STIXGeneral-Regular-65" transform="translate(630.199829 0.658854)"/>
     <use xlink:href="#STIXGeneral-Regular-6e" transform="translate(674.599823 0.658854)"/>
     <use xlink:href="#STIXGeneral-Regular-63" transform="translate(724.599808 0.658854)"/>
     <use xlink:href="#STIXGeneral-Regular-65" transform="translate(768.999802 0.658854)"/>
     <use xlink:href="#STIXGeneral-Regular-20" transform="translate(813.399796 0.658854)"/>
     <use xlink:href="#STIXGeneral-Regular-76" transform="translate(838.39978 0.658854)"/>
     <use xlink:href="#STIXGeneral-Regular-73" transform="translate(888.399765 0.658854)"/>
     <use xlink:href="#STIXGeneral-Regular-20" transform="translate(927.299759 0.658854)"/>
     <use xlink:href="#STIXGeneral-Regular-54" transform="translate(952.299744 0.658854)"/>
     <use xlink:href="#STIXGeneral-Regular-69" transform="translate(1013.399734 0.658854)"/>
     <use xlink:href="#STIXGeneral-Regular-6d" transform="translate(1041.199722 0.658854)"/>
     <use xlink:href="#STIXGeneral-Regular-65" transform="translate(1118.99971 0.658854)"/>
     <use xlink:href="#STIXGeneral-Regular-20" transform="translate(1163.399704 0.658854)"/>
     <use xlink:href="#STIXGeneral-Regular-28" transform="translate(1188.399689 0.658854)"/>
     <use xlink:href="#STIXGeneral-Regular-43" transform="translate(1221.699677 0.658854)"/>
     <use xlink:href="#STIXGeneral-Regular-6f" transform="translate(1288.399673 0.658854)"/>
     <use xlink:href="#STIXGeneral-Regular-68" transform="translate(1338.399658 0.658854)"/>
     <use xlink:href="#STIXGeneral-Regular-65" transform="translate(1388.399643 0.658854)"/>
     <use xlink:href="#STIXGeneral-Regular-72" transform="translate(1432.799637 0.658854)"/>
     <use xlink:href="#STIXGeneral-Regular-65" transform="translate(1466.099625 0.658854)"/>
     <use xlink:href="#STIXGeneral-Regular-6e" transform="translate(1510.499619 0.658854)"/>
     <use xlink:href="#STIXGeneral-Regular-74" transform="translate(1560.499603 0.658854)"/>
     <use xlink:href="#STIXGeneral-Regular-20" transform="translate(1588.299591 0.658854)"/>
     <use xlink:href="#STIXGeneral-Regular-73" transform="translate(1613.299576 0.658854)"/>
     <use xlink:href="#STIXGeneral-Regular-74" transform="translate(1652.19957 0.658854)"/>
     <use xlink:href="#STIXGeneral-Regular-61" transform="translate(1679.999557 0.658854)"/>
     <use xlink:href="#STIXGeneral-Regular-74" transform="translate(1724.399551 0.658854)"/>
     <use xlink:href="#STIXGeneral-Regular-65" transform="translate(1752.199539 0.658854)"/>
     <use xlink:href="#STIXGeneral-Regular-20" transform="translate(1796.599533 0.658854)"/>
     <use xlink:href="#Cmsy10-6a" transform="translate(1821.599518 0.658854)"/>
     <use xlink:href="#Cmmi10-ae" transform="translate(1849.285065 0.658854)"/>
     <use xlink:href="#Cmr10-3d" transform="translate(1930.759674 0.658854)"/>
     <use xlink:href="#Cmr10-31" transform="translate(2026.003815 0.658854)"/>
     <use xlink:href="#Cmex10-ae" transform="translate(2076.003815 94)"/>
     <use xlink:href="#STIXGeneral-Regular-2c" transform="translate(2123.220612 0.658854)"/>
     <use xlink:href="#STIXGeneral-Regular-20" transform="translate(2148.220596 0.658854)"/>
     <use xlink:href="#Cmmi10-b0" transform="translate(2173.220581 0.658854)"/>
     <use xlink:href="#Cmr10-3d" transform="translate(2242.488159 0.658854)"/>
     <use xlink:href="#Cmr10-31" transform="translate(2337.7323 0.658854)"/>
     <use xlink:href="#STIXGeneral-Regular-29" transform="translate(2387.7323 0.658854)"/>
    </g>
   </g>
   <g id="line2d_121">
    <path d="M 78.002727 300.464 
L 80.589818 284.117602 
L 83.557364 266.654491 
L 86.601 250.069132 
L 89.644636 234.723332 
L 92.688273 220.522776 
L 95.731909 207.380952 
L 98.775545 195.217902 
L 101.819182 183.959643 
L 104.862818 173.537779 
L 107.906455 163.889216 
L 110.950091 154.955534 
L 114.069818 146.48397 
L 117.189545 138.653239 
L 120.309273 131.414005 
L 123.429 124.72067 
L 126.624818 118.386204 
L 129.820636 112.538924 
L 133.092545 107.017277 
L 136.364455 101.928358 
L 139.712455 97.132325 
L 143.060455 92.718958 
L 146.484545 88.569 
L 149.984727 84.674649 
L 153.561 81.027502 
L 157.213364 77.619834 
L 160.941818 74.4422 
L 164.822455 71.428283 
L 168.779182 68.634898 
L 172.888091 66.004049 
L 177.149182 63.53842 
L 181.638545 61.200086 
L 186.280091 59.033396 
L 191.149909 57.003444 
L 196.324091 55.088437 
L 201.802636 53.300154 
L 207.661636 51.625047 
L 213.901091 50.074688 
L 220.673182 48.625624 
L 227.977909 47.29396 
L 235.967455 46.068531 
L 244.717909 44.953589 
L 254.381455 43.94762 
L 265.414636 43.028723 
L 277.969636 42.212334 
L 292.655182 41.490718 
L 309.775636 40.877504 
L 330.852818 40.353246 
L 357.560727 39.922322 
L 392.334273 39.590078 
L 442.934727 39.343498 
L 458.457273 39.298763 
L 458.457273 39.298763 
" clip-path="url(#pe7230ff116)" style="fill: none; stroke: #1f77b4; stroke-width: 2; stroke-linecap: square"/>
   </g>
   <g id="legend_1">
    <g id="line2d_122">
     <path d="M 369.865625 266.245656 
L 380.865625 266.245656 
L 391.865625 266.245656 
" style="fill: none; stroke: #1f77b4; stroke-width: 2; stroke-linecap: square"/>
    </g>
    <g id="text_15">
     <!-- Density Matrix -->
     <g transform="translate(400.665625 270.095656) scale(0.11 -0.11)">
      <defs>
       <path id="STIXGeneral-Regular-79" d="M 3040 2880 
L 3040 2784 
Q 2925 2771 2854 2700 
Q 2784 2630 2720 2458 
L 1760 -160 
Q 1510 -838 1257 -1116 
Q 1005 -1395 640 -1395 
Q 435 -1395 313 -1289 
Q 192 -1184 192 -1024 
Q 192 -902 272 -816 
Q 352 -730 467 -730 
Q 653 -730 800 -813 
Q 883 -858 966 -858 
Q 1101 -858 1286 -576 
Q 1376 -448 1459 -211 
Q 1542 26 1542 115 
Q 1542 198 1274 762 
L 429 2566 
Q 346 2752 90 2790 
L 90 2880 
L 1402 2880 
L 1402 2784 
Q 1197 2778 1117 2739 
Q 1037 2701 1037 2611 
Q 1037 2541 1120 2349 
L 1837 749 
L 2458 2515 
Q 2483 2573 2483 2630 
Q 2483 2784 2189 2784 
L 2189 2880 
L 3040 2880 
z
" transform="scale(0.015625)"/>
       <path id="STIXGeneral-Regular-4d" d="M 5530 0 
L 3738 0 
L 3738 122 
Q 4115 147 4214 265 
Q 4314 384 4314 787 
L 4314 3661 
L 2682 0 
L 2592 0 
L 979 3514 
L 979 966 
Q 979 448 1088 294 
Q 1197 141 1574 122 
L 1574 0 
L 77 0 
L 77 122 
Q 358 141 480 205 
Q 602 269 650 432 
Q 698 595 698 966 
L 698 3514 
Q 698 3878 589 3984 
Q 480 4090 90 4115 
L 90 4237 
L 1357 4237 
L 2835 1024 
L 4250 4237 
L 5523 4237 
L 5523 4115 
Q 5178 4109 5072 3993 
Q 4966 3878 4966 3520 
L 4966 717 
Q 4966 378 5072 262 
Q 5178 147 5530 122 
L 5530 0 
z
" transform="scale(0.015625)"/>
      </defs>
      <use xlink:href="#STIXGeneral-Regular-44"/>
      <use xlink:href="#STIXGeneral-Regular-65" transform="translate(72.199982 0)"/>
      <use xlink:href="#STIXGeneral-Regular-6e" transform="translate(116.599976 0)"/>
      <use xlink:href="#STIXGeneral-Regular-73" transform="translate(166.59996 0)"/>
      <use xlink:href="#STIXGeneral-Regular-69" transform="translate(205.499954 0)"/>
      <use xlink:href="#STIXGeneral-Regular-74" transform="translate(233.299942 0)"/>
      <use xlink:href="#STIXGeneral-Regular-79" transform="translate(261.09993 0)"/>
      <use xlink:href="#STIXGeneral-Regular-20" transform="translate(311.099915 0)"/>
      <use xlink:href="#STIXGeneral-Regular-4d" transform="translate(336.099899 0)"/>
      <use xlink:href="#STIXGeneral-Regular-61" transform="translate(424.999893 0)"/>
      <use xlink:href="#STIXGeneral-Regular-74" transform="translate(469.399887 0)"/>
      <use xlink:href="#STIXGeneral-Regular-72" transform="translate(497.199875 0)"/>
      <use xlink:href="#STIXGeneral-Regular-69" transform="translate(530.499863 0)"/>
      <use xlink:href="#STIXGeneral-Regular-78" transform="translate(558.29985 0)"/>
     </g>
    </g>
    <g id="line2d_123">
     <path d="M 369.865625 281.843312 
L 380.865625 281.843312 
L 391.865625 281.843312 
" style="fill: none; stroke: #ff7f0e; stroke-width: 1.9; stroke-linecap: square"/>
    </g>
    <g id="text_16">
     <!-- Monte Carlo -->
     <g transform="translate(400.665625 285.693312) scale(0.11 -0.11)">
      <defs>
       <path id="STIXGeneral-Regular-6c" d="M 1645 0 
L 134 0 
L 134 96 
Q 435 122 531 221 
Q 627 320 627 589 
L 627 3590 
Q 627 3821 569 3910 
Q 512 4000 358 4000 
Q 224 4000 122 3987 
L 122 4090 
Q 730 4237 1133 4371 
L 1165 4346 
L 1165 557 
Q 1165 288 1254 201 
Q 1344 115 1645 96 
L 1645 0 
z
" transform="scale(0.015625)"/>
      </defs>
      <use xlink:href="#STIXGeneral-Regular-4d"/>
      <use xlink:href="#STIXGeneral-Regular-6f" transform="translate(88.899994 0)"/>
      <use xlink:href="#STIXGeneral-Regular-6e" transform="translate(138.899979 0)"/>
      <use xlink:href="#STIXGeneral-Regular-74" transform="translate(188.899963 0)"/>
      <use xlink:href="#STIXGeneral-Regular-65" transform="translate(216.699951 0)"/>
      <use xlink:href="#STIXGeneral-Regular-20" transform="translate(261.099945 0)"/>
      <use xlink:href="#STIXGeneral-Regular-43" transform="translate(286.09993 0)"/>
      <use xlink:href="#STIXGeneral-Regular-61" transform="translate(352.799927 0)"/>
      <use xlink:href="#STIXGeneral-Regular-72" transform="translate(397.199921 0)"/>
      <use xlink:href="#STIXGeneral-Regular-6c" transform="translate(430.499908 0)"/>
      <use xlink:href="#STIXGeneral-Regular-6f" transform="translate(458.299896 0)"/>
     </g>
    </g>
    <g id="line2d_124">
     <path d="M 369.865625 297.430656 
L 380.865625 297.430656 
L 391.865625 297.430656 
" style="fill: none; stroke: #2ca02c; stroke-width: 2.2; stroke-linecap: square"/>
    </g>
    <g id="text_17">
     <!-- Positive-P -->
     <g transform="translate(400.665625 301.280656) scale(0.11 -0.11)">
      <defs>
       <path id="STIXGeneral-Regular-50" d="M 102 4237 
L 1760 4237 
Q 2669 4237 3149 3834 
Q 3469 3565 3469 3072 
Q 3469 2560 3104 2234 
Q 2835 1990 2553 1916 
Q 2272 1843 1734 1843 
Q 1549 1843 1293 1862 
L 1293 717 
Q 1293 352 1398 246 
Q 1504 141 1894 122 
L 1894 0 
L 102 0 
L 102 122 
Q 474 147 557 256 
Q 640 365 640 781 
L 640 3526 
Q 640 3885 547 3987 
Q 454 4090 102 4115 
L 102 4237 
z
M 1293 3770 
L 1293 2118 
Q 1510 2099 1683 2099 
Q 2202 2099 2486 2352 
Q 2771 2605 2771 3040 
Q 2771 3558 2476 3779 
Q 2182 4000 1517 4000 
Q 1382 4000 1337 3952 
Q 1293 3904 1293 3770 
z
" transform="scale(0.015625)"/>
       <path id="STIXGeneral-Regular-2d" d="M 1824 1242 
L 250 1242 
L 250 1645 
L 1824 1645 
L 1824 1242 
z
" transform="scale(0.015625)"/>
      </defs>
      <use xlink:href="#STIXGeneral-Regular-50"/>
      <use xlink:href="#STIXGeneral-Regular-6f" transform="translate(55.699997 0)"/>
      <use xlink:href="#STIXGeneral-Regular-73" transform="translate(105.699982 0)"/>
      <use xlink:href="#STIXGeneral-Regular-69" transform="translate(144.599976 0)"/>
      <use xlink:href="#STIXGeneral-Regular-74" transform="translate(172.399963 0)"/>
      <use xlink:href="#STIXGeneral-Regular-69" transform="translate(200.199951 0)"/>
      <use xlink:href="#STIXGeneral-Regular-76" transform="translate(227.999939 0)"/>
      <use xlink:href="#STIXGeneral-Regular-65" transform="translate(277.999924 0)"/>
      <use xlink:href="#STIXGeneral-Regular-2d" transform="translate(322.399918 0)"/>
      <use xlink:href="#STIXGeneral-Regular-50" transform="translate(355.699905 0)"/>
     </g>
    </g>
   </g>
  </g>
 </g>
 <defs>
  <clipPath id="pe7230ff116">
   <rect x="58.98" y="25.28" width="418.5" height="288.288"/>
  </clipPath>
 </defs>
</svg>
