<?xml version="1.0" encoding="utf-8" standalone="no"?>
<!DOCTYPE svg PUBLIC "-//W3C//DTD SVG 1.1//EN"
  "http://www.w3.org/Graphics/SVG/1.1/DTD/svg11.dtd">
<svg xmlns:xlink="http://www.w3.org/1999/xlink" width="460.8pt" height="348.068pt" viewBox="0 0 460.8 348.068" xmlns="http://www.w3.org/2000/svg" version="1.1">
 <metadata>
  <rdf:RDF xmlns:dc="http://purl.org/dc/elements/1.1/" xmlns:cc="http://creativecommons.org/ns#" xmlns:rdf="http://www.w3.org/1999/02/22-rdf-syntax-ns#">
   <cc:Work>
    <dc:type rdf:resource="http://purl.org/dc/dcmitype/StillImage"/>
    <dc:date>2026-04-16T02:26:55.074440</dc:date>
    <dc:format>image/svg+xml</dc:format>
    <dc:creator>
     <cc:Agent>
      <dc:title>Matplotlib v3.10.8, https://matplotlib.org/</dc:title>
     </cc:Agent>
    </dc:creator>
   </cc:Work>
  </rdf:RDF>
 </metadata>
 <defs>
  <style type="text/css">*{stroke-linejoin: round; stroke-linecap: butt}</style>
 </defs>
 <g id="figure_1">
  <g id="patch_1">
   <path d="M 0 348.068 
L 460.8 348.068 
L 460.8 0 
L 0 0 
z
" style="fill: #ffffff"/>
  </g>
  <g id="axes_1">
   <g id="patch_2">
    <path d="M 38.7 313.568 
L 457.2 313.568 
L 457.2 25.28 
L 38.7 25.28 
z
" style="fill: #ffffff"/>
   </g>
   <g id="matplotlib.axis_1">
    <g id="xtick_1">
     <g id="line2d_1">
      <path d="M 57.722727 313.568 
L 57.722727 25.28 
" clip-path="url(#p5881de09a3)" style="fill: none; stroke: #b0b0b0; stroke-opacity: 0.35; stroke-width: 0.5; stroke-linecap: square"/>
     </g>
     <g id="line2d_2">
      <defs>
       <path id="m72e3e19e7a" d="M 0 0 
L 0 -3 
" style="stroke: #000000; stroke-width: 0.5"/>
      </defs>
      <g>
       <use xlink:href="#m72e3e19e7a" x="57.722727" y="313.568" style="stroke: #000000; stroke-width: 0.5"/>
      </g>
     </g>
     <g id="line2d_3">
      <defs>
       <path id="me8bb047e20" d="M 0 0 
L 0 3 
" style="stroke: #000000; stroke-width: 0.5"/>
      </defs>
      <g>
       <use xlink:href="#me8bb047e20" x="57.722727" y="25.28" style="stroke: #000000; stroke-width: 0.5"/>
      </g>
     </g>
     <g id="text_1">
      <!-- $\mathdefault{0}$ -->
      <g transform="translate(54.722727 325.263625) scale(0.12 -0.12)">
       <defs>
        <path id="STIXGeneral-Regular-30" d="M 3046 2112 
Q 3046 1683 2963 1302 
Q 2880 922 2717 602 
Q 2554 282 2266 96 
Q 1978 -90 1600 -90 
Q 1210 -90 915 108 
Q 621 307 461 640 
Q 301 973 227 1350 
Q 154 1728 154 2150 
Q 154 2746 301 3222 
Q 448 3699 790 4012 
Q 1133 4326 1626 4326 
Q 2253 4326 2649 3712 
Q 3046 3098 3046 2112 
z
M 2432 2080 
Q 2432 3091 2217 3625 
Q 2003 4160 1587 4160 
Q 1190 4160 979 3622 
Q 768 3085 768 2106 
Q 768 1120 979 598 
Q 1190 77 1600 77 
Q 2003 77 2217 598 
Q 2432 1120 2432 2080 
z
" transform="scale(0.015625)"/>
       </defs>
       <use xlink:href="#STIXGeneral-Regular-30" transform="translate(0 0.40625)"/>
      </g>
     </g>
    </g>
    <g id="xtick_2">
     <g id="line2d_4">
      <path d="M 133.813636 313.568 
L 133.813636 25.28 
" clip-path="url(#p5881de09a3)" style="fill: none; stroke: #b0b0b0; stroke-opacity: 0.35; stroke-width: 0.5; stroke-linecap: square"/>
     </g>
     <g id="line2d_5">
      <g>
       <use xlink:href="#m72e3e19e7a" x="133.813636" y="313.568" style="stroke: #000000; stroke-width: 0.5"/>
      </g>
     </g>
     <g id="line2d_6">
      <g>
       <use xlink:href="#me8bb047e20" x="133.813636" y="25.28" style="stroke: #000000; stroke-width: 0.5"/>
      </g>
     </g>
     <g id="text_2">
      <!-- $\mathdefault{1}$ -->
      <g transform="translate(130.813636 325.263625) scale(0.12 -0.12)">
       <defs>
        <path id="STIXGeneral-Regular-31" d="M 2522 0 
L 755 0 
L 755 96 
Q 1107 115 1235 227 
Q 1363 339 1363 608 
L 1363 3482 
Q 1363 3795 1171 3795 
Q 1082 3795 883 3718 
L 710 3654 
L 710 3744 
L 1856 4326 
L 1914 4307 
L 1914 486 
Q 1914 275 2042 185 
Q 2170 96 2522 96 
L 2522 0 
z
" transform="scale(0.015625)"/>
       </defs>
       <use xlink:href="#STIXGeneral-Regular-31" transform="translate(0 0.40625)"/>
      </g>
     </g>
    </g>
    <g id="xtick_3">
     <g id="line2d_7">
      <path d="M 209.904545 313.568 
L 209.904545 25.28 
" clip-path="url(#p5881de09a3)" style="fill: none; stroke: #b0b0b0; stroke-opacity: 0.35; stroke-width: 0.5; stroke-linecap: square"/>
     </g>
     <g id="line2d_8">
      <g>
       <use xlink:href="#m72e3e19e7a" x="209.904545" y="313.568" style="stroke: #000000; stroke-width: 0.5"/>
      </g>
     </g>
     <g id="line2d_9">
      <g>
       <use xlink:href="#me8bb047e20" x="209.904545" y="25.28" style="stroke: #000000; stroke-width: 0.5"/>
      </g>
     </g>
     <g id="text_3">
      <!-- $\mathdefault{2}$ -->
      <g transform="translate(206.904545 325.263625) scale(0.12 -0.12)">
       <defs>
        <path id="STIXGeneral-Regular-32" d="M 3034 877 
L 2688 0 
L 186 0 
L 186 77 
L 1325 1286 
Q 1773 1754 1965 2144 
Q 2157 2534 2157 2950 
Q 2157 3379 1920 3616 
Q 1683 3853 1267 3853 
Q 922 3853 720 3673 
Q 518 3494 326 3021 
L 192 3053 
Q 301 3648 630 3987 
Q 960 4326 1523 4326 
Q 2054 4326 2380 4006 
Q 2707 3686 2707 3200 
Q 2707 2477 1888 1613 
L 832 486 
L 2330 486 
Q 2541 486 2665 569 
Q 2790 653 2944 915 
L 3034 877 
z
" transform="scale(0.015625)"/>
       </defs>
       <use xlink:href="#STIXGeneral-Regular-32" transform="translate(0 0.40625)"/>
      </g>
     </g>
    </g>
    <g id="xtick_4">
     <g id="line2d_10">
      <path d="M 285.995455 313.568 
L 285.995455 25.28 
" clip-path="url(#p5881de09a3)" style="fill: none; stroke: #b0b0b0; stroke-opacity: 0.35; stroke-width: 0.5; stroke-linecap: square"/>
     </g>
     <g id="line2d_11">
      <g>
       <use xlink:href="#m72e3e19e7a" x="285.995455" y="313.568" style="stroke: #000000; stroke-width: 0.5"/>
      </g>
     </g>
     <g id="line2d_12">
      <g>
       <use xlink:href="#me8bb047e20" x="285.995455" y="25.28" style="stroke: #000000; stroke-width: 0.5"/>
      </g>
     </g>
     <g id="text_4">
      <!-- $\mathdefault{3}$ -->
      <g transform="translate(282.995455 325.263625) scale(0.12 -0.12)">
       <defs>
        <path id="STIXGeneral-Regular-33" d="M 390 3264 
L 288 3290 
Q 435 3770 748 4048 
Q 1062 4326 1542 4326 
Q 1990 4326 2265 4083 
Q 2541 3840 2541 3450 
Q 2541 2925 1946 2566 
Q 2298 2413 2477 2227 
Q 2758 1914 2758 1402 
Q 2758 890 2464 506 
Q 2246 211 1840 60 
Q 1434 -90 979 -90 
Q 262 -90 262 275 
Q 262 378 339 442 
Q 416 506 525 506 
Q 685 506 915 339 
Q 1197 141 1466 141 
Q 1818 141 2058 425 
Q 2298 710 2298 1120 
Q 2298 1856 1632 2048 
Q 1434 2112 979 2112 
L 979 2202 
Q 1338 2323 1517 2432 
Q 2035 2726 2035 3290 
Q 2035 3610 1852 3776 
Q 1670 3942 1344 3942 
Q 768 3942 390 3264 
z
" transform="scale(0.015625)"/>
       </defs>
       <use xlink:href="#STIXGeneral-Regular-33" transform="translate(0 0.40625)"/>
      </g>
     </g>
    </g>
    <g id="xtick_5">
     <g id="line2d_13">
      <path d="M 362.086364 313.568 
L 362.086364 25.28 
" clip-path="url(#p5881de09a3)" style="fill: none; stroke: #b0b0b0; stroke-opacity: 0.35; stroke-width: 0.5; stroke-linecap: square"/>
     </g>
     <g id="line2d_14">
      <g>
       <use xlink:href="#m72e3e19e7a" x="362.086364" y="313.568" style="stroke: #000000; stroke-width: 0.5"/>
      </g>
     </g>
     <g id="line2d_15">
      <g>
       <use xlink:href="#me8bb047e20" x="362.086364" y="25.28" style="stroke: #000000; stroke-width: 0.5"/>
      </g>
     </g>
     <g id="text_5">
      <!-- $\mathdefault{4}$ -->
      <g transform="translate(359.086364 325.263625) scale(0.12 -0.12)">
       <defs>
        <path id="STIXGeneral-Regular-34" d="M 3027 1069 
L 2368 1069 
L 2368 0 
L 1869 0 
L 1869 1069 
L 77 1069 
L 77 1478 
L 2086 4326 
L 2368 4326 
L 2368 1478 
L 3027 1478 
L 3027 1069 
z
M 1869 1478 
L 1869 3674 
L 333 1478 
L 1869 1478 
z
" transform="scale(0.015625)"/>
       </defs>
       <use xlink:href="#STIXGeneral-Regular-34" transform="translate(0 0.40625)"/>
      </g>
     </g>
    </g>
    <g id="xtick_6">
     <g id="line2d_16">
      <path d="M 438.177273 313.568 
L 438.177273 25.28 
" clip-path="url(#p5881de09a3)" style="fill: none; stroke: #b0b0b0; stroke-opacity: 0.35; stroke-width: 0.5; stroke-linecap: square"/>
     </g>
     <g id="line2d_17">
      <g>
       <use xlink:href="#m72e3e19e7a" x="438.177273" y="313.568" style="stroke: #000000; stroke-width: 0.5"/>
      </g>
     </g>
     <g id="line2d_18">
      <g>
       <use xlink:href="#me8bb047e20" x="438.177273" y="25.28" style="stroke: #000000; stroke-width: 0.5"/>
      </g>
     </g>
     <g id="text_6">
      <!-- $\mathdefault{5}$ -->
      <g transform="translate(435.177273 325.263625) scale(0.12 -0.12)">
       <defs>
        <path id="STIXGeneral-Regular-35" d="M 2803 4358 
L 2573 3814 
Q 2534 3731 2400 3731 
L 1158 3731 
L 902 3187 
Q 1606 3053 1920 2896 
Q 2234 2739 2502 2368 
Q 2726 2061 2726 1555 
Q 2726 1094 2576 780 
Q 2426 467 2099 224 
Q 1664 -90 1011 -90 
Q 646 -90 422 19 
Q 198 128 198 307 
Q 198 550 486 550 
Q 717 550 960 352 
Q 1210 147 1414 147 
Q 1747 147 2012 480 
Q 2278 813 2278 1229 
Q 2278 1843 1850 2189 
Q 1293 2637 486 2637 
Q 410 2637 410 2688 
L 416 2720 
L 1114 4237 
L 2438 4237 
Q 2547 4237 2608 4269 
Q 2669 4301 2746 4403 
L 2803 4358 
z
" transform="scale(0.015625)"/>
       </defs>
       <use xlink:href="#STIXGeneral-Regular-35" transform="translate(0 0.203125)"/>
      </g>
     </g>
    </g>
    <g id="xtick_7">
     <g id="line2d_19">
      <defs>
       <path id="mc143734fc2" d="M 0 0 
L 0 -1.5 
" style="stroke: #000000; stroke-width: 0.5"/>
      </defs>
      <g>
       <use xlink:href="#mc143734fc2" x="42.504545" y="313.568" style="stroke: #000000; stroke-width: 0.5"/>
      </g>
     </g>
     <g id="line2d_20">
      <defs>
       <path id="me8918f6302" d="M 0 0 
L 0 1.5 
" style="stroke: #000000; stroke-width: 0.5"/>
      </defs>
      <g>
       <use xlink:href="#me8918f6302" x="42.504545" y="25.28" style="stroke: #000000; stroke-width: 0.5"/>
      </g>
     </g>
    </g>
    <g id="xtick_8">
     <g id="line2d_21">
      <g>
       <use xlink:href="#mc143734fc2" x="72.940909" y="313.568" style="stroke: #000000; stroke-width: 0.5"/>
      </g>
     </g>
     <g id="line2d_22">
      <g>
       <use xlink:href="#me8918f6302" x="72.940909" y="25.28" style="stroke: #000000; stroke-width: 0.5"/>
      </g>
     </g>
    </g>
    <g id="xtick_9">
     <g id="line2d_23">
      <g>
       <use xlink:href="#mc143734fc2" x="88.159091" y="313.568" style="stroke: #000000; stroke-width: 0.5"/>
      </g>
     </g>
     <g id="line2d_24">
      <g>
       <use xlink:href="#me8918f6302" x="88.159091" y="25.28" style="stroke: #000000; stroke-width: 0.5"/>
      </g>
     </g>
    </g>
    <g id="xtick_10">
     <g id="line2d_25">
      <g>
       <use xlink:href="#mc143734fc2" x="103.377273" y="313.568" style="stroke: #000000; stroke-width: 0.5"/>
      </g>
     </g>
     <g id="line2d_26">
      <g>
       <use xlink:href="#me8918f6302" x="103.377273" y="25.28" style="stroke: #000000; stroke-width: 0.5"/>
      </g>
     </g>
    </g>
    <g id="xtick_11">
     <g id="line2d_27">
      <g>
       <use xlink:href="#mc143734fc2" x="118.595455" y="313.568" style="stroke: #000000; stroke-width: 0.5"/>
      </g>
     </g>
     <g id="line2d_28">
      <g>
       <use xlink:href="#me8918f6302" x="118.595455" y="25.28" style="stroke: #000000; stroke-width: 0.5"/>
      </g>
     </g>
    </g>
    <g id="xtick_12">
     <g id="line2d_29">
      <g>
       <use xlink:href="#mc143734fc2" x="149.031818" y="313.568" style="stroke: #000000; stroke-width: 0.5"/>
      </g>
     </g>
     <g id="line2d_30">
      <g>
       <use xlink:href="#me8918f6302" x="149.031818" y="25.28" style="stroke: #000000; stroke-width: 0.5"/>
      </g>
     </g>
    </g>
    <g id="xtick_13">
     <g id="line2d_31">
      <g>
       <use xlink:href="#mc143734fc2" x="164.25" y="313.568" style="stroke: #000000; stroke-width: 0.5"/>
      </g>
     </g>
     <g id="line2d_32">
      <g>
       <use xlink:href="#me8918f6302" x="164.25" y="25.28" style="stroke: #000000; stroke-width: 0.5"/>
      </g>
     </g>
    </g>
    <g id="xtick_14">
     <g id="line2d_33">
      <g>
       <use xlink:href="#mc143734fc2" x="179.468182" y="313.568" style="stroke: #000000; stroke-width: 0.5"/>
      </g>
     </g>
     <g id="line2d_34">
      <g>
       <use xlink:href="#me8918f6302" x="179.468182" y="25.28" style="stroke: #000000; stroke-width: 0.5"/>
      </g>
     </g>
    </g>
    <g id="xtick_15">
     <g id="line2d_35">
      <g>
       <use xlink:href="#mc143734fc2" x="194.686364" y="313.568" style="stroke: #000000; stroke-width: 0.5"/>
      </g>
     </g>
     <g id="line2d_36">
      <g>
       <use xlink:href="#me8918f6302" x="194.686364" y="25.28" style="stroke: #000000; stroke-width: 0.5"/>
      </g>
     </g>
    </g>
    <g id="xtick_16">
     <g id="line2d_37">
      <g>
       <use xlink:href="#mc143734fc2" x="225.122727" y="313.568" style="stroke: #000000; stroke-width: 0.5"/>
      </g>
     </g>
     <g id="line2d_38">
      <g>
       <use xlink:href="#me8918f6302" x="225.122727" y="25.28" style="stroke: #000000; stroke-width: 0.5"/>
      </g>
     </g>
    </g>
    <g id="xtick_17">
     <g id="line2d_39">
      <g>
       <use xlink:href="#mc143734fc2" x="240.340909" y="313.568" style="stroke: #000000; stroke-width: 0.5"/>
      </g>
     </g>
     <g id="line2d_40">
      <g>
       <use xlink:href="#me8918f6302" x="240.340909" y="25.28" style="stroke: #000000; stroke-width: 0.5"/>
      </g>
     </g>
    </g>
    <g id="xtick_18">
     <g id="line2d_41">
      <g>
       <use xlink:href="#mc143734fc2" x="255.559091" y="313.568" style="stroke: #000000; stroke-width: 0.5"/>
      </g>
     </g>
     <g id="line2d_42">
      <g>
       <use xlink:href="#me8918f6302" x="255.559091" y="25.28" style="stroke: #000000; stroke-width: 0.5"/>
      </g>
     </g>
    </g>
    <g id="xtick_19">
     <g id="line2d_43">
      <g>
       <use xlink:href="#mc143734fc2" x="270.777273" y="313.568" style="stroke: #000000; stroke-width: 0.5"/>
      </g>
     </g>
     <g id="line2d_44">
      <g>
       <use xlink:href="#me8918f6302" x="270.777273" y="25.28" style="stroke: #000000; stroke-width: 0.5"/>
      </g>
     </g>
    </g>
    <g id="xtick_20">
     <g id="line2d_45">
      <g>
       <use xlink:href="#mc143734fc2" x="301.213636" y="313.568" style="stroke: #000000; stroke-width: 0.5"/>
      </g>
     </g>
     <g id="line2d_46">
      <g>
       <use xlink:href="#me8918f6302" x="301.213636" y="25.28" style="stroke: #000000; stroke-width: 0.5"/>
      </g>
     </g>
    </g>
    <g id="xtick_21">
     <g id="line2d_47">
      <g>
       <use xlink:href="#mc143734fc2" x="316.431818" y="313.568" style="stroke: #000000; stroke-width: 0.5"/>
      </g>
     </g>
     <g id="line2d_48">
      <g>
       <use xlink:href="#me8918f6302" x="316.431818" y="25.28" style="stroke: #000000; stroke-width: 0.5"/>
      </g>
     </g>
    </g>
    <g id="xtick_22">
     <g id="line2d_49">
      <g>
       <use xlink:href="#mc143734fc2" x="331.65" y="313.568" style="stroke: #000000; stroke-width: 0.5"/>
      </g>
     </g>
     <g id="line2d_50">
      <g>
       <use xlink:href="#me8918f6302" x="331.65" y="25.28" style="stroke: #000000; stroke-width: 0.5"/>
      </g>
     </g>
    </g>
    <g id="xtick_23">
     <g id="line2d_51">
      <g>
       <use xlink:href="#mc143734fc2" x="346.868182" y="313.568" style="stroke: #000000; stroke-width: 0.5"/>
      </g>
     </g>
     <g id="line2d_52">
      <g>
       <use xlink:href="#me8918f6302" x="346.868182" y="25.28" style="stroke: #000000; stroke-width: 0.5"/>
      </g>
     </g>
    </g>
    <g id="xtick_24">
     <g id="line2d_53">
      <g>
       <use xlink:href="#mc143734fc2" x="377.304545" y="313.568" style="stroke: #000000; stroke-width: 0.5"/>
      </g>
     </g>
     <g id="line2d_54">
      <g>
       <use xlink:href="#me8918f6302" x="377.304545" y="25.28" style="stroke: #000000; stroke-width: 0.5"/>
      </g>
     </g>
    </g>
    <g id="xtick_25">
     <g id="line2d_55">
      <g>
       <use xlink:href="#mc143734fc2" x="392.522727" y="313.568" style="stroke: #000000; stroke-width: 0.5"/>
      </g>
     </g>
     <g id="line2d_56">
      <g>
       <use xlink:href="#me8918f6302" x="392.522727" y="25.28" style="stroke: #000000; stroke-width: 0.5"/>
      </g>
     </g>
    </g>
    <g id="xtick_26">
     <g id="line2d_57">
      <g>
       <use xlink:href="#mc143734fc2" x="407.740909" y="313.568" style="stroke: #000000; stroke-width: 0.5"/>
      </g>
     </g>
     <g id="line2d_58">
      <g>
       <use xlink:href="#me8918f6302" x="407.740909" y="25.28" style="stroke: #000000; stroke-width: 0.5"/>
      </g>
     </g>
    </g>
    <g id="xtick_27">
     <g id="line2d_59">
      <g>
       <use xlink:href="#mc143734fc2" x="422.959091" y="313.568" style="stroke: #000000; stroke-width: 0.5"/>
      </g>
     </g>
     <g id="line2d_60">
      <g>
       <use xlink:href="#me8918f6302" x="422.959091" y="25.28" style="stroke: #000000; stroke-width: 0.5"/>
      </g>
     </g>
    </g>
    <g id="xtick_28">
     <g id="line2d_61">
      <g>
       <use xlink:href="#mc143734fc2" x="453.395455" y="313.568" style="stroke: #000000; stroke-width: 0.5"/>
      </g>
     </g>
     <g id="line2d_62">
      <g>
       <use xlink:href="#me8918f6302" x="453.395455" y="25.28" style="stroke: #000000; stroke-width: 0.5"/>
      </g>
     </g>
    </g>
    <g id="text_7">
     <!-- Time -->
     <g transform="translate(233.173438 341.429562) scale(0.14 -0.14)">
      <defs>
       <path id="STIXGeneral-Regular-54" d="M 3795 3149 
L 3642 3149 
Q 3539 3674 3353 3821 
Q 3168 3968 2656 3968 
L 2278 3968 
L 2278 710 
Q 2278 346 2387 243 
Q 2496 141 2893 122 
L 2893 0 
L 1024 0 
L 1024 122 
Q 1427 147 1526 256 
Q 1626 365 1626 787 
L 1626 3968 
L 1242 3968 
Q 723 3968 540 3817 
Q 358 3667 262 3149 
L 109 3149 
L 154 4237 
L 3750 4237 
L 3795 3149 
z
" transform="scale(0.015625)"/>
       <path id="STIXGeneral-Regular-69" d="M 1152 4045 
Q 1152 3904 1056 3811 
Q 960 3718 819 3718 
Q 685 3718 592 3811 
Q 499 3904 499 4045 
Q 499 4179 595 4275 
Q 691 4371 826 4371 
Q 966 4371 1059 4275 
Q 1152 4179 1152 4045 
z
M 1619 0 
L 102 0 
L 102 96 
Q 435 115 521 211 
Q 608 307 608 666 
L 608 2118 
Q 608 2342 563 2432 
Q 518 2522 397 2522 
Q 243 2522 128 2490 
L 128 2592 
L 1120 2944 
L 1146 2918 
L 1146 672 
Q 1146 314 1226 218 
Q 1306 122 1619 96 
L 1619 0 
z
" transform="scale(0.015625)"/>
       <path id="STIXGeneral-Regular-6d" d="M 4960 0 
L 3565 0 
L 3565 96 
Q 3834 122 3907 208 
Q 3981 294 3981 576 
L 3981 1894 
Q 3981 2278 3869 2444 
Q 3757 2611 3488 2611 
Q 3264 2611 3107 2521 
Q 2950 2432 2803 2221 
L 2803 608 
Q 2803 301 2896 201 
Q 2989 102 3264 96 
L 3264 0 
L 1830 0 
L 1830 96 
Q 2112 115 2189 188 
Q 2266 262 2266 550 
L 2266 1901 
Q 2266 2611 1850 2611 
Q 1670 2611 1468 2531 
Q 1267 2451 1171 2336 
Q 1088 2240 1088 2227 
L 1088 448 
Q 1088 243 1177 176 
Q 1267 109 1523 96 
L 1523 0 
L 102 0 
L 102 96 
Q 371 102 460 195 
Q 550 288 550 563 
L 550 2150 
Q 550 2387 499 2480 
Q 448 2573 326 2573 
Q 230 2573 122 2547 
L 122 2656 
Q 557 2778 1011 2944 
L 1062 2925 
L 1062 2451 
L 1075 2451 
Q 1363 2752 1584 2848 
Q 1805 2944 2054 2944 
Q 2560 2944 2733 2406 
Q 3232 2944 3776 2944 
Q 4518 2944 4518 1792 
L 4518 493 
Q 4518 282 4582 202 
Q 4646 122 4794 109 
L 4960 96 
L 4960 0 
z
" transform="scale(0.015625)"/>
       <path id="STIXGeneral-Regular-65" d="M 2611 1050 
L 2714 1005 
Q 2330 -64 1376 -64 
Q 813 -64 486 329 
Q 160 723 160 1389 
Q 160 2074 525 2509 
Q 890 2944 1485 2944 
Q 2061 2944 2374 2502 
Q 2560 2246 2592 1773 
L 621 1773 
Q 646 1370 700 1158 
Q 755 947 915 730 
Q 1184 378 1626 378 
Q 1939 378 2153 531 
Q 2368 685 2611 1050 
z
M 634 1978 
L 1939 1978 
Q 1882 2381 1750 2547 
Q 1619 2714 1312 2714 
Q 1043 2714 864 2525 
Q 685 2336 634 1978 
z
" transform="scale(0.015625)"/>
      </defs>
      <use xlink:href="#STIXGeneral-Regular-54"/>
      <use xlink:href="#STIXGeneral-Regular-69" transform="translate(61.099991 0)"/>
      <use xlink:href="#STIXGeneral-Regular-6d" transform="translate(88.899979 0)"/>
      <use xlink:href="#STIXGeneral-Regular-65" transform="translate(166.699966 0)"/>
     </g>
    </g>
   </g>
   <g id="matplotlib.axis_2">
    <g id="ytick_1">
     <g id="line2d_63">
      <path d="M 38.7 301.51653 
L 457.2 301.51653 
" clip-path="url(#p5881de09a3)" style="fill: none; stroke: #b0b0b0; stroke-opacity: 0.35; stroke-width: 0.5; stroke-linecap: square"/>
     </g>
     <g id="line2d_64">
      <defs>
       <path id="me3fcd698b2" d="M 0 0 
L 3 0 
" style="stroke: #000000; stroke-width: 0.5"/>
      </defs>
      <g>
       <use xlink:href="#me3fcd698b2" x="38.7" y="301.51653" style="stroke: #000000; stroke-width: 0.5"/>
      </g>
     </g>
     <g id="line2d_65">
      <defs>
       <path id="m56aa8bca24" d="M 0 0 
L -3 0 
" style="stroke: #000000; stroke-width: 0.5"/>
      </defs>
      <g>
       <use xlink:href="#m56aa8bca24" x="457.2" y="301.51653" style="stroke: #000000; stroke-width: 0.5"/>
      </g>
     </g>
     <g id="text_8">
      <!-- $\mathdefault{0.0}$ -->
      <g transform="translate(20.2 305.614343) scale(0.12 -0.12)">
       <defs>
        <path id="STIXGeneral-Regular-2e" d="M 1158 275 
Q 1158 134 1052 32 
Q 947 -70 800 -70 
Q 653 -70 550 32 
Q 448 134 448 281 
Q 448 429 553 534 
Q 659 640 806 640 
Q 947 640 1052 531 
Q 1158 422 1158 275 
z
" transform="scale(0.015625)"/>
       </defs>
       <use xlink:href="#STIXGeneral-Regular-30" transform="translate(0 0.40625)"/>
       <use xlink:href="#STIXGeneral-Regular-2e" transform="translate(49.999985 0.40625)"/>
       <use xlink:href="#STIXGeneral-Regular-30" transform="translate(74.999969 0.40625)"/>
      </g>
     </g>
    </g>
    <g id="ytick_2">
     <g id="line2d_66">
      <path d="M 38.7 248.890024 
L 457.2 248.890024 
" clip-path="url(#p5881de09a3)" style="fill: none; stroke: #b0b0b0; stroke-opacity: 0.35; stroke-width: 0.5; stroke-linecap: square"/>
     </g>
     <g id="line2d_67">
      <g>
       <use xlink:href="#me3fcd698b2" x="38.7" y="248.890024" style="stroke: #000000; stroke-width: 0.5"/>
      </g>
     </g>
     <g id="line2d_68">
      <g>
       <use xlink:href="#m56aa8bca24" x="457.2" y="248.890024" style="stroke: #000000; stroke-width: 0.5"/>
      </g>
     </g>
     <g id="text_9">
      <!-- $\mathdefault{0.2}$ -->
      <g transform="translate(20.2 252.987837) scale(0.12 -0.12)">
       <use xlink:href="#STIXGeneral-Regular-30" transform="translate(0 0.40625)"/>
       <use xlink:href="#STIXGeneral-Regular-2e" transform="translate(49.999985 0.40625)"/>
       <use xlink:href="#STIXGeneral-Regular-32" transform="translate(74.999969 0.40625)"/>
      </g>
     </g>
    </g>
    <g id="ytick_3">
     <g id="line2d_69">
      <path d="M 38.7 196.263518 
L 457.2 196.263518 
" clip-path="url(#p5881de09a3)" style="fill: none; stroke: #b0b0b0; stroke-opacity: 0.35; stroke-width: 0.5; stroke-linecap: square"/>
     </g>
     <g id="line2d_70">
      <g>
       <use xlink:href="#me3fcd698b2" x="38.7" y="196.263518" style="stroke: #000000; stroke-width: 0.5"/>
      </g>
     </g>
     <g id="line2d_71">
      <g>
       <use xlink:href="#m56aa8bca24" x="457.2" y="196.263518" style="stroke: #000000; stroke-width: 0.5"/>
      </g>
     </g>
     <g id="text_10">
      <!-- $\mathdefault{0.4}$ -->
      <g transform="translate(20.2 200.361331) scale(0.12 -0.12)">
       <use xlink:href="#STIXGeneral-Regular-30" transform="translate(0 0.40625)"/>
       <use xlink:href="#STIXGeneral-Regular-2e" transform="translate(49.999985 0.40625)"/>
       <use xlink:href="#STIXGeneral-Regular-34" transform="translate(74.999969 0.40625)"/>
      </g>
     </g>
    </g>
    <g id="ytick_4">
     <g id="line2d_72">
      <path d="M 38.7 143.637012 
L 457.2 143.637012 
" clip-path="url(#p5881de09a3)" style="fill: none; stroke: #b0b0b0; stroke-opacity: 0.35; stroke-width: 0.5; stroke-linecap: square"/>
     </g>
     <g id="line2d_73">
      <g>
       <use xlink:href="#me3fcd698b2" x="38.7" y="143.637012" style="stroke: #000000; stroke-width: 0.5"/>
      </g>
     </g>
     <g id="line2d_74">
      <g>
       <use xlink:href="#m56aa8bca24" x="457.2" y="143.637012" style="stroke: #000000; stroke-width: 0.5"/>
      </g>
     </g>
     <g id="text_11">
      <!-- $\mathdefault{0.6}$ -->
      <g transform="translate(20.2 147.734825) scale(0.12 -0.12)">
       <defs>
        <path id="STIXGeneral-Regular-36" d="M 2854 4378 
L 2867 4275 
Q 2112 4154 1606 3664 
Q 1101 3174 973 2451 
Q 1344 2739 1786 2739 
Q 2349 2739 2672 2380 
Q 2995 2022 2995 1402 
Q 2995 774 2669 378 
Q 2291 -90 1651 -90 
Q 870 -90 518 557 
Q 218 1107 218 1786 
Q 218 2835 915 3552 
Q 1312 3962 1731 4131 
Q 2150 4301 2854 4378 
z
M 2419 1203 
Q 2419 2445 1555 2445 
Q 1235 2445 1024 2275 
Q 813 2106 813 1702 
Q 813 954 1046 522 
Q 1280 90 1722 90 
Q 2061 90 2240 394 
Q 2419 698 2419 1203 
z
" transform="scale(0.015625)"/>
       </defs>
       <use xlink:href="#STIXGeneral-Regular-30" transform="translate(0 0.59375)"/>
       <use xlink:href="#STIXGeneral-Regular-2e" transform="translate(49.999985 0.59375)"/>
       <use xlink:href="#STIXGeneral-Regular-36" transform="translate(74.999969 0.59375)"/>
      </g>
     </g>
    </g>
    <g id="ytick_5">
     <g id="line2d_75">
      <path d="M 38.7 91.010506 
L 457.2 91.010506 
" clip-path="url(#p5881de09a3)" style="fill: none; stroke: #b0b0b0; stroke-opacity: 0.35; stroke-width: 0.5; stroke-linecap: square"/>
     </g>
     <g id="line2d_76">
      <g>
       <use xlink:href="#me3fcd698b2" x="38.7" y="91.010506" style="stroke: #000000; stroke-width: 0.5"/>
      </g>
     </g>
     <g id="line2d_77">
      <g>
       <use xlink:href="#m56aa8bca24" x="457.2" y="91.010506" style="stroke: #000000; stroke-width: 0.5"/>
      </g>
     </g>
     <g id="text_12">
      <!-- $\mathdefault{0.8}$ -->
      <g transform="translate(20.2 95.108319) scale(0.12 -0.12)">
       <defs>
        <path id="STIXGeneral-Regular-38" d="M 2848 992 
Q 2848 499 2505 204 
Q 2163 -90 1587 -90 
Q 1050 -90 704 204 
Q 358 499 358 954 
Q 358 1293 524 1533 
Q 691 1773 1190 2125 
Q 710 2522 553 2765 
Q 397 3008 397 3328 
Q 397 3782 745 4054 
Q 1094 4326 1638 4326 
Q 2106 4326 2410 4060 
Q 2714 3795 2714 3411 
Q 2714 3059 2531 2848 
Q 2349 2637 1856 2374 
Q 2432 1990 2640 1689 
Q 2848 1389 2848 992 
z
M 2272 3411 
Q 2272 3744 2086 3945 
Q 1901 4147 1574 4147 
Q 1248 4147 1059 3977 
Q 870 3808 870 3513 
Q 870 3219 1059 2979 
Q 1248 2739 1670 2490 
Q 1997 2682 2134 2896 
Q 2272 3110 2272 3411 
z
M 1734 1741 
L 1357 1997 
Q 1075 1766 960 1545 
Q 845 1325 845 1011 
Q 845 576 1065 333 
Q 1286 90 1658 90 
Q 1971 90 2166 285 
Q 2362 480 2362 794 
Q 2362 1082 2214 1299 
Q 2067 1517 1734 1741 
z
" transform="scale(0.015625)"/>
       </defs>
       <use xlink:href="#STIXGeneral-Regular-30" transform="translate(0 0.40625)"/>
       <use xlink:href="#STIXGeneral-Regular-2e" transform="translate(49.999985 0.40625)"/>
       <use xlink:href="#STIXGeneral-Regular-38" transform="translate(74.999969 0.40625)"/>
      </g>
     </g>
    </g>
    <g id="ytick_6">
     <g id="line2d_78">
      <path d="M 38.7 38.384 
L 457.2 38.384 
" clip-path="url(#p5881de09a3)" style="fill: none; stroke: #b0b0b0; stroke-opacity: 0.35; stroke-width: 0.5; stroke-linecap: square"/>
     </g>
     <g id="line2d_79">
      <g>
       <use xlink:href="#me3fcd698b2" x="38.7" y="38.384" style="stroke: #000000; stroke-width: 0.5"/>
      </g>
     </g>
     <g id="line2d_80">
      <g>
       <use xlink:href="#m56aa8bca24" x="457.2" y="38.384" style="stroke: #000000; stroke-width: 0.5"/>
      </g>
     </g>
     <g id="text_13">
      <!-- $\mathdefault{1.0}$ -->
      <g transform="translate(20.2 42.481812) scale(0.12 -0.12)">
       <use xlink:href="#STIXGeneral-Regular-31" transform="translate(0 0.40625)"/>
       <use xlink:href="#STIXGeneral-Regular-2e" transform="translate(49.999985 0.40625)"/>
       <use xlink:href="#STIXGeneral-Regular-30" transform="translate(74.999969 0.40625)"/>
      </g>
     </g>
    </g>
    <g id="ytick_7">
     <g id="line2d_81">
      <defs>
       <path id="m14f0322efb" d="M 0 0 
L 1.5 0 
" style="stroke: #000000; stroke-width: 0.5"/>
      </defs>
      <g>
       <use xlink:href="#m14f0322efb" x="38.7" y="288.359904" style="stroke: #000000; stroke-width: 0.5"/>
      </g>
     </g>
     <g id="line2d_82">
      <defs>
       <path id="meea2f17998" d="M 0 0 
L -1.5 0 
" style="stroke: #000000; stroke-width: 0.5"/>
      </defs>
      <g>
       <use xlink:href="#meea2f17998" x="457.2" y="288.359904" style="stroke: #000000; stroke-width: 0.5"/>
      </g>
     </g>
    </g>
    <g id="ytick_8">
     <g id="line2d_83">
      <g>
       <use xlink:href="#m14f0322efb" x="38.7" y="275.203277" style="stroke: #000000; stroke-width: 0.5"/>
      </g>
     </g>
     <g id="line2d_84">
      <g>
       <use xlink:href="#meea2f17998" x="457.2" y="275.203277" style="stroke: #000000; stroke-width: 0.5"/>
      </g>
     </g>
    </g>
    <g id="ytick_9">
     <g id="line2d_85">
      <g>
       <use xlink:href="#m14f0322efb" x="38.7" y="262.046651" style="stroke: #000000; stroke-width: 0.5"/>
      </g>
     </g>
     <g id="line2d_86">
      <g>
       <use xlink:href="#meea2f17998" x="457.2" y="262.046651" style="stroke: #000000; stroke-width: 0.5"/>
      </g>
     </g>
    </g>
    <g id="ytick_10">
     <g id="line2d_87">
      <g>
       <use xlink:href="#m14f0322efb" x="38.7" y="235.733398" style="stroke: #000000; stroke-width: 0.5"/>
      </g>
     </g>
     <g id="line2d_88">
      <g>
       <use xlink:href="#meea2f17998" x="457.2" y="235.733398" style="stroke: #000000; stroke-width: 0.5"/>
      </g>
     </g>
    </g>
    <g id="ytick_11">
     <g id="line2d_89">
      <g>
       <use xlink:href="#m14f0322efb" x="38.7" y="222.576771" style="stroke: #000000; stroke-width: 0.5"/>
      </g>
     </g>
     <g id="line2d_90">
      <g>
       <use xlink:href="#meea2f17998" x="457.2" y="222.576771" style="stroke: #000000; stroke-width: 0.5"/>
      </g>
     </g>
    </g>
    <g id="ytick_12">
     <g id="line2d_91">
      <g>
       <use xlink:href="#m14f0322efb" x="38.7" y="209.420145" style="stroke: #000000; stroke-width: 0.5"/>
      </g>
     </g>
     <g id="line2d_92">
      <g>
       <use xlink:href="#meea2f17998" x="457.2" y="209.420145" style="stroke: #000000; stroke-width: 0.5"/>
      </g>
     </g>
    </g>
    <g id="ytick_13">
     <g id="line2d_93">
      <g>
       <use xlink:href="#m14f0322efb" x="38.7" y="183.106892" style="stroke: #000000; stroke-width: 0.5"/>
      </g>
     </g>
     <g id="line2d_94">
      <g>
       <use xlink:href="#meea2f17998" x="457.2" y="183.106892" style="stroke: #000000; stroke-width: 0.5"/>
      </g>
     </g>
    </g>
    <g id="ytick_14">
     <g id="line2d_95">
      <g>
       <use xlink:href="#m14f0322efb" x="38.7" y="169.950265" style="stroke: #000000; stroke-width: 0.5"/>
      </g>
     </g>
     <g id="line2d_96">
      <g>
       <use xlink:href="#meea2f17998" x="457.2" y="169.950265" style="stroke: #000000; stroke-width: 0.5"/>
      </g>
     </g>
    </g>
    <g id="ytick_15">
     <g id="line2d_97">
      <g>
       <use xlink:href="#m14f0322efb" x="38.7" y="156.793639" style="stroke: #000000; stroke-width: 0.5"/>
      </g>
     </g>
     <g id="line2d_98">
      <g>
       <use xlink:href="#meea2f17998" x="457.2" y="156.793639" style="stroke: #000000; stroke-width: 0.5"/>
      </g>
     </g>
    </g>
    <g id="ytick_16">
     <g id="line2d_99">
      <g>
       <use xlink:href="#m14f0322efb" x="38.7" y="130.480386" style="stroke: #000000; stroke-width: 0.5"/>
      </g>
     </g>
     <g id="line2d_100">
      <g>
       <use xlink:href="#meea2f17998" x="457.2" y="130.480386" style="stroke: #000000; stroke-width: 0.5"/>
      </g>
     </g>
    </g>
    <g id="ytick_17">
     <g id="line2d_101">
      <g>
       <use xlink:href="#m14f0322efb" x="38.7" y="117.323759" style="stroke: #000000; stroke-width: 0.5"/>
      </g>
     </g>
     <g id="line2d_102">
      <g>
       <use xlink:href="#meea2f17998" x="457.2" y="117.323759" style="stroke: #000000; stroke-width: 0.5"/>
      </g>
     </g>
    </g>
    <g id="ytick_18">
     <g id="line2d_103">
      <g>
       <use xlink:href="#m14f0322efb" x="38.7" y="104.167133" style="stroke: #000000; stroke-width: 0.5"/>
      </g>
     </g>
     <g id="line2d_104">
      <g>
       <use xlink:href="#meea2f17998" x="457.2" y="104.167133" style="stroke: #000000; stroke-width: 0.5"/>
      </g>
     </g>
    </g>
    <g id="ytick_19">
     <g id="line2d_105">
      <g>
       <use xlink:href="#m14f0322efb" x="38.7" y="77.85388" style="stroke: #000000; stroke-width: 0.5"/>
      </g>
     </g>
     <g id="line2d_106">
      <g>
       <use xlink:href="#meea2f17998" x="457.2" y="77.85388" style="stroke: #000000; stroke-width: 0.5"/>
      </g>
     </g>
    </g>
    <g id="ytick_20">
     <g id="line2d_107">
      <g>
       <use xlink:href="#m14f0322efb" x="38.7" y="64.697253" style="stroke: #000000; stroke-width: 0.5"/>
      </g>
     </g>
     <g id="line2d_108">
      <g>
       <use xlink:href="#meea2f17998" x="457.2" y="64.697253" style="stroke: #000000; stroke-width: 0.5"/>
      </g>
     </g>
    </g>
    <g id="ytick_21">
     <g id="line2d_109">
      <g>
       <use xlink:href="#m14f0322efb" x="38.7" y="51.540627" style="stroke: #000000; stroke-width: 0.5"/>
      </g>
     </g>
     <g id="line2d_110">
      <g>
       <use xlink:href="#meea2f17998" x="457.2" y="51.540627" style="stroke: #000000; stroke-width: 0.5"/>
      </g>
     </g>
    </g>
    <g id="text_14">
     <!-- Mean Particle Number -->
     <g transform="translate(13.161563 233.196187) rotate(-90) scale(0.14 -0.14)">
      <defs>
       <path id="STIXGeneral-Regular-4d" d="M 5530 0 
L 3738 0 
L 3738 122 
Q 4115 147 4214 265 
Q 4314 384 4314 787 
L 4314 3661 
L 2682 0 
L 2592 0 
L 979 3514 
L 979 966 
Q 979 448 1088 294 
Q 1197 141 1574 122 
L 1574 0 
L 77 0 
L 77 122 
Q 358 141 480 205 
Q 602 269 650 432 
Q 698 595 698 966 
L 698 3514 
Q 698 3878 589 3984 
Q 480 4090 90 4115 
L 90 4237 
L 1357 4237 
L 2835 1024 
L 4250 4237 
L 5523 4237 
L 5523 4115 
Q 5178 4109 5072 3993 
Q 4966 3878 4966 3520 
L 4966 717 
Q 4966 378 5072 262 
Q 5178 147 5530 122 
L 5530 0 
z
" transform="scale(0.015625)"/>
       <path id="STIXGeneral-Regular-61" d="M 2829 422 
L 2829 243 
Q 2586 -64 2253 -64 
Q 1888 -64 1843 403 
L 1837 403 
Q 1427 -64 909 -64 
Q 608 -64 422 112 
Q 237 288 237 602 
Q 237 1050 685 1350 
Q 992 1555 1837 1869 
L 1837 2214 
Q 1837 2502 1699 2646 
Q 1562 2790 1338 2790 
Q 1146 2790 1018 2697 
Q 890 2605 890 2477 
Q 890 2419 909 2348 
Q 928 2278 928 2208 
Q 928 2112 841 2029 
Q 755 1946 634 1946 
Q 525 1946 441 2029 
Q 358 2112 358 2240 
Q 358 2547 685 2752 
Q 986 2944 1421 2944 
Q 1939 2944 2176 2656 
Q 2291 2522 2323 2384 
Q 2355 2246 2355 1946 
L 2355 723 
Q 2355 301 2554 301 
Q 2682 301 2829 422 
z
M 1837 813 
L 1837 1715 
Q 1248 1510 1018 1293 
Q 800 1094 800 800 
Q 800 557 921 432 
Q 1043 307 1242 307 
Q 1453 307 1613 410 
Q 1747 506 1792 589 
Q 1837 672 1837 813 
z
" transform="scale(0.015625)"/>
       <path id="STIXGeneral-Regular-6e" d="M 3104 0 
L 1773 0 
L 1779 96 
Q 2016 115 2096 233 
Q 2176 352 2176 672 
L 2176 1946 
Q 2176 2592 1709 2592 
Q 1549 2592 1408 2515 
Q 1267 2438 1050 2227 
L 1050 461 
Q 1050 269 1136 192 
Q 1222 115 1466 96 
L 1466 0 
L 115 0 
L 115 96 
Q 358 115 435 214 
Q 512 314 512 602 
L 512 2157 
Q 512 2394 467 2483 
Q 422 2573 288 2573 
Q 160 2573 102 2547 
L 102 2656 
Q 550 2784 979 2944 
L 1030 2925 
L 1030 2426 
L 1037 2426 
Q 1491 2944 1958 2944 
Q 2323 2944 2518 2688 
Q 2714 2432 2714 1958 
L 2714 544 
Q 2714 288 2790 205 
Q 2867 122 3104 96 
L 3104 0 
z
" transform="scale(0.015625)"/>
       <path id="STIXGeneral-Regular-20" transform="scale(0.015625)"/>
       <path id="STIXGeneral-Regular-50" d="M 102 4237 
L 1760 4237 
Q 2669 4237 3149 3834 
Q 3469 3565 3469 3072 
Q 3469 2560 3104 2234 
Q 2835 1990 2553 1916 
Q 2272 1843 1734 1843 
Q 1549 1843 1293 1862 
L 1293 717 
Q 1293 352 1398 246 
Q 1504 141 1894 122 
L 1894 0 
L 102 0 
L 102 122 
Q 474 147 557 256 
Q 640 365 640 781 
L 640 3526 
Q 640 3885 547 3987 
Q 454 4090 102 4115 
L 102 4237 
z
M 1293 3770 
L 1293 2118 
Q 1510 2099 1683 2099 
Q 2202 2099 2486 2352 
Q 2771 2605 2771 3040 
Q 2771 3558 2476 3779 
Q 2182 4000 1517 4000 
Q 1382 4000 1337 3952 
Q 1293 3904 1293 3770 
z
" transform="scale(0.015625)"/>
       <path id="STIXGeneral-Regular-72" d="M 1024 2931 
L 1024 2342 
Q 1267 2688 1430 2816 
Q 1594 2944 1792 2944 
Q 1958 2944 2051 2854 
Q 2144 2765 2144 2605 
Q 2144 2470 2077 2393 
Q 2010 2317 1894 2317 
Q 1773 2317 1638 2445 
Q 1536 2541 1472 2541 
Q 1338 2541 1181 2355 
Q 1024 2170 1024 2016 
L 1024 576 
Q 1024 301 1133 205 
Q 1242 109 1568 96 
L 1568 0 
L 32 0 
L 32 96 
Q 339 154 412 224 
Q 486 294 486 538 
L 486 2138 
Q 486 2349 438 2435 
Q 390 2522 269 2522 
Q 166 2522 45 2496 
L 45 2598 
Q 448 2726 992 2944 
L 1024 2931 
z
" transform="scale(0.015625)"/>
       <path id="STIXGeneral-Regular-74" d="M 1702 493 
L 1786 422 
Q 1478 -64 1011 -64 
Q 448 -64 448 749 
L 448 2675 
L 109 2675 
Q 83 2694 83 2720 
Q 83 2771 192 2842 
Q 435 2982 813 3526 
Q 826 3546 874 3606 
Q 922 3667 941 3706 
Q 986 3706 986 3622 
L 986 2880 
L 1632 2880 
L 1632 2675 
L 986 2675 
L 986 845 
Q 986 538 1062 403 
Q 1139 269 1318 269 
Q 1510 269 1702 493 
z
" transform="scale(0.015625)"/>
       <path id="STIXGeneral-Regular-63" d="M 2547 998 
L 2637 941 
Q 2362 403 2112 205 
Q 1786 -64 1376 -64 
Q 845 -64 502 336 
Q 160 736 160 1357 
Q 160 2170 698 2618 
Q 1094 2944 1562 2944 
Q 1965 2944 2256 2749 
Q 2547 2554 2547 2285 
Q 2547 2176 2457 2096 
Q 2368 2016 2246 2016 
Q 2022 2016 1939 2310 
L 1901 2451 
Q 1850 2630 1773 2694 
Q 1696 2758 1523 2758 
Q 1133 2758 893 2451 
Q 653 2144 653 1645 
Q 653 1094 928 745 
Q 1203 397 1645 397 
Q 1920 397 2118 528 
Q 2317 659 2547 998 
z
" transform="scale(0.015625)"/>
       <path id="STIXGeneral-Regular-6c" d="M 1645 0 
L 134 0 
L 134 96 
Q 435 122 531 221 
Q 627 320 627 589 
L 627 3590 
Q 627 3821 569 3910 
Q 512 4000 358 4000 
Q 224 4000 122 3987 
L 122 4090 
Q 730 4237 1133 4371 
L 1165 4346 
L 1165 557 
Q 1165 288 1254 201 
Q 1344 115 1645 96 
L 1645 0 
z
" transform="scale(0.015625)"/>
       <path id="STIXGeneral-Regular-4e" d="M 4525 4237 
L 4525 4115 
Q 4198 4083 4102 4000 
Q 4000 3910 3958 3756 
Q 3917 3603 3917 3245 
L 3917 -70 
L 3802 -70 
L 979 3443 
L 979 960 
Q 979 474 1088 323 
Q 1197 173 1574 122 
L 1574 0 
L 77 0 
L 77 122 
Q 474 166 586 310 
Q 698 454 698 960 
L 698 3776 
Q 531 3981 416 4048 
Q 301 4115 77 4115 
L 77 4237 
L 1165 4237 
L 3635 1146 
L 3635 3322 
Q 3635 3808 3514 3949 
Q 3437 4032 3344 4061 
Q 3251 4090 3008 4115 
L 3008 4237 
L 4525 4237 
z
" transform="scale(0.015625)"/>
       <path id="STIXGeneral-Regular-75" d="M 3072 320 
L 3072 230 
Q 2573 96 2195 -58 
L 2163 -38 
L 2163 486 
L 2150 486 
Q 1747 -64 1235 -64 
Q 870 -64 662 160 
Q 454 384 454 755 
L 454 2362 
Q 454 2598 371 2688 
Q 288 2778 58 2790 
L 58 2880 
L 992 2880 
L 992 813 
Q 992 595 1123 451 
Q 1254 307 1446 307 
Q 1760 307 1984 506 
Q 2067 582 2099 649 
Q 2131 717 2131 877 
L 2131 2355 
Q 2131 2605 2041 2678 
Q 1952 2752 1658 2771 
L 1658 2880 
L 2669 2880 
L 2669 685 
Q 2669 461 2742 390 
Q 2816 320 3034 320 
L 3072 320 
z
" transform="scale(0.015625)"/>
       <path id="STIXGeneral-Regular-62" d="M 979 4358 
L 979 2406 
Q 1082 2650 1315 2797 
Q 1549 2944 1843 2944 
Q 2349 2944 2672 2541 
Q 2995 2138 2995 1536 
Q 2995 832 2566 384 
Q 2138 -64 1498 -64 
Q 1107 -64 774 67 
Q 442 198 442 358 
L 442 3622 
Q 442 3859 384 3926 
Q 326 3994 128 3994 
Q 83 3994 19 3981 
L 19 4090 
L 211 4147 
Q 864 4346 947 4371 
L 979 4358 
z
M 979 2035 
L 979 474 
Q 979 326 1161 233 
Q 1344 141 1600 141 
Q 1978 141 2195 416 
Q 2432 710 2432 1261 
Q 2432 1888 2182 2240 
Q 1971 2541 1613 2541 
Q 1357 2541 1168 2390 
Q 979 2240 979 2035 
z
" transform="scale(0.015625)"/>
      </defs>
      <use xlink:href="#STIXGeneral-Regular-4d"/>
      <use xlink:href="#STIXGeneral-Regular-65" transform="translate(88.899994 0)"/>
      <use xlink:href="#STIXGeneral-Regular-61" transform="translate(133.299988 0)"/>
      <use xlink:href="#STIXGeneral-Regular-6e" transform="translate(177.699982 0)"/>
      <use xlink:href="#STIXGeneral-Regular-20" transform="translate(227.699966 0)"/>
      <use xlink:href="#STIXGeneral-Regular-50" transform="translate(252.699951 0)"/>
      <use xlink:href="#STIXGeneral-Regular-61" transform="translate(308.399948 0)"/>
      <use xlink:href="#STIXGeneral-Regular-72" transform="translate(352.799942 0)"/>
      <use xlink:href="#STIXGeneral-Regular-74" transform="translate(386.09993 0)"/>
      <use xlink:href="#STIXGeneral-Regular-69" transform="translate(413.899918 0)"/>
      <use xlink:href="#STIXGeneral-Regular-63" transform="translate(441.699905 0)"/>
      <use xlink:href="#STIXGeneral-Regular-6c" transform="translate(486.099899 0)"/>
      <use xlink:href="#STIXGeneral-Regular-65" transform="translate(513.899887 0)"/>
      <use xlink:href="#STIXGeneral-Regular-20" transform="translate(558.299881 0)"/>
      <use xlink:href="#STIXGeneral-Regular-4e" transform="translate(583.299866 0)"/>
      <use xlink:href="#STIXGeneral-Regular-75" transform="translate(655.499847 0)"/>
      <use xlink:href="#STIXGeneral-Regular-6d" transform="translate(705.499832 0)"/>
      <use xlink:href="#STIXGeneral-Regular-62" transform="translate(783.29982 0)"/>
      <use xlink:href="#STIXGeneral-Regular-65" transform="translate(833.299805 0)"/>
      <use xlink:href="#STIXGeneral-Regular-72" transform="translate(877.699799 0)"/>
     </g>
    </g>
   </g>
   <g id="line2d_111">
    <path d="M 57.722727 45.070372 
L 61.983818 59.036652 
L 66.244909 72.242315 
L 70.506 84.728787 
L 74.767091 96.535235 
L 79.028182 107.698693 
L 83.365364 118.437351 
L 87.702545 128.581023 
L 92.039727 138.162676 
L 96.376909 147.213448 
L 100.790182 155.908435 
L 105.203455 164.113459 
L 109.616727 171.856129 
L 114.106091 179.284792 
L 118.595455 186.287844 
L 123.160909 192.99824 
L 127.726364 199.317853 
L 132.367909 205.36564 
L 137.085545 211.145954 
L 141.803182 216.578772 
L 146.596909 221.764776 
L 151.466727 226.708986 
L 156.412636 231.416815 
L 161.434636 235.894023 
L 166.608818 240.208016 
L 171.859091 244.295658 
L 177.261545 248.217468 
L 182.740091 251.920106 
L 188.370818 255.457735 
L 194.153727 258.828492 
L 200.088818 262.031614 
L 206.252182 265.103789 
L 212.567727 268.004022 
L 219.111545 270.765646 
L 225.959727 273.412339 
L 233.036182 275.908173 
L 240.417 278.275512 
L 248.178273 280.529204 
L 256.32 282.658879 
L 264.842182 284.656955 
L 273.897 286.548468 
L 283.484455 288.320464 
L 293.680636 289.975382 
L 304.561636 291.513193 
L 316.279636 292.940949 
L 328.910727 294.252617 
L 342.683182 295.455264 
L 357.749182 296.54405 
L 374.413091 297.522029 
L 393.131455 298.393141 
L 414.360818 299.153561 
L 438.177273 299.78861 
L 438.177273 299.78861 
" clip-path="url(#p5881de09a3)" style="fill: none; stroke-dasharray: 2.2,3.63; stroke-dashoffset: 0; stroke: #2ca02c; stroke-width: 2.2"/>
    <defs>
     <path id="m2309010dd1" d="M -1.6 1.6 
L 1.6 1.6 
L 1.6 -1.6 
L -1.6 -1.6 
z
" style="stroke: #2ca02c; stroke-linejoin: miter"/>
    </defs>
    <g clip-path="url(#p5881de09a3)">
     <use xlink:href="#m2309010dd1" x="57.722727" y="45.070372" style="fill: #2ca02c; stroke: #2ca02c; stroke-linejoin: miter"/>
     <use xlink:href="#m2309010dd1" x="91.963636" y="137.99924" style="fill: #2ca02c; stroke: #2ca02c; stroke-linejoin: miter"/>
     <use xlink:href="#m2309010dd1" x="126.204545" y="197.253303" style="fill: #2ca02c; stroke: #2ca02c; stroke-linejoin: miter"/>
     <use xlink:href="#m2309010dd1" x="160.445455" y="235.035361" style="fill: #2ca02c; stroke: #2ca02c; stroke-linejoin: miter"/>
     <use xlink:href="#m2309010dd1" x="194.686364" y="259.126265" style="fill: #2ca02c; stroke: #2ca02c; stroke-linejoin: miter"/>
     <use xlink:href="#m2309010dd1" x="228.927273" y="274.487304" style="fill: #2ca02c; stroke: #2ca02c; stroke-linejoin: miter"/>
     <use xlink:href="#m2309010dd1" x="263.168182" y="284.281935" style="fill: #2ca02c; stroke: #2ca02c; stroke-linejoin: miter"/>
     <use xlink:href="#m2309010dd1" x="297.409091" y="290.527267" style="fill: #2ca02c; stroke: #2ca02c; stroke-linejoin: miter"/>
     <use xlink:href="#m2309010dd1" x="331.65" y="294.509466" style="fill: #2ca02c; stroke: #2ca02c; stroke-linejoin: miter"/>
     <use xlink:href="#m2309010dd1" x="365.890909" y="297.048629" style="fill: #2ca02c; stroke: #2ca02c; stroke-linejoin: miter"/>
     <use xlink:href="#m2309010dd1" x="400.131818" y="298.667671" style="fill: #2ca02c; stroke: #2ca02c; stroke-linejoin: miter"/>
     <use xlink:href="#m2309010dd1" x="434.372727" y="299.700017" style="fill: #2ca02c; stroke: #2ca02c; stroke-linejoin: miter"/>
    </g>
   </g>
   <g id="patch_3">
    <path d="M 38.7 313.568 
L 38.7 25.28 
" style="fill: none; stroke: #000000; stroke-width: 0.5; stroke-linejoin: miter; stroke-linecap: square"/>
   </g>
   <g id="patch_4">
    <path d="M 457.2 313.568 
L 457.2 25.28 
" style="fill: none; stroke: #000000; stroke-width: 0.5; stroke-linejoin: miter; stroke-linecap: square"/>
   </g>
   <g id="patch_5">
    <path d="M 38.7 313.568 
L 457.2 313.568 
" style="fill: none; stroke: #000000; stroke-width: 0.5; stroke-linejoin: miter; stroke-linecap: square"/>
   </g>
   <g id="patch_6">
    <path d="M 38.7 25.28 
L 457.2 25.28 
" style="fill: none; stroke: #000000; stroke-width: 0.5; stroke-linejoin: miter; stroke-linecap: square"/>
   </g>
   <g id="line2d_112">
    <path d="M 57.722727 38.384 
L 57.798818 38.384 
L 57.951 39.173398 
L 58.027091 39.173398 
L 58.559727 40.752193 
L 58.635818 40.752193 
L 58.864091 41.804723 
L 59.168455 42.59412 
L 59.244545 42.59412 
L 59.853273 44.436048 
L 60.157636 44.436048 
L 60.309818 44.962313 
L 60.538091 46.014843 
L 60.842455 47.593639 
L 60.918545 47.593639 
L 61.299 49.172434 
L 61.451182 49.698699 
L 61.527273 49.698699 
L 61.831636 51.540627 
L 62.288182 51.540627 
L 62.820818 53.119422 
L 62.973 53.119422 
L 63.201273 54.435084 
L 63.353455 54.435084 
L 63.505636 55.487614 
L 63.81 56.277012 
L 63.962182 56.277012 
L 64.266545 57.06641 
L 64.342636 57.06641 
L 64.494818 57.592675 
L 64.951364 57.592675 
L 65.103545 58.382072 
L 65.407909 60.224 
L 65.484 60.224 
L 65.788364 62.065928 
L 65.864455 62.065928 
L 67.158 66.802313 
L 67.310182 67.854843 
L 67.538455 68.907373 
L 67.614545 68.907373 
L 67.766727 69.696771 
L 67.918909 69.696771 
L 68.299364 70.749301 
L 68.375455 70.749301 
L 68.908091 72.328096 
L 68.984182 72.328096 
L 69.516818 74.433157 
L 69.669 75.222554 
L 69.821182 75.222554 
L 70.353818 78.380145 
L 70.429909 78.380145 
L 71.799545 82.853398 
L 71.951727 82.853398 
L 72.103909 83.905928 
L 72.18 83.905928 
L 72.332182 84.695325 
L 72.560455 86.27412 
L 72.788727 86.27412 
L 73.093091 87.063518 
L 73.169182 87.063518 
L 74.082273 89.957976 
L 74.158364 89.957976 
L 74.462727 91.536771 
L 74.538818 91.536771 
L 74.767091 92.589301 
L 74.995364 93.641831 
L 75.375818 95.746892 
L 75.451909 95.746892 
L 75.908455 97.588819 
L 76.136727 98.641349 
L 76.288909 98.904482 
L 76.593273 98.904482 
L 76.821545 99.430747 
L 76.897636 99.430747 
L 77.049818 99.957012 
L 77.125909 99.957012 
L 77.430273 100.74641 
L 77.506364 100.74641 
L 77.886818 101.79894 
L 78.343364 101.79894 
L 78.952091 103.640867 
L 79.180364 103.640867 
L 79.408636 104.167133 
L 79.636909 104.167133 
L 79.789091 104.430265 
L 80.093455 104.430265 
L 81.158727 107.850988 
L 81.234818 107.850988 
L 81.691364 109.166651 
L 81.995727 109.166651 
L 82.147909 109.692916 
L 82.300091 109.956048 
L 82.376182 109.956048 
L 82.528364 110.219181 
L 82.604455 110.219181 
L 82.756636 111.008578 
L 82.984909 111.534843 
L 83.137091 111.534843 
L 83.745818 113.376771 
L 83.898 113.376771 
L 84.126273 113.903036 
L 84.202364 113.903036 
L 84.430636 114.955566 
L 84.658909 115.744964 
L 84.887182 117.323759 
L 85.115455 117.850024 
L 85.267636 117.850024 
L 85.648091 118.902554 
L 85.800273 118.902554 
L 85.952455 119.691952 
L 86.104636 120.218217 
L 86.180727 120.218217 
L 86.332909 120.481349 
L 86.485091 120.481349 
L 86.789455 121.270747 
L 86.865545 121.270747 
L 87.169909 122.060145 
L 87.322091 122.060145 
L 87.474273 122.323277 
L 87.550364 122.323277 
L 87.702545 122.849542 
L 87.778636 122.849542 
L 87.930818 123.112675 
L 88.463455 123.112675 
L 88.615636 123.63894 
L 88.92 124.428337 
L 88.996091 124.428337 
L 89.148273 124.954602 
L 89.300455 125.217735 
L 89.452636 125.217735 
L 89.909182 126.533398 
L 90.061364 126.533398 
L 90.213545 127.059663 
L 90.365727 127.059663 
L 90.670091 127.84906 
L 90.898364 127.84906 
L 91.278818 128.90159 
L 91.811455 128.90159 
L 91.963636 129.164723 
L 92.115818 129.164723 
L 92.268 129.95412 
L 92.420182 129.95412 
L 93.257182 132.585446 
L 93.485455 132.585446 
L 93.713727 133.111711 
L 93.789818 133.111711 
L 94.094182 133.901108 
L 94.170273 133.901108 
L 94.398545 134.427373 
L 94.550727 134.427373 
L 94.779 135.479904 
L 94.931182 135.479904 
L 95.083364 135.743036 
L 95.235545 135.743036 
L 95.768182 137.321831 
L 95.844273 137.321831 
L 96.072545 138.637494 
L 96.148636 138.637494 
L 96.300818 139.426892 
L 96.605182 139.426892 
L 96.833455 139.953157 
L 96.985636 139.953157 
L 97.137818 140.479422 
L 97.366091 140.479422 
L 97.594364 141.005687 
L 97.670455 141.005687 
L 97.822636 141.268819 
L 97.898727 141.268819 
L 98.127 142.321349 
L 98.583545 144.163277 
L 98.735727 144.689542 
L 98.811818 144.689542 
L 99.040091 145.742072 
L 99.192273 146.268337 
L 99.268364 146.53147 
L 99.420545 147.847133 
L 99.724909 147.847133 
L 99.877091 148.373398 
L 100.029273 148.63653 
L 100.105364 148.63653 
L 100.257545 149.425928 
L 100.485818 150.478458 
L 100.561909 150.478458 
L 100.714091 150.74159 
L 100.790182 150.74159 
L 101.018455 151.267855 
L 101.170636 151.267855 
L 101.475 152.057253 
L 101.551091 152.057253 
L 101.779364 153.109783 
L 102.083727 153.109783 
L 102.235909 153.372916 
L 102.312 153.372916 
L 102.844636 154.951711 
L 102.996818 154.951711 
L 103.149 155.214843 
L 103.453364 155.214843 
L 103.757727 156.004241 
L 103.909909 156.004241 
L 104.290364 157.056771 
L 104.518636 157.056771 
L 104.670818 157.319904 
L 104.746909 157.319904 
L 104.899091 157.846169 
L 105.507818 159.688096 
L 106.040455 159.688096 
L 106.953545 162.582554 
L 107.105727 162.582554 
L 107.486182 163.635084 
L 107.638364 163.635084 
L 107.790545 164.161349 
L 107.942727 164.161349 
L 108.094909 164.950747 
L 108.323182 164.950747 
L 108.475364 165.740145 
L 108.703636 167.055807 
L 108.779727 167.055807 
L 109.236273 168.37147 
L 109.464545 168.37147 
L 109.768909 169.160867 
L 109.845 169.160867 
L 110.225455 170.213398 
L 110.529818 170.213398 
L 110.682 171.002795 
L 110.910273 171.52906 
L 110.986364 171.52906 
L 111.747273 173.897253 
L 111.899455 173.897253 
L 112.051636 174.160386 
L 112.279909 174.160386 
L 112.584273 174.949783 
L 112.888636 174.949783 
L 113.040818 175.212916 
L 113.269091 175.212916 
L 113.497364 175.739181 
L 113.649545 175.739181 
L 114.334364 177.844241 
L 114.562636 177.844241 
L 114.790909 178.370506 
L 114.943091 178.370506 
L 115.171364 178.896771 
L 115.247455 178.896771 
L 115.475727 179.423036 
L 115.704 179.423036 
L 115.856182 179.686169 
L 115.932273 179.686169 
L 116.084455 179.949301 
L 116.312727 179.949301 
L 116.464909 180.475566 
L 116.693182 180.475566 
L 116.921455 181.001831 
L 117.301909 181.001831 
L 117.530182 181.528096 
L 118.215 181.528096 
L 118.443273 182.054361 
L 118.519364 182.054361 
L 118.671545 182.580627 
L 118.747636 182.580627 
L 118.899818 182.843759 
L 119.204182 182.843759 
L 119.356364 183.633157 
L 119.508545 183.633157 
L 119.660727 183.896289 
L 119.812909 183.896289 
L 119.965091 184.159422 
L 120.041182 184.159422 
L 120.497727 185.475084 
L 120.573818 185.475084 
L 120.726 185.738217 
L 120.802091 185.738217 
L 121.106455 187.317012 
L 121.258636 187.580145 
L 121.563 187.580145 
L 121.791273 188.10641 
L 121.943455 188.10641 
L 122.171727 188.632675 
L 122.628273 188.632675 
L 122.856545 189.15894 
L 123.160909 189.15894 
L 123.313091 189.422072 
L 123.465273 189.422072 
L 123.769636 190.21147 
L 124.074 190.21147 
L 124.454455 191.264 
L 124.530545 191.264 
L 124.758818 191.790265 
L 124.911 191.790265 
L 125.063182 192.053398 
L 125.139273 192.053398 
L 125.595818 193.36906 
L 125.748 193.36906 
L 125.900182 193.632193 
L 126.052364 193.632193 
L 126.204545 194.158458 
L 126.432818 194.158458 
L 126.661091 194.684723 
L 126.737182 194.684723 
L 127.422 196.789783 
L 128.106818 196.789783 
L 128.259 197.052916 
L 128.335091 197.052916 
L 128.487273 197.316048 
L 128.791636 197.316048 
L 129.019909 197.842313 
L 129.248182 197.842313 
L 129.476455 198.368578 
L 129.704727 198.368578 
L 129.933 198.894843 
L 130.085182 198.894843 
L 130.237364 199.157976 
L 130.389545 199.157976 
L 130.693909 199.947373 
L 130.77 199.947373 
L 131.074364 200.736771 
L 131.226545 200.736771 
L 131.454818 201.263036 
L 131.607 201.263036 
L 131.759182 201.789301 
L 131.987455 202.315566 
L 132.063545 202.315566 
L 132.215727 202.578699 
L 132.672273 202.578699 
L 132.976636 203.368096 
L 133.052727 203.368096 
L 133.204909 203.631229 
L 133.585364 203.631229 
L 133.813636 204.157494 
L 134.118 204.157494 
L 134.270182 204.946892 
L 134.650636 204.946892 
L 134.878909 205.473157 
L 135.107182 205.473157 
L 135.259364 205.736289 
L 135.792 205.736289 
L 136.020273 206.262554 
L 136.248545 206.262554 
L 136.705091 207.578217 
L 136.781182 207.578217 
L 136.933364 207.841349 
L 137.009455 207.841349 
L 137.237727 208.367614 
L 137.922545 208.367614 
L 138.150818 208.89388 
L 138.226909 208.89388 
L 138.607364 209.94641 
L 138.835636 209.94641 
L 138.987818 210.209542 
L 139.216091 210.209542 
L 139.368273 210.472675 
L 139.444364 210.472675 
L 139.596545 210.99894 
L 140.053091 212.314602 
L 140.509636 212.314602 
L 140.661818 212.840867 
L 140.890091 213.367133 
L 140.966182 213.367133 
L 141.118364 213.630265 
L 141.422727 213.630265 
L 141.651 214.15653 
L 142.335818 214.15653 
L 142.564091 214.682795 
L 142.716273 214.682795 
L 142.868455 214.945928 
L 143.248909 214.945928 
L 143.477182 215.472193 
L 143.933727 215.472193 
L 144.085909 215.735325 
L 144.314182 215.735325 
L 144.466364 215.998458 
L 144.542455 215.998458 
L 144.770727 216.524723 
L 144.922909 216.524723 
L 145.151182 217.050988 
L 145.227273 217.050988 
L 145.379455 217.31412 
L 145.759909 217.31412 
L 146.368636 219.156048 
L 146.444727 219.156048 
L 146.749091 219.945446 
L 146.977364 219.945446 
L 147.205636 220.471711 
L 147.281727 220.471711 
L 147.433909 220.734843 
L 148.042636 220.734843 
L 148.423091 221.787373 
L 148.651364 221.787373 
L 148.879636 222.313639 
L 148.955727 222.313639 
L 149.107909 222.839904 
L 149.640545 222.839904 
L 149.792727 223.103036 
L 149.944909 223.103036 
L 150.249273 223.892434 
L 150.325364 223.892434 
L 150.477545 224.155566 
L 151.238455 224.155566 
L 151.390636 224.681831 
L 151.695 224.681831 
L 151.847182 224.944964 
L 151.999364 224.944964 
L 152.532 226.523759 
L 152.608091 226.523759 
L 152.760273 226.786892 
L 152.988545 226.786892 
L 153.216818 227.313157 
L 153.445091 227.313157 
L 153.597273 227.576289 
L 153.825545 227.576289 
L 154.053818 228.102554 
L 154.129909 228.102554 
L 154.358182 229.155084 
L 154.434273 229.155084 
L 154.586455 229.418217 
L 154.890818 229.418217 
L 155.043 229.681349 
L 155.119091 229.681349 
L 155.271273 229.944482 
L 155.347364 229.944482 
L 155.499545 230.207614 
L 155.575636 230.207614 
L 155.727818 230.73388 
L 155.88 230.73388 
L 156.032182 230.997012 
L 156.260455 230.997012 
L 156.488727 232.049542 
L 156.564818 232.049542 
L 156.717 232.312675 
L 157.401818 232.312675 
L 157.630091 232.83894 
L 158.695364 232.83894 
L 158.923636 233.365205 
L 159.228 233.365205 
L 159.380182 233.628337 
L 160.217182 233.628337 
L 160.369364 233.89147 
L 160.445455 233.89147 
L 160.673727 234.417735 
L 160.749818 234.417735 
L 160.902 234.680867 
L 161.054182 234.680867 
L 161.434636 235.733398 
L 161.891182 235.733398 
L 162.043364 235.99653 
L 162.652091 235.99653 
L 162.804273 236.522795 
L 164.402182 236.522795 
L 164.554364 237.04906 
L 164.934818 237.04906 
L 165.087 237.312193 
L 165.239182 237.312193 
L 165.467455 237.838458 
L 166.076182 237.838458 
L 166.304455 238.364723 
L 166.456636 238.364723 
L 166.608818 238.627855 
L 167.369727 238.627855 
L 167.598 239.15412 
L 168.054545 239.15412 
L 168.206727 239.417253 
L 168.282818 239.417253 
L 168.435 239.680386 
L 169.195909 239.680386 
L 169.348091 239.943518 
L 169.424182 239.943518 
L 169.576364 240.206651 
L 169.728545 240.206651 
L 169.880727 240.469783 
L 170.109 240.469783 
L 170.261182 240.732916 
L 170.489455 240.732916 
L 170.717727 241.259181 
L 170.946 241.259181 
L 171.174273 241.785446 
L 171.250364 241.785446 
L 171.630818 242.837976 
L 172.087364 242.837976 
L 172.315636 243.364241 
L 173.304818 243.364241 
L 173.457 243.627373 
L 173.685273 243.627373 
L 173.837455 243.890506 
L 173.989636 243.890506 
L 174.217909 244.416771 
L 174.446182 244.416771 
L 174.598364 244.679904 
L 175.054909 244.679904 
L 175.207091 244.943036 
L 175.968 244.943036 
L 176.120182 245.206169 
L 176.881091 245.206169 
L 177.261545 246.258699 
L 177.337636 246.258699 
L 177.565909 246.784964 
L 177.718091 246.784964 
L 177.870273 247.048096 
L 178.174636 247.048096 
L 178.326818 247.311229 
L 178.707273 247.311229 
L 178.859455 247.574361 
L 179.316 247.574361 
L 179.468182 247.837494 
L 179.544273 247.837494 
L 179.848636 248.626892 
L 180.609545 248.626892 
L 180.837818 249.153157 
L 181.218273 249.153157 
L 181.370455 249.416289 
L 181.827 249.416289 
L 181.979182 249.679422 
L 182.055273 249.679422 
L 182.207455 249.942554 
L 182.359636 249.942554 
L 182.511818 250.205687 
L 183.501 250.205687 
L 183.653182 250.468819 
L 183.729273 250.468819 
L 183.881455 250.731952 
L 184.109727 250.731952 
L 184.414091 251.521349 
L 184.642364 251.521349 
L 184.794545 251.784482 
L 185.175 251.784482 
L 185.327182 252.047614 
L 185.479364 252.047614 
L 185.631545 252.310747 
L 185.783727 252.310747 
L 186.012 252.837012 
L 187.001182 252.837012 
L 187.153364 253.100145 
L 187.229455 253.100145 
L 187.381636 253.363277 
L 188.066455 253.363277 
L 188.294727 253.889542 
L 189.588273 253.889542 
L 189.740455 254.415807 
L 190.044818 254.415807 
L 190.197 254.67894 
L 190.273091 254.67894 
L 190.425273 254.942072 
L 190.805727 254.942072 
L 190.957909 255.205205 
L 192.555818 255.205205 
L 192.708 255.468337 
L 192.936273 255.468337 
L 193.088455 255.73147 
L 193.697182 255.73147 
L 193.925455 256.257735 
L 194.077636 256.257735 
L 194.229818 256.520867 
L 194.686364 256.520867 
L 194.838545 256.784 
L 194.914636 256.784 
L 195.066818 257.047133 
L 195.142909 257.047133 
L 195.295091 257.310265 
L 195.751636 257.310265 
L 195.979909 257.83653 
L 196.284273 257.83653 
L 196.436455 258.099663 
L 196.588636 258.099663 
L 196.740818 258.362795 
L 196.893 258.362795 
L 197.045182 258.88906 
L 197.577818 258.88906 
L 197.73 259.152193 
L 198.262636 259.152193 
L 198.490909 259.678458 
L 198.567 259.678458 
L 198.871364 260.467855 
L 199.251818 260.467855 
L 199.404 260.730988 
L 202.143273 260.730988 
L 202.295455 261.520386 
L 202.371545 261.520386 
L 202.675909 262.309783 
L 202.904182 262.309783 
L 203.132455 262.836048 
L 203.665091 262.836048 
L 203.817273 263.099181 
L 205.034727 263.099181 
L 205.186909 263.362313 
L 206.632636 263.362313 
L 206.784818 263.625446 
L 206.860909 263.625446 
L 207.089182 264.151711 
L 207.165273 264.151711 
L 207.393545 264.677976 
L 207.621818 264.677976 
L 207.926182 265.467373 
L 208.154455 265.467373 
L 208.306636 265.730506 
L 208.458818 265.730506 
L 208.611 265.993639 
L 208.763182 265.993639 
L 208.915364 266.256771 
L 209.600182 266.256771 
L 209.752364 266.519904 
L 209.980636 266.519904 
L 210.132818 266.783036 
L 210.285 266.783036 
L 210.513273 267.309301 
L 211.806818 267.309301 
L 211.959 267.572434 
L 212.872091 267.572434 
L 213.024273 267.835566 
L 213.176455 267.835566 
L 213.328636 268.361831 
L 215.991818 268.361831 
L 216.144 268.624964 
L 216.904909 268.624964 
L 217.057091 268.888096 
L 218.502818 268.888096 
L 218.655 269.151229 
L 219.187636 269.151229 
L 219.415909 269.677494 
L 219.644182 269.677494 
L 219.796364 269.940627 
L 220.709455 269.940627 
L 220.861636 270.203759 
L 221.850818 270.203759 
L 222.003 270.466892 
L 222.459545 270.466892 
L 222.611727 270.730024 
L 223.600909 270.730024 
L 223.753091 270.993157 
L 228.394636 270.993157 
L 228.546818 271.256289 
L 229.079455 271.256289 
L 229.307727 271.782554 
L 231.133909 271.782554 
L 231.362182 272.308819 
L 231.590455 272.308819 
L 231.742636 272.571952 
L 232.047 272.571952 
L 232.199182 272.835084 
L 233.188364 272.835084 
L 233.416636 273.361349 
L 233.797091 273.361349 
L 233.949273 273.624482 
L 234.025364 273.624482 
L 234.177545 273.887614 
L 234.786273 273.887614 
L 234.938455 274.150747 
L 235.318909 274.150747 
L 235.471091 274.41388 
L 235.699364 274.41388 
L 235.851545 274.677012 
L 237.829909 274.677012 
L 237.982091 274.940145 
L 238.438636 274.940145 
L 238.666909 275.46641 
L 239.275636 275.46641 
L 239.427818 275.729542 
L 239.884364 275.729542 
L 240.036545 275.992675 
L 240.493091 275.992675 
L 240.645273 276.255807 
L 241.862727 276.255807 
L 242.091 276.782072 
L 242.851909 276.782072 
L 243.004091 277.045205 
L 243.156273 277.045205 
L 243.308455 277.308337 
L 243.765 277.308337 
L 243.917182 278.097735 
L 245.591182 278.097735 
L 245.743364 278.360867 
L 245.971636 278.360867 
L 246.123818 278.624 
L 246.276 278.624 
L 246.428182 278.887133 
L 247.341273 278.887133 
L 247.493455 279.150265 
L 248.558727 279.150265 
L 248.710909 279.413398 
L 250.232727 279.413398 
L 250.461 279.939663 
L 250.993636 279.939663 
L 251.145818 280.202795 
L 252.895909 280.202795 
L 253.048091 280.465928 
L 253.809 280.465928 
L 253.961182 280.72906 
L 254.265545 280.72906 
L 254.417727 280.992193 
L 257.080909 280.992193 
L 257.233091 281.255325 
L 257.841818 281.255325 
L 258.070091 281.78159 
L 258.146182 281.78159 
L 258.450545 282.570988 
L 259.135364 282.570988 
L 259.287545 282.83412 
L 259.439727 282.83412 
L 259.591909 283.097253 
L 260.352818 283.097253 
L 260.809364 284.412916 
L 264.69 284.412916 
L 264.842182 284.676048 
L 267.201 284.676048 
L 267.353182 284.939181 
L 269.331545 284.939181 
L 269.483727 285.202313 
L 270.092455 285.202313 
L 270.244636 285.465446 
L 270.777273 285.465446 
L 270.929455 285.728578 
L 271.690364 285.728578 
L 271.842545 285.991711 
L 272.070818 285.991711 
L 272.299091 286.517976 
L 272.527364 286.517976 
L 272.679545 286.781108 
L 274.581818 286.781108 
L 274.734 287.044241 
L 275.647091 287.044241 
L 275.799273 287.307373 
L 277.777636 287.307373 
L 277.929818 287.570506 
L 280.060364 287.570506 
L 280.212545 287.833639 
L 280.973455 287.833639 
L 281.125636 288.096771 
L 282.875727 288.096771 
L 283.027909 288.359904 
L 283.484455 288.359904 
L 283.636636 288.623036 
L 285.995455 288.623036 
L 286.147636 288.886169 
L 286.908545 288.886169 
L 287.060727 289.149301 
L 290.484818 289.149301 
L 290.637 289.412434 
L 291.017455 289.412434 
L 291.169636 289.675566 
L 293.985 289.675566 
L 294.213273 290.201831 
L 296.039455 290.201831 
L 296.191636 290.464964 
L 305.170364 290.464964 
L 305.322545 290.728096 
L 305.931273 290.728096 
L 306.159545 291.254361 
L 308.594455 291.254361 
L 308.746636 291.517494 
L 309.127091 291.517494 
L 309.355364 292.043759 
L 311.638091 292.043759 
L 311.790273 292.306892 
L 312.018545 292.306892 
L 312.170727 292.570024 
L 312.703364 292.570024 
L 312.855545 292.833157 
L 315.290455 292.833157 
L 315.442636 293.096289 
L 317.877545 293.096289 
L 318.029727 293.359422 
L 318.181909 293.359422 
L 318.334091 293.622554 
L 318.638455 293.622554 
L 318.790636 293.885687 
L 319.475455 293.885687 
L 319.627636 294.148819 
L 322.519091 294.148819 
L 322.671273 294.411952 
L 324.421364 294.411952 
L 324.649636 294.938217 
L 333.400091 294.938217 
L 333.552273 295.201349 
L 333.856636 295.201349 
L 334.008818 295.464482 
L 334.237091 295.464482 
L 334.389273 295.727614 
L 341.694 295.727614 
L 341.846182 295.990747 
L 343.291909 295.990747 
L 343.444091 296.25388 
L 347.172545 296.25388 
L 347.324727 296.517012 
L 354.249 296.517012 
L 354.401182 296.780145 
L 356.303455 296.780145 
L 356.455636 297.043277 
L 364.445182 297.043277 
L 364.597364 297.30641 
L 368.706273 297.30641 
L 368.858455 297.569542 
L 370.760727 297.569542 
L 370.912909 297.832675 
L 371.065091 297.832675 
L 371.217273 298.095807 
L 372.663 298.095807 
L 372.815182 298.35894 
L 382.402636 298.35894 
L 382.554818 298.622072 
L 383.696182 298.622072 
L 383.848364 298.885205 
L 384.685364 298.885205 
L 384.837545 299.148337 
L 388.642091 299.148337 
L 388.794273 299.41147 
L 388.870364 299.41147 
L 389.022545 299.674602 
L 389.326909 299.674602 
L 389.479091 299.937735 
L 397.696909 299.937735 
L 397.849091 300.200867 
L 401.197091 300.200867 
L 401.349273 300.464 
L 438.177273 300.464 
L 438.177273 300.464 
" clip-path="url(#p5881de09a3)" style="fill: none; stroke-dasharray: 12.16,3.04,1.9,3.04; stroke-dashoffset: 0; stroke: #ff7f0e; stroke-width: 1.9"/>
    <defs>
     <path id="mfe9f73ec11" d="M 0 1.75 
C 0.464105 1.75 0.909265 1.565609 1.237437 1.237437 
C 1.565609 0.909265 1.75 0.464105 1.75 0 
C 1.75 -0.464105 1.565609 -0.909265 1.237437 -1.237437 
C 0.909265 -1.565609 0.464105 -1.75 0 -1.75 
C -0.464105 -1.75 -0.909265 -1.565609 -1.237437 -1.237437 
C -1.565609 -0.909265 -1.75 -0.464105 -1.75 0 
C -1.75 0.464105 -1.565609 0.909265 -1.237437 1.237437 
C -0.909265 1.565609 -0.464105 1.75 0 1.75 
z
" style="stroke: #ff7f0e"/>
    </defs>
    <g clip-path="url(#p5881de09a3)">
     <use xlink:href="#mfe9f73ec11" x="57.722727" y="38.384" style="fill: #ff7f0e; stroke: #ff7f0e"/>
     <use xlink:href="#mfe9f73ec11" x="84.354545" y="114.692434" style="fill: #ff7f0e; stroke: #ff7f0e"/>
     <use xlink:href="#mfe9f73ec11" x="110.986364" y="171.52906" style="fill: #ff7f0e; stroke: #ff7f0e"/>
     <use xlink:href="#mfe9f73ec11" x="137.618182" y="208.367614" style="fill: #ff7f0e; stroke: #ff7f0e"/>
     <use xlink:href="#mfe9f73ec11" x="164.25" y="236.522795" style="fill: #ff7f0e; stroke: #ff7f0e"/>
     <use xlink:href="#mfe9f73ec11" x="190.881818" y="255.205205" style="fill: #ff7f0e; stroke: #ff7f0e"/>
     <use xlink:href="#mfe9f73ec11" x="217.513636" y="268.888096" style="fill: #ff7f0e; stroke: #ff7f0e"/>
     <use xlink:href="#mfe9f73ec11" x="244.145455" y="278.097735" style="fill: #ff7f0e; stroke: #ff7f0e"/>
     <use xlink:href="#mfe9f73ec11" x="270.777273" y="285.465446" style="fill: #ff7f0e; stroke: #ff7f0e"/>
     <use xlink:href="#mfe9f73ec11" x="297.409091" y="290.464964" style="fill: #ff7f0e; stroke: #ff7f0e"/>
     <use xlink:href="#mfe9f73ec11" x="324.040909" y="294.411952" style="fill: #ff7f0e; stroke: #ff7f0e"/>
     <use xlink:href="#mfe9f73ec11" x="350.672727" y="296.517012" style="fill: #ff7f0e; stroke: #ff7f0e"/>
     <use xlink:href="#mfe9f73ec11" x="377.304545" y="298.35894" style="fill: #ff7f0e; stroke: #ff7f0e"/>
     <use xlink:href="#mfe9f73ec11" x="403.936364" y="300.464" style="fill: #ff7f0e; stroke: #ff7f0e"/>
     <use xlink:href="#mfe9f73ec11" x="430.568182" y="300.464" style="fill: #ff7f0e; stroke: #ff7f0e"/>
    </g>
   </g>
   <g id="text_15">
    <!-- Mean vs Time (Fock state $|1\rangle$, $\gamma=1$) -->
    <g transform="translate(128.51 19.28) scale(0.16 -0.16)">
     <defs>
      <path id="STIXGeneral-Regular-76" d="M 3053 2880 
L 3053 2784 
Q 2906 2771 2835 2688 
Q 2765 2605 2637 2285 
L 1818 230 
Q 1690 -90 1638 -90 
Q 1587 -90 1523 77 
Q 1510 96 1497 141 
Q 1485 186 1472 211 
L 704 2048 
Q 499 2534 403 2652 
Q 307 2771 122 2784 
L 122 2880 
L 1376 2880 
L 1376 2784 
Q 1210 2771 1146 2732 
Q 1082 2694 1082 2611 
Q 1082 2509 1139 2368 
L 1792 730 
L 2426 2387 
Q 2464 2483 2464 2579 
Q 2464 2758 2163 2784 
L 2163 2880 
L 3053 2880 
z
" transform="scale(0.015625)"/>
      <path id="STIXGeneral-Regular-73" d="M 998 1926 
L 1664 1523 
Q 1984 1331 2105 1164 
Q 2227 998 2227 736 
Q 2227 416 1961 176 
Q 1696 -64 1331 -64 
Q 1030 -64 864 -6 
Q 691 51 570 51 
Q 461 51 416 -26 
L 333 -26 
L 333 979 
L 435 979 
Q 538 512 730 294 
Q 922 77 1248 77 
Q 1485 77 1632 211 
Q 1779 346 1779 550 
Q 1779 845 1440 1030 
L 1094 1222 
Q 326 1651 326 2150 
Q 326 2522 566 2730 
Q 806 2938 1210 2938 
Q 1491 2938 1638 2867 
Q 1754 2816 1818 2816 
Q 1862 2816 1920 2880 
L 1990 2880 
L 2022 2010 
L 1926 2010 
Q 1818 2445 1654 2621 
Q 1491 2797 1203 2797 
Q 986 2797 854 2688 
Q 723 2579 723 2362 
Q 723 2253 796 2128 
Q 870 2003 998 1926 
z
" transform="scale(0.015625)"/>
      <path id="STIXGeneral-Regular-28" d="M 1946 -1030 
L 1869 -1133 
Q 1126 -710 716 32 
Q 307 774 307 1613 
Q 307 3386 1888 4326 
L 1946 4224 
Q 1293 3667 1075 3126 
Q 858 2586 858 1632 
Q 858 685 1082 96 
Q 1306 -493 1946 -1030 
z
" transform="scale(0.015625)"/>
      <path id="STIXGeneral-Regular-46" d="M 3494 3322 
L 3334 3322 
Q 3264 3757 3094 3875 
Q 2925 3994 2349 3994 
L 1504 3994 
Q 1370 3994 1328 3946 
Q 1286 3898 1286 3744 
L 1286 2355 
L 2195 2355 
Q 2598 2355 2736 2470 
Q 2874 2586 2918 2963 
L 3066 2963 
L 3066 1472 
L 2918 1472 
Q 2880 1862 2745 1977 
Q 2611 2093 2195 2093 
L 1286 2093 
L 1286 717 
Q 1286 352 1392 246 
Q 1498 141 1869 122 
L 1869 0 
L 70 0 
L 70 122 
Q 435 147 534 259 
Q 634 371 634 787 
L 634 3526 
Q 634 3878 538 3984 
Q 442 4090 77 4115 
L 77 4237 
L 3462 4237 
L 3494 3322 
z
" transform="scale(0.015625)"/>
      <path id="STIXGeneral-Regular-6f" d="M 3008 1478 
Q 3008 806 2608 371 
Q 2208 -64 1568 -64 
Q 979 -64 582 368 
Q 186 800 186 1459 
Q 186 2125 582 2534 
Q 979 2944 1626 2944 
Q 2221 2944 2614 2537 
Q 3008 2131 3008 1478 
z
M 2432 1306 
Q 2432 2035 2112 2445 
Q 1856 2765 1504 2765 
Q 1171 2765 966 2493 
Q 762 2221 762 1747 
Q 762 928 1101 435 
Q 1318 115 1677 115 
Q 2029 115 2230 432 
Q 2432 749 2432 1306 
z
" transform="scale(0.015625)"/>
      <path id="STIXGeneral-Regular-6b" d="M 3232 0 
L 1837 0 
L 1837 96 
L 1958 96 
Q 2093 96 2093 192 
Q 2093 250 2022 339 
L 1062 1606 
L 1062 429 
Q 1062 262 1142 185 
Q 1222 109 1414 102 
L 1542 96 
L 1542 0 
L 45 0 
L 45 96 
Q 390 154 457 214 
Q 525 275 525 525 
L 525 3610 
Q 525 3840 467 3920 
Q 410 4000 250 4000 
Q 211 4000 45 3987 
L 45 4090 
L 237 4141 
Q 621 4243 1037 4371 
L 1062 4358 
L 1062 1670 
L 1939 2451 
Q 2086 2586 2086 2675 
Q 2086 2739 2019 2761 
Q 1952 2784 1766 2790 
L 1766 2880 
L 3072 2880 
L 3072 2784 
Q 2752 2784 2505 2646 
Q 2259 2509 1690 1978 
L 1504 1805 
L 2483 563 
Q 2829 122 3232 96 
L 3232 0 
z
" transform="scale(0.015625)"/>
      <path id="Cmsy10-6a" d="M 763 -1484 
L 763 4684 
Q 763 4734 800 4767 
Q 838 4800 891 4800 
Q 938 4800 978 4767 
Q 1019 4734 1019 4684 
L 1019 -1484 
Q 1019 -1534 978 -1567 
Q 938 -1600 891 -1600 
Q 838 -1600 800 -1567 
Q 763 -1534 763 -1484 
z
" transform="scale(0.015625)"/>
      <path id="Cmr10-31" d="M 594 0 
L 594 225 
Q 1394 225 1394 428 
L 1394 3788 
Q 1063 3628 556 3628 
L 556 3853 
Q 1341 3853 1741 4263 
L 1831 4263 
Q 1853 4263 1873 4245 
Q 1894 4228 1894 4206 
L 1894 428 
Q 1894 225 2694 225 
L 2694 0 
L 594 0 
z
" transform="scale(0.015625)"/>
      <path id="Cmex10-ae" d="M 500 -7297 
Q 500 -7263 513 -7250 
L 2119 -3584 
L 513 84 
Q 500 97 500 128 
Q 500 175 537 215 
Q 575 256 628 256 
Q 703 256 750 178 
L 2381 -3541 
Q 2388 -3553 2388 -3584 
Q 2388 -3616 2381 -3634 
L 750 -7347 
Q 700 -7425 628 -7425 
Q 575 -7425 537 -7384 
Q 500 -7344 500 -7297 
z
" transform="scale(0.015625)"/>
      <path id="STIXGeneral-Regular-2c" d="M 531 -902 
L 467 -781 
Q 998 -422 998 -96 
Q 998 -13 909 -13 
Q 883 -13 822 -25 
Q 762 -38 723 -38 
Q 352 -38 352 288 
Q 352 454 457 553 
Q 563 653 736 653 
Q 954 653 1101 496 
Q 1248 339 1248 96 
Q 1248 -198 1053 -473 
Q 858 -749 531 -902 
z
" transform="scale(0.015625)"/>
      <path id="Cmmi10-b0" d="M 1888 -1253 
Q 1888 -1109 1952 -834 
Q 2016 -559 2108 -248 
Q 2200 63 2266 263 
Q 2291 581 2291 744 
Q 2291 1156 2209 1511 
Q 2128 1866 1903 2105 
Q 1678 2344 1275 2344 
Q 1063 2344 852 2253 
Q 641 2163 489 2000 
Q 338 1838 281 1631 
Q 269 1594 231 1594 
L 153 1594 
Q 103 1594 103 1650 
L 103 1672 
Q 175 1959 358 2226 
Q 541 2494 805 2661 
Q 1069 2828 1363 2828 
Q 1663 2828 1881 2625 
Q 2100 2422 2231 2109 
Q 2363 1797 2420 1478 
Q 2478 1159 2478 878 
Q 2800 1753 3200 2534 
L 3297 2741 
Q 3316 2759 3341 2759 
L 3419 2759 
Q 3469 2759 3469 2700 
Q 3469 2688 3456 2663 
L 3359 2463 
Q 3081 1909 2848 1340 
Q 2616 772 2450 244 
Q 2425 28 2354 -347 
Q 2284 -722 2184 -1045 
Q 2084 -1369 1984 -1381 
Q 1888 -1381 1888 -1253 
z
" transform="scale(0.015625)"/>
      <path id="Cmr10-3d" d="M 481 850 
Q 428 850 393 890 
Q 359 931 359 978 
Q 359 1031 393 1068 
Q 428 1106 481 1106 
L 4500 1106 
Q 4547 1106 4581 1068 
Q 4616 1031 4616 978 
Q 4616 931 4581 890 
Q 4547 850 4500 850 
L 481 850 
z
M 481 2094 
Q 428 2094 393 2131 
Q 359 2169 359 2222 
Q 359 2269 393 2309 
Q 428 2350 481 2350 
L 4500 2350 
Q 4547 2350 4581 2309 
Q 4616 2269 4616 2222 
Q 4616 2169 4581 2131 
Q 4547 2094 4500 2094 
L 481 2094 
z
" transform="scale(0.015625)"/>
      <path id="STIXGeneral-Regular-29" d="M 186 4224 
L 262 4326 
Q 992 3891 1408 3148 
Q 1824 2406 1824 1581 
Q 1824 -166 243 -1133 
L 186 -1030 
Q 845 -486 1059 54 
Q 1274 595 1274 1562 
Q 1274 2534 1059 3120 
Q 845 3706 186 4224 
z
" transform="scale(0.015625)"/>
     </defs>
     <use xlink:href="#STIXGeneral-Regular-4d" transform="translate(0 0.658854)"/>
     <use xlink:href="#STIXGeneral-Regular-65" transform="translate(88.899994 0.658854)"/>
     <use xlink:href="#STIXGeneral-Regular-61" transform="translate(133.299988 0.658854)"/>
     <use xlink:href="#STIXGeneral-Regular-6e" transform="translate(177.699982 0.658854)"/>
     <use xlink:href="#STIXGeneral-Regular-20" transform="translate(227.699966 0.658854)"/>
     <use xlink:href="#STIXGeneral-Regular-76" transform="translate(252.699951 0.658854)"/>
     <use xlink:href="#STIXGeneral-Regular-73" transform="translate(302.699936 0.658854)"/>
     <use xlink:href="#STIXGeneral-Regular-20" transform="translate(341.59993 0.658854)"/>
     <use xlink:href="#STIXGeneral-Regular-54" transform="translate(366.599915 0.658854)"/>
     <use xlink:href="#STIXGeneral-Regular-69" transform="translate(427.699905 0.658854)"/>
     <use xlink:href="#STIXGeneral-Regular-6d" transform="translate(455.499893 0.658854)"/>
     <use xlink:href="#STIXGeneral-Regular-65" transform="translate(533.299881 0.658854)"/>
     <use xlink:href="#STIXGeneral-Regular-20" transform="translate(577.699875 0.658854)"/>
     <use xlink:href="#STIXGeneral-Regular-28" transform="translate(602.69986 0.658854)"/>
     <use xlink:href="#STIXGeneral-Regular-46" transform="translate(635.999847 0.658854)"/>
     <use xlink:href="#STIXGeneral-Regular-6f" transform="translate(691.599838 0.658854)"/>
     <use xlink:href="#STIXGeneral-Regular-63" transform="translate(741.599823 0.658854)"/>
     <use xlink:href="#STIXGeneral-Regular-6b" transform="translate(785.999817 0.658854)"/>
     <use xlink:href="#STIXGeneral-Regular-20" transform="translate(835.999802 0.658854)"/>
     <use xlink:href="#STIXGeneral-Regular-73" transform="translate(860.999786 0.658854)"/>
     <use xlink:href="#STIXGeneral-Regular-74" transform="translate(899.89978 0.658854)"/>
     <use xlink:href="#STIXGeneral-Regular-61" transform="translate(927.699768 0.658854)"/>
     <use xlink:href="#STIXGeneral-Regular-74" transform="translate(972.099762 0.658854)"/>
     <use xlink:href="#STIXGeneral-Regular-65" transform="translate(999.89975 0.658854)"/>
     <use xlink:href="#STIXGeneral-Regular-20" transform="translate(1044.299744 0.658854)"/>
     <use xlink:href="#Cmsy10-6a" transform="translate(1069.299728 0.658854)"/>
     <use xlink:href="#Cmr10-31" transform="translate(1096.985275 0.658854)"/>
     <use xlink:href="#Cmex10-ae" transform="translate(1146.985275 94)"/>
     <use xlink:href="#STIXGeneral-Regular-2c" transform="translate(1194.202072 0.658854)"/>
     <use xlink:href="#STIXGeneral-Regular-20" transform="translate(1219.202057 0.658854)"/>
     <use xlink:href="#Cmmi10-b0" transform="translate(1244.202042 0.658854)"/>
     <use xlink:href="#Cmr10-3d" transform="translate(1313.46962 0.658854)"/>
     <use xlink:href="#Cmr10-31" transform="translate(1408.71376 0.658854)"/>
     <use xlink:href="#STIXGeneral-Regular-29" transform="translate(1458.71376 0.658854)"/>
    </g>
   </g>
   <g id="line2d_113">
    <path d="M 57.722727 38.384 
L 61.983818 52.714422 
L 66.244909 66.2644 
L 70.506 79.076438 
L 74.767091 91.190723 
L 79.028182 102.645257 
L 83.289273 113.475968 
L 87.626455 123.894533 
L 91.963636 133.735843 
L 96.300818 143.031882 
L 100.638 151.812857 
L 105.051273 160.248655 
L 109.464545 168.209092 
L 113.953909 175.846699 
L 118.443273 183.046727 
L 123.008727 189.945867 
L 127.574182 196.443231 
L 132.215727 202.661112 
L 136.857273 208.511037 
L 141.574909 214.102231 
L 146.368636 219.439427 
L 151.238455 224.527797 
L 156.184364 229.372914 
L 161.206364 233.9807 
L 166.304455 238.357367 
L 171.478636 242.509435 
L 176.805 246.498692 
L 182.207455 250.269509 
L 187.762091 253.877246 
L 193.468909 257.319485 
L 199.327909 260.594936 
L 205.415182 263.741153 
L 211.654636 266.715149 
L 218.122364 269.551033 
L 224.818364 272.243777 
L 231.818727 274.816696 
L 239.047364 277.236421 
L 246.656455 279.546986 
L 254.569909 281.717024 
L 262.939909 283.779472 
L 271.766455 285.722125 
L 281.049545 287.536136 
L 290.941364 289.240407 
L 301.518 290.833509 
L 312.855545 292.312373 
L 325.030091 293.67327 
L 338.269909 294.925861 
L 352.727182 296.066316 
L 368.630182 297.094257 
L 386.359364 298.013411 
L 406.371273 298.823536 
L 429.350727 299.525498 
L 438.177273 299.743566 
L 438.177273 299.743566 
" clip-path="url(#p5881de09a3)" style="fill: none; stroke-dasharray: 7.4,3.2; stroke-dashoffset: 0; stroke: #1f77b4; stroke-width: 2"/>
    <defs>
     <path id="mccc4e33867" d="M 0 -1.8 
L -1.8 1.8 
L 1.8 1.8 
z
" style="stroke: #1f77b4; stroke-linejoin: miter"/>
    </defs>
    <g clip-path="url(#p5881de09a3)">
     <use xlink:href="#mccc4e33867" x="57.722727" y="38.384" style="fill: #1f77b4; stroke: #1f77b4; stroke-linejoin: miter"/>
     <use xlink:href="#mccc4e33867" x="88.159091" y="125.133545" style="fill: #1f77b4; stroke: #1f77b4; stroke-linejoin: miter"/>
     <use xlink:href="#mccc4e33867" x="118.595455" y="183.28343" style="fill: #1f77b4; stroke: #1f77b4; stroke-linejoin: miter"/>
     <use xlink:href="#mccc4e33867" x="149.031818" y="222.262433" style="fill: #1f77b4; stroke: #1f77b4; stroke-linejoin: miter"/>
     <use xlink:href="#mccc4e33867" x="179.468182" y="248.391009" style="fill: #1f77b4; stroke: #1f77b4; stroke-linejoin: miter"/>
     <use xlink:href="#mccc4e33867" x="209.904545" y="265.90544" style="fill: #1f77b4; stroke: #1f77b4; stroke-linejoin: miter"/>
     <use xlink:href="#mccc4e33867" x="240.340909" y="277.645695" style="fill: #1f77b4; stroke: #1f77b4; stroke-linejoin: miter"/>
     <use xlink:href="#mccc4e33867" x="270.777273" y="285.515458" style="fill: #1f77b4; stroke: #1f77b4; stroke-linejoin: miter"/>
     <use xlink:href="#mccc4e33867" x="301.213636" y="290.790691" style="fill: #1f77b4; stroke: #1f77b4; stroke-linejoin: miter"/>
     <use xlink:href="#mccc4e33867" x="331.65" y="294.326791" style="fill: #1f77b4; stroke: #1f77b4; stroke-linejoin: miter"/>
     <use xlink:href="#mccc4e33867" x="362.086364" y="296.697108" style="fill: #1f77b4; stroke: #1f77b4; stroke-linejoin: miter"/>
     <use xlink:href="#mccc4e33867" x="392.522727" y="298.285975" style="fill: #1f77b4; stroke: #1f77b4; stroke-linejoin: miter"/>
     <use xlink:href="#mccc4e33867" x="422.959091" y="299.351027" style="fill: #1f77b4; stroke: #1f77b4; stroke-linejoin: miter"/>
    </g>
   </g>
   <g id="line2d_114">
    <path d="M 57.722727 38.384 
L 61.983818 52.714425 
L 66.244909 66.264403 
L 70.506 79.076437 
L 74.767091 91.190716 
L 79.028182 102.645242 
L 83.289273 113.475944 
L 87.626455 123.894508 
L 91.963636 133.735821 
L 96.300818 143.031868 
L 100.638 151.812858 
L 105.051273 160.248668 
L 109.464545 168.209119 
L 113.953909 175.846731 
L 118.443273 183.04676 
L 123.008727 189.945902 
L 127.574182 196.44327 
L 132.215727 202.661165 
L 136.857273 208.511105 
L 141.574909 214.102323 
L 146.368636 219.439531 
L 151.238455 224.527894 
L 156.184364 229.372985 
L 161.206364 233.98073 
L 166.304455 238.357374 
L 171.478636 242.509427 
L 176.805 246.498672 
L 182.207455 250.269492 
L 187.762091 253.877241 
L 193.468909 257.31949 
L 199.327909 260.594939 
L 205.415182 263.741141 
L 211.654636 266.715123 
L 218.122364 269.55101 
L 224.818364 272.243757 
L 231.818727 274.816683 
L 239.047364 277.236412 
L 246.656455 279.546971 
L 254.569909 281.717008 
L 262.939909 283.779442 
L 271.766455 285.722093 
L 281.049545 287.53611 
L 290.941364 289.240387 
L 301.518 290.833486 
L 312.855545 292.312349 
L 325.030091 293.673245 
L 338.269909 294.925842 
L 352.727182 296.0663 
L 368.630182 297.094239 
L 386.359364 298.013397 
L 406.371273 298.823525 
L 429.350727 299.525489 
L 438.177273 299.743557 
L 438.177273 299.743557 
" clip-path="url(#p5881de09a3)" style="fill: none; stroke: #000000; stroke-width: 2.3; stroke-linecap: square"/>
   </g>
   <g id="legend_1">
    <g id="line2d_115">
     <path d="M 349.585625 39.03 
L 360.585625 39.03 
L 371.585625 39.03 
" style="fill: none; stroke: #000000; stroke-width: 2.3; stroke-linecap: square"/>
    </g>
    <g id="text_16">
     <!-- Exact -->
     <g transform="translate(380.385625 42.88) scale(0.11 -0.11)">
      <defs>
       <path id="STIXGeneral-Regular-45" d="M 3821 1082 
L 3526 0 
L 77 0 
L 77 122 
Q 442 147 538 252 
Q 634 358 634 730 
L 634 3520 
Q 634 3878 534 3987 
Q 435 4096 77 4115 
L 77 4237 
L 3469 4237 
L 3494 3322 
L 3334 3322 
Q 3264 3750 3085 3872 
Q 2906 3994 2349 3994 
L 1510 3994 
Q 1370 3994 1328 3952 
Q 1286 3910 1286 3763 
L 1286 2355 
L 2253 2355 
Q 2656 2355 2787 2470 
Q 2918 2586 2976 2970 
L 3123 2970 
L 3123 1472 
L 2976 1472 
Q 2918 1875 2790 1984 
Q 2662 2093 2253 2093 
L 1286 2093 
L 1286 538 
Q 1286 346 1420 291 
Q 1555 237 1933 237 
L 2163 237 
Q 2848 237 3136 403 
Q 3424 570 3642 1082 
L 3821 1082 
z
" transform="scale(0.015625)"/>
       <path id="STIXGeneral-Regular-78" d="M 3066 0 
L 1779 0 
L 1779 96 
Q 1939 109 1987 137 
Q 2035 166 2035 250 
Q 2035 307 1997 365 
L 1414 1261 
L 909 474 
Q 781 275 781 211 
Q 781 96 1037 96 
L 1037 0 
L 109 0 
L 109 96 
Q 269 109 355 169 
Q 442 230 576 422 
L 1306 1478 
L 704 2400 
Q 557 2624 454 2704 
Q 352 2784 211 2784 
L 154 2784 
L 154 2880 
L 1478 2880 
L 1478 2784 
Q 1203 2778 1203 2643 
Q 1203 2509 1498 2074 
Q 1581 1958 1587 1946 
Q 1619 1990 1779 2227 
Q 1811 2285 1856 2349 
Q 1901 2413 1923 2451 
Q 1946 2490 1971 2528 
Q 1997 2566 2006 2595 
Q 2016 2624 2016 2643 
Q 2016 2765 1760 2784 
L 1760 2880 
L 2771 2880 
L 2771 2784 
Q 2445 2771 2253 2502 
L 1722 1734 
L 2541 480 
Q 2790 96 3066 96 
L 3066 0 
z
" transform="scale(0.015625)"/>
      </defs>
      <use xlink:href="#STIXGeneral-Regular-45"/>
      <use xlink:href="#STIXGeneral-Regular-78" transform="translate(61.099991 0)"/>
      <use xlink:href="#STIXGeneral-Regular-61" transform="translate(111.099976 0)"/>
      <use xlink:href="#STIXGeneral-Regular-63" transform="translate(155.499969 0)"/>
      <use xlink:href="#STIXGeneral-Regular-74" transform="translate(199.899963 0)"/>
     </g>
    </g>
    <g id="line2d_116">
     <path d="M 349.585625 54.617344 
L 360.585625 54.617344 
L 371.585625 54.617344 
" style="fill: none; stroke-dasharray: 7.4,3.2; stroke-dashoffset: 0; stroke: #1f77b4; stroke-width: 2"/>
     <g>
      <use xlink:href="#mccc4e33867" x="360.585625" y="54.617344" style="fill: #1f77b4; stroke: #1f77b4; stroke-linejoin: miter"/>
     </g>
    </g>
    <g id="text_17">
     <!-- Density Matrix -->
     <g transform="translate(380.385625 58.467344) scale(0.11 -0.11)">
      <defs>
       <path id="STIXGeneral-Regular-44" d="M 102 4237 
L 1830 4237 
Q 3078 4237 3750 3654 
Q 4384 3110 4384 2138 
Q 4384 966 3514 410 
Q 2880 0 1901 0 
L 102 0 
L 102 122 
Q 474 147 570 252 
Q 666 358 666 736 
L 666 3520 
Q 666 3891 570 3990 
Q 474 4090 102 4115 
L 102 4237 
z
M 1318 3731 
L 1318 538 
Q 1318 365 1379 301 
Q 1440 237 1626 237 
Q 2125 237 2432 307 
Q 2739 378 3021 570 
Q 3686 1018 3686 2099 
Q 3686 3027 3078 3558 
Q 2803 3802 2476 3901 
Q 2150 4000 1658 4000 
Q 1472 4000 1395 3942 
Q 1318 3885 1318 3731 
z
" transform="scale(0.015625)"/>
       <path id="STIXGeneral-Regular-79" d="M 3040 2880 
L 3040 2784 
Q 2925 2771 2854 2700 
Q 2784 2630 2720 2458 
L 1760 -160 
Q 1510 -838 1257 -1116 
Q 1005 -1395 640 -1395 
Q 435 -1395 313 -1289 
Q 192 -1184 192 -1024 
Q 192 -902 272 -816 
Q 352 -730 467 -730 
Q 653 -730 800 -813 
Q 883 -858 966 -858 
Q 1101 -858 1286 -576 
Q 1376 -448 1459 -211 
Q 1542 26 1542 115 
Q 1542 198 1274 762 
L 429 2566 
Q 346 2752 90 2790 
L 90 2880 
L 1402 2880 
L 1402 2784 
Q 1197 2778 1117 2739 
Q 1037 2701 1037 2611 
Q 1037 2541 1120 2349 
L 1837 749 
L 2458 2515 
Q 2483 2573 2483 2630 
Q 2483 2784 2189 2784 
L 2189 2880 
L 3040 2880 
z
" transform="scale(0.015625)"/>
      </defs>
      <use xlink:href="#STIXGeneral-Regular-44"/>
      <use xlink:href="#STIXGeneral-Regular-65" transform="translate(72.199982 0)"/>
      <use xlink:href="#STIXGeneral-Regular-6e" transform="translate(116.599976 0)"/>
      <use xlink:href="#STIXGeneral-Regular-73" transform="translate(166.59996 0)"/>
      <use xlink:href="#STIXGeneral-Regular-69" transform="translate(205.499954 0)"/>
      <use xlink:href="#STIXGeneral-Regular-74" transform="translate(233.299942 0)"/>
      <use xlink:href="#STIXGeneral-Regular-79" transform="translate(261.09993 0)"/>
      <use xlink:href="#STIXGeneral-Regular-20" transform="translate(311.099915 0)"/>
      <use xlink:href="#STIXGeneral-Regular-4d" transform="translate(336.099899 0)"/>
      <use xlink:href="#STIXGeneral-Regular-61" transform="translate(424.999893 0)"/>
      <use xlink:href="#STIXGeneral-Regular-74" transform="translate(469.399887 0)"/>
      <use xlink:href="#STIXGeneral-Regular-72" transform="translate(497.199875 0)"/>
      <use xlink:href="#STIXGeneral-Regular-69" transform="translate(530.499863 0)"/>
      <use xlink:href="#STIXGeneral-Regular-78" transform="translate(558.29985 0)"/>
     </g>
    </g>
    <g id="line2d_117">
     <path d="M 349.585625 70.215 
L 360.585625 70.215 
L 371.585625 70.215 
" style="fill: none; stroke-dasharray: 12.16,3.04,1.9,3.04; stroke-dashoffset: 0; stroke: #ff7f0e; stroke-width: 1.9"/>
     <g>
      <use xlink:href="#mfe9f73ec11" x="360.585625" y="70.215" style="fill: #ff7f0e; stroke: #ff7f0e"/>
     </g>
    </g>
    <g id="text_18">
     <!-- Monte Carlo -->
     <g transform="translate(380.385625 74.065) scale(0.11 -0.11)">
      <defs>
       <path id="STIXGeneral-Regular-43" d="M 3930 838 
L 4051 723 
Q 3482 -90 2304 -90 
Q 1376 -90 794 480 
Q 179 1082 179 2080 
Q 179 3014 755 3661 
Q 1357 4326 2310 4326 
Q 2720 4326 3072 4230 
Q 3475 4115 3514 4115 
Q 3725 4115 3782 4326 
L 3910 4326 
L 3968 2874 
L 3821 2874 
Q 3718 3334 3488 3584 
Q 3034 4070 2458 4070 
Q 1747 4070 1334 3548 
Q 922 3027 922 2182 
Q 922 1152 1382 653 
Q 1811 192 2522 192 
Q 2944 192 3251 339 
Q 3558 486 3930 838 
z
" transform="scale(0.015625)"/>
      </defs>
      <use xlink:href="#STIXGeneral-Regular-4d"/>
      <use xlink:href="#STIXGeneral-Regular-6f" transform="translate(88.899994 0)"/>
      <use xlink:href="#STIXGeneral-Regular-6e" transform="translate(138.899979 0)"/>
      <use xlink:href="#STIXGeneral-Regular-74" transform="translate(188.899963 0)"/>
      <use xlink:href="#STIXGeneral-Regular-65" transform="translate(216.699951 0)"/>
      <use xlink:href="#STIXGeneral-Regular-20" transform="translate(261.099945 0)"/>
      <use xlink:href="#STIXGeneral-Regular-43" transform="translate(286.09993 0)"/>
      <use xlink:href="#STIXGeneral-Regular-61" transform="translate(352.799927 0)"/>
      <use xlink:href="#STIXGeneral-Regular-72" transform="translate(397.199921 0)"/>
      <use xlink:href="#STIXGeneral-Regular-6c" transform="translate(430.499908 0)"/>
      <use xlink:href="#STIXGeneral-Regular-6f" transform="translate(458.299896 0)"/>
     </g>
    </g>
    <g id="line2d_118">
     <path d="M 349.585625 85.802344 
L 360.585625 85.802344 
L 371.585625 85.802344 
" style="fill: none; stroke-dasharray: 2.2,3.63; stroke-dashoffset: 0; stroke: #2ca02c; stroke-width: 2.2"/>
     <g>
      <use xlink:href="#m2309010dd1" x="360.585625" y="85.802344" style="fill: #2ca02c; stroke: #2ca02c; stroke-linejoin: miter"/>
     </g>
    </g>
    <g id="text_19">
     <!-- Positive-P -->
     <g transform="translate(380.385625 89.652344) scale(0.11 -0.11)">
      <defs>
       <path id="STIXGeneral-Regular-2d" d="M 1824 1242 
L 250 1242 
L 250 1645 
L 1824 1645 
L 1824 1242 
z
" transform="scale(0.015625)"/>
      </defs>
      <use xlink:href="#STIXGeneral-Regular-50"/>
      <use xlink:href="#STIXGeneral-Regular-6f" transform="translate(55.699997 0)"/>
      <use xlink:href="#STIXGeneral-Regular-73" transform="translate(105.699982 0)"/>
      <use xlink:href="#STIXGeneral-Regular-69" transform="translate(144.599976 0)"/>
      <use xlink:href="#STIXGeneral-Regular-74" transform="translate(172.399963 0)"/>
      <use xlink:href="#STIXGeneral-Regular-69" transform="translate(200.199951 0)"/>
      <use xlink:href="#STIXGeneral-Regular-76" transform="translate(227.999939 0)"/>
      <use xlink:href="#STIXGeneral-Regular-65" transform="translate(277.999924 0)"/>
      <use xlink:href="#STIXGeneral-Regular-2d" transform="translate(322.399918 0)"/>
      <use xlink:href="#STIXGeneral-Regular-50" transform="translate(355.699905 0)"/>
     </g>
    </g>
   </g>
  </g>
 </g>
 <defs>
  <clipPath id="p5881de09a3">
   <rect x="38.7" y="25.28" width="418.5" height="288.288"/>
  </clipPath>
 </defs>
</svg>
