<?xml version="1.0" encoding="utf-8" standalone="no"?>
<!DOCTYPE svg PUBLIC "-//W3C//DTD SVG 1.1//EN"
  "http://www.w3.org/Graphics/SVG/1.1/DTD/svg11.dtd">
<svg xmlns:xlink="http://www.w3.org/1999/xlink" width="475.08pt" height="348.068pt" viewBox="0 0 475.08 348.068" xmlns="http://www.w3.org/2000/svg" version="1.1">
 <metadata>
  <rdf:RDF xmlns:dc="http://purl.org/dc/elements/1.1/" xmlns:cc="http://creativecommons.org/ns#" xmlns:rdf="http://www.w3.org/1999/02/22-rdf-syntax-ns#">
   <cc:Work>
    <dc:type rdf:resource="http://purl.org/dc/dcmitype/StillImage"/>
    <dc:date>2026-04-16T02:26:55.346869</dc:date>
    <dc:format>image/svg+xml</dc:format>
    <dc:creator>
     <cc:Agent>
      <dc:title>Matplotlib v3.10.8, https://matplotlib.org/</dc:title>
     </cc:Agent>
    </dc:creator>
   </cc:Work>
  </rdf:RDF>
 </metadata>
 <defs>
  <style type="text/css">*{stroke-linejoin: round; stroke-linecap: butt}</style>
 </defs>
 <g id="figure_1">
  <g id="patch_1">
   <path d="M 0 348.068 
L 475.08 348.068 
L 475.08 0 
L 0 0 
z
" style="fill: #ffffff"/>
  </g>
  <g id="axes_1">
   <g id="patch_2">
    <path d="M 52.98 313.568 
L 471.48 313.568 
L 471.48 25.28 
L 52.98 25.28 
z
" style="fill: #ffffff"/>
   </g>
   <g id="matplotlib.axis_1">
    <g id="xtick_1">
     <g id="line2d_1">
      <path d="M 72.002727 313.568 
L 72.002727 25.28 
" clip-path="url(#pa694a4fa53)" style="fill: none; stroke: #b0b0b0; stroke-opacity: 0.35; stroke-width: 0.5; stroke-linecap: square"/>
     </g>
     <g id="line2d_2">
      <defs>
       <path id="m8207fe50ed" d="M 0 0 
L 0 -3 
" style="stroke: #000000; stroke-width: 0.5"/>
      </defs>
      <g>
       <use xlink:href="#m8207fe50ed" x="72.002727" y="313.568" style="stroke: #000000; stroke-width: 0.5"/>
      </g>
     </g>
     <g id="line2d_3">
      <defs>
       <path id="mc609a03382" d="M 0 0 
L 0 3 
" style="stroke: #000000; stroke-width: 0.5"/>
      </defs>
      <g>
       <use xlink:href="#mc609a03382" x="72.002727" y="25.28" style="stroke: #000000; stroke-width: 0.5"/>
      </g>
     </g>
     <g id="text_1">
      <!-- $\mathdefault{0}$ -->
      <g transform="translate(69.002727 325.263625) scale(0.12 -0.12)">
       <defs>
        <path id="STIXGeneral-Regular-30" d="M 3046 2112 
Q 3046 1683 2963 1302 
Q 2880 922 2717 602 
Q 2554 282 2266 96 
Q 1978 -90 1600 -90 
Q 1210 -90 915 108 
Q 621 307 461 640 
Q 301 973 227 1350 
Q 154 1728 154 2150 
Q 154 2746 301 3222 
Q 448 3699 790 4012 
Q 1133 4326 1626 4326 
Q 2253 4326 2649 3712 
Q 3046 3098 3046 2112 
z
M 2432 2080 
Q 2432 3091 2217 3625 
Q 2003 4160 1587 4160 
Q 1190 4160 979 3622 
Q 768 3085 768 2106 
Q 768 1120 979 598 
Q 1190 77 1600 77 
Q 2003 77 2217 598 
Q 2432 1120 2432 2080 
z
" transform="scale(0.015625)"/>
       </defs>
       <use xlink:href="#STIXGeneral-Regular-30" transform="translate(0 0.40625)"/>
      </g>
     </g>
    </g>
    <g id="xtick_2">
     <g id="line2d_4">
      <path d="M 148.093636 313.568 
L 148.093636 25.28 
" clip-path="url(#pa694a4fa53)" style="fill: none; stroke: #b0b0b0; stroke-opacity: 0.35; stroke-width: 0.5; stroke-linecap: square"/>
     </g>
     <g id="line2d_5">
      <g>
       <use xlink:href="#m8207fe50ed" x="148.093636" y="313.568" style="stroke: #000000; stroke-width: 0.5"/>
      </g>
     </g>
     <g id="line2d_6">
      <g>
       <use xlink:href="#mc609a03382" x="148.093636" y="25.28" style="stroke: #000000; stroke-width: 0.5"/>
      </g>
     </g>
     <g id="text_2">
      <!-- $\mathdefault{1}$ -->
      <g transform="translate(145.093636 325.263625) scale(0.12 -0.12)">
       <defs>
        <path id="STIXGeneral-Regular-31" d="M 2522 0 
L 755 0 
L 755 96 
Q 1107 115 1235 227 
Q 1363 339 1363 608 
L 1363 3482 
Q 1363 3795 1171 3795 
Q 1082 3795 883 3718 
L 710 3654 
L 710 3744 
L 1856 4326 
L 1914 4307 
L 1914 486 
Q 1914 275 2042 185 
Q 2170 96 2522 96 
L 2522 0 
z
" transform="scale(0.015625)"/>
       </defs>
       <use xlink:href="#STIXGeneral-Regular-31" transform="translate(0 0.40625)"/>
      </g>
     </g>
    </g>
    <g id="xtick_3">
     <g id="line2d_7">
      <path d="M 224.184545 313.568 
L 224.184545 25.28 
" clip-path="url(#pa694a4fa53)" style="fill: none; stroke: #b0b0b0; stroke-opacity: 0.35; stroke-width: 0.5; stroke-linecap: square"/>
     </g>
     <g id="line2d_8">
      <g>
       <use xlink:href="#m8207fe50ed" x="224.184545" y="313.568" style="stroke: #000000; stroke-width: 0.5"/>
      </g>
     </g>
     <g id="line2d_9">
      <g>
       <use xlink:href="#mc609a03382" x="224.184545" y="25.28" style="stroke: #000000; stroke-width: 0.5"/>
      </g>
     </g>
     <g id="text_3">
      <!-- $\mathdefault{2}$ -->
      <g transform="translate(221.184545 325.263625) scale(0.12 -0.12)">
       <defs>
        <path id="STIXGeneral-Regular-32" d="M 3034 877 
L 2688 0 
L 186 0 
L 186 77 
L 1325 1286 
Q 1773 1754 1965 2144 
Q 2157 2534 2157 2950 
Q 2157 3379 1920 3616 
Q 1683 3853 1267 3853 
Q 922 3853 720 3673 
Q 518 3494 326 3021 
L 192 3053 
Q 301 3648 630 3987 
Q 960 4326 1523 4326 
Q 2054 4326 2380 4006 
Q 2707 3686 2707 3200 
Q 2707 2477 1888 1613 
L 832 486 
L 2330 486 
Q 2541 486 2665 569 
Q 2790 653 2944 915 
L 3034 877 
z
" transform="scale(0.015625)"/>
       </defs>
       <use xlink:href="#STIXGeneral-Regular-32" transform="translate(0 0.40625)"/>
      </g>
     </g>
    </g>
    <g id="xtick_4">
     <g id="line2d_10">
      <path d="M 300.275455 313.568 
L 300.275455 25.28 
" clip-path="url(#pa694a4fa53)" style="fill: none; stroke: #b0b0b0; stroke-opacity: 0.35; stroke-width: 0.5; stroke-linecap: square"/>
     </g>
     <g id="line2d_11">
      <g>
       <use xlink:href="#m8207fe50ed" x="300.275455" y="313.568" style="stroke: #000000; stroke-width: 0.5"/>
      </g>
     </g>
     <g id="line2d_12">
      <g>
       <use xlink:href="#mc609a03382" x="300.275455" y="25.28" style="stroke: #000000; stroke-width: 0.5"/>
      </g>
     </g>
     <g id="text_4">
      <!-- $\mathdefault{3}$ -->
      <g transform="translate(297.275455 325.263625) scale(0.12 -0.12)">
       <defs>
        <path id="STIXGeneral-Regular-33" d="M 390 3264 
L 288 3290 
Q 435 3770 748 4048 
Q 1062 4326 1542 4326 
Q 1990 4326 2265 4083 
Q 2541 3840 2541 3450 
Q 2541 2925 1946 2566 
Q 2298 2413 2477 2227 
Q 2758 1914 2758 1402 
Q 2758 890 2464 506 
Q 2246 211 1840 60 
Q 1434 -90 979 -90 
Q 262 -90 262 275 
Q 262 378 339 442 
Q 416 506 525 506 
Q 685 506 915 339 
Q 1197 141 1466 141 
Q 1818 141 2058 425 
Q 2298 710 2298 1120 
Q 2298 1856 1632 2048 
Q 1434 2112 979 2112 
L 979 2202 
Q 1338 2323 1517 2432 
Q 2035 2726 2035 3290 
Q 2035 3610 1852 3776 
Q 1670 3942 1344 3942 
Q 768 3942 390 3264 
z
" transform="scale(0.015625)"/>
       </defs>
       <use xlink:href="#STIXGeneral-Regular-33" transform="translate(0 0.40625)"/>
      </g>
     </g>
    </g>
    <g id="xtick_5">
     <g id="line2d_13">
      <path d="M 376.366364 313.568 
L 376.366364 25.28 
" clip-path="url(#pa694a4fa53)" style="fill: none; stroke: #b0b0b0; stroke-opacity: 0.35; stroke-width: 0.5; stroke-linecap: square"/>
     </g>
     <g id="line2d_14">
      <g>
       <use xlink:href="#m8207fe50ed" x="376.366364" y="313.568" style="stroke: #000000; stroke-width: 0.5"/>
      </g>
     </g>
     <g id="line2d_15">
      <g>
       <use xlink:href="#mc609a03382" x="376.366364" y="25.28" style="stroke: #000000; stroke-width: 0.5"/>
      </g>
     </g>
     <g id="text_5">
      <!-- $\mathdefault{4}$ -->
      <g transform="translate(373.366364 325.263625) scale(0.12 -0.12)">
       <defs>
        <path id="STIXGeneral-Regular-34" d="M 3027 1069 
L 2368 1069 
L 2368 0 
L 1869 0 
L 1869 1069 
L 77 1069 
L 77 1478 
L 2086 4326 
L 2368 4326 
L 2368 1478 
L 3027 1478 
L 3027 1069 
z
M 1869 1478 
L 1869 3674 
L 333 1478 
L 1869 1478 
z
" transform="scale(0.015625)"/>
       </defs>
       <use xlink:href="#STIXGeneral-Regular-34" transform="translate(0 0.40625)"/>
      </g>
     </g>
    </g>
    <g id="xtick_6">
     <g id="line2d_16">
      <path d="M 452.457273 313.568 
L 452.457273 25.28 
" clip-path="url(#pa694a4fa53)" style="fill: none; stroke: #b0b0b0; stroke-opacity: 0.35; stroke-width: 0.5; stroke-linecap: square"/>
     </g>
     <g id="line2d_17">
      <g>
       <use xlink:href="#m8207fe50ed" x="452.457273" y="313.568" style="stroke: #000000; stroke-width: 0.5"/>
      </g>
     </g>
     <g id="line2d_18">
      <g>
       <use xlink:href="#mc609a03382" x="452.457273" y="25.28" style="stroke: #000000; stroke-width: 0.5"/>
      </g>
     </g>
     <g id="text_6">
      <!-- $\mathdefault{5}$ -->
      <g transform="translate(449.457273 325.263625) scale(0.12 -0.12)">
       <defs>
        <path id="STIXGeneral-Regular-35" d="M 2803 4358 
L 2573 3814 
Q 2534 3731 2400 3731 
L 1158 3731 
L 902 3187 
Q 1606 3053 1920 2896 
Q 2234 2739 2502 2368 
Q 2726 2061 2726 1555 
Q 2726 1094 2576 780 
Q 2426 467 2099 224 
Q 1664 -90 1011 -90 
Q 646 -90 422 19 
Q 198 128 198 307 
Q 198 550 486 550 
Q 717 550 960 352 
Q 1210 147 1414 147 
Q 1747 147 2012 480 
Q 2278 813 2278 1229 
Q 2278 1843 1850 2189 
Q 1293 2637 486 2637 
Q 410 2637 410 2688 
L 416 2720 
L 1114 4237 
L 2438 4237 
Q 2547 4237 2608 4269 
Q 2669 4301 2746 4403 
L 2803 4358 
z
" transform="scale(0.015625)"/>
       </defs>
       <use xlink:href="#STIXGeneral-Regular-35" transform="translate(0 0.203125)"/>
      </g>
     </g>
    </g>
    <g id="xtick_7">
     <g id="line2d_19">
      <defs>
       <path id="mbaf72166bc" d="M 0 0 
L 0 -1.5 
" style="stroke: #000000; stroke-width: 0.5"/>
      </defs>
      <g>
       <use xlink:href="#mbaf72166bc" x="56.784545" y="313.568" style="stroke: #000000; stroke-width: 0.5"/>
      </g>
     </g>
     <g id="line2d_20">
      <defs>
       <path id="m28e7bb52a1" d="M 0 0 
L 0 1.5 
" style="stroke: #000000; stroke-width: 0.5"/>
      </defs>
      <g>
       <use xlink:href="#m28e7bb52a1" x="56.784545" y="25.28" style="stroke: #000000; stroke-width: 0.5"/>
      </g>
     </g>
    </g>
    <g id="xtick_8">
     <g id="line2d_21">
      <g>
       <use xlink:href="#mbaf72166bc" x="87.220909" y="313.568" style="stroke: #000000; stroke-width: 0.5"/>
      </g>
     </g>
     <g id="line2d_22">
      <g>
       <use xlink:href="#m28e7bb52a1" x="87.220909" y="25.28" style="stroke: #000000; stroke-width: 0.5"/>
      </g>
     </g>
    </g>
    <g id="xtick_9">
     <g id="line2d_23">
      <g>
       <use xlink:href="#mbaf72166bc" x="102.439091" y="313.568" style="stroke: #000000; stroke-width: 0.5"/>
      </g>
     </g>
     <g id="line2d_24">
      <g>
       <use xlink:href="#m28e7bb52a1" x="102.439091" y="25.28" style="stroke: #000000; stroke-width: 0.5"/>
      </g>
     </g>
    </g>
    <g id="xtick_10">
     <g id="line2d_25">
      <g>
       <use xlink:href="#mbaf72166bc" x="117.657273" y="313.568" style="stroke: #000000; stroke-width: 0.5"/>
      </g>
     </g>
     <g id="line2d_26">
      <g>
       <use xlink:href="#m28e7bb52a1" x="117.657273" y="25.28" style="stroke: #000000; stroke-width: 0.5"/>
      </g>
     </g>
    </g>
    <g id="xtick_11">
     <g id="line2d_27">
      <g>
       <use xlink:href="#mbaf72166bc" x="132.875455" y="313.568" style="stroke: #000000; stroke-width: 0.5"/>
      </g>
     </g>
     <g id="line2d_28">
      <g>
       <use xlink:href="#m28e7bb52a1" x="132.875455" y="25.28" style="stroke: #000000; stroke-width: 0.5"/>
      </g>
     </g>
    </g>
    <g id="xtick_12">
     <g id="line2d_29">
      <g>
       <use xlink:href="#mbaf72166bc" x="163.311818" y="313.568" style="stroke: #000000; stroke-width: 0.5"/>
      </g>
     </g>
     <g id="line2d_30">
      <g>
       <use xlink:href="#m28e7bb52a1" x="163.311818" y="25.28" style="stroke: #000000; stroke-width: 0.5"/>
      </g>
     </g>
    </g>
    <g id="xtick_13">
     <g id="line2d_31">
      <g>
       <use xlink:href="#mbaf72166bc" x="178.53" y="313.568" style="stroke: #000000; stroke-width: 0.5"/>
      </g>
     </g>
     <g id="line2d_32">
      <g>
       <use xlink:href="#m28e7bb52a1" x="178.53" y="25.28" style="stroke: #000000; stroke-width: 0.5"/>
      </g>
     </g>
    </g>
    <g id="xtick_14">
     <g id="line2d_33">
      <g>
       <use xlink:href="#mbaf72166bc" x="193.748182" y="313.568" style="stroke: #000000; stroke-width: 0.5"/>
      </g>
     </g>
     <g id="line2d_34">
      <g>
       <use xlink:href="#m28e7bb52a1" x="193.748182" y="25.28" style="stroke: #000000; stroke-width: 0.5"/>
      </g>
     </g>
    </g>
    <g id="xtick_15">
     <g id="line2d_35">
      <g>
       <use xlink:href="#mbaf72166bc" x="208.966364" y="313.568" style="stroke: #000000; stroke-width: 0.5"/>
      </g>
     </g>
     <g id="line2d_36">
      <g>
       <use xlink:href="#m28e7bb52a1" x="208.966364" y="25.28" style="stroke: #000000; stroke-width: 0.5"/>
      </g>
     </g>
    </g>
    <g id="xtick_16">
     <g id="line2d_37">
      <g>
       <use xlink:href="#mbaf72166bc" x="239.402727" y="313.568" style="stroke: #000000; stroke-width: 0.5"/>
      </g>
     </g>
     <g id="line2d_38">
      <g>
       <use xlink:href="#m28e7bb52a1" x="239.402727" y="25.28" style="stroke: #000000; stroke-width: 0.5"/>
      </g>
     </g>
    </g>
    <g id="xtick_17">
     <g id="line2d_39">
      <g>
       <use xlink:href="#mbaf72166bc" x="254.620909" y="313.568" style="stroke: #000000; stroke-width: 0.5"/>
      </g>
     </g>
     <g id="line2d_40">
      <g>
       <use xlink:href="#m28e7bb52a1" x="254.620909" y="25.28" style="stroke: #000000; stroke-width: 0.5"/>
      </g>
     </g>
    </g>
    <g id="xtick_18">
     <g id="line2d_41">
      <g>
       <use xlink:href="#mbaf72166bc" x="269.839091" y="313.568" style="stroke: #000000; stroke-width: 0.5"/>
      </g>
     </g>
     <g id="line2d_42">
      <g>
       <use xlink:href="#m28e7bb52a1" x="269.839091" y="25.28" style="stroke: #000000; stroke-width: 0.5"/>
      </g>
     </g>
    </g>
    <g id="xtick_19">
     <g id="line2d_43">
      <g>
       <use xlink:href="#mbaf72166bc" x="285.057273" y="313.568" style="stroke: #000000; stroke-width: 0.5"/>
      </g>
     </g>
     <g id="line2d_44">
      <g>
       <use xlink:href="#m28e7bb52a1" x="285.057273" y="25.28" style="stroke: #000000; stroke-width: 0.5"/>
      </g>
     </g>
    </g>
    <g id="xtick_20">
     <g id="line2d_45">
      <g>
       <use xlink:href="#mbaf72166bc" x="315.493636" y="313.568" style="stroke: #000000; stroke-width: 0.5"/>
      </g>
     </g>
     <g id="line2d_46">
      <g>
       <use xlink:href="#m28e7bb52a1" x="315.493636" y="25.28" style="stroke: #000000; stroke-width: 0.5"/>
      </g>
     </g>
    </g>
    <g id="xtick_21">
     <g id="line2d_47">
      <g>
       <use xlink:href="#mbaf72166bc" x="330.711818" y="313.568" style="stroke: #000000; stroke-width: 0.5"/>
      </g>
     </g>
     <g id="line2d_48">
      <g>
       <use xlink:href="#m28e7bb52a1" x="330.711818" y="25.28" style="stroke: #000000; stroke-width: 0.5"/>
      </g>
     </g>
    </g>
    <g id="xtick_22">
     <g id="line2d_49">
      <g>
       <use xlink:href="#mbaf72166bc" x="345.93" y="313.568" style="stroke: #000000; stroke-width: 0.5"/>
      </g>
     </g>
     <g id="line2d_50">
      <g>
       <use xlink:href="#m28e7bb52a1" x="345.93" y="25.28" style="stroke: #000000; stroke-width: 0.5"/>
      </g>
     </g>
    </g>
    <g id="xtick_23">
     <g id="line2d_51">
      <g>
       <use xlink:href="#mbaf72166bc" x="361.148182" y="313.568" style="stroke: #000000; stroke-width: 0.5"/>
      </g>
     </g>
     <g id="line2d_52">
      <g>
       <use xlink:href="#m28e7bb52a1" x="361.148182" y="25.28" style="stroke: #000000; stroke-width: 0.5"/>
      </g>
     </g>
    </g>
    <g id="xtick_24">
     <g id="line2d_53">
      <g>
       <use xlink:href="#mbaf72166bc" x="391.584545" y="313.568" style="stroke: #000000; stroke-width: 0.5"/>
      </g>
     </g>
     <g id="line2d_54">
      <g>
       <use xlink:href="#m28e7bb52a1" x="391.584545" y="25.28" style="stroke: #000000; stroke-width: 0.5"/>
      </g>
     </g>
    </g>
    <g id="xtick_25">
     <g id="line2d_55">
      <g>
       <use xlink:href="#mbaf72166bc" x="406.802727" y="313.568" style="stroke: #000000; stroke-width: 0.5"/>
      </g>
     </g>
     <g id="line2d_56">
      <g>
       <use xlink:href="#m28e7bb52a1" x="406.802727" y="25.28" style="stroke: #000000; stroke-width: 0.5"/>
      </g>
     </g>
    </g>
    <g id="xtick_26">
     <g id="line2d_57">
      <g>
       <use xlink:href="#mbaf72166bc" x="422.020909" y="313.568" style="stroke: #000000; stroke-width: 0.5"/>
      </g>
     </g>
     <g id="line2d_58">
      <g>
       <use xlink:href="#m28e7bb52a1" x="422.020909" y="25.28" style="stroke: #000000; stroke-width: 0.5"/>
      </g>
     </g>
    </g>
    <g id="xtick_27">
     <g id="line2d_59">
      <g>
       <use xlink:href="#mbaf72166bc" x="437.239091" y="313.568" style="stroke: #000000; stroke-width: 0.5"/>
      </g>
     </g>
     <g id="line2d_60">
      <g>
       <use xlink:href="#m28e7bb52a1" x="437.239091" y="25.28" style="stroke: #000000; stroke-width: 0.5"/>
      </g>
     </g>
    </g>
    <g id="xtick_28">
     <g id="line2d_61">
      <g>
       <use xlink:href="#mbaf72166bc" x="467.675455" y="313.568" style="stroke: #000000; stroke-width: 0.5"/>
      </g>
     </g>
     <g id="line2d_62">
      <g>
       <use xlink:href="#m28e7bb52a1" x="467.675455" y="25.28" style="stroke: #000000; stroke-width: 0.5"/>
      </g>
     </g>
    </g>
    <g id="text_7">
     <!-- Time -->
     <g transform="translate(247.453438 341.429562) scale(0.14 -0.14)">
      <defs>
       <path id="STIXGeneral-Regular-54" d="M 3795 3149 
L 3642 3149 
Q 3539 3674 3353 3821 
Q 3168 3968 2656 3968 
L 2278 3968 
L 2278 710 
Q 2278 346 2387 243 
Q 2496 141 2893 122 
L 2893 0 
L 1024 0 
L 1024 122 
Q 1427 147 1526 256 
Q 1626 365 1626 787 
L 1626 3968 
L 1242 3968 
Q 723 3968 540 3817 
Q 358 3667 262 3149 
L 109 3149 
L 154 4237 
L 3750 4237 
L 3795 3149 
z
" transform="scale(0.015625)"/>
       <path id="STIXGeneral-Regular-69" d="M 1152 4045 
Q 1152 3904 1056 3811 
Q 960 3718 819 3718 
Q 685 3718 592 3811 
Q 499 3904 499 4045 
Q 499 4179 595 4275 
Q 691 4371 826 4371 
Q 966 4371 1059 4275 
Q 1152 4179 1152 4045 
z
M 1619 0 
L 102 0 
L 102 96 
Q 435 115 521 211 
Q 608 307 608 666 
L 608 2118 
Q 608 2342 563 2432 
Q 518 2522 397 2522 
Q 243 2522 128 2490 
L 128 2592 
L 1120 2944 
L 1146 2918 
L 1146 672 
Q 1146 314 1226 218 
Q 1306 122 1619 96 
L 1619 0 
z
" transform="scale(0.015625)"/>
       <path id="STIXGeneral-Regular-6d" d="M 4960 0 
L 3565 0 
L 3565 96 
Q 3834 122 3907 208 
Q 3981 294 3981 576 
L 3981 1894 
Q 3981 2278 3869 2444 
Q 3757 2611 3488 2611 
Q 3264 2611 3107 2521 
Q 2950 2432 2803 2221 
L 2803 608 
Q 2803 301 2896 201 
Q 2989 102 3264 96 
L 3264 0 
L 1830 0 
L 1830 96 
Q 2112 115 2189 188 
Q 2266 262 2266 550 
L 2266 1901 
Q 2266 2611 1850 2611 
Q 1670 2611 1468 2531 
Q 1267 2451 1171 2336 
Q 1088 2240 1088 2227 
L 1088 448 
Q 1088 243 1177 176 
Q 1267 109 1523 96 
L 1523 0 
L 102 0 
L 102 96 
Q 371 102 460 195 
Q 550 288 550 563 
L 550 2150 
Q 550 2387 499 2480 
Q 448 2573 326 2573 
Q 230 2573 122 2547 
L 122 2656 
Q 557 2778 1011 2944 
L 1062 2925 
L 1062 2451 
L 1075 2451 
Q 1363 2752 1584 2848 
Q 1805 2944 2054 2944 
Q 2560 2944 2733 2406 
Q 3232 2944 3776 2944 
Q 4518 2944 4518 1792 
L 4518 493 
Q 4518 282 4582 202 
Q 4646 122 4794 109 
L 4960 96 
L 4960 0 
z
" transform="scale(0.015625)"/>
       <path id="STIXGeneral-Regular-65" d="M 2611 1050 
L 2714 1005 
Q 2330 -64 1376 -64 
Q 813 -64 486 329 
Q 160 723 160 1389 
Q 160 2074 525 2509 
Q 890 2944 1485 2944 
Q 2061 2944 2374 2502 
Q 2560 2246 2592 1773 
L 621 1773 
Q 646 1370 700 1158 
Q 755 947 915 730 
Q 1184 378 1626 378 
Q 1939 378 2153 531 
Q 2368 685 2611 1050 
z
M 634 1978 
L 1939 1978 
Q 1882 2381 1750 2547 
Q 1619 2714 1312 2714 
Q 1043 2714 864 2525 
Q 685 2336 634 1978 
z
" transform="scale(0.015625)"/>
      </defs>
      <use xlink:href="#STIXGeneral-Regular-54"/>
      <use xlink:href="#STIXGeneral-Regular-69" transform="translate(61.099991 0)"/>
      <use xlink:href="#STIXGeneral-Regular-6d" transform="translate(88.899979 0)"/>
      <use xlink:href="#STIXGeneral-Regular-65" transform="translate(166.699966 0)"/>
     </g>
    </g>
   </g>
   <g id="matplotlib.axis_2">
    <g id="ytick_1">
     <g id="line2d_63">
      <path d="M 52.98 297.251195 
L 471.48 297.251195 
" clip-path="url(#pa694a4fa53)" style="fill: none; stroke: #b0b0b0; stroke-opacity: 0.35; stroke-width: 0.5; stroke-linecap: square"/>
     </g>
     <g id="line2d_64">
      <defs>
       <path id="ma4eaf0b9cc" d="M 0 0 
L 3 0 
" style="stroke: #000000; stroke-width: 0.5"/>
      </defs>
      <g>
       <use xlink:href="#ma4eaf0b9cc" x="52.98" y="297.251195" style="stroke: #000000; stroke-width: 0.5"/>
      </g>
     </g>
     <g id="line2d_65">
      <defs>
       <path id="mfa319e0812" d="M 0 0 
L -3 0 
" style="stroke: #000000; stroke-width: 0.5"/>
      </defs>
      <g>
       <use xlink:href="#mfa319e0812" x="471.48" y="297.251195" style="stroke: #000000; stroke-width: 0.5"/>
      </g>
     </g>
     <g id="text_8">
      <!-- $\mathdefault{−0.05}$ -->
      <g transform="translate(20.2 301.349007) scale(0.12 -0.12)">
       <defs>
        <path id="STIXGeneral-Regular-2212" d="M 3974 1408 
L 410 1408 
L 410 1830 
L 3974 1830 
L 3974 1408 
z
" transform="scale(0.015625)"/>
        <path id="STIXGeneral-Regular-2e" d="M 1158 275 
Q 1158 134 1052 32 
Q 947 -70 800 -70 
Q 653 -70 550 32 
Q 448 134 448 281 
Q 448 429 553 534 
Q 659 640 806 640 
Q 947 640 1052 531 
Q 1158 422 1158 275 
z
" transform="scale(0.015625)"/>
       </defs>
       <use xlink:href="#STIXGeneral-Regular-2212" transform="translate(0 0.203125)"/>
       <use xlink:href="#STIXGeneral-Regular-30" transform="translate(68.499985 0.203125)"/>
       <use xlink:href="#STIXGeneral-Regular-2e" transform="translate(118.499969 0.203125)"/>
       <use xlink:href="#STIXGeneral-Regular-30" transform="translate(143.499954 0.203125)"/>
       <use xlink:href="#STIXGeneral-Regular-35" transform="translate(193.499939 0.203125)"/>
      </g>
     </g>
    </g>
    <g id="ytick_2">
     <g id="line2d_66">
      <path d="M 52.98 254.106662 
L 471.48 254.106662 
" clip-path="url(#pa694a4fa53)" style="fill: none; stroke: #b0b0b0; stroke-opacity: 0.35; stroke-width: 0.5; stroke-linecap: square"/>
     </g>
     <g id="line2d_67">
      <g>
       <use xlink:href="#ma4eaf0b9cc" x="52.98" y="254.106662" style="stroke: #000000; stroke-width: 0.5"/>
      </g>
     </g>
     <g id="line2d_68">
      <g>
       <use xlink:href="#mfa319e0812" x="471.48" y="254.106662" style="stroke: #000000; stroke-width: 0.5"/>
      </g>
     </g>
     <g id="text_9">
      <!-- $\mathdefault{0.00}$ -->
      <g transform="translate(28.48 258.204475) scale(0.12 -0.12)">
       <use xlink:href="#STIXGeneral-Regular-30" transform="translate(0 0.40625)"/>
       <use xlink:href="#STIXGeneral-Regular-2e" transform="translate(49.999985 0.40625)"/>
       <use xlink:href="#STIXGeneral-Regular-30" transform="translate(74.999969 0.40625)"/>
       <use xlink:href="#STIXGeneral-Regular-30" transform="translate(124.999954 0.40625)"/>
      </g>
     </g>
    </g>
    <g id="ytick_3">
     <g id="line2d_69">
      <path d="M 52.98 210.96213 
L 471.48 210.96213 
" clip-path="url(#pa694a4fa53)" style="fill: none; stroke: #b0b0b0; stroke-opacity: 0.35; stroke-width: 0.5; stroke-linecap: square"/>
     </g>
     <g id="line2d_70">
      <g>
       <use xlink:href="#ma4eaf0b9cc" x="52.98" y="210.96213" style="stroke: #000000; stroke-width: 0.5"/>
      </g>
     </g>
     <g id="line2d_71">
      <g>
       <use xlink:href="#mfa319e0812" x="471.48" y="210.96213" style="stroke: #000000; stroke-width: 0.5"/>
      </g>
     </g>
     <g id="text_10">
      <!-- $\mathdefault{0.05}$ -->
      <g transform="translate(28.48 215.059942) scale(0.12 -0.12)">
       <use xlink:href="#STIXGeneral-Regular-30" transform="translate(0 0.203125)"/>
       <use xlink:href="#STIXGeneral-Regular-2e" transform="translate(49.999985 0.203125)"/>
       <use xlink:href="#STIXGeneral-Regular-30" transform="translate(74.999969 0.203125)"/>
       <use xlink:href="#STIXGeneral-Regular-35" transform="translate(124.999954 0.203125)"/>
      </g>
     </g>
    </g>
    <g id="ytick_4">
     <g id="line2d_72">
      <path d="M 52.98 167.817597 
L 471.48 167.817597 
" clip-path="url(#pa694a4fa53)" style="fill: none; stroke: #b0b0b0; stroke-opacity: 0.35; stroke-width: 0.5; stroke-linecap: square"/>
     </g>
     <g id="line2d_73">
      <g>
       <use xlink:href="#ma4eaf0b9cc" x="52.98" y="167.817597" style="stroke: #000000; stroke-width: 0.5"/>
      </g>
     </g>
     <g id="line2d_74">
      <g>
       <use xlink:href="#mfa319e0812" x="471.48" y="167.817597" style="stroke: #000000; stroke-width: 0.5"/>
      </g>
     </g>
     <g id="text_11">
      <!-- $\mathdefault{0.10}$ -->
      <g transform="translate(28.48 171.91541) scale(0.12 -0.12)">
       <use xlink:href="#STIXGeneral-Regular-30" transform="translate(0 0.40625)"/>
       <use xlink:href="#STIXGeneral-Regular-2e" transform="translate(49.999985 0.40625)"/>
       <use xlink:href="#STIXGeneral-Regular-31" transform="translate(74.999969 0.40625)"/>
       <use xlink:href="#STIXGeneral-Regular-30" transform="translate(124.999954 0.40625)"/>
      </g>
     </g>
    </g>
    <g id="ytick_5">
     <g id="line2d_75">
      <path d="M 52.98 124.673065 
L 471.48 124.673065 
" clip-path="url(#pa694a4fa53)" style="fill: none; stroke: #b0b0b0; stroke-opacity: 0.35; stroke-width: 0.5; stroke-linecap: square"/>
     </g>
     <g id="line2d_76">
      <g>
       <use xlink:href="#ma4eaf0b9cc" x="52.98" y="124.673065" style="stroke: #000000; stroke-width: 0.5"/>
      </g>
     </g>
     <g id="line2d_77">
      <g>
       <use xlink:href="#mfa319e0812" x="471.48" y="124.673065" style="stroke: #000000; stroke-width: 0.5"/>
      </g>
     </g>
     <g id="text_12">
      <!-- $\mathdefault{0.15}$ -->
      <g transform="translate(28.48 128.770877) scale(0.12 -0.12)">
       <use xlink:href="#STIXGeneral-Regular-30" transform="translate(0 0.203125)"/>
       <use xlink:href="#STIXGeneral-Regular-2e" transform="translate(49.999985 0.203125)"/>
       <use xlink:href="#STIXGeneral-Regular-31" transform="translate(74.999969 0.203125)"/>
       <use xlink:href="#STIXGeneral-Regular-35" transform="translate(124.999954 0.203125)"/>
      </g>
     </g>
    </g>
    <g id="ytick_6">
     <g id="line2d_78">
      <path d="M 52.98 81.528532 
L 471.48 81.528532 
" clip-path="url(#pa694a4fa53)" style="fill: none; stroke: #b0b0b0; stroke-opacity: 0.35; stroke-width: 0.5; stroke-linecap: square"/>
     </g>
     <g id="line2d_79">
      <g>
       <use xlink:href="#ma4eaf0b9cc" x="52.98" y="81.528532" style="stroke: #000000; stroke-width: 0.5"/>
      </g>
     </g>
     <g id="line2d_80">
      <g>
       <use xlink:href="#mfa319e0812" x="471.48" y="81.528532" style="stroke: #000000; stroke-width: 0.5"/>
      </g>
     </g>
     <g id="text_13">
      <!-- $\mathdefault{0.20}$ -->
      <g transform="translate(28.48 85.626345) scale(0.12 -0.12)">
       <use xlink:href="#STIXGeneral-Regular-30" transform="translate(0 0.40625)"/>
       <use xlink:href="#STIXGeneral-Regular-2e" transform="translate(49.999985 0.40625)"/>
       <use xlink:href="#STIXGeneral-Regular-32" transform="translate(74.999969 0.40625)"/>
       <use xlink:href="#STIXGeneral-Regular-30" transform="translate(124.999954 0.40625)"/>
      </g>
     </g>
    </g>
    <g id="ytick_7">
     <g id="line2d_81">
      <path d="M 52.98 38.384 
L 471.48 38.384 
" clip-path="url(#pa694a4fa53)" style="fill: none; stroke: #b0b0b0; stroke-opacity: 0.35; stroke-width: 0.5; stroke-linecap: square"/>
     </g>
     <g id="line2d_82">
      <g>
       <use xlink:href="#ma4eaf0b9cc" x="52.98" y="38.384" style="stroke: #000000; stroke-width: 0.5"/>
      </g>
     </g>
     <g id="line2d_83">
      <g>
       <use xlink:href="#mfa319e0812" x="471.48" y="38.384" style="stroke: #000000; stroke-width: 0.5"/>
      </g>
     </g>
     <g id="text_14">
      <!-- $\mathdefault{0.25}$ -->
      <g transform="translate(28.48 42.481812) scale(0.12 -0.12)">
       <use xlink:href="#STIXGeneral-Regular-30" transform="translate(0 0.203125)"/>
       <use xlink:href="#STIXGeneral-Regular-2e" transform="translate(49.999985 0.203125)"/>
       <use xlink:href="#STIXGeneral-Regular-32" transform="translate(74.999969 0.203125)"/>
       <use xlink:href="#STIXGeneral-Regular-35" transform="translate(124.999954 0.203125)"/>
      </g>
     </g>
    </g>
    <g id="ytick_8">
     <g id="line2d_84">
      <defs>
       <path id="m7c88bcb8e2" d="M 0 0 
L 1.5 0 
" style="stroke: #000000; stroke-width: 0.5"/>
      </defs>
      <g>
       <use xlink:href="#m7c88bcb8e2" x="52.98" y="305.880101" style="stroke: #000000; stroke-width: 0.5"/>
      </g>
     </g>
     <g id="line2d_85">
      <defs>
       <path id="m618fbcf5c1" d="M 0 0 
L -1.5 0 
" style="stroke: #000000; stroke-width: 0.5"/>
      </defs>
      <g>
       <use xlink:href="#m618fbcf5c1" x="471.48" y="305.880101" style="stroke: #000000; stroke-width: 0.5"/>
      </g>
     </g>
    </g>
    <g id="ytick_9">
     <g id="line2d_86">
      <g>
       <use xlink:href="#m7c88bcb8e2" x="52.98" y="288.622288" style="stroke: #000000; stroke-width: 0.5"/>
      </g>
     </g>
     <g id="line2d_87">
      <g>
       <use xlink:href="#m618fbcf5c1" x="471.48" y="288.622288" style="stroke: #000000; stroke-width: 0.5"/>
      </g>
     </g>
    </g>
    <g id="ytick_10">
     <g id="line2d_88">
      <g>
       <use xlink:href="#m7c88bcb8e2" x="52.98" y="279.993382" style="stroke: #000000; stroke-width: 0.5"/>
      </g>
     </g>
     <g id="line2d_89">
      <g>
       <use xlink:href="#m618fbcf5c1" x="471.48" y="279.993382" style="stroke: #000000; stroke-width: 0.5"/>
      </g>
     </g>
    </g>
    <g id="ytick_11">
     <g id="line2d_90">
      <g>
       <use xlink:href="#m7c88bcb8e2" x="52.98" y="271.364475" style="stroke: #000000; stroke-width: 0.5"/>
      </g>
     </g>
     <g id="line2d_91">
      <g>
       <use xlink:href="#m618fbcf5c1" x="471.48" y="271.364475" style="stroke: #000000; stroke-width: 0.5"/>
      </g>
     </g>
    </g>
    <g id="ytick_12">
     <g id="line2d_92">
      <g>
       <use xlink:href="#m7c88bcb8e2" x="52.98" y="262.735569" style="stroke: #000000; stroke-width: 0.5"/>
      </g>
     </g>
     <g id="line2d_93">
      <g>
       <use xlink:href="#m618fbcf5c1" x="471.48" y="262.735569" style="stroke: #000000; stroke-width: 0.5"/>
      </g>
     </g>
    </g>
    <g id="ytick_13">
     <g id="line2d_94">
      <g>
       <use xlink:href="#m7c88bcb8e2" x="52.98" y="245.477756" style="stroke: #000000; stroke-width: 0.5"/>
      </g>
     </g>
     <g id="line2d_95">
      <g>
       <use xlink:href="#m618fbcf5c1" x="471.48" y="245.477756" style="stroke: #000000; stroke-width: 0.5"/>
      </g>
     </g>
    </g>
    <g id="ytick_14">
     <g id="line2d_96">
      <g>
       <use xlink:href="#m7c88bcb8e2" x="52.98" y="236.848849" style="stroke: #000000; stroke-width: 0.5"/>
      </g>
     </g>
     <g id="line2d_97">
      <g>
       <use xlink:href="#m618fbcf5c1" x="471.48" y="236.848849" style="stroke: #000000; stroke-width: 0.5"/>
      </g>
     </g>
    </g>
    <g id="ytick_15">
     <g id="line2d_98">
      <g>
       <use xlink:href="#m7c88bcb8e2" x="52.98" y="228.219943" style="stroke: #000000; stroke-width: 0.5"/>
      </g>
     </g>
     <g id="line2d_99">
      <g>
       <use xlink:href="#m618fbcf5c1" x="471.48" y="228.219943" style="stroke: #000000; stroke-width: 0.5"/>
      </g>
     </g>
    </g>
    <g id="ytick_16">
     <g id="line2d_100">
      <g>
       <use xlink:href="#m7c88bcb8e2" x="52.98" y="219.591036" style="stroke: #000000; stroke-width: 0.5"/>
      </g>
     </g>
     <g id="line2d_101">
      <g>
       <use xlink:href="#m618fbcf5c1" x="471.48" y="219.591036" style="stroke: #000000; stroke-width: 0.5"/>
      </g>
     </g>
    </g>
    <g id="ytick_17">
     <g id="line2d_102">
      <g>
       <use xlink:href="#m7c88bcb8e2" x="52.98" y="202.333223" style="stroke: #000000; stroke-width: 0.5"/>
      </g>
     </g>
     <g id="line2d_103">
      <g>
       <use xlink:href="#m618fbcf5c1" x="471.48" y="202.333223" style="stroke: #000000; stroke-width: 0.5"/>
      </g>
     </g>
    </g>
    <g id="ytick_18">
     <g id="line2d_104">
      <g>
       <use xlink:href="#m7c88bcb8e2" x="52.98" y="193.704317" style="stroke: #000000; stroke-width: 0.5"/>
      </g>
     </g>
     <g id="line2d_105">
      <g>
       <use xlink:href="#m618fbcf5c1" x="471.48" y="193.704317" style="stroke: #000000; stroke-width: 0.5"/>
      </g>
     </g>
    </g>
    <g id="ytick_19">
     <g id="line2d_106">
      <g>
       <use xlink:href="#m7c88bcb8e2" x="52.98" y="185.07541" style="stroke: #000000; stroke-width: 0.5"/>
      </g>
     </g>
     <g id="line2d_107">
      <g>
       <use xlink:href="#m618fbcf5c1" x="471.48" y="185.07541" style="stroke: #000000; stroke-width: 0.5"/>
      </g>
     </g>
    </g>
    <g id="ytick_20">
     <g id="line2d_108">
      <g>
       <use xlink:href="#m7c88bcb8e2" x="52.98" y="176.446504" style="stroke: #000000; stroke-width: 0.5"/>
      </g>
     </g>
     <g id="line2d_109">
      <g>
       <use xlink:href="#m618fbcf5c1" x="471.48" y="176.446504" style="stroke: #000000; stroke-width: 0.5"/>
      </g>
     </g>
    </g>
    <g id="ytick_21">
     <g id="line2d_110">
      <g>
       <use xlink:href="#m7c88bcb8e2" x="52.98" y="159.188691" style="stroke: #000000; stroke-width: 0.5"/>
      </g>
     </g>
     <g id="line2d_111">
      <g>
       <use xlink:href="#m618fbcf5c1" x="471.48" y="159.188691" style="stroke: #000000; stroke-width: 0.5"/>
      </g>
     </g>
    </g>
    <g id="ytick_22">
     <g id="line2d_112">
      <g>
       <use xlink:href="#m7c88bcb8e2" x="52.98" y="150.559784" style="stroke: #000000; stroke-width: 0.5"/>
      </g>
     </g>
     <g id="line2d_113">
      <g>
       <use xlink:href="#m618fbcf5c1" x="471.48" y="150.559784" style="stroke: #000000; stroke-width: 0.5"/>
      </g>
     </g>
    </g>
    <g id="ytick_23">
     <g id="line2d_114">
      <g>
       <use xlink:href="#m7c88bcb8e2" x="52.98" y="141.930878" style="stroke: #000000; stroke-width: 0.5"/>
      </g>
     </g>
     <g id="line2d_115">
      <g>
       <use xlink:href="#m618fbcf5c1" x="471.48" y="141.930878" style="stroke: #000000; stroke-width: 0.5"/>
      </g>
     </g>
    </g>
    <g id="ytick_24">
     <g id="line2d_116">
      <g>
       <use xlink:href="#m7c88bcb8e2" x="52.98" y="133.301971" style="stroke: #000000; stroke-width: 0.5"/>
      </g>
     </g>
     <g id="line2d_117">
      <g>
       <use xlink:href="#m618fbcf5c1" x="471.48" y="133.301971" style="stroke: #000000; stroke-width: 0.5"/>
      </g>
     </g>
    </g>
    <g id="ytick_25">
     <g id="line2d_118">
      <g>
       <use xlink:href="#m7c88bcb8e2" x="52.98" y="116.044158" style="stroke: #000000; stroke-width: 0.5"/>
      </g>
     </g>
     <g id="line2d_119">
      <g>
       <use xlink:href="#m618fbcf5c1" x="471.48" y="116.044158" style="stroke: #000000; stroke-width: 0.5"/>
      </g>
     </g>
    </g>
    <g id="ytick_26">
     <g id="line2d_120">
      <g>
       <use xlink:href="#m7c88bcb8e2" x="52.98" y="107.415252" style="stroke: #000000; stroke-width: 0.5"/>
      </g>
     </g>
     <g id="line2d_121">
      <g>
       <use xlink:href="#m618fbcf5c1" x="471.48" y="107.415252" style="stroke: #000000; stroke-width: 0.5"/>
      </g>
     </g>
    </g>
    <g id="ytick_27">
     <g id="line2d_122">
      <g>
       <use xlink:href="#m7c88bcb8e2" x="52.98" y="98.786345" style="stroke: #000000; stroke-width: 0.5"/>
      </g>
     </g>
     <g id="line2d_123">
      <g>
       <use xlink:href="#m618fbcf5c1" x="471.48" y="98.786345" style="stroke: #000000; stroke-width: 0.5"/>
      </g>
     </g>
    </g>
    <g id="ytick_28">
     <g id="line2d_124">
      <g>
       <use xlink:href="#m7c88bcb8e2" x="52.98" y="90.157439" style="stroke: #000000; stroke-width: 0.5"/>
      </g>
     </g>
     <g id="line2d_125">
      <g>
       <use xlink:href="#m618fbcf5c1" x="471.48" y="90.157439" style="stroke: #000000; stroke-width: 0.5"/>
      </g>
     </g>
    </g>
    <g id="ytick_29">
     <g id="line2d_126">
      <g>
       <use xlink:href="#m7c88bcb8e2" x="52.98" y="72.899626" style="stroke: #000000; stroke-width: 0.5"/>
      </g>
     </g>
     <g id="line2d_127">
      <g>
       <use xlink:href="#m618fbcf5c1" x="471.48" y="72.899626" style="stroke: #000000; stroke-width: 0.5"/>
      </g>
     </g>
    </g>
    <g id="ytick_30">
     <g id="line2d_128">
      <g>
       <use xlink:href="#m7c88bcb8e2" x="52.98" y="64.270719" style="stroke: #000000; stroke-width: 0.5"/>
      </g>
     </g>
     <g id="line2d_129">
      <g>
       <use xlink:href="#m618fbcf5c1" x="471.48" y="64.270719" style="stroke: #000000; stroke-width: 0.5"/>
      </g>
     </g>
    </g>
    <g id="ytick_31">
     <g id="line2d_130">
      <g>
       <use xlink:href="#m7c88bcb8e2" x="52.98" y="55.641813" style="stroke: #000000; stroke-width: 0.5"/>
      </g>
     </g>
     <g id="line2d_131">
      <g>
       <use xlink:href="#m618fbcf5c1" x="471.48" y="55.641813" style="stroke: #000000; stroke-width: 0.5"/>
      </g>
     </g>
    </g>
    <g id="ytick_32">
     <g id="line2d_132">
      <g>
       <use xlink:href="#m7c88bcb8e2" x="52.98" y="47.012906" style="stroke: #000000; stroke-width: 0.5"/>
      </g>
     </g>
     <g id="line2d_133">
      <g>
       <use xlink:href="#m618fbcf5c1" x="471.48" y="47.012906" style="stroke: #000000; stroke-width: 0.5"/>
      </g>
     </g>
    </g>
    <g id="ytick_33">
     <g id="line2d_134">
      <g>
       <use xlink:href="#m7c88bcb8e2" x="52.98" y="29.755094" style="stroke: #000000; stroke-width: 0.5"/>
      </g>
     </g>
     <g id="line2d_135">
      <g>
       <use xlink:href="#m618fbcf5c1" x="471.48" y="29.755094" style="stroke: #000000; stroke-width: 0.5"/>
      </g>
     </g>
    </g>
    <g id="text_15">
     <!-- Variance -->
     <g transform="translate(13.161563 194.688531) rotate(-90) scale(0.14 -0.14)">
      <defs>
       <path id="STIXGeneral-Regular-56" d="M 4461 4237 
L 4461 4115 
Q 4262 4109 4134 3990 
Q 4006 3872 3872 3533 
L 2451 -70 
L 2355 -70 
L 794 3411 
Q 589 3866 467 3987 
Q 346 4109 102 4115 
L 102 4237 
L 1798 4237 
L 1798 4115 
L 1619 4102 
Q 1331 4083 1331 3904 
Q 1331 3776 1581 3219 
L 2554 1030 
L 3494 3392 
Q 3616 3699 3616 3853 
Q 3616 3898 3606 3933 
Q 3597 3968 3584 3993 
Q 3571 4019 3536 4038 
Q 3501 4058 3481 4067 
Q 3462 4077 3411 4086 
Q 3360 4096 3337 4099 
Q 3315 4102 3248 4108 
Q 3181 4115 3155 4115 
L 3155 4237 
L 4461 4237 
z
" transform="scale(0.015625)"/>
       <path id="STIXGeneral-Regular-61" d="M 2829 422 
L 2829 243 
Q 2586 -64 2253 -64 
Q 1888 -64 1843 403 
L 1837 403 
Q 1427 -64 909 -64 
Q 608 -64 422 112 
Q 237 288 237 602 
Q 237 1050 685 1350 
Q 992 1555 1837 1869 
L 1837 2214 
Q 1837 2502 1699 2646 
Q 1562 2790 1338 2790 
Q 1146 2790 1018 2697 
Q 890 2605 890 2477 
Q 890 2419 909 2348 
Q 928 2278 928 2208 
Q 928 2112 841 2029 
Q 755 1946 634 1946 
Q 525 1946 441 2029 
Q 358 2112 358 2240 
Q 358 2547 685 2752 
Q 986 2944 1421 2944 
Q 1939 2944 2176 2656 
Q 2291 2522 2323 2384 
Q 2355 2246 2355 1946 
L 2355 723 
Q 2355 301 2554 301 
Q 2682 301 2829 422 
z
M 1837 813 
L 1837 1715 
Q 1248 1510 1018 1293 
Q 800 1094 800 800 
Q 800 557 921 432 
Q 1043 307 1242 307 
Q 1453 307 1613 410 
Q 1747 506 1792 589 
Q 1837 672 1837 813 
z
" transform="scale(0.015625)"/>
       <path id="STIXGeneral-Regular-72" d="M 1024 2931 
L 1024 2342 
Q 1267 2688 1430 2816 
Q 1594 2944 1792 2944 
Q 1958 2944 2051 2854 
Q 2144 2765 2144 2605 
Q 2144 2470 2077 2393 
Q 2010 2317 1894 2317 
Q 1773 2317 1638 2445 
Q 1536 2541 1472 2541 
Q 1338 2541 1181 2355 
Q 1024 2170 1024 2016 
L 1024 576 
Q 1024 301 1133 205 
Q 1242 109 1568 96 
L 1568 0 
L 32 0 
L 32 96 
Q 339 154 412 224 
Q 486 294 486 538 
L 486 2138 
Q 486 2349 438 2435 
Q 390 2522 269 2522 
Q 166 2522 45 2496 
L 45 2598 
Q 448 2726 992 2944 
L 1024 2931 
z
" transform="scale(0.015625)"/>
       <path id="STIXGeneral-Regular-6e" d="M 3104 0 
L 1773 0 
L 1779 96 
Q 2016 115 2096 233 
Q 2176 352 2176 672 
L 2176 1946 
Q 2176 2592 1709 2592 
Q 1549 2592 1408 2515 
Q 1267 2438 1050 2227 
L 1050 461 
Q 1050 269 1136 192 
Q 1222 115 1466 96 
L 1466 0 
L 115 0 
L 115 96 
Q 358 115 435 214 
Q 512 314 512 602 
L 512 2157 
Q 512 2394 467 2483 
Q 422 2573 288 2573 
Q 160 2573 102 2547 
L 102 2656 
Q 550 2784 979 2944 
L 1030 2925 
L 1030 2426 
L 1037 2426 
Q 1491 2944 1958 2944 
Q 2323 2944 2518 2688 
Q 2714 2432 2714 1958 
L 2714 544 
Q 2714 288 2790 205 
Q 2867 122 3104 96 
L 3104 0 
z
" transform="scale(0.015625)"/>
       <path id="STIXGeneral-Regular-63" d="M 2547 998 
L 2637 941 
Q 2362 403 2112 205 
Q 1786 -64 1376 -64 
Q 845 -64 502 336 
Q 160 736 160 1357 
Q 160 2170 698 2618 
Q 1094 2944 1562 2944 
Q 1965 2944 2256 2749 
Q 2547 2554 2547 2285 
Q 2547 2176 2457 2096 
Q 2368 2016 2246 2016 
Q 2022 2016 1939 2310 
L 1901 2451 
Q 1850 2630 1773 2694 
Q 1696 2758 1523 2758 
Q 1133 2758 893 2451 
Q 653 2144 653 1645 
Q 653 1094 928 745 
Q 1203 397 1645 397 
Q 1920 397 2118 528 
Q 2317 659 2547 998 
z
" transform="scale(0.015625)"/>
      </defs>
      <use xlink:href="#STIXGeneral-Regular-56"/>
      <use xlink:href="#STIXGeneral-Regular-61" transform="translate(72.199982 0)"/>
      <use xlink:href="#STIXGeneral-Regular-72" transform="translate(116.599976 0)"/>
      <use xlink:href="#STIXGeneral-Regular-69" transform="translate(149.899963 0)"/>
      <use xlink:href="#STIXGeneral-Regular-61" transform="translate(177.699951 0)"/>
      <use xlink:href="#STIXGeneral-Regular-6e" transform="translate(222.099945 0)"/>
      <use xlink:href="#STIXGeneral-Regular-63" transform="translate(272.09993 0)"/>
      <use xlink:href="#STIXGeneral-Regular-65" transform="translate(316.499924 0)"/>
     </g>
    </g>
   </g>
   <g id="line2d_136">
    <path d="M 72.002727 300.464 
L 74.437636 271.939343 
L 76.872545 245.990902 
L 79.307455 222.433522 
L 81.666273 201.729235 
L 84.025091 182.959738 
L 86.307818 166.508421 
L 88.590545 151.623816 
L 90.873273 138.196697 
L 93.079909 126.506324 
L 95.286545 115.99555 
L 97.417091 106.890153 
L 99.547636 98.739743 
L 101.602091 91.72429 
L 103.656545 85.482075 
L 105.634909 80.153838 
L 107.613273 75.451628 
L 109.515545 71.482587 
L 111.417818 68.020242 
L 113.244 65.142958 
L 115.070182 62.675571 
L 116.820273 60.6718 
L 118.570364 58.999363 
L 120.320455 57.637878 
L 121.994455 56.60871 
L 123.668455 55.830265 
L 125.342455 55.287258 
L 127.092545 54.955543 
L 128.842636 54.849523 
L 130.668818 54.963373 
L 132.571091 55.308681 
L 134.549455 55.895039 
L 136.68 56.765074 
L 138.962727 57.948238 
L 141.397636 59.469594 
L 144.060818 61.408321 
L 146.952273 63.800755 
L 150.148091 66.747835 
L 153.648273 70.286061 
L 157.605 74.6086 
L 162.246545 80.023834 
L 167.801182 86.861626 
L 175.258091 96.419526 
L 200.063727 128.479313 
L 207.596727 137.705042 
L 214.444909 145.746555 
L 220.912636 153.005271 
L 227.152091 159.68018 
L 233.239364 165.873146 
L 239.250545 171.676252 
L 245.261727 177.16996 
L 251.196818 182.294769 
L 257.131909 187.128658 
L 263.143091 191.736491 
L 269.154273 196.064438 
L 275.241545 200.173218 
L 281.404909 204.064849 
L 287.644364 207.742579 
L 294.036 211.250992 
L 300.579818 214.586595 
L 307.275818 217.747411 
L 314.124 220.732875 
L 321.200455 223.573008 
L 328.505182 226.262412 
L 336.038182 228.797525 
L 343.875545 231.198748 
L 352.017273 233.45956 
L 360.539455 235.593764 
L 369.442091 237.593541 
L 378.877364 239.482518 
L 388.845273 241.24809 
L 399.421909 242.892557 
L 410.683364 244.416003 
L 422.781818 245.82542 
L 435.869455 247.122337 
L 450.098455 248.304744 
L 452.457273 248.480576 
L 452.457273 248.480576 
" clip-path="url(#pa694a4fa53)" style="fill: none; stroke-dasharray: 2.2,3.63; stroke-dashoffset: 0; stroke: #2ca02c; stroke-width: 2.2"/>
    <defs>
     <path id="m86e087b300" d="M -1.6 1.6 
L 1.6 1.6 
L 1.6 -1.6 
L -1.6 -1.6 
z
" style="stroke: #2ca02c; stroke-linejoin: miter"/>
    </defs>
    <g clip-path="url(#pa694a4fa53)">
     <use xlink:href="#m86e087b300" x="72.002727" y="300.464" style="fill: #2ca02c; stroke: #2ca02c; stroke-linejoin: miter"/>
     <use xlink:href="#m86e087b300" x="106.243636" y="78.64227" style="fill: #2ca02c; stroke: #2ca02c; stroke-linejoin: miter"/>
     <use xlink:href="#m86e087b300" x="140.484545" y="58.869439" style="fill: #2ca02c; stroke: #2ca02c; stroke-linejoin: miter"/>
     <use xlink:href="#m86e087b300" x="174.725455" y="95.727816" style="fill: #2ca02c; stroke: #2ca02c; stroke-linejoin: miter"/>
     <use xlink:href="#m86e087b300" x="208.966364" y="139.341167" style="fill: #2ca02c; stroke: #2ca02c; stroke-linejoin: miter"/>
     <use xlink:href="#m86e087b300" x="243.207273" y="175.326956" style="fill: #2ca02c; stroke: #2ca02c; stroke-linejoin: miter"/>
     <use xlink:href="#m86e087b300" x="277.448182" y="201.596903" style="fill: #2ca02c; stroke: #2ca02c; stroke-linejoin: miter"/>
     <use xlink:href="#m86e087b300" x="311.689091" y="219.698958" style="fill: #2ca02c; stroke: #2ca02c; stroke-linejoin: miter"/>
     <use xlink:href="#m86e087b300" x="345.93" y="231.790856" style="fill: #2ca02c; stroke: #2ca02c; stroke-linejoin: miter"/>
     <use xlink:href="#m86e087b300" x="380.170909" y="239.724409" style="fill: #2ca02c; stroke: #2ca02c; stroke-linejoin: miter"/>
     <use xlink:href="#m86e087b300" x="414.411818" y="244.8739" style="fill: #2ca02c; stroke: #2ca02c; stroke-linejoin: miter"/>
     <use xlink:href="#m86e087b300" x="448.652727" y="248.194291" style="fill: #2ca02c; stroke: #2ca02c; stroke-linejoin: miter"/>
    </g>
   </g>
   <g id="patch_3">
    <path d="M 52.98 313.568 
L 52.98 25.28 
" style="fill: none; stroke: #000000; stroke-width: 0.5; stroke-linejoin: miter; stroke-linecap: square"/>
   </g>
   <g id="patch_4">
    <path d="M 471.48 313.568 
L 471.48 25.28 
" style="fill: none; stroke: #000000; stroke-width: 0.5; stroke-linejoin: miter; stroke-linecap: square"/>
   </g>
   <g id="patch_5">
    <path d="M 52.98 313.568 
L 471.48 313.568 
" style="fill: none; stroke: #000000; stroke-width: 0.5; stroke-linejoin: miter; stroke-linecap: square"/>
   </g>
   <g id="patch_6">
    <path d="M 52.98 25.28 
L 471.48 25.28 
" style="fill: none; stroke: #000000; stroke-width: 0.5; stroke-linejoin: miter; stroke-linecap: square"/>
   </g>
   <g id="line2d_137">
    <path d="M 72.002727 254.106662 
L 72.078818 254.106662 
L 72.231 251.525757 
L 72.307091 251.525757 
L 72.839727 246.410541 
L 72.915818 246.410541 
L 73.144091 243.034913 
L 73.448455 240.521312 
L 73.524545 240.521312 
L 74.133273 234.716647 
L 74.437636 234.716647 
L 74.589818 233.073703 
L 74.818091 229.808525 
L 75.122455 224.962531 
L 75.198545 224.962531 
L 75.579 220.178665 
L 75.731182 218.597849 
L 75.807273 218.597849 
L 76.111636 213.119357 
L 76.568182 213.119357 
L 77.100818 208.490811 
L 77.253 208.490811 
L 77.481273 204.681149 
L 77.633455 204.681149 
L 77.785636 201.664483 
L 78.09 199.420105 
L 78.242182 199.420105 
L 78.546545 197.191258 
L 78.622636 197.191258 
L 78.774818 195.713989 
L 79.231364 195.713989 
L 79.383545 193.511029 
L 79.687909 188.431192 
L 79.764 188.431192 
L 80.068364 183.435918 
L 80.144455 183.435918 
L 81.438 170.979229 
L 81.590182 168.28701 
L 81.818455 165.622404 
L 81.894545 165.622404 
L 82.046727 163.64207 
L 82.198909 163.64207 
L 82.579364 161.025785 
L 82.655455 161.025785 
L 83.188091 157.153132 
L 83.264182 157.153132 
L 83.796818 152.086238 
L 83.949 150.214628 
L 84.101182 150.214628 
L 84.633818 142.883509 
L 84.709909 142.883509 
L 86.079545 132.923162 
L 86.231727 132.923162 
L 86.383909 130.652034 
L 86.46 130.652034 
L 86.612182 128.966809 
L 86.840455 125.642954 
L 87.068727 125.642954 
L 87.373091 124.004325 
L 87.449182 124.004325 
L 88.362273 118.128902 
L 88.438364 118.128902 
L 88.742727 115.012141 
L 88.818818 115.012141 
L 89.047091 112.968816 
L 89.275364 110.953104 
L 89.655818 107.004516 
L 89.731909 107.004516 
L 90.188455 103.640105 
L 90.416727 101.755552 
L 90.568909 101.288728 
L 90.873273 101.288728 
L 91.101545 100.360258 
L 91.177636 100.360258 
L 91.329818 99.438691 
L 91.405909 99.438691 
L 91.710273 98.069283 
L 91.786364 98.069283 
L 92.166818 96.267568 
L 92.623364 96.267568 
L 93.232091 93.181008 
L 93.460364 93.181008 
L 93.688636 92.314666 
L 93.916909 92.314666 
L 94.069091 91.884083 
L 94.373455 91.884083 
L 95.438727 86.443558 
L 95.514818 86.443558 
L 95.971364 84.428708 
L 96.275727 84.428708 
L 96.427909 83.634849 
L 96.580091 83.240508 
L 96.656182 83.240508 
L 96.808364 82.847892 
L 96.884455 82.847892 
L 97.036636 81.680401 
L 97.264909 80.910703 
L 97.417091 80.910703 
L 98.025818 78.27112 
L 98.178 78.27112 
L 98.406273 77.532486 
L 98.482364 77.532486 
L 98.710636 76.075926 
L 98.938909 75.001628 
L 99.167182 72.899626 
L 99.395455 72.212765 
L 99.547636 72.212765 
L 99.928091 70.859752 
L 100.080273 70.859752 
L 100.232455 69.863114 
L 100.384636 69.207317 
L 100.460727 69.207317 
L 100.612909 68.882007 
L 100.765091 68.882007 
L 101.069455 67.916432 
L 101.145545 67.916432 
L 101.449909 66.96639 
L 101.602091 66.96639 
L 101.754273 66.653161 
L 101.830364 66.653161 
L 101.982545 66.031879 
L 102.058636 66.031879 
L 102.210818 65.723827 
L 102.743455 65.723827 
L 102.895636 65.112901 
L 103.2 64.209454 
L 103.276091 64.209454 
L 103.428273 63.615785 
L 103.580455 63.32154 
L 103.732636 63.32154 
L 104.189182 61.876198 
L 104.341364 61.876198 
L 104.493545 61.310142 
L 104.645727 61.310142 
L 104.950091 60.474001 
L 105.178364 60.474001 
L 105.558818 59.383307 
L 106.091455 59.383307 
L 106.243636 59.114948 
L 106.395818 59.114948 
L 106.548 58.320226 
L 106.700182 58.320226 
L 107.537182 55.783327 
L 107.765455 55.783327 
L 107.993727 55.296657 
L 108.069818 55.296657 
L 108.374182 54.579595 
L 108.450273 54.579595 
L 108.678545 54.110182 
L 108.830727 54.110182 
L 109.059 53.192066 
L 109.211182 53.192066 
L 109.363364 52.966852 
L 109.515545 52.966852 
L 110.048182 51.651807 
L 110.124273 51.651807 
L 110.352545 50.603394 
L 110.428636 50.603394 
L 110.580818 49.995057 
L 110.885182 49.995057 
L 111.113455 49.598127 
L 111.265636 49.598127 
L 111.417818 49.2081 
L 111.646091 49.2081 
L 111.874364 48.824977 
L 111.950455 48.824977 
L 112.102636 48.636004 
L 112.178727 48.636004 
L 112.407 47.897369 
L 112.863545 46.671202 
L 113.015727 46.3364 
L 113.091818 46.3364 
L 113.320091 45.687506 
L 113.472273 45.373414 
L 113.548364 45.218957 
L 113.700545 44.472556 
L 114.004909 44.472556 
L 114.233182 44.045426 
L 114.385364 44.045426 
L 114.537545 43.633827 
L 114.765818 43.109189 
L 114.841909 43.109189 
L 114.994091 42.982344 
L 115.070182 42.982344 
L 115.298455 42.733832 
L 115.450636 42.733832 
L 115.755 42.374006 
L 115.831091 42.374006 
L 116.059364 41.9184 
L 116.592 41.808813 
L 117.124636 41.187532 
L 117.733364 41.090025 
L 118.037727 40.80786 
L 118.266 40.717256 
L 118.494273 40.4558 
L 119.026909 40.3721 
L 119.255182 40.131354 
L 119.787818 39.696457 
L 120.396545 39.630014 
L 121.233545 39.060506 
L 121.461818 39.013047 
L 121.614 38.923307 
L 121.918364 38.881025 
L 122.146636 38.801639 
L 122.603182 38.695504 
L 123.516273 38.415064 
L 125.646818 38.508256 
L 126.331636 38.6049 
L 127.168636 38.695504 
L 127.473 38.729156 
L 127.929545 38.801639 
L 129.070909 39.2676 
L 129.375273 39.323688 
L 129.755727 39.502306 
L 130.212273 39.565297 
L 130.440545 39.630014 
L 130.592727 39.630014 
L 130.744909 39.764625 
L 131.125364 39.834519 
L 131.353636 39.906139 
L 131.734091 39.979485 
L 131.962364 40.054556 
L 132.571091 40.131354 
L 132.951545 40.3721 
L 133.484182 40.4558 
L 133.712455 40.717256 
L 134.092909 40.80786 
L 134.245091 40.900189 
L 134.397273 40.994244 
L 134.777727 41.387722 
L 135.082091 41.490406 
L 135.462545 42.257516 
L 135.843 42.257516 
L 136.071273 42.492222 
L 136.223455 42.492222 
L 136.451727 42.733832 
L 136.908273 42.733832 
L 137.136545 42.982344 
L 137.440909 42.982344 
L 137.593091 43.109189 
L 137.745273 43.109189 
L 138.049636 43.500079 
L 138.354 43.500079 
L 138.734455 44.045426 
L 138.810545 44.045426 
L 139.038818 44.328454 
L 139.191 44.328454 
L 139.343182 44.472556 
L 139.419273 44.472556 
L 139.875818 45.218957 
L 140.028 45.218957 
L 140.180182 45.373414 
L 140.332364 45.373414 
L 140.484545 45.687506 
L 140.712818 45.687506 
L 140.941091 46.008502 
L 141.017182 46.008502 
L 141.702 47.361514 
L 142.386818 47.361514 
L 142.539 47.538407 
L 142.615091 47.538407 
L 142.767273 47.717025 
L 143.071636 47.717025 
L 143.299909 48.079439 
L 143.528182 48.079439 
L 143.756455 48.448757 
L 143.984727 48.448757 
L 144.213 48.824977 
L 144.365182 48.824977 
L 144.517364 49.015676 
L 144.669545 49.015676 
L 144.973909 49.598127 
L 145.05 49.598127 
L 145.354364 50.19611 
L 145.506545 50.19611 
L 145.734818 50.603394 
L 145.887 50.603394 
L 146.039182 51.017582 
L 146.267455 51.438673 
L 146.343545 51.438673 
L 146.495727 51.651807 
L 146.952273 51.651807 
L 147.256636 52.301563 
L 147.332727 52.301563 
L 147.484909 52.5216 
L 147.865364 52.5216 
L 148.093636 52.966852 
L 148.398 52.966852 
L 148.550182 53.647673 
L 148.930636 53.647673 
L 149.158909 54.110182 
L 149.387182 54.110182 
L 149.539364 54.344025 
L 150.072 54.344025 
L 150.300273 54.81689 
L 150.528545 54.81689 
L 150.985091 56.029251 
L 151.061182 56.029251 
L 151.213364 56.276901 
L 151.289455 56.276901 
L 151.517727 56.777377 
L 152.202545 56.777377 
L 152.430818 57.284757 
L 152.506909 57.284757 
L 152.887364 58.320226 
L 153.115636 58.320226 
L 153.267818 58.583407 
L 153.496091 58.583407 
L 153.648273 58.848315 
L 153.724364 58.848315 
L 153.876545 59.383307 
L 154.333091 60.750989 
L 154.789636 60.750989 
L 154.941818 61.310142 
L 155.170091 61.876198 
L 155.246182 61.876198 
L 155.398364 62.161815 
L 155.702727 62.161815 
L 155.931 62.738226 
L 156.615818 62.738226 
L 156.844091 63.32154 
L 156.996273 63.32154 
L 157.148455 63.615785 
L 157.528909 63.615785 
L 157.757182 64.209454 
L 158.213727 64.209454 
L 158.365909 64.508877 
L 158.594182 64.508877 
L 158.746364 64.810026 
L 158.822455 64.810026 
L 159.050727 65.417501 
L 159.202909 65.417501 
L 159.431182 66.031879 
L 159.507273 66.031879 
L 159.659455 66.341657 
L 160.039909 66.341657 
L 160.648636 68.558423 
L 160.724727 68.558423 
L 161.029091 69.534352 
L 161.257364 69.534352 
L 161.485636 70.193601 
L 161.561727 70.193601 
L 161.713909 70.525814 
L 162.322636 70.525814 
L 162.703091 71.871923 
L 162.931364 71.871923 
L 163.159636 72.555333 
L 163.235727 72.555333 
L 163.387909 73.245645 
L 163.920545 73.245645 
L 164.072727 73.59339 
L 164.224909 73.59339 
L 164.529273 74.64698 
L 164.605364 74.64698 
L 164.757545 75.001628 
L 165.518455 75.001628 
L 165.670636 75.716101 
L 165.975 75.716101 
L 166.127182 76.075926 
L 166.279364 76.075926 
L 166.812 78.27112 
L 166.888091 78.27112 
L 167.040273 78.643026 
L 167.268545 78.643026 
L 167.496818 79.392015 
L 167.725091 79.392015 
L 167.877273 79.769098 
L 168.105545 79.769098 
L 168.333818 80.528442 
L 168.409909 80.528442 
L 168.638182 82.067839 
L 168.714273 82.067839 
L 168.866455 82.457003 
L 169.170818 82.457003 
L 169.323 82.847892 
L 169.399091 82.847892 
L 169.551273 83.240508 
L 169.627364 83.240508 
L 169.779545 83.634849 
L 169.855636 83.634849 
L 170.007818 84.428708 
L 170.16 84.428708 
L 170.312182 84.828226 
L 170.540455 84.828226 
L 170.768727 86.443558 
L 170.844818 86.443558 
L 170.997 86.851705 
L 171.681818 86.851705 
L 171.910091 87.673177 
L 172.975364 87.673177 
L 173.203636 88.501552 
L 173.508 88.501552 
L 173.660182 88.918328 
L 174.497182 88.918328 
L 174.649364 89.33683 
L 174.725455 89.33683 
L 174.953727 90.179011 
L 175.029818 90.179011 
L 175.182 90.602691 
L 175.334182 90.602691 
L 175.714636 92.314666 
L 176.171182 92.314666 
L 176.323364 92.746974 
L 176.932091 92.746974 
L 177.084273 93.616768 
L 178.682182 93.616768 
L 178.834364 94.493465 
L 179.214818 94.493465 
L 179.367 94.934402 
L 179.519182 94.934402 
L 179.747455 95.821453 
L 180.356182 95.821453 
L 180.584455 96.715408 
L 180.736636 96.715408 
L 180.888818 97.164974 
L 181.649727 97.164974 
L 181.878 98.069283 
L 182.334545 98.069283 
L 182.486727 98.524027 
L 182.562818 98.524027 
L 182.715 98.980496 
L 183.475909 98.980496 
L 183.628091 99.438691 
L 183.704182 99.438691 
L 183.856364 99.898612 
L 184.008545 99.898612 
L 184.160727 100.360258 
L 184.389 100.360258 
L 184.541182 100.82363 
L 184.769455 100.82363 
L 184.997727 101.755552 
L 185.226 101.755552 
L 185.454273 102.694377 
L 185.530364 102.694377 
L 185.910818 104.592737 
L 186.367364 104.592737 
L 186.595636 105.552271 
L 187.584818 105.552271 
L 187.737 106.034627 
L 187.965273 106.034627 
L 188.117455 106.518709 
L 188.269636 106.518709 
L 188.497909 107.492049 
L 188.726182 107.492049 
L 188.878364 107.981308 
L 189.334909 107.981308 
L 189.487091 108.472293 
L 190.248 108.472293 
L 190.400182 108.965004 
L 191.161091 108.965004 
L 191.541545 110.953104 
L 191.617636 110.953104 
L 191.845909 111.957508 
L 191.998091 111.957508 
L 192.150273 112.462299 
L 192.454636 112.462299 
L 192.606818 112.968816 
L 192.987273 112.968816 
L 193.139455 113.477059 
L 193.596 113.477059 
L 193.748182 113.987027 
L 193.824273 113.987027 
L 194.128636 115.527287 
L 194.889545 115.527287 
L 195.117818 116.562756 
L 195.498273 116.562756 
L 195.650455 117.083079 
L 196.107 117.083079 
L 196.259182 117.605128 
L 196.335273 117.605128 
L 196.487455 118.128902 
L 196.639636 118.128902 
L 196.791818 118.654403 
L 197.781 118.654403 
L 197.933182 119.181629 
L 198.009273 119.181629 
L 198.161455 119.710581 
L 198.389727 119.710581 
L 198.694091 121.307791 
L 198.922364 121.307791 
L 199.074545 121.843647 
L 199.455 121.843647 
L 199.607182 122.381227 
L 199.759364 122.381227 
L 199.911545 122.920534 
L 200.063727 122.920534 
L 200.292 124.004325 
L 201.281182 124.004325 
L 201.433364 124.548809 
L 201.509455 124.548809 
L 201.661636 125.095019 
L 202.346455 125.095019 
L 202.574727 126.192615 
L 203.868273 126.192615 
L 204.020455 127.297115 
L 204.324818 127.297115 
L 204.477 127.851954 
L 204.553091 127.851954 
L 204.705273 128.408519 
L 205.085727 128.408519 
L 205.237909 128.966809 
L 206.835818 128.966809 
L 206.988 129.526825 
L 207.216273 129.526825 
L 207.368455 130.088567 
L 207.977182 130.088567 
L 208.205455 131.217228 
L 208.357636 131.217228 
L 208.509818 131.784147 
L 208.966364 131.784147 
L 209.118545 132.352792 
L 209.194636 132.352792 
L 209.346818 132.923162 
L 209.422909 132.923162 
L 209.575091 133.495259 
L 210.031636 133.495259 
L 210.259909 134.644629 
L 210.564273 134.644629 
L 210.716455 135.221903 
L 210.868636 135.221903 
L 211.020818 135.800903 
L 211.173 135.800903 
L 211.325182 136.964079 
L 211.857818 136.964079 
L 212.01 137.548256 
L 212.542636 137.548256 
L 212.770909 138.721788 
L 212.847 138.721788 
L 213.151364 140.495028 
L 213.531818 140.495028 
L 213.684 141.08956 
L 216.423273 141.08956 
L 216.575455 142.883509 
L 216.651545 142.883509 
L 216.955909 144.692991 
L 217.184182 144.692991 
L 217.412455 145.907941 
L 217.945091 145.907941 
L 218.097273 146.518005 
L 219.314727 146.518005 
L 219.466909 147.129794 
L 220.912636 147.129794 
L 221.064818 147.743309 
L 221.140909 147.743309 
L 221.369182 148.975517 
L 221.445273 148.975517 
L 221.673545 150.214628 
L 221.901818 150.214628 
L 222.206182 152.086238 
L 222.434455 152.086238 
L 222.586636 152.71356 
L 222.738818 152.71356 
L 222.891 153.342607 
L 223.043182 153.342607 
L 223.195364 153.97338 
L 223.880182 153.97338 
L 224.032364 154.605879 
L 224.260636 154.605879 
L 224.412818 155.240103 
L 224.565 155.240103 
L 224.793273 156.51373 
L 226.086818 156.51373 
L 226.239 157.153132 
L 227.152091 157.153132 
L 227.304273 157.79426 
L 227.456455 157.79426 
L 227.608636 159.081693 
L 230.271818 159.081693 
L 230.424 159.727998 
L 231.184909 159.727998 
L 231.337091 160.376029 
L 232.782818 160.376029 
L 232.935 161.025785 
L 233.467636 161.025785 
L 233.695909 162.330476 
L 233.924182 162.330476 
L 234.076364 162.98541 
L 234.989455 162.98541 
L 235.141636 163.64207 
L 236.130818 163.64207 
L 236.283 164.300455 
L 236.739545 164.300455 
L 236.891727 164.960567 
L 237.880909 164.960567 
L 238.033091 165.622404 
L 242.674636 165.622404 
L 242.826818 166.285967 
L 243.359455 166.285967 
L 243.587727 167.61827 
L 245.413909 167.61827 
L 245.642182 168.957476 
L 245.870455 168.957476 
L 246.022636 169.629668 
L 246.327 169.629668 
L 246.479182 170.303585 
L 247.468364 170.303585 
L 247.696636 171.656598 
L 248.077091 171.656598 
L 248.229273 172.335693 
L 248.305364 172.335693 
L 248.457545 173.016514 
L 249.066273 173.016514 
L 249.218455 173.69906 
L 249.598909 173.69906 
L 249.751091 174.383332 
L 249.979364 174.383332 
L 250.131545 175.069331 
L 252.109909 175.069331 
L 252.262091 175.757054 
L 252.718636 175.757054 
L 252.946909 177.137679 
L 253.555636 177.137679 
L 253.707818 177.830581 
L 254.164364 177.830581 
L 254.316545 178.525208 
L 254.773091 178.525208 
L 254.925273 179.22156 
L 256.142727 179.22156 
L 256.371 180.619443 
L 257.131909 180.619443 
L 257.284091 181.320973 
L 257.436273 181.320973 
L 257.588455 182.024229 
L 258.045 182.024229 
L 258.197182 184.144351 
L 259.871182 184.144351 
L 260.023364 184.85451 
L 260.251636 184.85451 
L 260.403818 185.566395 
L 260.556 185.566395 
L 260.708182 186.280006 
L 261.621273 186.280006 
L 261.773455 186.995342 
L 262.838727 186.995342 
L 262.990909 187.712404 
L 264.512727 187.712404 
L 264.741 189.151706 
L 265.273636 189.151706 
L 265.425818 189.873945 
L 267.175909 189.873945 
L 267.328091 190.597911 
L 268.089 190.597911 
L 268.241182 191.323602 
L 268.545545 191.323602 
L 268.697727 192.051018 
L 271.360909 192.051018 
L 271.513091 192.780161 
L 272.121818 192.780161 
L 272.350091 194.243624 
L 272.426182 194.243624 
L 272.730545 196.451761 
L 273.415364 196.451761 
L 273.567545 197.191258 
L 273.719727 197.191258 
L 273.871909 197.932481 
L 274.632818 197.932481 
L 275.089364 201.664483 
L 278.97 201.664483 
L 279.122182 202.416061 
L 281.481 202.416061 
L 281.633182 203.169365 
L 283.611545 203.169365 
L 283.763727 203.924394 
L 284.372455 203.924394 
L 284.524636 204.681149 
L 285.057273 204.681149 
L 285.209455 205.43963 
L 285.970364 205.43963 
L 286.122545 206.199836 
L 286.350818 206.199836 
L 286.579091 207.725427 
L 286.807364 207.725427 
L 286.959545 208.490811 
L 288.861818 208.490811 
L 289.014 209.257921 
L 289.927091 209.257921 
L 290.079273 210.026757 
L 292.057636 210.026757 
L 292.209818 210.797318 
L 294.340364 210.797318 
L 294.492545 211.569605 
L 295.253455 211.569605 
L 295.405636 212.343618 
L 297.155727 212.343618 
L 297.307909 213.119357 
L 297.764455 213.119357 
L 297.916636 213.896821 
L 300.275455 213.896821 
L 300.427636 214.676011 
L 301.188545 214.676011 
L 301.340727 215.456927 
L 304.764818 215.456927 
L 304.917 216.239569 
L 305.297455 216.239569 
L 305.449636 217.023937 
L 308.265 217.023937 
L 308.493273 218.597849 
L 310.319455 218.597849 
L 310.471636 219.387394 
L 319.450364 219.387394 
L 319.602545 220.178665 
L 320.211273 220.178665 
L 320.439545 221.766384 
L 322.874455 221.766384 
L 323.026636 222.562832 
L 323.407091 222.562832 
L 323.635364 224.160905 
L 325.918091 224.160905 
L 326.070273 224.962531 
L 326.298545 224.962531 
L 326.450727 225.765882 
L 326.983364 225.765882 
L 327.135545 226.570959 
L 329.570455 226.570959 
L 329.722636 227.377762 
L 332.157545 227.377762 
L 332.309727 228.18629 
L 332.461909 228.18629 
L 332.614091 228.996545 
L 332.918455 228.996545 
L 333.070636 229.808525 
L 333.755455 229.808525 
L 333.907636 230.622231 
L 336.799091 230.622231 
L 336.951273 231.437662 
L 338.701364 231.437662 
L 338.929636 233.073703 
L 347.680091 233.073703 
L 347.832273 233.894312 
L 348.136636 233.894312 
L 348.288818 234.716647 
L 348.517091 234.716647 
L 348.669273 235.540707 
L 355.974 235.540707 
L 356.126182 236.366494 
L 357.571909 236.366494 
L 357.724091 237.194006 
L 361.452545 237.194006 
L 361.604727 238.023244 
L 368.529 238.023244 
L 368.681182 238.854207 
L 370.583455 238.854207 
L 370.735636 239.686897 
L 378.725182 239.686897 
L 378.877364 240.521312 
L 382.986273 240.521312 
L 383.138455 241.357453 
L 385.040727 241.357453 
L 385.192909 242.19532 
L 385.345091 242.19532 
L 385.497273 243.034913 
L 386.943 243.034913 
L 387.095182 243.876231 
L 396.682636 243.876231 
L 396.834818 244.719275 
L 397.976182 244.719275 
L 398.128364 245.564045 
L 398.965364 245.564045 
L 399.117545 246.410541 
L 402.922091 246.410541 
L 403.074273 247.258762 
L 403.150364 247.258762 
L 403.302545 248.10871 
L 403.606909 248.10871 
L 403.759091 248.960383 
L 411.976909 248.960383 
L 412.129091 249.813781 
L 415.477091 249.813781 
L 415.629273 250.668906 
L 452.457273 250.668906 
L 452.457273 250.668906 
" clip-path="url(#pa694a4fa53)" style="fill: none; stroke-dasharray: 12.16,3.04,1.9,3.04; stroke-dashoffset: 0; stroke: #ff7f0e; stroke-width: 1.9"/>
    <defs>
     <path id="m081031820b" d="M 0 1.75 
C 0.464105 1.75 0.909265 1.565609 1.237437 1.237437 
C 1.565609 0.909265 1.75 0.464105 1.75 0 
C 1.75 -0.464105 1.565609 -0.909265 1.237437 -1.237437 
C 0.909265 -1.565609 0.464105 -1.75 0 -1.75 
C -0.464105 -1.75 -0.909265 -1.565609 -1.237437 -1.237437 
C -1.565609 -0.909265 -1.75 -0.464105 -1.75 0 
C -1.75 0.464105 -1.565609 0.909265 -1.237437 1.237437 
C -0.909265 1.565609 -0.464105 1.75 0 1.75 
z
" style="stroke: #ff7f0e"/>
    </defs>
    <g clip-path="url(#pa694a4fa53)">
     <use xlink:href="#m081031820b" x="72.002727" y="254.106662" style="fill: #ff7f0e; stroke: #ff7f0e"/>
     <use xlink:href="#m081031820b" x="98.634545" y="76.437478" style="fill: #ff7f0e; stroke: #ff7f0e"/>
     <use xlink:href="#m081031820b" x="125.266364" y="38.415064" style="fill: #ff7f0e; stroke: #ff7f0e"/>
     <use xlink:href="#m081031820b" x="151.898182" y="56.777377" style="fill: #ff7f0e; stroke: #ff7f0e"/>
     <use xlink:href="#m081031820b" x="178.53" y="93.616768" style="fill: #ff7f0e; stroke: #ff7f0e"/>
     <use xlink:href="#m081031820b" x="205.161818" y="128.966809" style="fill: #ff7f0e; stroke: #ff7f0e"/>
     <use xlink:href="#m081031820b" x="231.793636" y="160.376029" style="fill: #ff7f0e; stroke: #ff7f0e"/>
     <use xlink:href="#m081031820b" x="258.425455" y="184.144351" style="fill: #ff7f0e; stroke: #ff7f0e"/>
     <use xlink:href="#m081031820b" x="285.057273" y="204.681149" style="fill: #ff7f0e; stroke: #ff7f0e"/>
     <use xlink:href="#m081031820b" x="311.689091" y="219.387394" style="fill: #ff7f0e; stroke: #ff7f0e"/>
     <use xlink:href="#m081031820b" x="338.320909" y="231.437662" style="fill: #ff7f0e; stroke: #ff7f0e"/>
     <use xlink:href="#m081031820b" x="364.952727" y="238.023244" style="fill: #ff7f0e; stroke: #ff7f0e"/>
     <use xlink:href="#m081031820b" x="391.584545" y="243.876231" style="fill: #ff7f0e; stroke: #ff7f0e"/>
     <use xlink:href="#m081031820b" x="418.216364" y="250.668906" style="fill: #ff7f0e; stroke: #ff7f0e"/>
     <use xlink:href="#m081031820b" x="444.848182" y="250.668906" style="fill: #ff7f0e; stroke: #ff7f0e"/>
    </g>
   </g>
   <g id="text_16">
    <!-- Variance vs Time (Fock state $|1\rangle$, $\gamma=1$) -->
    <g transform="translate(132.15 19.28) scale(0.16 -0.16)">
     <defs>
      <path id="STIXGeneral-Regular-20" transform="scale(0.015625)"/>
      <path id="STIXGeneral-Regular-76" d="M 3053 2880 
L 3053 2784 
Q 2906 2771 2835 2688 
Q 2765 2605 2637 2285 
L 1818 230 
Q 1690 -90 1638 -90 
Q 1587 -90 1523 77 
Q 1510 96 1497 141 
Q 1485 186 1472 211 
L 704 2048 
Q 499 2534 403 2652 
Q 307 2771 122 2784 
L 122 2880 
L 1376 2880 
L 1376 2784 
Q 1210 2771 1146 2732 
Q 1082 2694 1082 2611 
Q 1082 2509 1139 2368 
L 1792 730 
L 2426 2387 
Q 2464 2483 2464 2579 
Q 2464 2758 2163 2784 
L 2163 2880 
L 3053 2880 
z
" transform="scale(0.015625)"/>
      <path id="STIXGeneral-Regular-73" d="M 998 1926 
L 1664 1523 
Q 1984 1331 2105 1164 
Q 2227 998 2227 736 
Q 2227 416 1961 176 
Q 1696 -64 1331 -64 
Q 1030 -64 864 -6 
Q 691 51 570 51 
Q 461 51 416 -26 
L 333 -26 
L 333 979 
L 435 979 
Q 538 512 730 294 
Q 922 77 1248 77 
Q 1485 77 1632 211 
Q 1779 346 1779 550 
Q 1779 845 1440 1030 
L 1094 1222 
Q 326 1651 326 2150 
Q 326 2522 566 2730 
Q 806 2938 1210 2938 
Q 1491 2938 1638 2867 
Q 1754 2816 1818 2816 
Q 1862 2816 1920 2880 
L 1990 2880 
L 2022 2010 
L 1926 2010 
Q 1818 2445 1654 2621 
Q 1491 2797 1203 2797 
Q 986 2797 854 2688 
Q 723 2579 723 2362 
Q 723 2253 796 2128 
Q 870 2003 998 1926 
z
" transform="scale(0.015625)"/>
      <path id="STIXGeneral-Regular-28" d="M 1946 -1030 
L 1869 -1133 
Q 1126 -710 716 32 
Q 307 774 307 1613 
Q 307 3386 1888 4326 
L 1946 4224 
Q 1293 3667 1075 3126 
Q 858 2586 858 1632 
Q 858 685 1082 96 
Q 1306 -493 1946 -1030 
z
" transform="scale(0.015625)"/>
      <path id="STIXGeneral-Regular-46" d="M 3494 3322 
L 3334 3322 
Q 3264 3757 3094 3875 
Q 2925 3994 2349 3994 
L 1504 3994 
Q 1370 3994 1328 3946 
Q 1286 3898 1286 3744 
L 1286 2355 
L 2195 2355 
Q 2598 2355 2736 2470 
Q 2874 2586 2918 2963 
L 3066 2963 
L 3066 1472 
L 2918 1472 
Q 2880 1862 2745 1977 
Q 2611 2093 2195 2093 
L 1286 2093 
L 1286 717 
Q 1286 352 1392 246 
Q 1498 141 1869 122 
L 1869 0 
L 70 0 
L 70 122 
Q 435 147 534 259 
Q 634 371 634 787 
L 634 3526 
Q 634 3878 538 3984 
Q 442 4090 77 4115 
L 77 4237 
L 3462 4237 
L 3494 3322 
z
" transform="scale(0.015625)"/>
      <path id="STIXGeneral-Regular-6f" d="M 3008 1478 
Q 3008 806 2608 371 
Q 2208 -64 1568 -64 
Q 979 -64 582 368 
Q 186 800 186 1459 
Q 186 2125 582 2534 
Q 979 2944 1626 2944 
Q 2221 2944 2614 2537 
Q 3008 2131 3008 1478 
z
M 2432 1306 
Q 2432 2035 2112 2445 
Q 1856 2765 1504 2765 
Q 1171 2765 966 2493 
Q 762 2221 762 1747 
Q 762 928 1101 435 
Q 1318 115 1677 115 
Q 2029 115 2230 432 
Q 2432 749 2432 1306 
z
" transform="scale(0.015625)"/>
      <path id="STIXGeneral-Regular-6b" d="M 3232 0 
L 1837 0 
L 1837 96 
L 1958 96 
Q 2093 96 2093 192 
Q 2093 250 2022 339 
L 1062 1606 
L 1062 429 
Q 1062 262 1142 185 
Q 1222 109 1414 102 
L 1542 96 
L 1542 0 
L 45 0 
L 45 96 
Q 390 154 457 214 
Q 525 275 525 525 
L 525 3610 
Q 525 3840 467 3920 
Q 410 4000 250 4000 
Q 211 4000 45 3987 
L 45 4090 
L 237 4141 
Q 621 4243 1037 4371 
L 1062 4358 
L 1062 1670 
L 1939 2451 
Q 2086 2586 2086 2675 
Q 2086 2739 2019 2761 
Q 1952 2784 1766 2790 
L 1766 2880 
L 3072 2880 
L 3072 2784 
Q 2752 2784 2505 2646 
Q 2259 2509 1690 1978 
L 1504 1805 
L 2483 563 
Q 2829 122 3232 96 
L 3232 0 
z
" transform="scale(0.015625)"/>
      <path id="STIXGeneral-Regular-74" d="M 1702 493 
L 1786 422 
Q 1478 -64 1011 -64 
Q 448 -64 448 749 
L 448 2675 
L 109 2675 
Q 83 2694 83 2720 
Q 83 2771 192 2842 
Q 435 2982 813 3526 
Q 826 3546 874 3606 
Q 922 3667 941 3706 
Q 986 3706 986 3622 
L 986 2880 
L 1632 2880 
L 1632 2675 
L 986 2675 
L 986 845 
Q 986 538 1062 403 
Q 1139 269 1318 269 
Q 1510 269 1702 493 
z
" transform="scale(0.015625)"/>
      <path id="Cmsy10-6a" d="M 763 -1484 
L 763 4684 
Q 763 4734 800 4767 
Q 838 4800 891 4800 
Q 938 4800 978 4767 
Q 1019 4734 1019 4684 
L 1019 -1484 
Q 1019 -1534 978 -1567 
Q 938 -1600 891 -1600 
Q 838 -1600 800 -1567 
Q 763 -1534 763 -1484 
z
" transform="scale(0.015625)"/>
      <path id="Cmr10-31" d="M 594 0 
L 594 225 
Q 1394 225 1394 428 
L 1394 3788 
Q 1063 3628 556 3628 
L 556 3853 
Q 1341 3853 1741 4263 
L 1831 4263 
Q 1853 4263 1873 4245 
Q 1894 4228 1894 4206 
L 1894 428 
Q 1894 225 2694 225 
L 2694 0 
L 594 0 
z
" transform="scale(0.015625)"/>
      <path id="Cmex10-ae" d="M 500 -7297 
Q 500 -7263 513 -7250 
L 2119 -3584 
L 513 84 
Q 500 97 500 128 
Q 500 175 537 215 
Q 575 256 628 256 
Q 703 256 750 178 
L 2381 -3541 
Q 2388 -3553 2388 -3584 
Q 2388 -3616 2381 -3634 
L 750 -7347 
Q 700 -7425 628 -7425 
Q 575 -7425 537 -7384 
Q 500 -7344 500 -7297 
z
" transform="scale(0.015625)"/>
      <path id="STIXGeneral-Regular-2c" d="M 531 -902 
L 467 -781 
Q 998 -422 998 -96 
Q 998 -13 909 -13 
Q 883 -13 822 -25 
Q 762 -38 723 -38 
Q 352 -38 352 288 
Q 352 454 457 553 
Q 563 653 736 653 
Q 954 653 1101 496 
Q 1248 339 1248 96 
Q 1248 -198 1053 -473 
Q 858 -749 531 -902 
z
" transform="scale(0.015625)"/>
      <path id="Cmmi10-b0" d="M 1888 -1253 
Q 1888 -1109 1952 -834 
Q 2016 -559 2108 -248 
Q 2200 63 2266 263 
Q 2291 581 2291 744 
Q 2291 1156 2209 1511 
Q 2128 1866 1903 2105 
Q 1678 2344 1275 2344 
Q 1063 2344 852 2253 
Q 641 2163 489 2000 
Q 338 1838 281 1631 
Q 269 1594 231 1594 
L 153 1594 
Q 103 1594 103 1650 
L 103 1672 
Q 175 1959 358 2226 
Q 541 2494 805 2661 
Q 1069 2828 1363 2828 
Q 1663 2828 1881 2625 
Q 2100 2422 2231 2109 
Q 2363 1797 2420 1478 
Q 2478 1159 2478 878 
Q 2800 1753 3200 2534 
L 3297 2741 
Q 3316 2759 3341 2759 
L 3419 2759 
Q 3469 2759 3469 2700 
Q 3469 2688 3456 2663 
L 3359 2463 
Q 3081 1909 2848 1340 
Q 2616 772 2450 244 
Q 2425 28 2354 -347 
Q 2284 -722 2184 -1045 
Q 2084 -1369 1984 -1381 
Q 1888 -1381 1888 -1253 
z
" transform="scale(0.015625)"/>
      <path id="Cmr10-3d" d="M 481 850 
Q 428 850 393 890 
Q 359 931 359 978 
Q 359 1031 393 1068 
Q 428 1106 481 1106 
L 4500 1106 
Q 4547 1106 4581 1068 
Q 4616 1031 4616 978 
Q 4616 931 4581 890 
Q 4547 850 4500 850 
L 481 850 
z
M 481 2094 
Q 428 2094 393 2131 
Q 359 2169 359 2222 
Q 359 2269 393 2309 
Q 428 2350 481 2350 
L 4500 2350 
Q 4547 2350 4581 2309 
Q 4616 2269 4616 2222 
Q 4616 2169 4581 2131 
Q 4547 2094 4500 2094 
L 481 2094 
z
" transform="scale(0.015625)"/>
      <path id="STIXGeneral-Regular-29" d="M 186 4224 
L 262 4326 
Q 992 3891 1408 3148 
Q 1824 2406 1824 1581 
Q 1824 -166 243 -1133 
L 186 -1030 
Q 845 -486 1059 54 
Q 1274 595 1274 1562 
Q 1274 2534 1059 3120 
Q 845 3706 186 4224 
z
" transform="scale(0.015625)"/>
     </defs>
     <use xlink:href="#STIXGeneral-Regular-56" transform="translate(0 0.658854)"/>
     <use xlink:href="#STIXGeneral-Regular-61" transform="translate(72.199982 0.658854)"/>
     <use xlink:href="#STIXGeneral-Regular-72" transform="translate(116.599976 0.658854)"/>
     <use xlink:href="#STIXGeneral-Regular-69" transform="translate(149.899963 0.658854)"/>
     <use xlink:href="#STIXGeneral-Regular-61" transform="translate(177.699951 0.658854)"/>
     <use xlink:href="#STIXGeneral-Regular-6e" transform="translate(222.099945 0.658854)"/>
     <use xlink:href="#STIXGeneral-Regular-63" transform="translate(272.09993 0.658854)"/>
     <use xlink:href="#STIXGeneral-Regular-65" transform="translate(316.499924 0.658854)"/>
     <use xlink:href="#STIXGeneral-Regular-20" transform="translate(360.899918 0.658854)"/>
     <use xlink:href="#STIXGeneral-Regular-76" transform="translate(385.899902 0.658854)"/>
     <use xlink:href="#STIXGeneral-Regular-73" transform="translate(435.899887 0.658854)"/>
     <use xlink:href="#STIXGeneral-Regular-20" transform="translate(474.799881 0.658854)"/>
     <use xlink:href="#STIXGeneral-Regular-54" transform="translate(499.799866 0.658854)"/>
     <use xlink:href="#STIXGeneral-Regular-69" transform="translate(560.899857 0.658854)"/>
     <use xlink:href="#STIXGeneral-Regular-6d" transform="translate(588.699844 0.658854)"/>
     <use xlink:href="#STIXGeneral-Regular-65" transform="translate(666.499832 0.658854)"/>
     <use xlink:href="#STIXGeneral-Regular-20" transform="translate(710.899826 0.658854)"/>
     <use xlink:href="#STIXGeneral-Regular-28" transform="translate(735.899811 0.658854)"/>
     <use xlink:href="#STIXGeneral-Regular-46" transform="translate(769.199799 0.658854)"/>
     <use xlink:href="#STIXGeneral-Regular-6f" transform="translate(824.799789 0.658854)"/>
     <use xlink:href="#STIXGeneral-Regular-63" transform="translate(874.799774 0.658854)"/>
     <use xlink:href="#STIXGeneral-Regular-6b" transform="translate(919.199768 0.658854)"/>
     <use xlink:href="#STIXGeneral-Regular-20" transform="translate(969.199753 0.658854)"/>
     <use xlink:href="#STIXGeneral-Regular-73" transform="translate(994.199738 0.658854)"/>
     <use xlink:href="#STIXGeneral-Regular-74" transform="translate(1033.099731 0.658854)"/>
     <use xlink:href="#STIXGeneral-Regular-61" transform="translate(1060.899719 0.658854)"/>
     <use xlink:href="#STIXGeneral-Regular-74" transform="translate(1105.299713 0.658854)"/>
     <use xlink:href="#STIXGeneral-Regular-65" transform="translate(1133.099701 0.658854)"/>
     <use xlink:href="#STIXGeneral-Regular-20" transform="translate(1177.499695 0.658854)"/>
     <use xlink:href="#Cmsy10-6a" transform="translate(1202.49968 0.658854)"/>
     <use xlink:href="#Cmr10-31" transform="translate(1230.185226 0.658854)"/>
     <use xlink:href="#Cmex10-ae" transform="translate(1280.185226 94)"/>
     <use xlink:href="#STIXGeneral-Regular-2c" transform="translate(1327.402023 0.658854)"/>
     <use xlink:href="#STIXGeneral-Regular-20" transform="translate(1352.402008 0.658854)"/>
     <use xlink:href="#Cmmi10-b0" transform="translate(1377.401993 0.658854)"/>
     <use xlink:href="#Cmr10-3d" transform="translate(1446.669571 0.658854)"/>
     <use xlink:href="#Cmr10-31" transform="translate(1541.913712 0.658854)"/>
     <use xlink:href="#STIXGeneral-Regular-29" transform="translate(1591.913712 0.658854)"/>
    </g>
   </g>
   <g id="line2d_138">
    <path d="M 72.002727 254.106662 
L 74.437636 227.787135 
L 76.796455 204.638335 
L 79.155273 183.636069 
L 81.514091 164.628256 
L 83.796818 147.998535 
L 86.079545 132.982737 
L 88.286182 119.895255 
L 90.492818 108.114427 
L 92.623364 97.895322 
L 94.753909 88.734457 
L 96.808364 80.836064 
L 98.862818 73.794859 
L 100.841182 67.771508 
L 102.819545 62.442447 
L 104.721818 57.931028 
L 106.624091 53.981813 
L 108.450273 50.686176 
L 110.276455 47.845567 
L 112.026545 45.523955 
L 113.776636 43.570354 
L 115.450636 42.025251 
L 117.124636 40.777481 
L 118.798636 39.809224 
L 120.472636 39.103535 
L 122.146636 38.644304 
L 123.820636 38.416221 
L 125.570727 38.409133 
L 127.320818 38.623011 
L 129.147 39.065612 
L 131.125364 39.779617 
L 133.179818 40.759139 
L 135.386455 42.058573 
L 137.745273 43.705013 
L 140.332364 45.785677 
L 143.147727 48.339827 
L 146.267455 51.477856 
L 149.767636 55.326941 
L 153.724364 60.023604 
L 158.289818 65.802498 
L 163.768364 73.109508 
L 171.149182 83.352455 
L 195.954818 118.063056 
L 203.335636 127.854756 
L 210.107727 136.475908 
L 216.499364 144.258355 
L 222.662727 151.417444 
L 228.673909 158.063152 
L 234.609 164.295013 
L 240.468 170.126414 
L 246.327 175.643325 
L 252.109909 180.786562 
L 257.968909 185.699811 
L 263.827909 190.323234 
L 269.763 194.722334 
L 275.774182 198.898417 
L 281.861455 202.854017 
L 288.024818 206.592774 
L 294.264273 210.11938 
L 300.655909 213.477817 
L 307.199727 216.665737 
L 313.895727 219.682195 
L 320.82 222.557788 
L 327.972545 225.28647 
L 335.353364 227.864085 
L 343.038545 230.31126 
L 351.028091 232.620697 
L 359.398091 234.806228 
L 368.148545 236.859123 
L 377.355545 238.788494 
L 387.095182 240.599104 
L 397.367455 242.280808 
L 408.324545 243.847442 
L 420.042545 245.296432 
L 432.673636 246.632096 
L 446.37 247.854314 
L 452.457273 248.331755 
L 452.457273 248.331755 
" clip-path="url(#pa694a4fa53)" style="fill: none; stroke-dasharray: 7.4,3.2; stroke-dashoffset: 0; stroke: #1f77b4; stroke-width: 2"/>
    <defs>
     <path id="m62f8c81e89" d="M 0 -1.8 
L -1.8 1.8 
L 1.8 1.8 
z
" style="stroke: #1f77b4; stroke-linejoin: miter"/>
    </defs>
    <g clip-path="url(#pa694a4fa53)">
     <use xlink:href="#m62f8c81e89" x="72.002727" y="254.106662" style="fill: #1f77b4; stroke: #1f77b4; stroke-linejoin: miter"/>
     <use xlink:href="#m62f8c81e89" x="102.439091" y="63.415496" style="fill: #1f77b4; stroke: #1f77b4; stroke-linejoin: miter"/>
     <use xlink:href="#m62f8c81e89" x="132.875455" y="40.599507" style="fill: #1f77b4; stroke: #1f77b4; stroke-linejoin: miter"/>
     <use xlink:href="#m62f8c81e89" x="163.311818" y="72.488533" style="fill: #1f77b4; stroke: #1f77b4; stroke-linejoin: miter"/>
     <use xlink:href="#m62f8c81e89" x="193.748182" y="115.06541" style="fill: #1f77b4; stroke: #1f77b4; stroke-linejoin: miter"/>
     <use xlink:href="#m62f8c81e89" x="224.184545" y="153.131566" style="fill: #1f77b4; stroke: #1f77b4; stroke-linejoin: miter"/>
     <use xlink:href="#m62f8c81e89" x="254.620909" y="182.928386" style="fill: #1f77b4; stroke: #1f77b4; stroke-linejoin: miter"/>
     <use xlink:href="#m62f8c81e89" x="285.057273" y="204.825176" style="fill: #1f77b4; stroke: #1f77b4; stroke-linejoin: miter"/>
     <use xlink:href="#m62f8c81e89" x="315.493636" y="220.36715" style="fill: #1f77b4; stroke: #1f77b4; stroke-linejoin: miter"/>
     <use xlink:href="#m62f8c81e89" x="345.93" y="231.173566" style="fill: #1f77b4; stroke: #1f77b4; stroke-linejoin: miter"/>
     <use xlink:href="#m62f8c81e89" x="376.366364" y="238.591795" style="fill: #1f77b4; stroke: #1f77b4; stroke-linejoin: miter"/>
     <use xlink:href="#m62f8c81e89" x="406.802727" y="243.642767" style="fill: #1f77b4; stroke: #1f77b4; stroke-linejoin: miter"/>
     <use xlink:href="#m62f8c81e89" x="437.239091" y="247.063769" style="fill: #1f77b4; stroke: #1f77b4; stroke-linejoin: miter"/>
    </g>
   </g>
   <g id="line2d_139">
    <path d="M 72.002727 254.106662 
L 74.437636 227.787132 
L 76.796455 204.638326 
L 79.155273 183.636061 
L 81.514091 164.628251 
L 83.796818 147.998534 
L 86.079545 132.982742 
L 88.286182 119.895265 
L 90.492818 108.114447 
L 92.623364 97.895345 
L 94.753909 88.734488 
L 96.808364 80.836098 
L 98.862818 73.794892 
L 100.841182 67.771539 
L 102.819545 62.442475 
L 104.721818 57.931051 
L 106.624091 53.981832 
L 108.450273 50.686192 
L 110.276455 47.845578 
L 112.026545 45.523961 
L 113.776636 43.570355 
L 115.450636 42.025249 
L 117.124636 40.777479 
L 118.798636 39.809221 
L 120.472636 39.103532 
L 122.146636 38.644302 
L 123.820636 38.41622 
L 125.570727 38.409135 
L 127.320818 38.623015 
L 129.147 39.065618 
L 131.125364 39.779625 
L 133.179818 40.759151 
L 135.386455 42.058588 
L 137.745273 43.705031 
L 140.332364 45.785699 
L 143.147727 48.339857 
L 146.267455 51.477898 
L 149.767636 55.326999 
L 153.724364 60.023689 
L 158.289818 65.802615 
L 163.768364 73.109642 
L 171.149182 83.352552 
L 195.954818 118.063021 
L 203.335636 127.854751 
L 210.107727 136.475921 
L 216.499364 144.258349 
L 222.662727 151.417392 
L 228.673909 158.063092 
L 234.609 164.294959 
L 240.468 170.126365 
L 246.327 175.643292 
L 252.109909 180.786539 
L 257.968909 185.699777 
L 263.827909 190.323189 
L 269.763 194.722286 
L 275.774182 198.89834 
L 281.861455 202.853913 
L 288.024818 206.592686 
L 294.264273 210.119302 
L 300.655909 213.477744 
L 307.199727 216.665678 
L 313.895727 219.68213 
L 320.82 222.557708 
L 327.972545 225.286399 
L 335.353364 227.864008 
L 343.038545 230.311188 
L 351.028091 232.620636 
L 359.398091 234.80617 
L 368.148545 236.859072 
L 377.355545 238.788435 
L 387.095182 240.599053 
L 397.367455 242.280759 
L 408.324545 243.847402 
L 420.042545 245.296395 
L 432.673636 246.63206 
L 446.37 247.854283 
L 452.457273 248.331726 
L 452.457273 248.331726 
" clip-path="url(#pa694a4fa53)" style="fill: none; stroke: #000000; stroke-width: 2.3; stroke-linecap: square"/>
   </g>
   <g id="legend_1">
    <g id="line2d_140">
     <path d="M 363.865625 39.03 
L 374.865625 39.03 
L 385.865625 39.03 
" style="fill: none; stroke: #000000; stroke-width: 2.3; stroke-linecap: square"/>
    </g>
    <g id="text_17">
     <!-- Exact -->
     <g transform="translate(394.665625 42.88) scale(0.11 -0.11)">
      <defs>
       <path id="STIXGeneral-Regular-45" d="M 3821 1082 
L 3526 0 
L 77 0 
L 77 122 
Q 442 147 538 252 
Q 634 358 634 730 
L 634 3520 
Q 634 3878 534 3987 
Q 435 4096 77 4115 
L 77 4237 
L 3469 4237 
L 3494 3322 
L 3334 3322 
Q 3264 3750 3085 3872 
Q 2906 3994 2349 3994 
L 1510 3994 
Q 1370 3994 1328 3952 
Q 1286 3910 1286 3763 
L 1286 2355 
L 2253 2355 
Q 2656 2355 2787 2470 
Q 2918 2586 2976 2970 
L 3123 2970 
L 3123 1472 
L 2976 1472 
Q 2918 1875 2790 1984 
Q 2662 2093 2253 2093 
L 1286 2093 
L 1286 538 
Q 1286 346 1420 291 
Q 1555 237 1933 237 
L 2163 237 
Q 2848 237 3136 403 
Q 3424 570 3642 1082 
L 3821 1082 
z
" transform="scale(0.015625)"/>
       <path id="STIXGeneral-Regular-78" d="M 3066 0 
L 1779 0 
L 1779 96 
Q 1939 109 1987 137 
Q 2035 166 2035 250 
Q 2035 307 1997 365 
L 1414 1261 
L 909 474 
Q 781 275 781 211 
Q 781 96 1037 96 
L 1037 0 
L 109 0 
L 109 96 
Q 269 109 355 169 
Q 442 230 576 422 
L 1306 1478 
L 704 2400 
Q 557 2624 454 2704 
Q 352 2784 211 2784 
L 154 2784 
L 154 2880 
L 1478 2880 
L 1478 2784 
Q 1203 2778 1203 2643 
Q 1203 2509 1498 2074 
Q 1581 1958 1587 1946 
Q 1619 1990 1779 2227 
Q 1811 2285 1856 2349 
Q 1901 2413 1923 2451 
Q 1946 2490 1971 2528 
Q 1997 2566 2006 2595 
Q 2016 2624 2016 2643 
Q 2016 2765 1760 2784 
L 1760 2880 
L 2771 2880 
L 2771 2784 
Q 2445 2771 2253 2502 
L 1722 1734 
L 2541 480 
Q 2790 96 3066 96 
L 3066 0 
z
" transform="scale(0.015625)"/>
      </defs>
      <use xlink:href="#STIXGeneral-Regular-45"/>
      <use xlink:href="#STIXGeneral-Regular-78" transform="translate(61.099991 0)"/>
      <use xlink:href="#STIXGeneral-Regular-61" transform="translate(111.099976 0)"/>
      <use xlink:href="#STIXGeneral-Regular-63" transform="translate(155.499969 0)"/>
      <use xlink:href="#STIXGeneral-Regular-74" transform="translate(199.899963 0)"/>
     </g>
    </g>
    <g id="line2d_141">
     <path d="M 363.865625 54.617344 
L 374.865625 54.617344 
L 385.865625 54.617344 
" style="fill: none; stroke-dasharray: 7.4,3.2; stroke-dashoffset: 0; stroke: #1f77b4; stroke-width: 2"/>
     <g>
      <use xlink:href="#m62f8c81e89" x="374.865625" y="54.617344" style="fill: #1f77b4; stroke: #1f77b4; stroke-linejoin: miter"/>
     </g>
    </g>
    <g id="text_18">
     <!-- Density Matrix -->
     <g transform="translate(394.665625 58.467344) scale(0.11 -0.11)">
      <defs>
       <path id="STIXGeneral-Regular-44" d="M 102 4237 
L 1830 4237 
Q 3078 4237 3750 3654 
Q 4384 3110 4384 2138 
Q 4384 966 3514 410 
Q 2880 0 1901 0 
L 102 0 
L 102 122 
Q 474 147 570 252 
Q 666 358 666 736 
L 666 3520 
Q 666 3891 570 3990 
Q 474 4090 102 4115 
L 102 4237 
z
M 1318 3731 
L 1318 538 
Q 1318 365 1379 301 
Q 1440 237 1626 237 
Q 2125 237 2432 307 
Q 2739 378 3021 570 
Q 3686 1018 3686 2099 
Q 3686 3027 3078 3558 
Q 2803 3802 2476 3901 
Q 2150 4000 1658 4000 
Q 1472 4000 1395 3942 
Q 1318 3885 1318 3731 
z
" transform="scale(0.015625)"/>
       <path id="STIXGeneral-Regular-79" d="M 3040 2880 
L 3040 2784 
Q 2925 2771 2854 2700 
Q 2784 2630 2720 2458 
L 1760 -160 
Q 1510 -838 1257 -1116 
Q 1005 -1395 640 -1395 
Q 435 -1395 313 -1289 
Q 192 -1184 192 -1024 
Q 192 -902 272 -816 
Q 352 -730 467 -730 
Q 653 -730 800 -813 
Q 883 -858 966 -858 
Q 1101 -858 1286 -576 
Q 1376 -448 1459 -211 
Q 1542 26 1542 115 
Q 1542 198 1274 762 
L 429 2566 
Q 346 2752 90 2790 
L 90 2880 
L 1402 2880 
L 1402 2784 
Q 1197 2778 1117 2739 
Q 1037 2701 1037 2611 
Q 1037 2541 1120 2349 
L 1837 749 
L 2458 2515 
Q 2483 2573 2483 2630 
Q 2483 2784 2189 2784 
L 2189 2880 
L 3040 2880 
z
" transform="scale(0.015625)"/>
       <path id="STIXGeneral-Regular-4d" d="M 5530 0 
L 3738 0 
L 3738 122 
Q 4115 147 4214 265 
Q 4314 384 4314 787 
L 4314 3661 
L 2682 0 
L 2592 0 
L 979 3514 
L 979 966 
Q 979 448 1088 294 
Q 1197 141 1574 122 
L 1574 0 
L 77 0 
L 77 122 
Q 358 141 480 205 
Q 602 269 650 432 
Q 698 595 698 966 
L 698 3514 
Q 698 3878 589 3984 
Q 480 4090 90 4115 
L 90 4237 
L 1357 4237 
L 2835 1024 
L 4250 4237 
L 5523 4237 
L 5523 4115 
Q 5178 4109 5072 3993 
Q 4966 3878 4966 3520 
L 4966 717 
Q 4966 378 5072 262 
Q 5178 147 5530 122 
L 5530 0 
z
" transform="scale(0.015625)"/>
      </defs>
      <use xlink:href="#STIXGeneral-Regular-44"/>
      <use xlink:href="#STIXGeneral-Regular-65" transform="translate(72.199982 0)"/>
      <use xlink:href="#STIXGeneral-Regular-6e" transform="translate(116.599976 0)"/>
      <use xlink:href="#STIXGeneral-Regular-73" transform="translate(166.59996 0)"/>
      <use xlink:href="#STIXGeneral-Regular-69" transform="translate(205.499954 0)"/>
      <use xlink:href="#STIXGeneral-Regular-74" transform="translate(233.299942 0)"/>
      <use xlink:href="#STIXGeneral-Regular-79" transform="translate(261.09993 0)"/>
      <use xlink:href="#STIXGeneral-Regular-20" transform="translate(311.099915 0)"/>
      <use xlink:href="#STIXGeneral-Regular-4d" transform="translate(336.099899 0)"/>
      <use xlink:href="#STIXGeneral-Regular-61" transform="translate(424.999893 0)"/>
      <use xlink:href="#STIXGeneral-Regular-74" transform="translate(469.399887 0)"/>
      <use xlink:href="#STIXGeneral-Regular-72" transform="translate(497.199875 0)"/>
      <use xlink:href="#STIXGeneral-Regular-69" transform="translate(530.499863 0)"/>
      <use xlink:href="#STIXGeneral-Regular-78" transform="translate(558.29985 0)"/>
     </g>
    </g>
    <g id="line2d_142">
     <path d="M 363.865625 70.215 
L 374.865625 70.215 
L 385.865625 70.215 
" style="fill: none; stroke-dasharray: 12.16,3.04,1.9,3.04; stroke-dashoffset: 0; stroke: #ff7f0e; stroke-width: 1.9"/>
     <g>
      <use xlink:href="#m081031820b" x="374.865625" y="70.215" style="fill: #ff7f0e; stroke: #ff7f0e"/>
     </g>
    </g>
    <g id="text_19">
     <!-- Monte Carlo -->
     <g transform="translate(394.665625 74.065) scale(0.11 -0.11)">
      <defs>
       <path id="STIXGeneral-Regular-43" d="M 3930 838 
L 4051 723 
Q 3482 -90 2304 -90 
Q 1376 -90 794 480 
Q 179 1082 179 2080 
Q 179 3014 755 3661 
Q 1357 4326 2310 4326 
Q 2720 4326 3072 4230 
Q 3475 4115 3514 4115 
Q 3725 4115 3782 4326 
L 3910 4326 
L 3968 2874 
L 3821 2874 
Q 3718 3334 3488 3584 
Q 3034 4070 2458 4070 
Q 1747 4070 1334 3548 
Q 922 3027 922 2182 
Q 922 1152 1382 653 
Q 1811 192 2522 192 
Q 2944 192 3251 339 
Q 3558 486 3930 838 
z
" transform="scale(0.015625)"/>
       <path id="STIXGeneral-Regular-6c" d="M 1645 0 
L 134 0 
L 134 96 
Q 435 122 531 221 
Q 627 320 627 589 
L 627 3590 
Q 627 3821 569 3910 
Q 512 4000 358 4000 
Q 224 4000 122 3987 
L 122 4090 
Q 730 4237 1133 4371 
L 1165 4346 
L 1165 557 
Q 1165 288 1254 201 
Q 1344 115 1645 96 
L 1645 0 
z
" transform="scale(0.015625)"/>
      </defs>
      <use xlink:href="#STIXGeneral-Regular-4d"/>
      <use xlink:href="#STIXGeneral-Regular-6f" transform="translate(88.899994 0)"/>
      <use xlink:href="#STIXGeneral-Regular-6e" transform="translate(138.899979 0)"/>
      <use xlink:href="#STIXGeneral-Regular-74" transform="translate(188.899963 0)"/>
      <use xlink:href="#STIXGeneral-Regular-65" transform="translate(216.699951 0)"/>
      <use xlink:href="#STIXGeneral-Regular-20" transform="translate(261.099945 0)"/>
      <use xlink:href="#STIXGeneral-Regular-43" transform="translate(286.09993 0)"/>
      <use xlink:href="#STIXGeneral-Regular-61" transform="translate(352.799927 0)"/>
      <use xlink:href="#STIXGeneral-Regular-72" transform="translate(397.199921 0)"/>
      <use xlink:href="#STIXGeneral-Regular-6c" transform="translate(430.499908 0)"/>
      <use xlink:href="#STIXGeneral-Regular-6f" transform="translate(458.299896 0)"/>
     </g>
    </g>
    <g id="line2d_143">
     <path d="M 363.865625 85.802344 
L 374.865625 85.802344 
L 385.865625 85.802344 
" style="fill: none; stroke-dasharray: 2.2,3.63; stroke-dashoffset: 0; stroke: #2ca02c; stroke-width: 2.2"/>
     <g>
      <use xlink:href="#m86e087b300" x="374.865625" y="85.802344" style="fill: #2ca02c; stroke: #2ca02c; stroke-linejoin: miter"/>
     </g>
    </g>
    <g id="text_20">
     <!-- Positive-P -->
     <g transform="translate(394.665625 89.652344) scale(0.11 -0.11)">
      <defs>
       <path id="STIXGeneral-Regular-50" d="M 102 4237 
L 1760 4237 
Q 2669 4237 3149 3834 
Q 3469 3565 3469 3072 
Q 3469 2560 3104 2234 
Q 2835 1990 2553 1916 
Q 2272 1843 1734 1843 
Q 1549 1843 1293 1862 
L 1293 717 
Q 1293 352 1398 246 
Q 1504 141 1894 122 
L 1894 0 
L 102 0 
L 102 122 
Q 474 147 557 256 
Q 640 365 640 781 
L 640 3526 
Q 640 3885 547 3987 
Q 454 4090 102 4115 
L 102 4237 
z
M 1293 3770 
L 1293 2118 
Q 1510 2099 1683 2099 
Q 2202 2099 2486 2352 
Q 2771 2605 2771 3040 
Q 2771 3558 2476 3779 
Q 2182 4000 1517 4000 
Q 1382 4000 1337 3952 
Q 1293 3904 1293 3770 
z
" transform="scale(0.015625)"/>
       <path id="STIXGeneral-Regular-2d" d="M 1824 1242 
L 250 1242 
L 250 1645 
L 1824 1645 
L 1824 1242 
z
" transform="scale(0.015625)"/>
      </defs>
      <use xlink:href="#STIXGeneral-Regular-50"/>
      <use xlink:href="#STIXGeneral-Regular-6f" transform="translate(55.699997 0)"/>
      <use xlink:href="#STIXGeneral-Regular-73" transform="translate(105.699982 0)"/>
      <use xlink:href="#STIXGeneral-Regular-69" transform="translate(144.599976 0)"/>
      <use xlink:href="#STIXGeneral-Regular-74" transform="translate(172.399963 0)"/>
      <use xlink:href="#STIXGeneral-Regular-69" transform="translate(200.199951 0)"/>
      <use xlink:href="#STIXGeneral-Regular-76" transform="translate(227.999939 0)"/>
      <use xlink:href="#STIXGeneral-Regular-65" transform="translate(277.999924 0)"/>
      <use xlink:href="#STIXGeneral-Regular-2d" transform="translate(322.399918 0)"/>
      <use xlink:href="#STIXGeneral-Regular-50" transform="translate(355.699905 0)"/>
     </g>
    </g>
   </g>
  </g>
 </g>
 <defs>
  <clipPath id="pa694a4fa53">
   <rect x="52.98" y="25.28" width="418.5" height="288.288"/>
  </clipPath>
 </defs>
</svg>
