<?xml version="1.0" encoding="utf-8" standalone="no"?>
<!DOCTYPE svg PUBLIC "-//W3C//DTD SVG 1.1//EN"
  "http://www.w3.org/Graphics/SVG/1.1/DTD/svg11.dtd">
<svg xmlns:xlink="http://www.w3.org/1999/xlink" width="475.08pt" height="348.068pt" viewBox="0 0 475.08 348.068" xmlns="http://www.w3.org/2000/svg" version="1.1">
 <metadata>
  <rdf:RDF xmlns:dc="http://purl.org/dc/elements/1.1/" xmlns:cc="http://creativecommons.org/ns#" xmlns:rdf="http://www.w3.org/1999/02/22-rdf-syntax-ns#">
   <cc:Work>
    <dc:type rdf:resource="http://purl.org/dc/dcmitype/StillImage"/>
    <dc:date>2026-04-16T02:26:55.622037</dc:date>
    <dc:format>image/svg+xml</dc:format>
    <dc:creator>
     <cc:Agent>
      <dc:title>Matplotlib v3.10.8, https://matplotlib.org/</dc:title>
     </cc:Agent>
    </dc:creator>
   </cc:Work>
  </rdf:RDF>
 </metadata>
 <defs>
  <style type="text/css">*{stroke-linejoin: round; stroke-linecap: butt}</style>
 </defs>
 <g id="figure_1">
  <g id="patch_1">
   <path d="M 0 348.068 
L 475.08 348.068 
L 475.08 0 
L 0 0 
z
" style="fill: #ffffff"/>
  </g>
  <g id="axes_1">
   <g id="patch_2">
    <path d="M 52.98 313.568 
L 471.48 313.568 
L 471.48 25.28 
L 52.98 25.28 
z
" style="fill: #ffffff"/>
   </g>
   <g id="matplotlib.axis_1">
    <g id="xtick_1">
     <g id="line2d_1">
      <path d="M 72.002727 313.568 
L 72.002727 25.28 
" clip-path="url(#p5e1f18a0c7)" style="fill: none; stroke: #b0b0b0; stroke-opacity: 0.35; stroke-width: 0.5; stroke-linecap: square"/>
     </g>
     <g id="line2d_2">
      <defs>
       <path id="mf2e72ac48c" d="M 0 0 
L 0 -3 
" style="stroke: #000000; stroke-width: 0.5"/>
      </defs>
      <g>
       <use xlink:href="#mf2e72ac48c" x="72.002727" y="313.568" style="stroke: #000000; stroke-width: 0.5"/>
      </g>
     </g>
     <g id="line2d_3">
      <defs>
       <path id="m4c05561c41" d="M 0 0 
L 0 3 
" style="stroke: #000000; stroke-width: 0.5"/>
      </defs>
      <g>
       <use xlink:href="#m4c05561c41" x="72.002727" y="25.28" style="stroke: #000000; stroke-width: 0.5"/>
      </g>
     </g>
     <g id="text_1">
      <!-- $\mathdefault{0}$ -->
      <g transform="translate(69.002727 325.263625) scale(0.12 -0.12)">
       <defs>
        <path id="STIXGeneral-Regular-30" d="M 3046 2112 
Q 3046 1683 2963 1302 
Q 2880 922 2717 602 
Q 2554 282 2266 96 
Q 1978 -90 1600 -90 
Q 1210 -90 915 108 
Q 621 307 461 640 
Q 301 973 227 1350 
Q 154 1728 154 2150 
Q 154 2746 301 3222 
Q 448 3699 790 4012 
Q 1133 4326 1626 4326 
Q 2253 4326 2649 3712 
Q 3046 3098 3046 2112 
z
M 2432 2080 
Q 2432 3091 2217 3625 
Q 2003 4160 1587 4160 
Q 1190 4160 979 3622 
Q 768 3085 768 2106 
Q 768 1120 979 598 
Q 1190 77 1600 77 
Q 2003 77 2217 598 
Q 2432 1120 2432 2080 
z
" transform="scale(0.015625)"/>
       </defs>
       <use xlink:href="#STIXGeneral-Regular-30" transform="translate(0 0.40625)"/>
      </g>
     </g>
    </g>
    <g id="xtick_2">
     <g id="line2d_4">
      <path d="M 148.093636 313.568 
L 148.093636 25.28 
" clip-path="url(#p5e1f18a0c7)" style="fill: none; stroke: #b0b0b0; stroke-opacity: 0.35; stroke-width: 0.5; stroke-linecap: square"/>
     </g>
     <g id="line2d_5">
      <g>
       <use xlink:href="#mf2e72ac48c" x="148.093636" y="313.568" style="stroke: #000000; stroke-width: 0.5"/>
      </g>
     </g>
     <g id="line2d_6">
      <g>
       <use xlink:href="#m4c05561c41" x="148.093636" y="25.28" style="stroke: #000000; stroke-width: 0.5"/>
      </g>
     </g>
     <g id="text_2">
      <!-- $\mathdefault{1}$ -->
      <g transform="translate(145.093636 325.263625) scale(0.12 -0.12)">
       <defs>
        <path id="STIXGeneral-Regular-31" d="M 2522 0 
L 755 0 
L 755 96 
Q 1107 115 1235 227 
Q 1363 339 1363 608 
L 1363 3482 
Q 1363 3795 1171 3795 
Q 1082 3795 883 3718 
L 710 3654 
L 710 3744 
L 1856 4326 
L 1914 4307 
L 1914 486 
Q 1914 275 2042 185 
Q 2170 96 2522 96 
L 2522 0 
z
" transform="scale(0.015625)"/>
       </defs>
       <use xlink:href="#STIXGeneral-Regular-31" transform="translate(0 0.40625)"/>
      </g>
     </g>
    </g>
    <g id="xtick_3">
     <g id="line2d_7">
      <path d="M 224.184545 313.568 
L 224.184545 25.28 
" clip-path="url(#p5e1f18a0c7)" style="fill: none; stroke: #b0b0b0; stroke-opacity: 0.35; stroke-width: 0.5; stroke-linecap: square"/>
     </g>
     <g id="line2d_8">
      <g>
       <use xlink:href="#mf2e72ac48c" x="224.184545" y="313.568" style="stroke: #000000; stroke-width: 0.5"/>
      </g>
     </g>
     <g id="line2d_9">
      <g>
       <use xlink:href="#m4c05561c41" x="224.184545" y="25.28" style="stroke: #000000; stroke-width: 0.5"/>
      </g>
     </g>
     <g id="text_3">
      <!-- $\mathdefault{2}$ -->
      <g transform="translate(221.184545 325.263625) scale(0.12 -0.12)">
       <defs>
        <path id="STIXGeneral-Regular-32" d="M 3034 877 
L 2688 0 
L 186 0 
L 186 77 
L 1325 1286 
Q 1773 1754 1965 2144 
Q 2157 2534 2157 2950 
Q 2157 3379 1920 3616 
Q 1683 3853 1267 3853 
Q 922 3853 720 3673 
Q 518 3494 326 3021 
L 192 3053 
Q 301 3648 630 3987 
Q 960 4326 1523 4326 
Q 2054 4326 2380 4006 
Q 2707 3686 2707 3200 
Q 2707 2477 1888 1613 
L 832 486 
L 2330 486 
Q 2541 486 2665 569 
Q 2790 653 2944 915 
L 3034 877 
z
" transform="scale(0.015625)"/>
       </defs>
       <use xlink:href="#STIXGeneral-Regular-32" transform="translate(0 0.40625)"/>
      </g>
     </g>
    </g>
    <g id="xtick_4">
     <g id="line2d_10">
      <path d="M 300.275455 313.568 
L 300.275455 25.28 
" clip-path="url(#p5e1f18a0c7)" style="fill: none; stroke: #b0b0b0; stroke-opacity: 0.35; stroke-width: 0.5; stroke-linecap: square"/>
     </g>
     <g id="line2d_11">
      <g>
       <use xlink:href="#mf2e72ac48c" x="300.275455" y="313.568" style="stroke: #000000; stroke-width: 0.5"/>
      </g>
     </g>
     <g id="line2d_12">
      <g>
       <use xlink:href="#m4c05561c41" x="300.275455" y="25.28" style="stroke: #000000; stroke-width: 0.5"/>
      </g>
     </g>
     <g id="text_4">
      <!-- $\mathdefault{3}$ -->
      <g transform="translate(297.275455 325.263625) scale(0.12 -0.12)">
       <defs>
        <path id="STIXGeneral-Regular-33" d="M 390 3264 
L 288 3290 
Q 435 3770 748 4048 
Q 1062 4326 1542 4326 
Q 1990 4326 2265 4083 
Q 2541 3840 2541 3450 
Q 2541 2925 1946 2566 
Q 2298 2413 2477 2227 
Q 2758 1914 2758 1402 
Q 2758 890 2464 506 
Q 2246 211 1840 60 
Q 1434 -90 979 -90 
Q 262 -90 262 275 
Q 262 378 339 442 
Q 416 506 525 506 
Q 685 506 915 339 
Q 1197 141 1466 141 
Q 1818 141 2058 425 
Q 2298 710 2298 1120 
Q 2298 1856 1632 2048 
Q 1434 2112 979 2112 
L 979 2202 
Q 1338 2323 1517 2432 
Q 2035 2726 2035 3290 
Q 2035 3610 1852 3776 
Q 1670 3942 1344 3942 
Q 768 3942 390 3264 
z
" transform="scale(0.015625)"/>
       </defs>
       <use xlink:href="#STIXGeneral-Regular-33" transform="translate(0 0.40625)"/>
      </g>
     </g>
    </g>
    <g id="xtick_5">
     <g id="line2d_13">
      <path d="M 376.366364 313.568 
L 376.366364 25.28 
" clip-path="url(#p5e1f18a0c7)" style="fill: none; stroke: #b0b0b0; stroke-opacity: 0.35; stroke-width: 0.5; stroke-linecap: square"/>
     </g>
     <g id="line2d_14">
      <g>
       <use xlink:href="#mf2e72ac48c" x="376.366364" y="313.568" style="stroke: #000000; stroke-width: 0.5"/>
      </g>
     </g>
     <g id="line2d_15">
      <g>
       <use xlink:href="#m4c05561c41" x="376.366364" y="25.28" style="stroke: #000000; stroke-width: 0.5"/>
      </g>
     </g>
     <g id="text_5">
      <!-- $\mathdefault{4}$ -->
      <g transform="translate(373.366364 325.263625) scale(0.12 -0.12)">
       <defs>
        <path id="STIXGeneral-Regular-34" d="M 3027 1069 
L 2368 1069 
L 2368 0 
L 1869 0 
L 1869 1069 
L 77 1069 
L 77 1478 
L 2086 4326 
L 2368 4326 
L 2368 1478 
L 3027 1478 
L 3027 1069 
z
M 1869 1478 
L 1869 3674 
L 333 1478 
L 1869 1478 
z
" transform="scale(0.015625)"/>
       </defs>
       <use xlink:href="#STIXGeneral-Regular-34" transform="translate(0 0.40625)"/>
      </g>
     </g>
    </g>
    <g id="xtick_6">
     <g id="line2d_16">
      <path d="M 452.457273 313.568 
L 452.457273 25.28 
" clip-path="url(#p5e1f18a0c7)" style="fill: none; stroke: #b0b0b0; stroke-opacity: 0.35; stroke-width: 0.5; stroke-linecap: square"/>
     </g>
     <g id="line2d_17">
      <g>
       <use xlink:href="#mf2e72ac48c" x="452.457273" y="313.568" style="stroke: #000000; stroke-width: 0.5"/>
      </g>
     </g>
     <g id="line2d_18">
      <g>
       <use xlink:href="#m4c05561c41" x="452.457273" y="25.28" style="stroke: #000000; stroke-width: 0.5"/>
      </g>
     </g>
     <g id="text_6">
      <!-- $\mathdefault{5}$ -->
      <g transform="translate(449.457273 325.263625) scale(0.12 -0.12)">
       <defs>
        <path id="STIXGeneral-Regular-35" d="M 2803 4358 
L 2573 3814 
Q 2534 3731 2400 3731 
L 1158 3731 
L 902 3187 
Q 1606 3053 1920 2896 
Q 2234 2739 2502 2368 
Q 2726 2061 2726 1555 
Q 2726 1094 2576 780 
Q 2426 467 2099 224 
Q 1664 -90 1011 -90 
Q 646 -90 422 19 
Q 198 128 198 307 
Q 198 550 486 550 
Q 717 550 960 352 
Q 1210 147 1414 147 
Q 1747 147 2012 480 
Q 2278 813 2278 1229 
Q 2278 1843 1850 2189 
Q 1293 2637 486 2637 
Q 410 2637 410 2688 
L 416 2720 
L 1114 4237 
L 2438 4237 
Q 2547 4237 2608 4269 
Q 2669 4301 2746 4403 
L 2803 4358 
z
" transform="scale(0.015625)"/>
       </defs>
       <use xlink:href="#STIXGeneral-Regular-35" transform="translate(0 0.203125)"/>
      </g>
     </g>
    </g>
    <g id="xtick_7">
     <g id="line2d_19">
      <defs>
       <path id="mc9a1ccb2c4" d="M 0 0 
L 0 -1.5 
" style="stroke: #000000; stroke-width: 0.5"/>
      </defs>
      <g>
       <use xlink:href="#mc9a1ccb2c4" x="56.784545" y="313.568" style="stroke: #000000; stroke-width: 0.5"/>
      </g>
     </g>
     <g id="line2d_20">
      <defs>
       <path id="m7afe8e5dfe" d="M 0 0 
L 0 1.5 
" style="stroke: #000000; stroke-width: 0.5"/>
      </defs>
      <g>
       <use xlink:href="#m7afe8e5dfe" x="56.784545" y="25.28" style="stroke: #000000; stroke-width: 0.5"/>
      </g>
     </g>
    </g>
    <g id="xtick_8">
     <g id="line2d_21">
      <g>
       <use xlink:href="#mc9a1ccb2c4" x="87.220909" y="313.568" style="stroke: #000000; stroke-width: 0.5"/>
      </g>
     </g>
     <g id="line2d_22">
      <g>
       <use xlink:href="#m7afe8e5dfe" x="87.220909" y="25.28" style="stroke: #000000; stroke-width: 0.5"/>
      </g>
     </g>
    </g>
    <g id="xtick_9">
     <g id="line2d_23">
      <g>
       <use xlink:href="#mc9a1ccb2c4" x="102.439091" y="313.568" style="stroke: #000000; stroke-width: 0.5"/>
      </g>
     </g>
     <g id="line2d_24">
      <g>
       <use xlink:href="#m7afe8e5dfe" x="102.439091" y="25.28" style="stroke: #000000; stroke-width: 0.5"/>
      </g>
     </g>
    </g>
    <g id="xtick_10">
     <g id="line2d_25">
      <g>
       <use xlink:href="#mc9a1ccb2c4" x="117.657273" y="313.568" style="stroke: #000000; stroke-width: 0.5"/>
      </g>
     </g>
     <g id="line2d_26">
      <g>
       <use xlink:href="#m7afe8e5dfe" x="117.657273" y="25.28" style="stroke: #000000; stroke-width: 0.5"/>
      </g>
     </g>
    </g>
    <g id="xtick_11">
     <g id="line2d_27">
      <g>
       <use xlink:href="#mc9a1ccb2c4" x="132.875455" y="313.568" style="stroke: #000000; stroke-width: 0.5"/>
      </g>
     </g>
     <g id="line2d_28">
      <g>
       <use xlink:href="#m7afe8e5dfe" x="132.875455" y="25.28" style="stroke: #000000; stroke-width: 0.5"/>
      </g>
     </g>
    </g>
    <g id="xtick_12">
     <g id="line2d_29">
      <g>
       <use xlink:href="#mc9a1ccb2c4" x="163.311818" y="313.568" style="stroke: #000000; stroke-width: 0.5"/>
      </g>
     </g>
     <g id="line2d_30">
      <g>
       <use xlink:href="#m7afe8e5dfe" x="163.311818" y="25.28" style="stroke: #000000; stroke-width: 0.5"/>
      </g>
     </g>
    </g>
    <g id="xtick_13">
     <g id="line2d_31">
      <g>
       <use xlink:href="#mc9a1ccb2c4" x="178.53" y="313.568" style="stroke: #000000; stroke-width: 0.5"/>
      </g>
     </g>
     <g id="line2d_32">
      <g>
       <use xlink:href="#m7afe8e5dfe" x="178.53" y="25.28" style="stroke: #000000; stroke-width: 0.5"/>
      </g>
     </g>
    </g>
    <g id="xtick_14">
     <g id="line2d_33">
      <g>
       <use xlink:href="#mc9a1ccb2c4" x="193.748182" y="313.568" style="stroke: #000000; stroke-width: 0.5"/>
      </g>
     </g>
     <g id="line2d_34">
      <g>
       <use xlink:href="#m7afe8e5dfe" x="193.748182" y="25.28" style="stroke: #000000; stroke-width: 0.5"/>
      </g>
     </g>
    </g>
    <g id="xtick_15">
     <g id="line2d_35">
      <g>
       <use xlink:href="#mc9a1ccb2c4" x="208.966364" y="313.568" style="stroke: #000000; stroke-width: 0.5"/>
      </g>
     </g>
     <g id="line2d_36">
      <g>
       <use xlink:href="#m7afe8e5dfe" x="208.966364" y="25.28" style="stroke: #000000; stroke-width: 0.5"/>
      </g>
     </g>
    </g>
    <g id="xtick_16">
     <g id="line2d_37">
      <g>
       <use xlink:href="#mc9a1ccb2c4" x="239.402727" y="313.568" style="stroke: #000000; stroke-width: 0.5"/>
      </g>
     </g>
     <g id="line2d_38">
      <g>
       <use xlink:href="#m7afe8e5dfe" x="239.402727" y="25.28" style="stroke: #000000; stroke-width: 0.5"/>
      </g>
     </g>
    </g>
    <g id="xtick_17">
     <g id="line2d_39">
      <g>
       <use xlink:href="#mc9a1ccb2c4" x="254.620909" y="313.568" style="stroke: #000000; stroke-width: 0.5"/>
      </g>
     </g>
     <g id="line2d_40">
      <g>
       <use xlink:href="#m7afe8e5dfe" x="254.620909" y="25.28" style="stroke: #000000; stroke-width: 0.5"/>
      </g>
     </g>
    </g>
    <g id="xtick_18">
     <g id="line2d_41">
      <g>
       <use xlink:href="#mc9a1ccb2c4" x="269.839091" y="313.568" style="stroke: #000000; stroke-width: 0.5"/>
      </g>
     </g>
     <g id="line2d_42">
      <g>
       <use xlink:href="#m7afe8e5dfe" x="269.839091" y="25.28" style="stroke: #000000; stroke-width: 0.5"/>
      </g>
     </g>
    </g>
    <g id="xtick_19">
     <g id="line2d_43">
      <g>
       <use xlink:href="#mc9a1ccb2c4" x="285.057273" y="313.568" style="stroke: #000000; stroke-width: 0.5"/>
      </g>
     </g>
     <g id="line2d_44">
      <g>
       <use xlink:href="#m7afe8e5dfe" x="285.057273" y="25.28" style="stroke: #000000; stroke-width: 0.5"/>
      </g>
     </g>
    </g>
    <g id="xtick_20">
     <g id="line2d_45">
      <g>
       <use xlink:href="#mc9a1ccb2c4" x="315.493636" y="313.568" style="stroke: #000000; stroke-width: 0.5"/>
      </g>
     </g>
     <g id="line2d_46">
      <g>
       <use xlink:href="#m7afe8e5dfe" x="315.493636" y="25.28" style="stroke: #000000; stroke-width: 0.5"/>
      </g>
     </g>
    </g>
    <g id="xtick_21">
     <g id="line2d_47">
      <g>
       <use xlink:href="#mc9a1ccb2c4" x="330.711818" y="313.568" style="stroke: #000000; stroke-width: 0.5"/>
      </g>
     </g>
     <g id="line2d_48">
      <g>
       <use xlink:href="#m7afe8e5dfe" x="330.711818" y="25.28" style="stroke: #000000; stroke-width: 0.5"/>
      </g>
     </g>
    </g>
    <g id="xtick_22">
     <g id="line2d_49">
      <g>
       <use xlink:href="#mc9a1ccb2c4" x="345.93" y="313.568" style="stroke: #000000; stroke-width: 0.5"/>
      </g>
     </g>
     <g id="line2d_50">
      <g>
       <use xlink:href="#m7afe8e5dfe" x="345.93" y="25.28" style="stroke: #000000; stroke-width: 0.5"/>
      </g>
     </g>
    </g>
    <g id="xtick_23">
     <g id="line2d_51">
      <g>
       <use xlink:href="#mc9a1ccb2c4" x="361.148182" y="313.568" style="stroke: #000000; stroke-width: 0.5"/>
      </g>
     </g>
     <g id="line2d_52">
      <g>
       <use xlink:href="#m7afe8e5dfe" x="361.148182" y="25.28" style="stroke: #000000; stroke-width: 0.5"/>
      </g>
     </g>
    </g>
    <g id="xtick_24">
     <g id="line2d_53">
      <g>
       <use xlink:href="#mc9a1ccb2c4" x="391.584545" y="313.568" style="stroke: #000000; stroke-width: 0.5"/>
      </g>
     </g>
     <g id="line2d_54">
      <g>
       <use xlink:href="#m7afe8e5dfe" x="391.584545" y="25.28" style="stroke: #000000; stroke-width: 0.5"/>
      </g>
     </g>
    </g>
    <g id="xtick_25">
     <g id="line2d_55">
      <g>
       <use xlink:href="#mc9a1ccb2c4" x="406.802727" y="313.568" style="stroke: #000000; stroke-width: 0.5"/>
      </g>
     </g>
     <g id="line2d_56">
      <g>
       <use xlink:href="#m7afe8e5dfe" x="406.802727" y="25.28" style="stroke: #000000; stroke-width: 0.5"/>
      </g>
     </g>
    </g>
    <g id="xtick_26">
     <g id="line2d_57">
      <g>
       <use xlink:href="#mc9a1ccb2c4" x="422.020909" y="313.568" style="stroke: #000000; stroke-width: 0.5"/>
      </g>
     </g>
     <g id="line2d_58">
      <g>
       <use xlink:href="#m7afe8e5dfe" x="422.020909" y="25.28" style="stroke: #000000; stroke-width: 0.5"/>
      </g>
     </g>
    </g>
    <g id="xtick_27">
     <g id="line2d_59">
      <g>
       <use xlink:href="#mc9a1ccb2c4" x="437.239091" y="313.568" style="stroke: #000000; stroke-width: 0.5"/>
      </g>
     </g>
     <g id="line2d_60">
      <g>
       <use xlink:href="#m7afe8e5dfe" x="437.239091" y="25.28" style="stroke: #000000; stroke-width: 0.5"/>
      </g>
     </g>
    </g>
    <g id="xtick_28">
     <g id="line2d_61">
      <g>
       <use xlink:href="#mc9a1ccb2c4" x="467.675455" y="313.568" style="stroke: #000000; stroke-width: 0.5"/>
      </g>
     </g>
     <g id="line2d_62">
      <g>
       <use xlink:href="#m7afe8e5dfe" x="467.675455" y="25.28" style="stroke: #000000; stroke-width: 0.5"/>
      </g>
     </g>
    </g>
    <g id="text_7">
     <!-- Time -->
     <g transform="translate(247.453438 341.429562) scale(0.14 -0.14)">
      <defs>
       <path id="STIXGeneral-Regular-54" d="M 3795 3149 
L 3642 3149 
Q 3539 3674 3353 3821 
Q 3168 3968 2656 3968 
L 2278 3968 
L 2278 710 
Q 2278 346 2387 243 
Q 2496 141 2893 122 
L 2893 0 
L 1024 0 
L 1024 122 
Q 1427 147 1526 256 
Q 1626 365 1626 787 
L 1626 3968 
L 1242 3968 
Q 723 3968 540 3817 
Q 358 3667 262 3149 
L 109 3149 
L 154 4237 
L 3750 4237 
L 3795 3149 
z
" transform="scale(0.015625)"/>
       <path id="STIXGeneral-Regular-69" d="M 1152 4045 
Q 1152 3904 1056 3811 
Q 960 3718 819 3718 
Q 685 3718 592 3811 
Q 499 3904 499 4045 
Q 499 4179 595 4275 
Q 691 4371 826 4371 
Q 966 4371 1059 4275 
Q 1152 4179 1152 4045 
z
M 1619 0 
L 102 0 
L 102 96 
Q 435 115 521 211 
Q 608 307 608 666 
L 608 2118 
Q 608 2342 563 2432 
Q 518 2522 397 2522 
Q 243 2522 128 2490 
L 128 2592 
L 1120 2944 
L 1146 2918 
L 1146 672 
Q 1146 314 1226 218 
Q 1306 122 1619 96 
L 1619 0 
z
" transform="scale(0.015625)"/>
       <path id="STIXGeneral-Regular-6d" d="M 4960 0 
L 3565 0 
L 3565 96 
Q 3834 122 3907 208 
Q 3981 294 3981 576 
L 3981 1894 
Q 3981 2278 3869 2444 
Q 3757 2611 3488 2611 
Q 3264 2611 3107 2521 
Q 2950 2432 2803 2221 
L 2803 608 
Q 2803 301 2896 201 
Q 2989 102 3264 96 
L 3264 0 
L 1830 0 
L 1830 96 
Q 2112 115 2189 188 
Q 2266 262 2266 550 
L 2266 1901 
Q 2266 2611 1850 2611 
Q 1670 2611 1468 2531 
Q 1267 2451 1171 2336 
Q 1088 2240 1088 2227 
L 1088 448 
Q 1088 243 1177 176 
Q 1267 109 1523 96 
L 1523 0 
L 102 0 
L 102 96 
Q 371 102 460 195 
Q 550 288 550 563 
L 550 2150 
Q 550 2387 499 2480 
Q 448 2573 326 2573 
Q 230 2573 122 2547 
L 122 2656 
Q 557 2778 1011 2944 
L 1062 2925 
L 1062 2451 
L 1075 2451 
Q 1363 2752 1584 2848 
Q 1805 2944 2054 2944 
Q 2560 2944 2733 2406 
Q 3232 2944 3776 2944 
Q 4518 2944 4518 1792 
L 4518 493 
Q 4518 282 4582 202 
Q 4646 122 4794 109 
L 4960 96 
L 4960 0 
z
" transform="scale(0.015625)"/>
       <path id="STIXGeneral-Regular-65" d="M 2611 1050 
L 2714 1005 
Q 2330 -64 1376 -64 
Q 813 -64 486 329 
Q 160 723 160 1389 
Q 160 2074 525 2509 
Q 890 2944 1485 2944 
Q 2061 2944 2374 2502 
Q 2560 2246 2592 1773 
L 621 1773 
Q 646 1370 700 1158 
Q 755 947 915 730 
Q 1184 378 1626 378 
Q 1939 378 2153 531 
Q 2368 685 2611 1050 
z
M 634 1978 
L 1939 1978 
Q 1882 2381 1750 2547 
Q 1619 2714 1312 2714 
Q 1043 2714 864 2525 
Q 685 2336 634 1978 
z
" transform="scale(0.015625)"/>
      </defs>
      <use xlink:href="#STIXGeneral-Regular-54"/>
      <use xlink:href="#STIXGeneral-Regular-69" transform="translate(61.099991 0)"/>
      <use xlink:href="#STIXGeneral-Regular-6d" transform="translate(88.899979 0)"/>
      <use xlink:href="#STIXGeneral-Regular-65" transform="translate(166.699966 0)"/>
     </g>
    </g>
   </g>
   <g id="matplotlib.axis_2">
    <g id="ytick_1">
     <g id="line2d_63">
      <path d="M 52.98 268.689133 
L 471.48 268.689133 
" clip-path="url(#p5e1f18a0c7)" style="fill: none; stroke: #b0b0b0; stroke-opacity: 0.35; stroke-width: 0.5; stroke-linecap: square"/>
     </g>
     <g id="line2d_64">
      <defs>
       <path id="m89fba409b0" d="M 0 0 
L 3 0 
" style="stroke: #000000; stroke-width: 0.5"/>
      </defs>
      <g>
       <use xlink:href="#m89fba409b0" x="52.98" y="268.689133" style="stroke: #000000; stroke-width: 0.5"/>
      </g>
     </g>
     <g id="line2d_65">
      <defs>
       <path id="m62faa608b3" d="M 0 0 
L -3 0 
" style="stroke: #000000; stroke-width: 0.5"/>
      </defs>
      <g>
       <use xlink:href="#m62faa608b3" x="471.48" y="268.689133" style="stroke: #000000; stroke-width: 0.5"/>
      </g>
     </g>
     <g id="text_8">
      <!-- $\mathdefault{−0.02}$ -->
      <g transform="translate(20.2 272.786946) scale(0.12 -0.12)">
       <defs>
        <path id="STIXGeneral-Regular-2212" d="M 3974 1408 
L 410 1408 
L 410 1830 
L 3974 1830 
L 3974 1408 
z
" transform="scale(0.015625)"/>
        <path id="STIXGeneral-Regular-2e" d="M 1158 275 
Q 1158 134 1052 32 
Q 947 -70 800 -70 
Q 653 -70 550 32 
Q 448 134 448 281 
Q 448 429 553 534 
Q 659 640 806 640 
Q 947 640 1052 531 
Q 1158 422 1158 275 
z
" transform="scale(0.015625)"/>
       </defs>
       <use xlink:href="#STIXGeneral-Regular-2212" transform="translate(0 0.40625)"/>
       <use xlink:href="#STIXGeneral-Regular-30" transform="translate(68.499985 0.40625)"/>
       <use xlink:href="#STIXGeneral-Regular-2e" transform="translate(118.499969 0.40625)"/>
       <use xlink:href="#STIXGeneral-Regular-30" transform="translate(143.499954 0.40625)"/>
       <use xlink:href="#STIXGeneral-Regular-32" transform="translate(193.499939 0.40625)"/>
      </g>
     </g>
    </g>
    <g id="ytick_2">
     <g id="line2d_66">
      <path d="M 52.98 209.962756 
L 471.48 209.962756 
" clip-path="url(#p5e1f18a0c7)" style="fill: none; stroke: #b0b0b0; stroke-opacity: 0.35; stroke-width: 0.5; stroke-linecap: square"/>
     </g>
     <g id="line2d_67">
      <g>
       <use xlink:href="#m89fba409b0" x="52.98" y="209.962756" style="stroke: #000000; stroke-width: 0.5"/>
      </g>
     </g>
     <g id="line2d_68">
      <g>
       <use xlink:href="#m62faa608b3" x="471.48" y="209.962756" style="stroke: #000000; stroke-width: 0.5"/>
      </g>
     </g>
     <g id="text_9">
      <!-- $\mathdefault{−0.01}$ -->
      <g transform="translate(20.2 214.060569) scale(0.12 -0.12)">
       <use xlink:href="#STIXGeneral-Regular-2212" transform="translate(0 0.40625)"/>
       <use xlink:href="#STIXGeneral-Regular-30" transform="translate(68.499985 0.40625)"/>
       <use xlink:href="#STIXGeneral-Regular-2e" transform="translate(118.499969 0.40625)"/>
       <use xlink:href="#STIXGeneral-Regular-30" transform="translate(143.499954 0.40625)"/>
       <use xlink:href="#STIXGeneral-Regular-31" transform="translate(193.499939 0.40625)"/>
      </g>
     </g>
    </g>
    <g id="ytick_3">
     <g id="line2d_69">
      <path d="M 52.98 151.236379 
L 471.48 151.236379 
" clip-path="url(#p5e1f18a0c7)" style="fill: none; stroke: #b0b0b0; stroke-opacity: 0.35; stroke-width: 0.5; stroke-linecap: square"/>
     </g>
     <g id="line2d_70">
      <g>
       <use xlink:href="#m89fba409b0" x="52.98" y="151.236379" style="stroke: #000000; stroke-width: 0.5"/>
      </g>
     </g>
     <g id="line2d_71">
      <g>
       <use xlink:href="#m62faa608b3" x="471.48" y="151.236379" style="stroke: #000000; stroke-width: 0.5"/>
      </g>
     </g>
     <g id="text_10">
      <!-- $\mathdefault{0.00}$ -->
      <g transform="translate(28.48 155.334191) scale(0.12 -0.12)">
       <use xlink:href="#STIXGeneral-Regular-30" transform="translate(0 0.40625)"/>
       <use xlink:href="#STIXGeneral-Regular-2e" transform="translate(49.999985 0.40625)"/>
       <use xlink:href="#STIXGeneral-Regular-30" transform="translate(74.999969 0.40625)"/>
       <use xlink:href="#STIXGeneral-Regular-30" transform="translate(124.999954 0.40625)"/>
      </g>
     </g>
    </g>
    <g id="ytick_4">
     <g id="line2d_72">
      <path d="M 52.98 92.510002 
L 471.48 92.510002 
" clip-path="url(#p5e1f18a0c7)" style="fill: none; stroke: #b0b0b0; stroke-opacity: 0.35; stroke-width: 0.5; stroke-linecap: square"/>
     </g>
     <g id="line2d_73">
      <g>
       <use xlink:href="#m89fba409b0" x="52.98" y="92.510002" style="stroke: #000000; stroke-width: 0.5"/>
      </g>
     </g>
     <g id="line2d_74">
      <g>
       <use xlink:href="#m62faa608b3" x="471.48" y="92.510002" style="stroke: #000000; stroke-width: 0.5"/>
      </g>
     </g>
     <g id="text_11">
      <!-- $\mathdefault{0.01}$ -->
      <g transform="translate(28.48 96.607814) scale(0.12 -0.12)">
       <use xlink:href="#STIXGeneral-Regular-30" transform="translate(0 0.40625)"/>
       <use xlink:href="#STIXGeneral-Regular-2e" transform="translate(49.999985 0.40625)"/>
       <use xlink:href="#STIXGeneral-Regular-30" transform="translate(74.999969 0.40625)"/>
       <use xlink:href="#STIXGeneral-Regular-31" transform="translate(124.999954 0.40625)"/>
      </g>
     </g>
    </g>
    <g id="ytick_5">
     <g id="line2d_75">
      <path d="M 52.98 33.783625 
L 471.48 33.783625 
" clip-path="url(#p5e1f18a0c7)" style="fill: none; stroke: #b0b0b0; stroke-opacity: 0.35; stroke-width: 0.5; stroke-linecap: square"/>
     </g>
     <g id="line2d_76">
      <g>
       <use xlink:href="#m89fba409b0" x="52.98" y="33.783625" style="stroke: #000000; stroke-width: 0.5"/>
      </g>
     </g>
     <g id="line2d_77">
      <g>
       <use xlink:href="#m62faa608b3" x="471.48" y="33.783625" style="stroke: #000000; stroke-width: 0.5"/>
      </g>
     </g>
     <g id="text_12">
      <!-- $\mathdefault{0.02}$ -->
      <g transform="translate(28.48 37.881437) scale(0.12 -0.12)">
       <use xlink:href="#STIXGeneral-Regular-30" transform="translate(0 0.40625)"/>
       <use xlink:href="#STIXGeneral-Regular-2e" transform="translate(49.999985 0.40625)"/>
       <use xlink:href="#STIXGeneral-Regular-30" transform="translate(74.999969 0.40625)"/>
       <use xlink:href="#STIXGeneral-Regular-32" transform="translate(124.999954 0.40625)"/>
      </g>
     </g>
    </g>
    <g id="ytick_6">
     <g id="line2d_78">
      <defs>
       <path id="m4a5eecce0d" d="M 0 0 
L 1.5 0 
" style="stroke: #000000; stroke-width: 0.5"/>
      </defs>
      <g>
       <use xlink:href="#m4a5eecce0d" x="52.98" y="303.92496" style="stroke: #000000; stroke-width: 0.5"/>
      </g>
     </g>
     <g id="line2d_79">
      <defs>
       <path id="m698c10c4a2" d="M 0 0 
L -1.5 0 
" style="stroke: #000000; stroke-width: 0.5"/>
      </defs>
      <g>
       <use xlink:href="#m698c10c4a2" x="471.48" y="303.92496" style="stroke: #000000; stroke-width: 0.5"/>
      </g>
     </g>
    </g>
    <g id="ytick_7">
     <g id="line2d_80">
      <g>
       <use xlink:href="#m4a5eecce0d" x="52.98" y="292.179684" style="stroke: #000000; stroke-width: 0.5"/>
      </g>
     </g>
     <g id="line2d_81">
      <g>
       <use xlink:href="#m698c10c4a2" x="471.48" y="292.179684" style="stroke: #000000; stroke-width: 0.5"/>
      </g>
     </g>
    </g>
    <g id="ytick_8">
     <g id="line2d_82">
      <g>
       <use xlink:href="#m4a5eecce0d" x="52.98" y="280.434409" style="stroke: #000000; stroke-width: 0.5"/>
      </g>
     </g>
     <g id="line2d_83">
      <g>
       <use xlink:href="#m698c10c4a2" x="471.48" y="280.434409" style="stroke: #000000; stroke-width: 0.5"/>
      </g>
     </g>
    </g>
    <g id="ytick_9">
     <g id="line2d_84">
      <g>
       <use xlink:href="#m4a5eecce0d" x="52.98" y="256.943858" style="stroke: #000000; stroke-width: 0.5"/>
      </g>
     </g>
     <g id="line2d_85">
      <g>
       <use xlink:href="#m698c10c4a2" x="471.48" y="256.943858" style="stroke: #000000; stroke-width: 0.5"/>
      </g>
     </g>
    </g>
    <g id="ytick_10">
     <g id="line2d_86">
      <g>
       <use xlink:href="#m4a5eecce0d" x="52.98" y="245.198582" style="stroke: #000000; stroke-width: 0.5"/>
      </g>
     </g>
     <g id="line2d_87">
      <g>
       <use xlink:href="#m698c10c4a2" x="471.48" y="245.198582" style="stroke: #000000; stroke-width: 0.5"/>
      </g>
     </g>
    </g>
    <g id="ytick_11">
     <g id="line2d_88">
      <g>
       <use xlink:href="#m4a5eecce0d" x="52.98" y="233.453307" style="stroke: #000000; stroke-width: 0.5"/>
      </g>
     </g>
     <g id="line2d_89">
      <g>
       <use xlink:href="#m698c10c4a2" x="471.48" y="233.453307" style="stroke: #000000; stroke-width: 0.5"/>
      </g>
     </g>
    </g>
    <g id="ytick_12">
     <g id="line2d_90">
      <g>
       <use xlink:href="#m4a5eecce0d" x="52.98" y="221.708032" style="stroke: #000000; stroke-width: 0.5"/>
      </g>
     </g>
     <g id="line2d_91">
      <g>
       <use xlink:href="#m698c10c4a2" x="471.48" y="221.708032" style="stroke: #000000; stroke-width: 0.5"/>
      </g>
     </g>
    </g>
    <g id="ytick_13">
     <g id="line2d_92">
      <g>
       <use xlink:href="#m4a5eecce0d" x="52.98" y="198.217481" style="stroke: #000000; stroke-width: 0.5"/>
      </g>
     </g>
     <g id="line2d_93">
      <g>
       <use xlink:href="#m698c10c4a2" x="471.48" y="198.217481" style="stroke: #000000; stroke-width: 0.5"/>
      </g>
     </g>
    </g>
    <g id="ytick_14">
     <g id="line2d_94">
      <g>
       <use xlink:href="#m4a5eecce0d" x="52.98" y="186.472205" style="stroke: #000000; stroke-width: 0.5"/>
      </g>
     </g>
     <g id="line2d_95">
      <g>
       <use xlink:href="#m698c10c4a2" x="471.48" y="186.472205" style="stroke: #000000; stroke-width: 0.5"/>
      </g>
     </g>
    </g>
    <g id="ytick_15">
     <g id="line2d_96">
      <g>
       <use xlink:href="#m4a5eecce0d" x="52.98" y="174.72693" style="stroke: #000000; stroke-width: 0.5"/>
      </g>
     </g>
     <g id="line2d_97">
      <g>
       <use xlink:href="#m698c10c4a2" x="471.48" y="174.72693" style="stroke: #000000; stroke-width: 0.5"/>
      </g>
     </g>
    </g>
    <g id="ytick_16">
     <g id="line2d_98">
      <g>
       <use xlink:href="#m4a5eecce0d" x="52.98" y="162.981654" style="stroke: #000000; stroke-width: 0.5"/>
      </g>
     </g>
     <g id="line2d_99">
      <g>
       <use xlink:href="#m698c10c4a2" x="471.48" y="162.981654" style="stroke: #000000; stroke-width: 0.5"/>
      </g>
     </g>
    </g>
    <g id="ytick_17">
     <g id="line2d_100">
      <g>
       <use xlink:href="#m4a5eecce0d" x="52.98" y="139.491103" style="stroke: #000000; stroke-width: 0.5"/>
      </g>
     </g>
     <g id="line2d_101">
      <g>
       <use xlink:href="#m698c10c4a2" x="471.48" y="139.491103" style="stroke: #000000; stroke-width: 0.5"/>
      </g>
     </g>
    </g>
    <g id="ytick_18">
     <g id="line2d_102">
      <g>
       <use xlink:href="#m4a5eecce0d" x="52.98" y="127.745828" style="stroke: #000000; stroke-width: 0.5"/>
      </g>
     </g>
     <g id="line2d_103">
      <g>
       <use xlink:href="#m698c10c4a2" x="471.48" y="127.745828" style="stroke: #000000; stroke-width: 0.5"/>
      </g>
     </g>
    </g>
    <g id="ytick_19">
     <g id="line2d_104">
      <g>
       <use xlink:href="#m4a5eecce0d" x="52.98" y="116.000553" style="stroke: #000000; stroke-width: 0.5"/>
      </g>
     </g>
     <g id="line2d_105">
      <g>
       <use xlink:href="#m698c10c4a2" x="471.48" y="116.000553" style="stroke: #000000; stroke-width: 0.5"/>
      </g>
     </g>
    </g>
    <g id="ytick_20">
     <g id="line2d_106">
      <g>
       <use xlink:href="#m4a5eecce0d" x="52.98" y="104.255277" style="stroke: #000000; stroke-width: 0.5"/>
      </g>
     </g>
     <g id="line2d_107">
      <g>
       <use xlink:href="#m698c10c4a2" x="471.48" y="104.255277" style="stroke: #000000; stroke-width: 0.5"/>
      </g>
     </g>
    </g>
    <g id="ytick_21">
     <g id="line2d_108">
      <g>
       <use xlink:href="#m4a5eecce0d" x="52.98" y="80.764726" style="stroke: #000000; stroke-width: 0.5"/>
      </g>
     </g>
     <g id="line2d_109">
      <g>
       <use xlink:href="#m698c10c4a2" x="471.48" y="80.764726" style="stroke: #000000; stroke-width: 0.5"/>
      </g>
     </g>
    </g>
    <g id="ytick_22">
     <g id="line2d_110">
      <g>
       <use xlink:href="#m4a5eecce0d" x="52.98" y="69.019451" style="stroke: #000000; stroke-width: 0.5"/>
      </g>
     </g>
     <g id="line2d_111">
      <g>
       <use xlink:href="#m698c10c4a2" x="471.48" y="69.019451" style="stroke: #000000; stroke-width: 0.5"/>
      </g>
     </g>
    </g>
    <g id="ytick_23">
     <g id="line2d_112">
      <g>
       <use xlink:href="#m4a5eecce0d" x="52.98" y="57.274175" style="stroke: #000000; stroke-width: 0.5"/>
      </g>
     </g>
     <g id="line2d_113">
      <g>
       <use xlink:href="#m698c10c4a2" x="471.48" y="57.274175" style="stroke: #000000; stroke-width: 0.5"/>
      </g>
     </g>
    </g>
    <g id="ytick_24">
     <g id="line2d_114">
      <g>
       <use xlink:href="#m4a5eecce0d" x="52.98" y="45.5289" style="stroke: #000000; stroke-width: 0.5"/>
      </g>
     </g>
     <g id="line2d_115">
      <g>
       <use xlink:href="#m698c10c4a2" x="471.48" y="45.5289" style="stroke: #000000; stroke-width: 0.5"/>
      </g>
     </g>
    </g>
    <g id="text_13">
     <!-- Mean difference from exact -->
     <g transform="translate(13.161563 247.364625) rotate(-90) scale(0.14 -0.14)">
      <defs>
       <path id="STIXGeneral-Regular-4d" d="M 5530 0 
L 3738 0 
L 3738 122 
Q 4115 147 4214 265 
Q 4314 384 4314 787 
L 4314 3661 
L 2682 0 
L 2592 0 
L 979 3514 
L 979 966 
Q 979 448 1088 294 
Q 1197 141 1574 122 
L 1574 0 
L 77 0 
L 77 122 
Q 358 141 480 205 
Q 602 269 650 432 
Q 698 595 698 966 
L 698 3514 
Q 698 3878 589 3984 
Q 480 4090 90 4115 
L 90 4237 
L 1357 4237 
L 2835 1024 
L 4250 4237 
L 5523 4237 
L 5523 4115 
Q 5178 4109 5072 3993 
Q 4966 3878 4966 3520 
L 4966 717 
Q 4966 378 5072 262 
Q 5178 147 5530 122 
L 5530 0 
z
" transform="scale(0.015625)"/>
       <path id="STIXGeneral-Regular-61" d="M 2829 422 
L 2829 243 
Q 2586 -64 2253 -64 
Q 1888 -64 1843 403 
L 1837 403 
Q 1427 -64 909 -64 
Q 608 -64 422 112 
Q 237 288 237 602 
Q 237 1050 685 1350 
Q 992 1555 1837 1869 
L 1837 2214 
Q 1837 2502 1699 2646 
Q 1562 2790 1338 2790 
Q 1146 2790 1018 2697 
Q 890 2605 890 2477 
Q 890 2419 909 2348 
Q 928 2278 928 2208 
Q 928 2112 841 2029 
Q 755 1946 634 1946 
Q 525 1946 441 2029 
Q 358 2112 358 2240 
Q 358 2547 685 2752 
Q 986 2944 1421 2944 
Q 1939 2944 2176 2656 
Q 2291 2522 2323 2384 
Q 2355 2246 2355 1946 
L 2355 723 
Q 2355 301 2554 301 
Q 2682 301 2829 422 
z
M 1837 813 
L 1837 1715 
Q 1248 1510 1018 1293 
Q 800 1094 800 800 
Q 800 557 921 432 
Q 1043 307 1242 307 
Q 1453 307 1613 410 
Q 1747 506 1792 589 
Q 1837 672 1837 813 
z
" transform="scale(0.015625)"/>
       <path id="STIXGeneral-Regular-6e" d="M 3104 0 
L 1773 0 
L 1779 96 
Q 2016 115 2096 233 
Q 2176 352 2176 672 
L 2176 1946 
Q 2176 2592 1709 2592 
Q 1549 2592 1408 2515 
Q 1267 2438 1050 2227 
L 1050 461 
Q 1050 269 1136 192 
Q 1222 115 1466 96 
L 1466 0 
L 115 0 
L 115 96 
Q 358 115 435 214 
Q 512 314 512 602 
L 512 2157 
Q 512 2394 467 2483 
Q 422 2573 288 2573 
Q 160 2573 102 2547 
L 102 2656 
Q 550 2784 979 2944 
L 1030 2925 
L 1030 2426 
L 1037 2426 
Q 1491 2944 1958 2944 
Q 2323 2944 2518 2688 
Q 2714 2432 2714 1958 
L 2714 544 
Q 2714 288 2790 205 
Q 2867 122 3104 96 
L 3104 0 
z
" transform="scale(0.015625)"/>
       <path id="STIXGeneral-Regular-20" transform="scale(0.015625)"/>
       <path id="STIXGeneral-Regular-64" d="M 3142 269 
L 2202 -64 
L 2176 -45 
L 2176 365 
Q 1869 -64 1357 -64 
Q 826 -64 499 317 
Q 173 698 173 1312 
Q 173 1990 563 2467 
Q 954 2944 1504 2944 
Q 1850 2944 2176 2669 
L 2176 3667 
Q 2176 3866 2118 3930 
Q 2061 3994 1882 3994 
Q 1792 3994 1741 3987 
L 1741 4090 
Q 2323 4243 2682 4371 
L 2714 4358 
L 2714 730 
Q 2714 506 2768 435 
Q 2822 365 2995 365 
Q 3034 365 3142 371 
L 3142 269 
z
M 2176 653 
L 2176 2125 
Q 2176 2381 1981 2573 
Q 1786 2765 1523 2765 
Q 1158 2765 940 2438 
Q 723 2112 723 1568 
Q 723 979 963 624 
Q 1203 269 1606 269 
Q 1907 269 2080 474 
Q 2176 582 2176 653 
z
" transform="scale(0.015625)"/>
       <path id="STIXGeneral-Regular-66" d="M 134 2880 
L 659 2880 
Q 666 3264 710 3478 
Q 755 3693 883 3910 
Q 1152 4371 1786 4371 
Q 2074 4371 2262 4259 
Q 2451 4147 2451 3974 
Q 2451 3866 2374 3789 
Q 2298 3712 2182 3712 
Q 2029 3712 1894 3942 
Q 1741 4192 1555 4192 
Q 1197 4192 1197 3622 
L 1197 2880 
L 1978 2880 
L 1978 2675 
L 1197 2675 
L 1197 666 
Q 1197 307 1299 208 
Q 1402 109 1792 96 
L 1792 0 
L 128 0 
L 128 96 
Q 474 115 566 214 
Q 659 314 659 666 
L 659 2675 
L 134 2675 
L 134 2880 
z
" transform="scale(0.015625)"/>
       <path id="STIXGeneral-Regular-72" d="M 1024 2931 
L 1024 2342 
Q 1267 2688 1430 2816 
Q 1594 2944 1792 2944 
Q 1958 2944 2051 2854 
Q 2144 2765 2144 2605 
Q 2144 2470 2077 2393 
Q 2010 2317 1894 2317 
Q 1773 2317 1638 2445 
Q 1536 2541 1472 2541 
Q 1338 2541 1181 2355 
Q 1024 2170 1024 2016 
L 1024 576 
Q 1024 301 1133 205 
Q 1242 109 1568 96 
L 1568 0 
L 32 0 
L 32 96 
Q 339 154 412 224 
Q 486 294 486 538 
L 486 2138 
Q 486 2349 438 2435 
Q 390 2522 269 2522 
Q 166 2522 45 2496 
L 45 2598 
Q 448 2726 992 2944 
L 1024 2931 
z
" transform="scale(0.015625)"/>
       <path id="STIXGeneral-Regular-63" d="M 2547 998 
L 2637 941 
Q 2362 403 2112 205 
Q 1786 -64 1376 -64 
Q 845 -64 502 336 
Q 160 736 160 1357 
Q 160 2170 698 2618 
Q 1094 2944 1562 2944 
Q 1965 2944 2256 2749 
Q 2547 2554 2547 2285 
Q 2547 2176 2457 2096 
Q 2368 2016 2246 2016 
Q 2022 2016 1939 2310 
L 1901 2451 
Q 1850 2630 1773 2694 
Q 1696 2758 1523 2758 
Q 1133 2758 893 2451 
Q 653 2144 653 1645 
Q 653 1094 928 745 
Q 1203 397 1645 397 
Q 1920 397 2118 528 
Q 2317 659 2547 998 
z
" transform="scale(0.015625)"/>
       <path id="STIXGeneral-Regular-6f" d="M 3008 1478 
Q 3008 806 2608 371 
Q 2208 -64 1568 -64 
Q 979 -64 582 368 
Q 186 800 186 1459 
Q 186 2125 582 2534 
Q 979 2944 1626 2944 
Q 2221 2944 2614 2537 
Q 3008 2131 3008 1478 
z
M 2432 1306 
Q 2432 2035 2112 2445 
Q 1856 2765 1504 2765 
Q 1171 2765 966 2493 
Q 762 2221 762 1747 
Q 762 928 1101 435 
Q 1318 115 1677 115 
Q 2029 115 2230 432 
Q 2432 749 2432 1306 
z
" transform="scale(0.015625)"/>
       <path id="STIXGeneral-Regular-78" d="M 3066 0 
L 1779 0 
L 1779 96 
Q 1939 109 1987 137 
Q 2035 166 2035 250 
Q 2035 307 1997 365 
L 1414 1261 
L 909 474 
Q 781 275 781 211 
Q 781 96 1037 96 
L 1037 0 
L 109 0 
L 109 96 
Q 269 109 355 169 
Q 442 230 576 422 
L 1306 1478 
L 704 2400 
Q 557 2624 454 2704 
Q 352 2784 211 2784 
L 154 2784 
L 154 2880 
L 1478 2880 
L 1478 2784 
Q 1203 2778 1203 2643 
Q 1203 2509 1498 2074 
Q 1581 1958 1587 1946 
Q 1619 1990 1779 2227 
Q 1811 2285 1856 2349 
Q 1901 2413 1923 2451 
Q 1946 2490 1971 2528 
Q 1997 2566 2006 2595 
Q 2016 2624 2016 2643 
Q 2016 2765 1760 2784 
L 1760 2880 
L 2771 2880 
L 2771 2784 
Q 2445 2771 2253 2502 
L 1722 1734 
L 2541 480 
Q 2790 96 3066 96 
L 3066 0 
z
" transform="scale(0.015625)"/>
       <path id="STIXGeneral-Regular-74" d="M 1702 493 
L 1786 422 
Q 1478 -64 1011 -64 
Q 448 -64 448 749 
L 448 2675 
L 109 2675 
Q 83 2694 83 2720 
Q 83 2771 192 2842 
Q 435 2982 813 3526 
Q 826 3546 874 3606 
Q 922 3667 941 3706 
Q 986 3706 986 3622 
L 986 2880 
L 1632 2880 
L 1632 2675 
L 986 2675 
L 986 845 
Q 986 538 1062 403 
Q 1139 269 1318 269 
Q 1510 269 1702 493 
z
" transform="scale(0.015625)"/>
      </defs>
      <use xlink:href="#STIXGeneral-Regular-4d"/>
      <use xlink:href="#STIXGeneral-Regular-65" transform="translate(88.899994 0)"/>
      <use xlink:href="#STIXGeneral-Regular-61" transform="translate(133.299988 0)"/>
      <use xlink:href="#STIXGeneral-Regular-6e" transform="translate(177.699982 0)"/>
      <use xlink:href="#STIXGeneral-Regular-20" transform="translate(227.699966 0)"/>
      <use xlink:href="#STIXGeneral-Regular-64" transform="translate(252.699951 0)"/>
      <use xlink:href="#STIXGeneral-Regular-69" transform="translate(302.699936 0)"/>
      <use xlink:href="#STIXGeneral-Regular-66" transform="translate(330.499924 0)"/>
      <use xlink:href="#STIXGeneral-Regular-66" transform="translate(363.799911 0)"/>
      <use xlink:href="#STIXGeneral-Regular-65" transform="translate(397.099899 0)"/>
      <use xlink:href="#STIXGeneral-Regular-72" transform="translate(441.499893 0)"/>
      <use xlink:href="#STIXGeneral-Regular-65" transform="translate(474.799881 0)"/>
      <use xlink:href="#STIXGeneral-Regular-6e" transform="translate(519.199875 0)"/>
      <use xlink:href="#STIXGeneral-Regular-63" transform="translate(569.19986 0)"/>
      <use xlink:href="#STIXGeneral-Regular-65" transform="translate(613.599854 0)"/>
      <use xlink:href="#STIXGeneral-Regular-20" transform="translate(657.999847 0)"/>
      <use xlink:href="#STIXGeneral-Regular-66" transform="translate(682.999832 0)"/>
      <use xlink:href="#STIXGeneral-Regular-72" transform="translate(716.29982 0)"/>
      <use xlink:href="#STIXGeneral-Regular-6f" transform="translate(749.599808 0)"/>
      <use xlink:href="#STIXGeneral-Regular-6d" transform="translate(799.599792 0)"/>
      <use xlink:href="#STIXGeneral-Regular-20" transform="translate(877.39978 0)"/>
      <use xlink:href="#STIXGeneral-Regular-65" transform="translate(902.399765 0)"/>
      <use xlink:href="#STIXGeneral-Regular-78" transform="translate(946.799759 0)"/>
      <use xlink:href="#STIXGeneral-Regular-61" transform="translate(996.799744 0)"/>
      <use xlink:href="#STIXGeneral-Regular-63" transform="translate(1041.199738 0)"/>
      <use xlink:href="#STIXGeneral-Regular-74" transform="translate(1085.599731 0)"/>
     </g>
    </g>
   </g>
   <g id="line2d_116">
    <path d="M 72.002727 300.464 
L 76.416 292.055016 
L 80.829273 284.119878 
L 85.318636 276.506553 
L 89.808 269.32942 
L 94.373455 262.452217 
L 98.938909 255.975511 
L 103.580455 249.777388 
L 108.222 243.94605 
L 112.939636 238.372613 
L 117.733364 233.052377 
L 122.603182 227.980194 
L 127.549091 223.150511 
L 132.571091 218.557418 
L 137.669182 214.194691 
L 142.843364 210.055842 
L 148.169727 206.079282 
L 153.648273 202.269395 
L 159.202909 198.676713 
L 164.909727 195.24884 
L 170.768727 191.98707 
L 176.856 188.854008 
L 183.095455 185.892446 
L 189.563182 183.068402 
L 196.259182 180.3869 
L 203.259545 177.82472 
L 210.564273 175.39093 
L 218.173364 173.09232 
L 226.162909 170.913819 
L 234.532909 168.864101 
L 243.359455 166.933429 
L 252.718636 165.11671 
L 262.610455 163.424634 
L 273.187091 161.84294 
L 284.524636 160.374665 
L 296.775273 159.015729 
L 310.015091 157.773343 
L 324.548455 156.636778 
L 340.527545 155.613857 
L 358.332818 154.700548 
L 378.496909 153.89411 
L 401.628545 153.197415 
L 428.793 152.608658 
L 452.457273 152.241867 
L 452.457273 152.241867 
" clip-path="url(#p5e1f18a0c7)" style="fill: none; stroke: #2ca02c; stroke-width: 2.2; stroke-linecap: square"/>
   </g>
   <g id="line2d_117">
    <path d="M 52.98 151.236379 
L 471.48 151.236379 
" clip-path="url(#p5e1f18a0c7)" style="fill: none; stroke: #000000; stroke-opacity: 0.6; stroke-linecap: square"/>
   </g>
   <g id="patch_3">
    <path d="M 52.98 313.568 
L 52.98 25.28 
" style="fill: none; stroke: #000000; stroke-width: 0.5; stroke-linejoin: miter; stroke-linecap: square"/>
   </g>
   <g id="patch_4">
    <path d="M 471.48 313.568 
L 471.48 25.28 
" style="fill: none; stroke: #000000; stroke-width: 0.5; stroke-linejoin: miter; stroke-linecap: square"/>
   </g>
   <g id="patch_5">
    <path d="M 52.98 313.568 
L 471.48 313.568 
" style="fill: none; stroke: #000000; stroke-width: 0.5; stroke-linejoin: miter; stroke-linecap: square"/>
   </g>
   <g id="patch_6">
    <path d="M 52.98 25.28 
L 471.48 25.28 
" style="fill: none; stroke: #000000; stroke-width: 0.5; stroke-linejoin: miter; stroke-linecap: square"/>
   </g>
   <g id="line2d_118">
    <path d="M 72.002727 151.236379 
L 72.078818 145.366677 
L 72.154909 157.120754 
L 72.307091 145.41066 
L 72.383182 145.437027 
L 72.459273 145.469238 
L 72.535364 151.379923 
L 72.763636 139.783759 
L 72.839727 139.845099 
L 72.915818 134.039609 
L 72.991909 139.985198 
L 73.068 134.191308 
L 73.220182 140.238808 
L 73.296273 140.334911 
L 73.524545 128.912564 
L 73.600636 129.031728 
L 73.676727 135.029279 
L 73.752818 129.2873 
L 73.828909 135.296336 
L 74.057182 123.994631 
L 74.133273 124.153928 
L 74.437636 101.357612 
L 74.513727 107.418043 
L 74.589818 101.738879 
L 74.665909 101.93803 
L 74.742 102.142851 
L 75.046364 126.50928 
L 75.350727 109.857524 
L 75.426818 115.985764 
L 75.502909 110.374344 
L 75.655091 128.531511 
L 75.807273 117.34788 
L 76.111636 136.156071 
L 76.568182 102.872468 
L 76.644273 103.217228 
L 76.720364 103.567514 
L 76.872545 110.157275 
L 77.253 88.555838 
L 77.481273 101.500398 
L 77.633455 90.581979 
L 77.709545 108.621503 
L 77.785636 103.175925 
L 77.861727 103.608427 
L 77.937818 98.173729 
L 78.013909 98.617101 
L 78.09 99.0659 
L 78.242182 88.234479 
L 78.318273 88.699524 
L 78.394364 89.169975 
L 78.622636 78.868426 
L 78.698727 85.23308 
L 79.231364 47.719009 
L 79.307455 48.253898 
L 79.535727 61.635831 
L 79.611818 62.192028 
L 79.687909 74.498815 
L 79.764 69.192997 
L 80.068364 89.131168 
L 80.296636 79.181566 
L 80.448818 86.277659 
L 80.601 87.522136 
L 80.753182 94.660232 
L 81.438 100.613307 
L 81.514091 118.918681 
L 81.590182 113.738687 
L 81.666273 120.309146 
L 81.742364 115.139501 
L 81.818455 121.720299 
L 81.894545 116.560984 
L 82.046727 123.875731 
L 82.198909 113.593151 
L 82.275 114.332205 
L 82.351091 115.07639 
L 82.427182 109.953064 
L 82.503273 110.707496 
L 82.579364 111.467043 
L 82.655455 106.359064 
L 82.731545 107.128828 
L 82.807636 113.776329 
L 82.959818 103.596062 
L 83.112 111.054049 
L 83.264182 100.914421 
L 83.340273 101.724845 
L 83.416364 108.412966 
L 83.492455 103.360867 
L 83.568545 104.186454 
L 83.720727 111.725396 
L 83.796818 112.566102 
L 83.949 120.135235 
L 84.101182 110.106532 
L 84.405545 131.217663 
L 84.481636 132.103454 
L 84.633818 145.635258 
L 84.862091 136.607071 
L 84.938182 149.267968 
L 85.014273 144.315907 
L 85.166455 146.171903 
L 85.242545 141.234676 
L 85.318636 142.175021 
L 86.079545 151.8488 
L 86.231727 142.097007 
L 86.383909 155.855248 
L 86.46 150.996387 
L 86.536091 152.015021 
L 86.688273 171.684752 
L 86.764364 184.463201 
L 86.840455 179.628574 
L 87.220909 161.400465 
L 87.297 168.340034 
L 87.449182 158.743028 
L 87.525273 159.824355 
L 87.601364 166.783109 
L 87.677455 162.001372 
L 87.753545 168.969689 
L 87.829636 164.197506 
L 87.905727 165.30273 
L 87.981818 172.285357 
L 88.057909 167.527469 
L 88.134 168.646974 
L 88.210091 169.771229 
L 88.438364 161.427178 
L 88.666636 176.616264 
L 88.742727 177.773642 
L 88.818818 173.063096 
L 88.894909 180.102533 
L 88.971 175.401398 
L 89.199273 190.689356 
L 89.275364 191.879626 
L 89.579727 220.17801 
L 89.884091 207.442511 
L 90.036273 221.656869 
L 90.112364 217.025725 
L 90.340636 238.395874 
L 90.873273 212.076573 
L 90.949364 213.36873 
L 91.177636 205.527376 
L 91.253727 212.710457 
L 91.558091 200.379867 
L 91.634182 207.585701 
L 91.786364 198.520425 
L 91.862455 199.86722 
L 92.014636 202.574375 
L 92.623364 172.474752 
L 92.699455 173.871058 
L 92.775545 169.3992 
L 92.851636 170.80445 
L 92.927727 172.214165 
L 93.079909 180.919609 
L 93.460364 164.588904 
L 93.612545 167.483881 
L 94.373455 129.369562 
L 94.449545 130.867649 
L 94.525636 126.49747 
L 94.601727 128.004297 
L 94.753909 131.031037 
L 94.906091 139.947835 
L 94.982182 135.603798 
L 95.058273 137.136742 
L 95.286545 153.506855 
L 95.667 137.8108 
L 95.743091 139.382625 
L 95.895273 148.411806 
L 96.275727 127.014974 
L 96.351818 134.493707 
L 96.656182 123.342773 
L 96.732273 124.970147 
L 96.884455 116.492345 
L 96.960545 129.877711 
L 97.036636 125.649395 
L 97.188818 128.950711 
L 97.569273 113.78719 
L 97.721455 117.147408 
L 97.873636 126.397017 
L 97.949727 128.091775 
L 98.330182 113.137566 
L 98.406273 114.857316 
L 98.482364 110.708579 
L 98.634545 120.041454 
L 98.786727 123.518245 
L 98.862818 131.135476 
L 98.938909 127.011557 
L 99.167182 149.900341 
L 99.243273 151.665522 
L 99.547636 141.149348 
L 99.623727 142.935015 
L 99.699818 138.85213 
L 99.775909 140.645963 
L 99.852 148.316511 
L 100.080273 136.116747 
L 100.156364 137.930924 
L 100.308545 153.316717 
L 100.612909 143.028387 
L 100.765091 134.972113 
L 100.841182 136.822651 
L 100.917273 132.804572 
L 101.069455 136.525734 
L 101.145545 132.519691 
L 101.297727 136.264889 
L 101.373818 132.270846 
L 101.449909 134.153433 
L 101.602091 126.185292 
L 101.678182 128.079831 
L 101.830364 120.135559 
L 101.906455 127.914652 
L 102.058636 119.994177 
L 102.134727 121.912513 
L 102.743455 90.420055 
L 102.819545 98.246458 
L 102.895636 94.331503 
L 102.971727 96.293098 
L 103.047818 92.385965 
L 103.2 96.328685 
L 103.276091 92.433256 
L 103.352182 100.286995 
L 103.428273 96.399349 
L 103.504364 98.388226 
L 103.732636 86.760219 
L 103.808727 88.7646 
L 103.884818 84.90021 
L 104.189182 92.971786 
L 104.341364 85.285395 
L 104.417455 93.193237 
L 104.645727 81.703932 
L 104.874 87.866957 
L 105.178364 72.647131 
L 105.254455 74.724316 
L 105.406636 84.762698 
L 106.091455 50.841782 
L 106.167545 52.964239 
L 106.395818 41.736173 
L 106.471909 55.618876 
L 106.548 51.8874 
L 106.700182 44.435633 
L 106.852364 48.744029 
L 106.928455 45.031164 
L 107.156727 51.532732 
L 107.385 63.940237 
L 107.461091 66.125909 
L 107.765455 51.414858 
L 107.917636 55.826646 
L 108.069818 48.507811 
L 108.298091 55.174879 
L 108.450273 47.892547 
L 108.602455 52.37004 
L 108.830727 41.495584 
L 109.059 54.144253 
L 109.211182 46.934381 
L 109.287273 49.207486 
L 109.515545 38.430461 
L 109.667727 43.008994 
L 109.743818 39.430994 
L 109.819909 47.601846 
L 109.896 44.030995 
L 110.048182 48.645272 
L 110.124273 45.085118 
L 110.352545 63.789179 
L 110.428636 60.243237 
L 110.580818 70.779894 
L 110.885182 56.6598 
L 111.037364 61.36618 
L 111.265636 50.834198 
L 111.341727 59.075828 
L 111.417818 55.575685 
L 111.646091 45.096231 
L 111.722182 47.482698 
L 111.798273 44.000012 
L 111.874364 46.393444 
L 111.950455 42.917716 
L 112.026545 45.3181 
L 112.178727 38.384 
L 112.407 51.499369 
L 112.559182 56.345129 
L 112.787455 69.512245 
L 112.863545 71.950614 
L 112.939636 80.265054 
L 113.015727 76.837647 
L 113.091818 73.413666 
L 113.167909 75.865745 
L 113.396182 94.987757 
L 113.472273 91.580853 
L 113.548364 94.049992 
L 113.700545 116.616385 
L 114.004909 103.063507 
L 114.081 111.429025 
L 114.157091 108.052646 
L 114.233182 110.552279 
L 114.385364 103.81638 
L 114.461455 106.326117 
L 114.765818 128.143919 
L 114.841909 124.797791 
L 114.918 127.327644 
L 115.070182 120.652097 
L 115.146273 123.191964 
L 115.222364 119.862525 
L 115.298455 122.409051 
L 115.450636 115.766798 
L 115.602818 120.883091 
L 115.678909 117.573569 
L 115.755 120.139992 
L 115.831091 116.837082 
L 116.059364 130.438697 
L 116.363727 117.299512 
L 116.439818 119.895558 
L 116.592 113.352195 
L 116.668091 115.958056 
L 116.744182 112.694544 
L 116.820273 115.306931 
L 116.972455 126.414117 
L 117.048545 123.163632 
L 117.124636 125.789035 
L 117.276818 119.304298 
L 117.352909 121.939428 
L 117.733364 105.800361 
L 117.885545 111.11257 
L 117.961636 107.900859 
L 118.037727 110.564996 
L 118.189909 104.157611 
L 118.266 106.831358 
L 118.418182 118.06108 
L 118.798636 102.146385 
L 118.874727 104.845622 
L 119.026909 98.508332 
L 119.103 107.089712 
L 119.179091 103.928979 
L 119.331273 109.362263 
L 119.407364 106.210998 
L 119.635636 126.139278 
L 120.320455 98.003786 
L 120.472636 103.531043 
L 120.624818 114.943362 
L 120.700909 111.845215 
L 120.929182 126.059895 
L 121.005273 128.846754 
L 121.081364 125.76406 
L 121.157455 128.557085 
L 121.385727 119.336702 
L 121.461818 122.142021 
L 121.537909 130.823043 
L 121.614 127.761852 
L 121.690091 124.703721 
L 121.766182 127.521285 
L 121.918364 121.420293 
L 121.994455 130.119646 
L 122.070545 127.076768 
L 122.222727 121.000132 
L 122.374909 132.55355 
L 122.603182 123.479519 
L 122.679273 126.333525 
L 122.983636 155.3976 
L 123.059727 152.394023 
L 123.211909 158.141147 
L 123.288 166.891843 
L 123.364091 163.900256 
L 123.440182 160.911659 
L 123.516273 163.798687 
L 123.744545 154.859752 
L 123.820636 157.758698 
L 123.896727 154.78798 
L 124.048909 160.600722 
L 124.125 157.638902 
L 124.201091 160.55268 
L 124.277182 169.342054 
L 124.353273 166.389106 
L 124.429364 163.439109 
L 124.505455 166.364699 
L 124.809818 154.605934 
L 124.885909 169.291498 
L 124.962 166.36208 
L 125.114182 172.257299 
L 125.266364 166.418931 
L 125.418545 172.337504 
L 125.646818 187.109823 
L 125.799 193.057456 
L 125.951182 187.271398 
L 126.027273 190.255344 
L 126.179455 184.486618 
L 126.255545 187.479216 
L 126.559909 175.987816 
L 126.636 178.994779 
L 126.712091 176.131968 
L 126.864273 182.160203 
L 127.168636 170.760368 
L 127.244727 173.790165 
L 127.549091 162.447186 
L 127.625182 165.491162 
L 127.701273 162.665326 
L 127.777364 165.714953 
L 127.929545 160.077394 
L 128.005636 163.135477 
L 128.081727 160.323736 
L 128.157818 163.387443 
L 128.31 181.268552 
L 128.462182 175.670318 
L 128.614364 181.828544 
L 128.842636 173.468894 
L 128.994818 179.654986 
L 129.223091 171.33703 
L 129.299182 174.442557 
L 129.375273 171.678211 
L 129.451364 174.789266 
L 129.527455 172.030444 
L 129.679636 178.266344 
L 129.984 167.280595 
L 130.060091 170.413654 
L 130.212273 164.94271 
L 130.288364 168.083976 
L 130.592727 157.185762 
L 130.668818 166.213289 
L 130.744909 163.498256 
L 130.973182 155.36943 
L 131.049273 158.537873 
L 131.125364 155.836382 
L 131.201455 159.010229 
L 131.581909 145.556681 
L 131.658 148.746672 
L 131.734091 146.066706 
L 131.810182 149.262057 
L 132.495 125.286572 
L 132.647182 131.733202 
L 132.799364 126.445143 
L 132.875455 135.550353 
L 132.951545 132.912926 
L 133.027636 130.278134 
L 133.103727 133.518614 
L 133.484182 120.397236 
L 133.636364 132.78494 
L 133.788545 127.565181 
L 133.864636 130.831852 
L 134.092909 123.029567 
L 134.169 126.306641 
L 134.321182 121.123292 
L 134.473364 127.695576 
L 134.549455 125.112957 
L 134.701636 137.573374 
L 134.853818 132.426182 
L 134.929909 135.729082 
L 135.082091 130.597309 
L 135.386455 155.600329 
L 135.462545 158.921154 
L 135.843 146.200298 
L 135.919091 149.536388 
L 135.995182 147.002376 
L 136.071273 150.343534 
L 136.223455 145.288163 
L 136.299545 148.636904 
L 136.375636 146.11553 
L 136.451727 149.469314 
L 136.908273 134.408973 
L 137.060455 141.154182 
L 137.440909 128.697679 
L 137.517 132.086481 
L 137.745273 124.64986 
L 137.973545 134.853429 
L 138.354 122.54551 
L 138.430091 125.963941 
L 138.506182 123.512186 
L 138.734455 133.789529 
L 138.810545 131.347562 
L 138.962727 138.216222 
L 139.191 130.919564 
L 139.267091 134.364842 
L 139.419273 129.5174 
L 139.723636 143.342102 
L 139.799727 140.931675 
L 139.875818 144.396295 
L 140.028 139.587477 
L 140.104091 143.05931 
L 140.332364 135.871284 
L 140.408455 145.225339 
L 140.484545 142.836509 
L 140.712818 135.684333 
L 140.865 142.673398 
L 141.017182 137.926691 
L 141.169364 144.934743 
L 141.397636 161.337199 
L 141.473727 158.979222 
L 141.549818 162.49624 
L 141.625909 160.142975 
L 141.702 163.664699 
L 142.386818 142.611935 
L 142.462909 146.157052 
L 142.615091 141.508985 
L 142.691182 145.061074 
L 143.071636 133.493072 
L 143.147727 137.059042 
L 143.223818 134.75468 
L 143.299909 138.325258 
L 143.528182 131.432878 
L 143.680364 138.594707 
L 143.984727 129.455268 
L 144.060818 133.048753 
L 144.136909 130.771878 
L 144.213 134.369916 
L 144.365182 129.827536 
L 144.441273 133.432388 
L 144.669545 126.642621 
L 144.897818 137.491106 
L 145.05 132.989424 
L 145.202182 140.242011 
L 145.278273 137.999034 
L 145.354364 141.630937 
L 145.506545 137.156184 
L 145.658727 144.435646 
L 145.887 137.753652 
L 145.963091 147.276046 
L 146.039182 145.055388 
L 146.191364 152.366002 
L 146.343545 147.940201 
L 146.419636 151.603255 
L 146.952273 136.197886 
L 147.028364 139.878547 
L 147.104455 137.688761 
L 147.180545 147.246439 
L 147.256636 145.061028 
L 147.332727 142.877801 
L 147.408818 146.569394 
L 147.865364 133.528829 
L 148.017545 140.944608 
L 148.398 130.158675 
L 148.550182 143.477292 
L 148.930636 132.766596 
L 149.006727 136.503514 
L 149.082818 134.369928 
L 149.158909 138.111113 
L 149.387182 131.729528 
L 149.463273 135.479221 
L 150.072 118.571877 
L 150.224182 126.111408 
L 150.528545 117.725112 
L 150.680727 125.289803 
L 150.756818 134.947919 
L 150.832909 132.862846 
L 150.909 130.779857 
L 150.985091 134.571587 
L 151.061182 132.49276 
L 151.137273 136.288648 
L 151.289455 132.141374 
L 151.441636 139.747662 
L 152.202545 119.176439 
L 152.354727 126.832098 
L 152.506909 122.750652 
L 152.583 126.585626 
L 152.659091 136.295275 
L 152.735182 134.261682 
L 152.811273 138.10276 
L 153.115636 129.996806 
L 153.191727 133.848016 
L 153.496091 125.78249 
L 153.572182 129.643782 
L 153.724364 125.62712 
L 153.800455 135.367075 
L 153.876545 133.363759 
L 153.952636 137.235082 
L 154.028727 135.235769 
L 154.104818 139.111091 
L 154.257 152.740361 
L 154.789636 138.842762 
L 154.865727 148.610596 
L 154.941818 146.63513 
L 155.017909 150.534277 
L 155.094 148.562759 
L 155.170091 152.465849 
L 155.246182 150.49827 
L 155.322273 154.405295 
L 155.702727 144.606662 
L 155.778818 148.525446 
L 155.854909 146.573545 
L 155.931 150.496232 
L 156.615818 133.034149 
L 156.691909 136.976239 
L 156.768 135.04762 
L 156.844091 138.993567 
L 156.996273 135.145961 
L 157.072364 139.097679 
L 157.528909 127.612415 
L 157.681091 135.544557 
L 158.213727 122.258487 
L 158.289818 126.240696 
L 158.594182 118.697855 
L 158.670273 122.689492 
L 158.822455 118.933129 
L 158.898545 122.9304 
L 158.974636 121.056908 
L 159.050727 125.057927 
L 159.202909 121.320299 
L 159.355091 129.335414 
L 159.507273 125.612706 
L 159.583364 129.62678 
L 160.039909 118.514344 
L 160.268182 136.47363 
L 160.496455 148.576847 
L 160.572545 146.742288 
L 160.724727 143.07867 
L 161.029091 153.391292 
L 161.257364 147.931468 
L 161.485636 154.233274 
L 161.561727 152.422411 
L 161.637818 156.485995 
L 161.713909 154.678749 
L 162.322636 140.285661 
L 162.627 156.622732 
L 162.703091 154.838829 
L 162.931364 149.497809 
L 163.083545 157.691296 
L 163.159636 155.918064 
L 163.235727 154.146604 
L 163.311818 164.122191 
L 163.387909 162.35427 
L 163.920545 150.028206 
L 163.996636 154.14701 
L 164.072727 152.39493 
L 164.224909 148.89602 
L 164.529273 159.537074 
L 164.605364 157.797215 
L 164.681455 161.931733 
L 164.757545 160.195351 
L 165.518455 142.926693 
L 165.594545 152.954582 
L 165.670636 151.238911 
L 165.975 144.39336 
L 166.051091 148.558885 
L 166.127182 146.853477 
L 166.279364 143.447775 
L 166.812 166.81714 
L 166.888091 165.128701 
L 166.964182 169.314589 
L 167.040273 167.629524 
L 167.268545 162.584429 
L 167.496818 169.299721 
L 167.725091 164.284806 
L 167.801182 168.489146 
L 167.877273 166.822515 
L 168.105545 161.832612 
L 168.257727 170.259592 
L 168.333818 168.602931 
L 168.409909 166.947926 
L 168.638182 185.483381 
L 168.714273 183.834983 
L 168.790364 188.06087 
L 168.866455 186.415766 
L 169.170818 179.851774 
L 169.246909 184.087512 
L 169.323 182.452249 
L 169.399091 180.81862 
L 169.475182 185.059261 
L 169.551273 183.428896 
L 169.627364 181.800161 
L 169.703455 186.045691 
L 169.779545 184.42021 
L 169.855636 182.796353 
L 169.931727 192.919395 
L 170.007818 191.298783 
L 170.16 188.062416 
L 170.236091 192.319296 
L 170.312182 190.705154 
L 170.540455 185.872399 
L 170.692636 206.149159 
L 170.768727 204.544673 
L 170.844818 202.94179 
L 170.920909 207.213146 
L 170.997 205.613466 
L 171.681818 191.288099 
L 171.834 199.867431 
L 171.910091 198.286832 
L 172.975364 176.323609 
L 173.203636 183.40235 
L 173.508 177.202043 
L 173.584091 181.528475 
L 173.660182 179.983815 
L 174.497182 163.094111 
L 174.573273 167.440513 
L 174.649364 165.915804 
L 174.725455 164.392618 
L 174.953727 171.577465 
L 175.029818 170.06036 
L 175.105909 174.417409 
L 175.182 172.903335 
L 175.334182 169.879726 
L 175.638545 187.34117 
L 175.714636 185.837658 
L 176.171182 176.848089 
L 176.247273 181.227702 
L 176.323364 179.73617 
L 176.932091 167.857456 
L 177.008182 178.124562 
L 177.084273 176.647871 
L 178.682182 145.976039 
L 178.758273 156.276756 
L 178.834364 154.833641 
L 179.214818 147.639673 
L 179.290909 152.077829 
L 179.367 150.644781 
L 179.519182 147.782979 
L 179.747455 155.24627 
L 180.356182 143.890249 
L 180.584455 151.400384 
L 180.736636 148.584007 
L 180.812727 153.050567 
L 180.888818 151.645895 
L 181.649727 137.676161 
L 181.801909 146.644214 
L 181.878 145.257685 
L 182.334545 136.967561 
L 182.410636 141.463341 
L 182.486727 140.087859 
L 182.562818 138.713753 
L 182.638909 143.213657 
L 182.715 141.842296 
L 183.475909 128.203844 
L 183.552 132.720122 
L 183.628091 131.365119 
L 183.704182 130.01147 
L 183.780273 134.531812 
L 183.856364 133.180867 
L 184.008545 130.483028 
L 184.084636 135.008768 
L 184.160727 133.663216 
L 184.389 129.634626 
L 184.465091 134.167084 
L 184.541182 132.828243 
L 184.769455 128.819745 
L 184.921636 137.899362 
L 184.997727 136.568531 
L 185.226 132.584012 
L 185.378182 141.679574 
L 185.454273 140.356704 
L 185.530364 139.035156 
L 185.910818 155.937753 
L 186.367364 148.075565 
L 186.595636 155.907402 
L 187.584818 139.084178 
L 187.660909 143.671758 
L 187.737 142.387984 
L 187.965273 138.544357 
L 188.041364 143.138345 
L 188.117455 141.860975 
L 188.269636 139.310062 
L 188.497909 147.238521 
L 188.726182 143.433139 
L 188.802273 148.03985 
L 188.878364 146.77519 
L 189.334909 139.213725 
L 189.411 143.830524 
L 189.487091 142.57594 
L 190.248 130.098863 
L 190.324091 134.730641 
L 190.400182 133.491023 
L 191.161091 121.162775 
L 191.541545 138.53528 
L 191.617636 137.315337 
L 191.769818 146.624384 
L 191.845909 145.408095 
L 191.998091 142.979164 
L 192.074182 147.639157 
L 192.150273 146.427724 
L 192.454636 141.594088 
L 192.530727 146.261335 
L 192.606818 145.057149 
L 192.987273 139.054248 
L 193.063364 143.729903 
L 193.139455 142.534117 
L 193.596 135.384457 
L 193.672091 140.069649 
L 193.748182 138.883391 
L 193.824273 137.698319 
L 194.052545 151.768117 
L 194.128636 150.587775 
L 194.889545 138.849051 
L 195.117818 147.095538 
L 195.498273 141.2875 
L 195.574364 146.002011 
L 195.650455 144.845042 
L 196.107 137.92747 
L 196.183091 142.651208 
L 196.259182 141.503458 
L 196.335273 140.356855 
L 196.411364 145.084035 
L 196.487455 143.939723 
L 196.639636 141.654528 
L 196.715727 146.386281 
L 196.791818 145.246537 
L 197.781 130.533113 
L 197.857091 135.281851 
L 197.933182 134.159076 
L 198.009273 133.037422 
L 198.085364 137.789527 
L 198.161455 136.670115 
L 198.389727 133.318586 
L 198.541909 148.707726 
L 198.694091 146.483406 
L 198.922364 143.155257 
L 198.998455 147.920728 
L 199.074545 146.814668 
L 199.455 141.30093 
L 199.531091 146.074124 
L 199.607182 144.97578 
L 199.759364 142.782384 
L 199.835455 147.559967 
L 199.911545 146.466007 
L 200.063727 144.281367 
L 200.292 152.757863 
L 201.281182 138.705926 
L 201.357273 143.505193 
L 201.433364 142.432895 
L 201.509455 141.361669 
L 201.585545 146.164151 
L 201.661636 145.095065 
L 202.346455 135.521249 
L 202.574727 144.094353 
L 203.868273 126.297364 
L 203.944364 137.00515 
L 204.020455 135.968697 
L 204.324818 131.833236 
L 204.400909 136.67459 
L 204.477 135.644338 
L 204.553091 134.615115 
L 204.629182 139.459558 
L 204.705273 138.432392 
L 205.085727 133.311939 
L 205.161818 138.163555 
L 205.237909 137.143554 
L 206.835818 115.957467 
L 206.911909 120.832298 
L 206.988 119.835489 
L 207.216273 116.851036 
L 207.292364 121.730844 
L 207.368455 120.739006 
L 207.977182 112.839912 
L 208.129364 122.620268 
L 208.205455 121.639281 
L 208.357636 119.680248 
L 208.433727 124.574837 
L 208.509818 123.597766 
L 208.966364 117.755815 
L 209.042455 122.658197 
L 209.118545 121.688912 
L 209.194636 120.720595 
L 209.270727 125.625884 
L 209.346818 124.659502 
L 209.422909 123.694086 
L 209.499 128.602272 
L 209.575091 127.638785 
L 210.031636 121.878051 
L 210.183818 131.71075 
L 210.259909 130.755896 
L 210.564273 126.946011 
L 210.640364 131.868556 
L 210.716455 130.919414 
L 210.868636 129.023973 
L 210.944727 133.950311 
L 211.020818 133.004958 
L 211.173 131.117084 
L 211.249091 141.919837 
L 211.325182 140.978257 
L 211.857818 134.413496 
L 211.933909 139.352057 
L 212.01 138.418913 
L 212.542636 131.91297 
L 212.694818 141.807754 
L 212.770909 140.883895 
L 212.847 139.96096 
L 213.151364 153.896347 
L 213.531818 149.313856 
L 213.607909 154.272741 
L 213.684 153.359903 
L 216.423273 121.09833 
L 216.575455 136.95776 
L 216.651545 136.079837 
L 216.879818 151.069242 
L 216.955909 150.194823 
L 217.184182 147.576808 
L 217.336364 157.581098 
L 217.412455 156.71191 
L 217.945091 150.651872 
L 218.021182 155.662248 
L 218.097273 154.800848 
L 219.314727 141.134953 
L 219.390818 146.160711 
L 219.466909 145.314677 
L 220.912636 129.399743 
L 220.988727 134.4431 
L 221.064818 133.614647 
L 221.140909 132.787023 
L 221.293091 142.879531 
L 221.369182 142.054386 
L 221.445273 141.230066 
L 221.597455 151.329171 
L 221.673545 150.50732 
L 221.901818 148.046692 
L 222.206182 162.39523 
L 222.434455 159.951767 
L 222.510545 165.011544 
L 222.586636 164.199496 
L 222.738818 162.577835 
L 222.814909 167.640857 
L 222.891 166.832051 
L 223.043182 165.216863 
L 223.119273 170.283118 
L 223.195364 169.47754 
L 223.880182 162.263481 
L 223.956273 167.338557 
L 224.032364 166.541792 
L 224.260636 164.156274 
L 224.336727 169.235327 
L 224.412818 168.442537 
L 224.565 166.859332 
L 224.793273 176.235729 
L 226.086818 162.945498 
L 226.162909 168.043371 
L 226.239 167.269381 
L 227.152091 158.041619 
L 227.228182 163.150263 
L 227.304273 162.387033 
L 227.456455 160.862861 
L 227.532545 171.847193 
L 227.608636 171.08701 
L 230.271818 144.953903 
L 230.347909 150.093237 
L 230.424 149.360667 
L 231.184909 142.075116 
L 231.261 147.223197 
L 231.337091 146.499365 
L 232.782818 132.883197 
L 232.858909 138.046336 
L 232.935 137.337546 
L 233.467636 132.395813 
L 233.619818 142.735507 
L 233.695909 142.033769 
L 233.924182 139.932763 
L 234.000273 145.106464 
L 234.076364 144.408227 
L 234.989455 136.083614 
L 235.065545 141.267033 
L 235.141636 140.578502 
L 236.130818 131.689985 
L 236.206909 136.883665 
L 236.283 136.205385 
L 236.739545 132.149922 
L 236.815636 137.349012 
L 236.891727 136.676137 
L 237.880909 127.989722 
L 237.957 133.19884 
L 238.033091 132.535983 
L 242.218091 97.081025 
L 242.674636 93.329866 
L 242.750727 98.579496 
L 242.826818 97.95711 
L 243.359455 93.617797 
L 243.511636 104.128838 
L 243.587727 103.512645 
L 245.413909 88.907386 
L 245.642182 98.851527 
L 245.870455 97.055788 
L 245.946545 102.331042 
L 246.022636 101.734256 
L 246.327 99.353069 
L 246.403091 104.631897 
L 246.479182 104.038681 
L 247.468364 96.380609 
L 247.620545 106.95653 
L 247.696636 106.37273 
L 248.077091 103.462469 
L 248.153182 108.754798 
L 248.229273 108.17507 
L 248.305364 107.595921 
L 248.381455 112.889989 
L 248.457545 112.311998 
L 249.066273 107.708815 
L 249.142364 113.008639 
L 249.218455 112.436399 
L 249.598909 109.583765 
L 249.675 114.887585 
L 249.751091 114.319336 
L 249.979364 112.617996 
L 250.055455 117.924653 
L 250.131545 117.359239 
L 252.109909 102.855179 
L 252.186 108.177464 
L 252.262091 107.627661 
L 252.718636 104.340367 
L 252.870818 114.994253 
L 252.946909 114.449377 
L 253.555636 110.109925 
L 253.631727 115.442568 
L 253.707818 114.903113 
L 254.164364 111.677688 
L 254.240455 117.014633 
L 254.316545 116.479477 
L 254.773091 113.279752 
L 254.849182 118.620966 
L 254.925273 118.090074 
L 256.142727 109.667603 
L 256.371 119.848612 
L 257.131909 114.668156 
L 257.208 120.025592 
L 257.284091 119.510904 
L 257.436273 118.483073 
L 257.512364 123.842565 
L 257.588455 123.329933 
L 258.045 120.26488 
L 258.121091 137.373736 
L 258.197182 136.865189 
L 259.871182 125.80484 
L 259.947273 131.180493 
L 260.023364 130.684005 
L 260.251636 129.197517 
L 260.327727 134.575649 
L 260.403818 134.081637 
L 260.556 133.095094 
L 260.632091 138.4752 
L 260.708182 137.98316 
L 261.621273 132.116905 
L 261.697364 137.503858 
L 261.773455 137.018659 
L 262.838727 130.276573 
L 262.914818 135.671235 
L 262.990909 135.193738 
L 264.512727 125.743378 
L 264.664909 136.553971 
L 264.741 136.08733 
L 265.273636 132.83388 
L 265.349727 138.243596 
L 265.425818 137.781136 
L 267.175909 127.27121 
L 267.252 132.692355 
L 267.328091 132.241314 
L 268.089 127.75562 
L 268.165091 133.18215 
L 268.241182 132.736489 
L 268.545545 130.958294 
L 268.621636 136.387493 
L 268.697727 135.944498 
L 271.360909 120.715475 
L 271.437 126.160782 
L 271.513091 125.733878 
L 272.121818 122.333971 
L 272.350091 132.811277 
L 272.426182 132.389465 
L 272.730545 148.324343 
L 273.415364 144.562038 
L 273.491455 150.018728 
L 273.567545 149.603196 
L 273.719727 148.773378 
L 273.795818 154.231729 
L 273.871909 153.817856 
L 274.632818 149.701809 
L 275.089364 176.615054 
L 278.97 156.373495 
L 279.046091 161.859467 
L 279.122182 161.473189 
L 281.481 149.688146 
L 281.557091 155.18667 
L 281.633182 154.812931 
L 283.611545 145.225734 
L 283.687636 150.734588 
L 283.763727 150.371168 
L 284.372455 147.476854 
L 284.448545 152.989328 
L 284.524636 152.629524 
L 285.057273 150.120946 
L 285.133364 155.636646 
L 285.209455 155.280066 
L 285.970364 151.733807 
L 286.046455 157.253766 
L 286.122545 156.901439 
L 286.350818 155.84657 
L 286.579091 166.540136 
L 286.807364 165.491578 
L 286.883455 171.015394 
L 286.959545 170.666922 
L 288.861818 162.067407 
L 288.937909 167.600516 
L 289.014 167.261326 
L 289.927091 163.217398 
L 290.003182 168.755227 
L 290.079273 168.420753 
L 292.057636 159.840799 
L 292.133727 165.387873 
L 292.209818 165.062634 
L 294.340364 156.086753 
L 294.416455 161.643449 
L 294.492545 161.327822 
L 295.253455 158.188857 
L 295.329545 163.749321 
L 295.405636 163.43746 
L 297.155727 156.350049 
L 297.231818 161.918221 
L 297.307909 161.614059 
L 297.764455 159.795463 
L 297.840545 165.366061 
L 297.916636 165.064323 
L 300.275455 155.858546 
L 300.351545 161.438949 
L 300.427636 161.147006 
L 301.188545 158.243575 
L 301.264636 163.827463 
L 301.340727 163.539002 
L 304.764818 150.852346 
L 304.840909 156.449491 
L 304.917 156.174275 
L 305.297455 154.802311 
L 305.373545 160.401378 
L 305.449636 160.128081 
L 308.265 150.20584 
L 308.493273 161.162584 
L 310.319455 154.938778 
L 310.395545 160.555318 
L 310.471636 160.299476 
L 314.732727 146.373077 
L 318.993818 133.205122 
L 319.450364 131.837512 
L 319.526455 137.483011 
L 319.602545 137.2561 
L 320.211273 135.448955 
L 320.439545 146.52027 
L 322.874455 139.455768 
L 322.950545 145.111262 
L 323.026636 144.894335 
L 323.407091 143.81295 
L 323.635364 154.911985 
L 325.918091 148.555098 
L 325.994182 154.219107 
L 326.070273 154.010686 
L 326.298545 153.386672 
L 326.374636 159.051721 
L 326.450727 158.84434 
L 326.983364 157.398463 
L 327.059455 163.065372 
L 327.135545 162.859849 
L 329.570455 156.390454 
L 329.646545 162.064241 
L 329.722636 161.865588 
L 332.157545 155.612456 
L 332.233636 161.292889 
L 332.309727 161.100877 
L 332.461909 160.717428 
L 332.538 166.398628 
L 332.614091 166.207383 
L 332.918455 165.444309 
L 332.994545 171.126655 
L 333.070636 170.936553 
L 333.755455 169.234166 
L 333.831545 174.918593 
L 333.907636 174.730571 
L 336.799091 167.723287 
L 336.875182 173.415094 
L 336.951273 173.234445 
L 338.701364 169.128975 
L 338.929636 180.345682 
L 343.266818 170.59838 
L 347.604 161.391137 
L 347.680091 161.234244 
L 347.756182 166.950147 
L 347.832273 166.793568 
L 348.136636 166.168816 
L 348.212727 171.885656 
L 348.288818 171.730014 
L 348.517091 171.26402 
L 348.593182 176.981637 
L 348.669273 176.826772 
L 353.082545 168.104436 
L 355.974 162.658061 
L 356.050091 168.390149 
L 356.126182 168.24974 
L 357.571909 165.608475 
L 357.648 171.343485 
L 357.724091 171.205993 
L 361.452545 164.634611 
L 361.528636 170.376463 
L 361.604727 170.245808 
L 366.094091 162.763911 
L 368.529 158.886831 
L 368.605091 164.640297 
L 368.681182 164.521246 
L 370.583455 161.583314 
L 370.659545 167.339955 
L 370.735636 167.224075 
L 375.301091 160.479095 
L 378.725182 155.679408 
L 378.801273 161.44782 
L 378.877364 161.343699 
L 382.986273 155.872983 
L 383.062364 161.647071 
L 383.138455 161.54862 
L 385.040727 159.119071 
L 385.116818 164.895784 
L 385.192909 164.799956 
L 385.345091 164.608586 
L 385.421182 170.385683 
L 385.497273 170.290237 
L 386.943 168.494783 
L 387.019091 174.273865 
L 387.095182 174.180402 
L 391.812818 168.564521 
L 396.606545 163.203771 
L 396.682636 163.121373 
L 396.758727 168.911695 
L 396.834818 168.829462 
L 397.976182 167.605781 
L 398.052273 173.397491 
L 398.128364 173.316644 
L 398.965364 172.432642 
L 399.041455 178.225397 
L 399.117545 178.145594 
L 402.922091 174.255509 
L 402.998182 180.052312 
L 403.074273 179.976552 
L 403.150364 179.900869 
L 403.226455 185.697899 
L 403.302545 185.622367 
L 403.606909 185.320992 
L 403.683 191.118474 
L 403.759091 191.043394 
L 408.705 186.320758 
L 411.976909 183.361078 
L 412.053 189.166389 
L 412.129091 189.099129 
L 415.477091 186.205319 
L 415.553182 192.013656 
L 415.629273 191.949421 
L 420.803455 187.728707 
L 426.053727 183.729449 
L 431.456182 179.892438 
L 437.010818 176.22136 
L 442.717636 172.718687 
L 448.576636 169.385742 
L 452.457273 167.31535 
L 452.457273 167.31535 
" clip-path="url(#p5e1f18a0c7)" style="fill: none; stroke: #ff7f0e; stroke-width: 1.9; stroke-linecap: square"/>
   </g>
   <g id="text_14">
    <!-- Mean Difference vs Time (Fock state $|1\rangle$, $\gamma=1$) -->
    <g transform="translate(106.63 19.28) scale(0.16 -0.16)">
     <defs>
      <path id="STIXGeneral-Regular-44" d="M 102 4237 
L 1830 4237 
Q 3078 4237 3750 3654 
Q 4384 3110 4384 2138 
Q 4384 966 3514 410 
Q 2880 0 1901 0 
L 102 0 
L 102 122 
Q 474 147 570 252 
Q 666 358 666 736 
L 666 3520 
Q 666 3891 570 3990 
Q 474 4090 102 4115 
L 102 4237 
z
M 1318 3731 
L 1318 538 
Q 1318 365 1379 301 
Q 1440 237 1626 237 
Q 2125 237 2432 307 
Q 2739 378 3021 570 
Q 3686 1018 3686 2099 
Q 3686 3027 3078 3558 
Q 2803 3802 2476 3901 
Q 2150 4000 1658 4000 
Q 1472 4000 1395 3942 
Q 1318 3885 1318 3731 
z
" transform="scale(0.015625)"/>
      <path id="STIXGeneral-Regular-76" d="M 3053 2880 
L 3053 2784 
Q 2906 2771 2835 2688 
Q 2765 2605 2637 2285 
L 1818 230 
Q 1690 -90 1638 -90 
Q 1587 -90 1523 77 
Q 1510 96 1497 141 
Q 1485 186 1472 211 
L 704 2048 
Q 499 2534 403 2652 
Q 307 2771 122 2784 
L 122 2880 
L 1376 2880 
L 1376 2784 
Q 1210 2771 1146 2732 
Q 1082 2694 1082 2611 
Q 1082 2509 1139 2368 
L 1792 730 
L 2426 2387 
Q 2464 2483 2464 2579 
Q 2464 2758 2163 2784 
L 2163 2880 
L 3053 2880 
z
" transform="scale(0.015625)"/>
      <path id="STIXGeneral-Regular-73" d="M 998 1926 
L 1664 1523 
Q 1984 1331 2105 1164 
Q 2227 998 2227 736 
Q 2227 416 1961 176 
Q 1696 -64 1331 -64 
Q 1030 -64 864 -6 
Q 691 51 570 51 
Q 461 51 416 -26 
L 333 -26 
L 333 979 
L 435 979 
Q 538 512 730 294 
Q 922 77 1248 77 
Q 1485 77 1632 211 
Q 1779 346 1779 550 
Q 1779 845 1440 1030 
L 1094 1222 
Q 326 1651 326 2150 
Q 326 2522 566 2730 
Q 806 2938 1210 2938 
Q 1491 2938 1638 2867 
Q 1754 2816 1818 2816 
Q 1862 2816 1920 2880 
L 1990 2880 
L 2022 2010 
L 1926 2010 
Q 1818 2445 1654 2621 
Q 1491 2797 1203 2797 
Q 986 2797 854 2688 
Q 723 2579 723 2362 
Q 723 2253 796 2128 
Q 870 2003 998 1926 
z
" transform="scale(0.015625)"/>
      <path id="STIXGeneral-Regular-28" d="M 1946 -1030 
L 1869 -1133 
Q 1126 -710 716 32 
Q 307 774 307 1613 
Q 307 3386 1888 4326 
L 1946 4224 
Q 1293 3667 1075 3126 
Q 858 2586 858 1632 
Q 858 685 1082 96 
Q 1306 -493 1946 -1030 
z
" transform="scale(0.015625)"/>
      <path id="STIXGeneral-Regular-46" d="M 3494 3322 
L 3334 3322 
Q 3264 3757 3094 3875 
Q 2925 3994 2349 3994 
L 1504 3994 
Q 1370 3994 1328 3946 
Q 1286 3898 1286 3744 
L 1286 2355 
L 2195 2355 
Q 2598 2355 2736 2470 
Q 2874 2586 2918 2963 
L 3066 2963 
L 3066 1472 
L 2918 1472 
Q 2880 1862 2745 1977 
Q 2611 2093 2195 2093 
L 1286 2093 
L 1286 717 
Q 1286 352 1392 246 
Q 1498 141 1869 122 
L 1869 0 
L 70 0 
L 70 122 
Q 435 147 534 259 
Q 634 371 634 787 
L 634 3526 
Q 634 3878 538 3984 
Q 442 4090 77 4115 
L 77 4237 
L 3462 4237 
L 3494 3322 
z
" transform="scale(0.015625)"/>
      <path id="STIXGeneral-Regular-6b" d="M 3232 0 
L 1837 0 
L 1837 96 
L 1958 96 
Q 2093 96 2093 192 
Q 2093 250 2022 339 
L 1062 1606 
L 1062 429 
Q 1062 262 1142 185 
Q 1222 109 1414 102 
L 1542 96 
L 1542 0 
L 45 0 
L 45 96 
Q 390 154 457 214 
Q 525 275 525 525 
L 525 3610 
Q 525 3840 467 3920 
Q 410 4000 250 4000 
Q 211 4000 45 3987 
L 45 4090 
L 237 4141 
Q 621 4243 1037 4371 
L 1062 4358 
L 1062 1670 
L 1939 2451 
Q 2086 2586 2086 2675 
Q 2086 2739 2019 2761 
Q 1952 2784 1766 2790 
L 1766 2880 
L 3072 2880 
L 3072 2784 
Q 2752 2784 2505 2646 
Q 2259 2509 1690 1978 
L 1504 1805 
L 2483 563 
Q 2829 122 3232 96 
L 3232 0 
z
" transform="scale(0.015625)"/>
      <path id="Cmsy10-6a" d="M 763 -1484 
L 763 4684 
Q 763 4734 800 4767 
Q 838 4800 891 4800 
Q 938 4800 978 4767 
Q 1019 4734 1019 4684 
L 1019 -1484 
Q 1019 -1534 978 -1567 
Q 938 -1600 891 -1600 
Q 838 -1600 800 -1567 
Q 763 -1534 763 -1484 
z
" transform="scale(0.015625)"/>
      <path id="Cmr10-31" d="M 594 0 
L 594 225 
Q 1394 225 1394 428 
L 1394 3788 
Q 1063 3628 556 3628 
L 556 3853 
Q 1341 3853 1741 4263 
L 1831 4263 
Q 1853 4263 1873 4245 
Q 1894 4228 1894 4206 
L 1894 428 
Q 1894 225 2694 225 
L 2694 0 
L 594 0 
z
" transform="scale(0.015625)"/>
      <path id="Cmex10-ae" d="M 500 -7297 
Q 500 -7263 513 -7250 
L 2119 -3584 
L 513 84 
Q 500 97 500 128 
Q 500 175 537 215 
Q 575 256 628 256 
Q 703 256 750 178 
L 2381 -3541 
Q 2388 -3553 2388 -3584 
Q 2388 -3616 2381 -3634 
L 750 -7347 
Q 700 -7425 628 -7425 
Q 575 -7425 537 -7384 
Q 500 -7344 500 -7297 
z
" transform="scale(0.015625)"/>
      <path id="STIXGeneral-Regular-2c" d="M 531 -902 
L 467 -781 
Q 998 -422 998 -96 
Q 998 -13 909 -13 
Q 883 -13 822 -25 
Q 762 -38 723 -38 
Q 352 -38 352 288 
Q 352 454 457 553 
Q 563 653 736 653 
Q 954 653 1101 496 
Q 1248 339 1248 96 
Q 1248 -198 1053 -473 
Q 858 -749 531 -902 
z
" transform="scale(0.015625)"/>
      <path id="Cmmi10-b0" d="M 1888 -1253 
Q 1888 -1109 1952 -834 
Q 2016 -559 2108 -248 
Q 2200 63 2266 263 
Q 2291 581 2291 744 
Q 2291 1156 2209 1511 
Q 2128 1866 1903 2105 
Q 1678 2344 1275 2344 
Q 1063 2344 852 2253 
Q 641 2163 489 2000 
Q 338 1838 281 1631 
Q 269 1594 231 1594 
L 153 1594 
Q 103 1594 103 1650 
L 103 1672 
Q 175 1959 358 2226 
Q 541 2494 805 2661 
Q 1069 2828 1363 2828 
Q 1663 2828 1881 2625 
Q 2100 2422 2231 2109 
Q 2363 1797 2420 1478 
Q 2478 1159 2478 878 
Q 2800 1753 3200 2534 
L 3297 2741 
Q 3316 2759 3341 2759 
L 3419 2759 
Q 3469 2759 3469 2700 
Q 3469 2688 3456 2663 
L 3359 2463 
Q 3081 1909 2848 1340 
Q 2616 772 2450 244 
Q 2425 28 2354 -347 
Q 2284 -722 2184 -1045 
Q 2084 -1369 1984 -1381 
Q 1888 -1381 1888 -1253 
z
" transform="scale(0.015625)"/>
      <path id="Cmr10-3d" d="M 481 850 
Q 428 850 393 890 
Q 359 931 359 978 
Q 359 1031 393 1068 
Q 428 1106 481 1106 
L 4500 1106 
Q 4547 1106 4581 1068 
Q 4616 1031 4616 978 
Q 4616 931 4581 890 
Q 4547 850 4500 850 
L 481 850 
z
M 481 2094 
Q 428 2094 393 2131 
Q 359 2169 359 2222 
Q 359 2269 393 2309 
Q 428 2350 481 2350 
L 4500 2350 
Q 4547 2350 4581 2309 
Q 4616 2269 4616 2222 
Q 4616 2169 4581 2131 
Q 4547 2094 4500 2094 
L 481 2094 
z
" transform="scale(0.015625)"/>
      <path id="STIXGeneral-Regular-29" d="M 186 4224 
L 262 4326 
Q 992 3891 1408 3148 
Q 1824 2406 1824 1581 
Q 1824 -166 243 -1133 
L 186 -1030 
Q 845 -486 1059 54 
Q 1274 595 1274 1562 
Q 1274 2534 1059 3120 
Q 845 3706 186 4224 
z
" transform="scale(0.015625)"/>
     </defs>
     <use xlink:href="#STIXGeneral-Regular-4d" transform="translate(0 0.658854)"/>
     <use xlink:href="#STIXGeneral-Regular-65" transform="translate(88.899994 0.658854)"/>
     <use xlink:href="#STIXGeneral-Regular-61" transform="translate(133.299988 0.658854)"/>
     <use xlink:href="#STIXGeneral-Regular-6e" transform="translate(177.699982 0.658854)"/>
     <use xlink:href="#STIXGeneral-Regular-20" transform="translate(227.699966 0.658854)"/>
     <use xlink:href="#STIXGeneral-Regular-44" transform="translate(252.699951 0.658854)"/>
     <use xlink:href="#STIXGeneral-Regular-69" transform="translate(324.899933 0.658854)"/>
     <use xlink:href="#STIXGeneral-Regular-66" transform="translate(352.699921 0.658854)"/>
     <use xlink:href="#STIXGeneral-Regular-66" transform="translate(385.999908 0.658854)"/>
     <use xlink:href="#STIXGeneral-Regular-65" transform="translate(419.299896 0.658854)"/>
     <use xlink:href="#STIXGeneral-Regular-72" transform="translate(463.69989 0.658854)"/>
     <use xlink:href="#STIXGeneral-Regular-65" transform="translate(496.999878 0.658854)"/>
     <use xlink:href="#STIXGeneral-Regular-6e" transform="translate(541.399872 0.658854)"/>
     <use xlink:href="#STIXGeneral-Regular-63" transform="translate(591.399857 0.658854)"/>
     <use xlink:href="#STIXGeneral-Regular-65" transform="translate(635.79985 0.658854)"/>
     <use xlink:href="#STIXGeneral-Regular-20" transform="translate(680.199844 0.658854)"/>
     <use xlink:href="#STIXGeneral-Regular-76" transform="translate(705.199829 0.658854)"/>
     <use xlink:href="#STIXGeneral-Regular-73" transform="translate(755.199814 0.658854)"/>
     <use xlink:href="#STIXGeneral-Regular-20" transform="translate(794.099808 0.658854)"/>
     <use xlink:href="#STIXGeneral-Regular-54" transform="translate(819.099792 0.658854)"/>
     <use xlink:href="#STIXGeneral-Regular-69" transform="translate(880.199783 0.658854)"/>
     <use xlink:href="#STIXGeneral-Regular-6d" transform="translate(907.999771 0.658854)"/>
     <use xlink:href="#STIXGeneral-Regular-65" transform="translate(985.799759 0.658854)"/>
     <use xlink:href="#STIXGeneral-Regular-20" transform="translate(1030.199753 0.658854)"/>
     <use xlink:href="#STIXGeneral-Regular-28" transform="translate(1055.199738 0.658854)"/>
     <use xlink:href="#STIXGeneral-Regular-46" transform="translate(1088.499725 0.658854)"/>
     <use xlink:href="#STIXGeneral-Regular-6f" transform="translate(1144.099716 0.658854)"/>
     <use xlink:href="#STIXGeneral-Regular-63" transform="translate(1194.099701 0.658854)"/>
     <use xlink:href="#STIXGeneral-Regular-6b" transform="translate(1238.499695 0.658854)"/>
     <use xlink:href="#STIXGeneral-Regular-20" transform="translate(1288.49968 0.658854)"/>
     <use xlink:href="#STIXGeneral-Regular-73" transform="translate(1313.499664 0.658854)"/>
     <use xlink:href="#STIXGeneral-Regular-74" transform="translate(1352.399658 0.658854)"/>
     <use xlink:href="#STIXGeneral-Regular-61" transform="translate(1380.199646 0.658854)"/>
     <use xlink:href="#STIXGeneral-Regular-74" transform="translate(1424.59964 0.658854)"/>
     <use xlink:href="#STIXGeneral-Regular-65" transform="translate(1452.399628 0.658854)"/>
     <use xlink:href="#STIXGeneral-Regular-20" transform="translate(1496.799622 0.658854)"/>
     <use xlink:href="#Cmsy10-6a" transform="translate(1521.799606 0.658854)"/>
     <use xlink:href="#Cmr10-31" transform="translate(1549.485153 0.658854)"/>
     <use xlink:href="#Cmex10-ae" transform="translate(1599.485153 94)"/>
     <use xlink:href="#STIXGeneral-Regular-2c" transform="translate(1646.70195 0.658854)"/>
     <use xlink:href="#STIXGeneral-Regular-20" transform="translate(1671.701935 0.658854)"/>
     <use xlink:href="#Cmmi10-b0" transform="translate(1696.70192 0.658854)"/>
     <use xlink:href="#Cmr10-3d" transform="translate(1765.969498 0.658854)"/>
     <use xlink:href="#Cmr10-31" transform="translate(1861.213638 0.658854)"/>
     <use xlink:href="#STIXGeneral-Regular-29" transform="translate(1911.213638 0.658854)"/>
    </g>
   </g>
   <g id="line2d_119">
    <path d="M 72.002727 151.236379 
L 452.457273 151.236581 
L 452.457273 151.236581 
" clip-path="url(#p5e1f18a0c7)" style="fill: none; stroke: #1f77b4; stroke-width: 2; stroke-linecap: square"/>
   </g>
   <g id="legend_1">
    <g id="line2d_120">
     <path d="M 363.865625 39.03 
L 374.865625 39.03 
L 385.865625 39.03 
" style="fill: none; stroke: #1f77b4; stroke-width: 2; stroke-linecap: square"/>
    </g>
    <g id="text_15">
     <!-- Density Matrix -->
     <g transform="translate(394.665625 42.88) scale(0.11 -0.11)">
      <defs>
       <path id="STIXGeneral-Regular-79" d="M 3040 2880 
L 3040 2784 
Q 2925 2771 2854 2700 
Q 2784 2630 2720 2458 
L 1760 -160 
Q 1510 -838 1257 -1116 
Q 1005 -1395 640 -1395 
Q 435 -1395 313 -1289 
Q 192 -1184 192 -1024 
Q 192 -902 272 -816 
Q 352 -730 467 -730 
Q 653 -730 800 -813 
Q 883 -858 966 -858 
Q 1101 -858 1286 -576 
Q 1376 -448 1459 -211 
Q 1542 26 1542 115 
Q 1542 198 1274 762 
L 429 2566 
Q 346 2752 90 2790 
L 90 2880 
L 1402 2880 
L 1402 2784 
Q 1197 2778 1117 2739 
Q 1037 2701 1037 2611 
Q 1037 2541 1120 2349 
L 1837 749 
L 2458 2515 
Q 2483 2573 2483 2630 
Q 2483 2784 2189 2784 
L 2189 2880 
L 3040 2880 
z
" transform="scale(0.015625)"/>
      </defs>
      <use xlink:href="#STIXGeneral-Regular-44"/>
      <use xlink:href="#STIXGeneral-Regular-65" transform="translate(72.199982 0)"/>
      <use xlink:href="#STIXGeneral-Regular-6e" transform="translate(116.599976 0)"/>
      <use xlink:href="#STIXGeneral-Regular-73" transform="translate(166.59996 0)"/>
      <use xlink:href="#STIXGeneral-Regular-69" transform="translate(205.499954 0)"/>
      <use xlink:href="#STIXGeneral-Regular-74" transform="translate(233.299942 0)"/>
      <use xlink:href="#STIXGeneral-Regular-79" transform="translate(261.09993 0)"/>
      <use xlink:href="#STIXGeneral-Regular-20" transform="translate(311.099915 0)"/>
      <use xlink:href="#STIXGeneral-Regular-4d" transform="translate(336.099899 0)"/>
      <use xlink:href="#STIXGeneral-Regular-61" transform="translate(424.999893 0)"/>
      <use xlink:href="#STIXGeneral-Regular-74" transform="translate(469.399887 0)"/>
      <use xlink:href="#STIXGeneral-Regular-72" transform="translate(497.199875 0)"/>
      <use xlink:href="#STIXGeneral-Regular-69" transform="translate(530.499863 0)"/>
      <use xlink:href="#STIXGeneral-Regular-78" transform="translate(558.29985 0)"/>
     </g>
    </g>
    <g id="line2d_121">
     <path d="M 363.865625 54.627656 
L 374.865625 54.627656 
L 385.865625 54.627656 
" style="fill: none; stroke: #ff7f0e; stroke-width: 1.9; stroke-linecap: square"/>
    </g>
    <g id="text_16">
     <!-- Monte Carlo -->
     <g transform="translate(394.665625 58.477656) scale(0.11 -0.11)">
      <defs>
       <path id="STIXGeneral-Regular-43" d="M 3930 838 
L 4051 723 
Q 3482 -90 2304 -90 
Q 1376 -90 794 480 
Q 179 1082 179 2080 
Q 179 3014 755 3661 
Q 1357 4326 2310 4326 
Q 2720 4326 3072 4230 
Q 3475 4115 3514 4115 
Q 3725 4115 3782 4326 
L 3910 4326 
L 3968 2874 
L 3821 2874 
Q 3718 3334 3488 3584 
Q 3034 4070 2458 4070 
Q 1747 4070 1334 3548 
Q 922 3027 922 2182 
Q 922 1152 1382 653 
Q 1811 192 2522 192 
Q 2944 192 3251 339 
Q 3558 486 3930 838 
z
" transform="scale(0.015625)"/>
       <path id="STIXGeneral-Regular-6c" d="M 1645 0 
L 134 0 
L 134 96 
Q 435 122 531 221 
Q 627 320 627 589 
L 627 3590 
Q 627 3821 569 3910 
Q 512 4000 358 4000 
Q 224 4000 122 3987 
L 122 4090 
Q 730 4237 1133 4371 
L 1165 4346 
L 1165 557 
Q 1165 288 1254 201 
Q 1344 115 1645 96 
L 1645 0 
z
" transform="scale(0.015625)"/>
      </defs>
      <use xlink:href="#STIXGeneral-Regular-4d"/>
      <use xlink:href="#STIXGeneral-Regular-6f" transform="translate(88.899994 0)"/>
      <use xlink:href="#STIXGeneral-Regular-6e" transform="translate(138.899979 0)"/>
      <use xlink:href="#STIXGeneral-Regular-74" transform="translate(188.899963 0)"/>
      <use xlink:href="#STIXGeneral-Regular-65" transform="translate(216.699951 0)"/>
      <use xlink:href="#STIXGeneral-Regular-20" transform="translate(261.099945 0)"/>
      <use xlink:href="#STIXGeneral-Regular-43" transform="translate(286.09993 0)"/>
      <use xlink:href="#STIXGeneral-Regular-61" transform="translate(352.799927 0)"/>
      <use xlink:href="#STIXGeneral-Regular-72" transform="translate(397.199921 0)"/>
      <use xlink:href="#STIXGeneral-Regular-6c" transform="translate(430.499908 0)"/>
      <use xlink:href="#STIXGeneral-Regular-6f" transform="translate(458.299896 0)"/>
     </g>
    </g>
    <g id="line2d_122">
     <path d="M 363.865625 70.215 
L 374.865625 70.215 
L 385.865625 70.215 
" style="fill: none; stroke: #2ca02c; stroke-width: 2.2; stroke-linecap: square"/>
    </g>
    <g id="text_17">
     <!-- Positive-P -->
     <g transform="translate(394.665625 74.065) scale(0.11 -0.11)">
      <defs>
       <path id="STIXGeneral-Regular-50" d="M 102 4237 
L 1760 4237 
Q 2669 4237 3149 3834 
Q 3469 3565 3469 3072 
Q 3469 2560 3104 2234 
Q 2835 1990 2553 1916 
Q 2272 1843 1734 1843 
Q 1549 1843 1293 1862 
L 1293 717 
Q 1293 352 1398 246 
Q 1504 141 1894 122 
L 1894 0 
L 102 0 
L 102 122 
Q 474 147 557 256 
Q 640 365 640 781 
L 640 3526 
Q 640 3885 547 3987 
Q 454 4090 102 4115 
L 102 4237 
z
M 1293 3770 
L 1293 2118 
Q 1510 2099 1683 2099 
Q 2202 2099 2486 2352 
Q 2771 2605 2771 3040 
Q 2771 3558 2476 3779 
Q 2182 4000 1517 4000 
Q 1382 4000 1337 3952 
Q 1293 3904 1293 3770 
z
" transform="scale(0.015625)"/>
       <path id="STIXGeneral-Regular-2d" d="M 1824 1242 
L 250 1242 
L 250 1645 
L 1824 1645 
L 1824 1242 
z
" transform="scale(0.015625)"/>
      </defs>
      <use xlink:href="#STIXGeneral-Regular-50"/>
      <use xlink:href="#STIXGeneral-Regular-6f" transform="translate(55.699997 0)"/>
      <use xlink:href="#STIXGeneral-Regular-73" transform="translate(105.699982 0)"/>
      <use xlink:href="#STIXGeneral-Regular-69" transform="translate(144.599976 0)"/>
      <use xlink:href="#STIXGeneral-Regular-74" transform="translate(172.399963 0)"/>
      <use xlink:href="#STIXGeneral-Regular-69" transform="translate(200.199951 0)"/>
      <use xlink:href="#STIXGeneral-Regular-76" transform="translate(227.999939 0)"/>
      <use xlink:href="#STIXGeneral-Regular-65" transform="translate(277.999924 0)"/>
      <use xlink:href="#STIXGeneral-Regular-2d" transform="translate(322.399918 0)"/>
      <use xlink:href="#STIXGeneral-Regular-50" transform="translate(355.699905 0)"/>
     </g>
    </g>
   </g>
  </g>
 </g>
 <defs>
  <clipPath id="p5e1f18a0c7">
   <rect x="52.98" y="25.28" width="418.5" height="288.288"/>
  </clipPath>
 </defs>
</svg>
