<?xml version="1.0" encoding="utf-8" standalone="no"?>
<!DOCTYPE svg PUBLIC "-//W3C//DTD SVG 1.1//EN"
  "http://www.w3.org/Graphics/SVG/1.1/DTD/svg11.dtd">
<svg xmlns:xlink="http://www.w3.org/1999/xlink" width="475.08pt" height="348.068pt" viewBox="0 0 475.08 348.068" xmlns="http://www.w3.org/2000/svg" version="1.1">
 <metadata>
  <rdf:RDF xmlns:dc="http://purl.org/dc/elements/1.1/" xmlns:cc="http://creativecommons.org/ns#" xmlns:rdf="http://www.w3.org/1999/02/22-rdf-syntax-ns#">
   <cc:Work>
    <dc:type rdf:resource="http://purl.org/dc/dcmitype/StillImage"/>
    <dc:date>2026-04-16T02:26:55.884067</dc:date>
    <dc:format>image/svg+xml</dc:format>
    <dc:creator>
     <cc:Agent>
      <dc:title>Matplotlib v3.10.8, https://matplotlib.org/</dc:title>
     </cc:Agent>
    </dc:creator>
   </cc:Work>
  </rdf:RDF>
 </metadata>
 <defs>
  <style type="text/css">*{stroke-linejoin: round; stroke-linecap: butt}</style>
 </defs>
 <g id="figure_1">
  <g id="patch_1">
   <path d="M 0 348.068 
L 475.08 348.068 
L 475.08 0 
L 0 0 
z
" style="fill: #ffffff"/>
  </g>
  <g id="axes_1">
   <g id="patch_2">
    <path d="M 52.98 313.568 
L 471.48 313.568 
L 471.48 25.28 
L 52.98 25.28 
z
" style="fill: #ffffff"/>
   </g>
   <g id="matplotlib.axis_1">
    <g id="xtick_1">
     <g id="line2d_1">
      <path d="M 72.002727 313.568 
L 72.002727 25.28 
" clip-path="url(#p79bfcadfc1)" style="fill: none; stroke: #b0b0b0; stroke-opacity: 0.35; stroke-width: 0.5; stroke-linecap: square"/>
     </g>
     <g id="line2d_2">
      <defs>
       <path id="me9e87e0b5d" d="M 0 0 
L 0 -3 
" style="stroke: #000000; stroke-width: 0.5"/>
      </defs>
      <g>
       <use xlink:href="#me9e87e0b5d" x="72.002727" y="313.568" style="stroke: #000000; stroke-width: 0.5"/>
      </g>
     </g>
     <g id="line2d_3">
      <defs>
       <path id="medf7025963" d="M 0 0 
L 0 3 
" style="stroke: #000000; stroke-width: 0.5"/>
      </defs>
      <g>
       <use xlink:href="#medf7025963" x="72.002727" y="25.28" style="stroke: #000000; stroke-width: 0.5"/>
      </g>
     </g>
     <g id="text_1">
      <!-- $\mathdefault{0}$ -->
      <g transform="translate(69.002727 325.263625) scale(0.12 -0.12)">
       <defs>
        <path id="STIXGeneral-Regular-30" d="M 3046 2112 
Q 3046 1683 2963 1302 
Q 2880 922 2717 602 
Q 2554 282 2266 96 
Q 1978 -90 1600 -90 
Q 1210 -90 915 108 
Q 621 307 461 640 
Q 301 973 227 1350 
Q 154 1728 154 2150 
Q 154 2746 301 3222 
Q 448 3699 790 4012 
Q 1133 4326 1626 4326 
Q 2253 4326 2649 3712 
Q 3046 3098 3046 2112 
z
M 2432 2080 
Q 2432 3091 2217 3625 
Q 2003 4160 1587 4160 
Q 1190 4160 979 3622 
Q 768 3085 768 2106 
Q 768 1120 979 598 
Q 1190 77 1600 77 
Q 2003 77 2217 598 
Q 2432 1120 2432 2080 
z
" transform="scale(0.015625)"/>
       </defs>
       <use xlink:href="#STIXGeneral-Regular-30" transform="translate(0 0.40625)"/>
      </g>
     </g>
    </g>
    <g id="xtick_2">
     <g id="line2d_4">
      <path d="M 148.093636 313.568 
L 148.093636 25.28 
" clip-path="url(#p79bfcadfc1)" style="fill: none; stroke: #b0b0b0; stroke-opacity: 0.35; stroke-width: 0.5; stroke-linecap: square"/>
     </g>
     <g id="line2d_5">
      <g>
       <use xlink:href="#me9e87e0b5d" x="148.093636" y="313.568" style="stroke: #000000; stroke-width: 0.5"/>
      </g>
     </g>
     <g id="line2d_6">
      <g>
       <use xlink:href="#medf7025963" x="148.093636" y="25.28" style="stroke: #000000; stroke-width: 0.5"/>
      </g>
     </g>
     <g id="text_2">
      <!-- $\mathdefault{1}$ -->
      <g transform="translate(145.093636 325.263625) scale(0.12 -0.12)">
       <defs>
        <path id="STIXGeneral-Regular-31" d="M 2522 0 
L 755 0 
L 755 96 
Q 1107 115 1235 227 
Q 1363 339 1363 608 
L 1363 3482 
Q 1363 3795 1171 3795 
Q 1082 3795 883 3718 
L 710 3654 
L 710 3744 
L 1856 4326 
L 1914 4307 
L 1914 486 
Q 1914 275 2042 185 
Q 2170 96 2522 96 
L 2522 0 
z
" transform="scale(0.015625)"/>
       </defs>
       <use xlink:href="#STIXGeneral-Regular-31" transform="translate(0 0.40625)"/>
      </g>
     </g>
    </g>
    <g id="xtick_3">
     <g id="line2d_7">
      <path d="M 224.184545 313.568 
L 224.184545 25.28 
" clip-path="url(#p79bfcadfc1)" style="fill: none; stroke: #b0b0b0; stroke-opacity: 0.35; stroke-width: 0.5; stroke-linecap: square"/>
     </g>
     <g id="line2d_8">
      <g>
       <use xlink:href="#me9e87e0b5d" x="224.184545" y="313.568" style="stroke: #000000; stroke-width: 0.5"/>
      </g>
     </g>
     <g id="line2d_9">
      <g>
       <use xlink:href="#medf7025963" x="224.184545" y="25.28" style="stroke: #000000; stroke-width: 0.5"/>
      </g>
     </g>
     <g id="text_3">
      <!-- $\mathdefault{2}$ -->
      <g transform="translate(221.184545 325.263625) scale(0.12 -0.12)">
       <defs>
        <path id="STIXGeneral-Regular-32" d="M 3034 877 
L 2688 0 
L 186 0 
L 186 77 
L 1325 1286 
Q 1773 1754 1965 2144 
Q 2157 2534 2157 2950 
Q 2157 3379 1920 3616 
Q 1683 3853 1267 3853 
Q 922 3853 720 3673 
Q 518 3494 326 3021 
L 192 3053 
Q 301 3648 630 3987 
Q 960 4326 1523 4326 
Q 2054 4326 2380 4006 
Q 2707 3686 2707 3200 
Q 2707 2477 1888 1613 
L 832 486 
L 2330 486 
Q 2541 486 2665 569 
Q 2790 653 2944 915 
L 3034 877 
z
" transform="scale(0.015625)"/>
       </defs>
       <use xlink:href="#STIXGeneral-Regular-32" transform="translate(0 0.40625)"/>
      </g>
     </g>
    </g>
    <g id="xtick_4">
     <g id="line2d_10">
      <path d="M 300.275455 313.568 
L 300.275455 25.28 
" clip-path="url(#p79bfcadfc1)" style="fill: none; stroke: #b0b0b0; stroke-opacity: 0.35; stroke-width: 0.5; stroke-linecap: square"/>
     </g>
     <g id="line2d_11">
      <g>
       <use xlink:href="#me9e87e0b5d" x="300.275455" y="313.568" style="stroke: #000000; stroke-width: 0.5"/>
      </g>
     </g>
     <g id="line2d_12">
      <g>
       <use xlink:href="#medf7025963" x="300.275455" y="25.28" style="stroke: #000000; stroke-width: 0.5"/>
      </g>
     </g>
     <g id="text_4">
      <!-- $\mathdefault{3}$ -->
      <g transform="translate(297.275455 325.263625) scale(0.12 -0.12)">
       <defs>
        <path id="STIXGeneral-Regular-33" d="M 390 3264 
L 288 3290 
Q 435 3770 748 4048 
Q 1062 4326 1542 4326 
Q 1990 4326 2265 4083 
Q 2541 3840 2541 3450 
Q 2541 2925 1946 2566 
Q 2298 2413 2477 2227 
Q 2758 1914 2758 1402 
Q 2758 890 2464 506 
Q 2246 211 1840 60 
Q 1434 -90 979 -90 
Q 262 -90 262 275 
Q 262 378 339 442 
Q 416 506 525 506 
Q 685 506 915 339 
Q 1197 141 1466 141 
Q 1818 141 2058 425 
Q 2298 710 2298 1120 
Q 2298 1856 1632 2048 
Q 1434 2112 979 2112 
L 979 2202 
Q 1338 2323 1517 2432 
Q 2035 2726 2035 3290 
Q 2035 3610 1852 3776 
Q 1670 3942 1344 3942 
Q 768 3942 390 3264 
z
" transform="scale(0.015625)"/>
       </defs>
       <use xlink:href="#STIXGeneral-Regular-33" transform="translate(0 0.40625)"/>
      </g>
     </g>
    </g>
    <g id="xtick_5">
     <g id="line2d_13">
      <path d="M 376.366364 313.568 
L 376.366364 25.28 
" clip-path="url(#p79bfcadfc1)" style="fill: none; stroke: #b0b0b0; stroke-opacity: 0.35; stroke-width: 0.5; stroke-linecap: square"/>
     </g>
     <g id="line2d_14">
      <g>
       <use xlink:href="#me9e87e0b5d" x="376.366364" y="313.568" style="stroke: #000000; stroke-width: 0.5"/>
      </g>
     </g>
     <g id="line2d_15">
      <g>
       <use xlink:href="#medf7025963" x="376.366364" y="25.28" style="stroke: #000000; stroke-width: 0.5"/>
      </g>
     </g>
     <g id="text_5">
      <!-- $\mathdefault{4}$ -->
      <g transform="translate(373.366364 325.263625) scale(0.12 -0.12)">
       <defs>
        <path id="STIXGeneral-Regular-34" d="M 3027 1069 
L 2368 1069 
L 2368 0 
L 1869 0 
L 1869 1069 
L 77 1069 
L 77 1478 
L 2086 4326 
L 2368 4326 
L 2368 1478 
L 3027 1478 
L 3027 1069 
z
M 1869 1478 
L 1869 3674 
L 333 1478 
L 1869 1478 
z
" transform="scale(0.015625)"/>
       </defs>
       <use xlink:href="#STIXGeneral-Regular-34" transform="translate(0 0.40625)"/>
      </g>
     </g>
    </g>
    <g id="xtick_6">
     <g id="line2d_16">
      <path d="M 452.457273 313.568 
L 452.457273 25.28 
" clip-path="url(#p79bfcadfc1)" style="fill: none; stroke: #b0b0b0; stroke-opacity: 0.35; stroke-width: 0.5; stroke-linecap: square"/>
     </g>
     <g id="line2d_17">
      <g>
       <use xlink:href="#me9e87e0b5d" x="452.457273" y="313.568" style="stroke: #000000; stroke-width: 0.5"/>
      </g>
     </g>
     <g id="line2d_18">
      <g>
       <use xlink:href="#medf7025963" x="452.457273" y="25.28" style="stroke: #000000; stroke-width: 0.5"/>
      </g>
     </g>
     <g id="text_6">
      <!-- $\mathdefault{5}$ -->
      <g transform="translate(449.457273 325.263625) scale(0.12 -0.12)">
       <defs>
        <path id="STIXGeneral-Regular-35" d="M 2803 4358 
L 2573 3814 
Q 2534 3731 2400 3731 
L 1158 3731 
L 902 3187 
Q 1606 3053 1920 2896 
Q 2234 2739 2502 2368 
Q 2726 2061 2726 1555 
Q 2726 1094 2576 780 
Q 2426 467 2099 224 
Q 1664 -90 1011 -90 
Q 646 -90 422 19 
Q 198 128 198 307 
Q 198 550 486 550 
Q 717 550 960 352 
Q 1210 147 1414 147 
Q 1747 147 2012 480 
Q 2278 813 2278 1229 
Q 2278 1843 1850 2189 
Q 1293 2637 486 2637 
Q 410 2637 410 2688 
L 416 2720 
L 1114 4237 
L 2438 4237 
Q 2547 4237 2608 4269 
Q 2669 4301 2746 4403 
L 2803 4358 
z
" transform="scale(0.015625)"/>
       </defs>
       <use xlink:href="#STIXGeneral-Regular-35" transform="translate(0 0.203125)"/>
      </g>
     </g>
    </g>
    <g id="xtick_7">
     <g id="line2d_19">
      <defs>
       <path id="m21c613ab7b" d="M 0 0 
L 0 -1.5 
" style="stroke: #000000; stroke-width: 0.5"/>
      </defs>
      <g>
       <use xlink:href="#m21c613ab7b" x="56.784545" y="313.568" style="stroke: #000000; stroke-width: 0.5"/>
      </g>
     </g>
     <g id="line2d_20">
      <defs>
       <path id="m081b2c97c7" d="M 0 0 
L 0 1.5 
" style="stroke: #000000; stroke-width: 0.5"/>
      </defs>
      <g>
       <use xlink:href="#m081b2c97c7" x="56.784545" y="25.28" style="stroke: #000000; stroke-width: 0.5"/>
      </g>
     </g>
    </g>
    <g id="xtick_8">
     <g id="line2d_21">
      <g>
       <use xlink:href="#m21c613ab7b" x="87.220909" y="313.568" style="stroke: #000000; stroke-width: 0.5"/>
      </g>
     </g>
     <g id="line2d_22">
      <g>
       <use xlink:href="#m081b2c97c7" x="87.220909" y="25.28" style="stroke: #000000; stroke-width: 0.5"/>
      </g>
     </g>
    </g>
    <g id="xtick_9">
     <g id="line2d_23">
      <g>
       <use xlink:href="#m21c613ab7b" x="102.439091" y="313.568" style="stroke: #000000; stroke-width: 0.5"/>
      </g>
     </g>
     <g id="line2d_24">
      <g>
       <use xlink:href="#m081b2c97c7" x="102.439091" y="25.28" style="stroke: #000000; stroke-width: 0.5"/>
      </g>
     </g>
    </g>
    <g id="xtick_10">
     <g id="line2d_25">
      <g>
       <use xlink:href="#m21c613ab7b" x="117.657273" y="313.568" style="stroke: #000000; stroke-width: 0.5"/>
      </g>
     </g>
     <g id="line2d_26">
      <g>
       <use xlink:href="#m081b2c97c7" x="117.657273" y="25.28" style="stroke: #000000; stroke-width: 0.5"/>
      </g>
     </g>
    </g>
    <g id="xtick_11">
     <g id="line2d_27">
      <g>
       <use xlink:href="#m21c613ab7b" x="132.875455" y="313.568" style="stroke: #000000; stroke-width: 0.5"/>
      </g>
     </g>
     <g id="line2d_28">
      <g>
       <use xlink:href="#m081b2c97c7" x="132.875455" y="25.28" style="stroke: #000000; stroke-width: 0.5"/>
      </g>
     </g>
    </g>
    <g id="xtick_12">
     <g id="line2d_29">
      <g>
       <use xlink:href="#m21c613ab7b" x="163.311818" y="313.568" style="stroke: #000000; stroke-width: 0.5"/>
      </g>
     </g>
     <g id="line2d_30">
      <g>
       <use xlink:href="#m081b2c97c7" x="163.311818" y="25.28" style="stroke: #000000; stroke-width: 0.5"/>
      </g>
     </g>
    </g>
    <g id="xtick_13">
     <g id="line2d_31">
      <g>
       <use xlink:href="#m21c613ab7b" x="178.53" y="313.568" style="stroke: #000000; stroke-width: 0.5"/>
      </g>
     </g>
     <g id="line2d_32">
      <g>
       <use xlink:href="#m081b2c97c7" x="178.53" y="25.28" style="stroke: #000000; stroke-width: 0.5"/>
      </g>
     </g>
    </g>
    <g id="xtick_14">
     <g id="line2d_33">
      <g>
       <use xlink:href="#m21c613ab7b" x="193.748182" y="313.568" style="stroke: #000000; stroke-width: 0.5"/>
      </g>
     </g>
     <g id="line2d_34">
      <g>
       <use xlink:href="#m081b2c97c7" x="193.748182" y="25.28" style="stroke: #000000; stroke-width: 0.5"/>
      </g>
     </g>
    </g>
    <g id="xtick_15">
     <g id="line2d_35">
      <g>
       <use xlink:href="#m21c613ab7b" x="208.966364" y="313.568" style="stroke: #000000; stroke-width: 0.5"/>
      </g>
     </g>
     <g id="line2d_36">
      <g>
       <use xlink:href="#m081b2c97c7" x="208.966364" y="25.28" style="stroke: #000000; stroke-width: 0.5"/>
      </g>
     </g>
    </g>
    <g id="xtick_16">
     <g id="line2d_37">
      <g>
       <use xlink:href="#m21c613ab7b" x="239.402727" y="313.568" style="stroke: #000000; stroke-width: 0.5"/>
      </g>
     </g>
     <g id="line2d_38">
      <g>
       <use xlink:href="#m081b2c97c7" x="239.402727" y="25.28" style="stroke: #000000; stroke-width: 0.5"/>
      </g>
     </g>
    </g>
    <g id="xtick_17">
     <g id="line2d_39">
      <g>
       <use xlink:href="#m21c613ab7b" x="254.620909" y="313.568" style="stroke: #000000; stroke-width: 0.5"/>
      </g>
     </g>
     <g id="line2d_40">
      <g>
       <use xlink:href="#m081b2c97c7" x="254.620909" y="25.28" style="stroke: #000000; stroke-width: 0.5"/>
      </g>
     </g>
    </g>
    <g id="xtick_18">
     <g id="line2d_41">
      <g>
       <use xlink:href="#m21c613ab7b" x="269.839091" y="313.568" style="stroke: #000000; stroke-width: 0.5"/>
      </g>
     </g>
     <g id="line2d_42">
      <g>
       <use xlink:href="#m081b2c97c7" x="269.839091" y="25.28" style="stroke: #000000; stroke-width: 0.5"/>
      </g>
     </g>
    </g>
    <g id="xtick_19">
     <g id="line2d_43">
      <g>
       <use xlink:href="#m21c613ab7b" x="285.057273" y="313.568" style="stroke: #000000; stroke-width: 0.5"/>
      </g>
     </g>
     <g id="line2d_44">
      <g>
       <use xlink:href="#m081b2c97c7" x="285.057273" y="25.28" style="stroke: #000000; stroke-width: 0.5"/>
      </g>
     </g>
    </g>
    <g id="xtick_20">
     <g id="line2d_45">
      <g>
       <use xlink:href="#m21c613ab7b" x="315.493636" y="313.568" style="stroke: #000000; stroke-width: 0.5"/>
      </g>
     </g>
     <g id="line2d_46">
      <g>
       <use xlink:href="#m081b2c97c7" x="315.493636" y="25.28" style="stroke: #000000; stroke-width: 0.5"/>
      </g>
     </g>
    </g>
    <g id="xtick_21">
     <g id="line2d_47">
      <g>
       <use xlink:href="#m21c613ab7b" x="330.711818" y="313.568" style="stroke: #000000; stroke-width: 0.5"/>
      </g>
     </g>
     <g id="line2d_48">
      <g>
       <use xlink:href="#m081b2c97c7" x="330.711818" y="25.28" style="stroke: #000000; stroke-width: 0.5"/>
      </g>
     </g>
    </g>
    <g id="xtick_22">
     <g id="line2d_49">
      <g>
       <use xlink:href="#m21c613ab7b" x="345.93" y="313.568" style="stroke: #000000; stroke-width: 0.5"/>
      </g>
     </g>
     <g id="line2d_50">
      <g>
       <use xlink:href="#m081b2c97c7" x="345.93" y="25.28" style="stroke: #000000; stroke-width: 0.5"/>
      </g>
     </g>
    </g>
    <g id="xtick_23">
     <g id="line2d_51">
      <g>
       <use xlink:href="#m21c613ab7b" x="361.148182" y="313.568" style="stroke: #000000; stroke-width: 0.5"/>
      </g>
     </g>
     <g id="line2d_52">
      <g>
       <use xlink:href="#m081b2c97c7" x="361.148182" y="25.28" style="stroke: #000000; stroke-width: 0.5"/>
      </g>
     </g>
    </g>
    <g id="xtick_24">
     <g id="line2d_53">
      <g>
       <use xlink:href="#m21c613ab7b" x="391.584545" y="313.568" style="stroke: #000000; stroke-width: 0.5"/>
      </g>
     </g>
     <g id="line2d_54">
      <g>
       <use xlink:href="#m081b2c97c7" x="391.584545" y="25.28" style="stroke: #000000; stroke-width: 0.5"/>
      </g>
     </g>
    </g>
    <g id="xtick_25">
     <g id="line2d_55">
      <g>
       <use xlink:href="#m21c613ab7b" x="406.802727" y="313.568" style="stroke: #000000; stroke-width: 0.5"/>
      </g>
     </g>
     <g id="line2d_56">
      <g>
       <use xlink:href="#m081b2c97c7" x="406.802727" y="25.28" style="stroke: #000000; stroke-width: 0.5"/>
      </g>
     </g>
    </g>
    <g id="xtick_26">
     <g id="line2d_57">
      <g>
       <use xlink:href="#m21c613ab7b" x="422.020909" y="313.568" style="stroke: #000000; stroke-width: 0.5"/>
      </g>
     </g>
     <g id="line2d_58">
      <g>
       <use xlink:href="#m081b2c97c7" x="422.020909" y="25.28" style="stroke: #000000; stroke-width: 0.5"/>
      </g>
     </g>
    </g>
    <g id="xtick_27">
     <g id="line2d_59">
      <g>
       <use xlink:href="#m21c613ab7b" x="437.239091" y="313.568" style="stroke: #000000; stroke-width: 0.5"/>
      </g>
     </g>
     <g id="line2d_60">
      <g>
       <use xlink:href="#m081b2c97c7" x="437.239091" y="25.28" style="stroke: #000000; stroke-width: 0.5"/>
      </g>
     </g>
    </g>
    <g id="xtick_28">
     <g id="line2d_61">
      <g>
       <use xlink:href="#m21c613ab7b" x="467.675455" y="313.568" style="stroke: #000000; stroke-width: 0.5"/>
      </g>
     </g>
     <g id="line2d_62">
      <g>
       <use xlink:href="#m081b2c97c7" x="467.675455" y="25.28" style="stroke: #000000; stroke-width: 0.5"/>
      </g>
     </g>
    </g>
    <g id="text_7">
     <!-- Time -->
     <g transform="translate(247.453438 341.429562) scale(0.14 -0.14)">
      <defs>
       <path id="STIXGeneral-Regular-54" d="M 3795 3149 
L 3642 3149 
Q 3539 3674 3353 3821 
Q 3168 3968 2656 3968 
L 2278 3968 
L 2278 710 
Q 2278 346 2387 243 
Q 2496 141 2893 122 
L 2893 0 
L 1024 0 
L 1024 122 
Q 1427 147 1526 256 
Q 1626 365 1626 787 
L 1626 3968 
L 1242 3968 
Q 723 3968 540 3817 
Q 358 3667 262 3149 
L 109 3149 
L 154 4237 
L 3750 4237 
L 3795 3149 
z
" transform="scale(0.015625)"/>
       <path id="STIXGeneral-Regular-69" d="M 1152 4045 
Q 1152 3904 1056 3811 
Q 960 3718 819 3718 
Q 685 3718 592 3811 
Q 499 3904 499 4045 
Q 499 4179 595 4275 
Q 691 4371 826 4371 
Q 966 4371 1059 4275 
Q 1152 4179 1152 4045 
z
M 1619 0 
L 102 0 
L 102 96 
Q 435 115 521 211 
Q 608 307 608 666 
L 608 2118 
Q 608 2342 563 2432 
Q 518 2522 397 2522 
Q 243 2522 128 2490 
L 128 2592 
L 1120 2944 
L 1146 2918 
L 1146 672 
Q 1146 314 1226 218 
Q 1306 122 1619 96 
L 1619 0 
z
" transform="scale(0.015625)"/>
       <path id="STIXGeneral-Regular-6d" d="M 4960 0 
L 3565 0 
L 3565 96 
Q 3834 122 3907 208 
Q 3981 294 3981 576 
L 3981 1894 
Q 3981 2278 3869 2444 
Q 3757 2611 3488 2611 
Q 3264 2611 3107 2521 
Q 2950 2432 2803 2221 
L 2803 608 
Q 2803 301 2896 201 
Q 2989 102 3264 96 
L 3264 0 
L 1830 0 
L 1830 96 
Q 2112 115 2189 188 
Q 2266 262 2266 550 
L 2266 1901 
Q 2266 2611 1850 2611 
Q 1670 2611 1468 2531 
Q 1267 2451 1171 2336 
Q 1088 2240 1088 2227 
L 1088 448 
Q 1088 243 1177 176 
Q 1267 109 1523 96 
L 1523 0 
L 102 0 
L 102 96 
Q 371 102 460 195 
Q 550 288 550 563 
L 550 2150 
Q 550 2387 499 2480 
Q 448 2573 326 2573 
Q 230 2573 122 2547 
L 122 2656 
Q 557 2778 1011 2944 
L 1062 2925 
L 1062 2451 
L 1075 2451 
Q 1363 2752 1584 2848 
Q 1805 2944 2054 2944 
Q 2560 2944 2733 2406 
Q 3232 2944 3776 2944 
Q 4518 2944 4518 1792 
L 4518 493 
Q 4518 282 4582 202 
Q 4646 122 4794 109 
L 4960 96 
L 4960 0 
z
" transform="scale(0.015625)"/>
       <path id="STIXGeneral-Regular-65" d="M 2611 1050 
L 2714 1005 
Q 2330 -64 1376 -64 
Q 813 -64 486 329 
Q 160 723 160 1389 
Q 160 2074 525 2509 
Q 890 2944 1485 2944 
Q 2061 2944 2374 2502 
Q 2560 2246 2592 1773 
L 621 1773 
Q 646 1370 700 1158 
Q 755 947 915 730 
Q 1184 378 1626 378 
Q 1939 378 2153 531 
Q 2368 685 2611 1050 
z
M 634 1978 
L 1939 1978 
Q 1882 2381 1750 2547 
Q 1619 2714 1312 2714 
Q 1043 2714 864 2525 
Q 685 2336 634 1978 
z
" transform="scale(0.015625)"/>
      </defs>
      <use xlink:href="#STIXGeneral-Regular-54"/>
      <use xlink:href="#STIXGeneral-Regular-69" transform="translate(61.099991 0)"/>
      <use xlink:href="#STIXGeneral-Regular-6d" transform="translate(88.899979 0)"/>
      <use xlink:href="#STIXGeneral-Regular-65" transform="translate(166.699966 0)"/>
     </g>
    </g>
   </g>
   <g id="matplotlib.axis_2">
    <g id="ytick_1">
     <g id="line2d_63">
      <path d="M 52.98 284.738106 
L 471.48 284.738106 
" clip-path="url(#p79bfcadfc1)" style="fill: none; stroke: #b0b0b0; stroke-opacity: 0.35; stroke-width: 0.5; stroke-linecap: square"/>
     </g>
     <g id="line2d_64">
      <defs>
       <path id="m6fce33535c" d="M 0 0 
L 3 0 
" style="stroke: #000000; stroke-width: 0.5"/>
      </defs>
      <g>
       <use xlink:href="#m6fce33535c" x="52.98" y="284.738106" style="stroke: #000000; stroke-width: 0.5"/>
      </g>
     </g>
     <g id="line2d_65">
      <defs>
       <path id="m9e6749ca5d" d="M 0 0 
L -3 0 
" style="stroke: #000000; stroke-width: 0.5"/>
      </defs>
      <g>
       <use xlink:href="#m9e6749ca5d" x="471.48" y="284.738106" style="stroke: #000000; stroke-width: 0.5"/>
      </g>
     </g>
     <g id="text_8">
      <!-- $\mathdefault{−0.05}$ -->
      <g transform="translate(20.2 288.835919) scale(0.12 -0.12)">
       <defs>
        <path id="STIXGeneral-Regular-2212" d="M 3974 1408 
L 410 1408 
L 410 1830 
L 3974 1830 
L 3974 1408 
z
" transform="scale(0.015625)"/>
        <path id="STIXGeneral-Regular-2e" d="M 1158 275 
Q 1158 134 1052 32 
Q 947 -70 800 -70 
Q 653 -70 550 32 
Q 448 134 448 281 
Q 448 429 553 534 
Q 659 640 806 640 
Q 947 640 1052 531 
Q 1158 422 1158 275 
z
" transform="scale(0.015625)"/>
       </defs>
       <use xlink:href="#STIXGeneral-Regular-2212" transform="translate(0 0.203125)"/>
       <use xlink:href="#STIXGeneral-Regular-30" transform="translate(68.499985 0.203125)"/>
       <use xlink:href="#STIXGeneral-Regular-2e" transform="translate(118.499969 0.203125)"/>
       <use xlink:href="#STIXGeneral-Regular-30" transform="translate(143.499954 0.203125)"/>
       <use xlink:href="#STIXGeneral-Regular-35" transform="translate(193.499939 0.203125)"/>
      </g>
     </g>
    </g>
    <g id="ytick_2">
     <g id="line2d_66">
      <path d="M 52.98 242.501723 
L 471.48 242.501723 
" clip-path="url(#p79bfcadfc1)" style="fill: none; stroke: #b0b0b0; stroke-opacity: 0.35; stroke-width: 0.5; stroke-linecap: square"/>
     </g>
     <g id="line2d_67">
      <g>
       <use xlink:href="#m6fce33535c" x="52.98" y="242.501723" style="stroke: #000000; stroke-width: 0.5"/>
      </g>
     </g>
     <g id="line2d_68">
      <g>
       <use xlink:href="#m9e6749ca5d" x="471.48" y="242.501723" style="stroke: #000000; stroke-width: 0.5"/>
      </g>
     </g>
     <g id="text_9">
      <!-- $\mathdefault{−0.04}$ -->
      <g transform="translate(20.2 246.599535) scale(0.12 -0.12)">
       <use xlink:href="#STIXGeneral-Regular-2212" transform="translate(0 0.40625)"/>
       <use xlink:href="#STIXGeneral-Regular-30" transform="translate(68.499985 0.40625)"/>
       <use xlink:href="#STIXGeneral-Regular-2e" transform="translate(118.499969 0.40625)"/>
       <use xlink:href="#STIXGeneral-Regular-30" transform="translate(143.499954 0.40625)"/>
       <use xlink:href="#STIXGeneral-Regular-34" transform="translate(193.499939 0.40625)"/>
      </g>
     </g>
    </g>
    <g id="ytick_3">
     <g id="line2d_69">
      <path d="M 52.98 200.265339 
L 471.48 200.265339 
" clip-path="url(#p79bfcadfc1)" style="fill: none; stroke: #b0b0b0; stroke-opacity: 0.35; stroke-width: 0.5; stroke-linecap: square"/>
     </g>
     <g id="line2d_70">
      <g>
       <use xlink:href="#m6fce33535c" x="52.98" y="200.265339" style="stroke: #000000; stroke-width: 0.5"/>
      </g>
     </g>
     <g id="line2d_71">
      <g>
       <use xlink:href="#m9e6749ca5d" x="471.48" y="200.265339" style="stroke: #000000; stroke-width: 0.5"/>
      </g>
     </g>
     <g id="text_10">
      <!-- $\mathdefault{−0.03}$ -->
      <g transform="translate(20.2 204.363151) scale(0.12 -0.12)">
       <use xlink:href="#STIXGeneral-Regular-2212" transform="translate(0 0.40625)"/>
       <use xlink:href="#STIXGeneral-Regular-30" transform="translate(68.499985 0.40625)"/>
       <use xlink:href="#STIXGeneral-Regular-2e" transform="translate(118.499969 0.40625)"/>
       <use xlink:href="#STIXGeneral-Regular-30" transform="translate(143.499954 0.40625)"/>
       <use xlink:href="#STIXGeneral-Regular-33" transform="translate(193.499939 0.40625)"/>
      </g>
     </g>
    </g>
    <g id="ytick_4">
     <g id="line2d_72">
      <path d="M 52.98 158.028955 
L 471.48 158.028955 
" clip-path="url(#p79bfcadfc1)" style="fill: none; stroke: #b0b0b0; stroke-opacity: 0.35; stroke-width: 0.5; stroke-linecap: square"/>
     </g>
     <g id="line2d_73">
      <g>
       <use xlink:href="#m6fce33535c" x="52.98" y="158.028955" style="stroke: #000000; stroke-width: 0.5"/>
      </g>
     </g>
     <g id="line2d_74">
      <g>
       <use xlink:href="#m9e6749ca5d" x="471.48" y="158.028955" style="stroke: #000000; stroke-width: 0.5"/>
      </g>
     </g>
     <g id="text_11">
      <!-- $\mathdefault{−0.02}$ -->
      <g transform="translate(20.2 162.126768) scale(0.12 -0.12)">
       <use xlink:href="#STIXGeneral-Regular-2212" transform="translate(0 0.40625)"/>
       <use xlink:href="#STIXGeneral-Regular-30" transform="translate(68.499985 0.40625)"/>
       <use xlink:href="#STIXGeneral-Regular-2e" transform="translate(118.499969 0.40625)"/>
       <use xlink:href="#STIXGeneral-Regular-30" transform="translate(143.499954 0.40625)"/>
       <use xlink:href="#STIXGeneral-Regular-32" transform="translate(193.499939 0.40625)"/>
      </g>
     </g>
    </g>
    <g id="ytick_5">
     <g id="line2d_75">
      <path d="M 52.98 115.792571 
L 471.48 115.792571 
" clip-path="url(#p79bfcadfc1)" style="fill: none; stroke: #b0b0b0; stroke-opacity: 0.35; stroke-width: 0.5; stroke-linecap: square"/>
     </g>
     <g id="line2d_76">
      <g>
       <use xlink:href="#m6fce33535c" x="52.98" y="115.792571" style="stroke: #000000; stroke-width: 0.5"/>
      </g>
     </g>
     <g id="line2d_77">
      <g>
       <use xlink:href="#m9e6749ca5d" x="471.48" y="115.792571" style="stroke: #000000; stroke-width: 0.5"/>
      </g>
     </g>
     <g id="text_12">
      <!-- $\mathdefault{−0.01}$ -->
      <g transform="translate(20.2 119.890384) scale(0.12 -0.12)">
       <use xlink:href="#STIXGeneral-Regular-2212" transform="translate(0 0.40625)"/>
       <use xlink:href="#STIXGeneral-Regular-30" transform="translate(68.499985 0.40625)"/>
       <use xlink:href="#STIXGeneral-Regular-2e" transform="translate(118.499969 0.40625)"/>
       <use xlink:href="#STIXGeneral-Regular-30" transform="translate(143.499954 0.40625)"/>
       <use xlink:href="#STIXGeneral-Regular-31" transform="translate(193.499939 0.40625)"/>
      </g>
     </g>
    </g>
    <g id="ytick_6">
     <g id="line2d_78">
      <path d="M 52.98 73.556188 
L 471.48 73.556188 
" clip-path="url(#p79bfcadfc1)" style="fill: none; stroke: #b0b0b0; stroke-opacity: 0.35; stroke-width: 0.5; stroke-linecap: square"/>
     </g>
     <g id="line2d_79">
      <g>
       <use xlink:href="#m6fce33535c" x="52.98" y="73.556188" style="stroke: #000000; stroke-width: 0.5"/>
      </g>
     </g>
     <g id="line2d_80">
      <g>
       <use xlink:href="#m9e6749ca5d" x="471.48" y="73.556188" style="stroke: #000000; stroke-width: 0.5"/>
      </g>
     </g>
     <g id="text_13">
      <!-- $\mathdefault{0.00}$ -->
      <g transform="translate(28.48 77.654) scale(0.12 -0.12)">
       <use xlink:href="#STIXGeneral-Regular-30" transform="translate(0 0.40625)"/>
       <use xlink:href="#STIXGeneral-Regular-2e" transform="translate(49.999985 0.40625)"/>
       <use xlink:href="#STIXGeneral-Regular-30" transform="translate(74.999969 0.40625)"/>
       <use xlink:href="#STIXGeneral-Regular-30" transform="translate(124.999954 0.40625)"/>
      </g>
     </g>
    </g>
    <g id="ytick_7">
     <g id="line2d_81">
      <path d="M 52.98 31.319804 
L 471.48 31.319804 
" clip-path="url(#p79bfcadfc1)" style="fill: none; stroke: #b0b0b0; stroke-opacity: 0.35; stroke-width: 0.5; stroke-linecap: square"/>
     </g>
     <g id="line2d_82">
      <g>
       <use xlink:href="#m6fce33535c" x="52.98" y="31.319804" style="stroke: #000000; stroke-width: 0.5"/>
      </g>
     </g>
     <g id="line2d_83">
      <g>
       <use xlink:href="#m9e6749ca5d" x="471.48" y="31.319804" style="stroke: #000000; stroke-width: 0.5"/>
      </g>
     </g>
     <g id="text_14">
      <!-- $\mathdefault{0.01}$ -->
      <g transform="translate(28.48 35.417616) scale(0.12 -0.12)">
       <use xlink:href="#STIXGeneral-Regular-30" transform="translate(0 0.40625)"/>
       <use xlink:href="#STIXGeneral-Regular-2e" transform="translate(49.999985 0.40625)"/>
       <use xlink:href="#STIXGeneral-Regular-30" transform="translate(74.999969 0.40625)"/>
       <use xlink:href="#STIXGeneral-Regular-31" transform="translate(124.999954 0.40625)"/>
      </g>
     </g>
    </g>
    <g id="ytick_8">
     <g id="line2d_84">
      <defs>
       <path id="m829702027c" d="M 0 0 
L 1.5 0 
" style="stroke: #000000; stroke-width: 0.5"/>
      </defs>
      <g>
       <use xlink:href="#m829702027c" x="52.98" y="310.079937" style="stroke: #000000; stroke-width: 0.5"/>
      </g>
     </g>
     <g id="line2d_85">
      <defs>
       <path id="mf0c3a32c08" d="M 0 0 
L -1.5 0 
" style="stroke: #000000; stroke-width: 0.5"/>
      </defs>
      <g>
       <use xlink:href="#mf0c3a32c08" x="471.48" y="310.079937" style="stroke: #000000; stroke-width: 0.5"/>
      </g>
     </g>
    </g>
    <g id="ytick_9">
     <g id="line2d_86">
      <g>
       <use xlink:href="#m829702027c" x="52.98" y="301.63266" style="stroke: #000000; stroke-width: 0.5"/>
      </g>
     </g>
     <g id="line2d_87">
      <g>
       <use xlink:href="#mf0c3a32c08" x="471.48" y="301.63266" style="stroke: #000000; stroke-width: 0.5"/>
      </g>
     </g>
    </g>
    <g id="ytick_10">
     <g id="line2d_88">
      <g>
       <use xlink:href="#m829702027c" x="52.98" y="293.185383" style="stroke: #000000; stroke-width: 0.5"/>
      </g>
     </g>
     <g id="line2d_89">
      <g>
       <use xlink:href="#mf0c3a32c08" x="471.48" y="293.185383" style="stroke: #000000; stroke-width: 0.5"/>
      </g>
     </g>
    </g>
    <g id="ytick_11">
     <g id="line2d_90">
      <g>
       <use xlink:href="#m829702027c" x="52.98" y="276.29083" style="stroke: #000000; stroke-width: 0.5"/>
      </g>
     </g>
     <g id="line2d_91">
      <g>
       <use xlink:href="#mf0c3a32c08" x="471.48" y="276.29083" style="stroke: #000000; stroke-width: 0.5"/>
      </g>
     </g>
    </g>
    <g id="ytick_12">
     <g id="line2d_92">
      <g>
       <use xlink:href="#m829702027c" x="52.98" y="267.843553" style="stroke: #000000; stroke-width: 0.5"/>
      </g>
     </g>
     <g id="line2d_93">
      <g>
       <use xlink:href="#mf0c3a32c08" x="471.48" y="267.843553" style="stroke: #000000; stroke-width: 0.5"/>
      </g>
     </g>
    </g>
    <g id="ytick_13">
     <g id="line2d_94">
      <g>
       <use xlink:href="#m829702027c" x="52.98" y="259.396276" style="stroke: #000000; stroke-width: 0.5"/>
      </g>
     </g>
     <g id="line2d_95">
      <g>
       <use xlink:href="#mf0c3a32c08" x="471.48" y="259.396276" style="stroke: #000000; stroke-width: 0.5"/>
      </g>
     </g>
    </g>
    <g id="ytick_14">
     <g id="line2d_96">
      <g>
       <use xlink:href="#m829702027c" x="52.98" y="250.948999" style="stroke: #000000; stroke-width: 0.5"/>
      </g>
     </g>
     <g id="line2d_97">
      <g>
       <use xlink:href="#mf0c3a32c08" x="471.48" y="250.948999" style="stroke: #000000; stroke-width: 0.5"/>
      </g>
     </g>
    </g>
    <g id="ytick_15">
     <g id="line2d_98">
      <g>
       <use xlink:href="#m829702027c" x="52.98" y="234.054446" style="stroke: #000000; stroke-width: 0.5"/>
      </g>
     </g>
     <g id="line2d_99">
      <g>
       <use xlink:href="#mf0c3a32c08" x="471.48" y="234.054446" style="stroke: #000000; stroke-width: 0.5"/>
      </g>
     </g>
    </g>
    <g id="ytick_16">
     <g id="line2d_100">
      <g>
       <use xlink:href="#m829702027c" x="52.98" y="225.607169" style="stroke: #000000; stroke-width: 0.5"/>
      </g>
     </g>
     <g id="line2d_101">
      <g>
       <use xlink:href="#mf0c3a32c08" x="471.48" y="225.607169" style="stroke: #000000; stroke-width: 0.5"/>
      </g>
     </g>
    </g>
    <g id="ytick_17">
     <g id="line2d_102">
      <g>
       <use xlink:href="#m829702027c" x="52.98" y="217.159892" style="stroke: #000000; stroke-width: 0.5"/>
      </g>
     </g>
     <g id="line2d_103">
      <g>
       <use xlink:href="#mf0c3a32c08" x="471.48" y="217.159892" style="stroke: #000000; stroke-width: 0.5"/>
      </g>
     </g>
    </g>
    <g id="ytick_18">
     <g id="line2d_104">
      <g>
       <use xlink:href="#m829702027c" x="52.98" y="208.712616" style="stroke: #000000; stroke-width: 0.5"/>
      </g>
     </g>
     <g id="line2d_105">
      <g>
       <use xlink:href="#mf0c3a32c08" x="471.48" y="208.712616" style="stroke: #000000; stroke-width: 0.5"/>
      </g>
     </g>
    </g>
    <g id="ytick_19">
     <g id="line2d_106">
      <g>
       <use xlink:href="#m829702027c" x="52.98" y="191.818062" style="stroke: #000000; stroke-width: 0.5"/>
      </g>
     </g>
     <g id="line2d_107">
      <g>
       <use xlink:href="#mf0c3a32c08" x="471.48" y="191.818062" style="stroke: #000000; stroke-width: 0.5"/>
      </g>
     </g>
    </g>
    <g id="ytick_20">
     <g id="line2d_108">
      <g>
       <use xlink:href="#m829702027c" x="52.98" y="183.370785" style="stroke: #000000; stroke-width: 0.5"/>
      </g>
     </g>
     <g id="line2d_109">
      <g>
       <use xlink:href="#mf0c3a32c08" x="471.48" y="183.370785" style="stroke: #000000; stroke-width: 0.5"/>
      </g>
     </g>
    </g>
    <g id="ytick_21">
     <g id="line2d_110">
      <g>
       <use xlink:href="#m829702027c" x="52.98" y="174.923509" style="stroke: #000000; stroke-width: 0.5"/>
      </g>
     </g>
     <g id="line2d_111">
      <g>
       <use xlink:href="#mf0c3a32c08" x="471.48" y="174.923509" style="stroke: #000000; stroke-width: 0.5"/>
      </g>
     </g>
    </g>
    <g id="ytick_22">
     <g id="line2d_112">
      <g>
       <use xlink:href="#m829702027c" x="52.98" y="166.476232" style="stroke: #000000; stroke-width: 0.5"/>
      </g>
     </g>
     <g id="line2d_113">
      <g>
       <use xlink:href="#mf0c3a32c08" x="471.48" y="166.476232" style="stroke: #000000; stroke-width: 0.5"/>
      </g>
     </g>
    </g>
    <g id="ytick_23">
     <g id="line2d_114">
      <g>
       <use xlink:href="#m829702027c" x="52.98" y="149.581678" style="stroke: #000000; stroke-width: 0.5"/>
      </g>
     </g>
     <g id="line2d_115">
      <g>
       <use xlink:href="#mf0c3a32c08" x="471.48" y="149.581678" style="stroke: #000000; stroke-width: 0.5"/>
      </g>
     </g>
    </g>
    <g id="ytick_24">
     <g id="line2d_116">
      <g>
       <use xlink:href="#m829702027c" x="52.98" y="141.134402" style="stroke: #000000; stroke-width: 0.5"/>
      </g>
     </g>
     <g id="line2d_117">
      <g>
       <use xlink:href="#mf0c3a32c08" x="471.48" y="141.134402" style="stroke: #000000; stroke-width: 0.5"/>
      </g>
     </g>
    </g>
    <g id="ytick_25">
     <g id="line2d_118">
      <g>
       <use xlink:href="#m829702027c" x="52.98" y="132.687125" style="stroke: #000000; stroke-width: 0.5"/>
      </g>
     </g>
     <g id="line2d_119">
      <g>
       <use xlink:href="#mf0c3a32c08" x="471.48" y="132.687125" style="stroke: #000000; stroke-width: 0.5"/>
      </g>
     </g>
    </g>
    <g id="ytick_26">
     <g id="line2d_120">
      <g>
       <use xlink:href="#m829702027c" x="52.98" y="124.239848" style="stroke: #000000; stroke-width: 0.5"/>
      </g>
     </g>
     <g id="line2d_121">
      <g>
       <use xlink:href="#mf0c3a32c08" x="471.48" y="124.239848" style="stroke: #000000; stroke-width: 0.5"/>
      </g>
     </g>
    </g>
    <g id="ytick_27">
     <g id="line2d_122">
      <g>
       <use xlink:href="#m829702027c" x="52.98" y="107.345295" style="stroke: #000000; stroke-width: 0.5"/>
      </g>
     </g>
     <g id="line2d_123">
      <g>
       <use xlink:href="#mf0c3a32c08" x="471.48" y="107.345295" style="stroke: #000000; stroke-width: 0.5"/>
      </g>
     </g>
    </g>
    <g id="ytick_28">
     <g id="line2d_124">
      <g>
       <use xlink:href="#m829702027c" x="52.98" y="98.898018" style="stroke: #000000; stroke-width: 0.5"/>
      </g>
     </g>
     <g id="line2d_125">
      <g>
       <use xlink:href="#mf0c3a32c08" x="471.48" y="98.898018" style="stroke: #000000; stroke-width: 0.5"/>
      </g>
     </g>
    </g>
    <g id="ytick_29">
     <g id="line2d_126">
      <g>
       <use xlink:href="#m829702027c" x="52.98" y="90.450741" style="stroke: #000000; stroke-width: 0.5"/>
      </g>
     </g>
     <g id="line2d_127">
      <g>
       <use xlink:href="#mf0c3a32c08" x="471.48" y="90.450741" style="stroke: #000000; stroke-width: 0.5"/>
      </g>
     </g>
    </g>
    <g id="ytick_30">
     <g id="line2d_128">
      <g>
       <use xlink:href="#m829702027c" x="52.98" y="82.003464" style="stroke: #000000; stroke-width: 0.5"/>
      </g>
     </g>
     <g id="line2d_129">
      <g>
       <use xlink:href="#mf0c3a32c08" x="471.48" y="82.003464" style="stroke: #000000; stroke-width: 0.5"/>
      </g>
     </g>
    </g>
    <g id="ytick_31">
     <g id="line2d_130">
      <g>
       <use xlink:href="#m829702027c" x="52.98" y="65.108911" style="stroke: #000000; stroke-width: 0.5"/>
      </g>
     </g>
     <g id="line2d_131">
      <g>
       <use xlink:href="#mf0c3a32c08" x="471.48" y="65.108911" style="stroke: #000000; stroke-width: 0.5"/>
      </g>
     </g>
    </g>
    <g id="ytick_32">
     <g id="line2d_132">
      <g>
       <use xlink:href="#m829702027c" x="52.98" y="56.661634" style="stroke: #000000; stroke-width: 0.5"/>
      </g>
     </g>
     <g id="line2d_133">
      <g>
       <use xlink:href="#mf0c3a32c08" x="471.48" y="56.661634" style="stroke: #000000; stroke-width: 0.5"/>
      </g>
     </g>
    </g>
    <g id="ytick_33">
     <g id="line2d_134">
      <g>
       <use xlink:href="#m829702027c" x="52.98" y="48.214357" style="stroke: #000000; stroke-width: 0.5"/>
      </g>
     </g>
     <g id="line2d_135">
      <g>
       <use xlink:href="#mf0c3a32c08" x="471.48" y="48.214357" style="stroke: #000000; stroke-width: 0.5"/>
      </g>
     </g>
    </g>
    <g id="ytick_34">
     <g id="line2d_136">
      <g>
       <use xlink:href="#m829702027c" x="52.98" y="39.767081" style="stroke: #000000; stroke-width: 0.5"/>
      </g>
     </g>
     <g id="line2d_137">
      <g>
       <use xlink:href="#mf0c3a32c08" x="471.48" y="39.767081" style="stroke: #000000; stroke-width: 0.5"/>
      </g>
     </g>
    </g>
    <g id="text_15">
     <!-- Variance difference from exact -->
     <g transform="translate(13.161563 256.688844) rotate(-90) scale(0.14 -0.14)">
      <defs>
       <path id="STIXGeneral-Regular-56" d="M 4461 4237 
L 4461 4115 
Q 4262 4109 4134 3990 
Q 4006 3872 3872 3533 
L 2451 -70 
L 2355 -70 
L 794 3411 
Q 589 3866 467 3987 
Q 346 4109 102 4115 
L 102 4237 
L 1798 4237 
L 1798 4115 
L 1619 4102 
Q 1331 4083 1331 3904 
Q 1331 3776 1581 3219 
L 2554 1030 
L 3494 3392 
Q 3616 3699 3616 3853 
Q 3616 3898 3606 3933 
Q 3597 3968 3584 3993 
Q 3571 4019 3536 4038 
Q 3501 4058 3481 4067 
Q 3462 4077 3411 4086 
Q 3360 4096 3337 4099 
Q 3315 4102 3248 4108 
Q 3181 4115 3155 4115 
L 3155 4237 
L 4461 4237 
z
" transform="scale(0.015625)"/>
       <path id="STIXGeneral-Regular-61" d="M 2829 422 
L 2829 243 
Q 2586 -64 2253 -64 
Q 1888 -64 1843 403 
L 1837 403 
Q 1427 -64 909 -64 
Q 608 -64 422 112 
Q 237 288 237 602 
Q 237 1050 685 1350 
Q 992 1555 1837 1869 
L 1837 2214 
Q 1837 2502 1699 2646 
Q 1562 2790 1338 2790 
Q 1146 2790 1018 2697 
Q 890 2605 890 2477 
Q 890 2419 909 2348 
Q 928 2278 928 2208 
Q 928 2112 841 2029 
Q 755 1946 634 1946 
Q 525 1946 441 2029 
Q 358 2112 358 2240 
Q 358 2547 685 2752 
Q 986 2944 1421 2944 
Q 1939 2944 2176 2656 
Q 2291 2522 2323 2384 
Q 2355 2246 2355 1946 
L 2355 723 
Q 2355 301 2554 301 
Q 2682 301 2829 422 
z
M 1837 813 
L 1837 1715 
Q 1248 1510 1018 1293 
Q 800 1094 800 800 
Q 800 557 921 432 
Q 1043 307 1242 307 
Q 1453 307 1613 410 
Q 1747 506 1792 589 
Q 1837 672 1837 813 
z
" transform="scale(0.015625)"/>
       <path id="STIXGeneral-Regular-72" d="M 1024 2931 
L 1024 2342 
Q 1267 2688 1430 2816 
Q 1594 2944 1792 2944 
Q 1958 2944 2051 2854 
Q 2144 2765 2144 2605 
Q 2144 2470 2077 2393 
Q 2010 2317 1894 2317 
Q 1773 2317 1638 2445 
Q 1536 2541 1472 2541 
Q 1338 2541 1181 2355 
Q 1024 2170 1024 2016 
L 1024 576 
Q 1024 301 1133 205 
Q 1242 109 1568 96 
L 1568 0 
L 32 0 
L 32 96 
Q 339 154 412 224 
Q 486 294 486 538 
L 486 2138 
Q 486 2349 438 2435 
Q 390 2522 269 2522 
Q 166 2522 45 2496 
L 45 2598 
Q 448 2726 992 2944 
L 1024 2931 
z
" transform="scale(0.015625)"/>
       <path id="STIXGeneral-Regular-6e" d="M 3104 0 
L 1773 0 
L 1779 96 
Q 2016 115 2096 233 
Q 2176 352 2176 672 
L 2176 1946 
Q 2176 2592 1709 2592 
Q 1549 2592 1408 2515 
Q 1267 2438 1050 2227 
L 1050 461 
Q 1050 269 1136 192 
Q 1222 115 1466 96 
L 1466 0 
L 115 0 
L 115 96 
Q 358 115 435 214 
Q 512 314 512 602 
L 512 2157 
Q 512 2394 467 2483 
Q 422 2573 288 2573 
Q 160 2573 102 2547 
L 102 2656 
Q 550 2784 979 2944 
L 1030 2925 
L 1030 2426 
L 1037 2426 
Q 1491 2944 1958 2944 
Q 2323 2944 2518 2688 
Q 2714 2432 2714 1958 
L 2714 544 
Q 2714 288 2790 205 
Q 2867 122 3104 96 
L 3104 0 
z
" transform="scale(0.015625)"/>
       <path id="STIXGeneral-Regular-63" d="M 2547 998 
L 2637 941 
Q 2362 403 2112 205 
Q 1786 -64 1376 -64 
Q 845 -64 502 336 
Q 160 736 160 1357 
Q 160 2170 698 2618 
Q 1094 2944 1562 2944 
Q 1965 2944 2256 2749 
Q 2547 2554 2547 2285 
Q 2547 2176 2457 2096 
Q 2368 2016 2246 2016 
Q 2022 2016 1939 2310 
L 1901 2451 
Q 1850 2630 1773 2694 
Q 1696 2758 1523 2758 
Q 1133 2758 893 2451 
Q 653 2144 653 1645 
Q 653 1094 928 745 
Q 1203 397 1645 397 
Q 1920 397 2118 528 
Q 2317 659 2547 998 
z
" transform="scale(0.015625)"/>
       <path id="STIXGeneral-Regular-20" transform="scale(0.015625)"/>
       <path id="STIXGeneral-Regular-64" d="M 3142 269 
L 2202 -64 
L 2176 -45 
L 2176 365 
Q 1869 -64 1357 -64 
Q 826 -64 499 317 
Q 173 698 173 1312 
Q 173 1990 563 2467 
Q 954 2944 1504 2944 
Q 1850 2944 2176 2669 
L 2176 3667 
Q 2176 3866 2118 3930 
Q 2061 3994 1882 3994 
Q 1792 3994 1741 3987 
L 1741 4090 
Q 2323 4243 2682 4371 
L 2714 4358 
L 2714 730 
Q 2714 506 2768 435 
Q 2822 365 2995 365 
Q 3034 365 3142 371 
L 3142 269 
z
M 2176 653 
L 2176 2125 
Q 2176 2381 1981 2573 
Q 1786 2765 1523 2765 
Q 1158 2765 940 2438 
Q 723 2112 723 1568 
Q 723 979 963 624 
Q 1203 269 1606 269 
Q 1907 269 2080 474 
Q 2176 582 2176 653 
z
" transform="scale(0.015625)"/>
       <path id="STIXGeneral-Regular-66" d="M 134 2880 
L 659 2880 
Q 666 3264 710 3478 
Q 755 3693 883 3910 
Q 1152 4371 1786 4371 
Q 2074 4371 2262 4259 
Q 2451 4147 2451 3974 
Q 2451 3866 2374 3789 
Q 2298 3712 2182 3712 
Q 2029 3712 1894 3942 
Q 1741 4192 1555 4192 
Q 1197 4192 1197 3622 
L 1197 2880 
L 1978 2880 
L 1978 2675 
L 1197 2675 
L 1197 666 
Q 1197 307 1299 208 
Q 1402 109 1792 96 
L 1792 0 
L 128 0 
L 128 96 
Q 474 115 566 214 
Q 659 314 659 666 
L 659 2675 
L 134 2675 
L 134 2880 
z
" transform="scale(0.015625)"/>
       <path id="STIXGeneral-Regular-6f" d="M 3008 1478 
Q 3008 806 2608 371 
Q 2208 -64 1568 -64 
Q 979 -64 582 368 
Q 186 800 186 1459 
Q 186 2125 582 2534 
Q 979 2944 1626 2944 
Q 2221 2944 2614 2537 
Q 3008 2131 3008 1478 
z
M 2432 1306 
Q 2432 2035 2112 2445 
Q 1856 2765 1504 2765 
Q 1171 2765 966 2493 
Q 762 2221 762 1747 
Q 762 928 1101 435 
Q 1318 115 1677 115 
Q 2029 115 2230 432 
Q 2432 749 2432 1306 
z
" transform="scale(0.015625)"/>
       <path id="STIXGeneral-Regular-78" d="M 3066 0 
L 1779 0 
L 1779 96 
Q 1939 109 1987 137 
Q 2035 166 2035 250 
Q 2035 307 1997 365 
L 1414 1261 
L 909 474 
Q 781 275 781 211 
Q 781 96 1037 96 
L 1037 0 
L 109 0 
L 109 96 
Q 269 109 355 169 
Q 442 230 576 422 
L 1306 1478 
L 704 2400 
Q 557 2624 454 2704 
Q 352 2784 211 2784 
L 154 2784 
L 154 2880 
L 1478 2880 
L 1478 2784 
Q 1203 2778 1203 2643 
Q 1203 2509 1498 2074 
Q 1581 1958 1587 1946 
Q 1619 1990 1779 2227 
Q 1811 2285 1856 2349 
Q 1901 2413 1923 2451 
Q 1946 2490 1971 2528 
Q 1997 2566 2006 2595 
Q 2016 2624 2016 2643 
Q 2016 2765 1760 2784 
L 1760 2880 
L 2771 2880 
L 2771 2784 
Q 2445 2771 2253 2502 
L 1722 1734 
L 2541 480 
Q 2790 96 3066 96 
L 3066 0 
z
" transform="scale(0.015625)"/>
       <path id="STIXGeneral-Regular-74" d="M 1702 493 
L 1786 422 
Q 1478 -64 1011 -64 
Q 448 -64 448 749 
L 448 2675 
L 109 2675 
Q 83 2694 83 2720 
Q 83 2771 192 2842 
Q 435 2982 813 3526 
Q 826 3546 874 3606 
Q 922 3667 941 3706 
Q 986 3706 986 3622 
L 986 2880 
L 1632 2880 
L 1632 2675 
L 986 2675 
L 986 845 
Q 986 538 1062 403 
Q 1139 269 1318 269 
Q 1510 269 1702 493 
z
" transform="scale(0.015625)"/>
      </defs>
      <use xlink:href="#STIXGeneral-Regular-56"/>
      <use xlink:href="#STIXGeneral-Regular-61" transform="translate(72.199982 0)"/>
      <use xlink:href="#STIXGeneral-Regular-72" transform="translate(116.599976 0)"/>
      <use xlink:href="#STIXGeneral-Regular-69" transform="translate(149.899963 0)"/>
      <use xlink:href="#STIXGeneral-Regular-61" transform="translate(177.699951 0)"/>
      <use xlink:href="#STIXGeneral-Regular-6e" transform="translate(222.099945 0)"/>
      <use xlink:href="#STIXGeneral-Regular-63" transform="translate(272.09993 0)"/>
      <use xlink:href="#STIXGeneral-Regular-65" transform="translate(316.499924 0)"/>
      <use xlink:href="#STIXGeneral-Regular-20" transform="translate(360.899918 0)"/>
      <use xlink:href="#STIXGeneral-Regular-64" transform="translate(385.899902 0)"/>
      <use xlink:href="#STIXGeneral-Regular-69" transform="translate(435.899887 0)"/>
      <use xlink:href="#STIXGeneral-Regular-66" transform="translate(463.699875 0)"/>
      <use xlink:href="#STIXGeneral-Regular-66" transform="translate(496.999863 0)"/>
      <use xlink:href="#STIXGeneral-Regular-65" transform="translate(530.29985 0)"/>
      <use xlink:href="#STIXGeneral-Regular-72" transform="translate(574.699844 0)"/>
      <use xlink:href="#STIXGeneral-Regular-65" transform="translate(607.999832 0)"/>
      <use xlink:href="#STIXGeneral-Regular-6e" transform="translate(652.399826 0)"/>
      <use xlink:href="#STIXGeneral-Regular-63" transform="translate(702.399811 0)"/>
      <use xlink:href="#STIXGeneral-Regular-65" transform="translate(746.799805 0)"/>
      <use xlink:href="#STIXGeneral-Regular-20" transform="translate(791.199799 0)"/>
      <use xlink:href="#STIXGeneral-Regular-66" transform="translate(816.199783 0)"/>
      <use xlink:href="#STIXGeneral-Regular-72" transform="translate(849.499771 0)"/>
      <use xlink:href="#STIXGeneral-Regular-6f" transform="translate(882.799759 0)"/>
      <use xlink:href="#STIXGeneral-Regular-6d" transform="translate(932.799744 0)"/>
      <use xlink:href="#STIXGeneral-Regular-20" transform="translate(1010.599731 0)"/>
      <use xlink:href="#STIXGeneral-Regular-65" transform="translate(1035.599716 0)"/>
      <use xlink:href="#STIXGeneral-Regular-78" transform="translate(1079.99971 0)"/>
      <use xlink:href="#STIXGeneral-Regular-61" transform="translate(1129.999695 0)"/>
      <use xlink:href="#STIXGeneral-Regular-63" transform="translate(1174.399689 0)"/>
      <use xlink:href="#STIXGeneral-Regular-74" transform="translate(1218.799683 0)"/>
     </g>
    </g>
   </g>
   <g id="line2d_138">
    <path d="M 72.002727 300.464 
L 75.274636 286.092545 
L 78.546545 272.72326 
L 81.818455 260.281227 
L 85.090364 248.697378 
L 88.362273 237.908026 
L 91.710273 227.628944 
L 95.058273 218.06227 
L 98.406273 209.1546 
L 101.830364 200.674879 
L 105.254455 192.784582 
L 108.678545 185.439158 
L 112.178727 178.451009 
L 115.678909 171.949142 
L 119.255182 165.769718 
L 122.907545 159.905299 
L 126.559909 154.456938 
L 130.288364 149.290556 
L 134.092909 144.39808 
L 137.973545 139.770905 
L 141.930273 135.400001 
L 145.963091 131.276014 
L 150.072 127.389358 
L 154.333091 123.666407 
L 158.670273 120.171125 
L 163.159636 116.838456 
L 167.801182 113.670755 
L 172.594909 110.668805 
L 177.540818 107.831982 
L 182.715 105.120324 
L 188.117455 102.541098 
L 193.748182 100.099264 
L 199.683273 97.769277 
L 205.922727 95.560551 
L 212.542636 93.45673 
L 219.543 91.469128 
L 226.923818 89.605586 
L 234.837273 87.838885 
L 243.283364 86.182687 
L 252.414273 84.621921 
L 262.23 83.171737 
L 272.958818 81.815161 
L 284.676818 80.562013 
L 297.536182 79.414019 
L 311.841273 78.364836 
L 327.820364 77.420421 
L 345.93 76.577997 
L 366.702818 75.839831 
L 390.975818 75.205846 
L 420.118636 74.675018 
L 452.457273 74.28477 
L 452.457273 74.28477 
" clip-path="url(#p79bfcadfc1)" style="fill: none; stroke: #2ca02c; stroke-width: 2.2; stroke-linecap: square"/>
   </g>
   <g id="line2d_139">
    <path d="M 52.98 73.556188 
L 471.48 73.556188 
" clip-path="url(#p79bfcadfc1)" style="fill: none; stroke: #000000; stroke-opacity: 0.6; stroke-linecap: square"/>
   </g>
   <g id="patch_3">
    <path d="M 52.98 313.568 
L 52.98 25.28 
" style="fill: none; stroke: #000000; stroke-width: 0.5; stroke-linejoin: miter; stroke-linecap: square"/>
   </g>
   <g id="patch_4">
    <path d="M 471.48 313.568 
L 471.48 25.28 
" style="fill: none; stroke: #000000; stroke-width: 0.5; stroke-linejoin: miter; stroke-linecap: square"/>
   </g>
   <g id="patch_5">
    <path d="M 52.98 313.568 
L 471.48 313.568 
" style="fill: none; stroke: #000000; stroke-width: 0.5; stroke-linejoin: miter; stroke-linecap: square"/>
   </g>
   <g id="patch_6">
    <path d="M 52.98 25.28 
L 471.48 25.28 
" style="fill: none; stroke: #000000; stroke-width: 0.5; stroke-linejoin: miter; stroke-linecap: square"/>
   </g>
   <g id="line2d_140">
    <path d="M 72.002727 73.556188 
L 72.078818 77.773496 
L 72.154909 69.34526 
L 72.307091 77.716786 
L 72.383182 77.689632 
L 72.459273 77.658402 
L 72.535364 73.454392 
L 72.763636 81.645133 
L 72.839727 81.585509 
L 72.915818 85.665372 
L 72.991909 81.454583 
L 73.068 85.509834 
L 73.220182 81.229432 
L 73.296273 81.146826 
L 73.524545 89.036811 
L 73.600636 88.922561 
L 73.676727 84.737331 
L 73.752818 88.68324 
L 73.828909 84.507755 
L 74.057182 92.195674 
L 74.133273 92.048252 
L 74.437636 107.474464 
L 74.513727 103.259749 
L 74.589818 107.075113 
L 74.665909 106.870542 
L 74.742 106.662745 
L 75.046364 90.020322 
L 75.350727 100.963718 
L 75.426818 96.829688 
L 75.502909 100.506433 
L 75.655091 88.418204 
L 75.807273 95.692304 
L 76.111636 83.289605 
L 76.568182 104.574997 
L 76.644273 104.286837 
L 76.720364 103.996143 
L 76.872545 99.643999 
L 77.253 113.106288 
L 77.481273 104.659685 
L 77.633455 111.406656 
L 77.709545 99.998318 
L 77.785636 103.345196 
L 77.861727 103.011135 
L 77.937818 106.336843 
L 78.013909 105.990109 
L 78.09 105.641299 
L 78.242182 112.219106 
L 78.318273 111.847326 
L 78.394364 111.473569 
L 78.622636 117.571559 
L 78.698727 113.56204 
L 79.231364 135.824446 
L 79.307455 135.361311 
L 79.535727 126.832549 
L 79.611818 126.379818 
L 79.687909 118.8636 
L 79.764 121.942951 
L 80.068364 109.710323 
L 80.296636 115.310975 
L 80.448818 110.975024 
L 80.601 110.084571 
L 80.753182 105.797506 
L 81.438 101.786554 
L 81.514091 91.464919 
L 81.590182 94.311606 
L 81.666273 90.610693 
L 81.742364 93.438587 
L 81.818455 89.752715 
L 81.894545 92.561906 
L 82.046727 88.459107 
L 82.198909 94.012466 
L 82.275 93.561102 
L 82.351091 93.108978 
L 82.427182 95.853412 
L 82.503273 95.391389 
L 82.579364 94.928672 
L 82.655455 97.645684 
L 82.731545 97.173199 
L 82.807636 93.536581 
L 82.959818 98.907123 
L 83.112 94.801795 
L 83.264182 100.100433 
L 83.340273 99.60664 
L 83.416364 95.99957 
L 83.492455 98.617711 
L 83.568545 98.122618 
L 83.720727 94.05225 
L 83.796818 93.564497 
L 83.949 89.542788 
L 84.101182 94.647224 
L 84.405545 83.671806 
L 84.481636 83.198763 
L 84.633818 76.356085 
L 84.862091 80.831893 
L 84.938182 74.52971 
L 85.014273 76.974669 
L 85.166455 76.04445 
L 85.242545 78.464146 
L 85.318636 77.990717 
L 86.079545 73.264559 
L 86.231727 77.897347 
L 86.383909 71.381039 
L 86.46 73.669063 
L 86.536091 73.190991 
L 86.688273 64.063343 
L 86.764364 58.222526 
L 86.840455 60.470442 
L 87.220909 68.908948 
L 87.297 65.770695 
L 87.449182 70.148024 
L 87.525273 69.668296 
L 87.601364 66.549452 
L 87.677455 68.710831 
L 87.753545 65.610251 
L 87.829636 67.756145 
L 87.905727 67.279892 
L 87.981818 64.206852 
L 88.057909 66.329659 
L 88.134 65.855716 
L 88.210091 65.382582 
L 88.438364 69.087262 
L 88.666636 62.561784 
L 88.742727 62.094825 
L 88.818818 64.141887 
L 88.894909 61.163794 
L 88.971 63.195929 
L 89.199273 56.85141 
L 89.275364 56.399976 
L 89.579727 45.009149 
L 89.884091 50.451118 
L 90.036273 44.890504 
L 90.112364 46.812992 
L 90.340636 38.650201 
L 90.873273 49.474278 
L 90.949364 49.042353 
L 91.177636 52.266327 
L 91.253727 49.572301 
L 91.558091 54.527935 
L 91.634182 51.850232 
L 91.786364 55.394702 
L 91.862455 54.939338 
L 92.014636 54.033655 
L 92.623364 65.588614 
L 92.699455 65.093478 
L 92.775545 66.775374 
L 92.851636 66.275525 
L 92.927727 65.777567 
L 93.079909 62.646008 
L 93.460364 68.69433 
L 93.612545 67.681205 
L 94.297364 79.78228 
L 94.525636 82.306257 
L 94.753909 80.626777 
L 94.906091 77.470077 
L 94.982182 78.967896 
L 95.058273 78.419586 
L 95.286545 72.784808 
L 95.667 78.072321 
L 95.743091 77.528818 
L 95.895273 74.493741 
L 96.275727 81.532466 
L 96.351818 79.036836 
L 96.656182 82.608835 
L 96.732273 82.048137 
L 96.884455 84.752963 
L 96.960545 80.382177 
L 97.036636 81.720249 
L 97.188818 80.611793 
L 97.569273 85.289128 
L 97.721455 84.152322 
L 97.873636 81.198145 
L 97.949727 80.648256 
L 98.178 84.426579 
L 98.254091 83.863067 
L 98.330182 85.106013 
L 98.406273 84.539997 
L 98.482364 85.772019 
L 98.634545 82.859959 
L 98.786727 81.755081 
L 98.862818 79.462865 
L 98.938909 80.662449 
L 99.167182 73.940324 
L 99.243273 73.433325 
L 99.547636 76.416571 
L 99.623727 75.900083 
L 99.699818 77.046696 
L 99.775909 76.528196 
L 99.852 74.369939 
L 100.080273 77.747356 
L 100.156364 77.228283 
L 100.308545 72.990097 
L 100.460727 75.185163 
L 100.536818 74.682742 
L 100.765091 77.922001 
L 100.841182 77.407795 
L 100.917273 78.472428 
L 101.069455 77.444281 
L 101.145545 78.493915 
L 101.297727 77.469675 
L 101.373818 78.504425 
L 101.449909 77.992612 
L 101.602091 80.037484 
L 101.678182 79.519387 
L 101.830364 81.534912 
L 101.906455 79.494359 
L 102.058636 81.480764 
L 102.134727 80.958888 
L 102.743455 88.674484 
L 102.819545 86.62727 
L 102.895636 87.565693 
L 102.971727 87.016933 
L 103.047818 87.945995 
L 103.2 86.850493 
L 103.276091 87.765606 
L 103.352182 85.770229 
L 103.428273 86.676102 
L 103.504364 86.137113 
L 103.732636 88.813435 
L 103.808727 88.264605 
L 103.884818 89.143047 
L 104.189182 86.968848 
L 104.341364 88.676193 
L 104.417455 86.752463 
L 104.493545 87.594992 
L 104.645727 89.266753 
L 104.874 87.648619 
L 105.178364 90.8868 
L 105.254455 90.338144 
L 105.406636 87.931223 
L 106.091455 94.849613 
L 106.167545 94.283634 
L 106.395818 96.501274 
L 106.471909 93.342194 
L 106.548 94.068943 
L 106.700182 95.510056 
L 106.852364 94.383652 
L 106.928455 95.089851 
L 107.156727 93.420766 
L 107.385 90.579118 
L 107.461091 90.053265 
L 107.765455 92.724887 
L 107.917636 91.654766 
L 108.069818 92.951021 
L 108.298091 91.356205 
L 108.450273 92.613441 
L 108.602455 91.557555 
L 108.830727 93.391403 
L 109.059 90.696972 
L 109.211182 91.877718 
L 109.287273 91.360071 
L 109.515545 93.09176 
L 109.667727 92.04819 
L 109.743818 92.610544 
L 109.819909 91.023597 
L 109.896 91.578575 
L 110.048182 90.565702 
L 110.124273 91.109691 
L 110.352545 87.588113 
L 110.428636 88.117586 
L 110.580818 86.188064 
L 110.885182 88.241408 
L 111.037364 87.303891 
L 111.265636 88.785498 
L 111.341727 87.363273 
L 111.417818 87.846643 
L 111.646091 89.275917 
L 111.722182 88.803556 
L 111.798273 89.269625 
L 111.874364 88.798837 
L 111.950455 89.25805 
L 112.026545 88.788873 
L 112.178727 89.69027 
L 112.407 87.40156 
L 112.559182 86.512205 
L 112.787455 84.375999 
L 112.863545 83.962803 
L 112.939636 82.73959 
L 113.015727 83.151854 
L 113.091818 83.560833 
L 113.167909 83.159821 
L 113.396182 80.450498 
L 113.472273 80.843187 
L 113.548364 80.476614 
L 113.700545 77.592424 
L 114.004909 79.092554 
L 114.081 78.057394 
L 114.157091 78.421321 
L 114.233182 78.093643 
L 114.385364 78.805773 
L 114.461455 78.477139 
L 114.765818 75.948901 
L 114.841909 76.284774 
L 114.918 75.996698 
L 115.070182 76.653108 
L 115.146273 76.364308 
L 115.222364 76.684896 
L 115.298455 76.398473 
L 115.450636 77.024525 
L 115.602818 76.455934 
L 115.678909 76.75846 
L 115.755 76.479365 
L 115.831091 76.775937 
L 116.059364 75.417817 
L 116.363727 76.539315 
L 116.439818 76.276 
L 116.592 76.813486 
L 116.668091 76.549947 
L 116.744182 76.811488 
L 116.820273 76.550655 
L 116.972455 75.5516 
L 117.048545 75.801725 
L 117.124636 75.563297 
L 117.276818 76.049409 
L 117.352909 75.810975 
L 117.733364 76.963284 
L 117.885545 76.475613 
L 117.961636 76.692254 
L 118.037727 76.454225 
L 118.189909 76.873841 
L 118.266 76.636089 
L 118.418182 75.759669 
L 118.798636 76.721034 
L 118.874727 76.49562 
L 119.026909 76.856244 
L 119.103 76.238559 
L 119.179091 76.412295 
L 119.331273 75.991668 
L 119.407364 76.157575 
L 119.635636 74.886949 
L 120.320455 76.195398 
L 121.005273 74.428756 
L 121.081364 74.539278 
L 121.157455 74.406618 
L 121.385727 74.716343 
L 121.537909 74.239225 
L 121.614 74.332853 
L 121.690091 74.424096 
L 121.766182 74.306002 
L 121.842273 74.392494 
L 121.918364 74.476622 
L 121.994455 74.169818 
L 122.070545 74.249238 
L 122.222727 74.401053 
L 122.374909 74.024039 
L 122.603182 74.220424 
L 122.755364 73.896373 
L 122.983636 73.488226 
L 123.135818 73.496235 
L 123.516273 73.428442 
L 123.972818 73.513934 
L 124.505455 73.54992 
L 125.342455 73.69854 
L 125.570727 73.855524 
L 125.799 74.184176 
L 126.179455 74.138204 
L 126.331636 74.187746 
L 126.712091 74.089056 
L 126.940364 74.226833 
L 127.168636 74.043092 
L 127.244727 74.142725 
L 127.320818 74.075724 
L 127.549091 73.863311 
L 127.777364 73.988691 
L 127.929545 73.82639 
L 128.005636 73.932511 
L 128.081727 73.846716 
L 128.157818 73.957583 
L 128.31 74.655293 
L 128.462182 74.467163 
L 128.614364 74.761698 
L 128.690455 74.661279 
L 128.842636 74.45504 
L 128.994818 74.765367 
L 129.223091 74.431924 
L 129.299182 74.591778 
L 129.375273 74.475338 
L 129.451364 74.640129 
L 129.527455 74.520189 
L 129.679636 74.8664 
L 129.984 74.355478 
L 130.060091 74.531787 
L 130.212273 74.262649 
L 130.288364 74.442311 
L 130.592727 73.877044 
L 130.668818 74.390436 
L 130.744909 74.24328 
L 130.973182 73.791897 
L 131.049273 73.980264 
L 131.125364 73.824881 
L 131.201455 74.018431 
L 131.581909 73.209108 
L 131.658 73.401436 
L 131.734091 73.233161 
L 131.810182 73.430755 
L 132.495 71.831352 
L 132.647182 72.219138 
L 132.799364 71.840557 
L 132.875455 72.443031 
L 132.951545 72.249948 
L 133.027636 72.055357 
L 133.103727 72.268955 
L 133.484182 71.266103 
L 133.636364 72.134372 
L 133.788545 71.717021 
L 133.864636 71.949642 
L 134.092909 71.308379 
L 134.169 71.543676 
L 134.321182 71.106122 
L 134.473364 71.592082 
L 134.549455 71.368341 
L 134.701636 72.373796 
L 134.853818 71.916503 
L 134.929909 72.188384 
L 135.082091 71.72277 
L 135.386455 73.968148 
L 135.462545 74.289565 
L 135.843 73.067736 
L 135.919091 73.389554 
L 135.995182 73.139856 
L 136.071273 73.467475 
L 136.223455 72.961491 
L 136.299545 73.293622 
L 136.375636 73.037364 
L 136.451727 73.37534 
L 136.908273 71.802972 
L 137.060455 72.485067 
L 137.440909 71.127319 
L 137.517 71.472913 
L 137.745273 70.639686 
L 137.973545 71.708778 
L 138.354 70.27764 
L 138.430091 70.642497 
L 138.506182 70.351507 
L 138.734455 71.486152 
L 138.810545 71.190469 
L 138.962727 71.980973 
L 139.191 71.080047 
L 139.267091 71.482796 
L 139.419273 70.874186 
L 139.723636 72.549295 
L 139.799727 72.238811 
L 139.875818 72.674799 
L 140.028 72.048292 
L 140.104091 72.489419 
L 140.332364 71.538154 
L 140.408455 72.756298 
L 140.484545 72.435959 
L 140.712818 71.468503 
L 140.865 72.3894 
L 141.017182 71.734879 
L 141.169364 72.681146 
L 141.397636 74.996608 
L 141.473727 74.662586 
L 141.549818 75.17649 
L 141.625909 74.84042 
L 141.702 75.36073 
L 142.386818 72.281716 
L 142.462909 72.800493 
L 142.615091 72.103423 
L 142.691182 72.627723 
L 143.071636 70.863323 
L 143.147727 71.390322 
L 143.223818 71.033634 
L 143.299909 71.567192 
L 143.528182 70.488684 
L 143.680364 71.57275 
L 143.984727 70.114423 
L 144.060818 70.664094 
L 144.136909 70.296331 
L 144.213 70.852646 
L 144.365182 70.112633 
L 144.441273 70.674715 
L 144.669545 69.55538 
L 144.897818 71.279113 
L 145.05 70.523294 
L 145.202182 71.706909 
L 145.278273 71.325999 
L 145.354364 71.928347 
L 145.506545 71.162292 
L 145.658727 72.386435 
L 145.887 71.226072 
L 145.963091 72.864979 
L 146.039182 72.47572 
L 146.191364 73.75589 
L 146.343545 72.971682 
L 146.419636 73.621608 
L 146.952273 70.846178 
L 147.028364 71.498233 
L 147.104455 71.097827 
L 147.180545 72.825362 
L 147.256636 72.423414 
L 147.332727 72.0207 
L 147.408818 72.69425 
L 147.865364 70.257529 
L 148.017545 71.61872 
L 148.398 69.560382 
L 148.550182 72.064432 
L 148.930636 69.980976 
L 149.006727 70.689885 
L 149.082818 70.270386 
L 149.158909 70.986351 
L 149.387182 69.721635 
L 149.463273 70.4433 
L 150.072 67.035554 
L 150.224182 68.491548 
L 150.528545 66.766638 
L 150.680727 68.248676 
L 150.756818 70.196702 
L 150.832909 69.761966 
L 150.909 69.3266 
L 150.985091 70.094345 
L 151.061182 69.657731 
L 151.137273 70.432679 
L 151.289455 69.556358 
L 151.441636 71.127298 
L 152.202545 66.697459 
L 152.354727 68.287943 
L 152.506909 67.392627 
L 152.583 68.198534 
L 152.659091 70.283636 
L 152.735182 69.83399 
L 152.811273 70.663545 
L 153.115636 68.857147 
L 153.191727 69.692378 
L 153.496091 67.875022 
L 153.572182 68.715992 
L 153.724364 67.80302 
L 153.800455 69.964395 
L 153.876545 69.506588 
L 153.952636 70.370256 
L 154.028727 69.911403 
L 154.104818 70.782478 
L 154.257 73.904209 
L 154.789636 70.667208 
L 154.865727 72.939699 
L 154.941818 72.47478 
L 155.017909 73.390502 
L 155.094 72.924606 
L 155.170091 73.847803 
L 155.246182 73.38094 
L 155.322273 74.311621 
L 155.702727 71.967784 
L 155.778818 72.904081 
L 155.854909 72.433443 
L 155.931 73.377262 
L 156.615818 69.116982 
L 156.691909 70.064761 
L 156.768 69.588738 
L 156.844091 70.544095 
L 156.996273 69.589888 
L 157.072364 70.552404 
L 157.528909 67.677087 
L 157.681091 69.621194 
L 158.213727 66.242335 
L 158.289818 67.223657 
L 158.594182 65.282659 
L 158.670273 66.2705 
L 158.822455 65.296947 
L 158.898545 66.292104 
L 158.974636 65.80439 
L 159.050727 66.80725 
L 159.202909 65.829977 
L 159.355091 67.858476 
L 159.507273 66.878301 
L 159.583364 67.903965 
L 160.039909 64.952856 
L 160.192091 67.024307 
L 160.344273 70.686718 
L 160.420364 70.192308 
L 160.496455 72.839952 
L 160.572545 72.344879 
L 160.724727 71.353751 
L 161.029091 74.144553 
L 161.257364 72.651623 
L 161.485636 74.382756 
L 161.561727 73.883568 
L 161.637818 75.010178 
L 161.713909 74.510385 
L 162.322636 70.501433 
L 162.627 75.078951 
L 162.703091 74.575415 
L 162.931364 73.063164 
L 163.083545 75.398767 
L 163.159636 74.893608 
L 163.235727 74.388185 
L 163.311818 77.261411 
L 163.387909 76.755465 
L 163.920545 73.206701 
L 163.996636 74.400861 
L 164.072727 73.892651 
L 164.224909 72.875504 
L 164.529273 75.995414 
L 164.605364 75.48554 
L 164.681455 76.711351 
L 164.757545 76.201018 
L 165.518455 71.085463 
L 165.594545 74.069895 
L 165.670636 73.556945 
L 165.975 71.503091 
L 166.051091 72.750379 
L 166.127182 72.236211 
L 166.279364 71.207284 
L 166.812 78.344944 
L 166.888091 77.828874 
L 166.964182 79.133011 
L 167.040273 78.61658 
L 167.268545 77.066223 
L 167.496818 79.180423 
L 167.725091 77.626983 
L 167.801182 78.954569 
L 167.877273 78.436263 
L 168.105545 76.880382 
L 168.257727 79.559143 
L 168.333818 79.039891 
L 168.409909 78.520488 
L 168.638182 84.496349 
L 168.714273 83.976351 
L 168.790364 85.361069 
L 168.866455 84.840783 
L 169.170818 82.758235 
L 169.246909 84.150563 
L 169.323 83.629448 
L 169.399091 83.108199 
L 169.475182 84.508575 
L 169.551273 83.987064 
L 169.627364 83.465425 
L 169.703455 84.873861 
L 169.779545 84.351969 
L 169.855636 83.829952 
L 169.931727 87.193559 
L 170.007818 86.671297 
L 170.16 85.626413 
L 170.236091 87.059339 
L 170.312182 86.536604 
L 170.540455 84.967716 
L 170.692636 91.827887 
L 170.768727 91.304484 
L 170.844818 90.780975 
L 170.920909 92.255142 
L 170.997 91.731424 
L 171.681818 87.013517 
L 171.834 89.984969 
L 171.910091 89.460111 
L 172.975364 82.103614 
L 173.203636 84.580051 
L 173.508 82.474809 
L 173.584091 83.988364 
L 173.660182 83.461843 
L 174.497182 77.666596 
L 174.573273 79.187932 
L 174.649364 78.66076 
L 174.725455 78.133547 
L 174.953727 80.673941 
L 175.029818 80.146573 
L 175.105909 81.692975 
L 175.182 81.165537 
L 175.334182 80.110561 
L 175.638545 86.379942 
L 175.714636 85.852294 
L 176.171182 82.685906 
L 176.247273 84.274146 
L 176.323364 83.746325 
L 176.932091 79.523255 
L 177.008182 83.252752 
L 177.084273 82.724815 
L 178.682182 71.638464 
L 178.758273 75.401863 
L 178.834364 74.874062 
L 179.214818 72.235349 
L 179.290909 73.865951 
L 179.367 73.338298 
L 179.519182 72.283069 
L 179.747455 75.042331 
L 180.356182 70.823353 
L 180.584455 73.61752 
L 180.736636 72.563373 
L 180.812727 74.236878 
L 180.888818 73.70991 
L 181.649727 68.442814 
L 181.801909 71.816378 
L 181.878 71.290055 
L 182.334545 68.133323 
L 182.410636 69.833268 
L 182.486727 69.307417 
L 182.562818 68.781629 
L 182.638909 70.490209 
L 182.715 69.964549 
L 183.475909 64.711692 
L 183.552 66.429551 
L 183.628091 65.904732 
L 183.704182 65.379989 
L 183.780273 67.106522 
L 183.856364 66.581932 
L 184.008545 65.532988 
L 184.084636 67.268281 
L 184.160727 66.744008 
L 184.389 65.171681 
L 184.465091 66.915832 
L 184.541182 66.391973 
L 184.769455 64.820912 
L 184.921636 68.335503 
L 184.997727 67.812168 
L 185.226 66.242704 
L 185.378182 69.792173 
L 185.454273 69.269388 
L 185.530364 68.746698 
L 185.910818 75.426698 
L 186.367364 72.295569 
L 186.595636 75.428077 
L 187.584818 68.661216 
L 187.660909 70.502486 
L 187.737 69.982859 
L 187.965273 68.424677 
L 188.041364 70.27498 
L 188.117455 69.755941 
L 188.269636 68.718223 
L 188.497909 71.926819 
L 188.726182 70.372259 
L 188.802273 72.249125 
L 188.878364 71.731313 
L 189.334909 68.627121 
L 189.411 70.513458 
L 189.487091 69.996676 
L 190.248 64.836195 
L 190.324091 66.732593 
L 190.400182 66.217431 
L 191.161091 61.073565 
L 191.541545 68.238299 
L 191.617636 67.725435 
L 191.769818 71.616469 
L 191.845909 71.104052 
L 191.998091 70.079671 
L 192.074182 72.038536 
L 192.150273 71.526725 
L 192.454636 69.481011 
L 192.530727 71.449244 
L 192.606818 70.938356 
L 192.987273 68.386271 
L 193.063364 70.364051 
L 193.139455 69.854267 
L 193.596 66.79894 
L 193.672091 68.786456 
L 193.748182 68.277966 
L 193.824273 67.76964 
L 194.052545 73.784846 
L 194.128636 73.277181 
L 194.889545 68.209787 
L 195.117818 71.76126 
L 195.498273 69.236577 
L 195.574364 71.279019 
L 195.650455 70.774784 
L 196.107 67.753097 
L 196.183091 69.805409 
L 196.259182 69.302599 
L 196.335273 68.79997 
L 196.411364 70.861271 
L 196.487455 70.359004 
L 196.639636 69.355016 
L 196.715727 71.425492 
L 196.791818 70.923955 
L 197.781 64.420843 
L 197.857091 66.50256 
L 197.933182 66.003824 
L 198.009273 65.505277 
L 198.085364 67.596012 
L 198.161455 67.097847 
L 198.389727 65.604503 
L 198.541909 72.427858 
L 198.694091 71.434033 
L 198.922364 69.944753 
L 198.998455 72.071597 
L 199.074545 71.575757 
L 199.455 69.099512 
L 199.531091 71.236183 
L 199.607182 70.741726 
L 199.759364 69.753411 
L 199.835455 71.899327 
L 199.911545 71.405669 
L 200.063727 70.418956 
L 200.292 74.245289 
L 201.281182 67.85941 
L 201.357273 70.034746 
L 201.433364 69.545175 
L 201.509455 69.055811 
L 201.585545 71.240218 
L 201.661636 70.751272 
L 202.346455 66.360208 
L 202.574727 70.272796 
L 203.868273 62.03666 
L 203.944364 66.960392 
L 204.020455 66.478086 
L 204.324818 64.551058 
L 204.400909 66.785651 
L 204.477 66.304666 
L 204.553091 65.823902 
L 204.629182 68.067605 
L 204.705273 67.587284 
L 205.085727 65.189015 
L 205.161818 67.442725 
L 205.237909 66.963964 
L 206.835818 56.962179 
L 206.911909 59.229553 
L 206.988 58.756015 
L 207.216273 57.336786 
L 207.292364 59.61376 
L 207.368455 59.141377 
L 207.977182 55.370667 
L 208.129364 59.954838 
L 208.205455 59.485016 
L 208.357636 58.546073 
L 208.433727 60.851884 
L 208.509818 60.383 
L 208.966364 57.57464 
L 209.042455 59.890785 
L 209.118545 59.423788 
L 209.194636 58.957028 
L 209.270727 61.282331 
L 209.346818 60.816046 
L 209.422909 60.349999 
L 209.499 62.684461 
L 209.575091 62.21889 
L 210.031636 59.430474 
L 210.183818 64.128802 
L 210.259909 63.665383 
L 210.564273 61.814112 
L 210.640364 64.17751 
L 210.716455 63.715535 
L 210.868636 62.79231 
L 210.944727 65.165122 
L 211.020818 64.704114 
L 211.173 63.782825 
L 211.249091 69.016009 
L 211.325182 68.555971 
L 211.857818 65.34252 
L 211.933909 67.743835 
L 212.01 67.285991 
L 212.542636 64.087942 
L 212.694818 68.920572 
L 212.770909 68.465182 
L 212.847 68.010039 
L 213.151364 74.871511 
L 213.531818 72.604444 
L 213.607909 75.061861 
L 213.684 74.609439 
L 216.423273 58.488872 
L 216.575455 66.383805 
L 216.651545 65.94118 
L 216.879818 73.4718 
L 216.955909 73.030191 
L 217.184182 71.706893 
L 217.336364 76.77285 
L 217.412455 76.33277 
L 217.945091 73.259357 
L 218.021182 75.807433 
L 218.097273 75.369652 
L 219.314727 68.400064 
L 219.390818 70.961211 
L 219.466909 70.528056 
L 220.912636 62.347207 
L 220.988727 64.922233 
L 221.064818 64.494512 
L 221.140909 64.06705 
L 221.293091 69.244261 
L 221.369182 68.817579 
L 221.445273 68.391157 
L 221.597455 73.604237 
L 221.673545 73.178595 
L 221.901818 71.903231 
L 222.206182 79.367463 
L 222.434455 78.097571 
L 222.510545 80.74538 
L 222.586636 80.322866 
L 222.738818 79.47862 
L 222.814909 82.135921 
L 222.891 81.71445 
L 223.043182 80.872294 
L 223.119273 83.539087 
L 223.195364 83.118662 
L 223.880182 79.346614 
L 223.956273 82.024733 
L 224.032364 81.607188 
L 224.260636 80.356125 
L 224.336727 83.044002 
L 224.412818 82.627768 
L 224.565 81.796086 
L 224.793273 86.784621 
L 226.086818 79.771139 
L 226.162909 82.490664 
L 226.239 82.080736 
L 227.152091 77.18214 
L 227.228182 79.913799 
L 227.304273 79.507559 
L 227.456455 78.695869 
L 227.532545 84.592087 
L 227.608636 84.186901 
L 230.271818 70.171593 
L 230.347909 72.939412 
L 230.424 72.543989 
L 231.184909 68.60428 
L 231.261 71.383713 
L 231.337091 70.991458 
L 232.782818 63.588743 
L 232.858909 66.382164 
L 232.935 65.995448 
L 233.467636 63.295824 
L 233.619818 68.913016 
L 233.695909 68.528936 
L 233.924182 67.378278 
L 234.000273 70.200994 
L 234.076364 69.818232 
L 234.989455 65.245615 
L 235.065545 68.080463 
L 235.141636 67.701385 
L 236.130818 62.797285 
L 236.206909 65.644521 
L 236.283 65.269384 
L 236.739545 63.024069 
L 236.815636 65.881851 
L 236.891727 65.508812 
L 237.880909 60.683142 
L 237.957 63.553299 
L 238.033091 63.184188 
L 242.674636 41.160844 
L 242.750727 44.055819 
L 242.826818 43.703075 
L 243.359455 41.241078 
L 243.511636 47.061265 
L 243.587727 46.711095 
L 245.413909 38.384 
L 245.642182 43.908563 
L 245.870455 42.880335 
L 245.946545 45.828316 
L 246.022636 45.486338 
L 246.327 44.120972 
L 246.403091 47.078928 
L 246.479182 46.738477 
L 247.468364 42.335717 
L 247.620545 48.284835 
L 247.696636 47.948442 
L 248.077091 46.270265 
L 248.153182 49.259391 
L 248.229273 48.924765 
L 248.305364 48.590392 
L 248.381455 51.588722 
L 248.457545 51.254853 
L 249.066273 48.592967 
L 249.142364 51.602261 
L 249.218455 51.270908 
L 249.598909 49.617909 
L 249.675 52.637406 
L 249.751091 52.307809 
L 249.979364 51.320521 
L 250.055455 54.349717 
L 250.131545 54.021372 
L 252.109909 45.571854 
L 252.186 48.616465 
L 252.262091 48.295083 
L 252.718636 46.371981 
L 252.870818 52.490743 
L 252.946909 52.171583 
L 253.555636 49.627166 
L 253.631727 52.701801 
L 253.707818 52.385101 
L 254.164364 50.490047 
L 254.240455 53.57509 
L 254.316545 53.26035 
L 254.773091 51.377039 
L 254.849182 54.472484 
L 254.925273 54.159697 
L 256.142727 49.188174 
L 256.371 55.105217 
L 257.131909 52.03674 
L 257.208 55.165035 
L 257.284091 54.859753 
L 257.436273 54.249909 
L 257.512364 57.387613 
L 257.588455 57.083291 
L 258.045 55.262395 
L 258.121091 65.33723 
L 258.197182 65.034825 
L 259.871182 58.442169 
L 259.947273 61.621286 
L 260.023364 61.324586 
L 260.251636 60.4359 
L 260.327727 63.624646 
L 260.403818 63.329125 
L 260.556 62.738791 
L 260.632091 65.936926 
L 260.708182 65.642347 
L 261.621273 62.125718 
L 261.697364 65.335584 
L 261.773455 65.044288 
L 262.838727 60.990613 
L 262.914818 64.212651 
L 262.990909 63.925078 
L 264.512727 58.222103 
L 264.664909 64.701894 
L 264.741 64.419618 
L 265.273636 62.450092 
L 265.349727 65.704829 
L 265.425818 65.424609 
L 267.175909 59.042165 
L 267.252 62.31101 
L 267.328091 62.036448 
L 268.089 59.303156 
L 268.165091 62.583138 
L 268.241182 62.311263 
L 268.545545 61.225994 
L 268.621636 64.51576 
L 268.697727 64.245222 
L 271.360909 54.915607 
L 271.437 58.221971 
L 271.513091 57.959577 
L 272.121818 55.868256 
L 272.350091 62.250879 
L 272.426182 61.991089 
L 272.730545 71.762381 
L 273.415364 69.441737 
L 273.491455 72.804619 
L 273.567545 72.548058 
L 273.719727 72.035578 
L 273.795818 75.407765 
L 273.871909 75.15206 
L 274.632818 72.606741 
L 275.089364 89.356988 
L 278.97 76.767298 
L 279.046091 80.204615 
L 279.122182 79.963348 
L 281.481 72.584923 
L 281.557091 76.037376 
L 281.633182 75.802793 
L 283.611545 69.773554 
L 283.687636 73.240016 
L 283.763727 73.010991 
L 284.372455 71.185863 
L 284.448545 74.662734 
L 284.524636 74.43567 
L 285.057273 72.85168 
L 285.133364 76.338753 
L 285.209455 76.113441 
L 285.970364 73.870981 
L 286.046455 77.368823 
L 286.122545 77.145832 
L 286.350818 76.478013 
L 286.579091 83.279317 
L 286.807364 82.614954 
L 286.883455 86.140249 
L 286.959545 85.919369 
L 288.861818 80.459114 
L 288.937909 83.997973 
L 289.014 83.782205 
L 289.927091 81.207583 
L 290.003182 84.757504 
L 290.079273 84.54435 
L 292.057636 79.067132 
L 292.133727 82.630655 
L 292.209818 82.42265 
L 294.340364 76.671954 
L 294.416455 80.249332 
L 294.492545 80.046732 
L 295.253455 78.030507 
L 295.329545 81.618463 
L 295.405636 81.417992 
L 297.155727 76.855635 
L 297.231818 80.456417 
L 297.307909 80.260322 
L 297.764455 79.087389 
L 297.840545 82.698003 
L 297.916636 82.503291 
L 300.275455 76.552083 
L 300.351545 80.176769 
L 300.427636 79.987677 
L 301.188545 78.105991 
L 301.264636 81.741135 
L 301.340727 81.554053 
L 304.764818 73.305933 
L 304.840909 76.957227 
L 304.917 76.777842 
L 305.297455 75.883325 
L 305.373545 79.544189 
L 305.449636 79.365927 
L 308.265 72.881593 
L 308.493273 80.069158 
L 310.319455 75.988298 
L 310.395545 79.684804 
L 310.471636 79.516833 
L 315.037091 69.712239 
L 319.450364 60.730263 
L 319.526455 64.452616 
L 319.602545 64.302032 
L 320.211273 63.10231 
L 320.439545 70.426173 
L 322.874455 65.727371 
L 322.950545 69.481167 
L 323.026636 69.336678 
L 323.407091 68.616224 
L 323.635364 76.007719 
L 325.918091 71.765758 
L 325.994182 75.550131 
L 326.070273 75.410873 
L 326.298545 74.993871 
L 326.374636 78.787334 
L 326.450727 78.648718 
L 326.983364 77.681984 
L 327.059455 81.485044 
L 327.135545 81.347577 
L 329.570455 77.015127 
L 329.646545 80.830898 
L 329.722636 80.697692 
L 332.157545 76.499717 
L 332.233636 80.32808 
L 332.309727 80.199014 
L 332.461909 79.941242 
L 332.538 83.778532 
L 332.614091 83.649946 
L 332.918455 83.136794 
L 332.994545 86.983247 
L 333.070636 86.855377 
L 333.755455 85.709881 
L 333.831545 89.566087 
L 333.907636 89.439519 
L 336.799091 84.716368 
L 336.875182 88.585662 
L 336.951273 88.463731 
L 338.701364 85.690552 
L 338.929636 93.341231 
L 343.571182 86.289125 
L 347.680091 80.374948 
L 347.756182 84.28492 
L 347.832273 84.178313 
L 348.136636 83.752888 
L 348.212727 87.67191 
L 348.288818 87.565904 
L 348.517091 87.248488 
L 348.593182 91.176457 
L 348.669273 91.070951 
L 353.386909 84.720617 
L 355.974 81.393318 
L 356.050091 85.339094 
L 356.126182 85.24294 
L 357.571909 83.433261 
L 357.648 87.389387 
L 357.724091 87.295132 
L 361.452545 82.784853 
L 361.528636 86.753897 
L 361.604727 86.664111 
L 366.474545 81.092417 
L 368.529 78.842188 
L 368.605091 82.827321 
L 368.681182 82.74517 
L 370.583455 80.716761 
L 370.659545 84.712442 
L 370.735636 84.632389 
L 375.681545 79.590365 
L 378.725182 76.64058 
L 378.801273 80.652539 
L 378.877364 80.580309 
L 382.986273 76.78152 
L 383.062364 80.805727 
L 383.138455 80.737295 
L 385.040727 79.047782 
L 385.116818 83.082199 
L 385.192909 83.015528 
L 385.345091 82.882379 
L 385.421182 86.925501 
L 385.497273 86.859087 
L 386.943 85.609343 
L 387.019091 89.662248 
L 387.095182 89.597169 
L 392.345455 85.25547 
L 396.682636 81.881506 
L 396.758727 85.950458 
L 396.834818 85.892972 
L 397.976182 85.037344 
L 398.052273 89.115687 
L 398.128364 89.059142 
L 398.965364 88.440763 
L 399.041455 92.528263 
L 399.117545 92.472428 
L 402.922091 89.7488 
L 402.998182 93.847504 
L 403.074273 93.794424 
L 403.150364 93.741395 
L 403.226455 97.848701 
L 403.302545 97.795775 
L 403.606909 97.584586 
L 403.683 101.700648 
L 403.759091 101.648031 
L 409.313727 97.942183 
L 411.976909 96.256838 
L 412.053 100.386705 
L 412.129091 100.339439 
L 415.477091 98.304816 
L 415.553182 102.44521 
L 415.629273 102.400021 
L 421.488273 99.049991 
L 427.575545 95.82693 
L 433.815 92.775591 
L 440.282727 89.861681 
L 446.978727 87.091002 
L 452.457273 84.996111 
L 452.457273 84.996111 
" clip-path="url(#p79bfcadfc1)" style="fill: none; stroke: #ff7f0e; stroke-width: 1.9; stroke-linecap: square"/>
   </g>
   <g id="text_16">
    <!-- Variance Difference vs Time (Fock state $|1\rangle$, $\gamma=1$) -->
    <g transform="translate(95.99 19.28) scale(0.16 -0.16)">
     <defs>
      <path id="STIXGeneral-Regular-44" d="M 102 4237 
L 1830 4237 
Q 3078 4237 3750 3654 
Q 4384 3110 4384 2138 
Q 4384 966 3514 410 
Q 2880 0 1901 0 
L 102 0 
L 102 122 
Q 474 147 570 252 
Q 666 358 666 736 
L 666 3520 
Q 666 3891 570 3990 
Q 474 4090 102 4115 
L 102 4237 
z
M 1318 3731 
L 1318 538 
Q 1318 365 1379 301 
Q 1440 237 1626 237 
Q 2125 237 2432 307 
Q 2739 378 3021 570 
Q 3686 1018 3686 2099 
Q 3686 3027 3078 3558 
Q 2803 3802 2476 3901 
Q 2150 4000 1658 4000 
Q 1472 4000 1395 3942 
Q 1318 3885 1318 3731 
z
" transform="scale(0.015625)"/>
      <path id="STIXGeneral-Regular-76" d="M 3053 2880 
L 3053 2784 
Q 2906 2771 2835 2688 
Q 2765 2605 2637 2285 
L 1818 230 
Q 1690 -90 1638 -90 
Q 1587 -90 1523 77 
Q 1510 96 1497 141 
Q 1485 186 1472 211 
L 704 2048 
Q 499 2534 403 2652 
Q 307 2771 122 2784 
L 122 2880 
L 1376 2880 
L 1376 2784 
Q 1210 2771 1146 2732 
Q 1082 2694 1082 2611 
Q 1082 2509 1139 2368 
L 1792 730 
L 2426 2387 
Q 2464 2483 2464 2579 
Q 2464 2758 2163 2784 
L 2163 2880 
L 3053 2880 
z
" transform="scale(0.015625)"/>
      <path id="STIXGeneral-Regular-73" d="M 998 1926 
L 1664 1523 
Q 1984 1331 2105 1164 
Q 2227 998 2227 736 
Q 2227 416 1961 176 
Q 1696 -64 1331 -64 
Q 1030 -64 864 -6 
Q 691 51 570 51 
Q 461 51 416 -26 
L 333 -26 
L 333 979 
L 435 979 
Q 538 512 730 294 
Q 922 77 1248 77 
Q 1485 77 1632 211 
Q 1779 346 1779 550 
Q 1779 845 1440 1030 
L 1094 1222 
Q 326 1651 326 2150 
Q 326 2522 566 2730 
Q 806 2938 1210 2938 
Q 1491 2938 1638 2867 
Q 1754 2816 1818 2816 
Q 1862 2816 1920 2880 
L 1990 2880 
L 2022 2010 
L 1926 2010 
Q 1818 2445 1654 2621 
Q 1491 2797 1203 2797 
Q 986 2797 854 2688 
Q 723 2579 723 2362 
Q 723 2253 796 2128 
Q 870 2003 998 1926 
z
" transform="scale(0.015625)"/>
      <path id="STIXGeneral-Regular-28" d="M 1946 -1030 
L 1869 -1133 
Q 1126 -710 716 32 
Q 307 774 307 1613 
Q 307 3386 1888 4326 
L 1946 4224 
Q 1293 3667 1075 3126 
Q 858 2586 858 1632 
Q 858 685 1082 96 
Q 1306 -493 1946 -1030 
z
" transform="scale(0.015625)"/>
      <path id="STIXGeneral-Regular-46" d="M 3494 3322 
L 3334 3322 
Q 3264 3757 3094 3875 
Q 2925 3994 2349 3994 
L 1504 3994 
Q 1370 3994 1328 3946 
Q 1286 3898 1286 3744 
L 1286 2355 
L 2195 2355 
Q 2598 2355 2736 2470 
Q 2874 2586 2918 2963 
L 3066 2963 
L 3066 1472 
L 2918 1472 
Q 2880 1862 2745 1977 
Q 2611 2093 2195 2093 
L 1286 2093 
L 1286 717 
Q 1286 352 1392 246 
Q 1498 141 1869 122 
L 1869 0 
L 70 0 
L 70 122 
Q 435 147 534 259 
Q 634 371 634 787 
L 634 3526 
Q 634 3878 538 3984 
Q 442 4090 77 4115 
L 77 4237 
L 3462 4237 
L 3494 3322 
z
" transform="scale(0.015625)"/>
      <path id="STIXGeneral-Regular-6b" d="M 3232 0 
L 1837 0 
L 1837 96 
L 1958 96 
Q 2093 96 2093 192 
Q 2093 250 2022 339 
L 1062 1606 
L 1062 429 
Q 1062 262 1142 185 
Q 1222 109 1414 102 
L 1542 96 
L 1542 0 
L 45 0 
L 45 96 
Q 390 154 457 214 
Q 525 275 525 525 
L 525 3610 
Q 525 3840 467 3920 
Q 410 4000 250 4000 
Q 211 4000 45 3987 
L 45 4090 
L 237 4141 
Q 621 4243 1037 4371 
L 1062 4358 
L 1062 1670 
L 1939 2451 
Q 2086 2586 2086 2675 
Q 2086 2739 2019 2761 
Q 1952 2784 1766 2790 
L 1766 2880 
L 3072 2880 
L 3072 2784 
Q 2752 2784 2505 2646 
Q 2259 2509 1690 1978 
L 1504 1805 
L 2483 563 
Q 2829 122 3232 96 
L 3232 0 
z
" transform="scale(0.015625)"/>
      <path id="Cmsy10-6a" d="M 763 -1484 
L 763 4684 
Q 763 4734 800 4767 
Q 838 4800 891 4800 
Q 938 4800 978 4767 
Q 1019 4734 1019 4684 
L 1019 -1484 
Q 1019 -1534 978 -1567 
Q 938 -1600 891 -1600 
Q 838 -1600 800 -1567 
Q 763 -1534 763 -1484 
z
" transform="scale(0.015625)"/>
      <path id="Cmr10-31" d="M 594 0 
L 594 225 
Q 1394 225 1394 428 
L 1394 3788 
Q 1063 3628 556 3628 
L 556 3853 
Q 1341 3853 1741 4263 
L 1831 4263 
Q 1853 4263 1873 4245 
Q 1894 4228 1894 4206 
L 1894 428 
Q 1894 225 2694 225 
L 2694 0 
L 594 0 
z
" transform="scale(0.015625)"/>
      <path id="Cmex10-ae" d="M 500 -7297 
Q 500 -7263 513 -7250 
L 2119 -3584 
L 513 84 
Q 500 97 500 128 
Q 500 175 537 215 
Q 575 256 628 256 
Q 703 256 750 178 
L 2381 -3541 
Q 2388 -3553 2388 -3584 
Q 2388 -3616 2381 -3634 
L 750 -7347 
Q 700 -7425 628 -7425 
Q 575 -7425 537 -7384 
Q 500 -7344 500 -7297 
z
" transform="scale(0.015625)"/>
      <path id="STIXGeneral-Regular-2c" d="M 531 -902 
L 467 -781 
Q 998 -422 998 -96 
Q 998 -13 909 -13 
Q 883 -13 822 -25 
Q 762 -38 723 -38 
Q 352 -38 352 288 
Q 352 454 457 553 
Q 563 653 736 653 
Q 954 653 1101 496 
Q 1248 339 1248 96 
Q 1248 -198 1053 -473 
Q 858 -749 531 -902 
z
" transform="scale(0.015625)"/>
      <path id="Cmmi10-b0" d="M 1888 -1253 
Q 1888 -1109 1952 -834 
Q 2016 -559 2108 -248 
Q 2200 63 2266 263 
Q 2291 581 2291 744 
Q 2291 1156 2209 1511 
Q 2128 1866 1903 2105 
Q 1678 2344 1275 2344 
Q 1063 2344 852 2253 
Q 641 2163 489 2000 
Q 338 1838 281 1631 
Q 269 1594 231 1594 
L 153 1594 
Q 103 1594 103 1650 
L 103 1672 
Q 175 1959 358 2226 
Q 541 2494 805 2661 
Q 1069 2828 1363 2828 
Q 1663 2828 1881 2625 
Q 2100 2422 2231 2109 
Q 2363 1797 2420 1478 
Q 2478 1159 2478 878 
Q 2800 1753 3200 2534 
L 3297 2741 
Q 3316 2759 3341 2759 
L 3419 2759 
Q 3469 2759 3469 2700 
Q 3469 2688 3456 2663 
L 3359 2463 
Q 3081 1909 2848 1340 
Q 2616 772 2450 244 
Q 2425 28 2354 -347 
Q 2284 -722 2184 -1045 
Q 2084 -1369 1984 -1381 
Q 1888 -1381 1888 -1253 
z
" transform="scale(0.015625)"/>
      <path id="Cmr10-3d" d="M 481 850 
Q 428 850 393 890 
Q 359 931 359 978 
Q 359 1031 393 1068 
Q 428 1106 481 1106 
L 4500 1106 
Q 4547 1106 4581 1068 
Q 4616 1031 4616 978 
Q 4616 931 4581 890 
Q 4547 850 4500 850 
L 481 850 
z
M 481 2094 
Q 428 2094 393 2131 
Q 359 2169 359 2222 
Q 359 2269 393 2309 
Q 428 2350 481 2350 
L 4500 2350 
Q 4547 2350 4581 2309 
Q 4616 2269 4616 2222 
Q 4616 2169 4581 2131 
Q 4547 2094 4500 2094 
L 481 2094 
z
" transform="scale(0.015625)"/>
      <path id="STIXGeneral-Regular-29" d="M 186 4224 
L 262 4326 
Q 992 3891 1408 3148 
Q 1824 2406 1824 1581 
Q 1824 -166 243 -1133 
L 186 -1030 
Q 845 -486 1059 54 
Q 1274 595 1274 1562 
Q 1274 2534 1059 3120 
Q 845 3706 186 4224 
z
" transform="scale(0.015625)"/>
     </defs>
     <use xlink:href="#STIXGeneral-Regular-56" transform="translate(0 0.658854)"/>
     <use xlink:href="#STIXGeneral-Regular-61" transform="translate(72.199982 0.658854)"/>
     <use xlink:href="#STIXGeneral-Regular-72" transform="translate(116.599976 0.658854)"/>
     <use xlink:href="#STIXGeneral-Regular-69" transform="translate(149.899963 0.658854)"/>
     <use xlink:href="#STIXGeneral-Regular-61" transform="translate(177.699951 0.658854)"/>
     <use xlink:href="#STIXGeneral-Regular-6e" transform="translate(222.099945 0.658854)"/>
     <use xlink:href="#STIXGeneral-Regular-63" transform="translate(272.09993 0.658854)"/>
     <use xlink:href="#STIXGeneral-Regular-65" transform="translate(316.499924 0.658854)"/>
     <use xlink:href="#STIXGeneral-Regular-20" transform="translate(360.899918 0.658854)"/>
     <use xlink:href="#STIXGeneral-Regular-44" transform="translate(385.899902 0.658854)"/>
     <use xlink:href="#STIXGeneral-Regular-69" transform="translate(458.099884 0.658854)"/>
     <use xlink:href="#STIXGeneral-Regular-66" transform="translate(485.899872 0.658854)"/>
     <use xlink:href="#STIXGeneral-Regular-66" transform="translate(519.19986 0.658854)"/>
     <use xlink:href="#STIXGeneral-Regular-65" transform="translate(552.499847 0.658854)"/>
     <use xlink:href="#STIXGeneral-Regular-72" transform="translate(596.899841 0.658854)"/>
     <use xlink:href="#STIXGeneral-Regular-65" transform="translate(630.199829 0.658854)"/>
     <use xlink:href="#STIXGeneral-Regular-6e" transform="translate(674.599823 0.658854)"/>
     <use xlink:href="#STIXGeneral-Regular-63" transform="translate(724.599808 0.658854)"/>
     <use xlink:href="#STIXGeneral-Regular-65" transform="translate(768.999802 0.658854)"/>
     <use xlink:href="#STIXGeneral-Regular-20" transform="translate(813.399796 0.658854)"/>
     <use xlink:href="#STIXGeneral-Regular-76" transform="translate(838.39978 0.658854)"/>
     <use xlink:href="#STIXGeneral-Regular-73" transform="translate(888.399765 0.658854)"/>
     <use xlink:href="#STIXGeneral-Regular-20" transform="translate(927.299759 0.658854)"/>
     <use xlink:href="#STIXGeneral-Regular-54" transform="translate(952.299744 0.658854)"/>
     <use xlink:href="#STIXGeneral-Regular-69" transform="translate(1013.399734 0.658854)"/>
     <use xlink:href="#STIXGeneral-Regular-6d" transform="translate(1041.199722 0.658854)"/>
     <use xlink:href="#STIXGeneral-Regular-65" transform="translate(1118.99971 0.658854)"/>
     <use xlink:href="#STIXGeneral-Regular-20" transform="translate(1163.399704 0.658854)"/>
     <use xlink:href="#STIXGeneral-Regular-28" transform="translate(1188.399689 0.658854)"/>
     <use xlink:href="#STIXGeneral-Regular-46" transform="translate(1221.699677 0.658854)"/>
     <use xlink:href="#STIXGeneral-Regular-6f" transform="translate(1277.299667 0.658854)"/>
     <use xlink:href="#STIXGeneral-Regular-63" transform="translate(1327.299652 0.658854)"/>
     <use xlink:href="#STIXGeneral-Regular-6b" transform="translate(1371.699646 0.658854)"/>
     <use xlink:href="#STIXGeneral-Regular-20" transform="translate(1421.699631 0.658854)"/>
     <use xlink:href="#STIXGeneral-Regular-73" transform="translate(1446.699615 0.658854)"/>
     <use xlink:href="#STIXGeneral-Regular-74" transform="translate(1485.599609 0.658854)"/>
     <use xlink:href="#STIXGeneral-Regular-61" transform="translate(1513.399597 0.658854)"/>
     <use xlink:href="#STIXGeneral-Regular-74" transform="translate(1557.799591 0.658854)"/>
     <use xlink:href="#STIXGeneral-Regular-65" transform="translate(1585.599579 0.658854)"/>
     <use xlink:href="#STIXGeneral-Regular-20" transform="translate(1629.999573 0.658854)"/>
     <use xlink:href="#Cmsy10-6a" transform="translate(1654.999557 0.658854)"/>
     <use xlink:href="#Cmr10-31" transform="translate(1682.685104 0.658854)"/>
     <use xlink:href="#Cmex10-ae" transform="translate(1732.685104 94)"/>
     <use xlink:href="#STIXGeneral-Regular-2c" transform="translate(1779.901901 0.658854)"/>
     <use xlink:href="#STIXGeneral-Regular-20" transform="translate(1804.901886 0.658854)"/>
     <use xlink:href="#Cmmi10-b0" transform="translate(1829.901871 0.658854)"/>
     <use xlink:href="#Cmr10-3d" transform="translate(1899.169449 0.658854)"/>
     <use xlink:href="#Cmr10-31" transform="translate(1994.413589 0.658854)"/>
     <use xlink:href="#STIXGeneral-Regular-29" transform="translate(2044.413589 0.658854)"/>
    </g>
   </g>
   <g id="line2d_141">
    <path d="M 72.002727 73.556188 
L 452.457273 73.556331 
L 452.457273 73.556331 
" clip-path="url(#p79bfcadfc1)" style="fill: none; stroke: #1f77b4; stroke-width: 2; stroke-linecap: square"/>
   </g>
   <g id="legend_1">
    <g id="line2d_142">
     <path d="M 363.865625 266.245656 
L 374.865625 266.245656 
L 385.865625 266.245656 
" style="fill: none; stroke: #1f77b4; stroke-width: 2; stroke-linecap: square"/>
    </g>
    <g id="text_17">
     <!-- Density Matrix -->
     <g transform="translate(394.665625 270.095656) scale(0.11 -0.11)">
      <defs>
       <path id="STIXGeneral-Regular-79" d="M 3040 2880 
L 3040 2784 
Q 2925 2771 2854 2700 
Q 2784 2630 2720 2458 
L 1760 -160 
Q 1510 -838 1257 -1116 
Q 1005 -1395 640 -1395 
Q 435 -1395 313 -1289 
Q 192 -1184 192 -1024 
Q 192 -902 272 -816 
Q 352 -730 467 -730 
Q 653 -730 800 -813 
Q 883 -858 966 -858 
Q 1101 -858 1286 -576 
Q 1376 -448 1459 -211 
Q 1542 26 1542 115 
Q 1542 198 1274 762 
L 429 2566 
Q 346 2752 90 2790 
L 90 2880 
L 1402 2880 
L 1402 2784 
Q 1197 2778 1117 2739 
Q 1037 2701 1037 2611 
Q 1037 2541 1120 2349 
L 1837 749 
L 2458 2515 
Q 2483 2573 2483 2630 
Q 2483 2784 2189 2784 
L 2189 2880 
L 3040 2880 
z
" transform="scale(0.015625)"/>
       <path id="STIXGeneral-Regular-4d" d="M 5530 0 
L 3738 0 
L 3738 122 
Q 4115 147 4214 265 
Q 4314 384 4314 787 
L 4314 3661 
L 2682 0 
L 2592 0 
L 979 3514 
L 979 966 
Q 979 448 1088 294 
Q 1197 141 1574 122 
L 1574 0 
L 77 0 
L 77 122 
Q 358 141 480 205 
Q 602 269 650 432 
Q 698 595 698 966 
L 698 3514 
Q 698 3878 589 3984 
Q 480 4090 90 4115 
L 90 4237 
L 1357 4237 
L 2835 1024 
L 4250 4237 
L 5523 4237 
L 5523 4115 
Q 5178 4109 5072 3993 
Q 4966 3878 4966 3520 
L 4966 717 
Q 4966 378 5072 262 
Q 5178 147 5530 122 
L 5530 0 
z
" transform="scale(0.015625)"/>
      </defs>
      <use xlink:href="#STIXGeneral-Regular-44"/>
      <use xlink:href="#STIXGeneral-Regular-65" transform="translate(72.199982 0)"/>
      <use xlink:href="#STIXGeneral-Regular-6e" transform="translate(116.599976 0)"/>
      <use xlink:href="#STIXGeneral-Regular-73" transform="translate(166.59996 0)"/>
      <use xlink:href="#STIXGeneral-Regular-69" transform="translate(205.499954 0)"/>
      <use xlink:href="#STIXGeneral-Regular-74" transform="translate(233.299942 0)"/>
      <use xlink:href="#STIXGeneral-Regular-79" transform="translate(261.09993 0)"/>
      <use xlink:href="#STIXGeneral-Regular-20" transform="translate(311.099915 0)"/>
      <use xlink:href="#STIXGeneral-Regular-4d" transform="translate(336.099899 0)"/>
      <use xlink:href="#STIXGeneral-Regular-61" transform="translate(424.999893 0)"/>
      <use xlink:href="#STIXGeneral-Regular-74" transform="translate(469.399887 0)"/>
      <use xlink:href="#STIXGeneral-Regular-72" transform="translate(497.199875 0)"/>
      <use xlink:href="#STIXGeneral-Regular-69" transform="translate(530.499863 0)"/>
      <use xlink:href="#STIXGeneral-Regular-78" transform="translate(558.29985 0)"/>
     </g>
    </g>
    <g id="line2d_143">
     <path d="M 363.865625 281.843312 
L 374.865625 281.843312 
L 385.865625 281.843312 
" style="fill: none; stroke: #ff7f0e; stroke-width: 1.9; stroke-linecap: square"/>
    </g>
    <g id="text_18">
     <!-- Monte Carlo -->
     <g transform="translate(394.665625 285.693312) scale(0.11 -0.11)">
      <defs>
       <path id="STIXGeneral-Regular-43" d="M 3930 838 
L 4051 723 
Q 3482 -90 2304 -90 
Q 1376 -90 794 480 
Q 179 1082 179 2080 
Q 179 3014 755 3661 
Q 1357 4326 2310 4326 
Q 2720 4326 3072 4230 
Q 3475 4115 3514 4115 
Q 3725 4115 3782 4326 
L 3910 4326 
L 3968 2874 
L 3821 2874 
Q 3718 3334 3488 3584 
Q 3034 4070 2458 4070 
Q 1747 4070 1334 3548 
Q 922 3027 922 2182 
Q 922 1152 1382 653 
Q 1811 192 2522 192 
Q 2944 192 3251 339 
Q 3558 486 3930 838 
z
" transform="scale(0.015625)"/>
       <path id="STIXGeneral-Regular-6c" d="M 1645 0 
L 134 0 
L 134 96 
Q 435 122 531 221 
Q 627 320 627 589 
L 627 3590 
Q 627 3821 569 3910 
Q 512 4000 358 4000 
Q 224 4000 122 3987 
L 122 4090 
Q 730 4237 1133 4371 
L 1165 4346 
L 1165 557 
Q 1165 288 1254 201 
Q 1344 115 1645 96 
L 1645 0 
z
" transform="scale(0.015625)"/>
      </defs>
      <use xlink:href="#STIXGeneral-Regular-4d"/>
      <use xlink:href="#STIXGeneral-Regular-6f" transform="translate(88.899994 0)"/>
      <use xlink:href="#STIXGeneral-Regular-6e" transform="translate(138.899979 0)"/>
      <use xlink:href="#STIXGeneral-Regular-74" transform="translate(188.899963 0)"/>
      <use xlink:href="#STIXGeneral-Regular-65" transform="translate(216.699951 0)"/>
      <use xlink:href="#STIXGeneral-Regular-20" transform="translate(261.099945 0)"/>
      <use xlink:href="#STIXGeneral-Regular-43" transform="translate(286.09993 0)"/>
      <use xlink:href="#STIXGeneral-Regular-61" transform="translate(352.799927 0)"/>
      <use xlink:href="#STIXGeneral-Regular-72" transform="translate(397.199921 0)"/>
      <use xlink:href="#STIXGeneral-Regular-6c" transform="translate(430.499908 0)"/>
      <use xlink:href="#STIXGeneral-Regular-6f" transform="translate(458.299896 0)"/>
     </g>
    </g>
    <g id="line2d_144">
     <path d="M 363.865625 297.430656 
L 374.865625 297.430656 
L 385.865625 297.430656 
" style="fill: none; stroke: #2ca02c; stroke-width: 2.2; stroke-linecap: square"/>
    </g>
    <g id="text_19">
     <!-- Positive-P -->
     <g transform="translate(394.665625 301.280656) scale(0.11 -0.11)">
      <defs>
       <path id="STIXGeneral-Regular-50" d="M 102 4237 
L 1760 4237 
Q 2669 4237 3149 3834 
Q 3469 3565 3469 3072 
Q 3469 2560 3104 2234 
Q 2835 1990 2553 1916 
Q 2272 1843 1734 1843 
Q 1549 1843 1293 1862 
L 1293 717 
Q 1293 352 1398 246 
Q 1504 141 1894 122 
L 1894 0 
L 102 0 
L 102 122 
Q 474 147 557 256 
Q 640 365 640 781 
L 640 3526 
Q 640 3885 547 3987 
Q 454 4090 102 4115 
L 102 4237 
z
M 1293 3770 
L 1293 2118 
Q 1510 2099 1683 2099 
Q 2202 2099 2486 2352 
Q 2771 2605 2771 3040 
Q 2771 3558 2476 3779 
Q 2182 4000 1517 4000 
Q 1382 4000 1337 3952 
Q 1293 3904 1293 3770 
z
" transform="scale(0.015625)"/>
       <path id="STIXGeneral-Regular-2d" d="M 1824 1242 
L 250 1242 
L 250 1645 
L 1824 1645 
L 1824 1242 
z
" transform="scale(0.015625)"/>
      </defs>
      <use xlink:href="#STIXGeneral-Regular-50"/>
      <use xlink:href="#STIXGeneral-Regular-6f" transform="translate(55.699997 0)"/>
      <use xlink:href="#STIXGeneral-Regular-73" transform="translate(105.699982 0)"/>
      <use xlink:href="#STIXGeneral-Regular-69" transform="translate(144.599976 0)"/>
      <use xlink:href="#STIXGeneral-Regular-74" transform="translate(172.399963 0)"/>
      <use xlink:href="#STIXGeneral-Regular-69" transform="translate(200.199951 0)"/>
      <use xlink:href="#STIXGeneral-Regular-76" transform="translate(227.999939 0)"/>
      <use xlink:href="#STIXGeneral-Regular-65" transform="translate(277.999924 0)"/>
      <use xlink:href="#STIXGeneral-Regular-2d" transform="translate(322.399918 0)"/>
      <use xlink:href="#STIXGeneral-Regular-50" transform="translate(355.699905 0)"/>
     </g>
    </g>
   </g>
  </g>
 </g>
 <defs>
  <clipPath id="p79bfcadfc1">
   <rect x="52.98" y="25.28" width="418.5" height="288.288"/>
  </clipPath>
 </defs>
</svg>
