<?xml version="1.0" encoding="utf-8" standalone="no"?>
<!DOCTYPE svg PUBLIC "-//W3C//DTD SVG 1.1//EN"
  "http://www.w3.org/Graphics/SVG/1.1/DTD/svg11.dtd">
<svg xmlns:xlink="http://www.w3.org/1999/xlink" width="475.08pt" height="349.028pt" viewBox="0 0 475.08 349.028" xmlns="http://www.w3.org/2000/svg" version="1.1">
 <metadata>
  <rdf:RDF xmlns:dc="http://purl.org/dc/elements/1.1/" xmlns:cc="http://creativecommons.org/ns#" xmlns:rdf="http://www.w3.org/1999/02/22-rdf-syntax-ns#">
   <cc:Work>
    <dc:type rdf:resource="http://purl.org/dc/dcmitype/StillImage"/>
    <dc:date>2026-04-18T18:09:41.354512</dc:date>
    <dc:format>image/svg+xml</dc:format>
    <dc:creator>
     <cc:Agent>
      <dc:title>Matplotlib v3.10.8, https://matplotlib.org/</dc:title>
     </cc:Agent>
    </dc:creator>
   </cc:Work>
  </rdf:RDF>
 </metadata>
 <defs>
  <style type="text/css">*{stroke-linejoin: round; stroke-linecap: butt}</style>
 </defs>
 <g id="figure_1">
  <g id="patch_1">
   <path d="M 0 349.028 
L 475.08 349.028 
L 475.08 0 
L 0 0 
z
" style="fill: #ffffff"/>
  </g>
  <g id="axes_1">
   <g id="patch_2">
    <path d="M 52.98 314.528 
L 471.48 314.528 
L 471.48 26.24 
L 52.98 26.24 
z
" style="fill: #ffffff"/>
   </g>
   <g id="matplotlib.axis_1">
    <g id="xtick_1">
     <g id="line2d_1">
      <path d="M 72.002727 314.528 
L 72.002727 26.24 
" clip-path="url(#pf6e25fa035)" style="fill: none; stroke: #b0b0b0; stroke-opacity: 0.35; stroke-width: 0.5; stroke-linecap: square"/>
     </g>
     <g id="line2d_2">
      <defs>
       <path id="me4ad943b4a" d="M 0 0 
L 0 -3 
" style="stroke: #000000; stroke-width: 0.5"/>
      </defs>
      <g>
       <use xlink:href="#me4ad943b4a" x="72.002727" y="314.528" style="stroke: #000000; stroke-width: 0.5"/>
      </g>
     </g>
     <g id="line2d_3">
      <defs>
       <path id="m18dc470318" d="M 0 0 
L 0 3 
" style="stroke: #000000; stroke-width: 0.5"/>
      </defs>
      <g>
       <use xlink:href="#m18dc470318" x="72.002727" y="26.24" style="stroke: #000000; stroke-width: 0.5"/>
      </g>
     </g>
     <g id="text_1">
      <!-- $\mathdefault{0}$ -->
      <g transform="translate(69.002727 326.223625) scale(0.12 -0.12)">
       <defs>
        <path id="STIXGeneral-Regular-30" d="M 3046 2112 
Q 3046 1683 2963 1302 
Q 2880 922 2717 602 
Q 2554 282 2266 96 
Q 1978 -90 1600 -90 
Q 1210 -90 915 108 
Q 621 307 461 640 
Q 301 973 227 1350 
Q 154 1728 154 2150 
Q 154 2746 301 3222 
Q 448 3699 790 4012 
Q 1133 4326 1626 4326 
Q 2253 4326 2649 3712 
Q 3046 3098 3046 2112 
z
M 2432 2080 
Q 2432 3091 2217 3625 
Q 2003 4160 1587 4160 
Q 1190 4160 979 3622 
Q 768 3085 768 2106 
Q 768 1120 979 598 
Q 1190 77 1600 77 
Q 2003 77 2217 598 
Q 2432 1120 2432 2080 
z
" transform="scale(0.015625)"/>
       </defs>
       <use xlink:href="#STIXGeneral-Regular-30" transform="translate(0 0.40625)"/>
      </g>
     </g>
    </g>
    <g id="xtick_2">
     <g id="line2d_4">
      <path d="M 148.093636 314.528 
L 148.093636 26.24 
" clip-path="url(#pf6e25fa035)" style="fill: none; stroke: #b0b0b0; stroke-opacity: 0.35; stroke-width: 0.5; stroke-linecap: square"/>
     </g>
     <g id="line2d_5">
      <g>
       <use xlink:href="#me4ad943b4a" x="148.093636" y="314.528" style="stroke: #000000; stroke-width: 0.5"/>
      </g>
     </g>
     <g id="line2d_6">
      <g>
       <use xlink:href="#m18dc470318" x="148.093636" y="26.24" style="stroke: #000000; stroke-width: 0.5"/>
      </g>
     </g>
     <g id="text_2">
      <!-- $\mathdefault{1}$ -->
      <g transform="translate(145.093636 326.223625) scale(0.12 -0.12)">
       <defs>
        <path id="STIXGeneral-Regular-31" d="M 2522 0 
L 755 0 
L 755 96 
Q 1107 115 1235 227 
Q 1363 339 1363 608 
L 1363 3482 
Q 1363 3795 1171 3795 
Q 1082 3795 883 3718 
L 710 3654 
L 710 3744 
L 1856 4326 
L 1914 4307 
L 1914 486 
Q 1914 275 2042 185 
Q 2170 96 2522 96 
L 2522 0 
z
" transform="scale(0.015625)"/>
       </defs>
       <use xlink:href="#STIXGeneral-Regular-31" transform="translate(0 0.40625)"/>
      </g>
     </g>
    </g>
    <g id="xtick_3">
     <g id="line2d_7">
      <path d="M 224.184545 314.528 
L 224.184545 26.24 
" clip-path="url(#pf6e25fa035)" style="fill: none; stroke: #b0b0b0; stroke-opacity: 0.35; stroke-width: 0.5; stroke-linecap: square"/>
     </g>
     <g id="line2d_8">
      <g>
       <use xlink:href="#me4ad943b4a" x="224.184545" y="314.528" style="stroke: #000000; stroke-width: 0.5"/>
      </g>
     </g>
     <g id="line2d_9">
      <g>
       <use xlink:href="#m18dc470318" x="224.184545" y="26.24" style="stroke: #000000; stroke-width: 0.5"/>
      </g>
     </g>
     <g id="text_3">
      <!-- $\mathdefault{2}$ -->
      <g transform="translate(221.184545 326.223625) scale(0.12 -0.12)">
       <defs>
        <path id="STIXGeneral-Regular-32" d="M 3034 877 
L 2688 0 
L 186 0 
L 186 77 
L 1325 1286 
Q 1773 1754 1965 2144 
Q 2157 2534 2157 2950 
Q 2157 3379 1920 3616 
Q 1683 3853 1267 3853 
Q 922 3853 720 3673 
Q 518 3494 326 3021 
L 192 3053 
Q 301 3648 630 3987 
Q 960 4326 1523 4326 
Q 2054 4326 2380 4006 
Q 2707 3686 2707 3200 
Q 2707 2477 1888 1613 
L 832 486 
L 2330 486 
Q 2541 486 2665 569 
Q 2790 653 2944 915 
L 3034 877 
z
" transform="scale(0.015625)"/>
       </defs>
       <use xlink:href="#STIXGeneral-Regular-32" transform="translate(0 0.40625)"/>
      </g>
     </g>
    </g>
    <g id="xtick_4">
     <g id="line2d_10">
      <path d="M 300.275455 314.528 
L 300.275455 26.24 
" clip-path="url(#pf6e25fa035)" style="fill: none; stroke: #b0b0b0; stroke-opacity: 0.35; stroke-width: 0.5; stroke-linecap: square"/>
     </g>
     <g id="line2d_11">
      <g>
       <use xlink:href="#me4ad943b4a" x="300.275455" y="314.528" style="stroke: #000000; stroke-width: 0.5"/>
      </g>
     </g>
     <g id="line2d_12">
      <g>
       <use xlink:href="#m18dc470318" x="300.275455" y="26.24" style="stroke: #000000; stroke-width: 0.5"/>
      </g>
     </g>
     <g id="text_4">
      <!-- $\mathdefault{3}$ -->
      <g transform="translate(297.275455 326.223625) scale(0.12 -0.12)">
       <defs>
        <path id="STIXGeneral-Regular-33" d="M 390 3264 
L 288 3290 
Q 435 3770 748 4048 
Q 1062 4326 1542 4326 
Q 1990 4326 2265 4083 
Q 2541 3840 2541 3450 
Q 2541 2925 1946 2566 
Q 2298 2413 2477 2227 
Q 2758 1914 2758 1402 
Q 2758 890 2464 506 
Q 2246 211 1840 60 
Q 1434 -90 979 -90 
Q 262 -90 262 275 
Q 262 378 339 442 
Q 416 506 525 506 
Q 685 506 915 339 
Q 1197 141 1466 141 
Q 1818 141 2058 425 
Q 2298 710 2298 1120 
Q 2298 1856 1632 2048 
Q 1434 2112 979 2112 
L 979 2202 
Q 1338 2323 1517 2432 
Q 2035 2726 2035 3290 
Q 2035 3610 1852 3776 
Q 1670 3942 1344 3942 
Q 768 3942 390 3264 
z
" transform="scale(0.015625)"/>
       </defs>
       <use xlink:href="#STIXGeneral-Regular-33" transform="translate(0 0.40625)"/>
      </g>
     </g>
    </g>
    <g id="xtick_5">
     <g id="line2d_13">
      <path d="M 376.366364 314.528 
L 376.366364 26.24 
" clip-path="url(#pf6e25fa035)" style="fill: none; stroke: #b0b0b0; stroke-opacity: 0.35; stroke-width: 0.5; stroke-linecap: square"/>
     </g>
     <g id="line2d_14">
      <g>
       <use xlink:href="#me4ad943b4a" x="376.366364" y="314.528" style="stroke: #000000; stroke-width: 0.5"/>
      </g>
     </g>
     <g id="line2d_15">
      <g>
       <use xlink:href="#m18dc470318" x="376.366364" y="26.24" style="stroke: #000000; stroke-width: 0.5"/>
      </g>
     </g>
     <g id="text_5">
      <!-- $\mathdefault{4}$ -->
      <g transform="translate(373.366364 326.223625) scale(0.12 -0.12)">
       <defs>
        <path id="STIXGeneral-Regular-34" d="M 3027 1069 
L 2368 1069 
L 2368 0 
L 1869 0 
L 1869 1069 
L 77 1069 
L 77 1478 
L 2086 4326 
L 2368 4326 
L 2368 1478 
L 3027 1478 
L 3027 1069 
z
M 1869 1478 
L 1869 3674 
L 333 1478 
L 1869 1478 
z
" transform="scale(0.015625)"/>
       </defs>
       <use xlink:href="#STIXGeneral-Regular-34" transform="translate(0 0.40625)"/>
      </g>
     </g>
    </g>
    <g id="xtick_6">
     <g id="line2d_16">
      <path d="M 452.457273 314.528 
L 452.457273 26.24 
" clip-path="url(#pf6e25fa035)" style="fill: none; stroke: #b0b0b0; stroke-opacity: 0.35; stroke-width: 0.5; stroke-linecap: square"/>
     </g>
     <g id="line2d_17">
      <g>
       <use xlink:href="#me4ad943b4a" x="452.457273" y="314.528" style="stroke: #000000; stroke-width: 0.5"/>
      </g>
     </g>
     <g id="line2d_18">
      <g>
       <use xlink:href="#m18dc470318" x="452.457273" y="26.24" style="stroke: #000000; stroke-width: 0.5"/>
      </g>
     </g>
     <g id="text_6">
      <!-- $\mathdefault{5}$ -->
      <g transform="translate(449.457273 326.223625) scale(0.12 -0.12)">
       <defs>
        <path id="STIXGeneral-Regular-35" d="M 2803 4358 
L 2573 3814 
Q 2534 3731 2400 3731 
L 1158 3731 
L 902 3187 
Q 1606 3053 1920 2896 
Q 2234 2739 2502 2368 
Q 2726 2061 2726 1555 
Q 2726 1094 2576 780 
Q 2426 467 2099 224 
Q 1664 -90 1011 -90 
Q 646 -90 422 19 
Q 198 128 198 307 
Q 198 550 486 550 
Q 717 550 960 352 
Q 1210 147 1414 147 
Q 1747 147 2012 480 
Q 2278 813 2278 1229 
Q 2278 1843 1850 2189 
Q 1293 2637 486 2637 
Q 410 2637 410 2688 
L 416 2720 
L 1114 4237 
L 2438 4237 
Q 2547 4237 2608 4269 
Q 2669 4301 2746 4403 
L 2803 4358 
z
" transform="scale(0.015625)"/>
       </defs>
       <use xlink:href="#STIXGeneral-Regular-35" transform="translate(0 0.203125)"/>
      </g>
     </g>
    </g>
    <g id="xtick_7">
     <g id="line2d_19">
      <defs>
       <path id="mad4f5959ef" d="M 0 0 
L 0 -1.5 
" style="stroke: #000000; stroke-width: 0.5"/>
      </defs>
      <g>
       <use xlink:href="#mad4f5959ef" x="56.784545" y="314.528" style="stroke: #000000; stroke-width: 0.5"/>
      </g>
     </g>
     <g id="line2d_20">
      <defs>
       <path id="mffbf6a3c0e" d="M 0 0 
L 0 1.5 
" style="stroke: #000000; stroke-width: 0.5"/>
      </defs>
      <g>
       <use xlink:href="#mffbf6a3c0e" x="56.784545" y="26.24" style="stroke: #000000; stroke-width: 0.5"/>
      </g>
     </g>
    </g>
    <g id="xtick_8">
     <g id="line2d_21">
      <g>
       <use xlink:href="#mad4f5959ef" x="87.220909" y="314.528" style="stroke: #000000; stroke-width: 0.5"/>
      </g>
     </g>
     <g id="line2d_22">
      <g>
       <use xlink:href="#mffbf6a3c0e" x="87.220909" y="26.24" style="stroke: #000000; stroke-width: 0.5"/>
      </g>
     </g>
    </g>
    <g id="xtick_9">
     <g id="line2d_23">
      <g>
       <use xlink:href="#mad4f5959ef" x="102.439091" y="314.528" style="stroke: #000000; stroke-width: 0.5"/>
      </g>
     </g>
     <g id="line2d_24">
      <g>
       <use xlink:href="#mffbf6a3c0e" x="102.439091" y="26.24" style="stroke: #000000; stroke-width: 0.5"/>
      </g>
     </g>
    </g>
    <g id="xtick_10">
     <g id="line2d_25">
      <g>
       <use xlink:href="#mad4f5959ef" x="117.657273" y="314.528" style="stroke: #000000; stroke-width: 0.5"/>
      </g>
     </g>
     <g id="line2d_26">
      <g>
       <use xlink:href="#mffbf6a3c0e" x="117.657273" y="26.24" style="stroke: #000000; stroke-width: 0.5"/>
      </g>
     </g>
    </g>
    <g id="xtick_11">
     <g id="line2d_27">
      <g>
       <use xlink:href="#mad4f5959ef" x="132.875455" y="314.528" style="stroke: #000000; stroke-width: 0.5"/>
      </g>
     </g>
     <g id="line2d_28">
      <g>
       <use xlink:href="#mffbf6a3c0e" x="132.875455" y="26.24" style="stroke: #000000; stroke-width: 0.5"/>
      </g>
     </g>
    </g>
    <g id="xtick_12">
     <g id="line2d_29">
      <g>
       <use xlink:href="#mad4f5959ef" x="163.311818" y="314.528" style="stroke: #000000; stroke-width: 0.5"/>
      </g>
     </g>
     <g id="line2d_30">
      <g>
       <use xlink:href="#mffbf6a3c0e" x="163.311818" y="26.24" style="stroke: #000000; stroke-width: 0.5"/>
      </g>
     </g>
    </g>
    <g id="xtick_13">
     <g id="line2d_31">
      <g>
       <use xlink:href="#mad4f5959ef" x="178.53" y="314.528" style="stroke: #000000; stroke-width: 0.5"/>
      </g>
     </g>
     <g id="line2d_32">
      <g>
       <use xlink:href="#mffbf6a3c0e" x="178.53" y="26.24" style="stroke: #000000; stroke-width: 0.5"/>
      </g>
     </g>
    </g>
    <g id="xtick_14">
     <g id="line2d_33">
      <g>
       <use xlink:href="#mad4f5959ef" x="193.748182" y="314.528" style="stroke: #000000; stroke-width: 0.5"/>
      </g>
     </g>
     <g id="line2d_34">
      <g>
       <use xlink:href="#mffbf6a3c0e" x="193.748182" y="26.24" style="stroke: #000000; stroke-width: 0.5"/>
      </g>
     </g>
    </g>
    <g id="xtick_15">
     <g id="line2d_35">
      <g>
       <use xlink:href="#mad4f5959ef" x="208.966364" y="314.528" style="stroke: #000000; stroke-width: 0.5"/>
      </g>
     </g>
     <g id="line2d_36">
      <g>
       <use xlink:href="#mffbf6a3c0e" x="208.966364" y="26.24" style="stroke: #000000; stroke-width: 0.5"/>
      </g>
     </g>
    </g>
    <g id="xtick_16">
     <g id="line2d_37">
      <g>
       <use xlink:href="#mad4f5959ef" x="239.402727" y="314.528" style="stroke: #000000; stroke-width: 0.5"/>
      </g>
     </g>
     <g id="line2d_38">
      <g>
       <use xlink:href="#mffbf6a3c0e" x="239.402727" y="26.24" style="stroke: #000000; stroke-width: 0.5"/>
      </g>
     </g>
    </g>
    <g id="xtick_17">
     <g id="line2d_39">
      <g>
       <use xlink:href="#mad4f5959ef" x="254.620909" y="314.528" style="stroke: #000000; stroke-width: 0.5"/>
      </g>
     </g>
     <g id="line2d_40">
      <g>
       <use xlink:href="#mffbf6a3c0e" x="254.620909" y="26.24" style="stroke: #000000; stroke-width: 0.5"/>
      </g>
     </g>
    </g>
    <g id="xtick_18">
     <g id="line2d_41">
      <g>
       <use xlink:href="#mad4f5959ef" x="269.839091" y="314.528" style="stroke: #000000; stroke-width: 0.5"/>
      </g>
     </g>
     <g id="line2d_42">
      <g>
       <use xlink:href="#mffbf6a3c0e" x="269.839091" y="26.24" style="stroke: #000000; stroke-width: 0.5"/>
      </g>
     </g>
    </g>
    <g id="xtick_19">
     <g id="line2d_43">
      <g>
       <use xlink:href="#mad4f5959ef" x="285.057273" y="314.528" style="stroke: #000000; stroke-width: 0.5"/>
      </g>
     </g>
     <g id="line2d_44">
      <g>
       <use xlink:href="#mffbf6a3c0e" x="285.057273" y="26.24" style="stroke: #000000; stroke-width: 0.5"/>
      </g>
     </g>
    </g>
    <g id="xtick_20">
     <g id="line2d_45">
      <g>
       <use xlink:href="#mad4f5959ef" x="315.493636" y="314.528" style="stroke: #000000; stroke-width: 0.5"/>
      </g>
     </g>
     <g id="line2d_46">
      <g>
       <use xlink:href="#mffbf6a3c0e" x="315.493636" y="26.24" style="stroke: #000000; stroke-width: 0.5"/>
      </g>
     </g>
    </g>
    <g id="xtick_21">
     <g id="line2d_47">
      <g>
       <use xlink:href="#mad4f5959ef" x="330.711818" y="314.528" style="stroke: #000000; stroke-width: 0.5"/>
      </g>
     </g>
     <g id="line2d_48">
      <g>
       <use xlink:href="#mffbf6a3c0e" x="330.711818" y="26.24" style="stroke: #000000; stroke-width: 0.5"/>
      </g>
     </g>
    </g>
    <g id="xtick_22">
     <g id="line2d_49">
      <g>
       <use xlink:href="#mad4f5959ef" x="345.93" y="314.528" style="stroke: #000000; stroke-width: 0.5"/>
      </g>
     </g>
     <g id="line2d_50">
      <g>
       <use xlink:href="#mffbf6a3c0e" x="345.93" y="26.24" style="stroke: #000000; stroke-width: 0.5"/>
      </g>
     </g>
    </g>
    <g id="xtick_23">
     <g id="line2d_51">
      <g>
       <use xlink:href="#mad4f5959ef" x="361.148182" y="314.528" style="stroke: #000000; stroke-width: 0.5"/>
      </g>
     </g>
     <g id="line2d_52">
      <g>
       <use xlink:href="#mffbf6a3c0e" x="361.148182" y="26.24" style="stroke: #000000; stroke-width: 0.5"/>
      </g>
     </g>
    </g>
    <g id="xtick_24">
     <g id="line2d_53">
      <g>
       <use xlink:href="#mad4f5959ef" x="391.584545" y="314.528" style="stroke: #000000; stroke-width: 0.5"/>
      </g>
     </g>
     <g id="line2d_54">
      <g>
       <use xlink:href="#mffbf6a3c0e" x="391.584545" y="26.24" style="stroke: #000000; stroke-width: 0.5"/>
      </g>
     </g>
    </g>
    <g id="xtick_25">
     <g id="line2d_55">
      <g>
       <use xlink:href="#mad4f5959ef" x="406.802727" y="314.528" style="stroke: #000000; stroke-width: 0.5"/>
      </g>
     </g>
     <g id="line2d_56">
      <g>
       <use xlink:href="#mffbf6a3c0e" x="406.802727" y="26.24" style="stroke: #000000; stroke-width: 0.5"/>
      </g>
     </g>
    </g>
    <g id="xtick_26">
     <g id="line2d_57">
      <g>
       <use xlink:href="#mad4f5959ef" x="422.020909" y="314.528" style="stroke: #000000; stroke-width: 0.5"/>
      </g>
     </g>
     <g id="line2d_58">
      <g>
       <use xlink:href="#mffbf6a3c0e" x="422.020909" y="26.24" style="stroke: #000000; stroke-width: 0.5"/>
      </g>
     </g>
    </g>
    <g id="xtick_27">
     <g id="line2d_59">
      <g>
       <use xlink:href="#mad4f5959ef" x="437.239091" y="314.528" style="stroke: #000000; stroke-width: 0.5"/>
      </g>
     </g>
     <g id="line2d_60">
      <g>
       <use xlink:href="#mffbf6a3c0e" x="437.239091" y="26.24" style="stroke: #000000; stroke-width: 0.5"/>
      </g>
     </g>
    </g>
    <g id="xtick_28">
     <g id="line2d_61">
      <g>
       <use xlink:href="#mad4f5959ef" x="467.675455" y="314.528" style="stroke: #000000; stroke-width: 0.5"/>
      </g>
     </g>
     <g id="line2d_62">
      <g>
       <use xlink:href="#mffbf6a3c0e" x="467.675455" y="26.24" style="stroke: #000000; stroke-width: 0.5"/>
      </g>
     </g>
    </g>
    <g id="text_7">
     <!-- Time -->
     <g transform="translate(247.453438 342.389562) scale(0.14 -0.14)">
      <defs>
       <path id="STIXGeneral-Regular-54" d="M 3795 3149 
L 3642 3149 
Q 3539 3674 3353 3821 
Q 3168 3968 2656 3968 
L 2278 3968 
L 2278 710 
Q 2278 346 2387 243 
Q 2496 141 2893 122 
L 2893 0 
L 1024 0 
L 1024 122 
Q 1427 147 1526 256 
Q 1626 365 1626 787 
L 1626 3968 
L 1242 3968 
Q 723 3968 540 3817 
Q 358 3667 262 3149 
L 109 3149 
L 154 4237 
L 3750 4237 
L 3795 3149 
z
" transform="scale(0.015625)"/>
       <path id="STIXGeneral-Regular-69" d="M 1152 4045 
Q 1152 3904 1056 3811 
Q 960 3718 819 3718 
Q 685 3718 592 3811 
Q 499 3904 499 4045 
Q 499 4179 595 4275 
Q 691 4371 826 4371 
Q 966 4371 1059 4275 
Q 1152 4179 1152 4045 
z
M 1619 0 
L 102 0 
L 102 96 
Q 435 115 521 211 
Q 608 307 608 666 
L 608 2118 
Q 608 2342 563 2432 
Q 518 2522 397 2522 
Q 243 2522 128 2490 
L 128 2592 
L 1120 2944 
L 1146 2918 
L 1146 672 
Q 1146 314 1226 218 
Q 1306 122 1619 96 
L 1619 0 
z
" transform="scale(0.015625)"/>
       <path id="STIXGeneral-Regular-6d" d="M 4960 0 
L 3565 0 
L 3565 96 
Q 3834 122 3907 208 
Q 3981 294 3981 576 
L 3981 1894 
Q 3981 2278 3869 2444 
Q 3757 2611 3488 2611 
Q 3264 2611 3107 2521 
Q 2950 2432 2803 2221 
L 2803 608 
Q 2803 301 2896 201 
Q 2989 102 3264 96 
L 3264 0 
L 1830 0 
L 1830 96 
Q 2112 115 2189 188 
Q 2266 262 2266 550 
L 2266 1901 
Q 2266 2611 1850 2611 
Q 1670 2611 1468 2531 
Q 1267 2451 1171 2336 
Q 1088 2240 1088 2227 
L 1088 448 
Q 1088 243 1177 176 
Q 1267 109 1523 96 
L 1523 0 
L 102 0 
L 102 96 
Q 371 102 460 195 
Q 550 288 550 563 
L 550 2150 
Q 550 2387 499 2480 
Q 448 2573 326 2573 
Q 230 2573 122 2547 
L 122 2656 
Q 557 2778 1011 2944 
L 1062 2925 
L 1062 2451 
L 1075 2451 
Q 1363 2752 1584 2848 
Q 1805 2944 2054 2944 
Q 2560 2944 2733 2406 
Q 3232 2944 3776 2944 
Q 4518 2944 4518 1792 
L 4518 493 
Q 4518 282 4582 202 
Q 4646 122 4794 109 
L 4960 96 
L 4960 0 
z
" transform="scale(0.015625)"/>
       <path id="STIXGeneral-Regular-65" d="M 2611 1050 
L 2714 1005 
Q 2330 -64 1376 -64 
Q 813 -64 486 329 
Q 160 723 160 1389 
Q 160 2074 525 2509 
Q 890 2944 1485 2944 
Q 2061 2944 2374 2502 
Q 2560 2246 2592 1773 
L 621 1773 
Q 646 1370 700 1158 
Q 755 947 915 730 
Q 1184 378 1626 378 
Q 1939 378 2153 531 
Q 2368 685 2611 1050 
z
M 634 1978 
L 1939 1978 
Q 1882 2381 1750 2547 
Q 1619 2714 1312 2714 
Q 1043 2714 864 2525 
Q 685 2336 634 1978 
z
" transform="scale(0.015625)"/>
      </defs>
      <use xlink:href="#STIXGeneral-Regular-54"/>
      <use xlink:href="#STIXGeneral-Regular-69" transform="translate(61.099991 0)"/>
      <use xlink:href="#STIXGeneral-Regular-6d" transform="translate(88.899979 0)"/>
      <use xlink:href="#STIXGeneral-Regular-65" transform="translate(166.699966 0)"/>
     </g>
    </g>
   </g>
   <g id="matplotlib.axis_2">
    <g id="ytick_1">
     <g id="line2d_63">
      <path d="M 52.98 285.96955 
L 471.48 285.96955 
" clip-path="url(#pf6e25fa035)" style="fill: none; stroke: #b0b0b0; stroke-opacity: 0.35; stroke-width: 0.5; stroke-linecap: square"/>
     </g>
     <g id="line2d_64">
      <defs>
       <path id="m211ad4ef5b" d="M 0 0 
L 3 0 
" style="stroke: #000000; stroke-width: 0.5"/>
      </defs>
      <g>
       <use xlink:href="#m211ad4ef5b" x="52.98" y="285.96955" style="stroke: #000000; stroke-width: 0.5"/>
      </g>
     </g>
     <g id="line2d_65">
      <defs>
       <path id="m9ffd11a8f6" d="M 0 0 
L -3 0 
" style="stroke: #000000; stroke-width: 0.5"/>
      </defs>
      <g>
       <use xlink:href="#m9ffd11a8f6" x="471.48" y="285.96955" style="stroke: #000000; stroke-width: 0.5"/>
      </g>
     </g>
     <g id="text_8">
      <!-- $\mathdefault{−0.12}$ -->
      <g transform="translate(20.2 290.067363) scale(0.12 -0.12)">
       <defs>
        <path id="STIXGeneral-Regular-2212" d="M 3974 1408 
L 410 1408 
L 410 1830 
L 3974 1830 
L 3974 1408 
z
" transform="scale(0.015625)"/>
        <path id="STIXGeneral-Regular-2e" d="M 1158 275 
Q 1158 134 1052 32 
Q 947 -70 800 -70 
Q 653 -70 550 32 
Q 448 134 448 281 
Q 448 429 553 534 
Q 659 640 806 640 
Q 947 640 1052 531 
Q 1158 422 1158 275 
z
" transform="scale(0.015625)"/>
       </defs>
       <use xlink:href="#STIXGeneral-Regular-2212" transform="translate(0 0.40625)"/>
       <use xlink:href="#STIXGeneral-Regular-30" transform="translate(68.499985 0.40625)"/>
       <use xlink:href="#STIXGeneral-Regular-2e" transform="translate(118.499969 0.40625)"/>
       <use xlink:href="#STIXGeneral-Regular-31" transform="translate(143.499954 0.40625)"/>
       <use xlink:href="#STIXGeneral-Regular-32" transform="translate(193.499939 0.40625)"/>
      </g>
     </g>
    </g>
    <g id="ytick_2">
     <g id="line2d_66">
      <path d="M 52.98 244.865292 
L 471.48 244.865292 
" clip-path="url(#pf6e25fa035)" style="fill: none; stroke: #b0b0b0; stroke-opacity: 0.35; stroke-width: 0.5; stroke-linecap: square"/>
     </g>
     <g id="line2d_67">
      <g>
       <use xlink:href="#m211ad4ef5b" x="52.98" y="244.865292" style="stroke: #000000; stroke-width: 0.5"/>
      </g>
     </g>
     <g id="line2d_68">
      <g>
       <use xlink:href="#m9ffd11a8f6" x="471.48" y="244.865292" style="stroke: #000000; stroke-width: 0.5"/>
      </g>
     </g>
     <g id="text_9">
      <!-- $\mathdefault{−0.10}$ -->
      <g transform="translate(20.2 248.963104) scale(0.12 -0.12)">
       <use xlink:href="#STIXGeneral-Regular-2212" transform="translate(0 0.40625)"/>
       <use xlink:href="#STIXGeneral-Regular-30" transform="translate(68.499985 0.40625)"/>
       <use xlink:href="#STIXGeneral-Regular-2e" transform="translate(118.499969 0.40625)"/>
       <use xlink:href="#STIXGeneral-Regular-31" transform="translate(143.499954 0.40625)"/>
       <use xlink:href="#STIXGeneral-Regular-30" transform="translate(193.499939 0.40625)"/>
      </g>
     </g>
    </g>
    <g id="ytick_3">
     <g id="line2d_69">
      <path d="M 52.98 203.761033 
L 471.48 203.761033 
" clip-path="url(#pf6e25fa035)" style="fill: none; stroke: #b0b0b0; stroke-opacity: 0.35; stroke-width: 0.5; stroke-linecap: square"/>
     </g>
     <g id="line2d_70">
      <g>
       <use xlink:href="#m211ad4ef5b" x="52.98" y="203.761033" style="stroke: #000000; stroke-width: 0.5"/>
      </g>
     </g>
     <g id="line2d_71">
      <g>
       <use xlink:href="#m9ffd11a8f6" x="471.48" y="203.761033" style="stroke: #000000; stroke-width: 0.5"/>
      </g>
     </g>
     <g id="text_10">
      <!-- $\mathdefault{−0.08}$ -->
      <g transform="translate(20.2 207.858846) scale(0.12 -0.12)">
       <defs>
        <path id="STIXGeneral-Regular-38" d="M 2848 992 
Q 2848 499 2505 204 
Q 2163 -90 1587 -90 
Q 1050 -90 704 204 
Q 358 499 358 954 
Q 358 1293 524 1533 
Q 691 1773 1190 2125 
Q 710 2522 553 2765 
Q 397 3008 397 3328 
Q 397 3782 745 4054 
Q 1094 4326 1638 4326 
Q 2106 4326 2410 4060 
Q 2714 3795 2714 3411 
Q 2714 3059 2531 2848 
Q 2349 2637 1856 2374 
Q 2432 1990 2640 1689 
Q 2848 1389 2848 992 
z
M 2272 3411 
Q 2272 3744 2086 3945 
Q 1901 4147 1574 4147 
Q 1248 4147 1059 3977 
Q 870 3808 870 3513 
Q 870 3219 1059 2979 
Q 1248 2739 1670 2490 
Q 1997 2682 2134 2896 
Q 2272 3110 2272 3411 
z
M 1734 1741 
L 1357 1997 
Q 1075 1766 960 1545 
Q 845 1325 845 1011 
Q 845 576 1065 333 
Q 1286 90 1658 90 
Q 1971 90 2166 285 
Q 2362 480 2362 794 
Q 2362 1082 2214 1299 
Q 2067 1517 1734 1741 
z
" transform="scale(0.015625)"/>
       </defs>
       <use xlink:href="#STIXGeneral-Regular-2212" transform="translate(0 0.40625)"/>
       <use xlink:href="#STIXGeneral-Regular-30" transform="translate(68.499985 0.40625)"/>
       <use xlink:href="#STIXGeneral-Regular-2e" transform="translate(118.499969 0.40625)"/>
       <use xlink:href="#STIXGeneral-Regular-30" transform="translate(143.499954 0.40625)"/>
       <use xlink:href="#STIXGeneral-Regular-38" transform="translate(193.499939 0.40625)"/>
      </g>
     </g>
    </g>
    <g id="ytick_4">
     <g id="line2d_72">
      <path d="M 52.98 162.656775 
L 471.48 162.656775 
" clip-path="url(#pf6e25fa035)" style="fill: none; stroke: #b0b0b0; stroke-opacity: 0.35; stroke-width: 0.5; stroke-linecap: square"/>
     </g>
     <g id="line2d_73">
      <g>
       <use xlink:href="#m211ad4ef5b" x="52.98" y="162.656775" style="stroke: #000000; stroke-width: 0.5"/>
      </g>
     </g>
     <g id="line2d_74">
      <g>
       <use xlink:href="#m9ffd11a8f6" x="471.48" y="162.656775" style="stroke: #000000; stroke-width: 0.5"/>
      </g>
     </g>
     <g id="text_11">
      <!-- $\mathdefault{−0.06}$ -->
      <g transform="translate(20.2 166.754588) scale(0.12 -0.12)">
       <defs>
        <path id="STIXGeneral-Regular-36" d="M 2854 4378 
L 2867 4275 
Q 2112 4154 1606 3664 
Q 1101 3174 973 2451 
Q 1344 2739 1786 2739 
Q 2349 2739 2672 2380 
Q 2995 2022 2995 1402 
Q 2995 774 2669 378 
Q 2291 -90 1651 -90 
Q 870 -90 518 557 
Q 218 1107 218 1786 
Q 218 2835 915 3552 
Q 1312 3962 1731 4131 
Q 2150 4301 2854 4378 
z
M 2419 1203 
Q 2419 2445 1555 2445 
Q 1235 2445 1024 2275 
Q 813 2106 813 1702 
Q 813 954 1046 522 
Q 1280 90 1722 90 
Q 2061 90 2240 394 
Q 2419 698 2419 1203 
z
" transform="scale(0.015625)"/>
       </defs>
       <use xlink:href="#STIXGeneral-Regular-2212" transform="translate(0 0.59375)"/>
       <use xlink:href="#STIXGeneral-Regular-30" transform="translate(68.499985 0.59375)"/>
       <use xlink:href="#STIXGeneral-Regular-2e" transform="translate(118.499969 0.59375)"/>
       <use xlink:href="#STIXGeneral-Regular-30" transform="translate(143.499954 0.59375)"/>
       <use xlink:href="#STIXGeneral-Regular-36" transform="translate(193.499939 0.59375)"/>
      </g>
     </g>
    </g>
    <g id="ytick_5">
     <g id="line2d_75">
      <path d="M 52.98 121.552517 
L 471.48 121.552517 
" clip-path="url(#pf6e25fa035)" style="fill: none; stroke: #b0b0b0; stroke-opacity: 0.35; stroke-width: 0.5; stroke-linecap: square"/>
     </g>
     <g id="line2d_76">
      <g>
       <use xlink:href="#m211ad4ef5b" x="52.98" y="121.552517" style="stroke: #000000; stroke-width: 0.5"/>
      </g>
     </g>
     <g id="line2d_77">
      <g>
       <use xlink:href="#m9ffd11a8f6" x="471.48" y="121.552517" style="stroke: #000000; stroke-width: 0.5"/>
      </g>
     </g>
     <g id="text_12">
      <!-- $\mathdefault{−0.04}$ -->
      <g transform="translate(20.2 125.650329) scale(0.12 -0.12)">
       <use xlink:href="#STIXGeneral-Regular-2212" transform="translate(0 0.40625)"/>
       <use xlink:href="#STIXGeneral-Regular-30" transform="translate(68.499985 0.40625)"/>
       <use xlink:href="#STIXGeneral-Regular-2e" transform="translate(118.499969 0.40625)"/>
       <use xlink:href="#STIXGeneral-Regular-30" transform="translate(143.499954 0.40625)"/>
       <use xlink:href="#STIXGeneral-Regular-34" transform="translate(193.499939 0.40625)"/>
      </g>
     </g>
    </g>
    <g id="ytick_6">
     <g id="line2d_78">
      <path d="M 52.98 80.448258 
L 471.48 80.448258 
" clip-path="url(#pf6e25fa035)" style="fill: none; stroke: #b0b0b0; stroke-opacity: 0.35; stroke-width: 0.5; stroke-linecap: square"/>
     </g>
     <g id="line2d_79">
      <g>
       <use xlink:href="#m211ad4ef5b" x="52.98" y="80.448258" style="stroke: #000000; stroke-width: 0.5"/>
      </g>
     </g>
     <g id="line2d_80">
      <g>
       <use xlink:href="#m9ffd11a8f6" x="471.48" y="80.448258" style="stroke: #000000; stroke-width: 0.5"/>
      </g>
     </g>
     <g id="text_13">
      <!-- $\mathdefault{−0.02}$ -->
      <g transform="translate(20.2 84.546071) scale(0.12 -0.12)">
       <use xlink:href="#STIXGeneral-Regular-2212" transform="translate(0 0.40625)"/>
       <use xlink:href="#STIXGeneral-Regular-30" transform="translate(68.499985 0.40625)"/>
       <use xlink:href="#STIXGeneral-Regular-2e" transform="translate(118.499969 0.40625)"/>
       <use xlink:href="#STIXGeneral-Regular-30" transform="translate(143.499954 0.40625)"/>
       <use xlink:href="#STIXGeneral-Regular-32" transform="translate(193.499939 0.40625)"/>
      </g>
     </g>
    </g>
    <g id="ytick_7">
     <g id="line2d_81">
      <path d="M 52.98 39.344 
L 471.48 39.344 
" clip-path="url(#pf6e25fa035)" style="fill: none; stroke: #b0b0b0; stroke-opacity: 0.35; stroke-width: 0.5; stroke-linecap: square"/>
     </g>
     <g id="line2d_82">
      <g>
       <use xlink:href="#m211ad4ef5b" x="52.98" y="39.344" style="stroke: #000000; stroke-width: 0.5"/>
      </g>
     </g>
     <g id="line2d_83">
      <g>
       <use xlink:href="#m9ffd11a8f6" x="471.48" y="39.344" style="stroke: #000000; stroke-width: 0.5"/>
      </g>
     </g>
     <g id="text_14">
      <!-- $\mathdefault{0.00}$ -->
      <g transform="translate(28.48 43.441812) scale(0.12 -0.12)">
       <use xlink:href="#STIXGeneral-Regular-30" transform="translate(0 0.40625)"/>
       <use xlink:href="#STIXGeneral-Regular-2e" transform="translate(49.999985 0.40625)"/>
       <use xlink:href="#STIXGeneral-Regular-30" transform="translate(74.999969 0.40625)"/>
       <use xlink:href="#STIXGeneral-Regular-30" transform="translate(124.999954 0.40625)"/>
      </g>
     </g>
    </g>
    <g id="ytick_8">
     <g id="line2d_84">
      <defs>
       <path id="m59e540eb30" d="M 0 0 
L 1.5 0 
" style="stroke: #000000; stroke-width: 0.5"/>
      </defs>
      <g>
       <use xlink:href="#m59e540eb30" x="52.98" y="306.521679" style="stroke: #000000; stroke-width: 0.5"/>
      </g>
     </g>
     <g id="line2d_85">
      <defs>
       <path id="m3f6d86d43d" d="M 0 0 
L -1.5 0 
" style="stroke: #000000; stroke-width: 0.5"/>
      </defs>
      <g>
       <use xlink:href="#m3f6d86d43d" x="471.48" y="306.521679" style="stroke: #000000; stroke-width: 0.5"/>
      </g>
     </g>
    </g>
    <g id="ytick_9">
     <g id="line2d_86">
      <g>
       <use xlink:href="#m59e540eb30" x="52.98" y="296.245615" style="stroke: #000000; stroke-width: 0.5"/>
      </g>
     </g>
     <g id="line2d_87">
      <g>
       <use xlink:href="#m3f6d86d43d" x="471.48" y="296.245615" style="stroke: #000000; stroke-width: 0.5"/>
      </g>
     </g>
    </g>
    <g id="ytick_10">
     <g id="line2d_88">
      <g>
       <use xlink:href="#m59e540eb30" x="52.98" y="275.693486" style="stroke: #000000; stroke-width: 0.5"/>
      </g>
     </g>
     <g id="line2d_89">
      <g>
       <use xlink:href="#m3f6d86d43d" x="471.48" y="275.693486" style="stroke: #000000; stroke-width: 0.5"/>
      </g>
     </g>
    </g>
    <g id="ytick_11">
     <g id="line2d_90">
      <g>
       <use xlink:href="#m59e540eb30" x="52.98" y="265.417421" style="stroke: #000000; stroke-width: 0.5"/>
      </g>
     </g>
     <g id="line2d_91">
      <g>
       <use xlink:href="#m3f6d86d43d" x="471.48" y="265.417421" style="stroke: #000000; stroke-width: 0.5"/>
      </g>
     </g>
    </g>
    <g id="ytick_12">
     <g id="line2d_92">
      <g>
       <use xlink:href="#m59e540eb30" x="52.98" y="255.141356" style="stroke: #000000; stroke-width: 0.5"/>
      </g>
     </g>
     <g id="line2d_93">
      <g>
       <use xlink:href="#m3f6d86d43d" x="471.48" y="255.141356" style="stroke: #000000; stroke-width: 0.5"/>
      </g>
     </g>
    </g>
    <g id="ytick_13">
     <g id="line2d_94">
      <g>
       <use xlink:href="#m59e540eb30" x="52.98" y="234.589227" style="stroke: #000000; stroke-width: 0.5"/>
      </g>
     </g>
     <g id="line2d_95">
      <g>
       <use xlink:href="#m3f6d86d43d" x="471.48" y="234.589227" style="stroke: #000000; stroke-width: 0.5"/>
      </g>
     </g>
    </g>
    <g id="ytick_14">
     <g id="line2d_96">
      <g>
       <use xlink:href="#m59e540eb30" x="52.98" y="224.313163" style="stroke: #000000; stroke-width: 0.5"/>
      </g>
     </g>
     <g id="line2d_97">
      <g>
       <use xlink:href="#m3f6d86d43d" x="471.48" y="224.313163" style="stroke: #000000; stroke-width: 0.5"/>
      </g>
     </g>
    </g>
    <g id="ytick_15">
     <g id="line2d_98">
      <g>
       <use xlink:href="#m59e540eb30" x="52.98" y="214.037098" style="stroke: #000000; stroke-width: 0.5"/>
      </g>
     </g>
     <g id="line2d_99">
      <g>
       <use xlink:href="#m3f6d86d43d" x="471.48" y="214.037098" style="stroke: #000000; stroke-width: 0.5"/>
      </g>
     </g>
    </g>
    <g id="ytick_16">
     <g id="line2d_100">
      <g>
       <use xlink:href="#m59e540eb30" x="52.98" y="193.484969" style="stroke: #000000; stroke-width: 0.5"/>
      </g>
     </g>
     <g id="line2d_101">
      <g>
       <use xlink:href="#m3f6d86d43d" x="471.48" y="193.484969" style="stroke: #000000; stroke-width: 0.5"/>
      </g>
     </g>
    </g>
    <g id="ytick_17">
     <g id="line2d_102">
      <g>
       <use xlink:href="#m59e540eb30" x="52.98" y="183.208904" style="stroke: #000000; stroke-width: 0.5"/>
      </g>
     </g>
     <g id="line2d_103">
      <g>
       <use xlink:href="#m3f6d86d43d" x="471.48" y="183.208904" style="stroke: #000000; stroke-width: 0.5"/>
      </g>
     </g>
    </g>
    <g id="ytick_18">
     <g id="line2d_104">
      <g>
       <use xlink:href="#m59e540eb30" x="52.98" y="172.93284" style="stroke: #000000; stroke-width: 0.5"/>
      </g>
     </g>
     <g id="line2d_105">
      <g>
       <use xlink:href="#m3f6d86d43d" x="471.48" y="172.93284" style="stroke: #000000; stroke-width: 0.5"/>
      </g>
     </g>
    </g>
    <g id="ytick_19">
     <g id="line2d_106">
      <g>
       <use xlink:href="#m59e540eb30" x="52.98" y="152.380711" style="stroke: #000000; stroke-width: 0.5"/>
      </g>
     </g>
     <g id="line2d_107">
      <g>
       <use xlink:href="#m3f6d86d43d" x="471.48" y="152.380711" style="stroke: #000000; stroke-width: 0.5"/>
      </g>
     </g>
    </g>
    <g id="ytick_20">
     <g id="line2d_108">
      <g>
       <use xlink:href="#m59e540eb30" x="52.98" y="142.104646" style="stroke: #000000; stroke-width: 0.5"/>
      </g>
     </g>
     <g id="line2d_109">
      <g>
       <use xlink:href="#m3f6d86d43d" x="471.48" y="142.104646" style="stroke: #000000; stroke-width: 0.5"/>
      </g>
     </g>
    </g>
    <g id="ytick_21">
     <g id="line2d_110">
      <g>
       <use xlink:href="#m59e540eb30" x="52.98" y="131.828581" style="stroke: #000000; stroke-width: 0.5"/>
      </g>
     </g>
     <g id="line2d_111">
      <g>
       <use xlink:href="#m3f6d86d43d" x="471.48" y="131.828581" style="stroke: #000000; stroke-width: 0.5"/>
      </g>
     </g>
    </g>
    <g id="ytick_22">
     <g id="line2d_112">
      <g>
       <use xlink:href="#m59e540eb30" x="52.98" y="111.276452" style="stroke: #000000; stroke-width: 0.5"/>
      </g>
     </g>
     <g id="line2d_113">
      <g>
       <use xlink:href="#m3f6d86d43d" x="471.48" y="111.276452" style="stroke: #000000; stroke-width: 0.5"/>
      </g>
     </g>
    </g>
    <g id="ytick_23">
     <g id="line2d_114">
      <g>
       <use xlink:href="#m59e540eb30" x="52.98" y="101.000388" style="stroke: #000000; stroke-width: 0.5"/>
      </g>
     </g>
     <g id="line2d_115">
      <g>
       <use xlink:href="#m3f6d86d43d" x="471.48" y="101.000388" style="stroke: #000000; stroke-width: 0.5"/>
      </g>
     </g>
    </g>
    <g id="ytick_24">
     <g id="line2d_116">
      <g>
       <use xlink:href="#m59e540eb30" x="52.98" y="90.724323" style="stroke: #000000; stroke-width: 0.5"/>
      </g>
     </g>
     <g id="line2d_117">
      <g>
       <use xlink:href="#m3f6d86d43d" x="471.48" y="90.724323" style="stroke: #000000; stroke-width: 0.5"/>
      </g>
     </g>
    </g>
    <g id="ytick_25">
     <g id="line2d_118">
      <g>
       <use xlink:href="#m59e540eb30" x="52.98" y="70.172194" style="stroke: #000000; stroke-width: 0.5"/>
      </g>
     </g>
     <g id="line2d_119">
      <g>
       <use xlink:href="#m3f6d86d43d" x="471.48" y="70.172194" style="stroke: #000000; stroke-width: 0.5"/>
      </g>
     </g>
    </g>
    <g id="ytick_26">
     <g id="line2d_120">
      <g>
       <use xlink:href="#m59e540eb30" x="52.98" y="59.896129" style="stroke: #000000; stroke-width: 0.5"/>
      </g>
     </g>
     <g id="line2d_121">
      <g>
       <use xlink:href="#m3f6d86d43d" x="471.48" y="59.896129" style="stroke: #000000; stroke-width: 0.5"/>
      </g>
     </g>
    </g>
    <g id="ytick_27">
     <g id="line2d_122">
      <g>
       <use xlink:href="#m59e540eb30" x="52.98" y="49.620065" style="stroke: #000000; stroke-width: 0.5"/>
      </g>
     </g>
     <g id="line2d_123">
      <g>
       <use xlink:href="#m3f6d86d43d" x="471.48" y="49.620065" style="stroke: #000000; stroke-width: 0.5"/>
      </g>
     </g>
    </g>
    <g id="ytick_28">
     <g id="line2d_124">
      <g>
       <use xlink:href="#m59e540eb30" x="52.98" y="29.067935" style="stroke: #000000; stroke-width: 0.5"/>
      </g>
     </g>
     <g id="line2d_125">
      <g>
       <use xlink:href="#m3f6d86d43d" x="471.48" y="29.067935" style="stroke: #000000; stroke-width: 0.5"/>
      </g>
     </g>
    </g>
    <g id="text_15">
     <!-- Variance difference from exact -->
     <g transform="translate(13.161563 257.648844) rotate(-90) scale(0.14 -0.14)">
      <defs>
       <path id="STIXGeneral-Regular-56" d="M 4461 4237 
L 4461 4115 
Q 4262 4109 4134 3990 
Q 4006 3872 3872 3533 
L 2451 -70 
L 2355 -70 
L 794 3411 
Q 589 3866 467 3987 
Q 346 4109 102 4115 
L 102 4237 
L 1798 4237 
L 1798 4115 
L 1619 4102 
Q 1331 4083 1331 3904 
Q 1331 3776 1581 3219 
L 2554 1030 
L 3494 3392 
Q 3616 3699 3616 3853 
Q 3616 3898 3606 3933 
Q 3597 3968 3584 3993 
Q 3571 4019 3536 4038 
Q 3501 4058 3481 4067 
Q 3462 4077 3411 4086 
Q 3360 4096 3337 4099 
Q 3315 4102 3248 4108 
Q 3181 4115 3155 4115 
L 3155 4237 
L 4461 4237 
z
" transform="scale(0.015625)"/>
       <path id="STIXGeneral-Regular-61" d="M 2829 422 
L 2829 243 
Q 2586 -64 2253 -64 
Q 1888 -64 1843 403 
L 1837 403 
Q 1427 -64 909 -64 
Q 608 -64 422 112 
Q 237 288 237 602 
Q 237 1050 685 1350 
Q 992 1555 1837 1869 
L 1837 2214 
Q 1837 2502 1699 2646 
Q 1562 2790 1338 2790 
Q 1146 2790 1018 2697 
Q 890 2605 890 2477 
Q 890 2419 909 2348 
Q 928 2278 928 2208 
Q 928 2112 841 2029 
Q 755 1946 634 1946 
Q 525 1946 441 2029 
Q 358 2112 358 2240 
Q 358 2547 685 2752 
Q 986 2944 1421 2944 
Q 1939 2944 2176 2656 
Q 2291 2522 2323 2384 
Q 2355 2246 2355 1946 
L 2355 723 
Q 2355 301 2554 301 
Q 2682 301 2829 422 
z
M 1837 813 
L 1837 1715 
Q 1248 1510 1018 1293 
Q 800 1094 800 800 
Q 800 557 921 432 
Q 1043 307 1242 307 
Q 1453 307 1613 410 
Q 1747 506 1792 589 
Q 1837 672 1837 813 
z
" transform="scale(0.015625)"/>
       <path id="STIXGeneral-Regular-72" d="M 1024 2931 
L 1024 2342 
Q 1267 2688 1430 2816 
Q 1594 2944 1792 2944 
Q 1958 2944 2051 2854 
Q 2144 2765 2144 2605 
Q 2144 2470 2077 2393 
Q 2010 2317 1894 2317 
Q 1773 2317 1638 2445 
Q 1536 2541 1472 2541 
Q 1338 2541 1181 2355 
Q 1024 2170 1024 2016 
L 1024 576 
Q 1024 301 1133 205 
Q 1242 109 1568 96 
L 1568 0 
L 32 0 
L 32 96 
Q 339 154 412 224 
Q 486 294 486 538 
L 486 2138 
Q 486 2349 438 2435 
Q 390 2522 269 2522 
Q 166 2522 45 2496 
L 45 2598 
Q 448 2726 992 2944 
L 1024 2931 
z
" transform="scale(0.015625)"/>
       <path id="STIXGeneral-Regular-6e" d="M 3104 0 
L 1773 0 
L 1779 96 
Q 2016 115 2096 233 
Q 2176 352 2176 672 
L 2176 1946 
Q 2176 2592 1709 2592 
Q 1549 2592 1408 2515 
Q 1267 2438 1050 2227 
L 1050 461 
Q 1050 269 1136 192 
Q 1222 115 1466 96 
L 1466 0 
L 115 0 
L 115 96 
Q 358 115 435 214 
Q 512 314 512 602 
L 512 2157 
Q 512 2394 467 2483 
Q 422 2573 288 2573 
Q 160 2573 102 2547 
L 102 2656 
Q 550 2784 979 2944 
L 1030 2925 
L 1030 2426 
L 1037 2426 
Q 1491 2944 1958 2944 
Q 2323 2944 2518 2688 
Q 2714 2432 2714 1958 
L 2714 544 
Q 2714 288 2790 205 
Q 2867 122 3104 96 
L 3104 0 
z
" transform="scale(0.015625)"/>
       <path id="STIXGeneral-Regular-63" d="M 2547 998 
L 2637 941 
Q 2362 403 2112 205 
Q 1786 -64 1376 -64 
Q 845 -64 502 336 
Q 160 736 160 1357 
Q 160 2170 698 2618 
Q 1094 2944 1562 2944 
Q 1965 2944 2256 2749 
Q 2547 2554 2547 2285 
Q 2547 2176 2457 2096 
Q 2368 2016 2246 2016 
Q 2022 2016 1939 2310 
L 1901 2451 
Q 1850 2630 1773 2694 
Q 1696 2758 1523 2758 
Q 1133 2758 893 2451 
Q 653 2144 653 1645 
Q 653 1094 928 745 
Q 1203 397 1645 397 
Q 1920 397 2118 528 
Q 2317 659 2547 998 
z
" transform="scale(0.015625)"/>
       <path id="STIXGeneral-Regular-20" transform="scale(0.015625)"/>
       <path id="STIXGeneral-Regular-64" d="M 3142 269 
L 2202 -64 
L 2176 -45 
L 2176 365 
Q 1869 -64 1357 -64 
Q 826 -64 499 317 
Q 173 698 173 1312 
Q 173 1990 563 2467 
Q 954 2944 1504 2944 
Q 1850 2944 2176 2669 
L 2176 3667 
Q 2176 3866 2118 3930 
Q 2061 3994 1882 3994 
Q 1792 3994 1741 3987 
L 1741 4090 
Q 2323 4243 2682 4371 
L 2714 4358 
L 2714 730 
Q 2714 506 2768 435 
Q 2822 365 2995 365 
Q 3034 365 3142 371 
L 3142 269 
z
M 2176 653 
L 2176 2125 
Q 2176 2381 1981 2573 
Q 1786 2765 1523 2765 
Q 1158 2765 940 2438 
Q 723 2112 723 1568 
Q 723 979 963 624 
Q 1203 269 1606 269 
Q 1907 269 2080 474 
Q 2176 582 2176 653 
z
" transform="scale(0.015625)"/>
       <path id="STIXGeneral-Regular-66" d="M 134 2880 
L 659 2880 
Q 666 3264 710 3478 
Q 755 3693 883 3910 
Q 1152 4371 1786 4371 
Q 2074 4371 2262 4259 
Q 2451 4147 2451 3974 
Q 2451 3866 2374 3789 
Q 2298 3712 2182 3712 
Q 2029 3712 1894 3942 
Q 1741 4192 1555 4192 
Q 1197 4192 1197 3622 
L 1197 2880 
L 1978 2880 
L 1978 2675 
L 1197 2675 
L 1197 666 
Q 1197 307 1299 208 
Q 1402 109 1792 96 
L 1792 0 
L 128 0 
L 128 96 
Q 474 115 566 214 
Q 659 314 659 666 
L 659 2675 
L 134 2675 
L 134 2880 
z
" transform="scale(0.015625)"/>
       <path id="STIXGeneral-Regular-6f" d="M 3008 1478 
Q 3008 806 2608 371 
Q 2208 -64 1568 -64 
Q 979 -64 582 368 
Q 186 800 186 1459 
Q 186 2125 582 2534 
Q 979 2944 1626 2944 
Q 2221 2944 2614 2537 
Q 3008 2131 3008 1478 
z
M 2432 1306 
Q 2432 2035 2112 2445 
Q 1856 2765 1504 2765 
Q 1171 2765 966 2493 
Q 762 2221 762 1747 
Q 762 928 1101 435 
Q 1318 115 1677 115 
Q 2029 115 2230 432 
Q 2432 749 2432 1306 
z
" transform="scale(0.015625)"/>
       <path id="STIXGeneral-Regular-78" d="M 3066 0 
L 1779 0 
L 1779 96 
Q 1939 109 1987 137 
Q 2035 166 2035 250 
Q 2035 307 1997 365 
L 1414 1261 
L 909 474 
Q 781 275 781 211 
Q 781 96 1037 96 
L 1037 0 
L 109 0 
L 109 96 
Q 269 109 355 169 
Q 442 230 576 422 
L 1306 1478 
L 704 2400 
Q 557 2624 454 2704 
Q 352 2784 211 2784 
L 154 2784 
L 154 2880 
L 1478 2880 
L 1478 2784 
Q 1203 2778 1203 2643 
Q 1203 2509 1498 2074 
Q 1581 1958 1587 1946 
Q 1619 1990 1779 2227 
Q 1811 2285 1856 2349 
Q 1901 2413 1923 2451 
Q 1946 2490 1971 2528 
Q 1997 2566 2006 2595 
Q 2016 2624 2016 2643 
Q 2016 2765 1760 2784 
L 1760 2880 
L 2771 2880 
L 2771 2784 
Q 2445 2771 2253 2502 
L 1722 1734 
L 2541 480 
Q 2790 96 3066 96 
L 3066 0 
z
" transform="scale(0.015625)"/>
       <path id="STIXGeneral-Regular-74" d="M 1702 493 
L 1786 422 
Q 1478 -64 1011 -64 
Q 448 -64 448 749 
L 448 2675 
L 109 2675 
Q 83 2694 83 2720 
Q 83 2771 192 2842 
Q 435 2982 813 3526 
Q 826 3546 874 3606 
Q 922 3667 941 3706 
Q 986 3706 986 3622 
L 986 2880 
L 1632 2880 
L 1632 2675 
L 986 2675 
L 986 845 
Q 986 538 1062 403 
Q 1139 269 1318 269 
Q 1510 269 1702 493 
z
" transform="scale(0.015625)"/>
      </defs>
      <use xlink:href="#STIXGeneral-Regular-56"/>
      <use xlink:href="#STIXGeneral-Regular-61" transform="translate(72.199982 0)"/>
      <use xlink:href="#STIXGeneral-Regular-72" transform="translate(116.599976 0)"/>
      <use xlink:href="#STIXGeneral-Regular-69" transform="translate(149.899963 0)"/>
      <use xlink:href="#STIXGeneral-Regular-61" transform="translate(177.699951 0)"/>
      <use xlink:href="#STIXGeneral-Regular-6e" transform="translate(222.099945 0)"/>
      <use xlink:href="#STIXGeneral-Regular-63" transform="translate(272.09993 0)"/>
      <use xlink:href="#STIXGeneral-Regular-65" transform="translate(316.499924 0)"/>
      <use xlink:href="#STIXGeneral-Regular-20" transform="translate(360.899918 0)"/>
      <use xlink:href="#STIXGeneral-Regular-64" transform="translate(385.899902 0)"/>
      <use xlink:href="#STIXGeneral-Regular-69" transform="translate(435.899887 0)"/>
      <use xlink:href="#STIXGeneral-Regular-66" transform="translate(463.699875 0)"/>
      <use xlink:href="#STIXGeneral-Regular-66" transform="translate(496.999863 0)"/>
      <use xlink:href="#STIXGeneral-Regular-65" transform="translate(530.29985 0)"/>
      <use xlink:href="#STIXGeneral-Regular-72" transform="translate(574.699844 0)"/>
      <use xlink:href="#STIXGeneral-Regular-65" transform="translate(607.999832 0)"/>
      <use xlink:href="#STIXGeneral-Regular-6e" transform="translate(652.399826 0)"/>
      <use xlink:href="#STIXGeneral-Regular-63" transform="translate(702.399811 0)"/>
      <use xlink:href="#STIXGeneral-Regular-65" transform="translate(746.799805 0)"/>
      <use xlink:href="#STIXGeneral-Regular-20" transform="translate(791.199799 0)"/>
      <use xlink:href="#STIXGeneral-Regular-66" transform="translate(816.199783 0)"/>
      <use xlink:href="#STIXGeneral-Regular-72" transform="translate(849.499771 0)"/>
      <use xlink:href="#STIXGeneral-Regular-6f" transform="translate(882.799759 0)"/>
      <use xlink:href="#STIXGeneral-Regular-6d" transform="translate(932.799744 0)"/>
      <use xlink:href="#STIXGeneral-Regular-20" transform="translate(1010.599731 0)"/>
      <use xlink:href="#STIXGeneral-Regular-65" transform="translate(1035.599716 0)"/>
      <use xlink:href="#STIXGeneral-Regular-78" transform="translate(1079.99971 0)"/>
      <use xlink:href="#STIXGeneral-Regular-61" transform="translate(1129.999695 0)"/>
      <use xlink:href="#STIXGeneral-Regular-63" transform="translate(1174.399689 0)"/>
      <use xlink:href="#STIXGeneral-Regular-74" transform="translate(1218.799683 0)"/>
     </g>
    </g>
   </g>
   <g id="line2d_126">
    <path d="M 72.002727 39.344 
L 452.457273 39.344 
L 452.457273 39.344 
" clip-path="url(#pf6e25fa035)" style="fill: none; stroke: #2ca02c; stroke-width: 2.7; stroke-linecap: square"/>
   </g>
   <g id="line2d_127">
    <path d="M 52.98 39.344 
L 471.48 39.344 
" clip-path="url(#pf6e25fa035)" style="fill: none; stroke: #000000; stroke-opacity: 0.6; stroke-linecap: square"/>
   </g>
   <g id="patch_3">
    <path d="M 52.98 314.528 
L 52.98 26.24 
" style="fill: none; stroke: #000000; stroke-width: 0.5; stroke-linejoin: miter; stroke-linecap: square"/>
   </g>
   <g id="patch_4">
    <path d="M 471.48 314.528 
L 471.48 26.24 
" style="fill: none; stroke: #000000; stroke-width: 0.5; stroke-linejoin: miter; stroke-linecap: square"/>
   </g>
   <g id="patch_5">
    <path d="M 52.98 314.528 
L 471.48 314.528 
" style="fill: none; stroke: #000000; stroke-width: 0.5; stroke-linejoin: miter; stroke-linecap: square"/>
   </g>
   <g id="patch_6">
    <path d="M 52.98 26.24 
L 471.48 26.24 
" style="fill: none; stroke: #000000; stroke-width: 0.5; stroke-linejoin: miter; stroke-linecap: square"/>
   </g>
   <g id="line2d_128">
    <path d="M 72.002727 301.424 
L 72.078818 300.593087 
L 72.154909 301.291967 
L 72.459273 297.361136 
L 72.535364 297.436321 
L 72.611455 297.311378 
L 72.763636 298.299864 
L 73.144091 293.323485 
L 73.296273 290.34228 
L 73.372364 290.414096 
L 73.524545 289.47642 
L 73.600636 290.458893 
L 73.676727 290.07153 
L 73.828909 286.743787 
L 73.981091 289.179813 
L 74.133273 290.278721 
L 74.437636 286.359737 
L 74.742 283.285881 
L 74.894182 280.335288 
L 74.970273 280.394376 
L 75.046364 280.251628 
L 75.122455 281.162177 
L 75.198545 280.958858 
L 75.350727 280.759074 
L 75.426818 281.279884 
L 75.502909 280.002132 
L 75.579 280.036919 
L 75.655091 281.871916 
L 75.731182 281.649533 
L 75.959455 278.410423 
L 76.035545 278.036305 
L 76.111636 278.536439 
L 76.644273 272.151181 
L 76.720364 271.751915 
L 77.024727 267.186067 
L 77.100818 266.922973 
L 78.394364 249.956713 
L 78.470455 251.702059 
L 78.546545 251.247464 
L 78.774818 248.3795 
L 78.850909 249.080319 
L 79.231364 246.538984 
L 79.307455 244.78438 
L 79.383545 245.855892 
L 79.764 240.821625 
L 79.840091 240.555723 
L 79.992273 243.289695 
L 80.068364 242.94034 
L 80.524909 235.326178 
L 80.601 235.91649 
L 80.677091 235.008674 
L 80.829273 232.331891 
L 80.905364 232.656341 
L 80.981455 232.190364 
L 81.057545 232.439929 
L 81.133636 231.466968 
L 81.209727 232.245913 
L 81.285818 232.153074 
L 81.590182 227.20506 
L 81.666273 226.977573 
L 82.046727 223.220537 
L 82.503273 219.188569 
L 82.579364 218.658069 
L 82.655455 220.752646 
L 82.731545 220.363905 
L 82.807636 220.373431 
L 82.883727 221.814465 
L 83.112 219.569865 
L 83.188091 219.954646 
L 83.416364 218.593556 
L 83.644636 215.504024 
L 83.720727 216.248298 
L 83.796818 214.771065 
L 83.872909 215.243892 
L 83.949 214.420197 
L 84.025091 217.089728 
L 84.101182 215.944407 
L 84.177273 216.848933 
L 84.329455 214.491301 
L 84.405545 215.001299 
L 84.481636 214.885162 
L 84.786 211.359486 
L 84.862091 211.37327 
L 85.014273 209.053182 
L 85.090364 209.783751 
L 85.242545 208.15425 
L 85.470818 205.924403 
L 85.546909 206.064086 
L 85.775182 203.792661 
L 85.851273 202.827686 
L 85.927364 203.13114 
L 86.003455 203.356907 
L 86.155636 201.368721 
L 86.536091 195.892581 
L 86.612182 196.381692 
L 86.688273 196.093154 
L 86.764364 195.29719 
L 86.840455 195.514195 
L 86.916545 196.32326 
L 87.373091 191.115956 
L 87.449182 190.863561 
L 87.525273 191.941643 
L 87.601364 191.015015 
L 87.677455 192.597829 
L 87.753545 191.422332 
L 87.829636 191.82754 
L 87.905727 193.016642 
L 87.981818 192.044735 
L 88.057909 192.91245 
L 88.134 192.401618 
L 88.286182 189.551441 
L 88.362273 190.200466 
L 88.438364 192.125503 
L 88.742727 188.346199 
L 88.818818 188.72257 
L 89.047091 186.864862 
L 89.123182 186.805071 
L 89.199273 186.960176 
L 89.275364 185.655605 
L 89.351455 186.051726 
L 89.503636 184.391402 
L 89.731909 188.584907 
L 89.808 188.4884 
L 89.960182 185.982084 
L 90.036273 187.289259 
L 90.112364 187.202131 
L 90.492818 183.166888 
L 90.568909 183.630727 
L 90.645 183.2661 
L 90.797182 185.222196 
L 90.949364 183.975498 
L 91.025455 184.606304 
L 91.253727 181.265871 
L 91.329818 181.546482 
L 91.558091 179.035936 
L 91.634182 179.328544 
L 91.710273 179.219389 
L 92.242909 173.612906 
L 92.395091 175.630606 
L 92.699455 172.683869 
L 92.775545 174.981323 
L 92.851636 174.193636 
L 92.927727 174.164323 
L 93.079909 173.831261 
L 93.308182 174.293356 
L 93.384273 175.354997 
L 93.688636 171.971865 
L 93.764727 171.479141 
L 93.840818 170.202601 
L 93.916909 170.582764 
L 94.069091 171.588914 
L 94.525636 167.150453 
L 94.601727 168.762769 
L 95.058273 163.582564 
L 95.210455 164.842495 
L 95.286545 163.664346 
L 95.362636 164.264102 
L 95.514818 162.860476 
L 95.590909 162.892719 
L 95.667 165.059132 
L 95.743091 164.387368 
L 95.819182 165.745118 
L 95.895273 165.53324 
L 96.047455 165.732089 
L 96.504 160.069291 
L 96.580091 160.214847 
L 96.808364 158.345921 
L 96.884455 158.352781 
L 97.036636 159.014472 
L 97.188818 161.501543 
L 97.264909 161.010114 
L 97.417091 159.244844 
L 97.493182 159.942937 
L 97.645364 157.823275 
L 97.721455 158.686749 
L 97.797545 161.374121 
L 97.873636 161.202503 
L 97.949727 160.071053 
L 98.025818 160.577234 
L 98.330182 158.044677 
L 98.406273 157.935191 
L 98.862818 155.510288 
L 98.938909 156.249157 
L 99.091091 154.229111 
L 99.167182 154.369356 
L 99.395455 157.699932 
L 99.471545 157.174033 
L 99.547636 157.264125 
L 99.699818 157.854268 
L 99.775909 157.968953 
L 99.852 157.382968 
L 100.080273 159.291366 
L 100.460727 154.679932 
L 100.765091 152.60803 
L 101.069455 155.944156 
L 101.145545 156.215561 
L 101.221636 158.029618 
L 101.297727 157.493766 
L 101.526 155.279513 
L 101.678182 155.975996 
L 101.830364 154.976942 
L 101.906455 155.1091 
L 102.210818 152.318089 
L 102.363 153.255726 
L 102.439091 152.975664 
L 102.515182 152.001527 
L 102.591273 153.253695 
L 102.819545 150.760228 
L 102.971727 151.038566 
L 103.047818 150.090175 
L 103.123909 153.843452 
L 103.2 152.806958 
L 103.276091 152.489428 
L 103.428273 153.740688 
L 103.884818 150.174896 
L 103.960909 151.886407 
L 104.037 151.306681 
L 104.493545 148.549117 
L 104.569636 149.669896 
L 104.645727 149.307344 
L 104.721818 148.212098 
L 104.797909 148.34351 
L 104.874 148.265332 
L 105.330545 143.505278 
L 105.406636 143.662872 
L 105.787091 139.73935 
L 105.863182 140.001187 
L 105.939273 139.348564 
L 106.091455 141.227281 
L 106.243636 139.933997 
L 106.395818 138.159372 
L 106.548 138.921351 
L 106.852364 136.312535 
L 107.004545 136.945651 
L 107.385 135.565856 
L 107.461091 136.132049 
L 107.689364 134.276794 
L 107.993727 131.772391 
L 108.069818 131.432924 
L 108.222 132.401238 
L 108.374182 131.659027 
L 108.450273 131.485066 
L 108.602455 130.64923 
L 108.678545 131.447545 
L 108.754636 131.033132 
L 108.830727 131.138318 
L 108.906818 130.904723 
L 108.982909 131.313672 
L 109.135091 130.526574 
L 109.211182 130.436871 
L 109.363364 134.275659 
L 109.515545 133.643818 
L 109.667727 133.698952 
L 109.819909 134.29035 
L 109.896 133.467026 
L 110.048182 137.135532 
L 110.124273 136.338602 
L 110.276455 137.896847 
L 110.352545 137.090857 
L 110.428636 137.442632 
L 110.504727 137.814746 
L 111.417818 133.322488 
L 111.646091 131.591754 
L 111.722182 131.749871 
L 111.798273 130.865076 
L 111.874364 131.264949 
L 111.950455 131.460627 
L 112.026545 130.85067 
L 112.102636 131.109749 
L 112.178727 131.946767 
L 112.254818 131.635452 
L 112.407 130.907703 
L 112.483091 131.231972 
L 112.787455 129.4528 
L 112.863545 129.625089 
L 113.015727 128.320985 
L 113.091818 128.691249 
L 113.396182 125.899378 
L 113.624455 126.936298 
L 113.776636 125.748984 
L 114.004909 128.049003 
L 114.081 128.528232 
L 114.157091 128.411523 
L 114.233182 127.955999 
L 114.309273 128.917594 
L 114.385364 128.896301 
L 114.537545 129.528275 
L 114.689727 128.081677 
L 114.765818 128.748547 
L 114.918 127.331865 
L 114.994091 128.633987 
L 115.070182 128.233201 
L 115.450636 125.830288 
L 115.526727 126.238006 
L 115.678909 125.836128 
L 115.755 126.166611 
L 115.831091 125.86448 
L 115.907182 126.090847 
L 116.059364 125.140986 
L 116.287636 123.998125 
L 116.363727 123.34714 
L 116.439818 124.360776 
L 116.820273 121.539249 
L 116.896364 123.201902 
L 116.972455 122.451026 
L 117.048545 123.229101 
L 117.200727 122.043937 
L 117.276818 123.980842 
L 117.352909 123.335775 
L 117.581182 125.629023 
L 117.961636 122.333211 
L 118.037727 123.198461 
L 118.342091 121.465471 
L 118.646455 119.820667 
L 118.798636 120.987636 
L 119.026909 119.013412 
L 119.103 119.693292 
L 119.255182 118.488451 
L 119.559545 121.788779 
L 119.787818 120.494033 
L 119.863909 120.356752 
L 120.016091 119.717149 
L 120.396545 120.924579 
L 120.472636 120.737119 
L 120.548727 120.890368 
L 120.624818 122.191734 
L 120.700909 121.657988 
L 120.853091 120.913904 
L 121.005273 121.934357 
L 121.081364 123.19381 
L 121.157455 122.721624 
L 121.233545 122.238452 
L 121.309636 122.540745 
L 121.385727 121.892545 
L 121.537909 123.029325 
L 121.614 122.554296 
L 121.690091 124.380349 
L 121.766182 123.737229 
L 122.070545 121.938654 
L 122.146636 121.687305 
L 122.298818 120.633467 
L 122.374909 120.86957 
L 122.451 120.268882 
L 122.527091 120.744092 
L 123.059727 117.998222 
L 123.135818 118.712913 
L 123.211909 118.13407 
L 123.288 118.990563 
L 123.364091 118.65318 
L 123.516273 117.471086 
L 123.592364 117.49372 
L 123.668455 118.342268 
L 124.429364 113.348609 
L 124.505455 113.083145 
L 124.657636 115.800013 
L 124.809818 114.655128 
L 124.885909 114.836935 
L 124.962 114.565991 
L 125.114182 115.432558 
L 125.342455 114.362204 
L 125.494636 113.443294 
L 125.570727 114.177943 
L 125.722909 113.147201 
L 125.799 114.1732 
L 126.255545 111.517506 
L 126.636 110.343637 
L 126.712091 110.599764 
L 126.788182 110.294939 
L 126.864273 110.43755 
L 127.092545 110.584577 
L 127.168636 112.257529 
L 127.244727 111.849273 
L 127.396909 110.989292 
L 127.473 111.921003 
L 127.625182 110.852761 
L 127.701273 111.239278 
L 127.777364 110.701716 
L 128.005636 112.252505 
L 128.081727 111.724191 
L 128.233909 111.010269 
L 128.31 110.98923 
L 128.538273 109.842725 
L 128.690455 109.781986 
L 128.918727 108.206509 
L 128.994818 110.330403 
L 129.070909 109.926786 
L 129.147 109.393892 
L 129.223091 109.860931 
L 129.299182 109.323454 
L 129.375273 110.036657 
L 129.603545 108.610251 
L 129.679636 108.951428 
L 129.984 107.643917 
L 130.060091 107.960205 
L 130.136182 107.927867 
L 130.288364 107.824284 
L 130.668818 105.626251 
L 130.744909 105.928607 
L 130.821 105.42157 
L 130.973182 107.875841 
L 131.201455 106.599535 
L 131.353636 107.95664 
L 131.429727 108.052881 
L 132.114545 104.402614 
L 132.342818 106.489989 
L 132.418909 106.001185 
L 132.495 107.515415 
L 132.571091 107.168714 
L 132.647182 107.200215 
L 132.799364 106.434135 
L 133.179818 108.913548 
L 133.332 108.410762 
L 133.408091 108.488518 
L 134.092909 104.898622 
L 134.169 105.591798 
L 134.701636 103.381509 
L 134.777727 104.586169 
L 134.853818 104.236708 
L 134.929909 103.871026 
L 135.006 104.388587 
L 135.158182 103.778284 
L 135.234273 103.987519 
L 135.766909 101.93751 
L 135.843 101.791531 
L 135.919091 101.351543 
L 135.995182 101.507086 
L 136.071273 101.436024 
L 136.147364 101.577013 
L 136.451727 100.073848 
L 136.527818 102.955167 
L 136.603909 102.554102 
L 136.68 102.776906 
L 137.060455 101.207365 
L 137.136545 101.35051 
L 137.517 99.611962 
L 137.593091 100.255121 
L 137.821364 99.286444 
L 137.973545 100.144611 
L 138.049636 99.744216 
L 138.125727 99.359183 
L 138.201818 100.100361 
L 138.658364 98.154631 
L 138.734455 98.680749 
L 138.810545 98.576008 
L 139.951909 93.454529 
L 140.104091 93.06255 
L 140.256273 95.264904 
L 140.560636 94.193568 
L 141.093273 92.254426 
L 141.245455 92.406355 
L 141.321545 92.202174 
L 141.397636 93.016061 
L 141.473727 92.859135 
L 141.778091 92.144146 
L 141.854182 92.964079 
L 141.930273 92.628938 
L 142.082455 91.97439 
L 142.158545 92.035538 
L 142.234636 92.529122 
L 142.462909 91.563732 
L 142.539 91.836027 
L 142.615091 92.628731 
L 142.691182 92.301042 
L 142.767273 92.095365 
L 142.843364 92.127656 
L 142.919455 92.518965 
L 143.376 90.759626 
L 143.452091 90.777574 
L 143.528182 91.161768 
L 143.604273 90.923 
L 143.680364 91.302315 
L 144.136909 89.331399 
L 144.365182 90.489173 
L 144.593455 90.044657 
L 144.669545 90.414732 
L 144.897818 89.876331 
L 144.973909 89.871813 
L 145.278273 88.694187 
L 145.354364 88.761739 
L 145.582636 87.97058 
L 145.658727 88.022726 
L 145.734818 88.767577 
L 145.810909 88.525122 
L 145.887 88.205126 
L 145.963091 88.508664 
L 146.724 85.72883 
L 146.876182 85.201714 
L 147.028364 86.119905 
L 147.941455 82.647422 
L 148.017545 83.356452 
L 148.093636 83.139597 
L 149.158909 79.651273 
L 149.235 79.892245 
L 149.311091 79.716252 
L 149.387182 79.971725 
L 149.615455 79.148523 
L 149.691545 79.303409 
L 150.300273 77.404735 
L 150.376364 78.988851 
L 150.452455 78.707756 
L 150.528545 78.438123 
L 150.604636 79.06104 
L 150.680727 78.804016 
L 150.756818 78.527388 
L 150.832909 78.787299 
L 151.137273 77.792188 
L 151.365545 79.83341 
L 151.441636 79.598859 
L 151.517727 79.825551 
L 151.593818 79.721705 
L 152.202545 77.683162 
L 152.278636 78.012146 
L 152.354727 77.785602 
L 152.430818 77.945968 
L 152.887364 76.413193 
L 152.963455 76.565719 
L 153.496091 75.274971 
L 153.572182 75.533483 
L 153.648273 75.273211 
L 153.800455 75.543995 
L 153.952636 75.168751 
L 154.028727 75.147666 
L 154.104818 75.270845 
L 154.257 74.878024 
L 154.333091 75.006566 
L 154.409182 74.735008 
L 154.485273 74.855914 
L 154.561364 74.624995 
L 154.713545 75.987213 
L 154.789636 75.759155 
L 155.094 74.610499 
L 155.398364 73.645656 
L 155.474455 73.771906 
L 155.931 72.783725 
L 156.007091 73.272278 
L 156.159273 72.791034 
L 156.235364 72.890821 
L 156.539727 72.05838 
L 156.920182 71.062916 
L 157.072364 69.03874 
L 157.148455 69.522935 
L 157.528909 68.449571 
L 157.605 68.80211 
L 157.833273 68.182928 
L 157.909364 68.336252 
L 158.061545 69.216329 
L 158.594182 67.811917 
L 158.670273 68.140721 
L 158.898545 67.798978 
L 159.811636 65.694385 
L 159.963818 66.763206 
L 160.039909 66.570649 
L 160.116 66.433957 
L 160.268182 66.867097 
L 160.344273 66.712561 
L 160.420364 67.132338 
L 160.496455 66.932735 
L 160.724727 66.540862 
L 160.876909 66.571445 
L 160.953 67.362849 
L 161.029091 67.158995 
L 161.105182 67.147607 
L 161.409545 66.410363 
L 161.561727 66.770838 
L 161.637818 66.588466 
L 161.713909 66.790996 
L 161.866091 66.403589 
L 161.942182 67.177066 
L 162.018273 66.99714 
L 163.007455 64.623942 
L 163.083545 64.946635 
L 163.311818 64.355248 
L 163.540091 64.934979 
L 163.616182 64.781805 
L 163.768364 65.79075 
L 163.844455 65.579928 
L 164.529273 64.100628 
L 164.605364 64.370643 
L 164.681455 64.340722 
L 164.833636 63.952544 
L 164.909727 64.212674 
L 165.670636 62.652919 
L 165.746727 63.588702 
L 165.822818 63.380359 
L 166.203273 62.787479 
L 166.279364 63.036338 
L 167.192455 61.157675 
L 167.268545 61.818954 
L 167.344636 61.658344 
L 168.409909 59.614501 
L 168.486 59.811837 
L 168.790364 59.150465 
L 168.866455 59.324045 
L 169.094727 58.872354 
L 169.246909 59.240222 
L 169.627364 58.440275 
L 169.703455 58.601487 
L 169.855636 58.296408 
L 169.931727 58.477075 
L 171.073091 56.188123 
L 171.149182 56.349501 
L 171.225273 56.551703 
L 172.138364 54.893918 
L 172.290545 54.731131 
L 172.366636 54.065779 
L 172.442727 54.158064 
L 172.594909 53.950913 
L 172.671 54.092783 
L 173.051455 53.462969 
L 173.127545 54.638759 
L 173.203636 54.512398 
L 173.279727 55.078749 
L 173.355818 54.960135 
L 173.431909 54.842214 
L 173.508 55.35734 
L 173.584091 55.223854 
L 173.660182 55.105446 
L 173.888455 55.957161 
L 174.040636 55.652762 
L 174.116727 56.13288 
L 174.192818 56.01267 
L 174.345 55.735442 
L 174.421091 56.214052 
L 174.497182 56.125588 
L 175.258091 54.817792 
L 175.410273 54.568863 
L 175.562455 56.11166 
L 175.714636 55.851582 
L 175.866818 55.638825 
L 175.942909 57.270178 
L 176.019 57.107991 
L 176.171182 58.421135 
L 176.323364 58.143563 
L 176.551636 60.446644 
L 177.160364 59.343922 
L 177.236455 59.739896 
L 177.312545 59.599792 
L 177.616909 59.225811 
L 177.693 59.259203 
L 178.073455 58.644547 
L 178.301727 58.611246 
L 178.682182 58.039276 
L 178.758273 58.848551 
L 178.834364 58.732461 
L 179.138727 58.214334 
L 179.214818 59.201278 
L 179.290909 59.054376 
L 179.671364 58.40329 
L 179.747455 59.181566 
L 179.823545 59.046808 
L 180.051818 58.913974 
L 181.193182 57.042445 
L 181.269273 57.354599 
L 181.345364 57.2137 
L 181.421455 57.082838 
L 181.497545 57.375883 
L 181.725818 59.022416 
L 182.106273 58.534824 
L 182.182364 58.528664 
L 182.562818 58.040391 
L 182.791091 57.787558 
L 182.943273 57.64334 
L 183.856364 56.443036 
L 183.932455 57.144894 
L 184.008545 57.033486 
L 184.084636 56.907263 
L 184.160727 57.164458 
L 184.236818 57.060293 
L 184.312909 56.951124 
L 184.389 57.600752 
L 184.465091 57.556302 
L 185.073818 56.614164 
L 185.149909 57.510128 
L 185.226 57.374953 
L 185.834727 56.605894 
L 187.128273 54.851995 
L 187.204364 55.349654 
L 187.280455 55.283516 
L 187.737 54.719404 
L 187.813091 54.959701 
L 187.889182 54.856193 
L 189.106636 53.369166 
L 189.182727 53.531456 
L 189.258818 53.436838 
L 189.943636 52.589661 
L 190.019727 53.255226 
L 190.095818 53.170322 
L 190.780636 52.331582 
L 191.008909 53.343436 
L 191.237182 53.083365 
L 191.313273 53.203361 
L 191.389364 53.123259 
L 191.465455 52.997158 
L 191.541545 53.937588 
L 191.617636 53.800391 
L 191.693727 53.916302 
L 192.606818 52.856302 
L 192.682909 53.350441 
L 192.759 53.273746 
L 193.443818 52.512899 
L 193.519909 52.982596 
L 193.596 52.860142 
L 193.824273 52.603818 
L 193.900364 53.270216 
L 193.976455 53.196154 
L 195.27 51.92333 
L 195.422182 52.449035 
L 195.574364 52.258096 
L 195.726545 51.447891 
L 196.335273 50.896862 
L 196.411364 51.781603 
L 196.487455 51.718759 
L 196.715727 51.652031 
L 196.867909 51.658252 
L 197.248364 51.335554 
L 197.324455 52.206284 
L 197.400545 52.129202 
L 198.085364 51.519543 
L 198.161455 51.445635 
L 198.313636 50.710695 
L 198.465818 50.588377 
L 198.541909 50.984076 
L 198.618 50.900172 
L 198.998455 50.584484 
L 199.074545 50.644867 
L 199.531091 50.2814 
L 199.911545 50.01156 
L 199.987636 50.697247 
L 200.063727 50.649872 
L 200.520273 50.44197 
L 200.672455 50.42952 
L 200.900727 50.212486 
L 200.976818 50.561742 
L 201.052909 50.514134 
L 201.509455 50.221 
L 201.585545 51.038208 
L 201.661636 50.990901 
L 202.346455 50.577711 
L 202.422545 51.318107 
L 202.498636 51.273667 
L 203.411727 50.729581 
L 203.487818 51.018097 
L 203.563909 50.974252 
L 206.607545 49.283296 
L 206.683636 49.5282 
L 206.759727 49.49021 
L 209.346818 48.178301 
L 209.422909 48.382392 
L 209.499 48.352919 
L 209.803364 48.223305 
L 210.183818 48.07486 
L 210.259909 48.758456 
L 210.336 48.727405 
L 211.249091 48.291196 
L 211.477364 48.565063 
L 212.999182 48.072214 
L 214.064455 47.621463 
L 214.216636 44.49187 
L 214.444909 44.393374 
L 214.673182 44.632183 
L 217.564636 43.727874 
L 217.716818 43.791776 
L 219.695182 43.169941 
L 219.847364 39.890404 
L 219.999545 39.946866 
L 220.075636 40.465167 
L 220.151727 40.448979 
L 220.684364 40.331522 
L 220.760455 40.837559 
L 220.836545 40.777617 
L 221.064818 40.785105 
L 222.814909 40.334102 
L 222.891 40.804227 
L 222.967091 40.786693 
L 223.195364 40.755849 
L 224.412818 40.485866 
L 224.488909 40.511888 
L 224.641091 41.376001 
L 224.717182 41.352841 
L 225.249818 41.21766 
L 225.325909 41.645916 
L 225.402 41.626251 
L 226.771636 41.197573 
L 227.152091 41.088195 
L 227.684727 40.952723 
L 227.760818 41.344536 
L 227.836909 41.32648 
L 229.358727 40.859254 
L 229.434818 40.823671 
L 229.510909 41.191216 
L 229.587 41.174333 
L 230.043545 41.070522 
L 230.119636 41.659515 
L 230.195727 41.642119 
L 231.032727 41.404594 
L 231.108818 42.396264 
L 231.184909 42.381865 
L 233.087182 41.97196 
L 233.239364 42.260509 
L 235.598182 41.745242 
L 235.674273 42.012597 
L 235.750364 41.981585 
L 236.054727 41.905463 
L 236.283 42.437228 
L 237.272182 42.247659 
L 237.424364 42.505508 
L 238.109182 42.339575 
L 239.935364 41.921216 
L 240.087545 42.338831 
L 240.468 42.273964 
L 240.620182 42.680019 
L 244.044273 41.980415 
L 244.272545 42.342678 
L 245.870455 42.011451 
L 246.022636 42.324802 
L 246.403091 42.232059 
L 247.164 42.112824 
L 247.316182 42.403262 
L 247.696636 42.337258 
L 247.772727 42.630528 
L 247.848818 42.606378 
L 248.990182 42.354448 
L 249.066273 43.576138 
L 249.142364 43.563616 
L 252.033818 43.012993 
L 252.186 43.225291 
L 253.936091 42.952195 
L 254.088273 43.075543 
L 256.675364 42.677025 
L 256.827545 42.822071 
L 259.414636 42.435415 
L 259.566818 42.531644 
L 263.219182 41.997805 
L 263.371364 41.02105 
L 263.827909 40.983215 
L 263.904 42.162064 
L 263.980091 42.151358 
L 264.664909 42.008276 
L 264.741 43.177319 
L 264.817091 43.155935 
L 269.763 42.583292 
L 269.839091 43.695638 
L 269.915182 43.687644 
L 272.121818 43.469798 
L 272.274 42.770728 
L 276.763364 42.414974 
L 276.839455 43.437464 
L 276.915545 43.431528 
L 279.654818 43.150299 
L 279.730909 44.126555 
L 279.807 44.119812 
L 280.491818 44.059412 
L 280.644 43.627626 
L 281.024455 43.537684 
L 281.252727 43.459757 
L 282.394091 43.322958 
L 282.546273 44.251304 
L 293.959909 43.301483 
L 294.112091 43.189345 
L 295.177364 43.077055 
L 295.329545 42.972068 
L 307.199727 42.138615 
L 311.841273 41.880121 
L 311.993455 42.295341 
L 312.830455 42.245592 
L 312.982636 42.643416 
L 318.765545 42.160495 
L 318.993818 42.071902 
L 319.450364 42.014224 
L 331.624909 41.075363 
L 331.777091 41.459581 
L 332.309727 41.413112 
L 358.408909 40.092637 
L 358.713273 40.118503 
L 366.322364 39.876493 
L 366.474545 40.40615 
L 376.290273 40.218451 
L 376.442455 40.755022 
L 406.117909 40.156735 
L 406.574455 40.170404 
L 409.085455 40.155039 
L 418.292455 40.099415 
L 418.444636 39.773028 
L 445.000364 39.423551 
L 445.152545 39.811893 
L 452.457273 39.746745 
L 452.457273 39.746745 
" clip-path="url(#pf6e25fa035)" style="fill: none; stroke: #ff7f0e; stroke-width: 2.5; stroke-linecap: square"/>
   </g>
   <g id="text_16">
    <!-- Variance Difference vs Time ($|\alpha=\sqrt{10}\rangle$, $U=0$, $\gamma=1$) -->
    <g transform="translate(81.35 20.24) scale(0.16 -0.16)">
     <defs>
      <path id="STIXGeneral-Regular-44" d="M 102 4237 
L 1830 4237 
Q 3078 4237 3750 3654 
Q 4384 3110 4384 2138 
Q 4384 966 3514 410 
Q 2880 0 1901 0 
L 102 0 
L 102 122 
Q 474 147 570 252 
Q 666 358 666 736 
L 666 3520 
Q 666 3891 570 3990 
Q 474 4090 102 4115 
L 102 4237 
z
M 1318 3731 
L 1318 538 
Q 1318 365 1379 301 
Q 1440 237 1626 237 
Q 2125 237 2432 307 
Q 2739 378 3021 570 
Q 3686 1018 3686 2099 
Q 3686 3027 3078 3558 
Q 2803 3802 2476 3901 
Q 2150 4000 1658 4000 
Q 1472 4000 1395 3942 
Q 1318 3885 1318 3731 
z
" transform="scale(0.015625)"/>
      <path id="STIXGeneral-Regular-76" d="M 3053 2880 
L 3053 2784 
Q 2906 2771 2835 2688 
Q 2765 2605 2637 2285 
L 1818 230 
Q 1690 -90 1638 -90 
Q 1587 -90 1523 77 
Q 1510 96 1497 141 
Q 1485 186 1472 211 
L 704 2048 
Q 499 2534 403 2652 
Q 307 2771 122 2784 
L 122 2880 
L 1376 2880 
L 1376 2784 
Q 1210 2771 1146 2732 
Q 1082 2694 1082 2611 
Q 1082 2509 1139 2368 
L 1792 730 
L 2426 2387 
Q 2464 2483 2464 2579 
Q 2464 2758 2163 2784 
L 2163 2880 
L 3053 2880 
z
" transform="scale(0.015625)"/>
      <path id="STIXGeneral-Regular-73" d="M 998 1926 
L 1664 1523 
Q 1984 1331 2105 1164 
Q 2227 998 2227 736 
Q 2227 416 1961 176 
Q 1696 -64 1331 -64 
Q 1030 -64 864 -6 
Q 691 51 570 51 
Q 461 51 416 -26 
L 333 -26 
L 333 979 
L 435 979 
Q 538 512 730 294 
Q 922 77 1248 77 
Q 1485 77 1632 211 
Q 1779 346 1779 550 
Q 1779 845 1440 1030 
L 1094 1222 
Q 326 1651 326 2150 
Q 326 2522 566 2730 
Q 806 2938 1210 2938 
Q 1491 2938 1638 2867 
Q 1754 2816 1818 2816 
Q 1862 2816 1920 2880 
L 1990 2880 
L 2022 2010 
L 1926 2010 
Q 1818 2445 1654 2621 
Q 1491 2797 1203 2797 
Q 986 2797 854 2688 
Q 723 2579 723 2362 
Q 723 2253 796 2128 
Q 870 2003 998 1926 
z
" transform="scale(0.015625)"/>
      <path id="STIXGeneral-Regular-28" d="M 1946 -1030 
L 1869 -1133 
Q 1126 -710 716 32 
Q 307 774 307 1613 
Q 307 3386 1888 4326 
L 1946 4224 
Q 1293 3667 1075 3126 
Q 858 2586 858 1632 
Q 858 685 1082 96 
Q 1306 -493 1946 -1030 
z
" transform="scale(0.015625)"/>
      <path id="Cmsy10-6a" d="M 763 -1484 
L 763 4684 
Q 763 4734 800 4767 
Q 838 4800 891 4800 
Q 938 4800 978 4767 
Q 1019 4734 1019 4684 
L 1019 -1484 
Q 1019 -1534 978 -1567 
Q 938 -1600 891 -1600 
Q 838 -1600 800 -1567 
Q 763 -1534 763 -1484 
z
" transform="scale(0.015625)"/>
      <path id="Cmmi10-ae" d="M 1288 -72 
Q 984 -72 748 72 
Q 513 216 384 459 
Q 256 703 256 1013 
Q 256 1447 498 1872 
Q 741 2297 1142 2562 
Q 1544 2828 1984 2828 
Q 2309 2828 2556 2658 
Q 2803 2488 2931 2205 
Q 3059 1922 3059 1600 
L 3066 1172 
Q 3284 1475 3436 1801 
Q 3588 2128 3669 2478 
Q 3681 2516 3719 2516 
L 3794 2516 
Q 3853 2516 3853 2456 
Q 3853 2450 3847 2438 
Q 3772 2144 3659 1873 
Q 3547 1603 3395 1350 
Q 3244 1097 3066 891 
Q 3066 97 3250 97 
Q 3369 97 3445 167 
Q 3522 238 3580 341 
Q 3638 444 3653 447 
L 3731 447 
Q 3781 447 3781 384 
Q 3781 225 3598 76 
Q 3416 -72 3238 -72 
Q 3006 -72 2853 78 
Q 2700 228 2644 469 
Q 2344 213 1994 70 
Q 1644 -72 1288 -72 
z
M 1300 97 
Q 1984 97 2613 659 
Q 2609 697 2603 751 
Q 2597 806 2597 813 
L 2597 1503 
Q 2597 2663 1972 2663 
Q 1597 2663 1315 2342 
Q 1034 2022 892 1576 
Q 750 1131 750 763 
Q 750 484 892 290 
Q 1034 97 1300 97 
z
" transform="scale(0.015625)"/>
      <path id="Cmr10-3d" d="M 481 850 
Q 428 850 393 890 
Q 359 931 359 978 
Q 359 1031 393 1068 
Q 428 1106 481 1106 
L 4500 1106 
Q 4547 1106 4581 1068 
Q 4616 1031 4616 978 
Q 4616 931 4581 890 
Q 4547 850 4500 850 
L 481 850 
z
M 481 2094 
Q 428 2094 393 2131 
Q 359 2169 359 2222 
Q 359 2269 393 2309 
Q 428 2350 481 2350 
L 4500 2350 
Q 4547 2350 4581 2309 
Q 4616 2269 4616 2222 
Q 4616 2169 4581 2131 
Q 4547 2094 4500 2094 
L 481 2094 
z
" transform="scale(0.015625)"/>
      <path id="Cmex10-70" d="M 2713 -7425 
L 1269 -4063 
L 819 -4409 
L 703 -4294 
L 1619 -3584 
L 2969 -6725 
L 6291 197 
Q 6322 256 6400 256 
Q 6453 256 6490 218 
Q 6528 181 6528 128 
Q 6528 97 6522 84 
L 2950 -7366 
Q 2925 -7425 2853 -7425 
L 2713 -7425 
z
" transform="scale(0.015625)"/>
      <path id="Cmr10-31" d="M 594 0 
L 594 225 
Q 1394 225 1394 428 
L 1394 3788 
Q 1063 3628 556 3628 
L 556 3853 
Q 1341 3853 1741 4263 
L 1831 4263 
Q 1853 4263 1873 4245 
Q 1894 4228 1894 4206 
L 1894 428 
Q 1894 225 2694 225 
L 2694 0 
L 594 0 
z
" transform="scale(0.015625)"/>
      <path id="Cmr10-30" d="M 1600 -141 
Q 816 -141 533 504 
Q 250 1150 250 2041 
Q 250 2597 351 3087 
Q 453 3578 754 3920 
Q 1056 4263 1600 4263 
Q 2022 4263 2290 4056 
Q 2559 3850 2700 3523 
Q 2841 3197 2892 2823 
Q 2944 2450 2944 2041 
Q 2944 1491 2842 1011 
Q 2741 531 2444 195 
Q 2147 -141 1600 -141 
z
M 1600 25 
Q 1956 25 2131 390 
Q 2306 756 2347 1200 
Q 2388 1644 2388 2144 
Q 2388 2625 2347 3031 
Q 2306 3438 2132 3767 
Q 1959 4097 1600 4097 
Q 1238 4097 1063 3765 
Q 888 3434 847 3029 
Q 806 2625 806 2144 
Q 806 1788 823 1472 
Q 841 1156 916 820 
Q 991 484 1158 254 
Q 1325 25 1600 25 
z
" transform="scale(0.015625)"/>
      <path id="Cmex10-ae" d="M 500 -7297 
Q 500 -7263 513 -7250 
L 2119 -3584 
L 513 84 
Q 500 97 500 128 
Q 500 175 537 215 
Q 575 256 628 256 
Q 703 256 750 178 
L 2381 -3541 
Q 2388 -3553 2388 -3584 
Q 2388 -3616 2381 -3634 
L 750 -7347 
Q 700 -7425 628 -7425 
Q 575 -7425 537 -7384 
Q 500 -7344 500 -7297 
z
" transform="scale(0.015625)"/>
      <path id="STIXGeneral-Regular-2c" d="M 531 -902 
L 467 -781 
Q 998 -422 998 -96 
Q 998 -13 909 -13 
Q 883 -13 822 -25 
Q 762 -38 723 -38 
Q 352 -38 352 288 
Q 352 454 457 553 
Q 563 653 736 653 
Q 954 653 1101 496 
Q 1248 339 1248 96 
Q 1248 -198 1053 -473 
Q 858 -749 531 -902 
z
" transform="scale(0.015625)"/>
      <path id="Cmmi10-55" d="M 941 891 
Q 941 656 1033 472 
Q 1125 288 1300 186 
Q 1475 84 1709 84 
Q 1984 84 2245 196 
Q 2506 309 2715 509 
Q 2925 709 3073 965 
Q 3222 1222 3284 1472 
L 3859 3781 
Q 3872 3850 3872 3878 
Q 3872 4147 3378 4147 
Q 3316 4147 3316 4231 
Q 3338 4313 3350 4342 
Q 3363 4372 3425 4372 
L 4813 4372 
Q 4841 4372 4859 4344 
Q 4878 4316 4878 4288 
Q 4878 4284 4865 4239 
Q 4853 4194 4836 4170 
Q 4819 4147 4794 4147 
Q 4181 4147 4084 3756 
L 3506 1447 
Q 3434 1147 3264 864 
Q 3094 581 2845 351 
Q 2597 122 2298 -9 
Q 2000 -141 1691 -141 
Q 1338 -141 1045 14 
Q 753 169 587 447 
Q 422 725 422 1088 
Q 422 1297 469 1472 
L 1088 3956 
Q 1100 4019 1100 4044 
Q 1100 4113 1025 4122 
Q 903 4147 563 4147 
Q 500 4147 500 4231 
Q 522 4313 534 4342 
Q 547 4372 609 4372 
L 2328 4372 
Q 2394 4372 2394 4288 
Q 2391 4272 2381 4234 
Q 2372 4197 2356 4172 
Q 2341 4147 2309 4147 
Q 1919 4147 1766 4103 
Q 1681 4072 1644 3928 
L 1025 1447 
Q 941 1109 941 891 
z
" transform="scale(0.015625)"/>
      <path id="Cmmi10-b0" d="M 1888 -1253 
Q 1888 -1109 1952 -834 
Q 2016 -559 2108 -248 
Q 2200 63 2266 263 
Q 2291 581 2291 744 
Q 2291 1156 2209 1511 
Q 2128 1866 1903 2105 
Q 1678 2344 1275 2344 
Q 1063 2344 852 2253 
Q 641 2163 489 2000 
Q 338 1838 281 1631 
Q 269 1594 231 1594 
L 153 1594 
Q 103 1594 103 1650 
L 103 1672 
Q 175 1959 358 2226 
Q 541 2494 805 2661 
Q 1069 2828 1363 2828 
Q 1663 2828 1881 2625 
Q 2100 2422 2231 2109 
Q 2363 1797 2420 1478 
Q 2478 1159 2478 878 
Q 2800 1753 3200 2534 
L 3297 2741 
Q 3316 2759 3341 2759 
L 3419 2759 
Q 3469 2759 3469 2700 
Q 3469 2688 3456 2663 
L 3359 2463 
Q 3081 1909 2848 1340 
Q 2616 772 2450 244 
Q 2425 28 2354 -347 
Q 2284 -722 2184 -1045 
Q 2084 -1369 1984 -1381 
Q 1888 -1381 1888 -1253 
z
" transform="scale(0.015625)"/>
      <path id="STIXGeneral-Regular-29" d="M 186 4224 
L 262 4326 
Q 992 3891 1408 3148 
Q 1824 2406 1824 1581 
Q 1824 -166 243 -1133 
L 186 -1030 
Q 845 -486 1059 54 
Q 1274 595 1274 1562 
Q 1274 2534 1059 3120 
Q 845 3706 186 4224 
z
" transform="scale(0.015625)"/>
     </defs>
     <use xlink:href="#STIXGeneral-Regular-56" transform="translate(0 0.15625)"/>
     <use xlink:href="#STIXGeneral-Regular-61" transform="translate(72.199982 0.15625)"/>
     <use xlink:href="#STIXGeneral-Regular-72" transform="translate(116.599976 0.15625)"/>
     <use xlink:href="#STIXGeneral-Regular-69" transform="translate(149.899963 0.15625)"/>
     <use xlink:href="#STIXGeneral-Regular-61" transform="translate(177.699951 0.15625)"/>
     <use xlink:href="#STIXGeneral-Regular-6e" transform="translate(222.099945 0.15625)"/>
     <use xlink:href="#STIXGeneral-Regular-63" transform="translate(272.09993 0.15625)"/>
     <use xlink:href="#STIXGeneral-Regular-65" transform="translate(316.499924 0.15625)"/>
     <use xlink:href="#STIXGeneral-Regular-20" transform="translate(360.899918 0.15625)"/>
     <use xlink:href="#STIXGeneral-Regular-44" transform="translate(385.899902 0.15625)"/>
     <use xlink:href="#STIXGeneral-Regular-69" transform="translate(458.099884 0.15625)"/>
     <use xlink:href="#STIXGeneral-Regular-66" transform="translate(485.899872 0.15625)"/>
     <use xlink:href="#STIXGeneral-Regular-66" transform="translate(519.19986 0.15625)"/>
     <use xlink:href="#STIXGeneral-Regular-65" transform="translate(552.499847 0.15625)"/>
     <use xlink:href="#STIXGeneral-Regular-72" transform="translate(596.899841 0.15625)"/>
     <use xlink:href="#STIXGeneral-Regular-65" transform="translate(630.199829 0.15625)"/>
     <use xlink:href="#STIXGeneral-Regular-6e" transform="translate(674.599823 0.15625)"/>
     <use xlink:href="#STIXGeneral-Regular-63" transform="translate(724.599808 0.15625)"/>
     <use xlink:href="#STIXGeneral-Regular-65" transform="translate(768.999802 0.15625)"/>
     <use xlink:href="#STIXGeneral-Regular-20" transform="translate(813.399796 0.15625)"/>
     <use xlink:href="#STIXGeneral-Regular-76" transform="translate(838.39978 0.15625)"/>
     <use xlink:href="#STIXGeneral-Regular-73" transform="translate(888.399765 0.15625)"/>
     <use xlink:href="#STIXGeneral-Regular-20" transform="translate(927.299759 0.15625)"/>
     <use xlink:href="#STIXGeneral-Regular-54" transform="translate(952.299744 0.15625)"/>
     <use xlink:href="#STIXGeneral-Regular-69" transform="translate(1013.399734 0.15625)"/>
     <use xlink:href="#STIXGeneral-Regular-6d" transform="translate(1041.199722 0.15625)"/>
     <use xlink:href="#STIXGeneral-Regular-65" transform="translate(1118.99971 0.15625)"/>
     <use xlink:href="#STIXGeneral-Regular-20" transform="translate(1163.399704 0.15625)"/>
     <use xlink:href="#STIXGeneral-Regular-28" transform="translate(1188.399689 0.15625)"/>
     <use xlink:href="#Cmsy10-6a" transform="translate(1221.699677 0.15625)"/>
     <use xlink:href="#Cmmi10-ae" transform="translate(1249.385223 0.15625)"/>
     <use xlink:href="#Cmr10-3d" transform="translate(1330.859833 0.15625)"/>
     <use xlink:href="#Cmex10-70" transform="translate(1426.103973 94.65625) scale(0.833746)"/>
     <use xlink:href="#Cmr10-31" transform="translate(1521.963348 0.140625)"/>
     <use xlink:href="#Cmr10-30" transform="translate(1571.963348 0.140625)"/>
     <use xlink:href="#Cmex10-ae" transform="translate(1634.463348 93.497396)"/>
     <use xlink:href="#STIXGeneral-Regular-2c" transform="translate(1681.680145 0.15625)"/>
     <use xlink:href="#STIXGeneral-Regular-20" transform="translate(1706.68013 0.15625)"/>
     <use xlink:href="#Cmmi10-55" transform="translate(1731.680115 0.15625)"/>
     <use xlink:href="#Cmr10-3d" transform="translate(1817.451599 0.15625)"/>
     <use xlink:href="#Cmr10-30" transform="translate(1912.69574 0.15625)"/>
     <use xlink:href="#STIXGeneral-Regular-2c" transform="translate(1962.69574 0.15625)"/>
     <use xlink:href="#STIXGeneral-Regular-20" transform="translate(1987.695724 0.15625)"/>
     <use xlink:href="#Cmmi10-b0" transform="translate(2012.695709 0.15625)"/>
     <use xlink:href="#Cmr10-3d" transform="translate(2081.963287 0.15625)"/>
     <use xlink:href="#Cmr10-31" transform="translate(2177.207428 0.15625)"/>
     <use xlink:href="#STIXGeneral-Regular-29" transform="translate(2227.207428 0.15625)"/>
     <path d="M 1509.463348 91.5 
L 1509.463348 97.75 
L 1634.463348 97.75 
L 1634.463348 91.5 
L 1509.463348 91.5 
z
"/>
    </g>
   </g>
   <g id="line2d_129">
    <path d="M 72.002727 301.424 
L 74.894182 282.709685 
L 77.861727 264.908761 
L 80.829273 248.425938 
L 83.796818 233.162984 
L 86.764364 219.029016 
L 89.731909 205.93994 
L 92.775545 193.519197 
L 95.819182 182.038203 
L 98.862818 171.425299 
L 101.906455 161.614315 
L 104.950091 152.544146 
L 107.993727 144.158373 
L 111.037364 136.404877 
L 114.157091 129.063401 
L 117.276818 122.287855 
L 120.396545 116.034172 
L 123.592364 110.126625 
L 126.788182 104.683887 
L 130.060091 99.554488 
L 133.332 94.837051 
L 136.68 90.401421 
L 140.028 86.329155 
L 143.452091 82.508759 
L 146.952273 78.932945 
L 150.528545 75.593845 
L 154.257 72.421524 
L 158.061545 69.478711 
L 161.942182 66.75513 
L 165.975 64.194 
L 170.16 61.797274 
L 174.573273 59.52882 
L 179.138727 57.431981 
L 183.932455 55.47316 
L 189.030545 53.631752 
L 194.433 51.918817 
L 200.215909 50.322331 
L 206.379273 48.853597 
L 213.075273 47.490582 
L 220.303909 46.249072 
L 228.217364 45.118002 
L 236.967818 44.093888 
L 246.783545 43.172628 
L 257.968909 42.352713 
L 270.904364 41.635134 
L 286.122545 41.021623 
L 304.612636 40.508174 
L 327.896455 40.094277 
L 359.169818 39.77453 
L 404.976545 39.54717 
L 452.457273 39.442826 
L 452.457273 39.442826 
" clip-path="url(#pf6e25fa035)" style="fill: none; stroke: #1f77b4; stroke-width: 2.6; stroke-linecap: square"/>
   </g>
   <g id="legend_1">
    <g id="line2d_130">
     <path d="M 363.865625 267.205656 
L 374.865625 267.205656 
L 385.865625 267.205656 
" style="fill: none; stroke: #1f77b4; stroke-width: 2.6; stroke-linecap: square"/>
    </g>
    <g id="text_17">
     <!-- Density Matrix -->
     <g transform="translate(394.665625 271.055656) scale(0.11 -0.11)">
      <defs>
       <path id="STIXGeneral-Regular-79" d="M 3040 2880 
L 3040 2784 
Q 2925 2771 2854 2700 
Q 2784 2630 2720 2458 
L 1760 -160 
Q 1510 -838 1257 -1116 
Q 1005 -1395 640 -1395 
Q 435 -1395 313 -1289 
Q 192 -1184 192 -1024 
Q 192 -902 272 -816 
Q 352 -730 467 -730 
Q 653 -730 800 -813 
Q 883 -858 966 -858 
Q 1101 -858 1286 -576 
Q 1376 -448 1459 -211 
Q 1542 26 1542 115 
Q 1542 198 1274 762 
L 429 2566 
Q 346 2752 90 2790 
L 90 2880 
L 1402 2880 
L 1402 2784 
Q 1197 2778 1117 2739 
Q 1037 2701 1037 2611 
Q 1037 2541 1120 2349 
L 1837 749 
L 2458 2515 
Q 2483 2573 2483 2630 
Q 2483 2784 2189 2784 
L 2189 2880 
L 3040 2880 
z
" transform="scale(0.015625)"/>
       <path id="STIXGeneral-Regular-4d" d="M 5530 0 
L 3738 0 
L 3738 122 
Q 4115 147 4214 265 
Q 4314 384 4314 787 
L 4314 3661 
L 2682 0 
L 2592 0 
L 979 3514 
L 979 966 
Q 979 448 1088 294 
Q 1197 141 1574 122 
L 1574 0 
L 77 0 
L 77 122 
Q 358 141 480 205 
Q 602 269 650 432 
Q 698 595 698 966 
L 698 3514 
Q 698 3878 589 3984 
Q 480 4090 90 4115 
L 90 4237 
L 1357 4237 
L 2835 1024 
L 4250 4237 
L 5523 4237 
L 5523 4115 
Q 5178 4109 5072 3993 
Q 4966 3878 4966 3520 
L 4966 717 
Q 4966 378 5072 262 
Q 5178 147 5530 122 
L 5530 0 
z
" transform="scale(0.015625)"/>
      </defs>
      <use xlink:href="#STIXGeneral-Regular-44"/>
      <use xlink:href="#STIXGeneral-Regular-65" transform="translate(72.199982 0)"/>
      <use xlink:href="#STIXGeneral-Regular-6e" transform="translate(116.599976 0)"/>
      <use xlink:href="#STIXGeneral-Regular-73" transform="translate(166.59996 0)"/>
      <use xlink:href="#STIXGeneral-Regular-69" transform="translate(205.499954 0)"/>
      <use xlink:href="#STIXGeneral-Regular-74" transform="translate(233.299942 0)"/>
      <use xlink:href="#STIXGeneral-Regular-79" transform="translate(261.09993 0)"/>
      <use xlink:href="#STIXGeneral-Regular-20" transform="translate(311.099915 0)"/>
      <use xlink:href="#STIXGeneral-Regular-4d" transform="translate(336.099899 0)"/>
      <use xlink:href="#STIXGeneral-Regular-61" transform="translate(424.999893 0)"/>
      <use xlink:href="#STIXGeneral-Regular-74" transform="translate(469.399887 0)"/>
      <use xlink:href="#STIXGeneral-Regular-72" transform="translate(497.199875 0)"/>
      <use xlink:href="#STIXGeneral-Regular-69" transform="translate(530.499863 0)"/>
      <use xlink:href="#STIXGeneral-Regular-78" transform="translate(558.29985 0)"/>
     </g>
    </g>
    <g id="line2d_131">
     <path d="M 363.865625 282.803312 
L 374.865625 282.803312 
L 385.865625 282.803312 
" style="fill: none; stroke: #ff7f0e; stroke-width: 2.5; stroke-linecap: square"/>
    </g>
    <g id="text_18">
     <!-- Monte Carlo -->
     <g transform="translate(394.665625 286.653312) scale(0.11 -0.11)">
      <defs>
       <path id="STIXGeneral-Regular-43" d="M 3930 838 
L 4051 723 
Q 3482 -90 2304 -90 
Q 1376 -90 794 480 
Q 179 1082 179 2080 
Q 179 3014 755 3661 
Q 1357 4326 2310 4326 
Q 2720 4326 3072 4230 
Q 3475 4115 3514 4115 
Q 3725 4115 3782 4326 
L 3910 4326 
L 3968 2874 
L 3821 2874 
Q 3718 3334 3488 3584 
Q 3034 4070 2458 4070 
Q 1747 4070 1334 3548 
Q 922 3027 922 2182 
Q 922 1152 1382 653 
Q 1811 192 2522 192 
Q 2944 192 3251 339 
Q 3558 486 3930 838 
z
" transform="scale(0.015625)"/>
       <path id="STIXGeneral-Regular-6c" d="M 1645 0 
L 134 0 
L 134 96 
Q 435 122 531 221 
Q 627 320 627 589 
L 627 3590 
Q 627 3821 569 3910 
Q 512 4000 358 4000 
Q 224 4000 122 3987 
L 122 4090 
Q 730 4237 1133 4371 
L 1165 4346 
L 1165 557 
Q 1165 288 1254 201 
Q 1344 115 1645 96 
L 1645 0 
z
" transform="scale(0.015625)"/>
      </defs>
      <use xlink:href="#STIXGeneral-Regular-4d"/>
      <use xlink:href="#STIXGeneral-Regular-6f" transform="translate(88.899994 0)"/>
      <use xlink:href="#STIXGeneral-Regular-6e" transform="translate(138.899979 0)"/>
      <use xlink:href="#STIXGeneral-Regular-74" transform="translate(188.899963 0)"/>
      <use xlink:href="#STIXGeneral-Regular-65" transform="translate(216.699951 0)"/>
      <use xlink:href="#STIXGeneral-Regular-20" transform="translate(261.099945 0)"/>
      <use xlink:href="#STIXGeneral-Regular-43" transform="translate(286.09993 0)"/>
      <use xlink:href="#STIXGeneral-Regular-61" transform="translate(352.799927 0)"/>
      <use xlink:href="#STIXGeneral-Regular-72" transform="translate(397.199921 0)"/>
      <use xlink:href="#STIXGeneral-Regular-6c" transform="translate(430.499908 0)"/>
      <use xlink:href="#STIXGeneral-Regular-6f" transform="translate(458.299896 0)"/>
     </g>
    </g>
    <g id="line2d_132">
     <path d="M 363.865625 298.390656 
L 374.865625 298.390656 
L 385.865625 298.390656 
" style="fill: none; stroke: #2ca02c; stroke-width: 2.7; stroke-linecap: square"/>
    </g>
    <g id="text_19">
     <!-- Positive-P -->
     <g transform="translate(394.665625 302.240656) scale(0.11 -0.11)">
      <defs>
       <path id="STIXGeneral-Regular-50" d="M 102 4237 
L 1760 4237 
Q 2669 4237 3149 3834 
Q 3469 3565 3469 3072 
Q 3469 2560 3104 2234 
Q 2835 1990 2553 1916 
Q 2272 1843 1734 1843 
Q 1549 1843 1293 1862 
L 1293 717 
Q 1293 352 1398 246 
Q 1504 141 1894 122 
L 1894 0 
L 102 0 
L 102 122 
Q 474 147 557 256 
Q 640 365 640 781 
L 640 3526 
Q 640 3885 547 3987 
Q 454 4090 102 4115 
L 102 4237 
z
M 1293 3770 
L 1293 2118 
Q 1510 2099 1683 2099 
Q 2202 2099 2486 2352 
Q 2771 2605 2771 3040 
Q 2771 3558 2476 3779 
Q 2182 4000 1517 4000 
Q 1382 4000 1337 3952 
Q 1293 3904 1293 3770 
z
" transform="scale(0.015625)"/>
       <path id="STIXGeneral-Regular-2d" d="M 1824 1242 
L 250 1242 
L 250 1645 
L 1824 1645 
L 1824 1242 
z
" transform="scale(0.015625)"/>
      </defs>
      <use xlink:href="#STIXGeneral-Regular-50"/>
      <use xlink:href="#STIXGeneral-Regular-6f" transform="translate(55.699997 0)"/>
      <use xlink:href="#STIXGeneral-Regular-73" transform="translate(105.699982 0)"/>
      <use xlink:href="#STIXGeneral-Regular-69" transform="translate(144.599976 0)"/>
      <use xlink:href="#STIXGeneral-Regular-74" transform="translate(172.399963 0)"/>
      <use xlink:href="#STIXGeneral-Regular-69" transform="translate(200.199951 0)"/>
      <use xlink:href="#STIXGeneral-Regular-76" transform="translate(227.999939 0)"/>
      <use xlink:href="#STIXGeneral-Regular-65" transform="translate(277.999924 0)"/>
      <use xlink:href="#STIXGeneral-Regular-2d" transform="translate(322.399918 0)"/>
      <use xlink:href="#STIXGeneral-Regular-50" transform="translate(355.699905 0)"/>
     </g>
    </g>
   </g>
  </g>
 </g>
 <defs>
  <clipPath id="pf6e25fa035">
   <rect x="52.98" y="26.24" width="418.5" height="288.288"/>
  </clipPath>
 </defs>
</svg>
