<?xml version="1.0" encoding="utf-8" standalone="no"?>
<!DOCTYPE svg PUBLIC "-//W3C//DTD SVG 1.1//EN"
  "http://www.w3.org/Graphics/SVG/1.1/DTD/svg11.dtd">
<svg xmlns:xlink="http://www.w3.org/1999/xlink" width="510.99pt" height="349.028pt" viewBox="0 0 510.99 349.028" xmlns="http://www.w3.org/2000/svg" version="1.1">
 <metadata>
  <rdf:RDF xmlns:dc="http://purl.org/dc/elements/1.1/" xmlns:cc="http://creativecommons.org/ns#" xmlns:rdf="http://www.w3.org/1999/02/22-rdf-syntax-ns#">
   <cc:Work>
    <dc:type rdf:resource="http://purl.org/dc/dcmitype/StillImage"/>
    <dc:date>2026-04-18T18:09:41.589406</dc:date>
    <dc:format>image/svg+xml</dc:format>
    <dc:creator>
     <cc:Agent>
      <dc:title>Matplotlib v3.10.8, https://matplotlib.org/</dc:title>
     </cc:Agent>
    </dc:creator>
   </cc:Work>
  </rdf:RDF>
 </metadata>
 <defs>
  <style type="text/css">*{stroke-linejoin: round; stroke-linecap: butt}</style>
 </defs>
 <g id="figure_1">
  <g id="patch_1">
   <path d="M 0 349.028 
L 510.99 349.028 
L 510.99 0 
L 0 0 
z
" style="fill: #ffffff"/>
  </g>
  <g id="axes_1">
   <g id="patch_2">
    <path d="M 60.38 314.528 
L 478.88 314.528 
L 478.88 26.24 
L 60.38 26.24 
z
" style="fill: #ffffff"/>
   </g>
   <g id="matplotlib.axis_1">
    <g id="xtick_1">
     <g id="line2d_1">
      <path d="M 79.402727 314.528 
L 79.402727 26.24 
" clip-path="url(#p00ae8ea843)" style="fill: none; stroke: #b0b0b0; stroke-opacity: 0.35; stroke-width: 0.5; stroke-linecap: square"/>
     </g>
     <g id="line2d_2">
      <defs>
       <path id="mf99b57352b" d="M 0 0 
L 0 -3 
" style="stroke: #000000; stroke-width: 0.5"/>
      </defs>
      <g>
       <use xlink:href="#mf99b57352b" x="79.402727" y="314.528" style="stroke: #000000; stroke-width: 0.5"/>
      </g>
     </g>
     <g id="line2d_3">
      <defs>
       <path id="m55745c29fd" d="M 0 0 
L 0 3 
" style="stroke: #000000; stroke-width: 0.5"/>
      </defs>
      <g>
       <use xlink:href="#m55745c29fd" x="79.402727" y="26.24" style="stroke: #000000; stroke-width: 0.5"/>
      </g>
     </g>
     <g id="text_1">
      <!-- $\mathdefault{0}$ -->
      <g transform="translate(76.402727 326.223625) scale(0.12 -0.12)">
       <defs>
        <path id="STIXGeneral-Regular-30" d="M 3046 2112 
Q 3046 1683 2963 1302 
Q 2880 922 2717 602 
Q 2554 282 2266 96 
Q 1978 -90 1600 -90 
Q 1210 -90 915 108 
Q 621 307 461 640 
Q 301 973 227 1350 
Q 154 1728 154 2150 
Q 154 2746 301 3222 
Q 448 3699 790 4012 
Q 1133 4326 1626 4326 
Q 2253 4326 2649 3712 
Q 3046 3098 3046 2112 
z
M 2432 2080 
Q 2432 3091 2217 3625 
Q 2003 4160 1587 4160 
Q 1190 4160 979 3622 
Q 768 3085 768 2106 
Q 768 1120 979 598 
Q 1190 77 1600 77 
Q 2003 77 2217 598 
Q 2432 1120 2432 2080 
z
" transform="scale(0.015625)"/>
       </defs>
       <use xlink:href="#STIXGeneral-Regular-30" transform="translate(0 0.40625)"/>
      </g>
     </g>
    </g>
    <g id="xtick_2">
     <g id="line2d_4">
      <path d="M 155.493636 314.528 
L 155.493636 26.24 
" clip-path="url(#p00ae8ea843)" style="fill: none; stroke: #b0b0b0; stroke-opacity: 0.35; stroke-width: 0.5; stroke-linecap: square"/>
     </g>
     <g id="line2d_5">
      <g>
       <use xlink:href="#mf99b57352b" x="155.493636" y="314.528" style="stroke: #000000; stroke-width: 0.5"/>
      </g>
     </g>
     <g id="line2d_6">
      <g>
       <use xlink:href="#m55745c29fd" x="155.493636" y="26.24" style="stroke: #000000; stroke-width: 0.5"/>
      </g>
     </g>
     <g id="text_2">
      <!-- $\mathdefault{1}$ -->
      <g transform="translate(152.493636 326.223625) scale(0.12 -0.12)">
       <defs>
        <path id="STIXGeneral-Regular-31" d="M 2522 0 
L 755 0 
L 755 96 
Q 1107 115 1235 227 
Q 1363 339 1363 608 
L 1363 3482 
Q 1363 3795 1171 3795 
Q 1082 3795 883 3718 
L 710 3654 
L 710 3744 
L 1856 4326 
L 1914 4307 
L 1914 486 
Q 1914 275 2042 185 
Q 2170 96 2522 96 
L 2522 0 
z
" transform="scale(0.015625)"/>
       </defs>
       <use xlink:href="#STIXGeneral-Regular-31" transform="translate(0 0.40625)"/>
      </g>
     </g>
    </g>
    <g id="xtick_3">
     <g id="line2d_7">
      <path d="M 231.584545 314.528 
L 231.584545 26.24 
" clip-path="url(#p00ae8ea843)" style="fill: none; stroke: #b0b0b0; stroke-opacity: 0.35; stroke-width: 0.5; stroke-linecap: square"/>
     </g>
     <g id="line2d_8">
      <g>
       <use xlink:href="#mf99b57352b" x="231.584545" y="314.528" style="stroke: #000000; stroke-width: 0.5"/>
      </g>
     </g>
     <g id="line2d_9">
      <g>
       <use xlink:href="#m55745c29fd" x="231.584545" y="26.24" style="stroke: #000000; stroke-width: 0.5"/>
      </g>
     </g>
     <g id="text_3">
      <!-- $\mathdefault{2}$ -->
      <g transform="translate(228.584545 326.223625) scale(0.12 -0.12)">
       <defs>
        <path id="STIXGeneral-Regular-32" d="M 3034 877 
L 2688 0 
L 186 0 
L 186 77 
L 1325 1286 
Q 1773 1754 1965 2144 
Q 2157 2534 2157 2950 
Q 2157 3379 1920 3616 
Q 1683 3853 1267 3853 
Q 922 3853 720 3673 
Q 518 3494 326 3021 
L 192 3053 
Q 301 3648 630 3987 
Q 960 4326 1523 4326 
Q 2054 4326 2380 4006 
Q 2707 3686 2707 3200 
Q 2707 2477 1888 1613 
L 832 486 
L 2330 486 
Q 2541 486 2665 569 
Q 2790 653 2944 915 
L 3034 877 
z
" transform="scale(0.015625)"/>
       </defs>
       <use xlink:href="#STIXGeneral-Regular-32" transform="translate(0 0.40625)"/>
      </g>
     </g>
    </g>
    <g id="xtick_4">
     <g id="line2d_10">
      <path d="M 307.675455 314.528 
L 307.675455 26.24 
" clip-path="url(#p00ae8ea843)" style="fill: none; stroke: #b0b0b0; stroke-opacity: 0.35; stroke-width: 0.5; stroke-linecap: square"/>
     </g>
     <g id="line2d_11">
      <g>
       <use xlink:href="#mf99b57352b" x="307.675455" y="314.528" style="stroke: #000000; stroke-width: 0.5"/>
      </g>
     </g>
     <g id="line2d_12">
      <g>
       <use xlink:href="#m55745c29fd" x="307.675455" y="26.24" style="stroke: #000000; stroke-width: 0.5"/>
      </g>
     </g>
     <g id="text_4">
      <!-- $\mathdefault{3}$ -->
      <g transform="translate(304.675455 326.223625) scale(0.12 -0.12)">
       <defs>
        <path id="STIXGeneral-Regular-33" d="M 390 3264 
L 288 3290 
Q 435 3770 748 4048 
Q 1062 4326 1542 4326 
Q 1990 4326 2265 4083 
Q 2541 3840 2541 3450 
Q 2541 2925 1946 2566 
Q 2298 2413 2477 2227 
Q 2758 1914 2758 1402 
Q 2758 890 2464 506 
Q 2246 211 1840 60 
Q 1434 -90 979 -90 
Q 262 -90 262 275 
Q 262 378 339 442 
Q 416 506 525 506 
Q 685 506 915 339 
Q 1197 141 1466 141 
Q 1818 141 2058 425 
Q 2298 710 2298 1120 
Q 2298 1856 1632 2048 
Q 1434 2112 979 2112 
L 979 2202 
Q 1338 2323 1517 2432 
Q 2035 2726 2035 3290 
Q 2035 3610 1852 3776 
Q 1670 3942 1344 3942 
Q 768 3942 390 3264 
z
" transform="scale(0.015625)"/>
       </defs>
       <use xlink:href="#STIXGeneral-Regular-33" transform="translate(0 0.40625)"/>
      </g>
     </g>
    </g>
    <g id="xtick_5">
     <g id="line2d_13">
      <path d="M 383.766364 314.528 
L 383.766364 26.24 
" clip-path="url(#p00ae8ea843)" style="fill: none; stroke: #b0b0b0; stroke-opacity: 0.35; stroke-width: 0.5; stroke-linecap: square"/>
     </g>
     <g id="line2d_14">
      <g>
       <use xlink:href="#mf99b57352b" x="383.766364" y="314.528" style="stroke: #000000; stroke-width: 0.5"/>
      </g>
     </g>
     <g id="line2d_15">
      <g>
       <use xlink:href="#m55745c29fd" x="383.766364" y="26.24" style="stroke: #000000; stroke-width: 0.5"/>
      </g>
     </g>
     <g id="text_5">
      <!-- $\mathdefault{4}$ -->
      <g transform="translate(380.766364 326.223625) scale(0.12 -0.12)">
       <defs>
        <path id="STIXGeneral-Regular-34" d="M 3027 1069 
L 2368 1069 
L 2368 0 
L 1869 0 
L 1869 1069 
L 77 1069 
L 77 1478 
L 2086 4326 
L 2368 4326 
L 2368 1478 
L 3027 1478 
L 3027 1069 
z
M 1869 1478 
L 1869 3674 
L 333 1478 
L 1869 1478 
z
" transform="scale(0.015625)"/>
       </defs>
       <use xlink:href="#STIXGeneral-Regular-34" transform="translate(0 0.40625)"/>
      </g>
     </g>
    </g>
    <g id="xtick_6">
     <g id="line2d_16">
      <path d="M 459.857273 314.528 
L 459.857273 26.24 
" clip-path="url(#p00ae8ea843)" style="fill: none; stroke: #b0b0b0; stroke-opacity: 0.35; stroke-width: 0.5; stroke-linecap: square"/>
     </g>
     <g id="line2d_17">
      <g>
       <use xlink:href="#mf99b57352b" x="459.857273" y="314.528" style="stroke: #000000; stroke-width: 0.5"/>
      </g>
     </g>
     <g id="line2d_18">
      <g>
       <use xlink:href="#m55745c29fd" x="459.857273" y="26.24" style="stroke: #000000; stroke-width: 0.5"/>
      </g>
     </g>
     <g id="text_6">
      <!-- $\mathdefault{5}$ -->
      <g transform="translate(456.857273 326.223625) scale(0.12 -0.12)">
       <defs>
        <path id="STIXGeneral-Regular-35" d="M 2803 4358 
L 2573 3814 
Q 2534 3731 2400 3731 
L 1158 3731 
L 902 3187 
Q 1606 3053 1920 2896 
Q 2234 2739 2502 2368 
Q 2726 2061 2726 1555 
Q 2726 1094 2576 780 
Q 2426 467 2099 224 
Q 1664 -90 1011 -90 
Q 646 -90 422 19 
Q 198 128 198 307 
Q 198 550 486 550 
Q 717 550 960 352 
Q 1210 147 1414 147 
Q 1747 147 2012 480 
Q 2278 813 2278 1229 
Q 2278 1843 1850 2189 
Q 1293 2637 486 2637 
Q 410 2637 410 2688 
L 416 2720 
L 1114 4237 
L 2438 4237 
Q 2547 4237 2608 4269 
Q 2669 4301 2746 4403 
L 2803 4358 
z
" transform="scale(0.015625)"/>
       </defs>
       <use xlink:href="#STIXGeneral-Regular-35" transform="translate(0 0.203125)"/>
      </g>
     </g>
    </g>
    <g id="xtick_7">
     <g id="line2d_19">
      <defs>
       <path id="m6b0c9725a7" d="M 0 0 
L 0 -1.5 
" style="stroke: #000000; stroke-width: 0.5"/>
      </defs>
      <g>
       <use xlink:href="#m6b0c9725a7" x="64.184545" y="314.528" style="stroke: #000000; stroke-width: 0.5"/>
      </g>
     </g>
     <g id="line2d_20">
      <defs>
       <path id="m78e0d3d532" d="M 0 0 
L 0 1.5 
" style="stroke: #000000; stroke-width: 0.5"/>
      </defs>
      <g>
       <use xlink:href="#m78e0d3d532" x="64.184545" y="26.24" style="stroke: #000000; stroke-width: 0.5"/>
      </g>
     </g>
    </g>
    <g id="xtick_8">
     <g id="line2d_21">
      <g>
       <use xlink:href="#m6b0c9725a7" x="94.620909" y="314.528" style="stroke: #000000; stroke-width: 0.5"/>
      </g>
     </g>
     <g id="line2d_22">
      <g>
       <use xlink:href="#m78e0d3d532" x="94.620909" y="26.24" style="stroke: #000000; stroke-width: 0.5"/>
      </g>
     </g>
    </g>
    <g id="xtick_9">
     <g id="line2d_23">
      <g>
       <use xlink:href="#m6b0c9725a7" x="109.839091" y="314.528" style="stroke: #000000; stroke-width: 0.5"/>
      </g>
     </g>
     <g id="line2d_24">
      <g>
       <use xlink:href="#m78e0d3d532" x="109.839091" y="26.24" style="stroke: #000000; stroke-width: 0.5"/>
      </g>
     </g>
    </g>
    <g id="xtick_10">
     <g id="line2d_25">
      <g>
       <use xlink:href="#m6b0c9725a7" x="125.057273" y="314.528" style="stroke: #000000; stroke-width: 0.5"/>
      </g>
     </g>
     <g id="line2d_26">
      <g>
       <use xlink:href="#m78e0d3d532" x="125.057273" y="26.24" style="stroke: #000000; stroke-width: 0.5"/>
      </g>
     </g>
    </g>
    <g id="xtick_11">
     <g id="line2d_27">
      <g>
       <use xlink:href="#m6b0c9725a7" x="140.275455" y="314.528" style="stroke: #000000; stroke-width: 0.5"/>
      </g>
     </g>
     <g id="line2d_28">
      <g>
       <use xlink:href="#m78e0d3d532" x="140.275455" y="26.24" style="stroke: #000000; stroke-width: 0.5"/>
      </g>
     </g>
    </g>
    <g id="xtick_12">
     <g id="line2d_29">
      <g>
       <use xlink:href="#m6b0c9725a7" x="170.711818" y="314.528" style="stroke: #000000; stroke-width: 0.5"/>
      </g>
     </g>
     <g id="line2d_30">
      <g>
       <use xlink:href="#m78e0d3d532" x="170.711818" y="26.24" style="stroke: #000000; stroke-width: 0.5"/>
      </g>
     </g>
    </g>
    <g id="xtick_13">
     <g id="line2d_31">
      <g>
       <use xlink:href="#m6b0c9725a7" x="185.93" y="314.528" style="stroke: #000000; stroke-width: 0.5"/>
      </g>
     </g>
     <g id="line2d_32">
      <g>
       <use xlink:href="#m78e0d3d532" x="185.93" y="26.24" style="stroke: #000000; stroke-width: 0.5"/>
      </g>
     </g>
    </g>
    <g id="xtick_14">
     <g id="line2d_33">
      <g>
       <use xlink:href="#m6b0c9725a7" x="201.148182" y="314.528" style="stroke: #000000; stroke-width: 0.5"/>
      </g>
     </g>
     <g id="line2d_34">
      <g>
       <use xlink:href="#m78e0d3d532" x="201.148182" y="26.24" style="stroke: #000000; stroke-width: 0.5"/>
      </g>
     </g>
    </g>
    <g id="xtick_15">
     <g id="line2d_35">
      <g>
       <use xlink:href="#m6b0c9725a7" x="216.366364" y="314.528" style="stroke: #000000; stroke-width: 0.5"/>
      </g>
     </g>
     <g id="line2d_36">
      <g>
       <use xlink:href="#m78e0d3d532" x="216.366364" y="26.24" style="stroke: #000000; stroke-width: 0.5"/>
      </g>
     </g>
    </g>
    <g id="xtick_16">
     <g id="line2d_37">
      <g>
       <use xlink:href="#m6b0c9725a7" x="246.802727" y="314.528" style="stroke: #000000; stroke-width: 0.5"/>
      </g>
     </g>
     <g id="line2d_38">
      <g>
       <use xlink:href="#m78e0d3d532" x="246.802727" y="26.24" style="stroke: #000000; stroke-width: 0.5"/>
      </g>
     </g>
    </g>
    <g id="xtick_17">
     <g id="line2d_39">
      <g>
       <use xlink:href="#m6b0c9725a7" x="262.020909" y="314.528" style="stroke: #000000; stroke-width: 0.5"/>
      </g>
     </g>
     <g id="line2d_40">
      <g>
       <use xlink:href="#m78e0d3d532" x="262.020909" y="26.24" style="stroke: #000000; stroke-width: 0.5"/>
      </g>
     </g>
    </g>
    <g id="xtick_18">
     <g id="line2d_41">
      <g>
       <use xlink:href="#m6b0c9725a7" x="277.239091" y="314.528" style="stroke: #000000; stroke-width: 0.5"/>
      </g>
     </g>
     <g id="line2d_42">
      <g>
       <use xlink:href="#m78e0d3d532" x="277.239091" y="26.24" style="stroke: #000000; stroke-width: 0.5"/>
      </g>
     </g>
    </g>
    <g id="xtick_19">
     <g id="line2d_43">
      <g>
       <use xlink:href="#m6b0c9725a7" x="292.457273" y="314.528" style="stroke: #000000; stroke-width: 0.5"/>
      </g>
     </g>
     <g id="line2d_44">
      <g>
       <use xlink:href="#m78e0d3d532" x="292.457273" y="26.24" style="stroke: #000000; stroke-width: 0.5"/>
      </g>
     </g>
    </g>
    <g id="xtick_20">
     <g id="line2d_45">
      <g>
       <use xlink:href="#m6b0c9725a7" x="322.893636" y="314.528" style="stroke: #000000; stroke-width: 0.5"/>
      </g>
     </g>
     <g id="line2d_46">
      <g>
       <use xlink:href="#m78e0d3d532" x="322.893636" y="26.24" style="stroke: #000000; stroke-width: 0.5"/>
      </g>
     </g>
    </g>
    <g id="xtick_21">
     <g id="line2d_47">
      <g>
       <use xlink:href="#m6b0c9725a7" x="338.111818" y="314.528" style="stroke: #000000; stroke-width: 0.5"/>
      </g>
     </g>
     <g id="line2d_48">
      <g>
       <use xlink:href="#m78e0d3d532" x="338.111818" y="26.24" style="stroke: #000000; stroke-width: 0.5"/>
      </g>
     </g>
    </g>
    <g id="xtick_22">
     <g id="line2d_49">
      <g>
       <use xlink:href="#m6b0c9725a7" x="353.33" y="314.528" style="stroke: #000000; stroke-width: 0.5"/>
      </g>
     </g>
     <g id="line2d_50">
      <g>
       <use xlink:href="#m78e0d3d532" x="353.33" y="26.24" style="stroke: #000000; stroke-width: 0.5"/>
      </g>
     </g>
    </g>
    <g id="xtick_23">
     <g id="line2d_51">
      <g>
       <use xlink:href="#m6b0c9725a7" x="368.548182" y="314.528" style="stroke: #000000; stroke-width: 0.5"/>
      </g>
     </g>
     <g id="line2d_52">
      <g>
       <use xlink:href="#m78e0d3d532" x="368.548182" y="26.24" style="stroke: #000000; stroke-width: 0.5"/>
      </g>
     </g>
    </g>
    <g id="xtick_24">
     <g id="line2d_53">
      <g>
       <use xlink:href="#m6b0c9725a7" x="398.984545" y="314.528" style="stroke: #000000; stroke-width: 0.5"/>
      </g>
     </g>
     <g id="line2d_54">
      <g>
       <use xlink:href="#m78e0d3d532" x="398.984545" y="26.24" style="stroke: #000000; stroke-width: 0.5"/>
      </g>
     </g>
    </g>
    <g id="xtick_25">
     <g id="line2d_55">
      <g>
       <use xlink:href="#m6b0c9725a7" x="414.202727" y="314.528" style="stroke: #000000; stroke-width: 0.5"/>
      </g>
     </g>
     <g id="line2d_56">
      <g>
       <use xlink:href="#m78e0d3d532" x="414.202727" y="26.24" style="stroke: #000000; stroke-width: 0.5"/>
      </g>
     </g>
    </g>
    <g id="xtick_26">
     <g id="line2d_57">
      <g>
       <use xlink:href="#m6b0c9725a7" x="429.420909" y="314.528" style="stroke: #000000; stroke-width: 0.5"/>
      </g>
     </g>
     <g id="line2d_58">
      <g>
       <use xlink:href="#m78e0d3d532" x="429.420909" y="26.24" style="stroke: #000000; stroke-width: 0.5"/>
      </g>
     </g>
    </g>
    <g id="xtick_27">
     <g id="line2d_59">
      <g>
       <use xlink:href="#m6b0c9725a7" x="444.639091" y="314.528" style="stroke: #000000; stroke-width: 0.5"/>
      </g>
     </g>
     <g id="line2d_60">
      <g>
       <use xlink:href="#m78e0d3d532" x="444.639091" y="26.24" style="stroke: #000000; stroke-width: 0.5"/>
      </g>
     </g>
    </g>
    <g id="xtick_28">
     <g id="line2d_61">
      <g>
       <use xlink:href="#m6b0c9725a7" x="475.075455" y="314.528" style="stroke: #000000; stroke-width: 0.5"/>
      </g>
     </g>
     <g id="line2d_62">
      <g>
       <use xlink:href="#m78e0d3d532" x="475.075455" y="26.24" style="stroke: #000000; stroke-width: 0.5"/>
      </g>
     </g>
    </g>
    <g id="text_7">
     <!-- Time -->
     <g transform="translate(254.853437 342.389562) scale(0.14 -0.14)">
      <defs>
       <path id="STIXGeneral-Regular-54" d="M 3795 3149 
L 3642 3149 
Q 3539 3674 3353 3821 
Q 3168 3968 2656 3968 
L 2278 3968 
L 2278 710 
Q 2278 346 2387 243 
Q 2496 141 2893 122 
L 2893 0 
L 1024 0 
L 1024 122 
Q 1427 147 1526 256 
Q 1626 365 1626 787 
L 1626 3968 
L 1242 3968 
Q 723 3968 540 3817 
Q 358 3667 262 3149 
L 109 3149 
L 154 4237 
L 3750 4237 
L 3795 3149 
z
" transform="scale(0.015625)"/>
       <path id="STIXGeneral-Regular-69" d="M 1152 4045 
Q 1152 3904 1056 3811 
Q 960 3718 819 3718 
Q 685 3718 592 3811 
Q 499 3904 499 4045 
Q 499 4179 595 4275 
Q 691 4371 826 4371 
Q 966 4371 1059 4275 
Q 1152 4179 1152 4045 
z
M 1619 0 
L 102 0 
L 102 96 
Q 435 115 521 211 
Q 608 307 608 666 
L 608 2118 
Q 608 2342 563 2432 
Q 518 2522 397 2522 
Q 243 2522 128 2490 
L 128 2592 
L 1120 2944 
L 1146 2918 
L 1146 672 
Q 1146 314 1226 218 
Q 1306 122 1619 96 
L 1619 0 
z
" transform="scale(0.015625)"/>
       <path id="STIXGeneral-Regular-6d" d="M 4960 0 
L 3565 0 
L 3565 96 
Q 3834 122 3907 208 
Q 3981 294 3981 576 
L 3981 1894 
Q 3981 2278 3869 2444 
Q 3757 2611 3488 2611 
Q 3264 2611 3107 2521 
Q 2950 2432 2803 2221 
L 2803 608 
Q 2803 301 2896 201 
Q 2989 102 3264 96 
L 3264 0 
L 1830 0 
L 1830 96 
Q 2112 115 2189 188 
Q 2266 262 2266 550 
L 2266 1901 
Q 2266 2611 1850 2611 
Q 1670 2611 1468 2531 
Q 1267 2451 1171 2336 
Q 1088 2240 1088 2227 
L 1088 448 
Q 1088 243 1177 176 
Q 1267 109 1523 96 
L 1523 0 
L 102 0 
L 102 96 
Q 371 102 460 195 
Q 550 288 550 563 
L 550 2150 
Q 550 2387 499 2480 
Q 448 2573 326 2573 
Q 230 2573 122 2547 
L 122 2656 
Q 557 2778 1011 2944 
L 1062 2925 
L 1062 2451 
L 1075 2451 
Q 1363 2752 1584 2848 
Q 1805 2944 2054 2944 
Q 2560 2944 2733 2406 
Q 3232 2944 3776 2944 
Q 4518 2944 4518 1792 
L 4518 493 
Q 4518 282 4582 202 
Q 4646 122 4794 109 
L 4960 96 
L 4960 0 
z
" transform="scale(0.015625)"/>
       <path id="STIXGeneral-Regular-65" d="M 2611 1050 
L 2714 1005 
Q 2330 -64 1376 -64 
Q 813 -64 486 329 
Q 160 723 160 1389 
Q 160 2074 525 2509 
Q 890 2944 1485 2944 
Q 2061 2944 2374 2502 
Q 2560 2246 2592 1773 
L 621 1773 
Q 646 1370 700 1158 
Q 755 947 915 730 
Q 1184 378 1626 378 
Q 1939 378 2153 531 
Q 2368 685 2611 1050 
z
M 634 1978 
L 1939 1978 
Q 1882 2381 1750 2547 
Q 1619 2714 1312 2714 
Q 1043 2714 864 2525 
Q 685 2336 634 1978 
z
" transform="scale(0.015625)"/>
      </defs>
      <use xlink:href="#STIXGeneral-Regular-54"/>
      <use xlink:href="#STIXGeneral-Regular-69" transform="translate(61.099991 0)"/>
      <use xlink:href="#STIXGeneral-Regular-6d" transform="translate(88.899979 0)"/>
      <use xlink:href="#STIXGeneral-Regular-65" transform="translate(166.699966 0)"/>
     </g>
    </g>
   </g>
   <g id="matplotlib.axis_2">
    <g id="ytick_1">
     <g id="line2d_63">
      <path d="M 60.38 310.867259 
L 478.88 310.867259 
" clip-path="url(#p00ae8ea843)" style="fill: none; stroke: #b0b0b0; stroke-opacity: 0.35; stroke-width: 0.5; stroke-linecap: square"/>
     </g>
     <g id="line2d_64">
      <defs>
       <path id="m5cfff433c3" d="M 0 0 
L 3 0 
" style="stroke: #000000; stroke-width: 0.5"/>
      </defs>
      <g>
       <use xlink:href="#m5cfff433c3" x="60.38" y="310.867259" style="stroke: #000000; stroke-width: 0.5"/>
      </g>
     </g>
     <g id="line2d_65">
      <defs>
       <path id="m8015780b27" d="M 0 0 
L -3 0 
" style="stroke: #000000; stroke-width: 0.5"/>
      </defs>
      <g>
       <use xlink:href="#m8015780b27" x="478.88" y="310.867259" style="stroke: #000000; stroke-width: 0.5"/>
      </g>
     </g>
     <g id="text_8">
      <!-- $\mathdefault{−0.025}$ -->
      <g transform="translate(21.6 314.965071) scale(0.12 -0.12)">
       <defs>
        <path id="STIXGeneral-Regular-2212" d="M 3974 1408 
L 410 1408 
L 410 1830 
L 3974 1830 
L 3974 1408 
z
" transform="scale(0.015625)"/>
        <path id="STIXGeneral-Regular-2e" d="M 1158 275 
Q 1158 134 1052 32 
Q 947 -70 800 -70 
Q 653 -70 550 32 
Q 448 134 448 281 
Q 448 429 553 534 
Q 659 640 806 640 
Q 947 640 1052 531 
Q 1158 422 1158 275 
z
" transform="scale(0.015625)"/>
       </defs>
       <use xlink:href="#STIXGeneral-Regular-2212" transform="translate(0 0.203125)"/>
       <use xlink:href="#STIXGeneral-Regular-30" transform="translate(68.499985 0.203125)"/>
       <use xlink:href="#STIXGeneral-Regular-2e" transform="translate(118.499969 0.203125)"/>
       <use xlink:href="#STIXGeneral-Regular-30" transform="translate(143.499954 0.203125)"/>
       <use xlink:href="#STIXGeneral-Regular-32" transform="translate(193.499939 0.203125)"/>
       <use xlink:href="#STIXGeneral-Regular-35" transform="translate(243.499924 0.203125)"/>
      </g>
     </g>
    </g>
    <g id="ytick_2">
     <g id="line2d_66">
      <path d="M 60.38 256.562607 
L 478.88 256.562607 
" clip-path="url(#p00ae8ea843)" style="fill: none; stroke: #b0b0b0; stroke-opacity: 0.35; stroke-width: 0.5; stroke-linecap: square"/>
     </g>
     <g id="line2d_67">
      <g>
       <use xlink:href="#m5cfff433c3" x="60.38" y="256.562607" style="stroke: #000000; stroke-width: 0.5"/>
      </g>
     </g>
     <g id="line2d_68">
      <g>
       <use xlink:href="#m8015780b27" x="478.88" y="256.562607" style="stroke: #000000; stroke-width: 0.5"/>
      </g>
     </g>
     <g id="text_9">
      <!-- $\mathdefault{−0.020}$ -->
      <g transform="translate(21.6 260.660419) scale(0.12 -0.12)">
       <use xlink:href="#STIXGeneral-Regular-2212" transform="translate(0 0.40625)"/>
       <use xlink:href="#STIXGeneral-Regular-30" transform="translate(68.499985 0.40625)"/>
       <use xlink:href="#STIXGeneral-Regular-2e" transform="translate(118.499969 0.40625)"/>
       <use xlink:href="#STIXGeneral-Regular-30" transform="translate(143.499954 0.40625)"/>
       <use xlink:href="#STIXGeneral-Regular-32" transform="translate(193.499939 0.40625)"/>
       <use xlink:href="#STIXGeneral-Regular-30" transform="translate(243.499924 0.40625)"/>
      </g>
     </g>
    </g>
    <g id="ytick_3">
     <g id="line2d_69">
      <path d="M 60.38 202.257955 
L 478.88 202.257955 
" clip-path="url(#p00ae8ea843)" style="fill: none; stroke: #b0b0b0; stroke-opacity: 0.35; stroke-width: 0.5; stroke-linecap: square"/>
     </g>
     <g id="line2d_70">
      <g>
       <use xlink:href="#m5cfff433c3" x="60.38" y="202.257955" style="stroke: #000000; stroke-width: 0.5"/>
      </g>
     </g>
     <g id="line2d_71">
      <g>
       <use xlink:href="#m8015780b27" x="478.88" y="202.257955" style="stroke: #000000; stroke-width: 0.5"/>
      </g>
     </g>
     <g id="text_10">
      <!-- $\mathdefault{−0.015}$ -->
      <g transform="translate(21.6 206.355768) scale(0.12 -0.12)">
       <use xlink:href="#STIXGeneral-Regular-2212" transform="translate(0 0.203125)"/>
       <use xlink:href="#STIXGeneral-Regular-30" transform="translate(68.499985 0.203125)"/>
       <use xlink:href="#STIXGeneral-Regular-2e" transform="translate(118.499969 0.203125)"/>
       <use xlink:href="#STIXGeneral-Regular-30" transform="translate(143.499954 0.203125)"/>
       <use xlink:href="#STIXGeneral-Regular-31" transform="translate(193.499939 0.203125)"/>
       <use xlink:href="#STIXGeneral-Regular-35" transform="translate(243.499924 0.203125)"/>
      </g>
     </g>
    </g>
    <g id="ytick_4">
     <g id="line2d_72">
      <path d="M 60.38 147.953303 
L 478.88 147.953303 
" clip-path="url(#p00ae8ea843)" style="fill: none; stroke: #b0b0b0; stroke-opacity: 0.35; stroke-width: 0.5; stroke-linecap: square"/>
     </g>
     <g id="line2d_73">
      <g>
       <use xlink:href="#m5cfff433c3" x="60.38" y="147.953303" style="stroke: #000000; stroke-width: 0.5"/>
      </g>
     </g>
     <g id="line2d_74">
      <g>
       <use xlink:href="#m8015780b27" x="478.88" y="147.953303" style="stroke: #000000; stroke-width: 0.5"/>
      </g>
     </g>
     <g id="text_11">
      <!-- $\mathdefault{−0.010}$ -->
      <g transform="translate(21.6 152.051116) scale(0.12 -0.12)">
       <use xlink:href="#STIXGeneral-Regular-2212" transform="translate(0 0.40625)"/>
       <use xlink:href="#STIXGeneral-Regular-30" transform="translate(68.499985 0.40625)"/>
       <use xlink:href="#STIXGeneral-Regular-2e" transform="translate(118.499969 0.40625)"/>
       <use xlink:href="#STIXGeneral-Regular-30" transform="translate(143.499954 0.40625)"/>
       <use xlink:href="#STIXGeneral-Regular-31" transform="translate(193.499939 0.40625)"/>
       <use xlink:href="#STIXGeneral-Regular-30" transform="translate(243.499924 0.40625)"/>
      </g>
     </g>
    </g>
    <g id="ytick_5">
     <g id="line2d_75">
      <path d="M 60.38 93.648652 
L 478.88 93.648652 
" clip-path="url(#p00ae8ea843)" style="fill: none; stroke: #b0b0b0; stroke-opacity: 0.35; stroke-width: 0.5; stroke-linecap: square"/>
     </g>
     <g id="line2d_76">
      <g>
       <use xlink:href="#m5cfff433c3" x="60.38" y="93.648652" style="stroke: #000000; stroke-width: 0.5"/>
      </g>
     </g>
     <g id="line2d_77">
      <g>
       <use xlink:href="#m8015780b27" x="478.88" y="93.648652" style="stroke: #000000; stroke-width: 0.5"/>
      </g>
     </g>
     <g id="text_12">
      <!-- $\mathdefault{−0.005}$ -->
      <g transform="translate(21.6 97.746464) scale(0.12 -0.12)">
       <use xlink:href="#STIXGeneral-Regular-2212" transform="translate(0 0.203125)"/>
       <use xlink:href="#STIXGeneral-Regular-30" transform="translate(68.499985 0.203125)"/>
       <use xlink:href="#STIXGeneral-Regular-2e" transform="translate(118.499969 0.203125)"/>
       <use xlink:href="#STIXGeneral-Regular-30" transform="translate(143.499954 0.203125)"/>
       <use xlink:href="#STIXGeneral-Regular-30" transform="translate(193.499939 0.203125)"/>
       <use xlink:href="#STIXGeneral-Regular-35" transform="translate(243.499924 0.203125)"/>
      </g>
     </g>
    </g>
    <g id="ytick_6">
     <g id="line2d_78">
      <path d="M 60.38 39.344 
L 478.88 39.344 
" clip-path="url(#p00ae8ea843)" style="fill: none; stroke: #b0b0b0; stroke-opacity: 0.35; stroke-width: 0.5; stroke-linecap: square"/>
     </g>
     <g id="line2d_79">
      <g>
       <use xlink:href="#m5cfff433c3" x="60.38" y="39.344" style="stroke: #000000; stroke-width: 0.5"/>
      </g>
     </g>
     <g id="line2d_80">
      <g>
       <use xlink:href="#m8015780b27" x="478.88" y="39.344" style="stroke: #000000; stroke-width: 0.5"/>
      </g>
     </g>
     <g id="text_13">
      <!-- $\mathdefault{0.000}$ -->
      <g transform="translate(29.88 43.441812) scale(0.12 -0.12)">
       <use xlink:href="#STIXGeneral-Regular-30" transform="translate(0 0.40625)"/>
       <use xlink:href="#STIXGeneral-Regular-2e" transform="translate(49.999985 0.40625)"/>
       <use xlink:href="#STIXGeneral-Regular-30" transform="translate(74.999969 0.40625)"/>
       <use xlink:href="#STIXGeneral-Regular-30" transform="translate(124.999954 0.40625)"/>
       <use xlink:href="#STIXGeneral-Regular-30" transform="translate(174.999939 0.40625)"/>
      </g>
     </g>
    </g>
    <g id="ytick_7">
     <g id="line2d_81">
      <defs>
       <path id="m2a53e978be" d="M 0 0 
L 1.5 0 
" style="stroke: #000000; stroke-width: 0.5"/>
      </defs>
      <g>
       <use xlink:href="#m2a53e978be" x="60.38" y="300.006328" style="stroke: #000000; stroke-width: 0.5"/>
      </g>
     </g>
     <g id="line2d_82">
      <defs>
       <path id="m365a87bcee" d="M 0 0 
L -1.5 0 
" style="stroke: #000000; stroke-width: 0.5"/>
      </defs>
      <g>
       <use xlink:href="#m365a87bcee" x="478.88" y="300.006328" style="stroke: #000000; stroke-width: 0.5"/>
      </g>
     </g>
    </g>
    <g id="ytick_8">
     <g id="line2d_83">
      <g>
       <use xlink:href="#m2a53e978be" x="60.38" y="289.145398" style="stroke: #000000; stroke-width: 0.5"/>
      </g>
     </g>
     <g id="line2d_84">
      <g>
       <use xlink:href="#m365a87bcee" x="478.88" y="289.145398" style="stroke: #000000; stroke-width: 0.5"/>
      </g>
     </g>
    </g>
    <g id="ytick_9">
     <g id="line2d_85">
      <g>
       <use xlink:href="#m2a53e978be" x="60.38" y="278.284467" style="stroke: #000000; stroke-width: 0.5"/>
      </g>
     </g>
     <g id="line2d_86">
      <g>
       <use xlink:href="#m365a87bcee" x="478.88" y="278.284467" style="stroke: #000000; stroke-width: 0.5"/>
      </g>
     </g>
    </g>
    <g id="ytick_10">
     <g id="line2d_87">
      <g>
       <use xlink:href="#m2a53e978be" x="60.38" y="267.423537" style="stroke: #000000; stroke-width: 0.5"/>
      </g>
     </g>
     <g id="line2d_88">
      <g>
       <use xlink:href="#m365a87bcee" x="478.88" y="267.423537" style="stroke: #000000; stroke-width: 0.5"/>
      </g>
     </g>
    </g>
    <g id="ytick_11">
     <g id="line2d_89">
      <g>
       <use xlink:href="#m2a53e978be" x="60.38" y="245.701676" style="stroke: #000000; stroke-width: 0.5"/>
      </g>
     </g>
     <g id="line2d_90">
      <g>
       <use xlink:href="#m365a87bcee" x="478.88" y="245.701676" style="stroke: #000000; stroke-width: 0.5"/>
      </g>
     </g>
    </g>
    <g id="ytick_12">
     <g id="line2d_91">
      <g>
       <use xlink:href="#m2a53e978be" x="60.38" y="234.840746" style="stroke: #000000; stroke-width: 0.5"/>
      </g>
     </g>
     <g id="line2d_92">
      <g>
       <use xlink:href="#m365a87bcee" x="478.88" y="234.840746" style="stroke: #000000; stroke-width: 0.5"/>
      </g>
     </g>
    </g>
    <g id="ytick_13">
     <g id="line2d_93">
      <g>
       <use xlink:href="#m2a53e978be" x="60.38" y="223.979816" style="stroke: #000000; stroke-width: 0.5"/>
      </g>
     </g>
     <g id="line2d_94">
      <g>
       <use xlink:href="#m365a87bcee" x="478.88" y="223.979816" style="stroke: #000000; stroke-width: 0.5"/>
      </g>
     </g>
    </g>
    <g id="ytick_14">
     <g id="line2d_95">
      <g>
       <use xlink:href="#m2a53e978be" x="60.38" y="213.118885" style="stroke: #000000; stroke-width: 0.5"/>
      </g>
     </g>
     <g id="line2d_96">
      <g>
       <use xlink:href="#m365a87bcee" x="478.88" y="213.118885" style="stroke: #000000; stroke-width: 0.5"/>
      </g>
     </g>
    </g>
    <g id="ytick_15">
     <g id="line2d_97">
      <g>
       <use xlink:href="#m2a53e978be" x="60.38" y="191.397025" style="stroke: #000000; stroke-width: 0.5"/>
      </g>
     </g>
     <g id="line2d_98">
      <g>
       <use xlink:href="#m365a87bcee" x="478.88" y="191.397025" style="stroke: #000000; stroke-width: 0.5"/>
      </g>
     </g>
    </g>
    <g id="ytick_16">
     <g id="line2d_99">
      <g>
       <use xlink:href="#m2a53e978be" x="60.38" y="180.536094" style="stroke: #000000; stroke-width: 0.5"/>
      </g>
     </g>
     <g id="line2d_100">
      <g>
       <use xlink:href="#m365a87bcee" x="478.88" y="180.536094" style="stroke: #000000; stroke-width: 0.5"/>
      </g>
     </g>
    </g>
    <g id="ytick_17">
     <g id="line2d_101">
      <g>
       <use xlink:href="#m2a53e978be" x="60.38" y="169.675164" style="stroke: #000000; stroke-width: 0.5"/>
      </g>
     </g>
     <g id="line2d_102">
      <g>
       <use xlink:href="#m365a87bcee" x="478.88" y="169.675164" style="stroke: #000000; stroke-width: 0.5"/>
      </g>
     </g>
    </g>
    <g id="ytick_18">
     <g id="line2d_103">
      <g>
       <use xlink:href="#m2a53e978be" x="60.38" y="158.814234" style="stroke: #000000; stroke-width: 0.5"/>
      </g>
     </g>
     <g id="line2d_104">
      <g>
       <use xlink:href="#m365a87bcee" x="478.88" y="158.814234" style="stroke: #000000; stroke-width: 0.5"/>
      </g>
     </g>
    </g>
    <g id="ytick_19">
     <g id="line2d_105">
      <g>
       <use xlink:href="#m2a53e978be" x="60.38" y="137.092373" style="stroke: #000000; stroke-width: 0.5"/>
      </g>
     </g>
     <g id="line2d_106">
      <g>
       <use xlink:href="#m365a87bcee" x="478.88" y="137.092373" style="stroke: #000000; stroke-width: 0.5"/>
      </g>
     </g>
    </g>
    <g id="ytick_20">
     <g id="line2d_107">
      <g>
       <use xlink:href="#m2a53e978be" x="60.38" y="126.231443" style="stroke: #000000; stroke-width: 0.5"/>
      </g>
     </g>
     <g id="line2d_108">
      <g>
       <use xlink:href="#m365a87bcee" x="478.88" y="126.231443" style="stroke: #000000; stroke-width: 0.5"/>
      </g>
     </g>
    </g>
    <g id="ytick_21">
     <g id="line2d_109">
      <g>
       <use xlink:href="#m2a53e978be" x="60.38" y="115.370512" style="stroke: #000000; stroke-width: 0.5"/>
      </g>
     </g>
     <g id="line2d_110">
      <g>
       <use xlink:href="#m365a87bcee" x="478.88" y="115.370512" style="stroke: #000000; stroke-width: 0.5"/>
      </g>
     </g>
    </g>
    <g id="ytick_22">
     <g id="line2d_111">
      <g>
       <use xlink:href="#m2a53e978be" x="60.38" y="104.509582" style="stroke: #000000; stroke-width: 0.5"/>
      </g>
     </g>
     <g id="line2d_112">
      <g>
       <use xlink:href="#m365a87bcee" x="478.88" y="104.509582" style="stroke: #000000; stroke-width: 0.5"/>
      </g>
     </g>
    </g>
    <g id="ytick_23">
     <g id="line2d_113">
      <g>
       <use xlink:href="#m2a53e978be" x="60.38" y="82.787721" style="stroke: #000000; stroke-width: 0.5"/>
      </g>
     </g>
     <g id="line2d_114">
      <g>
       <use xlink:href="#m365a87bcee" x="478.88" y="82.787721" style="stroke: #000000; stroke-width: 0.5"/>
      </g>
     </g>
    </g>
    <g id="ytick_24">
     <g id="line2d_115">
      <g>
       <use xlink:href="#m2a53e978be" x="60.38" y="71.926791" style="stroke: #000000; stroke-width: 0.5"/>
      </g>
     </g>
     <g id="line2d_116">
      <g>
       <use xlink:href="#m365a87bcee" x="478.88" y="71.926791" style="stroke: #000000; stroke-width: 0.5"/>
      </g>
     </g>
    </g>
    <g id="ytick_25">
     <g id="line2d_117">
      <g>
       <use xlink:href="#m2a53e978be" x="60.38" y="61.065861" style="stroke: #000000; stroke-width: 0.5"/>
      </g>
     </g>
     <g id="line2d_118">
      <g>
       <use xlink:href="#m365a87bcee" x="478.88" y="61.065861" style="stroke: #000000; stroke-width: 0.5"/>
      </g>
     </g>
    </g>
    <g id="ytick_26">
     <g id="line2d_119">
      <g>
       <use xlink:href="#m2a53e978be" x="60.38" y="50.20493" style="stroke: #000000; stroke-width: 0.5"/>
      </g>
     </g>
     <g id="line2d_120">
      <g>
       <use xlink:href="#m365a87bcee" x="478.88" y="50.20493" style="stroke: #000000; stroke-width: 0.5"/>
      </g>
     </g>
    </g>
    <g id="ytick_27">
     <g id="line2d_121">
      <g>
       <use xlink:href="#m2a53e978be" x="60.38" y="28.48307" style="stroke: #000000; stroke-width: 0.5"/>
      </g>
     </g>
     <g id="line2d_122">
      <g>
       <use xlink:href="#m365a87bcee" x="478.88" y="28.48307" style="stroke: #000000; stroke-width: 0.5"/>
      </g>
     </g>
    </g>
    <g id="text_14">
     <!-- $|g_1|$ difference from exact -->
     <g transform="translate(14.1 242.554) rotate(-90) scale(0.14 -0.14)">
      <defs>
       <path id="Cmsy10-6a" d="M 763 -1484 
L 763 4684 
Q 763 4734 800 4767 
Q 838 4800 891 4800 
Q 938 4800 978 4767 
Q 1019 4734 1019 4684 
L 1019 -1484 
Q 1019 -1534 978 -1567 
Q 938 -1600 891 -1600 
Q 838 -1600 800 -1567 
Q 763 -1534 763 -1484 
z
" transform="scale(0.015625)"/>
       <path id="Cmmi10-67" d="M 91 -916 
Q 91 -759 198 -642 
Q 306 -525 459 -525 
Q 563 -525 633 -589 
Q 703 -653 703 -756 
Q 703 -872 637 -964 
Q 572 -1056 469 -1094 
Q 641 -1147 1006 -1147 
Q 1300 -1147 1544 -920 
Q 1788 -694 1863 -397 
L 2047 353 
Q 1700 0 1325 0 
Q 1050 0 854 140 
Q 659 281 556 515 
Q 453 750 453 1013 
Q 453 1306 573 1628 
Q 694 1950 911 2225 
Q 1128 2500 1409 2664 
Q 1691 2828 2003 2828 
Q 2191 2828 2341 2725 
Q 2491 2622 2578 2450 
Q 2641 2700 2853 2700 
Q 2934 2700 2990 2651 
Q 3047 2603 3047 2522 
Q 3047 2503 3045 2493 
Q 3044 2484 3041 2472 
L 2309 -434 
Q 2259 -634 2125 -800 
Q 1991 -966 1809 -1077 
Q 1628 -1188 1412 -1250 
Q 1197 -1313 997 -1313 
Q 631 -1313 361 -1242 
Q 91 -1172 91 -916 
z
M 1338 166 
Q 1747 166 2144 728 
L 2497 2125 
Q 2453 2347 2322 2505 
Q 2191 2663 1991 2663 
Q 1778 2663 1589 2489 
Q 1400 2316 1275 2075 
Q 1156 1844 1045 1411 
Q 934 978 934 728 
Q 934 509 1034 337 
Q 1134 166 1338 166 
z
" transform="scale(0.015625)"/>
       <path id="Cmr10-31" d="M 594 0 
L 594 225 
Q 1394 225 1394 428 
L 1394 3788 
Q 1063 3628 556 3628 
L 556 3853 
Q 1341 3853 1741 4263 
L 1831 4263 
Q 1853 4263 1873 4245 
Q 1894 4228 1894 4206 
L 1894 428 
Q 1894 225 2694 225 
L 2694 0 
L 594 0 
z
" transform="scale(0.015625)"/>
       <path id="STIXGeneral-Regular-20" transform="scale(0.015625)"/>
       <path id="STIXGeneral-Regular-64" d="M 3142 269 
L 2202 -64 
L 2176 -45 
L 2176 365 
Q 1869 -64 1357 -64 
Q 826 -64 499 317 
Q 173 698 173 1312 
Q 173 1990 563 2467 
Q 954 2944 1504 2944 
Q 1850 2944 2176 2669 
L 2176 3667 
Q 2176 3866 2118 3930 
Q 2061 3994 1882 3994 
Q 1792 3994 1741 3987 
L 1741 4090 
Q 2323 4243 2682 4371 
L 2714 4358 
L 2714 730 
Q 2714 506 2768 435 
Q 2822 365 2995 365 
Q 3034 365 3142 371 
L 3142 269 
z
M 2176 653 
L 2176 2125 
Q 2176 2381 1981 2573 
Q 1786 2765 1523 2765 
Q 1158 2765 940 2438 
Q 723 2112 723 1568 
Q 723 979 963 624 
Q 1203 269 1606 269 
Q 1907 269 2080 474 
Q 2176 582 2176 653 
z
" transform="scale(0.015625)"/>
       <path id="STIXGeneral-Regular-66" d="M 134 2880 
L 659 2880 
Q 666 3264 710 3478 
Q 755 3693 883 3910 
Q 1152 4371 1786 4371 
Q 2074 4371 2262 4259 
Q 2451 4147 2451 3974 
Q 2451 3866 2374 3789 
Q 2298 3712 2182 3712 
Q 2029 3712 1894 3942 
Q 1741 4192 1555 4192 
Q 1197 4192 1197 3622 
L 1197 2880 
L 1978 2880 
L 1978 2675 
L 1197 2675 
L 1197 666 
Q 1197 307 1299 208 
Q 1402 109 1792 96 
L 1792 0 
L 128 0 
L 128 96 
Q 474 115 566 214 
Q 659 314 659 666 
L 659 2675 
L 134 2675 
L 134 2880 
z
" transform="scale(0.015625)"/>
       <path id="STIXGeneral-Regular-72" d="M 1024 2931 
L 1024 2342 
Q 1267 2688 1430 2816 
Q 1594 2944 1792 2944 
Q 1958 2944 2051 2854 
Q 2144 2765 2144 2605 
Q 2144 2470 2077 2393 
Q 2010 2317 1894 2317 
Q 1773 2317 1638 2445 
Q 1536 2541 1472 2541 
Q 1338 2541 1181 2355 
Q 1024 2170 1024 2016 
L 1024 576 
Q 1024 301 1133 205 
Q 1242 109 1568 96 
L 1568 0 
L 32 0 
L 32 96 
Q 339 154 412 224 
Q 486 294 486 538 
L 486 2138 
Q 486 2349 438 2435 
Q 390 2522 269 2522 
Q 166 2522 45 2496 
L 45 2598 
Q 448 2726 992 2944 
L 1024 2931 
z
" transform="scale(0.015625)"/>
       <path id="STIXGeneral-Regular-6e" d="M 3104 0 
L 1773 0 
L 1779 96 
Q 2016 115 2096 233 
Q 2176 352 2176 672 
L 2176 1946 
Q 2176 2592 1709 2592 
Q 1549 2592 1408 2515 
Q 1267 2438 1050 2227 
L 1050 461 
Q 1050 269 1136 192 
Q 1222 115 1466 96 
L 1466 0 
L 115 0 
L 115 96 
Q 358 115 435 214 
Q 512 314 512 602 
L 512 2157 
Q 512 2394 467 2483 
Q 422 2573 288 2573 
Q 160 2573 102 2547 
L 102 2656 
Q 550 2784 979 2944 
L 1030 2925 
L 1030 2426 
L 1037 2426 
Q 1491 2944 1958 2944 
Q 2323 2944 2518 2688 
Q 2714 2432 2714 1958 
L 2714 544 
Q 2714 288 2790 205 
Q 2867 122 3104 96 
L 3104 0 
z
" transform="scale(0.015625)"/>
       <path id="STIXGeneral-Regular-63" d="M 2547 998 
L 2637 941 
Q 2362 403 2112 205 
Q 1786 -64 1376 -64 
Q 845 -64 502 336 
Q 160 736 160 1357 
Q 160 2170 698 2618 
Q 1094 2944 1562 2944 
Q 1965 2944 2256 2749 
Q 2547 2554 2547 2285 
Q 2547 2176 2457 2096 
Q 2368 2016 2246 2016 
Q 2022 2016 1939 2310 
L 1901 2451 
Q 1850 2630 1773 2694 
Q 1696 2758 1523 2758 
Q 1133 2758 893 2451 
Q 653 2144 653 1645 
Q 653 1094 928 745 
Q 1203 397 1645 397 
Q 1920 397 2118 528 
Q 2317 659 2547 998 
z
" transform="scale(0.015625)"/>
       <path id="STIXGeneral-Regular-6f" d="M 3008 1478 
Q 3008 806 2608 371 
Q 2208 -64 1568 -64 
Q 979 -64 582 368 
Q 186 800 186 1459 
Q 186 2125 582 2534 
Q 979 2944 1626 2944 
Q 2221 2944 2614 2537 
Q 3008 2131 3008 1478 
z
M 2432 1306 
Q 2432 2035 2112 2445 
Q 1856 2765 1504 2765 
Q 1171 2765 966 2493 
Q 762 2221 762 1747 
Q 762 928 1101 435 
Q 1318 115 1677 115 
Q 2029 115 2230 432 
Q 2432 749 2432 1306 
z
" transform="scale(0.015625)"/>
       <path id="STIXGeneral-Regular-78" d="M 3066 0 
L 1779 0 
L 1779 96 
Q 1939 109 1987 137 
Q 2035 166 2035 250 
Q 2035 307 1997 365 
L 1414 1261 
L 909 474 
Q 781 275 781 211 
Q 781 96 1037 96 
L 1037 0 
L 109 0 
L 109 96 
Q 269 109 355 169 
Q 442 230 576 422 
L 1306 1478 
L 704 2400 
Q 557 2624 454 2704 
Q 352 2784 211 2784 
L 154 2784 
L 154 2880 
L 1478 2880 
L 1478 2784 
Q 1203 2778 1203 2643 
Q 1203 2509 1498 2074 
Q 1581 1958 1587 1946 
Q 1619 1990 1779 2227 
Q 1811 2285 1856 2349 
Q 1901 2413 1923 2451 
Q 1946 2490 1971 2528 
Q 1997 2566 2006 2595 
Q 2016 2624 2016 2643 
Q 2016 2765 1760 2784 
L 1760 2880 
L 2771 2880 
L 2771 2784 
Q 2445 2771 2253 2502 
L 1722 1734 
L 2541 480 
Q 2790 96 3066 96 
L 3066 0 
z
" transform="scale(0.015625)"/>
       <path id="STIXGeneral-Regular-61" d="M 2829 422 
L 2829 243 
Q 2586 -64 2253 -64 
Q 1888 -64 1843 403 
L 1837 403 
Q 1427 -64 909 -64 
Q 608 -64 422 112 
Q 237 288 237 602 
Q 237 1050 685 1350 
Q 992 1555 1837 1869 
L 1837 2214 
Q 1837 2502 1699 2646 
Q 1562 2790 1338 2790 
Q 1146 2790 1018 2697 
Q 890 2605 890 2477 
Q 890 2419 909 2348 
Q 928 2278 928 2208 
Q 928 2112 841 2029 
Q 755 1946 634 1946 
Q 525 1946 441 2029 
Q 358 2112 358 2240 
Q 358 2547 685 2752 
Q 986 2944 1421 2944 
Q 1939 2944 2176 2656 
Q 2291 2522 2323 2384 
Q 2355 2246 2355 1946 
L 2355 723 
Q 2355 301 2554 301 
Q 2682 301 2829 422 
z
M 1837 813 
L 1837 1715 
Q 1248 1510 1018 1293 
Q 800 1094 800 800 
Q 800 557 921 432 
Q 1043 307 1242 307 
Q 1453 307 1613 410 
Q 1747 506 1792 589 
Q 1837 672 1837 813 
z
" transform="scale(0.015625)"/>
       <path id="STIXGeneral-Regular-74" d="M 1702 493 
L 1786 422 
Q 1478 -64 1011 -64 
Q 448 -64 448 749 
L 448 2675 
L 109 2675 
Q 83 2694 83 2720 
Q 83 2771 192 2842 
Q 435 2982 813 3526 
Q 826 3546 874 3606 
Q 922 3667 941 3706 
Q 986 3706 986 3622 
L 986 2880 
L 1632 2880 
L 1632 2675 
L 986 2675 
L 986 845 
Q 986 538 1062 403 
Q 1139 269 1318 269 
Q 1510 269 1702 493 
z
" transform="scale(0.015625)"/>
      </defs>
      <use xlink:href="#Cmsy10-6a"/>
      <use xlink:href="#Cmmi10-67" transform="translate(27.685547 0)"/>
      <use xlink:href="#Cmr10-31" transform="translate(75.390625 -17.00625) scale(0.7)"/>
      <use xlink:href="#Cmsy10-6a" transform="translate(116.767969 0)"/>
      <use xlink:href="#STIXGeneral-Regular-20" transform="translate(144.453516 0)"/>
      <use xlink:href="#STIXGeneral-Regular-64" transform="translate(169.4535 0)"/>
      <use xlink:href="#STIXGeneral-Regular-69" transform="translate(219.453485 0)"/>
      <use xlink:href="#STIXGeneral-Regular-66" transform="translate(247.253473 0)"/>
      <use xlink:href="#STIXGeneral-Regular-66" transform="translate(280.553461 0)"/>
      <use xlink:href="#STIXGeneral-Regular-65" transform="translate(313.853448 0)"/>
      <use xlink:href="#STIXGeneral-Regular-72" transform="translate(358.253442 0)"/>
      <use xlink:href="#STIXGeneral-Regular-65" transform="translate(391.55343 0)"/>
      <use xlink:href="#STIXGeneral-Regular-6e" transform="translate(435.953424 0)"/>
      <use xlink:href="#STIXGeneral-Regular-63" transform="translate(485.953409 0)"/>
      <use xlink:href="#STIXGeneral-Regular-65" transform="translate(530.353403 0)"/>
      <use xlink:href="#STIXGeneral-Regular-20" transform="translate(574.753397 0)"/>
      <use xlink:href="#STIXGeneral-Regular-66" transform="translate(599.753381 0)"/>
      <use xlink:href="#STIXGeneral-Regular-72" transform="translate(633.053369 0)"/>
      <use xlink:href="#STIXGeneral-Regular-6f" transform="translate(666.353357 0)"/>
      <use xlink:href="#STIXGeneral-Regular-6d" transform="translate(716.353342 0)"/>
      <use xlink:href="#STIXGeneral-Regular-20" transform="translate(794.153329 0)"/>
      <use xlink:href="#STIXGeneral-Regular-65" transform="translate(819.153314 0)"/>
      <use xlink:href="#STIXGeneral-Regular-78" transform="translate(863.553308 0)"/>
      <use xlink:href="#STIXGeneral-Regular-61" transform="translate(913.553293 0)"/>
      <use xlink:href="#STIXGeneral-Regular-63" transform="translate(957.953287 0)"/>
      <use xlink:href="#STIXGeneral-Regular-74" transform="translate(1002.353281 0)"/>
     </g>
    </g>
   </g>
   <g id="line2d_123">
    <path d="M 79.402727 39.344 
L 459.857273 39.344 
L 459.857273 39.344 
" clip-path="url(#p00ae8ea843)" style="fill: none; stroke: #2ca02c; stroke-width: 2.7; stroke-linecap: square"/>
   </g>
   <g id="line2d_124">
    <path d="M 60.38 39.344 
L 478.88 39.344 
" clip-path="url(#p00ae8ea843)" style="fill: none; stroke: #000000; stroke-opacity: 0.6; stroke-linecap: square"/>
   </g>
   <g id="patch_3">
    <path d="M 60.38 314.528 
L 60.38 26.24 
" style="fill: none; stroke: #000000; stroke-width: 0.5; stroke-linejoin: miter; stroke-linecap: square"/>
   </g>
   <g id="patch_4">
    <path d="M 478.88 314.528 
L 478.88 26.24 
" style="fill: none; stroke: #000000; stroke-width: 0.5; stroke-linejoin: miter; stroke-linecap: square"/>
   </g>
   <g id="patch_5">
    <path d="M 60.38 314.528 
L 478.88 314.528 
" style="fill: none; stroke: #000000; stroke-width: 0.5; stroke-linejoin: miter; stroke-linecap: square"/>
   </g>
   <g id="patch_6">
    <path d="M 60.38 26.24 
L 478.88 26.24 
" style="fill: none; stroke: #000000; stroke-width: 0.5; stroke-linejoin: miter; stroke-linecap: square"/>
   </g>
   <g id="line2d_125">
    <path d="M 79.402727 301.029825 
L 79.478818 300.665837 
L 79.554909 301.424 
L 79.783182 299.487181 
L 79.859273 299.513066 
L 80.087545 300.608072 
L 80.163636 301.077258 
L 80.468 299.800911 
L 80.696273 296.886659 
L 80.772364 297.126125 
L 80.848455 296.780927 
L 80.924545 296.963002 
L 81.076727 297.889302 
L 81.228909 295.922709 
L 81.457182 298.636392 
L 81.533273 299.356797 
L 81.609364 298.543718 
L 81.685455 298.612313 
L 81.989818 296.941823 
L 82.218091 294.73383 
L 82.294182 294.055481 
L 82.370273 294.316254 
L 82.446364 294.474682 
L 82.598545 295.518495 
L 82.674636 295.531468 
L 82.750727 295.769118 
L 82.826818 296.497592 
L 82.902909 295.774841 
L 82.979 296.023723 
L 83.131182 297.667837 
L 83.359455 295.750184 
L 83.435545 295.663595 
L 83.511636 296.426566 
L 83.739909 295.024749 
L 83.816 294.956089 
L 84.196455 291.858914 
L 84.272545 291.59102 
L 84.424727 290.272414 
L 84.500818 290.258302 
L 84.805182 287.230822 
L 85.033455 285.325357 
L 85.49 282.883164 
L 85.642182 280.216551 
L 85.718273 281.456129 
L 85.794364 280.299405 
L 85.870455 281.77452 
L 85.946545 281.612973 
L 86.022636 280.473702 
L 86.098727 280.589448 
L 86.174818 279.897951 
L 86.250909 280.614973 
L 86.327 280.441733 
L 86.403091 280.583163 
L 86.707455 278.487854 
L 86.783545 279.428399 
L 87.164 276.413101 
L 87.240091 276.405152 
L 87.468364 278.861942 
L 87.772727 275.934203 
L 88.229273 272.118096 
L 88.305364 272.460274 
L 88.381455 272.268717 
L 88.457545 272.69185 
L 88.533636 272.203857 
L 88.685818 273.143444 
L 88.914091 270.74814 
L 88.990182 269.733933 
L 89.066273 269.8143 
L 89.522818 267.249635 
L 89.598909 265.891125 
L 89.675 266.519219 
L 89.979364 264.984569 
L 90.055455 266.961643 
L 90.131545 266.735039 
L 90.207636 266.864878 
L 90.283727 268.236089 
L 90.512 266.947002 
L 90.588091 267.393628 
L 90.664182 267.229969 
L 90.892455 265.960626 
L 91.044636 264.749059 
L 91.120727 265.581011 
L 91.196818 264.4806 
L 91.272909 264.924827 
L 91.349 264.525965 
L 91.425091 266.887254 
L 91.501182 266.143592 
L 91.577273 267.244734 
L 91.729455 265.578173 
L 91.881636 266.382343 
L 92.186 264.094413 
L 92.262091 264.402191 
L 92.414273 262.780855 
L 92.490364 263.565062 
L 92.566455 263.384936 
L 92.718636 261.804177 
L 92.794727 262.258694 
L 93.023 260.35904 
L 93.251273 259.29475 
L 93.403455 260.270627 
L 93.555636 259.005428 
L 93.86 255.927314 
L 93.936091 254.971027 
L 94.012182 255.554766 
L 94.088273 255.456013 
L 94.164364 254.91113 
L 94.240455 255.125893 
L 94.316545 255.844932 
L 94.773091 252.162385 
L 94.849182 252.05133 
L 94.925273 253.13634 
L 95.001364 252.570189 
L 95.077455 254.094105 
L 95.153545 253.239886 
L 95.457909 255.32107 
L 95.534 255.084079 
L 95.686182 252.70287 
L 95.838364 255.453457 
L 95.914455 254.277193 
L 96.066636 252.954207 
L 96.142727 252.647358 
L 96.218818 253.057548 
L 96.294909 252.364046 
L 96.371 252.884647 
L 96.447091 251.796813 
L 96.523182 252.067655 
L 96.599273 252.372947 
L 96.675364 251.333197 
L 96.751455 251.799478 
L 96.903636 250.548313 
L 97.208 255.426849 
L 97.360182 253.47766 
L 97.512364 254.993519 
L 97.892818 251.8952 
L 97.968909 252.406759 
L 98.045 252.124725 
L 98.197182 254.387935 
L 98.349364 253.483809 
L 98.425455 254.335413 
L 98.653727 251.884191 
L 98.729818 252.190809 
L 98.958091 250.318709 
L 99.034182 250.675672 
L 99.110273 250.638482 
L 99.186364 250.2134 
L 99.262455 250.528965 
L 99.642909 246.691172 
L 99.795091 248.746298 
L 100.023364 246.863346 
L 100.099455 246.64327 
L 100.175545 248.881861 
L 100.251636 248.470288 
L 100.403818 248.886986 
L 100.479909 248.931258 
L 100.708182 249.867339 
L 100.784273 251.049089 
L 101.012545 248.286877 
L 101.088636 248.29684 
L 101.164727 247.893514 
L 101.240818 246.750378 
L 101.469091 248.660068 
L 101.925636 245.137813 
L 102.001727 246.899107 
L 102.077818 246.120882 
L 102.23 244.165557 
L 102.306091 244.30887 
L 102.458273 242.79843 
L 102.610455 244.071081 
L 102.686545 243.127045 
L 102.762636 243.983196 
L 102.914818 242.663096 
L 102.990909 242.906987 
L 103.067 245.334047 
L 103.143091 244.770795 
L 103.219182 246.075209 
L 103.295273 246.001063 
L 103.447455 246.405783 
L 103.904 241.628873 
L 103.980091 241.786927 
L 104.208364 240.326013 
L 104.284455 240.310024 
L 104.436636 241.150667 
L 104.588818 243.950192 
L 104.664909 243.523836 
L 104.817091 241.980374 
L 104.893182 242.768705 
L 105.045364 240.854769 
L 105.121455 241.685797 
L 105.197545 244.663185 
L 105.273636 244.477836 
L 105.349727 243.301576 
L 105.425818 243.835545 
L 105.730182 241.609265 
L 105.806273 241.709106 
L 106.110636 240.179677 
L 106.186727 239.673479 
L 106.262818 239.755467 
L 106.338909 240.549236 
L 106.491091 238.642216 
L 106.567182 238.837871 
L 106.795455 242.292007 
L 106.871545 241.936024 
L 106.947636 242.225687 
L 107.175909 243.705121 
L 107.252 243.349844 
L 107.480273 245.80945 
L 107.784636 242.131161 
L 108.012909 240.866291 
L 108.089 240.933931 
L 108.165091 240.068393 
L 108.469455 244.038541 
L 108.545545 244.377058 
L 108.621636 246.596681 
L 108.697727 246.095915 
L 108.926 244.027866 
L 109.078182 245.117984 
L 109.230364 244.428327 
L 109.306455 244.79782 
L 109.610818 242.28973 
L 109.763 243.610338 
L 109.839091 243.448375 
L 109.915182 242.442169 
L 109.991273 243.954748 
L 110.219545 241.498075 
L 110.371727 242.164453 
L 110.447818 241.292979 
L 110.523909 245.813021 
L 110.6 244.773967 
L 110.676091 244.620123 
L 110.828273 246.409352 
L 111.284818 243.423102 
L 111.360909 245.492592 
L 111.437 244.830041 
L 111.589182 243.723816 
L 111.665273 244.106713 
L 111.741364 242.841545 
L 111.817455 243.454695 
L 111.893545 242.461708 
L 111.969636 243.693347 
L 112.045727 243.36466 
L 112.121818 242.143409 
L 112.197909 242.680301 
L 112.274 242.87903 
L 112.654455 238.22057 
L 112.730545 238.113165 
L 112.806636 238.376262 
L 113.187091 234.252563 
L 113.263182 235.361543 
L 113.339273 234.804358 
L 113.491455 237.053754 
L 113.567545 236.764648 
L 113.795818 234.03555 
L 113.948 235.120186 
L 114.176273 232.260296 
L 114.252364 232.316439 
L 114.404545 233.134699 
L 114.480636 232.96726 
L 114.632818 232.328766 
L 114.708909 232.802545 
L 114.785 232.373045 
L 114.861091 233.117035 
L 114.937182 232.866605 
L 115.393727 228.949941 
L 115.469818 228.705305 
L 115.622 229.888665 
L 115.774182 229.131104 
L 115.850273 229.070036 
L 116.002455 228.220494 
L 116.078545 229.228748 
L 116.154636 228.885052 
L 116.382909 229.604482 
L 116.459 228.962252 
L 116.535091 228.991153 
L 116.611182 229.202373 
L 116.763364 235.470438 
L 116.915545 235.024088 
L 116.991636 235.081574 
L 117.067727 235.172163 
L 117.219909 236.223367 
L 117.296 235.474368 
L 117.448182 240.354368 
L 117.524273 239.627615 
L 117.676455 241.607454 
L 117.752545 240.80689 
L 117.904727 241.693821 
L 118.361273 239.592775 
L 118.437364 239.935089 
L 118.513455 239.055592 
L 118.589545 239.241689 
L 118.665636 239.232335 
L 118.893909 236.827357 
L 118.97 235.894194 
L 119.046091 235.928681 
L 119.122182 236.107506 
L 119.198273 234.984127 
L 119.274364 235.417543 
L 119.350455 235.946372 
L 119.426545 235.365643 
L 119.502636 235.673341 
L 119.578727 236.585429 
L 119.654818 236.450616 
L 119.807 235.477261 
L 119.883091 235.826541 
L 120.187455 234.024159 
L 120.263545 234.220809 
L 120.415727 232.796789 
L 120.491818 233.368268 
L 120.796182 230.213566 
L 121.024455 231.427825 
L 121.176636 229.985462 
L 121.404909 233.145771 
L 121.481 233.884216 
L 121.557091 233.702801 
L 121.633182 233.158934 
L 121.861455 235.323878 
L 121.937545 235.561237 
L 122.089727 233.91255 
L 122.165818 235.062557 
L 122.318 233.359442 
L 122.394091 235.161 
L 122.470182 234.68818 
L 122.850636 232.079181 
L 122.926727 232.59632 
L 123.002818 232.072646 
L 123.078909 232.156066 
L 123.155 232.606935 
L 123.231091 232.327009 
L 123.307182 232.825934 
L 123.383273 232.555437 
L 123.535455 230.897344 
L 123.611545 231.244409 
L 123.763727 230.069125 
L 123.839818 231.39109 
L 123.992 229.586133 
L 124.068091 229.703336 
L 124.220273 228.038283 
L 124.296364 230.110709 
L 124.372455 229.138965 
L 124.448545 230.942995 
L 124.524636 230.473557 
L 124.600727 229.474726 
L 124.676818 232.782696 
L 124.752909 232.134867 
L 124.905091 234.454143 
L 124.981182 234.948704 
L 125.361636 231.30823 
L 125.437727 232.444644 
L 125.589909 231.044499 
L 125.666 233.008337 
L 125.742091 232.24089 
L 126.046455 230.502492 
L 126.198636 232.075014 
L 126.426909 229.634696 
L 126.503 231.062164 
L 126.655182 229.442612 
L 126.959545 234.597564 
L 127.187818 233.062504 
L 127.263909 232.925899 
L 127.416091 232.017924 
L 127.796545 233.88424 
L 127.872636 233.630592 
L 127.948727 233.704572 
L 128.024818 235.754203 
L 128.100909 235.062384 
L 128.253091 234.215543 
L 128.481364 237.420189 
L 128.557455 236.790286 
L 128.633545 236.107375 
L 128.709636 236.527844 
L 128.785727 235.596423 
L 128.937909 237.340589 
L 129.014 236.735825 
L 129.090091 239.216792 
L 129.166182 238.408223 
L 129.394455 236.241321 
L 129.546636 235.697646 
L 129.698818 234.482153 
L 129.774909 234.994567 
L 129.851 234.239751 
L 129.927091 234.849059 
L 130.459727 231.464775 
L 130.535818 233.733195 
L 130.611909 232.922621 
L 130.688 233.976453 
L 130.764091 233.606718 
L 130.916273 231.906784 
L 130.992364 232.281056 
L 131.068455 233.518889 
L 131.905455 226.66391 
L 132.057636 231.737895 
L 132.133727 230.959099 
L 132.209818 230.109 
L 132.285909 230.430674 
L 132.362 230.075407 
L 132.514182 231.485656 
L 132.894636 228.796439 
L 132.970727 229.896692 
L 133.122909 228.367593 
L 133.199 229.715387 
L 133.579455 226.374055 
L 133.807727 225.264101 
L 133.883818 225.651165 
L 134.036 225.071843 
L 134.112091 225.423967 
L 134.188182 225.044272 
L 134.340364 225.61212 
L 134.416455 225.687308 
L 134.492545 225.956611 
L 134.568636 228.295874 
L 134.644727 227.860852 
L 134.796909 226.628467 
L 134.873 227.853694 
L 135.025182 226.270853 
L 135.101273 226.636906 
L 135.177364 225.768546 
L 135.253455 226.123741 
L 135.405636 227.875319 
L 135.633909 226.150654 
L 135.71 226.09521 
L 135.938273 224.381434 
L 136.014364 224.487419 
L 136.090455 224.407693 
L 136.318727 222.225962 
L 136.394818 225.423242 
L 136.470909 225.02371 
L 136.547 224.238992 
L 136.623091 225.1368 
L 136.699182 224.318442 
L 136.775273 225.898182 
L 136.851364 225.25147 
L 137.155727 223.629046 
L 137.384 223.126333 
L 137.688364 224.144953 
L 138.068818 221.098851 
L 138.144909 221.593426 
L 138.221 220.816405 
L 138.373182 225.421843 
L 138.449273 225.160455 
L 138.601455 223.64543 
L 138.829727 226.397522 
L 139.514545 221.296819 
L 139.742818 224.48799 
L 139.818909 223.848834 
L 139.895 226.577535 
L 139.971091 226.116445 
L 140.047182 226.535282 
L 140.199364 225.555166 
L 140.579818 229.571099 
L 140.655909 229.014833 
L 140.732 229.081087 
L 140.808091 229.418341 
L 141.188545 227.144739 
L 141.492909 224.397189 
L 141.569 225.536119 
L 141.645091 225.032105 
L 142.101636 222.506043 
L 142.177727 224.547379 
L 142.253818 223.997878 
L 142.329909 223.464078 
L 142.406 225.643735 
L 142.482091 224.974455 
L 142.558182 224.785499 
L 142.634273 225.135321 
L 142.862545 224.049534 
L 142.938636 226.683851 
L 143.014727 225.962604 
L 143.090818 226.125831 
L 143.319091 224.452544 
L 143.547364 224.766461 
L 143.851727 222.44379 
L 143.927818 227.304977 
L 144.003909 226.618434 
L 144.08 226.940988 
L 144.308273 224.958051 
L 144.384364 225.101166 
L 144.764818 222.475496 
L 144.917 221.797413 
L 144.993091 223.929716 
L 145.069182 223.218023 
L 145.145273 222.478029 
L 145.221364 222.535874 
L 145.297455 223.220584 
L 145.373545 225.207841 
L 145.449636 224.563422 
L 145.525727 223.820868 
L 145.601818 224.978745 
L 145.830091 223.945123 
L 146.058364 222.197021 
L 146.134455 222.821801 
L 146.210545 225.913216 
L 146.286636 225.181467 
L 147.504091 217.233958 
L 147.656273 221.734327 
L 147.732364 221.770571 
L 148.265 218.357901 
L 148.493273 216.884961 
L 148.645455 217.196289 
L 148.721545 216.871225 
L 148.797636 218.171985 
L 148.873727 217.980622 
L 149.178091 217.224285 
L 149.254182 218.426396 
L 149.330273 217.985804 
L 149.558545 216.861841 
L 149.634636 217.676947 
L 149.862909 215.808821 
L 150.015091 218.200508 
L 150.091182 217.507512 
L 150.243364 217.136745 
L 150.319455 217.770296 
L 150.776 215.085775 
L 150.852091 215.061823 
L 150.928182 215.60884 
L 151.004273 215.323909 
L 151.080364 215.855363 
L 151.536909 212.273684 
L 151.613 213.349767 
L 151.689091 212.731733 
L 151.765182 214.074675 
L 151.841273 214.050033 
L 151.917364 213.53571 
L 151.993455 213.768725 
L 152.069545 214.207645 
L 152.221727 213.332053 
L 152.297818 213.380387 
L 152.373909 213.303701 
L 152.678273 211.145459 
L 152.754364 211.352497 
L 152.982636 210.225949 
L 153.058727 210.55154 
L 153.134818 211.625483 
L 153.210909 211.52506 
L 153.287 210.906058 
L 153.363091 211.369888 
L 154.276182 205.344856 
L 154.428364 207.350495 
L 154.884909 204.472722 
L 155.341455 201.246549 
L 155.417545 202.360348 
L 155.493636 201.972895 
L 155.798 200.188781 
L 156.178455 198.070126 
L 156.558909 195.516869 
L 156.635 195.904305 
L 156.711091 195.749987 
L 156.787182 196.089934 
L 157.015455 194.389029 
L 157.091545 194.986854 
L 157.167636 194.70741 
L 157.319818 193.889485 
L 157.395909 193.849239 
L 157.700273 191.787747 
L 157.776364 194.849918 
L 157.852455 194.309243 
L 157.928545 193.759598 
L 158.004636 194.874945 
L 158.080727 194.365618 
L 158.156818 193.876303 
L 158.232909 194.700407 
L 158.309 194.394535 
L 158.537273 192.966101 
L 158.765545 196.828719 
L 158.841636 196.505981 
L 158.917727 197.208177 
L 158.993818 197.069078 
L 159.602545 193.005219 
L 159.678636 193.901025 
L 159.754727 193.762856 
L 159.830818 194.042383 
L 159.906909 193.834848 
L 160.287364 191.310775 
L 160.363455 191.57872 
L 160.896091 189.160821 
L 160.972182 189.845707 
L 161.048273 189.325054 
L 161.124364 189.546417 
L 161.200455 189.813923 
L 161.352636 189.327761 
L 161.504818 189.82714 
L 161.657 189.207991 
L 161.733091 189.415459 
L 161.809182 188.903526 
L 161.885273 189.320013 
L 161.961364 188.914525 
L 162.265727 194.032864 
L 162.341818 193.694219 
L 162.798364 190.617319 
L 162.874455 190.935747 
L 162.950545 190.381985 
L 163.026636 193.077233 
L 163.102727 192.580397 
L 163.178818 192.031921 
L 163.254909 192.537909 
L 163.331 192.042198 
L 163.407091 193.005358 
L 163.559273 192.045312 
L 163.635364 192.214554 
L 163.711455 192.083263 
L 164.015818 190.166132 
L 164.091909 189.656021 
L 164.168 189.892042 
L 164.320182 189.37385 
L 164.396273 193.484355 
L 164.472364 192.99474 
L 164.548455 193.854632 
L 164.624545 193.457146 
L 164.928909 191.558659 
L 165.005 192.538811 
L 165.233273 191.158427 
L 165.385455 192.603602 
L 165.461545 193.368151 
L 165.994182 190.340818 
L 166.070273 191.1947 
L 166.146364 190.720912 
L 166.298545 190.959827 
L 166.907273 187.401243 
L 166.983364 186.993136 
L 167.059455 187.08604 
L 167.211636 186.429477 
L 167.363818 188.623765 
L 167.439909 188.108743 
L 167.516 187.855575 
L 167.668182 188.563906 
L 167.744273 188.322454 
L 167.820364 189.31753 
L 168.048636 187.915161 
L 168.124727 188.014656 
L 168.276909 188.250842 
L 168.353 189.613465 
L 168.429091 189.130359 
L 168.505182 189.252432 
L 168.809545 187.573817 
L 168.961727 188.621545 
L 169.037818 188.415794 
L 169.113909 189.014023 
L 169.266091 188.076876 
L 169.342182 189.395925 
L 169.418273 189.162082 
L 170.103091 185.107016 
L 170.179182 185.220157 
L 170.407455 183.962439 
L 170.483545 184.508968 
L 170.711818 183.239227 
L 170.940091 184.388141 
L 171.016182 184.107863 
L 171.092273 184.634855 
L 171.168364 186.057919 
L 171.244455 185.72193 
L 171.929273 181.937782 
L 172.081455 182.518406 
L 172.233636 181.724574 
L 172.309727 182.236243 
L 172.614091 180.721054 
L 172.690182 180.706521 
L 173.070636 178.612662 
L 173.146727 180.837954 
L 173.222818 180.513345 
L 173.527182 179.18637 
L 173.603273 179.346816 
L 173.679364 179.808641 
L 174.288091 176.661562 
L 174.592455 175.492885 
L 174.668545 176.655574 
L 174.744636 176.377723 
L 175.125091 174.402277 
L 175.201182 174.531682 
L 176.190364 171.018758 
L 176.266455 171.642307 
L 176.494727 170.34765 
L 176.646909 171.315716 
L 177.027364 169.558796 
L 177.103455 170.000542 
L 177.255636 169.185545 
L 177.331727 169.564233 
L 178.168727 165.396628 
L 178.473091 164.247711 
L 178.625273 165.45832 
L 178.701364 165.070992 
L 179.462273 161.5232 
L 179.538364 161.719322 
L 179.614455 161.652814 
L 179.690545 161.698143 
L 179.842727 165.194489 
L 179.918818 165.131065 
L 179.994909 164.721978 
L 180.071 165.04477 
L 180.451455 163.190765 
L 180.527545 165.573816 
L 180.603636 165.173315 
L 180.679727 166.467813 
L 180.755818 166.058623 
L 180.831909 165.65084 
L 180.908 166.62441 
L 180.984091 166.228147 
L 181.060182 165.82185 
L 181.288455 167.484508 
L 181.440636 166.951928 
L 181.516727 167.940347 
L 181.592818 167.532824 
L 181.745 166.873848 
L 181.821091 168.195569 
L 181.897182 168.08418 
L 182.353727 165.981699 
L 182.810273 164.147969 
L 182.886364 165.058273 
L 182.962455 167.479275 
L 183.038545 167.099887 
L 183.266818 166.201193 
L 183.342909 169.886674 
L 183.419 169.560873 
L 183.571182 172.464974 
L 183.723364 171.786812 
L 183.951636 176.765045 
L 184.560364 173.777695 
L 184.636455 174.636975 
L 184.712545 174.326632 
L 184.864727 173.570576 
L 184.940818 173.80274 
L 185.016909 173.431999 
L 185.093 173.659152 
L 185.473455 171.765454 
L 185.549545 171.993872 
L 185.625636 172.664145 
L 185.777818 171.900852 
L 185.853909 172.221727 
L 186.082182 171.035363 
L 186.158273 172.692852 
L 186.234364 172.298341 
L 186.538727 170.871579 
L 186.614818 173.389198 
L 186.690909 173.083078 
L 187.071364 171.318694 
L 187.147455 172.95365 
L 187.223545 172.590621 
L 187.299636 172.830729 
L 187.375727 172.442115 
L 187.451818 172.624053 
L 188.593182 167.921412 
L 188.669273 168.653454 
L 188.745364 168.523108 
L 188.821455 168.215475 
L 188.897545 168.9605 
L 189.125818 173.297939 
L 189.506273 171.989388 
L 189.582364 172.105911 
L 190.115 170.078688 
L 190.267182 170.311416 
L 190.952 167.59121 
L 191.104182 167.794992 
L 191.256364 167.300561 
L 191.332455 168.795605 
L 191.408545 168.433449 
L 191.484636 168.12569 
L 191.560727 168.76599 
L 191.712909 168.036115 
L 191.865091 169.852741 
L 192.473818 167.128454 
L 192.549909 169.565601 
L 192.626 169.275189 
L 192.854273 168.442317 
L 192.930364 168.526826 
L 194.3 162.906631 
L 194.452182 162.566006 
L 194.528273 162.634276 
L 194.680455 164.216235 
L 195.137 162.620601 
L 195.213091 163.556447 
L 195.289182 163.223577 
L 195.821818 161.267192 
L 196.050091 160.389311 
L 196.506636 158.432188 
L 196.582727 158.966766 
L 197.267545 156.288743 
L 197.343636 156.313211 
L 197.419727 160.145707 
L 197.495818 159.820925 
L 197.952364 158.305764 
L 198.180636 157.636978 
L 198.408909 159.901398 
L 198.637182 158.952011 
L 198.713273 159.449083 
L 198.865455 158.960523 
L 198.941545 161.523076 
L 199.017636 161.293027 
L 199.093727 161.789753 
L 199.778545 159.311265 
L 199.854636 159.307925 
L 200.006818 158.684322 
L 200.082909 161.779938 
L 200.159 161.465508 
L 200.843818 158.901011 
L 200.919909 160.150537 
L 200.996 159.98288 
L 201.072091 159.67214 
L 201.148182 159.860207 
L 201.224273 159.549749 
L 201.300364 161.469603 
L 201.376455 161.156324 
L 202.517818 156.657496 
L 202.593909 156.640078 
L 202.67 156.339995 
L 202.822182 157.909565 
L 202.898273 157.6991 
L 202.974364 157.759033 
L 203.050455 161.668798 
L 203.126545 161.3654 
L 203.735273 159.287585 
L 203.811364 161.399824 
L 203.887455 161.101744 
L 203.963545 160.811192 
L 204.039636 161.198531 
L 204.115727 160.900424 
L 204.191818 161.259649 
L 204.648364 159.504593 
L 204.724455 161.593187 
L 204.800545 161.322841 
L 204.876636 161.300244 
L 205.561455 158.760014 
L 205.637545 162.009427 
L 205.713636 161.728884 
L 205.865818 161.17658 
L 205.941909 162.239546 
L 206.018 162.03638 
L 206.398455 160.72734 
L 206.474545 161.04742 
L 206.855 159.747362 
L 207.311545 158.107301 
L 207.387636 161.120528 
L 207.463727 160.844123 
L 207.692 160.241134 
L 207.768091 160.541023 
L 207.920273 159.992814 
L 207.996364 160.308469 
L 208.300727 159.382019 
L 208.376818 160.376209 
L 208.452909 160.102042 
L 208.909455 158.48377 
L 208.985545 160.461597 
L 209.061636 160.190782 
L 209.594273 158.468692 
L 209.670364 158.742056 
L 209.746455 158.475225 
L 209.822545 161.39644 
L 209.898636 161.129845 
L 210.659545 158.620275 
L 210.735636 159.061355 
L 210.811727 158.800304 
L 210.887818 159.744184 
L 210.963909 159.48206 
L 212.029182 155.907618 
L 212.105273 156.142719 
L 214.007545 150.160663 
L 214.083636 151.014513 
L 214.159727 150.775059 
L 214.768455 148.892803 
L 214.844545 149.251479 
L 215.225 148.147975 
L 215.301091 151.458853 
L 215.377182 151.226642 
L 216.062 149.494542 
L 216.746818 147.670398 
L 216.822909 148.461466 
L 216.899 148.236561 
L 217.051182 148.731136 
L 217.127273 148.505793 
L 217.583818 147.212653 
L 217.659909 148.940607 
L 217.736 148.71683 
L 218.649091 146.344223 
L 218.801273 147.966082 
L 218.877364 147.744474 
L 219.638273 145.691839 
L 219.714364 145.838857 
L 219.942636 145.208446 
L 220.018727 145.9211 
L 220.094818 145.704262 
L 220.170909 145.488476 
L 220.247 145.635307 
L 221.464455 142.382895 
L 221.540545 147.843005 
L 221.616636 147.674921 
L 221.692727 147.840322 
L 221.844909 147.431506 
L 221.997091 148.77027 
L 222.073182 148.558705 
L 223.138455 145.867645 
L 223.290636 145.561342 
L 224.051545 143.849071 
L 224.203727 143.547571 
L 224.279818 144.170924 
L 224.355909 143.970094 
L 224.964636 142.424946 
L 225.116818 143.126463 
L 225.877727 141.187785 
L 226.029909 141.886469 
L 226.106 141.690916 
L 226.182091 141.804132 
L 226.866909 140.111519 
L 226.943 140.275855 
L 227.095182 139.92106 
L 227.171273 143.64044 
L 227.247364 143.450688 
L 227.475636 145.255638 
L 227.551727 145.06355 
L 228.084364 143.738804 
L 228.160455 145.14684 
L 228.236545 145.058661 
L 228.312636 145.860011 
L 228.388727 145.667557 
L 229.149636 143.887271 
L 229.225727 144.413561 
L 229.301818 144.224532 
L 230.214909 142.178438 
L 230.291 143.52081 
L 230.367091 143.33568 
L 230.443182 143.223668 
L 230.519273 143.725944 
L 230.595364 143.544622 
L 231.736727 140.878845 
L 231.888909 141.842042 
L 232.041091 144.632883 
L 232.117182 144.450506 
L 232.649818 143.160614 
L 232.725909 144.424464 
L 232.802 144.239285 
L 233.182455 143.528386 
L 233.258545 143.979915 
L 233.334636 143.795298 
L 234.323818 141.712446 
L 234.399909 142.147155 
L 234.476 141.96635 
L 235.084727 140.555492 
L 235.160818 141.747954 
L 235.236909 141.568474 
L 235.769545 140.544778 
L 236.073909 139.912988 
L 236.834818 138.41985 
L 236.910909 139.562232 
L 236.987 139.387527 
L 237.443545 138.351481 
L 237.519636 140.820287 
L 237.595727 140.646814 
L 238.432727 138.853555 
L 238.508818 142.001747 
L 238.584909 141.831466 
L 240.030636 138.831889 
L 240.106727 138.818303 
L 240.487182 138.150456 
L 240.563273 139.338253 
L 240.639364 139.173089 
L 242.161182 136.059264 
L 242.237273 136.392641 
L 242.313364 136.233523 
L 242.998182 134.868935 
L 243.074273 135.885422 
L 243.150364 135.857446 
L 243.454727 135.37042 
L 243.683 137.165376 
L 244.672182 135.124371 
L 244.748273 136.048216 
L 244.824364 135.889764 
L 244.976545 135.692344 
L 247.107091 131.621007 
L 247.183182 132.006962 
L 247.259273 131.855789 
L 247.335364 131.705012 
L 247.411455 133.954691 
L 247.487545 133.802816 
L 247.868 133.050228 
L 247.944091 135.28859 
L 248.020182 135.137036 
L 248.857182 133.594753 
L 248.933273 133.856563 
L 250.531182 131.022556 
L 251.444273 129.322495 
L 251.596455 130.946085 
L 251.672545 130.801767 
L 251.824727 130.51623 
L 251.900818 130.752941 
L 253.270455 128.291447 
L 253.346545 130.42258 
L 253.422636 130.281746 
L 253.574818 130.107125 
L 254.564 128.306807 
L 254.640091 130.413101 
L 254.716182 130.274895 
L 255.096636 129.592125 
L 255.172727 131.687533 
L 255.248818 131.617414 
L 256.390182 129.70206 
L 256.466273 132.464522 
L 256.542364 132.327967 
L 259.053364 128.051031 
L 259.205545 127.874091 
L 259.433818 127.518277 
L 259.509909 129.534801 
L 259.586 129.405873 
L 261.336091 126.55048 
L 261.412182 127.075459 
L 261.488273 126.950138 
L 262.173091 125.831726 
L 262.249182 126.00978 
L 263.010091 124.826384 
L 263.086182 125.315464 
L 263.162273 125.192749 
L 263.238364 125.365465 
L 264.075364 124.024634 
L 264.151455 125.959509 
L 264.227545 125.836922 
L 265.977636 123.176377 
L 266.053727 123.339968 
L 266.205909 123.10565 
L 266.282 123.52875 
L 266.358091 123.409974 
L 266.814636 122.72954 
L 266.890727 123.139639 
L 266.966818 123.02136 
L 267.347273 122.432956 
L 267.423364 122.590155 
L 267.499455 122.497772 
L 269.553909 119.475904 
L 269.63 119.833566 
L 269.706091 119.720252 
L 270.314818 118.842342 
L 270.619182 118.437566 
L 270.695273 122.98215 
L 270.771364 122.872775 
L 271.227909 122.231842 
L 271.304 124.52084 
L 271.380091 124.414915 
L 271.456182 124.30389 
L 271.532273 124.450861 
L 272.064909 123.680771 
L 272.141 125.940381 
L 272.217091 125.852422 
L 274.271545 122.906359 
L 274.347636 123.05359 
L 274.423727 124.833157 
L 274.499818 124.720488 
L 275.945545 122.700536 
L 276.097727 124.596755 
L 277.163 123.11158 
L 277.239091 125.18136 
L 277.315182 125.073297 
L 278.228273 123.844613 
L 278.304364 124.042152 
L 278.380455 123.959547 
L 279.521818 122.426252 
L 279.597909 127.114016 
L 279.674 127.061206 
L 282.032818 123.946711 
L 282.108909 124.080296 
L 284.163364 121.416966 
L 284.239455 123.205553 
L 284.315545 123.107652 
L 286.826545 119.95791 
L 286.902636 120.090366 
L 287.054818 119.903506 
L 287.130909 121.57392 
L 287.207 121.477545 
L 287.891818 120.614489 
L 287.967909 125.4309 
L 288.044 125.336086 
L 288.196182 125.148524 
L 288.272273 125.279869 
L 288.424455 125.093357 
L 288.500545 126.718449 
L 288.576636 126.623394 
L 288.881 126.246036 
L 288.957091 126.377236 
L 289.794091 125.34918 
L 289.870182 126.898856 
L 289.946273 126.803656 
L 291.468091 124.918416 
L 291.544182 125.04893 
L 294.968273 120.981709 
L 295.044364 121.115296 
L 295.120455 121.026111 
L 298.088 117.612782 
L 298.164091 117.748929 
L 298.240182 117.662081 
L 298.392364 117.479426 
L 298.468455 119.021764 
L 298.544545 118.954027 
L 301.359909 115.613535 
L 301.436 117.149619 
L 301.512091 117.06391 
L 302.425182 116.017227 
L 302.501273 116.155208 
L 302.577364 116.070035 
L 302.653455 117.599768 
L 302.729545 117.463909 
L 305.012273 114.902746 
L 305.088364 116.422821 
L 305.164455 116.340021 
L 310.186455 111.044022 
L 310.795182 110.36845 
L 311.023455 109.97886 
L 312.240909 108.767053 
L 312.317 113.893111 
L 312.393091 113.818639 
L 317.034636 109.429295 
L 317.339 109.200041 
L 319.241273 107.4941 
L 319.317364 107.757487 
L 319.393455 107.686849 
L 320.230455 106.824952 
L 320.306545 107.028769 
L 320.382636 106.955661 
L 321.371818 105.984986 
L 325.785091 101.953473 
L 326.165545 101.653917 
L 326.241636 103.1299 
L 326.317727 103.062155 
L 326.393818 102.994479 
L 326.469909 103.175365 
L 326.546 103.107914 
L 329.741818 100.338284 
L 329.970091 99.71868 
L 332.785455 97.355179 
L 332.861545 98.828716 
L 332.937636 98.765906 
L 333.774636 98.145514 
L 333.926818 98.536287 
L 334.002909 98.474211 
L 334.079 98.412531 
L 334.155091 98.608514 
L 334.231182 98.547044 
L 339.024909 94.581411 
L 339.101 99.9126 
L 339.177091 99.862077 
L 339.329273 99.340977 
L 341.231545 97.838199 
L 341.307636 98.047271 
L 341.383727 97.990823 
L 344.046909 96.046774 
L 344.123 97.520497 
L 344.199091 97.474282 
L 344.351273 96.927668 
L 344.427364 97.141754 
L 344.503455 97.087026 
L 345.797 96.155724 
L 346.025273 95.994429 
L 346.101364 96.211404 
L 346.177455 96.157866 
L 349.601545 93.688758 
L 349.753727 93.480201 
L 349.982 93.381606 
L 355.308364 89.827837 
L 355.536636 88.124454 
L 355.612727 88.242963 
L 356.525818 87.684934 
L 356.601909 89.142667 
L 356.678 89.092616 
L 357.058455 88.823289 
L 357.134545 90.292598 
L 357.210636 90.242793 
L 361.319545 87.571084 
L 361.395636 89.038713 
L 361.471727 88.991288 
L 365.352364 86.568911 
L 365.580636 86.317452 
L 365.808909 86.182012 
L 365.885 87.646804 
L 365.961091 87.601684 
L 370.754818 84.809653 
L 370.830909 85.055594 
L 370.907 85.013045 
L 372.885364 83.802254 
L 372.961455 84.050099 
L 373.037545 84.008598 
L 373.722364 83.612795 
L 373.798455 88.969998 
L 373.874545 88.928602 
L 373.950636 88.887242 
L 374.026727 90.343748 
L 374.102818 90.302328 
L 376.233364 89.089625 
L 376.309455 89.339707 
L 376.385545 89.299324 
L 377.450818 88.738738 
L 377.603 88.087256 
L 379.581364 87.089708 
L 379.657455 87.341939 
L 379.733545 87.302868 
L 380.114 87.108004 
L 380.190091 87.36184 
L 380.266182 87.324266 
L 380.874909 87.10776 
L 380.951 87.360832 
L 381.027091 87.331018 
L 383.690273 86.031502 
L 383.766364 91.343648 
L 383.842455 91.305873 
L 390.158 88.295034 
L 396.473545 85.479403 
L 396.701818 85.430175 
L 405.452273 81.680653 
L 405.528364 81.936009 
L 405.604455 81.905741 
L 413.517909 78.768036 
L 413.594 79.025708 
L 413.670091 78.997787 
L 414.354909 78.80065 
L 414.431 79.05809 
L 414.507091 79.03036 
L 420.213909 77.042148 
L 420.29 78.373327 
L 420.366091 78.343458 
L 425.692455 76.42882 
L 425.844636 74.051675 
L 431.779727 72.140755 
L 432.008 72.120406 
L 443.497727 68.633354 
L 452.324273 66.182882 
L 452.400364 65.487439 
L 452.476455 69.986543 
L 452.552545 69.966311 
L 458.715909 68.440013 
L 459.857273 68.164005 
L 459.857273 68.164005 
" clip-path="url(#p00ae8ea843)" style="fill: none; stroke: #ff7f0e; stroke-width: 2.5; stroke-linecap: square"/>
   </g>
   <g id="text_15">
    <!-- First-Order Coherence Difference $|g_1|$ vs Time ($|\alpha=\sqrt{10}\rangle$, $U=0$, $\gamma=1$) -->
    <g transform="translate(31.87 20.24) scale(0.16 -0.16)">
     <defs>
      <path id="STIXGeneral-Regular-46" d="M 3494 3322 
L 3334 3322 
Q 3264 3757 3094 3875 
Q 2925 3994 2349 3994 
L 1504 3994 
Q 1370 3994 1328 3946 
Q 1286 3898 1286 3744 
L 1286 2355 
L 2195 2355 
Q 2598 2355 2736 2470 
Q 2874 2586 2918 2963 
L 3066 2963 
L 3066 1472 
L 2918 1472 
Q 2880 1862 2745 1977 
Q 2611 2093 2195 2093 
L 1286 2093 
L 1286 717 
Q 1286 352 1392 246 
Q 1498 141 1869 122 
L 1869 0 
L 70 0 
L 70 122 
Q 435 147 534 259 
Q 634 371 634 787 
L 634 3526 
Q 634 3878 538 3984 
Q 442 4090 77 4115 
L 77 4237 
L 3462 4237 
L 3494 3322 
z
" transform="scale(0.015625)"/>
      <path id="STIXGeneral-Regular-73" d="M 998 1926 
L 1664 1523 
Q 1984 1331 2105 1164 
Q 2227 998 2227 736 
Q 2227 416 1961 176 
Q 1696 -64 1331 -64 
Q 1030 -64 864 -6 
Q 691 51 570 51 
Q 461 51 416 -26 
L 333 -26 
L 333 979 
L 435 979 
Q 538 512 730 294 
Q 922 77 1248 77 
Q 1485 77 1632 211 
Q 1779 346 1779 550 
Q 1779 845 1440 1030 
L 1094 1222 
Q 326 1651 326 2150 
Q 326 2522 566 2730 
Q 806 2938 1210 2938 
Q 1491 2938 1638 2867 
Q 1754 2816 1818 2816 
Q 1862 2816 1920 2880 
L 1990 2880 
L 2022 2010 
L 1926 2010 
Q 1818 2445 1654 2621 
Q 1491 2797 1203 2797 
Q 986 2797 854 2688 
Q 723 2579 723 2362 
Q 723 2253 796 2128 
Q 870 2003 998 1926 
z
" transform="scale(0.015625)"/>
      <path id="STIXGeneral-Regular-2d" d="M 1824 1242 
L 250 1242 
L 250 1645 
L 1824 1645 
L 1824 1242 
z
" transform="scale(0.015625)"/>
      <path id="STIXGeneral-Regular-4f" d="M 4403 2118 
Q 4403 1133 3820 521 
Q 3238 -90 2310 -90 
Q 1376 -90 797 524 
Q 218 1139 218 2138 
Q 218 3110 797 3718 
Q 1376 4326 2310 4326 
Q 3245 4326 3824 3702 
Q 4403 3078 4403 2118 
z
M 3674 2157 
Q 3674 2701 3520 3133 
Q 3366 3565 3091 3795 
Q 2733 4096 2304 4096 
Q 1760 4096 1389 3667 
Q 1184 3437 1065 3011 
Q 947 2586 947 2125 
Q 947 960 1523 429 
Q 1837 141 2317 141 
Q 2816 141 3142 448 
Q 3674 960 3674 2157 
z
" transform="scale(0.015625)"/>
      <path id="STIXGeneral-Regular-43" d="M 3930 838 
L 4051 723 
Q 3482 -90 2304 -90 
Q 1376 -90 794 480 
Q 179 1082 179 2080 
Q 179 3014 755 3661 
Q 1357 4326 2310 4326 
Q 2720 4326 3072 4230 
Q 3475 4115 3514 4115 
Q 3725 4115 3782 4326 
L 3910 4326 
L 3968 2874 
L 3821 2874 
Q 3718 3334 3488 3584 
Q 3034 4070 2458 4070 
Q 1747 4070 1334 3548 
Q 922 3027 922 2182 
Q 922 1152 1382 653 
Q 1811 192 2522 192 
Q 2944 192 3251 339 
Q 3558 486 3930 838 
z
" transform="scale(0.015625)"/>
      <path id="STIXGeneral-Regular-68" d="M 3117 0 
L 1760 0 
L 1760 96 
Q 2042 128 2118 224 
Q 2195 320 2195 653 
L 2195 1920 
Q 2195 2598 1722 2598 
Q 1530 2598 1370 2508 
Q 1210 2419 1005 2195 
L 1005 653 
Q 1005 320 1081 224 
Q 1158 128 1440 96 
L 1440 0 
L 58 0 
L 58 96 
Q 333 134 400 224 
Q 467 314 467 653 
L 467 3667 
Q 467 3872 406 3933 
Q 346 3994 141 3994 
Q 83 3994 64 3987 
L 64 4090 
L 237 4141 
Q 730 4288 973 4371 
L 1005 4352 
L 1005 2406 
Q 1229 2694 1446 2819 
Q 1664 2944 1946 2944 
Q 2733 2944 2733 1926 
L 2733 653 
Q 2733 320 2793 233 
Q 2854 147 3117 96 
L 3117 0 
z
" transform="scale(0.015625)"/>
      <path id="STIXGeneral-Regular-44" d="M 102 4237 
L 1830 4237 
Q 3078 4237 3750 3654 
Q 4384 3110 4384 2138 
Q 4384 966 3514 410 
Q 2880 0 1901 0 
L 102 0 
L 102 122 
Q 474 147 570 252 
Q 666 358 666 736 
L 666 3520 
Q 666 3891 570 3990 
Q 474 4090 102 4115 
L 102 4237 
z
M 1318 3731 
L 1318 538 
Q 1318 365 1379 301 
Q 1440 237 1626 237 
Q 2125 237 2432 307 
Q 2739 378 3021 570 
Q 3686 1018 3686 2099 
Q 3686 3027 3078 3558 
Q 2803 3802 2476 3901 
Q 2150 4000 1658 4000 
Q 1472 4000 1395 3942 
Q 1318 3885 1318 3731 
z
" transform="scale(0.015625)"/>
      <path id="STIXGeneral-Regular-76" d="M 3053 2880 
L 3053 2784 
Q 2906 2771 2835 2688 
Q 2765 2605 2637 2285 
L 1818 230 
Q 1690 -90 1638 -90 
Q 1587 -90 1523 77 
Q 1510 96 1497 141 
Q 1485 186 1472 211 
L 704 2048 
Q 499 2534 403 2652 
Q 307 2771 122 2784 
L 122 2880 
L 1376 2880 
L 1376 2784 
Q 1210 2771 1146 2732 
Q 1082 2694 1082 2611 
Q 1082 2509 1139 2368 
L 1792 730 
L 2426 2387 
Q 2464 2483 2464 2579 
Q 2464 2758 2163 2784 
L 2163 2880 
L 3053 2880 
z
" transform="scale(0.015625)"/>
      <path id="STIXGeneral-Regular-28" d="M 1946 -1030 
L 1869 -1133 
Q 1126 -710 716 32 
Q 307 774 307 1613 
Q 307 3386 1888 4326 
L 1946 4224 
Q 1293 3667 1075 3126 
Q 858 2586 858 1632 
Q 858 685 1082 96 
Q 1306 -493 1946 -1030 
z
" transform="scale(0.015625)"/>
      <path id="Cmmi10-ae" d="M 1288 -72 
Q 984 -72 748 72 
Q 513 216 384 459 
Q 256 703 256 1013 
Q 256 1447 498 1872 
Q 741 2297 1142 2562 
Q 1544 2828 1984 2828 
Q 2309 2828 2556 2658 
Q 2803 2488 2931 2205 
Q 3059 1922 3059 1600 
L 3066 1172 
Q 3284 1475 3436 1801 
Q 3588 2128 3669 2478 
Q 3681 2516 3719 2516 
L 3794 2516 
Q 3853 2516 3853 2456 
Q 3853 2450 3847 2438 
Q 3772 2144 3659 1873 
Q 3547 1603 3395 1350 
Q 3244 1097 3066 891 
Q 3066 97 3250 97 
Q 3369 97 3445 167 
Q 3522 238 3580 341 
Q 3638 444 3653 447 
L 3731 447 
Q 3781 447 3781 384 
Q 3781 225 3598 76 
Q 3416 -72 3238 -72 
Q 3006 -72 2853 78 
Q 2700 228 2644 469 
Q 2344 213 1994 70 
Q 1644 -72 1288 -72 
z
M 1300 97 
Q 1984 97 2613 659 
Q 2609 697 2603 751 
Q 2597 806 2597 813 
L 2597 1503 
Q 2597 2663 1972 2663 
Q 1597 2663 1315 2342 
Q 1034 2022 892 1576 
Q 750 1131 750 763 
Q 750 484 892 290 
Q 1034 97 1300 97 
z
" transform="scale(0.015625)"/>
      <path id="Cmr10-3d" d="M 481 850 
Q 428 850 393 890 
Q 359 931 359 978 
Q 359 1031 393 1068 
Q 428 1106 481 1106 
L 4500 1106 
Q 4547 1106 4581 1068 
Q 4616 1031 4616 978 
Q 4616 931 4581 890 
Q 4547 850 4500 850 
L 481 850 
z
M 481 2094 
Q 428 2094 393 2131 
Q 359 2169 359 2222 
Q 359 2269 393 2309 
Q 428 2350 481 2350 
L 4500 2350 
Q 4547 2350 4581 2309 
Q 4616 2269 4616 2222 
Q 4616 2169 4581 2131 
Q 4547 2094 4500 2094 
L 481 2094 
z
" transform="scale(0.015625)"/>
      <path id="Cmex10-70" d="M 2713 -7425 
L 1269 -4063 
L 819 -4409 
L 703 -4294 
L 1619 -3584 
L 2969 -6725 
L 6291 197 
Q 6322 256 6400 256 
Q 6453 256 6490 218 
Q 6528 181 6528 128 
Q 6528 97 6522 84 
L 2950 -7366 
Q 2925 -7425 2853 -7425 
L 2713 -7425 
z
" transform="scale(0.015625)"/>
      <path id="Cmr10-30" d="M 1600 -141 
Q 816 -141 533 504 
Q 250 1150 250 2041 
Q 250 2597 351 3087 
Q 453 3578 754 3920 
Q 1056 4263 1600 4263 
Q 2022 4263 2290 4056 
Q 2559 3850 2700 3523 
Q 2841 3197 2892 2823 
Q 2944 2450 2944 2041 
Q 2944 1491 2842 1011 
Q 2741 531 2444 195 
Q 2147 -141 1600 -141 
z
M 1600 25 
Q 1956 25 2131 390 
Q 2306 756 2347 1200 
Q 2388 1644 2388 2144 
Q 2388 2625 2347 3031 
Q 2306 3438 2132 3767 
Q 1959 4097 1600 4097 
Q 1238 4097 1063 3765 
Q 888 3434 847 3029 
Q 806 2625 806 2144 
Q 806 1788 823 1472 
Q 841 1156 916 820 
Q 991 484 1158 254 
Q 1325 25 1600 25 
z
" transform="scale(0.015625)"/>
      <path id="Cmex10-ae" d="M 500 -7297 
Q 500 -7263 513 -7250 
L 2119 -3584 
L 513 84 
Q 500 97 500 128 
Q 500 175 537 215 
Q 575 256 628 256 
Q 703 256 750 178 
L 2381 -3541 
Q 2388 -3553 2388 -3584 
Q 2388 -3616 2381 -3634 
L 750 -7347 
Q 700 -7425 628 -7425 
Q 575 -7425 537 -7384 
Q 500 -7344 500 -7297 
z
" transform="scale(0.015625)"/>
      <path id="STIXGeneral-Regular-2c" d="M 531 -902 
L 467 -781 
Q 998 -422 998 -96 
Q 998 -13 909 -13 
Q 883 -13 822 -25 
Q 762 -38 723 -38 
Q 352 -38 352 288 
Q 352 454 457 553 
Q 563 653 736 653 
Q 954 653 1101 496 
Q 1248 339 1248 96 
Q 1248 -198 1053 -473 
Q 858 -749 531 -902 
z
" transform="scale(0.015625)"/>
      <path id="Cmmi10-55" d="M 941 891 
Q 941 656 1033 472 
Q 1125 288 1300 186 
Q 1475 84 1709 84 
Q 1984 84 2245 196 
Q 2506 309 2715 509 
Q 2925 709 3073 965 
Q 3222 1222 3284 1472 
L 3859 3781 
Q 3872 3850 3872 3878 
Q 3872 4147 3378 4147 
Q 3316 4147 3316 4231 
Q 3338 4313 3350 4342 
Q 3363 4372 3425 4372 
L 4813 4372 
Q 4841 4372 4859 4344 
Q 4878 4316 4878 4288 
Q 4878 4284 4865 4239 
Q 4853 4194 4836 4170 
Q 4819 4147 4794 4147 
Q 4181 4147 4084 3756 
L 3506 1447 
Q 3434 1147 3264 864 
Q 3094 581 2845 351 
Q 2597 122 2298 -9 
Q 2000 -141 1691 -141 
Q 1338 -141 1045 14 
Q 753 169 587 447 
Q 422 725 422 1088 
Q 422 1297 469 1472 
L 1088 3956 
Q 1100 4019 1100 4044 
Q 1100 4113 1025 4122 
Q 903 4147 563 4147 
Q 500 4147 500 4231 
Q 522 4313 534 4342 
Q 547 4372 609 4372 
L 2328 4372 
Q 2394 4372 2394 4288 
Q 2391 4272 2381 4234 
Q 2372 4197 2356 4172 
Q 2341 4147 2309 4147 
Q 1919 4147 1766 4103 
Q 1681 4072 1644 3928 
L 1025 1447 
Q 941 1109 941 891 
z
" transform="scale(0.015625)"/>
      <path id="Cmmi10-b0" d="M 1888 -1253 
Q 1888 -1109 1952 -834 
Q 2016 -559 2108 -248 
Q 2200 63 2266 263 
Q 2291 581 2291 744 
Q 2291 1156 2209 1511 
Q 2128 1866 1903 2105 
Q 1678 2344 1275 2344 
Q 1063 2344 852 2253 
Q 641 2163 489 2000 
Q 338 1838 281 1631 
Q 269 1594 231 1594 
L 153 1594 
Q 103 1594 103 1650 
L 103 1672 
Q 175 1959 358 2226 
Q 541 2494 805 2661 
Q 1069 2828 1363 2828 
Q 1663 2828 1881 2625 
Q 2100 2422 2231 2109 
Q 2363 1797 2420 1478 
Q 2478 1159 2478 878 
Q 2800 1753 3200 2534 
L 3297 2741 
Q 3316 2759 3341 2759 
L 3419 2759 
Q 3469 2759 3469 2700 
Q 3469 2688 3456 2663 
L 3359 2463 
Q 3081 1909 2848 1340 
Q 2616 772 2450 244 
Q 2425 28 2354 -347 
Q 2284 -722 2184 -1045 
Q 2084 -1369 1984 -1381 
Q 1888 -1381 1888 -1253 
z
" transform="scale(0.015625)"/>
      <path id="STIXGeneral-Regular-29" d="M 186 4224 
L 262 4326 
Q 992 3891 1408 3148 
Q 1824 2406 1824 1581 
Q 1824 -166 243 -1133 
L 186 -1030 
Q 845 -486 1059 54 
Q 1274 595 1274 1562 
Q 1274 2534 1059 3120 
Q 845 3706 186 4224 
z
" transform="scale(0.015625)"/>
     </defs>
     <use xlink:href="#STIXGeneral-Regular-46" transform="translate(0 0.15625)"/>
     <use xlink:href="#STIXGeneral-Regular-69" transform="translate(55.599991 0.15625)"/>
     <use xlink:href="#STIXGeneral-Regular-72" transform="translate(83.399979 0.15625)"/>
     <use xlink:href="#STIXGeneral-Regular-73" transform="translate(116.699966 0.15625)"/>
     <use xlink:href="#STIXGeneral-Regular-74" transform="translate(155.59996 0.15625)"/>
     <use xlink:href="#STIXGeneral-Regular-2d" transform="translate(183.399948 0.15625)"/>
     <use xlink:href="#STIXGeneral-Regular-4f" transform="translate(216.699936 0.15625)"/>
     <use xlink:href="#STIXGeneral-Regular-72" transform="translate(288.899918 0.15625)"/>
     <use xlink:href="#STIXGeneral-Regular-64" transform="translate(322.199905 0.15625)"/>
     <use xlink:href="#STIXGeneral-Regular-65" transform="translate(372.19989 0.15625)"/>
     <use xlink:href="#STIXGeneral-Regular-72" transform="translate(416.599884 0.15625)"/>
     <use xlink:href="#STIXGeneral-Regular-20" transform="translate(449.899872 0.15625)"/>
     <use xlink:href="#STIXGeneral-Regular-43" transform="translate(474.899857 0.15625)"/>
     <use xlink:href="#STIXGeneral-Regular-6f" transform="translate(541.599854 0.15625)"/>
     <use xlink:href="#STIXGeneral-Regular-68" transform="translate(591.599838 0.15625)"/>
     <use xlink:href="#STIXGeneral-Regular-65" transform="translate(641.599823 0.15625)"/>
     <use xlink:href="#STIXGeneral-Regular-72" transform="translate(685.999817 0.15625)"/>
     <use xlink:href="#STIXGeneral-Regular-65" transform="translate(719.299805 0.15625)"/>
     <use xlink:href="#STIXGeneral-Regular-6e" transform="translate(763.699799 0.15625)"/>
     <use xlink:href="#STIXGeneral-Regular-63" transform="translate(813.699783 0.15625)"/>
     <use xlink:href="#STIXGeneral-Regular-65" transform="translate(858.099777 0.15625)"/>
     <use xlink:href="#STIXGeneral-Regular-20" transform="translate(902.499771 0.15625)"/>
     <use xlink:href="#STIXGeneral-Regular-44" transform="translate(927.499756 0.15625)"/>
     <use xlink:href="#STIXGeneral-Regular-69" transform="translate(999.699738 0.15625)"/>
     <use xlink:href="#STIXGeneral-Regular-66" transform="translate(1027.499725 0.15625)"/>
     <use xlink:href="#STIXGeneral-Regular-66" transform="translate(1060.799713 0.15625)"/>
     <use xlink:href="#STIXGeneral-Regular-65" transform="translate(1094.099701 0.15625)"/>
     <use xlink:href="#STIXGeneral-Regular-72" transform="translate(1138.499695 0.15625)"/>
     <use xlink:href="#STIXGeneral-Regular-65" transform="translate(1171.799683 0.15625)"/>
     <use xlink:href="#STIXGeneral-Regular-6e" transform="translate(1216.199677 0.15625)"/>
     <use xlink:href="#STIXGeneral-Regular-63" transform="translate(1266.199661 0.15625)"/>
     <use xlink:href="#STIXGeneral-Regular-65" transform="translate(1310.599655 0.15625)"/>
     <use xlink:href="#STIXGeneral-Regular-20" transform="translate(1354.999649 0.15625)"/>
     <use xlink:href="#Cmsy10-6a" transform="translate(1379.999634 0.15625)"/>
     <use xlink:href="#Cmmi10-67" transform="translate(1407.685181 0.15625)"/>
     <use xlink:href="#Cmr10-31" transform="translate(1455.390259 -16.85) scale(0.7)"/>
     <use xlink:href="#Cmsy10-6a" transform="translate(1496.767603 0.15625)"/>
     <use xlink:href="#STIXGeneral-Regular-20" transform="translate(1524.453149 0.15625)"/>
     <use xlink:href="#STIXGeneral-Regular-76" transform="translate(1549.453134 0.15625)"/>
     <use xlink:href="#STIXGeneral-Regular-73" transform="translate(1599.453119 0.15625)"/>
     <use xlink:href="#STIXGeneral-Regular-20" transform="translate(1638.353113 0.15625)"/>
     <use xlink:href="#STIXGeneral-Regular-54" transform="translate(1663.353098 0.15625)"/>
     <use xlink:href="#STIXGeneral-Regular-69" transform="translate(1724.453088 0.15625)"/>
     <use xlink:href="#STIXGeneral-Regular-6d" transform="translate(1752.253076 0.15625)"/>
     <use xlink:href="#STIXGeneral-Regular-65" transform="translate(1830.053064 0.15625)"/>
     <use xlink:href="#STIXGeneral-Regular-20" transform="translate(1874.453058 0.15625)"/>
     <use xlink:href="#STIXGeneral-Regular-28" transform="translate(1899.453043 0.15625)"/>
     <use xlink:href="#Cmsy10-6a" transform="translate(1932.75303 0.15625)"/>
     <use xlink:href="#Cmmi10-ae" transform="translate(1960.438577 0.15625)"/>
     <use xlink:href="#Cmr10-3d" transform="translate(2041.913187 0.15625)"/>
     <use xlink:href="#Cmex10-70" transform="translate(2137.157327 94.65625) scale(0.833746)"/>
     <use xlink:href="#Cmr10-31" transform="translate(2233.016702 0.140625)"/>
     <use xlink:href="#Cmr10-30" transform="translate(2283.016702 0.140625)"/>
     <use xlink:href="#Cmex10-ae" transform="translate(2345.516702 93.497396)"/>
     <use xlink:href="#STIXGeneral-Regular-2c" transform="translate(2392.733499 0.15625)"/>
     <use xlink:href="#STIXGeneral-Regular-20" transform="translate(2417.733484 0.15625)"/>
     <use xlink:href="#Cmmi10-55" transform="translate(2442.733469 0.15625)"/>
     <use xlink:href="#Cmr10-3d" transform="translate(2528.504953 0.15625)"/>
     <use xlink:href="#Cmr10-30" transform="translate(2623.749094 0.15625)"/>
     <use xlink:href="#STIXGeneral-Regular-2c" transform="translate(2673.749094 0.15625)"/>
     <use xlink:href="#STIXGeneral-Regular-20" transform="translate(2698.749078 0.15625)"/>
     <use xlink:href="#Cmmi10-b0" transform="translate(2723.749063 0.15625)"/>
     <use xlink:href="#Cmr10-3d" transform="translate(2793.016641 0.15625)"/>
     <use xlink:href="#Cmr10-31" transform="translate(2888.260782 0.15625)"/>
     <use xlink:href="#STIXGeneral-Regular-29" transform="translate(2938.260782 0.15625)"/>
     <path d="M 2220.516702 91.5 
L 2220.516702 97.75 
L 2345.516702 97.75 
L 2345.516702 91.5 
L 2220.516702 91.5 
z
"/>
    </g>
   </g>
   <g id="line2d_126">
    <path d="M 79.402727 301.029825 
L 85.718273 290.392106 
L 92.033818 280.186834 
L 98.425455 270.280915 
L 104.817091 260.782429 
L 111.284818 251.568479 
L 117.752545 242.737918 
L 124.296364 234.17735 
L 130.916273 225.883792 
L 137.536182 217.94327 
L 144.232182 210.255278 
L 151.004273 202.816467 
L 157.852455 195.623267 
L 164.776727 188.671904 
L 171.777091 181.958415 
L 178.853545 175.478667 
L 186.006091 169.228371 
L 193.310818 163.141183 
L 200.691636 157.280296 
L 208.148545 151.640716 
L 215.757636 146.163941 
L 223.518909 140.852712 
L 231.356273 135.757348 
L 239.345818 130.826225 
L 247.487545 126.060548 
L 255.857545 121.419928 
L 264.379727 116.950005 
L 273.054091 112.650175 
L 281.956727 108.484793 
L 291.087636 104.458349 
L 300.446818 100.574473 
L 310.034273 96.835956 
L 319.926091 93.217844 
L 330.122273 89.726563 
L 340.622818 86.367392 
L 351.427727 83.1445 
L 362.613091 80.04063 
L 374.178909 77.062298 
L 386.201273 74.197216 
L 398.680182 71.453292 
L 411.691727 68.822038 
L 425.235909 66.311856 
L 439.388818 63.9169 
L 454.150455 61.645203 
L 459.857273 60.824401 
L 459.857273 60.824401 
" clip-path="url(#p00ae8ea843)" style="fill: none; stroke: #1f77b4; stroke-width: 2.6; stroke-linecap: square"/>
   </g>
   <g id="legend_1">
    <g id="line2d_127">
     <path d="M 371.265625 267.205656 
L 382.265625 267.205656 
L 393.265625 267.205656 
" style="fill: none; stroke: #1f77b4; stroke-width: 2.6; stroke-linecap: square"/>
    </g>
    <g id="text_16">
     <!-- Density Matrix -->
     <g transform="translate(402.065625 271.055656) scale(0.11 -0.11)">
      <defs>
       <path id="STIXGeneral-Regular-79" d="M 3040 2880 
L 3040 2784 
Q 2925 2771 2854 2700 
Q 2784 2630 2720 2458 
L 1760 -160 
Q 1510 -838 1257 -1116 
Q 1005 -1395 640 -1395 
Q 435 -1395 313 -1289 
Q 192 -1184 192 -1024 
Q 192 -902 272 -816 
Q 352 -730 467 -730 
Q 653 -730 800 -813 
Q 883 -858 966 -858 
Q 1101 -858 1286 -576 
Q 1376 -448 1459 -211 
Q 1542 26 1542 115 
Q 1542 198 1274 762 
L 429 2566 
Q 346 2752 90 2790 
L 90 2880 
L 1402 2880 
L 1402 2784 
Q 1197 2778 1117 2739 
Q 1037 2701 1037 2611 
Q 1037 2541 1120 2349 
L 1837 749 
L 2458 2515 
Q 2483 2573 2483 2630 
Q 2483 2784 2189 2784 
L 2189 2880 
L 3040 2880 
z
" transform="scale(0.015625)"/>
       <path id="STIXGeneral-Regular-4d" d="M 5530 0 
L 3738 0 
L 3738 122 
Q 4115 147 4214 265 
Q 4314 384 4314 787 
L 4314 3661 
L 2682 0 
L 2592 0 
L 979 3514 
L 979 966 
Q 979 448 1088 294 
Q 1197 141 1574 122 
L 1574 0 
L 77 0 
L 77 122 
Q 358 141 480 205 
Q 602 269 650 432 
Q 698 595 698 966 
L 698 3514 
Q 698 3878 589 3984 
Q 480 4090 90 4115 
L 90 4237 
L 1357 4237 
L 2835 1024 
L 4250 4237 
L 5523 4237 
L 5523 4115 
Q 5178 4109 5072 3993 
Q 4966 3878 4966 3520 
L 4966 717 
Q 4966 378 5072 262 
Q 5178 147 5530 122 
L 5530 0 
z
" transform="scale(0.015625)"/>
      </defs>
      <use xlink:href="#STIXGeneral-Regular-44"/>
      <use xlink:href="#STIXGeneral-Regular-65" transform="translate(72.199982 0)"/>
      <use xlink:href="#STIXGeneral-Regular-6e" transform="translate(116.599976 0)"/>
      <use xlink:href="#STIXGeneral-Regular-73" transform="translate(166.59996 0)"/>
      <use xlink:href="#STIXGeneral-Regular-69" transform="translate(205.499954 0)"/>
      <use xlink:href="#STIXGeneral-Regular-74" transform="translate(233.299942 0)"/>
      <use xlink:href="#STIXGeneral-Regular-79" transform="translate(261.09993 0)"/>
      <use xlink:href="#STIXGeneral-Regular-20" transform="translate(311.099915 0)"/>
      <use xlink:href="#STIXGeneral-Regular-4d" transform="translate(336.099899 0)"/>
      <use xlink:href="#STIXGeneral-Regular-61" transform="translate(424.999893 0)"/>
      <use xlink:href="#STIXGeneral-Regular-74" transform="translate(469.399887 0)"/>
      <use xlink:href="#STIXGeneral-Regular-72" transform="translate(497.199875 0)"/>
      <use xlink:href="#STIXGeneral-Regular-69" transform="translate(530.499863 0)"/>
      <use xlink:href="#STIXGeneral-Regular-78" transform="translate(558.29985 0)"/>
     </g>
    </g>
    <g id="line2d_128">
     <path d="M 371.265625 282.803312 
L 382.265625 282.803312 
L 393.265625 282.803312 
" style="fill: none; stroke: #ff7f0e; stroke-width: 2.5; stroke-linecap: square"/>
    </g>
    <g id="text_17">
     <!-- Monte Carlo -->
     <g transform="translate(402.065625 286.653312) scale(0.11 -0.11)">
      <defs>
       <path id="STIXGeneral-Regular-6c" d="M 1645 0 
L 134 0 
L 134 96 
Q 435 122 531 221 
Q 627 320 627 589 
L 627 3590 
Q 627 3821 569 3910 
Q 512 4000 358 4000 
Q 224 4000 122 3987 
L 122 4090 
Q 730 4237 1133 4371 
L 1165 4346 
L 1165 557 
Q 1165 288 1254 201 
Q 1344 115 1645 96 
L 1645 0 
z
" transform="scale(0.015625)"/>
      </defs>
      <use xlink:href="#STIXGeneral-Regular-4d"/>
      <use xlink:href="#STIXGeneral-Regular-6f" transform="translate(88.899994 0)"/>
      <use xlink:href="#STIXGeneral-Regular-6e" transform="translate(138.899979 0)"/>
      <use xlink:href="#STIXGeneral-Regular-74" transform="translate(188.899963 0)"/>
      <use xlink:href="#STIXGeneral-Regular-65" transform="translate(216.699951 0)"/>
      <use xlink:href="#STIXGeneral-Regular-20" transform="translate(261.099945 0)"/>
      <use xlink:href="#STIXGeneral-Regular-43" transform="translate(286.09993 0)"/>
      <use xlink:href="#STIXGeneral-Regular-61" transform="translate(352.799927 0)"/>
      <use xlink:href="#STIXGeneral-Regular-72" transform="translate(397.199921 0)"/>
      <use xlink:href="#STIXGeneral-Regular-6c" transform="translate(430.499908 0)"/>
      <use xlink:href="#STIXGeneral-Regular-6f" transform="translate(458.299896 0)"/>
     </g>
    </g>
    <g id="line2d_129">
     <path d="M 371.265625 298.390656 
L 382.265625 298.390656 
L 393.265625 298.390656 
" style="fill: none; stroke: #2ca02c; stroke-width: 2.7; stroke-linecap: square"/>
    </g>
    <g id="text_18">
     <!-- Positive-P -->
     <g transform="translate(402.065625 302.240656) scale(0.11 -0.11)">
      <defs>
       <path id="STIXGeneral-Regular-50" d="M 102 4237 
L 1760 4237 
Q 2669 4237 3149 3834 
Q 3469 3565 3469 3072 
Q 3469 2560 3104 2234 
Q 2835 1990 2553 1916 
Q 2272 1843 1734 1843 
Q 1549 1843 1293 1862 
L 1293 717 
Q 1293 352 1398 246 
Q 1504 141 1894 122 
L 1894 0 
L 102 0 
L 102 122 
Q 474 147 557 256 
Q 640 365 640 781 
L 640 3526 
Q 640 3885 547 3987 
Q 454 4090 102 4115 
L 102 4237 
z
M 1293 3770 
L 1293 2118 
Q 1510 2099 1683 2099 
Q 2202 2099 2486 2352 
Q 2771 2605 2771 3040 
Q 2771 3558 2476 3779 
Q 2182 4000 1517 4000 
Q 1382 4000 1337 3952 
Q 1293 3904 1293 3770 
z
" transform="scale(0.015625)"/>
      </defs>
      <use xlink:href="#STIXGeneral-Regular-50"/>
      <use xlink:href="#STIXGeneral-Regular-6f" transform="translate(55.699997 0)"/>
      <use xlink:href="#STIXGeneral-Regular-73" transform="translate(105.699982 0)"/>
      <use xlink:href="#STIXGeneral-Regular-69" transform="translate(144.599976 0)"/>
      <use xlink:href="#STIXGeneral-Regular-74" transform="translate(172.399963 0)"/>
      <use xlink:href="#STIXGeneral-Regular-69" transform="translate(200.199951 0)"/>
      <use xlink:href="#STIXGeneral-Regular-76" transform="translate(227.999939 0)"/>
      <use xlink:href="#STIXGeneral-Regular-65" transform="translate(277.999924 0)"/>
      <use xlink:href="#STIXGeneral-Regular-2d" transform="translate(322.399918 0)"/>
      <use xlink:href="#STIXGeneral-Regular-50" transform="translate(355.699905 0)"/>
     </g>
    </g>
   </g>
  </g>
 </g>
 <defs>
  <clipPath id="p00ae8ea843">
   <rect x="60.38" y="26.24" width="418.5" height="288.288"/>
  </clipPath>
 </defs>
</svg>
