<?xml version="1.0" encoding="utf-8" standalone="no"?>
<!DOCTYPE svg PUBLIC "-//W3C//DTD SVG 1.1//EN"
  "http://www.w3.org/Graphics/SVG/1.1/DTD/svg11.dtd">
<svg xmlns:xlink="http://www.w3.org/1999/xlink" width="460.08pt" height="349.028pt" viewBox="0 0 460.08 349.028" xmlns="http://www.w3.org/2000/svg" version="1.1">
 <metadata>
  <rdf:RDF xmlns:dc="http://purl.org/dc/elements/1.1/" xmlns:cc="http://creativecommons.org/ns#" xmlns:rdf="http://www.w3.org/1999/02/22-rdf-syntax-ns#">
   <cc:Work>
    <dc:type rdf:resource="http://purl.org/dc/dcmitype/StillImage"/>
    <dc:date>2026-04-18T18:09:41.122217</dc:date>
    <dc:format>image/svg+xml</dc:format>
    <dc:creator>
     <cc:Agent>
      <dc:title>Matplotlib v3.10.8, https://matplotlib.org/</dc:title>
     </cc:Agent>
    </dc:creator>
   </cc:Work>
  </rdf:RDF>
 </metadata>
 <defs>
  <style type="text/css">*{stroke-linejoin: round; stroke-linecap: butt}</style>
 </defs>
 <g id="figure_1">
  <g id="patch_1">
   <path d="M 0 349.028 
L 460.08 349.028 
L 460.08 0 
L 0 0 
z
" style="fill: #ffffff"/>
  </g>
  <g id="axes_1">
   <g id="patch_2">
    <path d="M 37.98 314.528 
L 456.48 314.528 
L 456.48 26.24 
L 37.98 26.24 
z
" style="fill: #ffffff"/>
   </g>
   <g id="matplotlib.axis_1">
    <g id="xtick_1">
     <g id="line2d_1">
      <path d="M 57.002727 314.528 
L 57.002727 26.24 
" clip-path="url(#pb5a5a87351)" style="fill: none; stroke: #b0b0b0; stroke-opacity: 0.35; stroke-width: 0.5; stroke-linecap: square"/>
     </g>
     <g id="line2d_2">
      <defs>
       <path id="m7bcf45688a" d="M 0 0 
L 0 -3 
" style="stroke: #000000; stroke-width: 0.5"/>
      </defs>
      <g>
       <use xlink:href="#m7bcf45688a" x="57.002727" y="314.528" style="stroke: #000000; stroke-width: 0.5"/>
      </g>
     </g>
     <g id="line2d_3">
      <defs>
       <path id="m810a590907" d="M 0 0 
L 0 3 
" style="stroke: #000000; stroke-width: 0.5"/>
      </defs>
      <g>
       <use xlink:href="#m810a590907" x="57.002727" y="26.24" style="stroke: #000000; stroke-width: 0.5"/>
      </g>
     </g>
     <g id="text_1">
      <!-- $\mathdefault{0}$ -->
      <g transform="translate(54.002727 326.223625) scale(0.12 -0.12)">
       <defs>
        <path id="STIXGeneral-Regular-30" d="M 3046 2112 
Q 3046 1683 2963 1302 
Q 2880 922 2717 602 
Q 2554 282 2266 96 
Q 1978 -90 1600 -90 
Q 1210 -90 915 108 
Q 621 307 461 640 
Q 301 973 227 1350 
Q 154 1728 154 2150 
Q 154 2746 301 3222 
Q 448 3699 790 4012 
Q 1133 4326 1626 4326 
Q 2253 4326 2649 3712 
Q 3046 3098 3046 2112 
z
M 2432 2080 
Q 2432 3091 2217 3625 
Q 2003 4160 1587 4160 
Q 1190 4160 979 3622 
Q 768 3085 768 2106 
Q 768 1120 979 598 
Q 1190 77 1600 77 
Q 2003 77 2217 598 
Q 2432 1120 2432 2080 
z
" transform="scale(0.015625)"/>
       </defs>
       <use xlink:href="#STIXGeneral-Regular-30" transform="translate(0 0.40625)"/>
      </g>
     </g>
    </g>
    <g id="xtick_2">
     <g id="line2d_4">
      <path d="M 133.093636 314.528 
L 133.093636 26.24 
" clip-path="url(#pb5a5a87351)" style="fill: none; stroke: #b0b0b0; stroke-opacity: 0.35; stroke-width: 0.5; stroke-linecap: square"/>
     </g>
     <g id="line2d_5">
      <g>
       <use xlink:href="#m7bcf45688a" x="133.093636" y="314.528" style="stroke: #000000; stroke-width: 0.5"/>
      </g>
     </g>
     <g id="line2d_6">
      <g>
       <use xlink:href="#m810a590907" x="133.093636" y="26.24" style="stroke: #000000; stroke-width: 0.5"/>
      </g>
     </g>
     <g id="text_2">
      <!-- $\mathdefault{1}$ -->
      <g transform="translate(130.093636 326.223625) scale(0.12 -0.12)">
       <defs>
        <path id="STIXGeneral-Regular-31" d="M 2522 0 
L 755 0 
L 755 96 
Q 1107 115 1235 227 
Q 1363 339 1363 608 
L 1363 3482 
Q 1363 3795 1171 3795 
Q 1082 3795 883 3718 
L 710 3654 
L 710 3744 
L 1856 4326 
L 1914 4307 
L 1914 486 
Q 1914 275 2042 185 
Q 2170 96 2522 96 
L 2522 0 
z
" transform="scale(0.015625)"/>
       </defs>
       <use xlink:href="#STIXGeneral-Regular-31" transform="translate(0 0.40625)"/>
      </g>
     </g>
    </g>
    <g id="xtick_3">
     <g id="line2d_7">
      <path d="M 209.184545 314.528 
L 209.184545 26.24 
" clip-path="url(#pb5a5a87351)" style="fill: none; stroke: #b0b0b0; stroke-opacity: 0.35; stroke-width: 0.5; stroke-linecap: square"/>
     </g>
     <g id="line2d_8">
      <g>
       <use xlink:href="#m7bcf45688a" x="209.184545" y="314.528" style="stroke: #000000; stroke-width: 0.5"/>
      </g>
     </g>
     <g id="line2d_9">
      <g>
       <use xlink:href="#m810a590907" x="209.184545" y="26.24" style="stroke: #000000; stroke-width: 0.5"/>
      </g>
     </g>
     <g id="text_3">
      <!-- $\mathdefault{2}$ -->
      <g transform="translate(206.184545 326.223625) scale(0.12 -0.12)">
       <defs>
        <path id="STIXGeneral-Regular-32" d="M 3034 877 
L 2688 0 
L 186 0 
L 186 77 
L 1325 1286 
Q 1773 1754 1965 2144 
Q 2157 2534 2157 2950 
Q 2157 3379 1920 3616 
Q 1683 3853 1267 3853 
Q 922 3853 720 3673 
Q 518 3494 326 3021 
L 192 3053 
Q 301 3648 630 3987 
Q 960 4326 1523 4326 
Q 2054 4326 2380 4006 
Q 2707 3686 2707 3200 
Q 2707 2477 1888 1613 
L 832 486 
L 2330 486 
Q 2541 486 2665 569 
Q 2790 653 2944 915 
L 3034 877 
z
" transform="scale(0.015625)"/>
       </defs>
       <use xlink:href="#STIXGeneral-Regular-32" transform="translate(0 0.40625)"/>
      </g>
     </g>
    </g>
    <g id="xtick_4">
     <g id="line2d_10">
      <path d="M 285.275455 314.528 
L 285.275455 26.24 
" clip-path="url(#pb5a5a87351)" style="fill: none; stroke: #b0b0b0; stroke-opacity: 0.35; stroke-width: 0.5; stroke-linecap: square"/>
     </g>
     <g id="line2d_11">
      <g>
       <use xlink:href="#m7bcf45688a" x="285.275455" y="314.528" style="stroke: #000000; stroke-width: 0.5"/>
      </g>
     </g>
     <g id="line2d_12">
      <g>
       <use xlink:href="#m810a590907" x="285.275455" y="26.24" style="stroke: #000000; stroke-width: 0.5"/>
      </g>
     </g>
     <g id="text_4">
      <!-- $\mathdefault{3}$ -->
      <g transform="translate(282.275455 326.223625) scale(0.12 -0.12)">
       <defs>
        <path id="STIXGeneral-Regular-33" d="M 390 3264 
L 288 3290 
Q 435 3770 748 4048 
Q 1062 4326 1542 4326 
Q 1990 4326 2265 4083 
Q 2541 3840 2541 3450 
Q 2541 2925 1946 2566 
Q 2298 2413 2477 2227 
Q 2758 1914 2758 1402 
Q 2758 890 2464 506 
Q 2246 211 1840 60 
Q 1434 -90 979 -90 
Q 262 -90 262 275 
Q 262 378 339 442 
Q 416 506 525 506 
Q 685 506 915 339 
Q 1197 141 1466 141 
Q 1818 141 2058 425 
Q 2298 710 2298 1120 
Q 2298 1856 1632 2048 
Q 1434 2112 979 2112 
L 979 2202 
Q 1338 2323 1517 2432 
Q 2035 2726 2035 3290 
Q 2035 3610 1852 3776 
Q 1670 3942 1344 3942 
Q 768 3942 390 3264 
z
" transform="scale(0.015625)"/>
       </defs>
       <use xlink:href="#STIXGeneral-Regular-33" transform="translate(0 0.40625)"/>
      </g>
     </g>
    </g>
    <g id="xtick_5">
     <g id="line2d_13">
      <path d="M 361.366364 314.528 
L 361.366364 26.24 
" clip-path="url(#pb5a5a87351)" style="fill: none; stroke: #b0b0b0; stroke-opacity: 0.35; stroke-width: 0.5; stroke-linecap: square"/>
     </g>
     <g id="line2d_14">
      <g>
       <use xlink:href="#m7bcf45688a" x="361.366364" y="314.528" style="stroke: #000000; stroke-width: 0.5"/>
      </g>
     </g>
     <g id="line2d_15">
      <g>
       <use xlink:href="#m810a590907" x="361.366364" y="26.24" style="stroke: #000000; stroke-width: 0.5"/>
      </g>
     </g>
     <g id="text_5">
      <!-- $\mathdefault{4}$ -->
      <g transform="translate(358.366364 326.223625) scale(0.12 -0.12)">
       <defs>
        <path id="STIXGeneral-Regular-34" d="M 3027 1069 
L 2368 1069 
L 2368 0 
L 1869 0 
L 1869 1069 
L 77 1069 
L 77 1478 
L 2086 4326 
L 2368 4326 
L 2368 1478 
L 3027 1478 
L 3027 1069 
z
M 1869 1478 
L 1869 3674 
L 333 1478 
L 1869 1478 
z
" transform="scale(0.015625)"/>
       </defs>
       <use xlink:href="#STIXGeneral-Regular-34" transform="translate(0 0.40625)"/>
      </g>
     </g>
    </g>
    <g id="xtick_6">
     <g id="line2d_16">
      <path d="M 437.457273 314.528 
L 437.457273 26.24 
" clip-path="url(#pb5a5a87351)" style="fill: none; stroke: #b0b0b0; stroke-opacity: 0.35; stroke-width: 0.5; stroke-linecap: square"/>
     </g>
     <g id="line2d_17">
      <g>
       <use xlink:href="#m7bcf45688a" x="437.457273" y="314.528" style="stroke: #000000; stroke-width: 0.5"/>
      </g>
     </g>
     <g id="line2d_18">
      <g>
       <use xlink:href="#m810a590907" x="437.457273" y="26.24" style="stroke: #000000; stroke-width: 0.5"/>
      </g>
     </g>
     <g id="text_6">
      <!-- $\mathdefault{5}$ -->
      <g transform="translate(434.457273 326.223625) scale(0.12 -0.12)">
       <defs>
        <path id="STIXGeneral-Regular-35" d="M 2803 4358 
L 2573 3814 
Q 2534 3731 2400 3731 
L 1158 3731 
L 902 3187 
Q 1606 3053 1920 2896 
Q 2234 2739 2502 2368 
Q 2726 2061 2726 1555 
Q 2726 1094 2576 780 
Q 2426 467 2099 224 
Q 1664 -90 1011 -90 
Q 646 -90 422 19 
Q 198 128 198 307 
Q 198 550 486 550 
Q 717 550 960 352 
Q 1210 147 1414 147 
Q 1747 147 2012 480 
Q 2278 813 2278 1229 
Q 2278 1843 1850 2189 
Q 1293 2637 486 2637 
Q 410 2637 410 2688 
L 416 2720 
L 1114 4237 
L 2438 4237 
Q 2547 4237 2608 4269 
Q 2669 4301 2746 4403 
L 2803 4358 
z
" transform="scale(0.015625)"/>
       </defs>
       <use xlink:href="#STIXGeneral-Regular-35" transform="translate(0 0.203125)"/>
      </g>
     </g>
    </g>
    <g id="xtick_7">
     <g id="line2d_19">
      <defs>
       <path id="mbe962358a0" d="M 0 0 
L 0 -1.5 
" style="stroke: #000000; stroke-width: 0.5"/>
      </defs>
      <g>
       <use xlink:href="#mbe962358a0" x="41.784545" y="314.528" style="stroke: #000000; stroke-width: 0.5"/>
      </g>
     </g>
     <g id="line2d_20">
      <defs>
       <path id="me9b4dc57b7" d="M 0 0 
L 0 1.5 
" style="stroke: #000000; stroke-width: 0.5"/>
      </defs>
      <g>
       <use xlink:href="#me9b4dc57b7" x="41.784545" y="26.24" style="stroke: #000000; stroke-width: 0.5"/>
      </g>
     </g>
    </g>
    <g id="xtick_8">
     <g id="line2d_21">
      <g>
       <use xlink:href="#mbe962358a0" x="72.220909" y="314.528" style="stroke: #000000; stroke-width: 0.5"/>
      </g>
     </g>
     <g id="line2d_22">
      <g>
       <use xlink:href="#me9b4dc57b7" x="72.220909" y="26.24" style="stroke: #000000; stroke-width: 0.5"/>
      </g>
     </g>
    </g>
    <g id="xtick_9">
     <g id="line2d_23">
      <g>
       <use xlink:href="#mbe962358a0" x="87.439091" y="314.528" style="stroke: #000000; stroke-width: 0.5"/>
      </g>
     </g>
     <g id="line2d_24">
      <g>
       <use xlink:href="#me9b4dc57b7" x="87.439091" y="26.24" style="stroke: #000000; stroke-width: 0.5"/>
      </g>
     </g>
    </g>
    <g id="xtick_10">
     <g id="line2d_25">
      <g>
       <use xlink:href="#mbe962358a0" x="102.657273" y="314.528" style="stroke: #000000; stroke-width: 0.5"/>
      </g>
     </g>
     <g id="line2d_26">
      <g>
       <use xlink:href="#me9b4dc57b7" x="102.657273" y="26.24" style="stroke: #000000; stroke-width: 0.5"/>
      </g>
     </g>
    </g>
    <g id="xtick_11">
     <g id="line2d_27">
      <g>
       <use xlink:href="#mbe962358a0" x="117.875455" y="314.528" style="stroke: #000000; stroke-width: 0.5"/>
      </g>
     </g>
     <g id="line2d_28">
      <g>
       <use xlink:href="#me9b4dc57b7" x="117.875455" y="26.24" style="stroke: #000000; stroke-width: 0.5"/>
      </g>
     </g>
    </g>
    <g id="xtick_12">
     <g id="line2d_29">
      <g>
       <use xlink:href="#mbe962358a0" x="148.311818" y="314.528" style="stroke: #000000; stroke-width: 0.5"/>
      </g>
     </g>
     <g id="line2d_30">
      <g>
       <use xlink:href="#me9b4dc57b7" x="148.311818" y="26.24" style="stroke: #000000; stroke-width: 0.5"/>
      </g>
     </g>
    </g>
    <g id="xtick_13">
     <g id="line2d_31">
      <g>
       <use xlink:href="#mbe962358a0" x="163.53" y="314.528" style="stroke: #000000; stroke-width: 0.5"/>
      </g>
     </g>
     <g id="line2d_32">
      <g>
       <use xlink:href="#me9b4dc57b7" x="163.53" y="26.24" style="stroke: #000000; stroke-width: 0.5"/>
      </g>
     </g>
    </g>
    <g id="xtick_14">
     <g id="line2d_33">
      <g>
       <use xlink:href="#mbe962358a0" x="178.748182" y="314.528" style="stroke: #000000; stroke-width: 0.5"/>
      </g>
     </g>
     <g id="line2d_34">
      <g>
       <use xlink:href="#me9b4dc57b7" x="178.748182" y="26.24" style="stroke: #000000; stroke-width: 0.5"/>
      </g>
     </g>
    </g>
    <g id="xtick_15">
     <g id="line2d_35">
      <g>
       <use xlink:href="#mbe962358a0" x="193.966364" y="314.528" style="stroke: #000000; stroke-width: 0.5"/>
      </g>
     </g>
     <g id="line2d_36">
      <g>
       <use xlink:href="#me9b4dc57b7" x="193.966364" y="26.24" style="stroke: #000000; stroke-width: 0.5"/>
      </g>
     </g>
    </g>
    <g id="xtick_16">
     <g id="line2d_37">
      <g>
       <use xlink:href="#mbe962358a0" x="224.402727" y="314.528" style="stroke: #000000; stroke-width: 0.5"/>
      </g>
     </g>
     <g id="line2d_38">
      <g>
       <use xlink:href="#me9b4dc57b7" x="224.402727" y="26.24" style="stroke: #000000; stroke-width: 0.5"/>
      </g>
     </g>
    </g>
    <g id="xtick_17">
     <g id="line2d_39">
      <g>
       <use xlink:href="#mbe962358a0" x="239.620909" y="314.528" style="stroke: #000000; stroke-width: 0.5"/>
      </g>
     </g>
     <g id="line2d_40">
      <g>
       <use xlink:href="#me9b4dc57b7" x="239.620909" y="26.24" style="stroke: #000000; stroke-width: 0.5"/>
      </g>
     </g>
    </g>
    <g id="xtick_18">
     <g id="line2d_41">
      <g>
       <use xlink:href="#mbe962358a0" x="254.839091" y="314.528" style="stroke: #000000; stroke-width: 0.5"/>
      </g>
     </g>
     <g id="line2d_42">
      <g>
       <use xlink:href="#me9b4dc57b7" x="254.839091" y="26.24" style="stroke: #000000; stroke-width: 0.5"/>
      </g>
     </g>
    </g>
    <g id="xtick_19">
     <g id="line2d_43">
      <g>
       <use xlink:href="#mbe962358a0" x="270.057273" y="314.528" style="stroke: #000000; stroke-width: 0.5"/>
      </g>
     </g>
     <g id="line2d_44">
      <g>
       <use xlink:href="#me9b4dc57b7" x="270.057273" y="26.24" style="stroke: #000000; stroke-width: 0.5"/>
      </g>
     </g>
    </g>
    <g id="xtick_20">
     <g id="line2d_45">
      <g>
       <use xlink:href="#mbe962358a0" x="300.493636" y="314.528" style="stroke: #000000; stroke-width: 0.5"/>
      </g>
     </g>
     <g id="line2d_46">
      <g>
       <use xlink:href="#me9b4dc57b7" x="300.493636" y="26.24" style="stroke: #000000; stroke-width: 0.5"/>
      </g>
     </g>
    </g>
    <g id="xtick_21">
     <g id="line2d_47">
      <g>
       <use xlink:href="#mbe962358a0" x="315.711818" y="314.528" style="stroke: #000000; stroke-width: 0.5"/>
      </g>
     </g>
     <g id="line2d_48">
      <g>
       <use xlink:href="#me9b4dc57b7" x="315.711818" y="26.24" style="stroke: #000000; stroke-width: 0.5"/>
      </g>
     </g>
    </g>
    <g id="xtick_22">
     <g id="line2d_49">
      <g>
       <use xlink:href="#mbe962358a0" x="330.93" y="314.528" style="stroke: #000000; stroke-width: 0.5"/>
      </g>
     </g>
     <g id="line2d_50">
      <g>
       <use xlink:href="#me9b4dc57b7" x="330.93" y="26.24" style="stroke: #000000; stroke-width: 0.5"/>
      </g>
     </g>
    </g>
    <g id="xtick_23">
     <g id="line2d_51">
      <g>
       <use xlink:href="#mbe962358a0" x="346.148182" y="314.528" style="stroke: #000000; stroke-width: 0.5"/>
      </g>
     </g>
     <g id="line2d_52">
      <g>
       <use xlink:href="#me9b4dc57b7" x="346.148182" y="26.24" style="stroke: #000000; stroke-width: 0.5"/>
      </g>
     </g>
    </g>
    <g id="xtick_24">
     <g id="line2d_53">
      <g>
       <use xlink:href="#mbe962358a0" x="376.584545" y="314.528" style="stroke: #000000; stroke-width: 0.5"/>
      </g>
     </g>
     <g id="line2d_54">
      <g>
       <use xlink:href="#me9b4dc57b7" x="376.584545" y="26.24" style="stroke: #000000; stroke-width: 0.5"/>
      </g>
     </g>
    </g>
    <g id="xtick_25">
     <g id="line2d_55">
      <g>
       <use xlink:href="#mbe962358a0" x="391.802727" y="314.528" style="stroke: #000000; stroke-width: 0.5"/>
      </g>
     </g>
     <g id="line2d_56">
      <g>
       <use xlink:href="#me9b4dc57b7" x="391.802727" y="26.24" style="stroke: #000000; stroke-width: 0.5"/>
      </g>
     </g>
    </g>
    <g id="xtick_26">
     <g id="line2d_57">
      <g>
       <use xlink:href="#mbe962358a0" x="407.020909" y="314.528" style="stroke: #000000; stroke-width: 0.5"/>
      </g>
     </g>
     <g id="line2d_58">
      <g>
       <use xlink:href="#me9b4dc57b7" x="407.020909" y="26.24" style="stroke: #000000; stroke-width: 0.5"/>
      </g>
     </g>
    </g>
    <g id="xtick_27">
     <g id="line2d_59">
      <g>
       <use xlink:href="#mbe962358a0" x="422.239091" y="314.528" style="stroke: #000000; stroke-width: 0.5"/>
      </g>
     </g>
     <g id="line2d_60">
      <g>
       <use xlink:href="#me9b4dc57b7" x="422.239091" y="26.24" style="stroke: #000000; stroke-width: 0.5"/>
      </g>
     </g>
    </g>
    <g id="xtick_28">
     <g id="line2d_61">
      <g>
       <use xlink:href="#mbe962358a0" x="452.675455" y="314.528" style="stroke: #000000; stroke-width: 0.5"/>
      </g>
     </g>
     <g id="line2d_62">
      <g>
       <use xlink:href="#me9b4dc57b7" x="452.675455" y="26.24" style="stroke: #000000; stroke-width: 0.5"/>
      </g>
     </g>
    </g>
    <g id="text_7">
     <!-- Time -->
     <g transform="translate(232.453438 342.389562) scale(0.14 -0.14)">
      <defs>
       <path id="STIXGeneral-Regular-54" d="M 3795 3149 
L 3642 3149 
Q 3539 3674 3353 3821 
Q 3168 3968 2656 3968 
L 2278 3968 
L 2278 710 
Q 2278 346 2387 243 
Q 2496 141 2893 122 
L 2893 0 
L 1024 0 
L 1024 122 
Q 1427 147 1526 256 
Q 1626 365 1626 787 
L 1626 3968 
L 1242 3968 
Q 723 3968 540 3817 
Q 358 3667 262 3149 
L 109 3149 
L 154 4237 
L 3750 4237 
L 3795 3149 
z
" transform="scale(0.015625)"/>
       <path id="STIXGeneral-Regular-69" d="M 1152 4045 
Q 1152 3904 1056 3811 
Q 960 3718 819 3718 
Q 685 3718 592 3811 
Q 499 3904 499 4045 
Q 499 4179 595 4275 
Q 691 4371 826 4371 
Q 966 4371 1059 4275 
Q 1152 4179 1152 4045 
z
M 1619 0 
L 102 0 
L 102 96 
Q 435 115 521 211 
Q 608 307 608 666 
L 608 2118 
Q 608 2342 563 2432 
Q 518 2522 397 2522 
Q 243 2522 128 2490 
L 128 2592 
L 1120 2944 
L 1146 2918 
L 1146 672 
Q 1146 314 1226 218 
Q 1306 122 1619 96 
L 1619 0 
z
" transform="scale(0.015625)"/>
       <path id="STIXGeneral-Regular-6d" d="M 4960 0 
L 3565 0 
L 3565 96 
Q 3834 122 3907 208 
Q 3981 294 3981 576 
L 3981 1894 
Q 3981 2278 3869 2444 
Q 3757 2611 3488 2611 
Q 3264 2611 3107 2521 
Q 2950 2432 2803 2221 
L 2803 608 
Q 2803 301 2896 201 
Q 2989 102 3264 96 
L 3264 0 
L 1830 0 
L 1830 96 
Q 2112 115 2189 188 
Q 2266 262 2266 550 
L 2266 1901 
Q 2266 2611 1850 2611 
Q 1670 2611 1468 2531 
Q 1267 2451 1171 2336 
Q 1088 2240 1088 2227 
L 1088 448 
Q 1088 243 1177 176 
Q 1267 109 1523 96 
L 1523 0 
L 102 0 
L 102 96 
Q 371 102 460 195 
Q 550 288 550 563 
L 550 2150 
Q 550 2387 499 2480 
Q 448 2573 326 2573 
Q 230 2573 122 2547 
L 122 2656 
Q 557 2778 1011 2944 
L 1062 2925 
L 1062 2451 
L 1075 2451 
Q 1363 2752 1584 2848 
Q 1805 2944 2054 2944 
Q 2560 2944 2733 2406 
Q 3232 2944 3776 2944 
Q 4518 2944 4518 1792 
L 4518 493 
Q 4518 282 4582 202 
Q 4646 122 4794 109 
L 4960 96 
L 4960 0 
z
" transform="scale(0.015625)"/>
       <path id="STIXGeneral-Regular-65" d="M 2611 1050 
L 2714 1005 
Q 2330 -64 1376 -64 
Q 813 -64 486 329 
Q 160 723 160 1389 
Q 160 2074 525 2509 
Q 890 2944 1485 2944 
Q 2061 2944 2374 2502 
Q 2560 2246 2592 1773 
L 621 1773 
Q 646 1370 700 1158 
Q 755 947 915 730 
Q 1184 378 1626 378 
Q 1939 378 2153 531 
Q 2368 685 2611 1050 
z
M 634 1978 
L 1939 1978 
Q 1882 2381 1750 2547 
Q 1619 2714 1312 2714 
Q 1043 2714 864 2525 
Q 685 2336 634 1978 
z
" transform="scale(0.015625)"/>
      </defs>
      <use xlink:href="#STIXGeneral-Regular-54"/>
      <use xlink:href="#STIXGeneral-Regular-69" transform="translate(61.099991 0)"/>
      <use xlink:href="#STIXGeneral-Regular-6d" transform="translate(88.899979 0)"/>
      <use xlink:href="#STIXGeneral-Regular-65" transform="translate(166.699966 0)"/>
     </g>
    </g>
   </g>
   <g id="matplotlib.axis_2">
    <g id="ytick_1">
     <g id="line2d_63">
      <path d="M 37.98 285.898609 
L 456.48 285.898609 
" clip-path="url(#pb5a5a87351)" style="fill: none; stroke: #b0b0b0; stroke-opacity: 0.35; stroke-width: 0.5; stroke-linecap: square"/>
     </g>
     <g id="line2d_64">
      <defs>
       <path id="m5a32dd8444" d="M 0 0 
L 3 0 
" style="stroke: #000000; stroke-width: 0.5"/>
      </defs>
      <g>
       <use xlink:href="#m5a32dd8444" x="37.98" y="285.898609" style="stroke: #000000; stroke-width: 0.5"/>
      </g>
     </g>
     <g id="line2d_65">
      <defs>
       <path id="m8f97f813e1" d="M 0 0 
L -3 0 
" style="stroke: #000000; stroke-width: 0.5"/>
      </defs>
      <g>
       <use xlink:href="#m8f97f813e1" x="456.48" y="285.898609" style="stroke: #000000; stroke-width: 0.5"/>
      </g>
     </g>
     <g id="text_8">
      <!-- $\mathdefault{−6}$ -->
      <g transform="translate(20.2 289.996421) scale(0.12 -0.12)">
       <defs>
        <path id="STIXGeneral-Regular-2212" d="M 3974 1408 
L 410 1408 
L 410 1830 
L 3974 1830 
L 3974 1408 
z
" transform="scale(0.015625)"/>
        <path id="STIXGeneral-Regular-36" d="M 2854 4378 
L 2867 4275 
Q 2112 4154 1606 3664 
Q 1101 3174 973 2451 
Q 1344 2739 1786 2739 
Q 2349 2739 2672 2380 
Q 2995 2022 2995 1402 
Q 2995 774 2669 378 
Q 2291 -90 1651 -90 
Q 870 -90 518 557 
Q 218 1107 218 1786 
Q 218 2835 915 3552 
Q 1312 3962 1731 4131 
Q 2150 4301 2854 4378 
z
M 2419 1203 
Q 2419 2445 1555 2445 
Q 1235 2445 1024 2275 
Q 813 2106 813 1702 
Q 813 954 1046 522 
Q 1280 90 1722 90 
Q 2061 90 2240 394 
Q 2419 698 2419 1203 
z
" transform="scale(0.015625)"/>
       </defs>
       <use xlink:href="#STIXGeneral-Regular-2212" transform="translate(0 0.59375)"/>
       <use xlink:href="#STIXGeneral-Regular-36" transform="translate(68.499985 0.59375)"/>
      </g>
     </g>
    </g>
    <g id="ytick_2">
     <g id="line2d_66">
      <path d="M 37.98 245.674735 
L 456.48 245.674735 
" clip-path="url(#pb5a5a87351)" style="fill: none; stroke: #b0b0b0; stroke-opacity: 0.35; stroke-width: 0.5; stroke-linecap: square"/>
     </g>
     <g id="line2d_67">
      <g>
       <use xlink:href="#m5a32dd8444" x="37.98" y="245.674735" style="stroke: #000000; stroke-width: 0.5"/>
      </g>
     </g>
     <g id="line2d_68">
      <g>
       <use xlink:href="#m8f97f813e1" x="456.48" y="245.674735" style="stroke: #000000; stroke-width: 0.5"/>
      </g>
     </g>
     <g id="text_9">
      <!-- $\mathdefault{−5}$ -->
      <g transform="translate(20.2 249.772548) scale(0.12 -0.12)">
       <use xlink:href="#STIXGeneral-Regular-2212" transform="translate(0 0.203125)"/>
       <use xlink:href="#STIXGeneral-Regular-35" transform="translate(68.499985 0.203125)"/>
      </g>
     </g>
    </g>
    <g id="ytick_3">
     <g id="line2d_69">
      <path d="M 37.98 205.450862 
L 456.48 205.450862 
" clip-path="url(#pb5a5a87351)" style="fill: none; stroke: #b0b0b0; stroke-opacity: 0.35; stroke-width: 0.5; stroke-linecap: square"/>
     </g>
     <g id="line2d_70">
      <g>
       <use xlink:href="#m5a32dd8444" x="37.98" y="205.450862" style="stroke: #000000; stroke-width: 0.5"/>
      </g>
     </g>
     <g id="line2d_71">
      <g>
       <use xlink:href="#m8f97f813e1" x="456.48" y="205.450862" style="stroke: #000000; stroke-width: 0.5"/>
      </g>
     </g>
     <g id="text_10">
      <!-- $\mathdefault{−4}$ -->
      <g transform="translate(20.2 209.548675) scale(0.12 -0.12)">
       <use xlink:href="#STIXGeneral-Regular-2212" transform="translate(0 0.40625)"/>
       <use xlink:href="#STIXGeneral-Regular-34" transform="translate(68.499985 0.40625)"/>
      </g>
     </g>
    </g>
    <g id="ytick_4">
     <g id="line2d_72">
      <path d="M 37.98 165.226989 
L 456.48 165.226989 
" clip-path="url(#pb5a5a87351)" style="fill: none; stroke: #b0b0b0; stroke-opacity: 0.35; stroke-width: 0.5; stroke-linecap: square"/>
     </g>
     <g id="line2d_73">
      <g>
       <use xlink:href="#m5a32dd8444" x="37.98" y="165.226989" style="stroke: #000000; stroke-width: 0.5"/>
      </g>
     </g>
     <g id="line2d_74">
      <g>
       <use xlink:href="#m8f97f813e1" x="456.48" y="165.226989" style="stroke: #000000; stroke-width: 0.5"/>
      </g>
     </g>
     <g id="text_11">
      <!-- $\mathdefault{−3}$ -->
      <g transform="translate(20.2 169.324801) scale(0.12 -0.12)">
       <use xlink:href="#STIXGeneral-Regular-2212" transform="translate(0 0.40625)"/>
       <use xlink:href="#STIXGeneral-Regular-33" transform="translate(68.499985 0.40625)"/>
      </g>
     </g>
    </g>
    <g id="ytick_5">
     <g id="line2d_75">
      <path d="M 37.98 125.003115 
L 456.48 125.003115 
" clip-path="url(#pb5a5a87351)" style="fill: none; stroke: #b0b0b0; stroke-opacity: 0.35; stroke-width: 0.5; stroke-linecap: square"/>
     </g>
     <g id="line2d_76">
      <g>
       <use xlink:href="#m5a32dd8444" x="37.98" y="125.003115" style="stroke: #000000; stroke-width: 0.5"/>
      </g>
     </g>
     <g id="line2d_77">
      <g>
       <use xlink:href="#m8f97f813e1" x="456.48" y="125.003115" style="stroke: #000000; stroke-width: 0.5"/>
      </g>
     </g>
     <g id="text_12">
      <!-- $\mathdefault{−2}$ -->
      <g transform="translate(20.2 129.100928) scale(0.12 -0.12)">
       <use xlink:href="#STIXGeneral-Regular-2212" transform="translate(0 0.40625)"/>
       <use xlink:href="#STIXGeneral-Regular-32" transform="translate(68.499985 0.40625)"/>
      </g>
     </g>
    </g>
    <g id="ytick_6">
     <g id="line2d_78">
      <path d="M 37.98 84.779242 
L 456.48 84.779242 
" clip-path="url(#pb5a5a87351)" style="fill: none; stroke: #b0b0b0; stroke-opacity: 0.35; stroke-width: 0.5; stroke-linecap: square"/>
     </g>
     <g id="line2d_79">
      <g>
       <use xlink:href="#m5a32dd8444" x="37.98" y="84.779242" style="stroke: #000000; stroke-width: 0.5"/>
      </g>
     </g>
     <g id="line2d_80">
      <g>
       <use xlink:href="#m8f97f813e1" x="456.48" y="84.779242" style="stroke: #000000; stroke-width: 0.5"/>
      </g>
     </g>
     <g id="text_13">
      <!-- $\mathdefault{−1}$ -->
      <g transform="translate(20.2 88.877055) scale(0.12 -0.12)">
       <use xlink:href="#STIXGeneral-Regular-2212" transform="translate(0 0.40625)"/>
       <use xlink:href="#STIXGeneral-Regular-31" transform="translate(68.499985 0.40625)"/>
      </g>
     </g>
    </g>
    <g id="ytick_7">
     <g id="line2d_81">
      <path d="M 37.98 44.555369 
L 456.48 44.555369 
" clip-path="url(#pb5a5a87351)" style="fill: none; stroke: #b0b0b0; stroke-opacity: 0.35; stroke-width: 0.5; stroke-linecap: square"/>
     </g>
     <g id="line2d_82">
      <g>
       <use xlink:href="#m5a32dd8444" x="37.98" y="44.555369" style="stroke: #000000; stroke-width: 0.5"/>
      </g>
     </g>
     <g id="line2d_83">
      <g>
       <use xlink:href="#m8f97f813e1" x="456.48" y="44.555369" style="stroke: #000000; stroke-width: 0.5"/>
      </g>
     </g>
     <g id="text_14">
      <!-- $\mathdefault{0}$ -->
      <g transform="translate(28.48 48.653181) scale(0.12 -0.12)">
       <use xlink:href="#STIXGeneral-Regular-30" transform="translate(0 0.40625)"/>
      </g>
     </g>
    </g>
    <g id="ytick_8">
     <g id="line2d_84">
      <defs>
       <path id="mb847f28857" d="M 0 0 
L 1.5 0 
" style="stroke: #000000; stroke-width: 0.5"/>
      </defs>
      <g>
       <use xlink:href="#mb847f28857" x="37.98" y="310.032933" style="stroke: #000000; stroke-width: 0.5"/>
      </g>
     </g>
     <g id="line2d_85">
      <defs>
       <path id="m371d14111e" d="M 0 0 
L -1.5 0 
" style="stroke: #000000; stroke-width: 0.5"/>
      </defs>
      <g>
       <use xlink:href="#m371d14111e" x="456.48" y="310.032933" style="stroke: #000000; stroke-width: 0.5"/>
      </g>
     </g>
    </g>
    <g id="ytick_9">
     <g id="line2d_86">
      <g>
       <use xlink:href="#mb847f28857" x="37.98" y="301.988158" style="stroke: #000000; stroke-width: 0.5"/>
      </g>
     </g>
     <g id="line2d_87">
      <g>
       <use xlink:href="#m371d14111e" x="456.48" y="301.988158" style="stroke: #000000; stroke-width: 0.5"/>
      </g>
     </g>
    </g>
    <g id="ytick_10">
     <g id="line2d_88">
      <g>
       <use xlink:href="#mb847f28857" x="37.98" y="293.943383" style="stroke: #000000; stroke-width: 0.5"/>
      </g>
     </g>
     <g id="line2d_89">
      <g>
       <use xlink:href="#m371d14111e" x="456.48" y="293.943383" style="stroke: #000000; stroke-width: 0.5"/>
      </g>
     </g>
    </g>
    <g id="ytick_11">
     <g id="line2d_90">
      <g>
       <use xlink:href="#mb847f28857" x="37.98" y="277.853834" style="stroke: #000000; stroke-width: 0.5"/>
      </g>
     </g>
     <g id="line2d_91">
      <g>
       <use xlink:href="#m371d14111e" x="456.48" y="277.853834" style="stroke: #000000; stroke-width: 0.5"/>
      </g>
     </g>
    </g>
    <g id="ytick_12">
     <g id="line2d_92">
      <g>
       <use xlink:href="#mb847f28857" x="37.98" y="269.809059" style="stroke: #000000; stroke-width: 0.5"/>
      </g>
     </g>
     <g id="line2d_93">
      <g>
       <use xlink:href="#m371d14111e" x="456.48" y="269.809059" style="stroke: #000000; stroke-width: 0.5"/>
      </g>
     </g>
    </g>
    <g id="ytick_13">
     <g id="line2d_94">
      <g>
       <use xlink:href="#mb847f28857" x="37.98" y="261.764285" style="stroke: #000000; stroke-width: 0.5"/>
      </g>
     </g>
     <g id="line2d_95">
      <g>
       <use xlink:href="#m371d14111e" x="456.48" y="261.764285" style="stroke: #000000; stroke-width: 0.5"/>
      </g>
     </g>
    </g>
    <g id="ytick_14">
     <g id="line2d_96">
      <g>
       <use xlink:href="#mb847f28857" x="37.98" y="253.71951" style="stroke: #000000; stroke-width: 0.5"/>
      </g>
     </g>
     <g id="line2d_97">
      <g>
       <use xlink:href="#m371d14111e" x="456.48" y="253.71951" style="stroke: #000000; stroke-width: 0.5"/>
      </g>
     </g>
    </g>
    <g id="ytick_15">
     <g id="line2d_98">
      <g>
       <use xlink:href="#mb847f28857" x="37.98" y="237.629961" style="stroke: #000000; stroke-width: 0.5"/>
      </g>
     </g>
     <g id="line2d_99">
      <g>
       <use xlink:href="#m371d14111e" x="456.48" y="237.629961" style="stroke: #000000; stroke-width: 0.5"/>
      </g>
     </g>
    </g>
    <g id="ytick_16">
     <g id="line2d_100">
      <g>
       <use xlink:href="#mb847f28857" x="37.98" y="229.585186" style="stroke: #000000; stroke-width: 0.5"/>
      </g>
     </g>
     <g id="line2d_101">
      <g>
       <use xlink:href="#m371d14111e" x="456.48" y="229.585186" style="stroke: #000000; stroke-width: 0.5"/>
      </g>
     </g>
    </g>
    <g id="ytick_17">
     <g id="line2d_102">
      <g>
       <use xlink:href="#mb847f28857" x="37.98" y="221.540411" style="stroke: #000000; stroke-width: 0.5"/>
      </g>
     </g>
     <g id="line2d_103">
      <g>
       <use xlink:href="#m371d14111e" x="456.48" y="221.540411" style="stroke: #000000; stroke-width: 0.5"/>
      </g>
     </g>
    </g>
    <g id="ytick_18">
     <g id="line2d_104">
      <g>
       <use xlink:href="#mb847f28857" x="37.98" y="213.495637" style="stroke: #000000; stroke-width: 0.5"/>
      </g>
     </g>
     <g id="line2d_105">
      <g>
       <use xlink:href="#m371d14111e" x="456.48" y="213.495637" style="stroke: #000000; stroke-width: 0.5"/>
      </g>
     </g>
    </g>
    <g id="ytick_19">
     <g id="line2d_106">
      <g>
       <use xlink:href="#mb847f28857" x="37.98" y="197.406087" style="stroke: #000000; stroke-width: 0.5"/>
      </g>
     </g>
     <g id="line2d_107">
      <g>
       <use xlink:href="#m371d14111e" x="456.48" y="197.406087" style="stroke: #000000; stroke-width: 0.5"/>
      </g>
     </g>
    </g>
    <g id="ytick_20">
     <g id="line2d_108">
      <g>
       <use xlink:href="#mb847f28857" x="37.98" y="189.361313" style="stroke: #000000; stroke-width: 0.5"/>
      </g>
     </g>
     <g id="line2d_109">
      <g>
       <use xlink:href="#m371d14111e" x="456.48" y="189.361313" style="stroke: #000000; stroke-width: 0.5"/>
      </g>
     </g>
    </g>
    <g id="ytick_21">
     <g id="line2d_110">
      <g>
       <use xlink:href="#mb847f28857" x="37.98" y="181.316538" style="stroke: #000000; stroke-width: 0.5"/>
      </g>
     </g>
     <g id="line2d_111">
      <g>
       <use xlink:href="#m371d14111e" x="456.48" y="181.316538" style="stroke: #000000; stroke-width: 0.5"/>
      </g>
     </g>
    </g>
    <g id="ytick_22">
     <g id="line2d_112">
      <g>
       <use xlink:href="#mb847f28857" x="37.98" y="173.271763" style="stroke: #000000; stroke-width: 0.5"/>
      </g>
     </g>
     <g id="line2d_113">
      <g>
       <use xlink:href="#m371d14111e" x="456.48" y="173.271763" style="stroke: #000000; stroke-width: 0.5"/>
      </g>
     </g>
    </g>
    <g id="ytick_23">
     <g id="line2d_114">
      <g>
       <use xlink:href="#mb847f28857" x="37.98" y="157.182214" style="stroke: #000000; stroke-width: 0.5"/>
      </g>
     </g>
     <g id="line2d_115">
      <g>
       <use xlink:href="#m371d14111e" x="456.48" y="157.182214" style="stroke: #000000; stroke-width: 0.5"/>
      </g>
     </g>
    </g>
    <g id="ytick_24">
     <g id="line2d_116">
      <g>
       <use xlink:href="#mb847f28857" x="37.98" y="149.137439" style="stroke: #000000; stroke-width: 0.5"/>
      </g>
     </g>
     <g id="line2d_117">
      <g>
       <use xlink:href="#m371d14111e" x="456.48" y="149.137439" style="stroke: #000000; stroke-width: 0.5"/>
      </g>
     </g>
    </g>
    <g id="ytick_25">
     <g id="line2d_118">
      <g>
       <use xlink:href="#mb847f28857" x="37.98" y="141.092665" style="stroke: #000000; stroke-width: 0.5"/>
      </g>
     </g>
     <g id="line2d_119">
      <g>
       <use xlink:href="#m371d14111e" x="456.48" y="141.092665" style="stroke: #000000; stroke-width: 0.5"/>
      </g>
     </g>
    </g>
    <g id="ytick_26">
     <g id="line2d_120">
      <g>
       <use xlink:href="#mb847f28857" x="37.98" y="133.04789" style="stroke: #000000; stroke-width: 0.5"/>
      </g>
     </g>
     <g id="line2d_121">
      <g>
       <use xlink:href="#m371d14111e" x="456.48" y="133.04789" style="stroke: #000000; stroke-width: 0.5"/>
      </g>
     </g>
    </g>
    <g id="ytick_27">
     <g id="line2d_122">
      <g>
       <use xlink:href="#mb847f28857" x="37.98" y="116.958341" style="stroke: #000000; stroke-width: 0.5"/>
      </g>
     </g>
     <g id="line2d_123">
      <g>
       <use xlink:href="#m371d14111e" x="456.48" y="116.958341" style="stroke: #000000; stroke-width: 0.5"/>
      </g>
     </g>
    </g>
    <g id="ytick_28">
     <g id="line2d_124">
      <g>
       <use xlink:href="#mb847f28857" x="37.98" y="108.913566" style="stroke: #000000; stroke-width: 0.5"/>
      </g>
     </g>
     <g id="line2d_125">
      <g>
       <use xlink:href="#m371d14111e" x="456.48" y="108.913566" style="stroke: #000000; stroke-width: 0.5"/>
      </g>
     </g>
    </g>
    <g id="ytick_29">
     <g id="line2d_126">
      <g>
       <use xlink:href="#mb847f28857" x="37.98" y="100.868791" style="stroke: #000000; stroke-width: 0.5"/>
      </g>
     </g>
     <g id="line2d_127">
      <g>
       <use xlink:href="#m371d14111e" x="456.48" y="100.868791" style="stroke: #000000; stroke-width: 0.5"/>
      </g>
     </g>
    </g>
    <g id="ytick_30">
     <g id="line2d_128">
      <g>
       <use xlink:href="#mb847f28857" x="37.98" y="92.824017" style="stroke: #000000; stroke-width: 0.5"/>
      </g>
     </g>
     <g id="line2d_129">
      <g>
       <use xlink:href="#m371d14111e" x="456.48" y="92.824017" style="stroke: #000000; stroke-width: 0.5"/>
      </g>
     </g>
    </g>
    <g id="ytick_31">
     <g id="line2d_130">
      <g>
       <use xlink:href="#mb847f28857" x="37.98" y="76.734467" style="stroke: #000000; stroke-width: 0.5"/>
      </g>
     </g>
     <g id="line2d_131">
      <g>
       <use xlink:href="#m371d14111e" x="456.48" y="76.734467" style="stroke: #000000; stroke-width: 0.5"/>
      </g>
     </g>
    </g>
    <g id="ytick_32">
     <g id="line2d_132">
      <g>
       <use xlink:href="#mb847f28857" x="37.98" y="68.689693" style="stroke: #000000; stroke-width: 0.5"/>
      </g>
     </g>
     <g id="line2d_133">
      <g>
       <use xlink:href="#m371d14111e" x="456.48" y="68.689693" style="stroke: #000000; stroke-width: 0.5"/>
      </g>
     </g>
    </g>
    <g id="ytick_33">
     <g id="line2d_134">
      <g>
       <use xlink:href="#mb847f28857" x="37.98" y="60.644918" style="stroke: #000000; stroke-width: 0.5"/>
      </g>
     </g>
     <g id="line2d_135">
      <g>
       <use xlink:href="#m371d14111e" x="456.48" y="60.644918" style="stroke: #000000; stroke-width: 0.5"/>
      </g>
     </g>
    </g>
    <g id="ytick_34">
     <g id="line2d_136">
      <g>
       <use xlink:href="#mb847f28857" x="37.98" y="52.600143" style="stroke: #000000; stroke-width: 0.5"/>
      </g>
     </g>
     <g id="line2d_137">
      <g>
       <use xlink:href="#m371d14111e" x="456.48" y="52.600143" style="stroke: #000000; stroke-width: 0.5"/>
      </g>
     </g>
    </g>
    <g id="ytick_35">
     <g id="line2d_138">
      <g>
       <use xlink:href="#mb847f28857" x="37.98" y="36.510594" style="stroke: #000000; stroke-width: 0.5"/>
      </g>
     </g>
     <g id="line2d_139">
      <g>
       <use xlink:href="#m371d14111e" x="456.48" y="36.510594" style="stroke: #000000; stroke-width: 0.5"/>
      </g>
     </g>
    </g>
    <g id="ytick_36">
     <g id="line2d_140">
      <g>
       <use xlink:href="#mb847f28857" x="37.98" y="28.465819" style="stroke: #000000; stroke-width: 0.5"/>
      </g>
     </g>
     <g id="line2d_141">
      <g>
       <use xlink:href="#m371d14111e" x="456.48" y="28.465819" style="stroke: #000000; stroke-width: 0.5"/>
      </g>
     </g>
    </g>
    <g id="text_15">
     <!-- Mean difference from exact -->
     <g transform="translate(13.161563 248.324625) rotate(-90) scale(0.14 -0.14)">
      <defs>
       <path id="STIXGeneral-Regular-4d" d="M 5530 0 
L 3738 0 
L 3738 122 
Q 4115 147 4214 265 
Q 4314 384 4314 787 
L 4314 3661 
L 2682 0 
L 2592 0 
L 979 3514 
L 979 966 
Q 979 448 1088 294 
Q 1197 141 1574 122 
L 1574 0 
L 77 0 
L 77 122 
Q 358 141 480 205 
Q 602 269 650 432 
Q 698 595 698 966 
L 698 3514 
Q 698 3878 589 3984 
Q 480 4090 90 4115 
L 90 4237 
L 1357 4237 
L 2835 1024 
L 4250 4237 
L 5523 4237 
L 5523 4115 
Q 5178 4109 5072 3993 
Q 4966 3878 4966 3520 
L 4966 717 
Q 4966 378 5072 262 
Q 5178 147 5530 122 
L 5530 0 
z
" transform="scale(0.015625)"/>
       <path id="STIXGeneral-Regular-61" d="M 2829 422 
L 2829 243 
Q 2586 -64 2253 -64 
Q 1888 -64 1843 403 
L 1837 403 
Q 1427 -64 909 -64 
Q 608 -64 422 112 
Q 237 288 237 602 
Q 237 1050 685 1350 
Q 992 1555 1837 1869 
L 1837 2214 
Q 1837 2502 1699 2646 
Q 1562 2790 1338 2790 
Q 1146 2790 1018 2697 
Q 890 2605 890 2477 
Q 890 2419 909 2348 
Q 928 2278 928 2208 
Q 928 2112 841 2029 
Q 755 1946 634 1946 
Q 525 1946 441 2029 
Q 358 2112 358 2240 
Q 358 2547 685 2752 
Q 986 2944 1421 2944 
Q 1939 2944 2176 2656 
Q 2291 2522 2323 2384 
Q 2355 2246 2355 1946 
L 2355 723 
Q 2355 301 2554 301 
Q 2682 301 2829 422 
z
M 1837 813 
L 1837 1715 
Q 1248 1510 1018 1293 
Q 800 1094 800 800 
Q 800 557 921 432 
Q 1043 307 1242 307 
Q 1453 307 1613 410 
Q 1747 506 1792 589 
Q 1837 672 1837 813 
z
" transform="scale(0.015625)"/>
       <path id="STIXGeneral-Regular-6e" d="M 3104 0 
L 1773 0 
L 1779 96 
Q 2016 115 2096 233 
Q 2176 352 2176 672 
L 2176 1946 
Q 2176 2592 1709 2592 
Q 1549 2592 1408 2515 
Q 1267 2438 1050 2227 
L 1050 461 
Q 1050 269 1136 192 
Q 1222 115 1466 96 
L 1466 0 
L 115 0 
L 115 96 
Q 358 115 435 214 
Q 512 314 512 602 
L 512 2157 
Q 512 2394 467 2483 
Q 422 2573 288 2573 
Q 160 2573 102 2547 
L 102 2656 
Q 550 2784 979 2944 
L 1030 2925 
L 1030 2426 
L 1037 2426 
Q 1491 2944 1958 2944 
Q 2323 2944 2518 2688 
Q 2714 2432 2714 1958 
L 2714 544 
Q 2714 288 2790 205 
Q 2867 122 3104 96 
L 3104 0 
z
" transform="scale(0.015625)"/>
       <path id="STIXGeneral-Regular-20" transform="scale(0.015625)"/>
       <path id="STIXGeneral-Regular-64" d="M 3142 269 
L 2202 -64 
L 2176 -45 
L 2176 365 
Q 1869 -64 1357 -64 
Q 826 -64 499 317 
Q 173 698 173 1312 
Q 173 1990 563 2467 
Q 954 2944 1504 2944 
Q 1850 2944 2176 2669 
L 2176 3667 
Q 2176 3866 2118 3930 
Q 2061 3994 1882 3994 
Q 1792 3994 1741 3987 
L 1741 4090 
Q 2323 4243 2682 4371 
L 2714 4358 
L 2714 730 
Q 2714 506 2768 435 
Q 2822 365 2995 365 
Q 3034 365 3142 371 
L 3142 269 
z
M 2176 653 
L 2176 2125 
Q 2176 2381 1981 2573 
Q 1786 2765 1523 2765 
Q 1158 2765 940 2438 
Q 723 2112 723 1568 
Q 723 979 963 624 
Q 1203 269 1606 269 
Q 1907 269 2080 474 
Q 2176 582 2176 653 
z
" transform="scale(0.015625)"/>
       <path id="STIXGeneral-Regular-66" d="M 134 2880 
L 659 2880 
Q 666 3264 710 3478 
Q 755 3693 883 3910 
Q 1152 4371 1786 4371 
Q 2074 4371 2262 4259 
Q 2451 4147 2451 3974 
Q 2451 3866 2374 3789 
Q 2298 3712 2182 3712 
Q 2029 3712 1894 3942 
Q 1741 4192 1555 4192 
Q 1197 4192 1197 3622 
L 1197 2880 
L 1978 2880 
L 1978 2675 
L 1197 2675 
L 1197 666 
Q 1197 307 1299 208 
Q 1402 109 1792 96 
L 1792 0 
L 128 0 
L 128 96 
Q 474 115 566 214 
Q 659 314 659 666 
L 659 2675 
L 134 2675 
L 134 2880 
z
" transform="scale(0.015625)"/>
       <path id="STIXGeneral-Regular-72" d="M 1024 2931 
L 1024 2342 
Q 1267 2688 1430 2816 
Q 1594 2944 1792 2944 
Q 1958 2944 2051 2854 
Q 2144 2765 2144 2605 
Q 2144 2470 2077 2393 
Q 2010 2317 1894 2317 
Q 1773 2317 1638 2445 
Q 1536 2541 1472 2541 
Q 1338 2541 1181 2355 
Q 1024 2170 1024 2016 
L 1024 576 
Q 1024 301 1133 205 
Q 1242 109 1568 96 
L 1568 0 
L 32 0 
L 32 96 
Q 339 154 412 224 
Q 486 294 486 538 
L 486 2138 
Q 486 2349 438 2435 
Q 390 2522 269 2522 
Q 166 2522 45 2496 
L 45 2598 
Q 448 2726 992 2944 
L 1024 2931 
z
" transform="scale(0.015625)"/>
       <path id="STIXGeneral-Regular-63" d="M 2547 998 
L 2637 941 
Q 2362 403 2112 205 
Q 1786 -64 1376 -64 
Q 845 -64 502 336 
Q 160 736 160 1357 
Q 160 2170 698 2618 
Q 1094 2944 1562 2944 
Q 1965 2944 2256 2749 
Q 2547 2554 2547 2285 
Q 2547 2176 2457 2096 
Q 2368 2016 2246 2016 
Q 2022 2016 1939 2310 
L 1901 2451 
Q 1850 2630 1773 2694 
Q 1696 2758 1523 2758 
Q 1133 2758 893 2451 
Q 653 2144 653 1645 
Q 653 1094 928 745 
Q 1203 397 1645 397 
Q 1920 397 2118 528 
Q 2317 659 2547 998 
z
" transform="scale(0.015625)"/>
       <path id="STIXGeneral-Regular-6f" d="M 3008 1478 
Q 3008 806 2608 371 
Q 2208 -64 1568 -64 
Q 979 -64 582 368 
Q 186 800 186 1459 
Q 186 2125 582 2534 
Q 979 2944 1626 2944 
Q 2221 2944 2614 2537 
Q 3008 2131 3008 1478 
z
M 2432 1306 
Q 2432 2035 2112 2445 
Q 1856 2765 1504 2765 
Q 1171 2765 966 2493 
Q 762 2221 762 1747 
Q 762 928 1101 435 
Q 1318 115 1677 115 
Q 2029 115 2230 432 
Q 2432 749 2432 1306 
z
" transform="scale(0.015625)"/>
       <path id="STIXGeneral-Regular-78" d="M 3066 0 
L 1779 0 
L 1779 96 
Q 1939 109 1987 137 
Q 2035 166 2035 250 
Q 2035 307 1997 365 
L 1414 1261 
L 909 474 
Q 781 275 781 211 
Q 781 96 1037 96 
L 1037 0 
L 109 0 
L 109 96 
Q 269 109 355 169 
Q 442 230 576 422 
L 1306 1478 
L 704 2400 
Q 557 2624 454 2704 
Q 352 2784 211 2784 
L 154 2784 
L 154 2880 
L 1478 2880 
L 1478 2784 
Q 1203 2778 1203 2643 
Q 1203 2509 1498 2074 
Q 1581 1958 1587 1946 
Q 1619 1990 1779 2227 
Q 1811 2285 1856 2349 
Q 1901 2413 1923 2451 
Q 1946 2490 1971 2528 
Q 1997 2566 2006 2595 
Q 2016 2624 2016 2643 
Q 2016 2765 1760 2784 
L 1760 2880 
L 2771 2880 
L 2771 2784 
Q 2445 2771 2253 2502 
L 1722 1734 
L 2541 480 
Q 2790 96 3066 96 
L 3066 0 
z
" transform="scale(0.015625)"/>
       <path id="STIXGeneral-Regular-74" d="M 1702 493 
L 1786 422 
Q 1478 -64 1011 -64 
Q 448 -64 448 749 
L 448 2675 
L 109 2675 
Q 83 2694 83 2720 
Q 83 2771 192 2842 
Q 435 2982 813 3526 
Q 826 3546 874 3606 
Q 922 3667 941 3706 
Q 986 3706 986 3622 
L 986 2880 
L 1632 2880 
L 1632 2675 
L 986 2675 
L 986 845 
Q 986 538 1062 403 
Q 1139 269 1318 269 
Q 1510 269 1702 493 
z
" transform="scale(0.015625)"/>
      </defs>
      <use xlink:href="#STIXGeneral-Regular-4d"/>
      <use xlink:href="#STIXGeneral-Regular-65" transform="translate(88.899994 0)"/>
      <use xlink:href="#STIXGeneral-Regular-61" transform="translate(133.299988 0)"/>
      <use xlink:href="#STIXGeneral-Regular-6e" transform="translate(177.699982 0)"/>
      <use xlink:href="#STIXGeneral-Regular-20" transform="translate(227.699966 0)"/>
      <use xlink:href="#STIXGeneral-Regular-64" transform="translate(252.699951 0)"/>
      <use xlink:href="#STIXGeneral-Regular-69" transform="translate(302.699936 0)"/>
      <use xlink:href="#STIXGeneral-Regular-66" transform="translate(330.499924 0)"/>
      <use xlink:href="#STIXGeneral-Regular-66" transform="translate(363.799911 0)"/>
      <use xlink:href="#STIXGeneral-Regular-65" transform="translate(397.099899 0)"/>
      <use xlink:href="#STIXGeneral-Regular-72" transform="translate(441.499893 0)"/>
      <use xlink:href="#STIXGeneral-Regular-65" transform="translate(474.799881 0)"/>
      <use xlink:href="#STIXGeneral-Regular-6e" transform="translate(519.199875 0)"/>
      <use xlink:href="#STIXGeneral-Regular-63" transform="translate(569.19986 0)"/>
      <use xlink:href="#STIXGeneral-Regular-65" transform="translate(613.599854 0)"/>
      <use xlink:href="#STIXGeneral-Regular-20" transform="translate(657.999847 0)"/>
      <use xlink:href="#STIXGeneral-Regular-66" transform="translate(682.999832 0)"/>
      <use xlink:href="#STIXGeneral-Regular-72" transform="translate(716.29982 0)"/>
      <use xlink:href="#STIXGeneral-Regular-6f" transform="translate(749.599808 0)"/>
      <use xlink:href="#STIXGeneral-Regular-6d" transform="translate(799.599792 0)"/>
      <use xlink:href="#STIXGeneral-Regular-20" transform="translate(877.39978 0)"/>
      <use xlink:href="#STIXGeneral-Regular-65" transform="translate(902.399765 0)"/>
      <use xlink:href="#STIXGeneral-Regular-78" transform="translate(946.799759 0)"/>
      <use xlink:href="#STIXGeneral-Regular-61" transform="translate(996.799744 0)"/>
      <use xlink:href="#STIXGeneral-Regular-63" transform="translate(1041.199738 0)"/>
      <use xlink:href="#STIXGeneral-Regular-74" transform="translate(1085.599731 0)"/>
     </g>
    </g>
    <g id="text_16">
     <!-- $\times\mathdefault{10^{−3}}\mathdefault{}$ -->
     <g transform="translate(37.98 23.24) scale(0.12 -0.12)">
      <defs>
       <path id="Cmsy10-a3" d="M 941 184 
Q 941 234 972 275 
L 2303 1600 
L 972 2931 
Q 941 2963 941 3016 
Q 941 3063 978 3103 
Q 1016 3144 1069 3144 
Q 1113 3144 1166 3103 
L 2491 1778 
L 3809 3103 
Q 3863 3144 3903 3144 
Q 3956 3144 3993 3106 
Q 4031 3069 4031 3016 
Q 4031 2963 4000 2931 
L 2669 1600 
L 4000 275 
Q 4031 234 4031 184 
Q 4031 131 3993 93 
Q 3956 56 3903 56 
Q 3856 56 3809 103 
L 2491 1422 
L 1166 103 
Q 1119 56 1069 56 
Q 1016 56 978 97 
Q 941 138 941 184 
z
" transform="scale(0.015625)"/>
      </defs>
      <use xlink:href="#Cmsy10-a3" transform="translate(0 0.684375)"/>
      <use xlink:href="#STIXGeneral-Regular-31" transform="translate(77.685547 0.684375)"/>
      <use xlink:href="#STIXGeneral-Regular-30" transform="translate(127.685532 0.684375)"/>
      <use xlink:href="#STIXGeneral-Regular-2212" transform="translate(179.260516 36.684375) scale(0.7)"/>
      <use xlink:href="#STIXGeneral-Regular-33" transform="translate(227.210506 36.684375) scale(0.7)"/>
     </g>
    </g>
   </g>
   <g id="line2d_142">
    <path d="M 57.002727 44.555369 
L 437.457273 44.555369 
L 437.457273 44.555369 
" clip-path="url(#pb5a5a87351)" style="fill: none; stroke: #2ca02c; stroke-width: 2.7; stroke-linecap: square"/>
   </g>
   <g id="line2d_143">
    <path d="M 37.98 44.555369 
L 456.48 44.555369 
" clip-path="url(#pb5a5a87351)" style="fill: none; stroke: #000000; stroke-opacity: 0.6; stroke-linecap: square"/>
   </g>
   <g id="patch_3">
    <path d="M 37.98 314.528 
L 37.98 26.24 
" style="fill: none; stroke: #000000; stroke-width: 0.5; stroke-linejoin: miter; stroke-linecap: square"/>
   </g>
   <g id="patch_4">
    <path d="M 456.48 314.528 
L 456.48 26.24 
" style="fill: none; stroke: #000000; stroke-width: 0.5; stroke-linejoin: miter; stroke-linecap: square"/>
   </g>
   <g id="patch_5">
    <path d="M 37.98 314.528 
L 456.48 314.528 
" style="fill: none; stroke: #000000; stroke-width: 0.5; stroke-linejoin: miter; stroke-linecap: square"/>
   </g>
   <g id="patch_6">
    <path d="M 37.98 26.24 
L 456.48 26.24 
" style="fill: none; stroke: #000000; stroke-width: 0.5; stroke-linejoin: miter; stroke-linecap: square"/>
   </g>
   <g id="line2d_144">
    <path d="M 57.002727 298.85993 
L 57.078818 298.101323 
L 57.154909 299.682096 
L 57.383182 295.692248 
L 57.459273 295.641768 
L 57.763636 299.913296 
L 58.068 296.669331 
L 58.296273 290.866195 
L 58.372364 291.796053 
L 58.448455 290.724031 
L 58.524545 290.8476 
L 58.600636 293.176817 
L 58.676727 292.684354 
L 58.828909 287.985377 
L 58.981091 296.224202 
L 59.057182 297.046863 
L 59.133273 299.203264 
L 59.513727 293.63983 
L 59.589818 294.275952 
L 59.818091 289.577783 
L 59.894182 288.133351 
L 59.970273 288.629241 
L 60.046364 288.547948 
L 60.122455 290.505342 
L 60.198545 290.289003 
L 60.426818 292.493641 
L 60.502909 290.623204 
L 60.579 290.999262 
L 60.731182 297.077919 
L 60.883364 294.493794 
L 60.959455 294.079179 
L 61.035545 295.930088 
L 61.111636 301.424 
L 61.187727 299.942613 
L 61.339909 297.835132 
L 61.416 297.828206 
L 61.644273 293.391613 
L 61.720364 292.822387 
L 62.024727 285.694751 
L 62.100818 286.166873 
L 63.242182 262.944793 
L 63.318273 265.745785 
L 63.394364 262.969209 
L 63.470455 266.891838 
L 63.546545 266.251264 
L 63.774818 262.496107 
L 63.850909 265.364148 
L 63.927 264.331182 
L 64.003091 264.337066 
L 64.307455 258.991243 
L 64.383545 262.034468 
L 64.611818 256.912451 
L 64.687909 257.256026 
L 64.840091 254.183035 
L 64.992273 260.49802 
L 65.068364 259.716016 
L 65.524909 247.506258 
L 65.601 249.180897 
L 65.677091 247.844713 
L 65.829273 243.61268 
L 65.905364 245.485352 
L 65.981455 244.795139 
L 66.057545 245.588164 
L 66.133636 243.606232 
L 66.209727 246.226659 
L 66.285818 246.119294 
L 66.590182 238.426657 
L 66.818455 236.890879 
L 67.046727 231.753902 
L 67.427182 226.697154 
L 67.503273 226.374228 
L 67.579364 226.679223 
L 67.655455 232.28928 
L 67.731545 232.279315 
L 67.807636 233.177931 
L 67.883727 236.396549 
L 68.112 232.207316 
L 68.188091 233.634575 
L 68.264182 233.497717 
L 68.644636 227.08786 
L 68.720727 228.753124 
L 68.796818 226.29571 
L 68.872909 228.033974 
L 68.949 226.236001 
L 69.025091 232.336321 
L 69.101182 230.176383 
L 69.177273 235.201769 
L 69.253364 233.142996 
L 69.329455 231.141796 
L 69.405545 232.165677 
L 69.481636 231.576976 
L 69.786 225.76399 
L 69.862091 225.366598 
L 70.014273 221.274618 
L 70.090364 223.914595 
L 70.166455 222.877701 
L 70.318636 218.220066 
L 70.394727 220.532555 
L 70.623 216.770075 
L 70.851273 213.479391 
L 71.003455 214.494766 
L 71.155636 210.710735 
L 71.536091 201.240591 
L 71.612182 202.222693 
L 71.688273 201.859372 
L 71.764364 200.481988 
L 71.916545 204.792667 
L 72.373091 195.863727 
L 72.449182 195.611901 
L 72.525273 198.082492 
L 72.601364 196.212396 
L 72.677455 199.969765 
L 72.753545 197.760756 
L 72.829636 198.588452 
L 72.905727 200.374195 
L 72.981818 198.61848 
L 73.057909 201.69991 
L 73.134 200.7804 
L 73.286182 196.065386 
L 73.362273 197.158254 
L 73.438364 202.569442 
L 73.666636 196.745183 
L 73.742727 196.004151 
L 73.818818 197.127605 
L 74.047091 193.674512 
L 74.123182 193.133313 
L 74.199273 193.860678 
L 74.275364 191.497706 
L 74.351455 192.732602 
L 74.503636 189.812878 
L 74.579727 192.054434 
L 74.731909 202.710908 
L 74.808 202.940068 
L 74.960182 198.254592 
L 75.036273 201.092487 
L 75.112364 200.610677 
L 75.264545 196.720118 
L 75.340636 197.586027 
L 75.492818 193.519771 
L 75.645 195.345721 
L 75.797182 203.214107 
L 75.949364 200.821669 
L 76.025455 203.101454 
L 76.253727 196.315843 
L 76.329818 197.321939 
L 76.558091 192.763906 
L 76.710273 193.706094 
L 76.786364 192.145246 
L 76.862455 193.72828 
L 77.242909 183.493996 
L 77.395091 191.058966 
L 77.699455 185.270257 
L 77.927727 194.706626 
L 78.079909 193.673676 
L 78.156 194.05308 
L 78.384273 197.685899 
L 78.612545 191.277619 
L 78.688636 191.476094 
L 78.764727 190.66896 
L 78.840818 188.291459 
L 78.916909 188.563504 
L 78.993 188.319403 
L 79.069091 191.470616 
L 79.145182 190.366202 
L 79.449545 184.467461 
L 79.525636 182.660081 
L 79.601727 187.839361 
L 79.677818 185.929704 
L 80.058273 177.375948 
L 80.210455 182.311537 
L 80.286545 179.906265 
L 80.362636 181.137417 
L 80.438727 179.104614 
L 80.514818 179.29773 
L 80.590909 179.635223 
L 80.819182 189.827463 
L 80.895273 189.019377 
L 81.047455 190.334319 
L 81.504 178.714662 
L 81.580091 180.926592 
L 81.808364 176.792669 
L 81.960545 178.010259 
L 82.188818 187.330975 
L 82.264909 186.242963 
L 82.417091 182.379023 
L 82.493182 183.804631 
L 82.645364 179.462543 
L 82.721455 181.958964 
L 82.873636 192.50006 
L 82.949727 190.37708 
L 83.025818 191.471143 
L 83.406273 185.427547 
L 83.786727 180.338599 
L 83.862818 179.763226 
L 83.938909 181.686951 
L 84.091091 177.517393 
L 84.167182 178.93584 
L 84.395455 190.44583 
L 84.547636 188.820564 
L 84.623727 189.238022 
L 84.775909 188.343296 
L 84.852 186.708148 
L 85.080273 193.635893 
L 85.536818 181.562782 
L 85.765091 178.470131 
L 85.917273 181.93505 
L 86.221636 195.661907 
L 86.526 189.079917 
L 86.678182 193.147746 
L 86.830364 190.42197 
L 86.906455 190.078538 
L 87.210818 183.414407 
L 87.363 185.403768 
L 87.515182 182.456846 
L 87.591273 186.863331 
L 87.895636 180.846104 
L 87.971727 180.883093 
L 88.047818 178.699686 
L 88.123909 195.229574 
L 88.2 192.9678 
L 88.276091 191.87232 
L 88.352182 194.639444 
L 88.428273 194.211382 
L 88.884818 184.685966 
L 88.960909 194.964188 
L 89.037 193.721875 
L 89.493545 186.613259 
L 89.569636 190.981364 
L 89.645727 189.919774 
L 90.178364 177.448032 
L 90.254455 175.504195 
L 90.330545 175.534298 
L 90.406636 175.409974 
L 90.787091 166.575008 
L 90.863182 175.521079 
L 90.939273 173.713877 
L 91.091455 178.790426 
L 91.319727 173.341366 
L 91.395818 171.469544 
L 91.548 173.70262 
L 91.852364 168.065044 
L 92.004545 169.597805 
L 92.308909 164.910146 
L 92.385 164.501563 
L 92.461091 165.705183 
L 93.069818 153.238936 
L 93.145909 155.179416 
L 93.222 155.168823 
L 93.526364 150.745002 
L 93.602455 150.320882 
L 93.678545 152.511786 
L 93.906818 150.209936 
L 93.982909 150.987289 
L 94.211182 147.794238 
L 94.363364 173.280554 
L 94.515545 171.128065 
L 94.743818 173.167099 
L 94.819909 172.526486 
L 94.896 170.446993 
L 94.972091 188.515765 
L 95.048182 187.986581 
L 95.124273 185.863362 
L 95.200364 191.897429 
L 95.276455 191.668752 
L 95.352545 189.58508 
L 95.504727 195.926057 
L 95.580818 194.650513 
L 95.809091 191.330231 
L 95.885182 190.976139 
L 96.113455 187.07509 
L 96.265636 184.832371 
L 96.646091 176.495665 
L 96.722182 177.137433 
L 96.798273 175.251643 
L 96.874364 178.162921 
L 96.950455 177.615362 
L 97.026545 175.854621 
L 97.102636 176.009959 
L 97.178727 178.606844 
L 97.330909 175.731758 
L 97.407 176.022399 
L 97.483091 178.651515 
L 97.787455 173.760824 
L 97.863545 174.230327 
L 98.320091 165.69231 
L 98.396182 164.242766 
L 98.624455 167.843859 
L 98.700545 166.767127 
L 98.776636 164.918559 
L 98.928818 167.592423 
L 99.081 170.829966 
L 99.157091 170.78062 
L 99.233182 169.564905 
L 99.461455 181.184055 
L 99.537545 181.135142 
L 99.689727 177.413041 
L 99.765818 182.67697 
L 99.841909 180.744606 
L 99.918 179.063923 
L 99.994091 185.979658 
L 100.070182 184.701075 
L 100.450636 177.670513 
L 100.526727 179.549311 
L 100.678909 177.672439 
L 100.755 179.348885 
L 101.363727 168.975449 
L 101.439818 170.762926 
L 101.820273 163.023098 
L 102.048545 175.576226 
L 102.200727 172.417961 
L 102.276818 187.434743 
L 102.352909 185.485287 
L 102.581182 192.023299 
L 102.961636 182.55355 
L 103.037727 184.928594 
L 103.189909 181.774965 
L 103.266 195.142885 
L 103.342091 193.375612 
L 103.646455 187.45867 
L 103.722545 190.002826 
L 103.798636 189.601879 
L 104.026909 184.219779 
L 104.103 192.258568 
L 104.179091 190.542364 
L 104.255182 188.923178 
L 104.559545 206.615399 
L 104.94 199.793946 
L 105.168273 197.47683 
L 105.244364 198.176682 
L 105.396545 202.247232 
L 105.472636 201.358736 
L 105.548727 202.015041 
L 105.624818 210.572355 
L 105.700909 208.840174 
L 105.853091 205.839629 
L 105.929182 205.890802 
L 106.081364 209.487789 
L 106.385727 205.172461 
L 106.690091 217.291825 
L 107.298818 204.583894 
L 107.374909 204.654657 
L 107.451 202.831964 
L 107.527091 205.504197 
L 108.059727 195.745974 
L 108.135818 207.632943 
L 108.211909 205.91685 
L 108.288 209.113262 
L 108.592364 203.023911 
L 108.668455 205.895418 
L 109.429364 189.879042 
L 109.505455 188.729758 
L 109.657636 209.595027 
L 109.733727 207.88199 
L 109.962 204.869644 
L 110.038091 207.095539 
L 110.114182 206.802239 
L 110.418545 201.030506 
L 110.494636 199.466984 
L 110.570727 201.711676 
L 110.722909 198.55486 
L 110.799 201.840856 
L 111.636 186.588965 
L 111.712091 186.666905 
L 111.940364 184.240887 
L 112.092545 183.215757 
L 112.168636 191.452077 
L 112.244727 189.81314 
L 112.396909 186.948426 
L 112.473 189.670233 
L 112.625182 186.512415 
L 112.701273 188.104145 
L 112.777364 186.608391 
L 112.853455 188.197138 
L 113.005636 194.213571 
L 113.614364 184.427723 
L 113.690455 183.946165 
L 113.918727 179.133185 
L 113.994818 189.687117 
L 114.070909 187.995253 
L 114.299182 184.697294 
L 114.375273 193.640152 
L 114.451364 192.065723 
L 114.603545 188.85332 
L 114.679636 189.997079 
L 114.984 183.804397 
L 115.060091 184.822593 
L 115.212273 182.678098 
L 115.821 173.047979 
L 115.973182 191.430357 
L 116.049273 189.885342 
L 116.201455 186.882591 
L 116.277545 191.350695 
L 116.353636 190.634945 
L 116.581909 186.487285 
L 117.114545 176.647386 
L 117.342818 184.000528 
L 117.418909 182.35997 
L 117.495 191.938861 
L 117.571091 190.480708 
L 117.799364 186.274641 
L 117.875455 187.369804 
L 117.951545 195.032552 
L 118.027636 193.547062 
L 118.179818 199.672616 
L 118.636364 191.57429 
L 119.092909 182.59013 
L 119.169 185.369709 
L 119.701636 176.572645 
L 119.777727 179.975517 
L 119.853818 178.621227 
L 119.929909 177.224088 
L 120.006 189.544496 
L 120.082091 188.053748 
L 120.462545 183.603626 
L 120.538636 201.622805 
L 120.614727 200.148802 
L 120.690818 200.24249 
L 120.919091 196.34929 
L 120.995182 196.394953 
L 121.451727 189.570322 
L 121.527818 205.145689 
L 121.603909 203.712876 
L 121.68 203.648029 
L 122.060455 197.571346 
L 122.136545 197.518581 
L 122.517 190.632178 
L 122.593091 201.862926 
L 122.669182 200.477764 
L 122.897455 197.198289 
L 122.973545 208.270647 
L 123.049636 206.805643 
L 123.125727 205.495269 
L 123.201818 207.543429 
L 123.658364 198.936562 
L 123.734455 200.810222 
L 123.810545 217.791372 
L 123.886636 216.470788 
L 125.104091 194.361617 
L 125.256273 210.668345 
L 125.712818 202.688714 
L 126.245455 195.267844 
L 126.321545 194.105788 
L 126.397636 198.789926 
L 126.473727 197.564958 
L 126.778091 192.804209 
L 126.854182 197.47829 
L 126.930273 196.001886 
L 127.158545 192.908058 
L 127.234636 193.915744 
L 127.539 189.343964 
L 127.615091 193.474485 
L 127.691182 192.318428 
L 127.843364 190.596355 
L 127.919455 190.646047 
L 128.452091 182.181016 
L 128.528182 183.066902 
L 128.604273 181.758672 
L 128.680364 182.629686 
L 129.136909 175.30608 
L 129.213 176.737127 
L 129.289091 175.545559 
L 129.365182 179.243832 
L 129.441273 177.948742 
L 129.593455 175.695551 
L 129.669545 176.534018 
L 130.202182 169.199019 
L 130.658727 162.63211 
L 130.734818 166.261153 
L 130.810909 164.748954 
L 130.887 163.620168 
L 130.963091 164.144059 
L 131.495727 156.220188 
L 131.724 153.398251 
L 131.876182 151.00537 
L 131.952273 159.046174 
L 132.028364 158.099192 
L 132.941455 144.715944 
L 133.017545 147.722985 
L 133.093636 146.682284 
L 134.615455 129.31282 
L 135.148091 122.613283 
L 135.300273 120.637185 
L 135.376364 128.73945 
L 135.452455 127.779763 
L 135.528545 126.860413 
L 135.604636 129.157726 
L 135.680727 128.207062 
L 136.137273 122.490766 
L 136.289455 131.341031 
L 136.365545 131.528188 
L 136.898182 125.253743 
L 137.354727 119.86724 
L 137.430818 119.80142 
L 137.811273 114.901802 
L 138.191727 111.234824 
L 138.267818 111.02301 
L 138.648273 107.220341 
L 138.800455 106.952045 
L 139.257 102.059309 
L 139.333091 101.928009 
L 139.561364 99.721707 
L 139.637455 100.186282 
L 139.865727 122.695687 
L 140.017909 120.706711 
L 140.550545 115.378159 
L 140.626636 133.395803 
L 140.702727 132.53893 
L 140.931 130.59895 
L 141.007091 131.811701 
L 141.920182 120.999476 
L 141.996273 146.460064 
L 142.072364 145.624004 
L 142.148455 146.769242 
L 142.528909 142.417646 
L 142.605 142.102583 
L 142.909364 139.065866 
L 142.985455 140.075401 
L 143.061545 140.001562 
L 144.811636 121.78061 
L 144.963818 123.555249 
L 145.116 122.060303 
L 145.192091 122.949742 
L 145.876909 117.966066 
L 145.953 121.8641 
L 146.029091 121.118091 
L 146.866091 114.071009 
L 146.942182 117.746162 
L 147.018273 116.785209 
L 148.311818 105.474773 
L 148.387909 105.99176 
L 148.464 105.33374 
L 148.540091 105.711561 
L 148.616182 104.912841 
L 148.692273 105.374742 
L 148.768364 108.348059 
L 148.844455 107.435102 
L 149.833636 99.780892 
L 149.909727 100.066378 
L 150.670636 93.472885 
L 150.746727 101.032506 
L 150.822818 100.156712 
L 151.964182 90.978203 
L 152.192455 89.180406 
L 152.268545 91.746634 
L 152.344636 90.983174 
L 152.725091 87.888939 
L 153.257727 82.854291 
L 154.170818 77.597462 
L 154.246909 77.417178 
L 156.301364 63.709096 
L 156.681818 61.238215 
L 157.290545 56.422914 
L 157.366636 77.115043 
L 157.442727 76.573129 
L 157.671 75.348033 
L 158.051455 73.117722 
L 158.127545 76.686396 
L 158.203636 76.271148 
L 158.279727 77.584593 
L 158.355818 77.191235 
L 158.431909 76.800576 
L 158.508 78.311073 
L 158.584091 77.865692 
L 158.660182 77.469735 
L 158.736273 78.943454 
L 158.812364 78.241561 
L 158.888455 79.679118 
L 158.964545 79.230945 
L 159.040636 78.315592 
L 159.116727 79.619741 
L 159.192818 79.208575 
L 159.345 78.087005 
L 159.421091 78.953743 
L 159.953727 75.161279 
L 160.182 73.759935 
L 160.410273 72.017877 
L 160.486364 73.23813 
L 160.562455 78.338557 
L 160.638545 77.862515 
L 160.866818 76.329969 
L 161.095091 87.060723 
L 161.171182 87.801638 
L 161.323364 86.627306 
L 161.551636 97.008184 
L 162.160364 92.500499 
L 162.236455 93.316146 
L 162.921273 88.284526 
L 163.149545 86.759075 
L 163.53 83.007871 
L 163.682182 82.137211 
L 163.758273 86.320618 
L 163.834364 85.873508 
L 164.138727 83.764705 
L 164.214818 85.388225 
L 164.290909 84.735993 
L 164.671364 82.061421 
L 164.747455 85.965169 
L 164.823545 85.42871 
L 165.204 82.388727 
L 165.888818 77.809792 
L 166.421455 74.263841 
L 166.497545 74.59126 
L 166.725818 86.743499 
L 166.878 85.698462 
L 167.334545 82.359542 
L 167.791091 79.250264 
L 168.399818 74.670477 
L 168.780273 72.13112 
L 168.856364 71.319324 
L 168.932455 74.367482 
L 169.008545 73.941803 
L 169.084636 73.398579 
L 169.160727 73.558262 
L 169.312909 72.742326 
L 169.389 75.466011 
L 169.465091 74.511931 
L 170.073818 70.751154 
L 170.149909 79.063188 
L 170.226 78.462297 
L 171.443455 70.447544 
L 171.976091 67.710989 
L 172.128273 66.009396 
L 172.204364 66.244337 
L 172.508727 63.975193 
L 173.117455 60.760956 
L 173.345727 59.406405 
L 174.715364 52.880833 
L 174.943636 51.407105 
L 175.019727 66.917059 
L 175.095818 66.583351 
L 175.400182 64.898934 
L 175.780636 62.48724 
L 176.008909 65.773522 
L 176.465455 63.385696 
L 176.541545 69.72097 
L 176.617636 69.103149 
L 177.606818 63.506116 
L 177.682909 77.869506 
L 177.759 77.531697 
L 178.367727 74.353346 
L 178.443818 73.999611 
L 178.519909 75.290904 
L 178.824273 72.890854 
L 178.900364 74.151817 
L 178.976455 73.827913 
L 180.117818 68.874958 
L 180.27 67.90429 
L 180.346091 69.084116 
L 180.574364 67.15721 
L 180.650455 89.872936 
L 180.726545 89.554889 
L 181.030909 87.907943 
L 181.335273 86.508243 
L 181.411364 91.892022 
L 181.487455 91.568388 
L 182.248364 87.761258 
L 182.324455 92.900743 
L 182.400545 92.496474 
L 182.628818 91.096873 
L 183.161455 88.622143 
L 183.237545 110.802046 
L 183.313636 110.449652 
L 183.465818 109.722923 
L 183.541909 110.469757 
L 184.150636 106.82867 
L 184.911545 103.49321 
L 184.987636 115.752158 
L 185.063727 115.428015 
L 185.292 114.100552 
L 185.672455 111.768482 
L 185.900727 110.358681 
L 185.976818 110.862036 
L 186.509455 108.629164 
L 186.585545 112.735568 
L 186.661636 112.412082 
L 187.346455 108.728961 
L 187.422545 120.450093 
L 187.498636 120.120102 
L 188.259545 116.519061 
L 188.411727 115.166592 
L 188.487818 115.372342 
L 190.161818 107.886997 
L 190.922727 104.828414 
L 192.368455 99.799434 
L 192.596727 98.044091 
L 192.825 97.24993 
L 192.901091 116.638568 
L 192.977182 116.358387 
L 193.509818 114.109645 
L 193.890273 112.089802 
L 194.499 109.766002 
L 194.879455 107.067747 
L 195.183818 106.045344 
L 195.259909 108.436161 
L 195.336 108.167879 
L 197.238273 100.457073 
L 197.466545 99.224164 
L 198.988364 93.480897 
L 199.064455 93.252547 
L 199.140545 129.299441 
L 199.216636 128.912834 
L 199.444909 127.516054 
L 199.901455 125.825771 
L 200.358 124.161362 
L 200.586273 123.201104 
L 201.499364 120.243951 
L 201.727636 118.859103 
L 202.488545 116.426763 
L 202.640727 115.680862 
L 202.869 114.514542 
L 203.553818 112.352584 
L 203.858182 110.326551 
L 204.466909 108.579846 
L 204.695182 107.198499 
L 204.771273 141.07265 
L 204.847364 140.877311 
L 204.999545 140.198095 
L 205.075636 141.077551 
L 205.151727 140.872969 
L 205.684364 139.434646 
L 205.760455 140.217774 
L 206.293091 137.537121 
L 206.749636 136.148048 
L 206.977909 135.233196 
L 207.206182 134.457745 
L 207.510545 133.431862 
L 207.814909 132.598542 
L 207.891 133.117767 
L 207.967091 132.915544 
L 208.423636 131.13258 
L 209.336727 128.631389 
L 209.565 127.397277 
L 209.641091 127.70179 
L 210.249818 126.085938 
L 210.325909 126.308841 
L 210.478091 125.906174 
L 210.706364 124.825355 
L 210.782455 124.622794 
L 211.010727 123.650898 
L 211.467273 122.049765 
L 211.923818 120.6519 
L 212.152091 119.711587 
L 213.065182 117.598771 
L 213.293455 116.469317 
L 214.358727 113.617791 
L 214.587 112.630445 
L 215.043545 111.588997 
L 215.119636 117.071898 
L 215.195727 116.890449 
L 216.032727 114.633593 
L 216.108818 126.54113 
L 216.184909 126.342954 
L 216.641455 125.166637 
L 216.869727 124.095876 
L 217.630636 122.191652 
L 217.935 120.590113 
L 218.087182 120.216145 
L 218.239364 119.050818 
L 219.761182 115.06715 
L 219.989455 114.173046 
L 220.598182 112.712629 
L 220.902545 110.539122 
L 221.054727 110.101105 
L 221.359091 108.080547 
L 222.272182 105.860852 
L 222.500455 104.222569 
L 224.631 99.202799 
L 224.935364 97.446461 
L 225.011455 101.628191 
L 225.087545 101.459548 
L 225.468 100.642166 
L 225.544091 104.758292 
L 225.620182 104.58808 
L 226.000636 103.694199 
L 226.228909 102.800882 
L 226.457182 102.307297 
L 226.685455 101.524619 
L 226.837636 101.203112 
L 227.065909 100.333643 
L 227.142 100.175322 
L 227.370273 99.270254 
L 229.044273 95.769449 
L 229.272545 92.579384 
L 229.424727 92.27707 
L 229.805182 90.856502 
L 230.870455 88.791623 
L 230.946545 92.39254 
L 231.022636 92.241111 
L 231.250909 91.400772 
L 232.164 89.646137 
L 232.240091 93.140066 
L 232.316182 92.994267 
L 232.696636 92.226715 
L 232.772727 95.675754 
L 232.848818 95.155097 
L 233.609727 93.684076 
L 233.838 92.89436 
L 233.990182 92.605673 
L 234.066273 98.432199 
L 234.142364 98.266879 
L 236.805545 92.415977 
L 237.033818 91.93563 
L 237.109909 95.082569 
L 237.186 94.931211 
L 238.175182 92.91984 
L 238.403455 92.118766 
L 238.936091 91.111512 
L 239.088273 89.218644 
L 240.153545 87.131612 
L 240.381818 86.362971 
L 240.610091 85.956234 
L 240.762273 84.015332 
L 241.294909 83.024203 
L 241.675364 82.363125 
L 241.751455 85.251024 
L 241.827545 85.07547 
L 241.903636 84.941888 
L 242.131909 84.144826 
L 243.805909 81.295344 
L 243.958091 79.263698 
L 244.414636 78.560659 
L 244.566818 76.515962 
L 245.556 75.039342 
L 245.708182 74.445568 
L 247.153909 72.233041 
L 247.306091 70.1291 
L 247.610455 69.711653 
L 248.143091 68.995124 
L 248.219182 68.532948 
L 248.295273 98.891306 
L 248.371364 98.778816 
L 248.523545 98.546167 
L 248.675727 97.964573 
L 248.827909 97.734224 
L 248.904 98.770178 
L 248.980091 98.659347 
L 249.664909 97.603597 
L 249.741 98.412124 
L 249.817091 98.313609 
L 249.893182 98.172646 
L 250.121455 97.355563 
L 251.947636 93.540822 
L 252.023727 96.208975 
L 252.099818 96.019657 
L 252.708545 94.887452 
L 252.936818 94.063001 
L 253.545545 92.934807 
L 253.697727 95.674649 
L 254.763 93.736806 
L 254.915182 92.889989 
L 255.828273 91.157523 
L 255.980455 88.828141 
L 256.208727 88.455556 
L 256.437 87.652635 
L 257.121818 86.408496 
L 257.274 115.846599 
L 258.567545 113.315324 
L 258.795818 112.459759 
L 259.632818 110.910378 
L 259.708909 111.096865 
L 260.013273 110.429743 
L 260.241545 109.64167 
L 260.774182 108.623386 
L 261.002455 107.83874 
L 261.306818 107.288819 
L 261.535091 106.508191 
L 261.763364 106.096149 
L 261.915545 103.292632 
L 262.143818 102.946614 
L 262.372091 102.104398 
L 264.426545 97.993354 
L 264.502636 98.262801 
L 264.654818 97.970844 
L 264.807 94.414882 
L 265.491818 92.918768 
L 265.567909 121.448111 
L 265.644 121.27229 
L 265.796182 120.932583 
L 265.872273 121.203952 
L 266.024455 120.870743 
L 266.100545 123.599921 
L 266.176636 123.426697 
L 266.481 122.746351 
L 266.557091 123.034153 
L 267.165818 121.83576 
L 267.394091 120.918656 
L 267.546273 116.631161 
L 269.068091 113.06037 
L 269.144182 113.382406 
L 269.600727 112.414993 
L 269.752909 109.72557 
L 269.981182 108.819847 
L 270.589909 107.455831 
L 270.818182 106.566363 
L 271.883455 104.321821 
L 272.111727 103.439032 
L 272.568273 102.573131 
L 272.644364 102.96163 
L 272.720455 102.799775 
L 272.872636 102.478663 
L 273.024818 99.386109 
L 274.851 95.626118 
L 275.003182 93.031062 
L 275.688 91.574739 
L 275.764091 92.018074 
L 275.840182 91.865827 
L 275.916273 91.713801 
L 275.992364 89.144285 
L 276.068455 92.05356 
L 276.144545 91.973008 
L 276.448909 91.314817 
L 276.753273 89.918561 
L 277.133727 89.138315 
L 277.590273 88.239602 
L 277.742455 85.502209 
L 277.818545 85.488908 
L 278.731636 83.84403 
L 278.959909 82.999465 
L 279.036 86.056687 
L 279.112091 85.915975 
L 279.416455 85.35526 
L 279.568636 82.779703 
L 280.025182 81.943069 
L 280.101273 82.451851 
L 280.177364 82.314532 
L 280.253455 85.410541 
L 280.329545 84.86734 
L 281.470909 82.931039 
L 281.623091 82.256911 
L 282.612273 80.555361 
L 282.688364 83.72616 
L 282.764455 83.599539 
L 284.514545 80.906686 
L 285.579818 79.301191 
L 285.732 78.634541 
L 286.416818 77.433838 
L 286.645091 77.006275 
L 286.721182 77.039765 
L 286.797273 76.923436 
L 286.949455 76.269366 
L 288.014727 74.770966 
L 288.166909 74.120197 
L 288.395182 73.783625 
L 288.547364 71.032107 
L 289.840909 69.163786 
L 289.917 94.946091 
L 289.993091 94.827302 
L 290.525727 94.050378 
L 290.601818 94.089718 
L 290.754 93.859217 
L 290.906182 93.222166 
L 291.286636 92.824022 
L 291.438818 92.162713 
L 293.645455 88.923191 
L 293.721545 88.973232 
L 296.308636 85.522858 
L 296.460818 84.878715 
L 296.613 85.001728 
L 296.841273 84.689208 
L 296.993455 75.018109 
L 297.373909 74.452804 
L 297.602182 73.604484 
L 297.830455 73.268145 
L 297.982636 63.385405 
L 298.439182 62.520024 
L 301.787182 57.244623 
L 301.863273 57.303068 
L 301.939364 56.74659 
L 302.015455 56.805531 
L 302.091545 56.621703 
L 302.167636 56.681199 
L 303.156818 55.279614 
L 303.232909 55.342689 
L 303.689455 54.696031 
L 303.765545 54.760882 
L 303.841636 58.46563 
L 303.917727 58.360207 
L 303.993818 58.254952 
L 304.069909 59.029224 
L 304.146 58.924743 
L 306.885273 55.327004 
L 307.113545 54.986755 
L 307.341818 54.697388 
L 307.494 51.920138 
L 307.646182 51.275361 
L 310.385455 47.90444 
L 310.461545 51.731946 
L 310.537636 51.641908 
L 311.222455 50.929759 
L 311.298545 51.019414 
L 311.374636 50.931076 
L 311.526818 52.58493 
L 311.602909 52.496125 
L 311.679 52.408943 
L 311.755091 53.237546 
L 311.831182 53.150931 
L 312.287727 52.621488 
L 312.439909 51.996995 
L 312.820364 51.589445 
L 315.787909 48.379144 
L 315.940091 47.76623 
L 316.624909 46.983423 
L 316.701 69.402564 
L 316.777091 69.344399 
L 316.929273 66.604518 
L 317.005364 66.517484 
L 317.157545 65.889319 
L 318.831545 64.115482 
L 318.907636 64.967643 
L 318.983727 64.884175 
L 321.646909 62.033517 
L 321.723 65.977647 
L 321.799091 65.933224 
L 321.951273 63.232449 
L 322.027364 64.095727 
L 322.103455 64.018213 
L 322.483909 63.662224 
L 323.625273 62.455282 
L 323.701364 63.323096 
L 323.777455 63.248228 
L 326.212364 60.942212 
L 326.364545 60.336143 
L 327.201545 59.513056 
L 327.353727 58.922037 
L 327.429818 59.034608 
L 327.505909 58.965302 
L 327.886364 58.832105 
L 327.962455 58.945417 
L 328.038545 58.876868 
L 329.940818 57.17589 
L 330.093 56.598837 
L 332.604 54.315294 
L 332.832273 54.041961 
L 332.908364 53.980746 
L 333.060545 51.382956 
L 333.136636 39.471884 
L 333.212727 39.905762 
L 333.745364 39.46552 
L 333.821455 39.585937 
L 333.897545 39.52528 
L 334.125818 39.344 
L 334.201909 43.263155 
L 334.278 43.20275 
L 334.506273 42.946477 
L 334.658455 42.826677 
L 334.734545 46.789845 
L 334.810636 46.729865 
L 337.930364 44.383641 
L 338.082545 43.83058 
L 338.843455 43.311771 
L 338.919545 43.437087 
L 338.995636 47.379966 
L 339.071727 47.325242 
L 341.963182 45.407623 
L 342.115364 44.869056 
L 342.952364 44.419284 
L 343.104545 43.884721 
L 343.408909 43.687357 
L 343.485 47.596025 
L 343.561091 47.546234 
L 348.354818 44.48037 
L 348.430909 45.347251 
L 348.507 45.302756 
L 348.583091 45.258342 
L 348.735273 44.743691 
L 350.485364 43.755332 
L 350.561455 44.617468 
L 350.637545 44.575095 
L 351.322364 44.115492 
L 351.398455 62.015193 
L 351.474545 61.963764 
L 351.550636 61.912414 
L 351.626727 65.719151 
L 351.702818 65.666869 
L 352.615909 65.031308 
L 352.692 64.980009 
L 352.920273 64.682694 
L 353.833364 64.008594 
L 353.909455 64.851053 
L 353.985545 64.800802 
L 355.050818 64.109043 
L 355.203 61.763396 
L 355.355182 61.667279 
L 355.431273 61.789663 
L 355.507364 61.741731 
L 357.181364 60.634799 
L 357.257455 61.468097 
L 357.333545 61.421604 
L 357.714 61.190194 
L 357.790091 62.025588 
L 357.866182 61.983339 
L 358.398818 61.786806 
L 358.474909 61.909029 
L 358.551 62.737513 
L 358.627091 62.71934 
L 359.692364 62.080801 
L 359.844545 62.157737 
L 361.290273 61.233386 
L 361.366364 77.841483 
L 361.442455 77.78812 
L 362.888182 76.812833 
L 362.964273 76.925162 
L 363.040364 76.873127 
L 370.953818 71.598313 
L 371.106 71.50776 
L 371.258182 71.57437 
L 374.073545 69.966692 
L 374.225727 70.034907 
L 376.128 68.840886 
L 377.573727 68.063341 
L 377.725909 68.133323 
L 378.639 67.653001 
L 378.791182 67.213548 
L 383.052273 65.11011 
L 383.128364 65.818149 
L 383.204455 65.78139 
L 383.889273 65.451576 
L 384.041455 65.523401 
L 384.726273 65.199221 
L 384.878455 64.926394 
L 389.900455 62.614717 
L 390.052636 62.219157 
L 390.128727 62.187145 
L 390.280909 62.260893 
L 391.117909 61.911983 
L 391.194 62.590225 
L 391.270091 62.558409 
L 391.574455 62.431603 
L 391.726636 62.504741 
L 391.954909 62.410585 
L 392.031 63.084194 
L 392.107091 63.05238 
L 396.672545 61.182048 
L 396.824727 61.254772 
L 397.813909 60.871119 
L 397.89 63.736746 
L 397.966091 63.697946 
L 402.531545 61.959106 
L 402.683727 61.604645 
L 403.292455 61.405968 
L 403.444636 52.3567 
L 408.466636 51.009016 
L 409.379727 50.775241 
L 409.531909 50.854309 
L 414.249545 49.772274 
L 414.401727 49.468827 
L 420.793364 48.159297 
L 422.847818 47.781671 
L 423 47.506399 
L 429.924273 46.395579 
L 430.000364 44.921598 
L 430.076455 53.865776 
L 430.152545 53.848969 
L 431.902636 53.501902 
L 432.054818 53.564573 
L 437.457273 52.490843 
L 437.457273 52.490843 
" clip-path="url(#pb5a5a87351)" style="fill: none; stroke: #ff7f0e; stroke-width: 2.5; stroke-linecap: square"/>
   </g>
   <g id="text_17">
    <!-- Mean Difference vs Time ($|\alpha=\sqrt{10}\rangle$, $U=0$, $\gamma=1$) -->
    <g transform="translate(76.99 20.24) scale(0.16 -0.16)">
     <defs>
      <path id="STIXGeneral-Regular-44" d="M 102 4237 
L 1830 4237 
Q 3078 4237 3750 3654 
Q 4384 3110 4384 2138 
Q 4384 966 3514 410 
Q 2880 0 1901 0 
L 102 0 
L 102 122 
Q 474 147 570 252 
Q 666 358 666 736 
L 666 3520 
Q 666 3891 570 3990 
Q 474 4090 102 4115 
L 102 4237 
z
M 1318 3731 
L 1318 538 
Q 1318 365 1379 301 
Q 1440 237 1626 237 
Q 2125 237 2432 307 
Q 2739 378 3021 570 
Q 3686 1018 3686 2099 
Q 3686 3027 3078 3558 
Q 2803 3802 2476 3901 
Q 2150 4000 1658 4000 
Q 1472 4000 1395 3942 
Q 1318 3885 1318 3731 
z
" transform="scale(0.015625)"/>
      <path id="STIXGeneral-Regular-76" d="M 3053 2880 
L 3053 2784 
Q 2906 2771 2835 2688 
Q 2765 2605 2637 2285 
L 1818 230 
Q 1690 -90 1638 -90 
Q 1587 -90 1523 77 
Q 1510 96 1497 141 
Q 1485 186 1472 211 
L 704 2048 
Q 499 2534 403 2652 
Q 307 2771 122 2784 
L 122 2880 
L 1376 2880 
L 1376 2784 
Q 1210 2771 1146 2732 
Q 1082 2694 1082 2611 
Q 1082 2509 1139 2368 
L 1792 730 
L 2426 2387 
Q 2464 2483 2464 2579 
Q 2464 2758 2163 2784 
L 2163 2880 
L 3053 2880 
z
" transform="scale(0.015625)"/>
      <path id="STIXGeneral-Regular-73" d="M 998 1926 
L 1664 1523 
Q 1984 1331 2105 1164 
Q 2227 998 2227 736 
Q 2227 416 1961 176 
Q 1696 -64 1331 -64 
Q 1030 -64 864 -6 
Q 691 51 570 51 
Q 461 51 416 -26 
L 333 -26 
L 333 979 
L 435 979 
Q 538 512 730 294 
Q 922 77 1248 77 
Q 1485 77 1632 211 
Q 1779 346 1779 550 
Q 1779 845 1440 1030 
L 1094 1222 
Q 326 1651 326 2150 
Q 326 2522 566 2730 
Q 806 2938 1210 2938 
Q 1491 2938 1638 2867 
Q 1754 2816 1818 2816 
Q 1862 2816 1920 2880 
L 1990 2880 
L 2022 2010 
L 1926 2010 
Q 1818 2445 1654 2621 
Q 1491 2797 1203 2797 
Q 986 2797 854 2688 
Q 723 2579 723 2362 
Q 723 2253 796 2128 
Q 870 2003 998 1926 
z
" transform="scale(0.015625)"/>
      <path id="STIXGeneral-Regular-28" d="M 1946 -1030 
L 1869 -1133 
Q 1126 -710 716 32 
Q 307 774 307 1613 
Q 307 3386 1888 4326 
L 1946 4224 
Q 1293 3667 1075 3126 
Q 858 2586 858 1632 
Q 858 685 1082 96 
Q 1306 -493 1946 -1030 
z
" transform="scale(0.015625)"/>
      <path id="Cmsy10-6a" d="M 763 -1484 
L 763 4684 
Q 763 4734 800 4767 
Q 838 4800 891 4800 
Q 938 4800 978 4767 
Q 1019 4734 1019 4684 
L 1019 -1484 
Q 1019 -1534 978 -1567 
Q 938 -1600 891 -1600 
Q 838 -1600 800 -1567 
Q 763 -1534 763 -1484 
z
" transform="scale(0.015625)"/>
      <path id="Cmmi10-ae" d="M 1288 -72 
Q 984 -72 748 72 
Q 513 216 384 459 
Q 256 703 256 1013 
Q 256 1447 498 1872 
Q 741 2297 1142 2562 
Q 1544 2828 1984 2828 
Q 2309 2828 2556 2658 
Q 2803 2488 2931 2205 
Q 3059 1922 3059 1600 
L 3066 1172 
Q 3284 1475 3436 1801 
Q 3588 2128 3669 2478 
Q 3681 2516 3719 2516 
L 3794 2516 
Q 3853 2516 3853 2456 
Q 3853 2450 3847 2438 
Q 3772 2144 3659 1873 
Q 3547 1603 3395 1350 
Q 3244 1097 3066 891 
Q 3066 97 3250 97 
Q 3369 97 3445 167 
Q 3522 238 3580 341 
Q 3638 444 3653 447 
L 3731 447 
Q 3781 447 3781 384 
Q 3781 225 3598 76 
Q 3416 -72 3238 -72 
Q 3006 -72 2853 78 
Q 2700 228 2644 469 
Q 2344 213 1994 70 
Q 1644 -72 1288 -72 
z
M 1300 97 
Q 1984 97 2613 659 
Q 2609 697 2603 751 
Q 2597 806 2597 813 
L 2597 1503 
Q 2597 2663 1972 2663 
Q 1597 2663 1315 2342 
Q 1034 2022 892 1576 
Q 750 1131 750 763 
Q 750 484 892 290 
Q 1034 97 1300 97 
z
" transform="scale(0.015625)"/>
      <path id="Cmr10-3d" d="M 481 850 
Q 428 850 393 890 
Q 359 931 359 978 
Q 359 1031 393 1068 
Q 428 1106 481 1106 
L 4500 1106 
Q 4547 1106 4581 1068 
Q 4616 1031 4616 978 
Q 4616 931 4581 890 
Q 4547 850 4500 850 
L 481 850 
z
M 481 2094 
Q 428 2094 393 2131 
Q 359 2169 359 2222 
Q 359 2269 393 2309 
Q 428 2350 481 2350 
L 4500 2350 
Q 4547 2350 4581 2309 
Q 4616 2269 4616 2222 
Q 4616 2169 4581 2131 
Q 4547 2094 4500 2094 
L 481 2094 
z
" transform="scale(0.015625)"/>
      <path id="Cmex10-70" d="M 2713 -7425 
L 1269 -4063 
L 819 -4409 
L 703 -4294 
L 1619 -3584 
L 2969 -6725 
L 6291 197 
Q 6322 256 6400 256 
Q 6453 256 6490 218 
Q 6528 181 6528 128 
Q 6528 97 6522 84 
L 2950 -7366 
Q 2925 -7425 2853 -7425 
L 2713 -7425 
z
" transform="scale(0.015625)"/>
      <path id="Cmr10-31" d="M 594 0 
L 594 225 
Q 1394 225 1394 428 
L 1394 3788 
Q 1063 3628 556 3628 
L 556 3853 
Q 1341 3853 1741 4263 
L 1831 4263 
Q 1853 4263 1873 4245 
Q 1894 4228 1894 4206 
L 1894 428 
Q 1894 225 2694 225 
L 2694 0 
L 594 0 
z
" transform="scale(0.015625)"/>
      <path id="Cmr10-30" d="M 1600 -141 
Q 816 -141 533 504 
Q 250 1150 250 2041 
Q 250 2597 351 3087 
Q 453 3578 754 3920 
Q 1056 4263 1600 4263 
Q 2022 4263 2290 4056 
Q 2559 3850 2700 3523 
Q 2841 3197 2892 2823 
Q 2944 2450 2944 2041 
Q 2944 1491 2842 1011 
Q 2741 531 2444 195 
Q 2147 -141 1600 -141 
z
M 1600 25 
Q 1956 25 2131 390 
Q 2306 756 2347 1200 
Q 2388 1644 2388 2144 
Q 2388 2625 2347 3031 
Q 2306 3438 2132 3767 
Q 1959 4097 1600 4097 
Q 1238 4097 1063 3765 
Q 888 3434 847 3029 
Q 806 2625 806 2144 
Q 806 1788 823 1472 
Q 841 1156 916 820 
Q 991 484 1158 254 
Q 1325 25 1600 25 
z
" transform="scale(0.015625)"/>
      <path id="Cmex10-ae" d="M 500 -7297 
Q 500 -7263 513 -7250 
L 2119 -3584 
L 513 84 
Q 500 97 500 128 
Q 500 175 537 215 
Q 575 256 628 256 
Q 703 256 750 178 
L 2381 -3541 
Q 2388 -3553 2388 -3584 
Q 2388 -3616 2381 -3634 
L 750 -7347 
Q 700 -7425 628 -7425 
Q 575 -7425 537 -7384 
Q 500 -7344 500 -7297 
z
" transform="scale(0.015625)"/>
      <path id="STIXGeneral-Regular-2c" d="M 531 -902 
L 467 -781 
Q 998 -422 998 -96 
Q 998 -13 909 -13 
Q 883 -13 822 -25 
Q 762 -38 723 -38 
Q 352 -38 352 288 
Q 352 454 457 553 
Q 563 653 736 653 
Q 954 653 1101 496 
Q 1248 339 1248 96 
Q 1248 -198 1053 -473 
Q 858 -749 531 -902 
z
" transform="scale(0.015625)"/>
      <path id="Cmmi10-55" d="M 941 891 
Q 941 656 1033 472 
Q 1125 288 1300 186 
Q 1475 84 1709 84 
Q 1984 84 2245 196 
Q 2506 309 2715 509 
Q 2925 709 3073 965 
Q 3222 1222 3284 1472 
L 3859 3781 
Q 3872 3850 3872 3878 
Q 3872 4147 3378 4147 
Q 3316 4147 3316 4231 
Q 3338 4313 3350 4342 
Q 3363 4372 3425 4372 
L 4813 4372 
Q 4841 4372 4859 4344 
Q 4878 4316 4878 4288 
Q 4878 4284 4865 4239 
Q 4853 4194 4836 4170 
Q 4819 4147 4794 4147 
Q 4181 4147 4084 3756 
L 3506 1447 
Q 3434 1147 3264 864 
Q 3094 581 2845 351 
Q 2597 122 2298 -9 
Q 2000 -141 1691 -141 
Q 1338 -141 1045 14 
Q 753 169 587 447 
Q 422 725 422 1088 
Q 422 1297 469 1472 
L 1088 3956 
Q 1100 4019 1100 4044 
Q 1100 4113 1025 4122 
Q 903 4147 563 4147 
Q 500 4147 500 4231 
Q 522 4313 534 4342 
Q 547 4372 609 4372 
L 2328 4372 
Q 2394 4372 2394 4288 
Q 2391 4272 2381 4234 
Q 2372 4197 2356 4172 
Q 2341 4147 2309 4147 
Q 1919 4147 1766 4103 
Q 1681 4072 1644 3928 
L 1025 1447 
Q 941 1109 941 891 
z
" transform="scale(0.015625)"/>
      <path id="Cmmi10-b0" d="M 1888 -1253 
Q 1888 -1109 1952 -834 
Q 2016 -559 2108 -248 
Q 2200 63 2266 263 
Q 2291 581 2291 744 
Q 2291 1156 2209 1511 
Q 2128 1866 1903 2105 
Q 1678 2344 1275 2344 
Q 1063 2344 852 2253 
Q 641 2163 489 2000 
Q 338 1838 281 1631 
Q 269 1594 231 1594 
L 153 1594 
Q 103 1594 103 1650 
L 103 1672 
Q 175 1959 358 2226 
Q 541 2494 805 2661 
Q 1069 2828 1363 2828 
Q 1663 2828 1881 2625 
Q 2100 2422 2231 2109 
Q 2363 1797 2420 1478 
Q 2478 1159 2478 878 
Q 2800 1753 3200 2534 
L 3297 2741 
Q 3316 2759 3341 2759 
L 3419 2759 
Q 3469 2759 3469 2700 
Q 3469 2688 3456 2663 
L 3359 2463 
Q 3081 1909 2848 1340 
Q 2616 772 2450 244 
Q 2425 28 2354 -347 
Q 2284 -722 2184 -1045 
Q 2084 -1369 1984 -1381 
Q 1888 -1381 1888 -1253 
z
" transform="scale(0.015625)"/>
      <path id="STIXGeneral-Regular-29" d="M 186 4224 
L 262 4326 
Q 992 3891 1408 3148 
Q 1824 2406 1824 1581 
Q 1824 -166 243 -1133 
L 186 -1030 
Q 845 -486 1059 54 
Q 1274 595 1274 1562 
Q 1274 2534 1059 3120 
Q 845 3706 186 4224 
z
" transform="scale(0.015625)"/>
     </defs>
     <use xlink:href="#STIXGeneral-Regular-4d" transform="translate(0 0.15625)"/>
     <use xlink:href="#STIXGeneral-Regular-65" transform="translate(88.899994 0.15625)"/>
     <use xlink:href="#STIXGeneral-Regular-61" transform="translate(133.299988 0.15625)"/>
     <use xlink:href="#STIXGeneral-Regular-6e" transform="translate(177.699982 0.15625)"/>
     <use xlink:href="#STIXGeneral-Regular-20" transform="translate(227.699966 0.15625)"/>
     <use xlink:href="#STIXGeneral-Regular-44" transform="translate(252.699951 0.15625)"/>
     <use xlink:href="#STIXGeneral-Regular-69" transform="translate(324.899933 0.15625)"/>
     <use xlink:href="#STIXGeneral-Regular-66" transform="translate(352.699921 0.15625)"/>
     <use xlink:href="#STIXGeneral-Regular-66" transform="translate(385.999908 0.15625)"/>
     <use xlink:href="#STIXGeneral-Regular-65" transform="translate(419.299896 0.15625)"/>
     <use xlink:href="#STIXGeneral-Regular-72" transform="translate(463.69989 0.15625)"/>
     <use xlink:href="#STIXGeneral-Regular-65" transform="translate(496.999878 0.15625)"/>
     <use xlink:href="#STIXGeneral-Regular-6e" transform="translate(541.399872 0.15625)"/>
     <use xlink:href="#STIXGeneral-Regular-63" transform="translate(591.399857 0.15625)"/>
     <use xlink:href="#STIXGeneral-Regular-65" transform="translate(635.79985 0.15625)"/>
     <use xlink:href="#STIXGeneral-Regular-20" transform="translate(680.199844 0.15625)"/>
     <use xlink:href="#STIXGeneral-Regular-76" transform="translate(705.199829 0.15625)"/>
     <use xlink:href="#STIXGeneral-Regular-73" transform="translate(755.199814 0.15625)"/>
     <use xlink:href="#STIXGeneral-Regular-20" transform="translate(794.099808 0.15625)"/>
     <use xlink:href="#STIXGeneral-Regular-54" transform="translate(819.099792 0.15625)"/>
     <use xlink:href="#STIXGeneral-Regular-69" transform="translate(880.199783 0.15625)"/>
     <use xlink:href="#STIXGeneral-Regular-6d" transform="translate(907.999771 0.15625)"/>
     <use xlink:href="#STIXGeneral-Regular-65" transform="translate(985.799759 0.15625)"/>
     <use xlink:href="#STIXGeneral-Regular-20" transform="translate(1030.199753 0.15625)"/>
     <use xlink:href="#STIXGeneral-Regular-28" transform="translate(1055.199738 0.15625)"/>
     <use xlink:href="#Cmsy10-6a" transform="translate(1088.499725 0.15625)"/>
     <use xlink:href="#Cmmi10-ae" transform="translate(1116.185272 0.15625)"/>
     <use xlink:href="#Cmr10-3d" transform="translate(1197.659882 0.15625)"/>
     <use xlink:href="#Cmex10-70" transform="translate(1292.904022 94.65625) scale(0.833746)"/>
     <use xlink:href="#Cmr10-31" transform="translate(1388.763397 0.140625)"/>
     <use xlink:href="#Cmr10-30" transform="translate(1438.763397 0.140625)"/>
     <use xlink:href="#Cmex10-ae" transform="translate(1501.263397 93.497396)"/>
     <use xlink:href="#STIXGeneral-Regular-2c" transform="translate(1548.480194 0.15625)"/>
     <use xlink:href="#STIXGeneral-Regular-20" transform="translate(1573.480179 0.15625)"/>
     <use xlink:href="#Cmmi10-55" transform="translate(1598.480164 0.15625)"/>
     <use xlink:href="#Cmr10-3d" transform="translate(1684.251648 0.15625)"/>
     <use xlink:href="#Cmr10-30" transform="translate(1779.495789 0.15625)"/>
     <use xlink:href="#STIXGeneral-Regular-2c" transform="translate(1829.495789 0.15625)"/>
     <use xlink:href="#STIXGeneral-Regular-20" transform="translate(1854.495773 0.15625)"/>
     <use xlink:href="#Cmmi10-b0" transform="translate(1879.495758 0.15625)"/>
     <use xlink:href="#Cmr10-3d" transform="translate(1948.763336 0.15625)"/>
     <use xlink:href="#Cmr10-31" transform="translate(2044.007477 0.15625)"/>
     <use xlink:href="#STIXGeneral-Regular-29" transform="translate(2094.007477 0.15625)"/>
     <path d="M 1376.263397 91.5 
L 1376.263397 97.75 
L 1501.263397 97.75 
L 1501.263397 91.5 
L 1376.263397 91.5 
z
"/>
    </g>
   </g>
   <g id="line2d_145">
    <path d="M 57.002727 298.85993 
L 61.035545 285.731986 
L 65.296636 272.597299 
L 69.557727 260.177938 
L 73.818818 248.434947 
L 78.079909 237.331488 
L 82.417091 226.650548 
L 86.754273 216.561395 
L 91.091455 207.03124 
L 95.428636 198.029113 
L 99.841909 189.380859 
L 104.255182 181.219935 
L 108.668455 173.518879 
L 113.157818 166.130142 
L 117.647182 159.16473 
L 122.212636 152.4904 
L 126.778091 146.204753 
L 131.419636 140.189472 
L 136.137273 134.440311 
L 140.931 128.952389 
L 145.724727 123.799501 
L 150.594545 118.886901 
L 155.540455 114.209123 
L 160.638545 109.695354 
L 165.812727 105.413182 
L 171.063 101.355688 
L 176.465455 97.462798 
L 181.944 93.787456 
L 187.574727 90.275891 
L 193.357636 86.929979 
L 199.368818 83.711271 
L 205.532182 80.664888 
L 211.923818 77.755934 
L 218.543727 74.989916 
L 225.391909 72.370788 
L 232.544455 69.875603 
L 240.001364 67.512337 
L 247.762636 65.286551 
L 255.904364 63.18322 
L 264.502636 61.193178 
L 273.557455 59.326842 
L 283.144909 57.578368 
L 293.417182 55.934004 
L 304.374273 54.408232 
L 316.168364 52.993731 
L 328.875545 51.696083 
L 342.724091 50.508063 
L 357.942273 49.42916 
L 374.834455 48.459021 
L 393.781091 47.598688 
L 415.390909 46.846033 
L 437.457273 46.267974 
L 437.457273 46.267974 
" clip-path="url(#pb5a5a87351)" style="fill: none; stroke: #1f77b4; stroke-width: 2.6; stroke-linecap: square"/>
   </g>
   <g id="legend_1">
    <g id="line2d_146">
     <path d="M 348.865625 267.205656 
L 359.865625 267.205656 
L 370.865625 267.205656 
" style="fill: none; stroke: #1f77b4; stroke-width: 2.6; stroke-linecap: square"/>
    </g>
    <g id="text_18">
     <!-- Density Matrix -->
     <g transform="translate(379.665625 271.055656) scale(0.11 -0.11)">
      <defs>
       <path id="STIXGeneral-Regular-79" d="M 3040 2880 
L 3040 2784 
Q 2925 2771 2854 2700 
Q 2784 2630 2720 2458 
L 1760 -160 
Q 1510 -838 1257 -1116 
Q 1005 -1395 640 -1395 
Q 435 -1395 313 -1289 
Q 192 -1184 192 -1024 
Q 192 -902 272 -816 
Q 352 -730 467 -730 
Q 653 -730 800 -813 
Q 883 -858 966 -858 
Q 1101 -858 1286 -576 
Q 1376 -448 1459 -211 
Q 1542 26 1542 115 
Q 1542 198 1274 762 
L 429 2566 
Q 346 2752 90 2790 
L 90 2880 
L 1402 2880 
L 1402 2784 
Q 1197 2778 1117 2739 
Q 1037 2701 1037 2611 
Q 1037 2541 1120 2349 
L 1837 749 
L 2458 2515 
Q 2483 2573 2483 2630 
Q 2483 2784 2189 2784 
L 2189 2880 
L 3040 2880 
z
" transform="scale(0.015625)"/>
      </defs>
      <use xlink:href="#STIXGeneral-Regular-44"/>
      <use xlink:href="#STIXGeneral-Regular-65" transform="translate(72.199982 0)"/>
      <use xlink:href="#STIXGeneral-Regular-6e" transform="translate(116.599976 0)"/>
      <use xlink:href="#STIXGeneral-Regular-73" transform="translate(166.59996 0)"/>
      <use xlink:href="#STIXGeneral-Regular-69" transform="translate(205.499954 0)"/>
      <use xlink:href="#STIXGeneral-Regular-74" transform="translate(233.299942 0)"/>
      <use xlink:href="#STIXGeneral-Regular-79" transform="translate(261.09993 0)"/>
      <use xlink:href="#STIXGeneral-Regular-20" transform="translate(311.099915 0)"/>
      <use xlink:href="#STIXGeneral-Regular-4d" transform="translate(336.099899 0)"/>
      <use xlink:href="#STIXGeneral-Regular-61" transform="translate(424.999893 0)"/>
      <use xlink:href="#STIXGeneral-Regular-74" transform="translate(469.399887 0)"/>
      <use xlink:href="#STIXGeneral-Regular-72" transform="translate(497.199875 0)"/>
      <use xlink:href="#STIXGeneral-Regular-69" transform="translate(530.499863 0)"/>
      <use xlink:href="#STIXGeneral-Regular-78" transform="translate(558.29985 0)"/>
     </g>
    </g>
    <g id="line2d_147">
     <path d="M 348.865625 282.803312 
L 359.865625 282.803312 
L 370.865625 282.803312 
" style="fill: none; stroke: #ff7f0e; stroke-width: 2.5; stroke-linecap: square"/>
    </g>
    <g id="text_19">
     <!-- Monte Carlo -->
     <g transform="translate(379.665625 286.653312) scale(0.11 -0.11)">
      <defs>
       <path id="STIXGeneral-Regular-43" d="M 3930 838 
L 4051 723 
Q 3482 -90 2304 -90 
Q 1376 -90 794 480 
Q 179 1082 179 2080 
Q 179 3014 755 3661 
Q 1357 4326 2310 4326 
Q 2720 4326 3072 4230 
Q 3475 4115 3514 4115 
Q 3725 4115 3782 4326 
L 3910 4326 
L 3968 2874 
L 3821 2874 
Q 3718 3334 3488 3584 
Q 3034 4070 2458 4070 
Q 1747 4070 1334 3548 
Q 922 3027 922 2182 
Q 922 1152 1382 653 
Q 1811 192 2522 192 
Q 2944 192 3251 339 
Q 3558 486 3930 838 
z
" transform="scale(0.015625)"/>
       <path id="STIXGeneral-Regular-6c" d="M 1645 0 
L 134 0 
L 134 96 
Q 435 122 531 221 
Q 627 320 627 589 
L 627 3590 
Q 627 3821 569 3910 
Q 512 4000 358 4000 
Q 224 4000 122 3987 
L 122 4090 
Q 730 4237 1133 4371 
L 1165 4346 
L 1165 557 
Q 1165 288 1254 201 
Q 1344 115 1645 96 
L 1645 0 
z
" transform="scale(0.015625)"/>
      </defs>
      <use xlink:href="#STIXGeneral-Regular-4d"/>
      <use xlink:href="#STIXGeneral-Regular-6f" transform="translate(88.899994 0)"/>
      <use xlink:href="#STIXGeneral-Regular-6e" transform="translate(138.899979 0)"/>
      <use xlink:href="#STIXGeneral-Regular-74" transform="translate(188.899963 0)"/>
      <use xlink:href="#STIXGeneral-Regular-65" transform="translate(216.699951 0)"/>
      <use xlink:href="#STIXGeneral-Regular-20" transform="translate(261.099945 0)"/>
      <use xlink:href="#STIXGeneral-Regular-43" transform="translate(286.09993 0)"/>
      <use xlink:href="#STIXGeneral-Regular-61" transform="translate(352.799927 0)"/>
      <use xlink:href="#STIXGeneral-Regular-72" transform="translate(397.199921 0)"/>
      <use xlink:href="#STIXGeneral-Regular-6c" transform="translate(430.499908 0)"/>
      <use xlink:href="#STIXGeneral-Regular-6f" transform="translate(458.299896 0)"/>
     </g>
    </g>
    <g id="line2d_148">
     <path d="M 348.865625 298.390656 
L 359.865625 298.390656 
L 370.865625 298.390656 
" style="fill: none; stroke: #2ca02c; stroke-width: 2.7; stroke-linecap: square"/>
    </g>
    <g id="text_20">
     <!-- Positive-P -->
     <g transform="translate(379.665625 302.240656) scale(0.11 -0.11)">
      <defs>
       <path id="STIXGeneral-Regular-50" d="M 102 4237 
L 1760 4237 
Q 2669 4237 3149 3834 
Q 3469 3565 3469 3072 
Q 3469 2560 3104 2234 
Q 2835 1990 2553 1916 
Q 2272 1843 1734 1843 
Q 1549 1843 1293 1862 
L 1293 717 
Q 1293 352 1398 246 
Q 1504 141 1894 122 
L 1894 0 
L 102 0 
L 102 122 
Q 474 147 557 256 
Q 640 365 640 781 
L 640 3526 
Q 640 3885 547 3987 
Q 454 4090 102 4115 
L 102 4237 
z
M 1293 3770 
L 1293 2118 
Q 1510 2099 1683 2099 
Q 2202 2099 2486 2352 
Q 2771 2605 2771 3040 
Q 2771 3558 2476 3779 
Q 2182 4000 1517 4000 
Q 1382 4000 1337 3952 
Q 1293 3904 1293 3770 
z
" transform="scale(0.015625)"/>
       <path id="STIXGeneral-Regular-2d" d="M 1824 1242 
L 250 1242 
L 250 1645 
L 1824 1645 
L 1824 1242 
z
" transform="scale(0.015625)"/>
      </defs>
      <use xlink:href="#STIXGeneral-Regular-50"/>
      <use xlink:href="#STIXGeneral-Regular-6f" transform="translate(55.699997 0)"/>
      <use xlink:href="#STIXGeneral-Regular-73" transform="translate(105.699982 0)"/>
      <use xlink:href="#STIXGeneral-Regular-69" transform="translate(144.599976 0)"/>
      <use xlink:href="#STIXGeneral-Regular-74" transform="translate(172.399963 0)"/>
      <use xlink:href="#STIXGeneral-Regular-69" transform="translate(200.199951 0)"/>
      <use xlink:href="#STIXGeneral-Regular-76" transform="translate(227.999939 0)"/>
      <use xlink:href="#STIXGeneral-Regular-65" transform="translate(277.999924 0)"/>
      <use xlink:href="#STIXGeneral-Regular-2d" transform="translate(322.399918 0)"/>
      <use xlink:href="#STIXGeneral-Regular-50" transform="translate(355.699905 0)"/>
     </g>
    </g>
   </g>
  </g>
 </g>
 <defs>
  <clipPath id="pb5a5a87351">
   <rect x="37.98" y="26.24" width="418.5" height="288.288"/>
  </clipPath>
 </defs>
</svg>
