<?xml version="1.0" encoding="utf-8" standalone="no"?>
<!DOCTYPE svg PUBLIC "-//W3C//DTD SVG 1.1//EN"
  "http://www.w3.org/Graphics/SVG/1.1/DTD/svg11.dtd">
<svg xmlns:xlink="http://www.w3.org/1999/xlink" width="469.08pt" height="348.068pt" viewBox="0 0 469.08 348.068" xmlns="http://www.w3.org/2000/svg" version="1.1">
 <metadata>
  <rdf:RDF xmlns:dc="http://purl.org/dc/elements/1.1/" xmlns:cc="http://creativecommons.org/ns#" xmlns:rdf="http://www.w3.org/1999/02/22-rdf-syntax-ns#">
   <cc:Work>
    <dc:type rdf:resource="http://purl.org/dc/dcmitype/StillImage"/>
    <dc:date>2026-04-18T09:21:59.504233</dc:date>
    <dc:format>image/svg+xml</dc:format>
    <dc:creator>
     <cc:Agent>
      <dc:title>Matplotlib v3.10.8, https://matplotlib.org/</dc:title>
     </cc:Agent>
    </dc:creator>
   </cc:Work>
  </rdf:RDF>
 </metadata>
 <defs>
  <style type="text/css">*{stroke-linejoin: round; stroke-linecap: butt}</style>
 </defs>
 <g id="figure_1">
  <g id="patch_1">
   <path d="M 0 348.068 
L 469.08 348.068 
L 469.08 0 
L 0 0 
z
" style="fill: #ffffff"/>
  </g>
  <g id="axes_1">
   <g id="patch_2">
    <path d="M 46.98 313.568 
L 465.48 313.568 
L 465.48 25.28 
L 46.98 25.28 
z
" style="fill: #ffffff"/>
   </g>
   <g id="matplotlib.axis_1">
    <g id="xtick_1">
     <g id="line2d_1">
      <path d="M 66.002727 313.568 
L 66.002727 25.28 
" clip-path="url(#p576453f052)" style="fill: none; stroke: #b0b0b0; stroke-opacity: 0.35; stroke-width: 0.5; stroke-linecap: square"/>
     </g>
     <g id="line2d_2">
      <defs>
       <path id="m2fcca6eb01" d="M 0 0 
L 0 -3 
" style="stroke: #000000; stroke-width: 0.5"/>
      </defs>
      <g>
       <use xlink:href="#m2fcca6eb01" x="66.002727" y="313.568" style="stroke: #000000; stroke-width: 0.5"/>
      </g>
     </g>
     <g id="line2d_3">
      <defs>
       <path id="m358b5289e0" d="M 0 0 
L 0 3 
" style="stroke: #000000; stroke-width: 0.5"/>
      </defs>
      <g>
       <use xlink:href="#m358b5289e0" x="66.002727" y="25.28" style="stroke: #000000; stroke-width: 0.5"/>
      </g>
     </g>
     <g id="text_1">
      <!-- $\mathdefault{0}$ -->
      <g transform="translate(63.002727 325.263625) scale(0.12 -0.12)">
       <defs>
        <path id="STIXGeneral-Regular-30" d="M 3046 2112 
Q 3046 1683 2963 1302 
Q 2880 922 2717 602 
Q 2554 282 2266 96 
Q 1978 -90 1600 -90 
Q 1210 -90 915 108 
Q 621 307 461 640 
Q 301 973 227 1350 
Q 154 1728 154 2150 
Q 154 2746 301 3222 
Q 448 3699 790 4012 
Q 1133 4326 1626 4326 
Q 2253 4326 2649 3712 
Q 3046 3098 3046 2112 
z
M 2432 2080 
Q 2432 3091 2217 3625 
Q 2003 4160 1587 4160 
Q 1190 4160 979 3622 
Q 768 3085 768 2106 
Q 768 1120 979 598 
Q 1190 77 1600 77 
Q 2003 77 2217 598 
Q 2432 1120 2432 2080 
z
" transform="scale(0.015625)"/>
       </defs>
       <use xlink:href="#STIXGeneral-Regular-30" transform="translate(0 0.40625)"/>
      </g>
     </g>
    </g>
    <g id="xtick_2">
     <g id="line2d_4">
      <path d="M 142.093636 313.568 
L 142.093636 25.28 
" clip-path="url(#p576453f052)" style="fill: none; stroke: #b0b0b0; stroke-opacity: 0.35; stroke-width: 0.5; stroke-linecap: square"/>
     </g>
     <g id="line2d_5">
      <g>
       <use xlink:href="#m2fcca6eb01" x="142.093636" y="313.568" style="stroke: #000000; stroke-width: 0.5"/>
      </g>
     </g>
     <g id="line2d_6">
      <g>
       <use xlink:href="#m358b5289e0" x="142.093636" y="25.28" style="stroke: #000000; stroke-width: 0.5"/>
      </g>
     </g>
     <g id="text_2">
      <!-- $\mathdefault{1}$ -->
      <g transform="translate(139.093636 325.263625) scale(0.12 -0.12)">
       <defs>
        <path id="STIXGeneral-Regular-31" d="M 2522 0 
L 755 0 
L 755 96 
Q 1107 115 1235 227 
Q 1363 339 1363 608 
L 1363 3482 
Q 1363 3795 1171 3795 
Q 1082 3795 883 3718 
L 710 3654 
L 710 3744 
L 1856 4326 
L 1914 4307 
L 1914 486 
Q 1914 275 2042 185 
Q 2170 96 2522 96 
L 2522 0 
z
" transform="scale(0.015625)"/>
       </defs>
       <use xlink:href="#STIXGeneral-Regular-31" transform="translate(0 0.40625)"/>
      </g>
     </g>
    </g>
    <g id="xtick_3">
     <g id="line2d_7">
      <path d="M 218.184545 313.568 
L 218.184545 25.28 
" clip-path="url(#p576453f052)" style="fill: none; stroke: #b0b0b0; stroke-opacity: 0.35; stroke-width: 0.5; stroke-linecap: square"/>
     </g>
     <g id="line2d_8">
      <g>
       <use xlink:href="#m2fcca6eb01" x="218.184545" y="313.568" style="stroke: #000000; stroke-width: 0.5"/>
      </g>
     </g>
     <g id="line2d_9">
      <g>
       <use xlink:href="#m358b5289e0" x="218.184545" y="25.28" style="stroke: #000000; stroke-width: 0.5"/>
      </g>
     </g>
     <g id="text_3">
      <!-- $\mathdefault{2}$ -->
      <g transform="translate(215.184545 325.263625) scale(0.12 -0.12)">
       <defs>
        <path id="STIXGeneral-Regular-32" d="M 3034 877 
L 2688 0 
L 186 0 
L 186 77 
L 1325 1286 
Q 1773 1754 1965 2144 
Q 2157 2534 2157 2950 
Q 2157 3379 1920 3616 
Q 1683 3853 1267 3853 
Q 922 3853 720 3673 
Q 518 3494 326 3021 
L 192 3053 
Q 301 3648 630 3987 
Q 960 4326 1523 4326 
Q 2054 4326 2380 4006 
Q 2707 3686 2707 3200 
Q 2707 2477 1888 1613 
L 832 486 
L 2330 486 
Q 2541 486 2665 569 
Q 2790 653 2944 915 
L 3034 877 
z
" transform="scale(0.015625)"/>
       </defs>
       <use xlink:href="#STIXGeneral-Regular-32" transform="translate(0 0.40625)"/>
      </g>
     </g>
    </g>
    <g id="xtick_4">
     <g id="line2d_10">
      <path d="M 294.275455 313.568 
L 294.275455 25.28 
" clip-path="url(#p576453f052)" style="fill: none; stroke: #b0b0b0; stroke-opacity: 0.35; stroke-width: 0.5; stroke-linecap: square"/>
     </g>
     <g id="line2d_11">
      <g>
       <use xlink:href="#m2fcca6eb01" x="294.275455" y="313.568" style="stroke: #000000; stroke-width: 0.5"/>
      </g>
     </g>
     <g id="line2d_12">
      <g>
       <use xlink:href="#m358b5289e0" x="294.275455" y="25.28" style="stroke: #000000; stroke-width: 0.5"/>
      </g>
     </g>
     <g id="text_4">
      <!-- $\mathdefault{3}$ -->
      <g transform="translate(291.275455 325.263625) scale(0.12 -0.12)">
       <defs>
        <path id="STIXGeneral-Regular-33" d="M 390 3264 
L 288 3290 
Q 435 3770 748 4048 
Q 1062 4326 1542 4326 
Q 1990 4326 2265 4083 
Q 2541 3840 2541 3450 
Q 2541 2925 1946 2566 
Q 2298 2413 2477 2227 
Q 2758 1914 2758 1402 
Q 2758 890 2464 506 
Q 2246 211 1840 60 
Q 1434 -90 979 -90 
Q 262 -90 262 275 
Q 262 378 339 442 
Q 416 506 525 506 
Q 685 506 915 339 
Q 1197 141 1466 141 
Q 1818 141 2058 425 
Q 2298 710 2298 1120 
Q 2298 1856 1632 2048 
Q 1434 2112 979 2112 
L 979 2202 
Q 1338 2323 1517 2432 
Q 2035 2726 2035 3290 
Q 2035 3610 1852 3776 
Q 1670 3942 1344 3942 
Q 768 3942 390 3264 
z
" transform="scale(0.015625)"/>
       </defs>
       <use xlink:href="#STIXGeneral-Regular-33" transform="translate(0 0.40625)"/>
      </g>
     </g>
    </g>
    <g id="xtick_5">
     <g id="line2d_13">
      <path d="M 370.366364 313.568 
L 370.366364 25.28 
" clip-path="url(#p576453f052)" style="fill: none; stroke: #b0b0b0; stroke-opacity: 0.35; stroke-width: 0.5; stroke-linecap: square"/>
     </g>
     <g id="line2d_14">
      <g>
       <use xlink:href="#m2fcca6eb01" x="370.366364" y="313.568" style="stroke: #000000; stroke-width: 0.5"/>
      </g>
     </g>
     <g id="line2d_15">
      <g>
       <use xlink:href="#m358b5289e0" x="370.366364" y="25.28" style="stroke: #000000; stroke-width: 0.5"/>
      </g>
     </g>
     <g id="text_5">
      <!-- $\mathdefault{4}$ -->
      <g transform="translate(367.366364 325.263625) scale(0.12 -0.12)">
       <defs>
        <path id="STIXGeneral-Regular-34" d="M 3027 1069 
L 2368 1069 
L 2368 0 
L 1869 0 
L 1869 1069 
L 77 1069 
L 77 1478 
L 2086 4326 
L 2368 4326 
L 2368 1478 
L 3027 1478 
L 3027 1069 
z
M 1869 1478 
L 1869 3674 
L 333 1478 
L 1869 1478 
z
" transform="scale(0.015625)"/>
       </defs>
       <use xlink:href="#STIXGeneral-Regular-34" transform="translate(0 0.40625)"/>
      </g>
     </g>
    </g>
    <g id="xtick_6">
     <g id="line2d_16">
      <path d="M 446.457273 313.568 
L 446.457273 25.28 
" clip-path="url(#p576453f052)" style="fill: none; stroke: #b0b0b0; stroke-opacity: 0.35; stroke-width: 0.5; stroke-linecap: square"/>
     </g>
     <g id="line2d_17">
      <g>
       <use xlink:href="#m2fcca6eb01" x="446.457273" y="313.568" style="stroke: #000000; stroke-width: 0.5"/>
      </g>
     </g>
     <g id="line2d_18">
      <g>
       <use xlink:href="#m358b5289e0" x="446.457273" y="25.28" style="stroke: #000000; stroke-width: 0.5"/>
      </g>
     </g>
     <g id="text_6">
      <!-- $\mathdefault{5}$ -->
      <g transform="translate(443.457273 325.263625) scale(0.12 -0.12)">
       <defs>
        <path id="STIXGeneral-Regular-35" d="M 2803 4358 
L 2573 3814 
Q 2534 3731 2400 3731 
L 1158 3731 
L 902 3187 
Q 1606 3053 1920 2896 
Q 2234 2739 2502 2368 
Q 2726 2061 2726 1555 
Q 2726 1094 2576 780 
Q 2426 467 2099 224 
Q 1664 -90 1011 -90 
Q 646 -90 422 19 
Q 198 128 198 307 
Q 198 550 486 550 
Q 717 550 960 352 
Q 1210 147 1414 147 
Q 1747 147 2012 480 
Q 2278 813 2278 1229 
Q 2278 1843 1850 2189 
Q 1293 2637 486 2637 
Q 410 2637 410 2688 
L 416 2720 
L 1114 4237 
L 2438 4237 
Q 2547 4237 2608 4269 
Q 2669 4301 2746 4403 
L 2803 4358 
z
" transform="scale(0.015625)"/>
       </defs>
       <use xlink:href="#STIXGeneral-Regular-35" transform="translate(0 0.203125)"/>
      </g>
     </g>
    </g>
    <g id="xtick_7">
     <g id="line2d_19">
      <defs>
       <path id="ma7d6def988" d="M 0 0 
L 0 -1.5 
" style="stroke: #000000; stroke-width: 0.5"/>
      </defs>
      <g>
       <use xlink:href="#ma7d6def988" x="50.784545" y="313.568" style="stroke: #000000; stroke-width: 0.5"/>
      </g>
     </g>
     <g id="line2d_20">
      <defs>
       <path id="m36724cb1aa" d="M 0 0 
L 0 1.5 
" style="stroke: #000000; stroke-width: 0.5"/>
      </defs>
      <g>
       <use xlink:href="#m36724cb1aa" x="50.784545" y="25.28" style="stroke: #000000; stroke-width: 0.5"/>
      </g>
     </g>
    </g>
    <g id="xtick_8">
     <g id="line2d_21">
      <g>
       <use xlink:href="#ma7d6def988" x="81.220909" y="313.568" style="stroke: #000000; stroke-width: 0.5"/>
      </g>
     </g>
     <g id="line2d_22">
      <g>
       <use xlink:href="#m36724cb1aa" x="81.220909" y="25.28" style="stroke: #000000; stroke-width: 0.5"/>
      </g>
     </g>
    </g>
    <g id="xtick_9">
     <g id="line2d_23">
      <g>
       <use xlink:href="#ma7d6def988" x="96.439091" y="313.568" style="stroke: #000000; stroke-width: 0.5"/>
      </g>
     </g>
     <g id="line2d_24">
      <g>
       <use xlink:href="#m36724cb1aa" x="96.439091" y="25.28" style="stroke: #000000; stroke-width: 0.5"/>
      </g>
     </g>
    </g>
    <g id="xtick_10">
     <g id="line2d_25">
      <g>
       <use xlink:href="#ma7d6def988" x="111.657273" y="313.568" style="stroke: #000000; stroke-width: 0.5"/>
      </g>
     </g>
     <g id="line2d_26">
      <g>
       <use xlink:href="#m36724cb1aa" x="111.657273" y="25.28" style="stroke: #000000; stroke-width: 0.5"/>
      </g>
     </g>
    </g>
    <g id="xtick_11">
     <g id="line2d_27">
      <g>
       <use xlink:href="#ma7d6def988" x="126.875455" y="313.568" style="stroke: #000000; stroke-width: 0.5"/>
      </g>
     </g>
     <g id="line2d_28">
      <g>
       <use xlink:href="#m36724cb1aa" x="126.875455" y="25.28" style="stroke: #000000; stroke-width: 0.5"/>
      </g>
     </g>
    </g>
    <g id="xtick_12">
     <g id="line2d_29">
      <g>
       <use xlink:href="#ma7d6def988" x="157.311818" y="313.568" style="stroke: #000000; stroke-width: 0.5"/>
      </g>
     </g>
     <g id="line2d_30">
      <g>
       <use xlink:href="#m36724cb1aa" x="157.311818" y="25.28" style="stroke: #000000; stroke-width: 0.5"/>
      </g>
     </g>
    </g>
    <g id="xtick_13">
     <g id="line2d_31">
      <g>
       <use xlink:href="#ma7d6def988" x="172.53" y="313.568" style="stroke: #000000; stroke-width: 0.5"/>
      </g>
     </g>
     <g id="line2d_32">
      <g>
       <use xlink:href="#m36724cb1aa" x="172.53" y="25.28" style="stroke: #000000; stroke-width: 0.5"/>
      </g>
     </g>
    </g>
    <g id="xtick_14">
     <g id="line2d_33">
      <g>
       <use xlink:href="#ma7d6def988" x="187.748182" y="313.568" style="stroke: #000000; stroke-width: 0.5"/>
      </g>
     </g>
     <g id="line2d_34">
      <g>
       <use xlink:href="#m36724cb1aa" x="187.748182" y="25.28" style="stroke: #000000; stroke-width: 0.5"/>
      </g>
     </g>
    </g>
    <g id="xtick_15">
     <g id="line2d_35">
      <g>
       <use xlink:href="#ma7d6def988" x="202.966364" y="313.568" style="stroke: #000000; stroke-width: 0.5"/>
      </g>
     </g>
     <g id="line2d_36">
      <g>
       <use xlink:href="#m36724cb1aa" x="202.966364" y="25.28" style="stroke: #000000; stroke-width: 0.5"/>
      </g>
     </g>
    </g>
    <g id="xtick_16">
     <g id="line2d_37">
      <g>
       <use xlink:href="#ma7d6def988" x="233.402727" y="313.568" style="stroke: #000000; stroke-width: 0.5"/>
      </g>
     </g>
     <g id="line2d_38">
      <g>
       <use xlink:href="#m36724cb1aa" x="233.402727" y="25.28" style="stroke: #000000; stroke-width: 0.5"/>
      </g>
     </g>
    </g>
    <g id="xtick_17">
     <g id="line2d_39">
      <g>
       <use xlink:href="#ma7d6def988" x="248.620909" y="313.568" style="stroke: #000000; stroke-width: 0.5"/>
      </g>
     </g>
     <g id="line2d_40">
      <g>
       <use xlink:href="#m36724cb1aa" x="248.620909" y="25.28" style="stroke: #000000; stroke-width: 0.5"/>
      </g>
     </g>
    </g>
    <g id="xtick_18">
     <g id="line2d_41">
      <g>
       <use xlink:href="#ma7d6def988" x="263.839091" y="313.568" style="stroke: #000000; stroke-width: 0.5"/>
      </g>
     </g>
     <g id="line2d_42">
      <g>
       <use xlink:href="#m36724cb1aa" x="263.839091" y="25.28" style="stroke: #000000; stroke-width: 0.5"/>
      </g>
     </g>
    </g>
    <g id="xtick_19">
     <g id="line2d_43">
      <g>
       <use xlink:href="#ma7d6def988" x="279.057273" y="313.568" style="stroke: #000000; stroke-width: 0.5"/>
      </g>
     </g>
     <g id="line2d_44">
      <g>
       <use xlink:href="#m36724cb1aa" x="279.057273" y="25.28" style="stroke: #000000; stroke-width: 0.5"/>
      </g>
     </g>
    </g>
    <g id="xtick_20">
     <g id="line2d_45">
      <g>
       <use xlink:href="#ma7d6def988" x="309.493636" y="313.568" style="stroke: #000000; stroke-width: 0.5"/>
      </g>
     </g>
     <g id="line2d_46">
      <g>
       <use xlink:href="#m36724cb1aa" x="309.493636" y="25.28" style="stroke: #000000; stroke-width: 0.5"/>
      </g>
     </g>
    </g>
    <g id="xtick_21">
     <g id="line2d_47">
      <g>
       <use xlink:href="#ma7d6def988" x="324.711818" y="313.568" style="stroke: #000000; stroke-width: 0.5"/>
      </g>
     </g>
     <g id="line2d_48">
      <g>
       <use xlink:href="#m36724cb1aa" x="324.711818" y="25.28" style="stroke: #000000; stroke-width: 0.5"/>
      </g>
     </g>
    </g>
    <g id="xtick_22">
     <g id="line2d_49">
      <g>
       <use xlink:href="#ma7d6def988" x="339.93" y="313.568" style="stroke: #000000; stroke-width: 0.5"/>
      </g>
     </g>
     <g id="line2d_50">
      <g>
       <use xlink:href="#m36724cb1aa" x="339.93" y="25.28" style="stroke: #000000; stroke-width: 0.5"/>
      </g>
     </g>
    </g>
    <g id="xtick_23">
     <g id="line2d_51">
      <g>
       <use xlink:href="#ma7d6def988" x="355.148182" y="313.568" style="stroke: #000000; stroke-width: 0.5"/>
      </g>
     </g>
     <g id="line2d_52">
      <g>
       <use xlink:href="#m36724cb1aa" x="355.148182" y="25.28" style="stroke: #000000; stroke-width: 0.5"/>
      </g>
     </g>
    </g>
    <g id="xtick_24">
     <g id="line2d_53">
      <g>
       <use xlink:href="#ma7d6def988" x="385.584545" y="313.568" style="stroke: #000000; stroke-width: 0.5"/>
      </g>
     </g>
     <g id="line2d_54">
      <g>
       <use xlink:href="#m36724cb1aa" x="385.584545" y="25.28" style="stroke: #000000; stroke-width: 0.5"/>
      </g>
     </g>
    </g>
    <g id="xtick_25">
     <g id="line2d_55">
      <g>
       <use xlink:href="#ma7d6def988" x="400.802727" y="313.568" style="stroke: #000000; stroke-width: 0.5"/>
      </g>
     </g>
     <g id="line2d_56">
      <g>
       <use xlink:href="#m36724cb1aa" x="400.802727" y="25.28" style="stroke: #000000; stroke-width: 0.5"/>
      </g>
     </g>
    </g>
    <g id="xtick_26">
     <g id="line2d_57">
      <g>
       <use xlink:href="#ma7d6def988" x="416.020909" y="313.568" style="stroke: #000000; stroke-width: 0.5"/>
      </g>
     </g>
     <g id="line2d_58">
      <g>
       <use xlink:href="#m36724cb1aa" x="416.020909" y="25.28" style="stroke: #000000; stroke-width: 0.5"/>
      </g>
     </g>
    </g>
    <g id="xtick_27">
     <g id="line2d_59">
      <g>
       <use xlink:href="#ma7d6def988" x="431.239091" y="313.568" style="stroke: #000000; stroke-width: 0.5"/>
      </g>
     </g>
     <g id="line2d_60">
      <g>
       <use xlink:href="#m36724cb1aa" x="431.239091" y="25.28" style="stroke: #000000; stroke-width: 0.5"/>
      </g>
     </g>
    </g>
    <g id="xtick_28">
     <g id="line2d_61">
      <g>
       <use xlink:href="#ma7d6def988" x="461.675455" y="313.568" style="stroke: #000000; stroke-width: 0.5"/>
      </g>
     </g>
     <g id="line2d_62">
      <g>
       <use xlink:href="#m36724cb1aa" x="461.675455" y="25.28" style="stroke: #000000; stroke-width: 0.5"/>
      </g>
     </g>
    </g>
    <g id="text_7">
     <!-- Time -->
     <g transform="translate(241.453438 341.429562) scale(0.14 -0.14)">
      <defs>
       <path id="STIXGeneral-Regular-54" d="M 3795 3149 
L 3642 3149 
Q 3539 3674 3353 3821 
Q 3168 3968 2656 3968 
L 2278 3968 
L 2278 710 
Q 2278 346 2387 243 
Q 2496 141 2893 122 
L 2893 0 
L 1024 0 
L 1024 122 
Q 1427 147 1526 256 
Q 1626 365 1626 787 
L 1626 3968 
L 1242 3968 
Q 723 3968 540 3817 
Q 358 3667 262 3149 
L 109 3149 
L 154 4237 
L 3750 4237 
L 3795 3149 
z
" transform="scale(0.015625)"/>
       <path id="STIXGeneral-Regular-69" d="M 1152 4045 
Q 1152 3904 1056 3811 
Q 960 3718 819 3718 
Q 685 3718 592 3811 
Q 499 3904 499 4045 
Q 499 4179 595 4275 
Q 691 4371 826 4371 
Q 966 4371 1059 4275 
Q 1152 4179 1152 4045 
z
M 1619 0 
L 102 0 
L 102 96 
Q 435 115 521 211 
Q 608 307 608 666 
L 608 2118 
Q 608 2342 563 2432 
Q 518 2522 397 2522 
Q 243 2522 128 2490 
L 128 2592 
L 1120 2944 
L 1146 2918 
L 1146 672 
Q 1146 314 1226 218 
Q 1306 122 1619 96 
L 1619 0 
z
" transform="scale(0.015625)"/>
       <path id="STIXGeneral-Regular-6d" d="M 4960 0 
L 3565 0 
L 3565 96 
Q 3834 122 3907 208 
Q 3981 294 3981 576 
L 3981 1894 
Q 3981 2278 3869 2444 
Q 3757 2611 3488 2611 
Q 3264 2611 3107 2521 
Q 2950 2432 2803 2221 
L 2803 608 
Q 2803 301 2896 201 
Q 2989 102 3264 96 
L 3264 0 
L 1830 0 
L 1830 96 
Q 2112 115 2189 188 
Q 2266 262 2266 550 
L 2266 1901 
Q 2266 2611 1850 2611 
Q 1670 2611 1468 2531 
Q 1267 2451 1171 2336 
Q 1088 2240 1088 2227 
L 1088 448 
Q 1088 243 1177 176 
Q 1267 109 1523 96 
L 1523 0 
L 102 0 
L 102 96 
Q 371 102 460 195 
Q 550 288 550 563 
L 550 2150 
Q 550 2387 499 2480 
Q 448 2573 326 2573 
Q 230 2573 122 2547 
L 122 2656 
Q 557 2778 1011 2944 
L 1062 2925 
L 1062 2451 
L 1075 2451 
Q 1363 2752 1584 2848 
Q 1805 2944 2054 2944 
Q 2560 2944 2733 2406 
Q 3232 2944 3776 2944 
Q 4518 2944 4518 1792 
L 4518 493 
Q 4518 282 4582 202 
Q 4646 122 4794 109 
L 4960 96 
L 4960 0 
z
" transform="scale(0.015625)"/>
       <path id="STIXGeneral-Regular-65" d="M 2611 1050 
L 2714 1005 
Q 2330 -64 1376 -64 
Q 813 -64 486 329 
Q 160 723 160 1389 
Q 160 2074 525 2509 
Q 890 2944 1485 2944 
Q 2061 2944 2374 2502 
Q 2560 2246 2592 1773 
L 621 1773 
Q 646 1370 700 1158 
Q 755 947 915 730 
Q 1184 378 1626 378 
Q 1939 378 2153 531 
Q 2368 685 2611 1050 
z
M 634 1978 
L 1939 1978 
Q 1882 2381 1750 2547 
Q 1619 2714 1312 2714 
Q 1043 2714 864 2525 
Q 685 2336 634 1978 
z
" transform="scale(0.015625)"/>
      </defs>
      <use xlink:href="#STIXGeneral-Regular-54"/>
      <use xlink:href="#STIXGeneral-Regular-69" transform="translate(61.099991 0)"/>
      <use xlink:href="#STIXGeneral-Regular-6d" transform="translate(88.899979 0)"/>
      <use xlink:href="#STIXGeneral-Regular-65" transform="translate(166.699966 0)"/>
     </g>
    </g>
   </g>
   <g id="matplotlib.axis_2">
    <g id="ytick_1">
     <g id="line2d_63">
      <path d="M 46.98 277.481004 
L 465.48 277.481004 
" clip-path="url(#p576453f052)" style="fill: none; stroke: #b0b0b0; stroke-opacity: 0.35; stroke-width: 0.5; stroke-linecap: square"/>
     </g>
     <g id="line2d_64">
      <defs>
       <path id="m1eb1175d51" d="M 0 0 
L 3 0 
" style="stroke: #000000; stroke-width: 0.5"/>
      </defs>
      <g>
       <use xlink:href="#m1eb1175d51" x="46.98" y="277.481004" style="stroke: #000000; stroke-width: 0.5"/>
      </g>
     </g>
     <g id="line2d_65">
      <defs>
       <path id="md7ba8d20ce" d="M 0 0 
L -3 0 
" style="stroke: #000000; stroke-width: 0.5"/>
      </defs>
      <g>
       <use xlink:href="#md7ba8d20ce" x="465.48" y="277.481004" style="stroke: #000000; stroke-width: 0.5"/>
      </g>
     </g>
     <g id="text_8">
      <!-- $\mathdefault{−2.0}$ -->
      <g transform="translate(20.2 281.578817) scale(0.12 -0.12)">
       <defs>
        <path id="STIXGeneral-Regular-2212" d="M 3974 1408 
L 410 1408 
L 410 1830 
L 3974 1830 
L 3974 1408 
z
" transform="scale(0.015625)"/>
        <path id="STIXGeneral-Regular-2e" d="M 1158 275 
Q 1158 134 1052 32 
Q 947 -70 800 -70 
Q 653 -70 550 32 
Q 448 134 448 281 
Q 448 429 553 534 
Q 659 640 806 640 
Q 947 640 1052 531 
Q 1158 422 1158 275 
z
" transform="scale(0.015625)"/>
       </defs>
       <use xlink:href="#STIXGeneral-Regular-2212" transform="translate(0 0.40625)"/>
       <use xlink:href="#STIXGeneral-Regular-32" transform="translate(68.499985 0.40625)"/>
       <use xlink:href="#STIXGeneral-Regular-2e" transform="translate(118.499969 0.40625)"/>
       <use xlink:href="#STIXGeneral-Regular-30" transform="translate(143.499954 0.40625)"/>
      </g>
     </g>
    </g>
    <g id="ytick_2">
     <g id="line2d_66">
      <path d="M 46.98 218.016623 
L 465.48 218.016623 
" clip-path="url(#p576453f052)" style="fill: none; stroke: #b0b0b0; stroke-opacity: 0.35; stroke-width: 0.5; stroke-linecap: square"/>
     </g>
     <g id="line2d_67">
      <g>
       <use xlink:href="#m1eb1175d51" x="46.98" y="218.016623" style="stroke: #000000; stroke-width: 0.5"/>
      </g>
     </g>
     <g id="line2d_68">
      <g>
       <use xlink:href="#md7ba8d20ce" x="465.48" y="218.016623" style="stroke: #000000; stroke-width: 0.5"/>
      </g>
     </g>
     <g id="text_9">
      <!-- $\mathdefault{−1.5}$ -->
      <g transform="translate(20.2 222.114435) scale(0.12 -0.12)">
       <use xlink:href="#STIXGeneral-Regular-2212" transform="translate(0 0.203125)"/>
       <use xlink:href="#STIXGeneral-Regular-31" transform="translate(68.499985 0.203125)"/>
       <use xlink:href="#STIXGeneral-Regular-2e" transform="translate(118.499969 0.203125)"/>
       <use xlink:href="#STIXGeneral-Regular-35" transform="translate(143.499954 0.203125)"/>
      </g>
     </g>
    </g>
    <g id="ytick_3">
     <g id="line2d_69">
      <path d="M 46.98 158.552241 
L 465.48 158.552241 
" clip-path="url(#p576453f052)" style="fill: none; stroke: #b0b0b0; stroke-opacity: 0.35; stroke-width: 0.5; stroke-linecap: square"/>
     </g>
     <g id="line2d_70">
      <g>
       <use xlink:href="#m1eb1175d51" x="46.98" y="158.552241" style="stroke: #000000; stroke-width: 0.5"/>
      </g>
     </g>
     <g id="line2d_71">
      <g>
       <use xlink:href="#md7ba8d20ce" x="465.48" y="158.552241" style="stroke: #000000; stroke-width: 0.5"/>
      </g>
     </g>
     <g id="text_10">
      <!-- $\mathdefault{−1.0}$ -->
      <g transform="translate(20.2 162.650054) scale(0.12 -0.12)">
       <use xlink:href="#STIXGeneral-Regular-2212" transform="translate(0 0.40625)"/>
       <use xlink:href="#STIXGeneral-Regular-31" transform="translate(68.499985 0.40625)"/>
       <use xlink:href="#STIXGeneral-Regular-2e" transform="translate(118.499969 0.40625)"/>
       <use xlink:href="#STIXGeneral-Regular-30" transform="translate(143.499954 0.40625)"/>
      </g>
     </g>
    </g>
    <g id="ytick_4">
     <g id="line2d_72">
      <path d="M 46.98 99.087859 
L 465.48 99.087859 
" clip-path="url(#p576453f052)" style="fill: none; stroke: #b0b0b0; stroke-opacity: 0.35; stroke-width: 0.5; stroke-linecap: square"/>
     </g>
     <g id="line2d_73">
      <g>
       <use xlink:href="#m1eb1175d51" x="46.98" y="99.087859" style="stroke: #000000; stroke-width: 0.5"/>
      </g>
     </g>
     <g id="line2d_74">
      <g>
       <use xlink:href="#md7ba8d20ce" x="465.48" y="99.087859" style="stroke: #000000; stroke-width: 0.5"/>
      </g>
     </g>
     <g id="text_11">
      <!-- $\mathdefault{−0.5}$ -->
      <g transform="translate(20.2 103.185672) scale(0.12 -0.12)">
       <use xlink:href="#STIXGeneral-Regular-2212" transform="translate(0 0.203125)"/>
       <use xlink:href="#STIXGeneral-Regular-30" transform="translate(68.499985 0.203125)"/>
       <use xlink:href="#STIXGeneral-Regular-2e" transform="translate(118.499969 0.203125)"/>
       <use xlink:href="#STIXGeneral-Regular-35" transform="translate(143.499954 0.203125)"/>
      </g>
     </g>
    </g>
    <g id="ytick_5">
     <g id="line2d_75">
      <path d="M 46.98 39.623478 
L 465.48 39.623478 
" clip-path="url(#p576453f052)" style="fill: none; stroke: #b0b0b0; stroke-opacity: 0.35; stroke-width: 0.5; stroke-linecap: square"/>
     </g>
     <g id="line2d_76">
      <g>
       <use xlink:href="#m1eb1175d51" x="46.98" y="39.623478" style="stroke: #000000; stroke-width: 0.5"/>
      </g>
     </g>
     <g id="line2d_77">
      <g>
       <use xlink:href="#md7ba8d20ce" x="465.48" y="39.623478" style="stroke: #000000; stroke-width: 0.5"/>
      </g>
     </g>
     <g id="text_12">
      <!-- $\mathdefault{0.0}$ -->
      <g transform="translate(28.48 43.72129) scale(0.12 -0.12)">
       <use xlink:href="#STIXGeneral-Regular-30" transform="translate(0 0.40625)"/>
       <use xlink:href="#STIXGeneral-Regular-2e" transform="translate(49.999985 0.40625)"/>
       <use xlink:href="#STIXGeneral-Regular-30" transform="translate(74.999969 0.40625)"/>
      </g>
     </g>
    </g>
    <g id="ytick_6">
     <g id="line2d_78">
      <defs>
       <path id="mf58016e311" d="M 0 0 
L 1.5 0 
" style="stroke: #000000; stroke-width: 0.5"/>
      </defs>
      <g>
       <use xlink:href="#mf58016e311" x="46.98" y="313.159633" style="stroke: #000000; stroke-width: 0.5"/>
      </g>
     </g>
     <g id="line2d_79">
      <defs>
       <path id="mbdf025eae0" d="M 0 0 
L -1.5 0 
" style="stroke: #000000; stroke-width: 0.5"/>
      </defs>
      <g>
       <use xlink:href="#mbdf025eae0" x="465.48" y="313.159633" style="stroke: #000000; stroke-width: 0.5"/>
      </g>
     </g>
    </g>
    <g id="ytick_7">
     <g id="line2d_80">
      <g>
       <use xlink:href="#mf58016e311" x="46.98" y="301.266757" style="stroke: #000000; stroke-width: 0.5"/>
      </g>
     </g>
     <g id="line2d_81">
      <g>
       <use xlink:href="#mbdf025eae0" x="465.48" y="301.266757" style="stroke: #000000; stroke-width: 0.5"/>
      </g>
     </g>
    </g>
    <g id="ytick_8">
     <g id="line2d_82">
      <g>
       <use xlink:href="#mf58016e311" x="46.98" y="289.373881" style="stroke: #000000; stroke-width: 0.5"/>
      </g>
     </g>
     <g id="line2d_83">
      <g>
       <use xlink:href="#mbdf025eae0" x="465.48" y="289.373881" style="stroke: #000000; stroke-width: 0.5"/>
      </g>
     </g>
    </g>
    <g id="ytick_9">
     <g id="line2d_84">
      <g>
       <use xlink:href="#mf58016e311" x="46.98" y="265.588128" style="stroke: #000000; stroke-width: 0.5"/>
      </g>
     </g>
     <g id="line2d_85">
      <g>
       <use xlink:href="#mbdf025eae0" x="465.48" y="265.588128" style="stroke: #000000; stroke-width: 0.5"/>
      </g>
     </g>
    </g>
    <g id="ytick_10">
     <g id="line2d_86">
      <g>
       <use xlink:href="#mf58016e311" x="46.98" y="253.695252" style="stroke: #000000; stroke-width: 0.5"/>
      </g>
     </g>
     <g id="line2d_87">
      <g>
       <use xlink:href="#mbdf025eae0" x="465.48" y="253.695252" style="stroke: #000000; stroke-width: 0.5"/>
      </g>
     </g>
    </g>
    <g id="ytick_11">
     <g id="line2d_88">
      <g>
       <use xlink:href="#mf58016e311" x="46.98" y="241.802375" style="stroke: #000000; stroke-width: 0.5"/>
      </g>
     </g>
     <g id="line2d_89">
      <g>
       <use xlink:href="#mbdf025eae0" x="465.48" y="241.802375" style="stroke: #000000; stroke-width: 0.5"/>
      </g>
     </g>
    </g>
    <g id="ytick_12">
     <g id="line2d_90">
      <g>
       <use xlink:href="#mf58016e311" x="46.98" y="229.909499" style="stroke: #000000; stroke-width: 0.5"/>
      </g>
     </g>
     <g id="line2d_91">
      <g>
       <use xlink:href="#mbdf025eae0" x="465.48" y="229.909499" style="stroke: #000000; stroke-width: 0.5"/>
      </g>
     </g>
    </g>
    <g id="ytick_13">
     <g id="line2d_92">
      <g>
       <use xlink:href="#mf58016e311" x="46.98" y="206.123746" style="stroke: #000000; stroke-width: 0.5"/>
      </g>
     </g>
     <g id="line2d_93">
      <g>
       <use xlink:href="#mbdf025eae0" x="465.48" y="206.123746" style="stroke: #000000; stroke-width: 0.5"/>
      </g>
     </g>
    </g>
    <g id="ytick_14">
     <g id="line2d_94">
      <g>
       <use xlink:href="#mf58016e311" x="46.98" y="194.23087" style="stroke: #000000; stroke-width: 0.5"/>
      </g>
     </g>
     <g id="line2d_95">
      <g>
       <use xlink:href="#mbdf025eae0" x="465.48" y="194.23087" style="stroke: #000000; stroke-width: 0.5"/>
      </g>
     </g>
    </g>
    <g id="ytick_15">
     <g id="line2d_96">
      <g>
       <use xlink:href="#mf58016e311" x="46.98" y="182.337994" style="stroke: #000000; stroke-width: 0.5"/>
      </g>
     </g>
     <g id="line2d_97">
      <g>
       <use xlink:href="#mbdf025eae0" x="465.48" y="182.337994" style="stroke: #000000; stroke-width: 0.5"/>
      </g>
     </g>
    </g>
    <g id="ytick_16">
     <g id="line2d_98">
      <g>
       <use xlink:href="#mf58016e311" x="46.98" y="170.445117" style="stroke: #000000; stroke-width: 0.5"/>
      </g>
     </g>
     <g id="line2d_99">
      <g>
       <use xlink:href="#mbdf025eae0" x="465.48" y="170.445117" style="stroke: #000000; stroke-width: 0.5"/>
      </g>
     </g>
    </g>
    <g id="ytick_17">
     <g id="line2d_100">
      <g>
       <use xlink:href="#mf58016e311" x="46.98" y="146.659365" style="stroke: #000000; stroke-width: 0.5"/>
      </g>
     </g>
     <g id="line2d_101">
      <g>
       <use xlink:href="#mbdf025eae0" x="465.48" y="146.659365" style="stroke: #000000; stroke-width: 0.5"/>
      </g>
     </g>
    </g>
    <g id="ytick_18">
     <g id="line2d_102">
      <g>
       <use xlink:href="#mf58016e311" x="46.98" y="134.766488" style="stroke: #000000; stroke-width: 0.5"/>
      </g>
     </g>
     <g id="line2d_103">
      <g>
       <use xlink:href="#mbdf025eae0" x="465.48" y="134.766488" style="stroke: #000000; stroke-width: 0.5"/>
      </g>
     </g>
    </g>
    <g id="ytick_19">
     <g id="line2d_104">
      <g>
       <use xlink:href="#mf58016e311" x="46.98" y="122.873612" style="stroke: #000000; stroke-width: 0.5"/>
      </g>
     </g>
     <g id="line2d_105">
      <g>
       <use xlink:href="#mbdf025eae0" x="465.48" y="122.873612" style="stroke: #000000; stroke-width: 0.5"/>
      </g>
     </g>
    </g>
    <g id="ytick_20">
     <g id="line2d_106">
      <g>
       <use xlink:href="#mf58016e311" x="46.98" y="110.980736" style="stroke: #000000; stroke-width: 0.5"/>
      </g>
     </g>
     <g id="line2d_107">
      <g>
       <use xlink:href="#mbdf025eae0" x="465.48" y="110.980736" style="stroke: #000000; stroke-width: 0.5"/>
      </g>
     </g>
    </g>
    <g id="ytick_21">
     <g id="line2d_108">
      <g>
       <use xlink:href="#mf58016e311" x="46.98" y="87.194983" style="stroke: #000000; stroke-width: 0.5"/>
      </g>
     </g>
     <g id="line2d_109">
      <g>
       <use xlink:href="#mbdf025eae0" x="465.48" y="87.194983" style="stroke: #000000; stroke-width: 0.5"/>
      </g>
     </g>
    </g>
    <g id="ytick_22">
     <g id="line2d_110">
      <g>
       <use xlink:href="#mf58016e311" x="46.98" y="75.302107" style="stroke: #000000; stroke-width: 0.5"/>
      </g>
     </g>
     <g id="line2d_111">
      <g>
       <use xlink:href="#mbdf025eae0" x="465.48" y="75.302107" style="stroke: #000000; stroke-width: 0.5"/>
      </g>
     </g>
    </g>
    <g id="ytick_23">
     <g id="line2d_112">
      <g>
       <use xlink:href="#mf58016e311" x="46.98" y="63.40923" style="stroke: #000000; stroke-width: 0.5"/>
      </g>
     </g>
     <g id="line2d_113">
      <g>
       <use xlink:href="#mbdf025eae0" x="465.48" y="63.40923" style="stroke: #000000; stroke-width: 0.5"/>
      </g>
     </g>
    </g>
    <g id="ytick_24">
     <g id="line2d_114">
      <g>
       <use xlink:href="#mf58016e311" x="46.98" y="51.516354" style="stroke: #000000; stroke-width: 0.5"/>
      </g>
     </g>
     <g id="line2d_115">
      <g>
       <use xlink:href="#mbdf025eae0" x="465.48" y="51.516354" style="stroke: #000000; stroke-width: 0.5"/>
      </g>
     </g>
    </g>
    <g id="ytick_25">
     <g id="line2d_116">
      <g>
       <use xlink:href="#mf58016e311" x="46.98" y="27.730601" style="stroke: #000000; stroke-width: 0.5"/>
      </g>
     </g>
     <g id="line2d_117">
      <g>
       <use xlink:href="#mbdf025eae0" x="465.48" y="27.730601" style="stroke: #000000; stroke-width: 0.5"/>
      </g>
     </g>
    </g>
    <g id="text_13">
     <!-- Variance difference from exact -->
     <g transform="translate(13.161563 256.688844) rotate(-90) scale(0.14 -0.14)">
      <defs>
       <path id="STIXGeneral-Regular-56" d="M 4461 4237 
L 4461 4115 
Q 4262 4109 4134 3990 
Q 4006 3872 3872 3533 
L 2451 -70 
L 2355 -70 
L 794 3411 
Q 589 3866 467 3987 
Q 346 4109 102 4115 
L 102 4237 
L 1798 4237 
L 1798 4115 
L 1619 4102 
Q 1331 4083 1331 3904 
Q 1331 3776 1581 3219 
L 2554 1030 
L 3494 3392 
Q 3616 3699 3616 3853 
Q 3616 3898 3606 3933 
Q 3597 3968 3584 3993 
Q 3571 4019 3536 4038 
Q 3501 4058 3481 4067 
Q 3462 4077 3411 4086 
Q 3360 4096 3337 4099 
Q 3315 4102 3248 4108 
Q 3181 4115 3155 4115 
L 3155 4237 
L 4461 4237 
z
" transform="scale(0.015625)"/>
       <path id="STIXGeneral-Regular-61" d="M 2829 422 
L 2829 243 
Q 2586 -64 2253 -64 
Q 1888 -64 1843 403 
L 1837 403 
Q 1427 -64 909 -64 
Q 608 -64 422 112 
Q 237 288 237 602 
Q 237 1050 685 1350 
Q 992 1555 1837 1869 
L 1837 2214 
Q 1837 2502 1699 2646 
Q 1562 2790 1338 2790 
Q 1146 2790 1018 2697 
Q 890 2605 890 2477 
Q 890 2419 909 2348 
Q 928 2278 928 2208 
Q 928 2112 841 2029 
Q 755 1946 634 1946 
Q 525 1946 441 2029 
Q 358 2112 358 2240 
Q 358 2547 685 2752 
Q 986 2944 1421 2944 
Q 1939 2944 2176 2656 
Q 2291 2522 2323 2384 
Q 2355 2246 2355 1946 
L 2355 723 
Q 2355 301 2554 301 
Q 2682 301 2829 422 
z
M 1837 813 
L 1837 1715 
Q 1248 1510 1018 1293 
Q 800 1094 800 800 
Q 800 557 921 432 
Q 1043 307 1242 307 
Q 1453 307 1613 410 
Q 1747 506 1792 589 
Q 1837 672 1837 813 
z
" transform="scale(0.015625)"/>
       <path id="STIXGeneral-Regular-72" d="M 1024 2931 
L 1024 2342 
Q 1267 2688 1430 2816 
Q 1594 2944 1792 2944 
Q 1958 2944 2051 2854 
Q 2144 2765 2144 2605 
Q 2144 2470 2077 2393 
Q 2010 2317 1894 2317 
Q 1773 2317 1638 2445 
Q 1536 2541 1472 2541 
Q 1338 2541 1181 2355 
Q 1024 2170 1024 2016 
L 1024 576 
Q 1024 301 1133 205 
Q 1242 109 1568 96 
L 1568 0 
L 32 0 
L 32 96 
Q 339 154 412 224 
Q 486 294 486 538 
L 486 2138 
Q 486 2349 438 2435 
Q 390 2522 269 2522 
Q 166 2522 45 2496 
L 45 2598 
Q 448 2726 992 2944 
L 1024 2931 
z
" transform="scale(0.015625)"/>
       <path id="STIXGeneral-Regular-6e" d="M 3104 0 
L 1773 0 
L 1779 96 
Q 2016 115 2096 233 
Q 2176 352 2176 672 
L 2176 1946 
Q 2176 2592 1709 2592 
Q 1549 2592 1408 2515 
Q 1267 2438 1050 2227 
L 1050 461 
Q 1050 269 1136 192 
Q 1222 115 1466 96 
L 1466 0 
L 115 0 
L 115 96 
Q 358 115 435 214 
Q 512 314 512 602 
L 512 2157 
Q 512 2394 467 2483 
Q 422 2573 288 2573 
Q 160 2573 102 2547 
L 102 2656 
Q 550 2784 979 2944 
L 1030 2925 
L 1030 2426 
L 1037 2426 
Q 1491 2944 1958 2944 
Q 2323 2944 2518 2688 
Q 2714 2432 2714 1958 
L 2714 544 
Q 2714 288 2790 205 
Q 2867 122 3104 96 
L 3104 0 
z
" transform="scale(0.015625)"/>
       <path id="STIXGeneral-Regular-63" d="M 2547 998 
L 2637 941 
Q 2362 403 2112 205 
Q 1786 -64 1376 -64 
Q 845 -64 502 336 
Q 160 736 160 1357 
Q 160 2170 698 2618 
Q 1094 2944 1562 2944 
Q 1965 2944 2256 2749 
Q 2547 2554 2547 2285 
Q 2547 2176 2457 2096 
Q 2368 2016 2246 2016 
Q 2022 2016 1939 2310 
L 1901 2451 
Q 1850 2630 1773 2694 
Q 1696 2758 1523 2758 
Q 1133 2758 893 2451 
Q 653 2144 653 1645 
Q 653 1094 928 745 
Q 1203 397 1645 397 
Q 1920 397 2118 528 
Q 2317 659 2547 998 
z
" transform="scale(0.015625)"/>
       <path id="STIXGeneral-Regular-20" transform="scale(0.015625)"/>
       <path id="STIXGeneral-Regular-64" d="M 3142 269 
L 2202 -64 
L 2176 -45 
L 2176 365 
Q 1869 -64 1357 -64 
Q 826 -64 499 317 
Q 173 698 173 1312 
Q 173 1990 563 2467 
Q 954 2944 1504 2944 
Q 1850 2944 2176 2669 
L 2176 3667 
Q 2176 3866 2118 3930 
Q 2061 3994 1882 3994 
Q 1792 3994 1741 3987 
L 1741 4090 
Q 2323 4243 2682 4371 
L 2714 4358 
L 2714 730 
Q 2714 506 2768 435 
Q 2822 365 2995 365 
Q 3034 365 3142 371 
L 3142 269 
z
M 2176 653 
L 2176 2125 
Q 2176 2381 1981 2573 
Q 1786 2765 1523 2765 
Q 1158 2765 940 2438 
Q 723 2112 723 1568 
Q 723 979 963 624 
Q 1203 269 1606 269 
Q 1907 269 2080 474 
Q 2176 582 2176 653 
z
" transform="scale(0.015625)"/>
       <path id="STIXGeneral-Regular-66" d="M 134 2880 
L 659 2880 
Q 666 3264 710 3478 
Q 755 3693 883 3910 
Q 1152 4371 1786 4371 
Q 2074 4371 2262 4259 
Q 2451 4147 2451 3974 
Q 2451 3866 2374 3789 
Q 2298 3712 2182 3712 
Q 2029 3712 1894 3942 
Q 1741 4192 1555 4192 
Q 1197 4192 1197 3622 
L 1197 2880 
L 1978 2880 
L 1978 2675 
L 1197 2675 
L 1197 666 
Q 1197 307 1299 208 
Q 1402 109 1792 96 
L 1792 0 
L 128 0 
L 128 96 
Q 474 115 566 214 
Q 659 314 659 666 
L 659 2675 
L 134 2675 
L 134 2880 
z
" transform="scale(0.015625)"/>
       <path id="STIXGeneral-Regular-6f" d="M 3008 1478 
Q 3008 806 2608 371 
Q 2208 -64 1568 -64 
Q 979 -64 582 368 
Q 186 800 186 1459 
Q 186 2125 582 2534 
Q 979 2944 1626 2944 
Q 2221 2944 2614 2537 
Q 3008 2131 3008 1478 
z
M 2432 1306 
Q 2432 2035 2112 2445 
Q 1856 2765 1504 2765 
Q 1171 2765 966 2493 
Q 762 2221 762 1747 
Q 762 928 1101 435 
Q 1318 115 1677 115 
Q 2029 115 2230 432 
Q 2432 749 2432 1306 
z
" transform="scale(0.015625)"/>
       <path id="STIXGeneral-Regular-78" d="M 3066 0 
L 1779 0 
L 1779 96 
Q 1939 109 1987 137 
Q 2035 166 2035 250 
Q 2035 307 1997 365 
L 1414 1261 
L 909 474 
Q 781 275 781 211 
Q 781 96 1037 96 
L 1037 0 
L 109 0 
L 109 96 
Q 269 109 355 169 
Q 442 230 576 422 
L 1306 1478 
L 704 2400 
Q 557 2624 454 2704 
Q 352 2784 211 2784 
L 154 2784 
L 154 2880 
L 1478 2880 
L 1478 2784 
Q 1203 2778 1203 2643 
Q 1203 2509 1498 2074 
Q 1581 1958 1587 1946 
Q 1619 1990 1779 2227 
Q 1811 2285 1856 2349 
Q 1901 2413 1923 2451 
Q 1946 2490 1971 2528 
Q 1997 2566 2006 2595 
Q 2016 2624 2016 2643 
Q 2016 2765 1760 2784 
L 1760 2880 
L 2771 2880 
L 2771 2784 
Q 2445 2771 2253 2502 
L 1722 1734 
L 2541 480 
Q 2790 96 3066 96 
L 3066 0 
z
" transform="scale(0.015625)"/>
       <path id="STIXGeneral-Regular-74" d="M 1702 493 
L 1786 422 
Q 1478 -64 1011 -64 
Q 448 -64 448 749 
L 448 2675 
L 109 2675 
Q 83 2694 83 2720 
Q 83 2771 192 2842 
Q 435 2982 813 3526 
Q 826 3546 874 3606 
Q 922 3667 941 3706 
Q 986 3706 986 3622 
L 986 2880 
L 1632 2880 
L 1632 2675 
L 986 2675 
L 986 845 
Q 986 538 1062 403 
Q 1139 269 1318 269 
Q 1510 269 1702 493 
z
" transform="scale(0.015625)"/>
      </defs>
      <use xlink:href="#STIXGeneral-Regular-56"/>
      <use xlink:href="#STIXGeneral-Regular-61" transform="translate(72.199982 0)"/>
      <use xlink:href="#STIXGeneral-Regular-72" transform="translate(116.599976 0)"/>
      <use xlink:href="#STIXGeneral-Regular-69" transform="translate(149.899963 0)"/>
      <use xlink:href="#STIXGeneral-Regular-61" transform="translate(177.699951 0)"/>
      <use xlink:href="#STIXGeneral-Regular-6e" transform="translate(222.099945 0)"/>
      <use xlink:href="#STIXGeneral-Regular-63" transform="translate(272.09993 0)"/>
      <use xlink:href="#STIXGeneral-Regular-65" transform="translate(316.499924 0)"/>
      <use xlink:href="#STIXGeneral-Regular-20" transform="translate(360.899918 0)"/>
      <use xlink:href="#STIXGeneral-Regular-64" transform="translate(385.899902 0)"/>
      <use xlink:href="#STIXGeneral-Regular-69" transform="translate(435.899887 0)"/>
      <use xlink:href="#STIXGeneral-Regular-66" transform="translate(463.699875 0)"/>
      <use xlink:href="#STIXGeneral-Regular-66" transform="translate(496.999863 0)"/>
      <use xlink:href="#STIXGeneral-Regular-65" transform="translate(530.29985 0)"/>
      <use xlink:href="#STIXGeneral-Regular-72" transform="translate(574.699844 0)"/>
      <use xlink:href="#STIXGeneral-Regular-65" transform="translate(607.999832 0)"/>
      <use xlink:href="#STIXGeneral-Regular-6e" transform="translate(652.399826 0)"/>
      <use xlink:href="#STIXGeneral-Regular-63" transform="translate(702.399811 0)"/>
      <use xlink:href="#STIXGeneral-Regular-65" transform="translate(746.799805 0)"/>
      <use xlink:href="#STIXGeneral-Regular-20" transform="translate(791.199799 0)"/>
      <use xlink:href="#STIXGeneral-Regular-66" transform="translate(816.199783 0)"/>
      <use xlink:href="#STIXGeneral-Regular-72" transform="translate(849.499771 0)"/>
      <use xlink:href="#STIXGeneral-Regular-6f" transform="translate(882.799759 0)"/>
      <use xlink:href="#STIXGeneral-Regular-6d" transform="translate(932.799744 0)"/>
      <use xlink:href="#STIXGeneral-Regular-20" transform="translate(1010.599731 0)"/>
      <use xlink:href="#STIXGeneral-Regular-65" transform="translate(1035.599716 0)"/>
      <use xlink:href="#STIXGeneral-Regular-78" transform="translate(1079.99971 0)"/>
      <use xlink:href="#STIXGeneral-Regular-61" transform="translate(1129.999695 0)"/>
      <use xlink:href="#STIXGeneral-Regular-63" transform="translate(1174.399689 0)"/>
      <use xlink:href="#STIXGeneral-Regular-74" transform="translate(1218.799683 0)"/>
     </g>
    </g>
   </g>
   <g id="line2d_118">
    <path d="M 66.002727 39.623478 
L 446.457273 39.623478 
L 446.457273 39.623478 
" clip-path="url(#p576453f052)" style="fill: none; stroke: #2ca02c; stroke-width: 2.7; stroke-linecap: square"/>
   </g>
   <g id="line2d_119">
    <path d="M 46.98 39.623478 
L 465.48 39.623478 
" clip-path="url(#p576453f052)" style="fill: none; stroke: #000000; stroke-opacity: 0.6; stroke-linecap: square"/>
   </g>
   <g id="patch_3">
    <path d="M 46.98 313.568 
L 46.98 25.28 
" style="fill: none; stroke: #000000; stroke-width: 0.5; stroke-linejoin: miter; stroke-linecap: square"/>
   </g>
   <g id="patch_4">
    <path d="M 465.48 313.568 
L 465.48 25.28 
" style="fill: none; stroke: #000000; stroke-width: 0.5; stroke-linejoin: miter; stroke-linecap: square"/>
   </g>
   <g id="patch_5">
    <path d="M 46.98 313.568 
L 465.48 313.568 
" style="fill: none; stroke: #000000; stroke-width: 0.5; stroke-linejoin: miter; stroke-linecap: square"/>
   </g>
   <g id="patch_6">
    <path d="M 46.98 25.28 
L 465.48 25.28 
" style="fill: none; stroke: #000000; stroke-width: 0.5; stroke-linejoin: miter; stroke-linecap: square"/>
   </g>
   <g id="line2d_120">
    <path d="M 66.002727 300.464 
L 66.078818 300.27845 
L 66.307091 297.692996 
L 66.383182 297.738357 
L 66.915818 288.380341 
L 67.068 286.84751 
L 67.296273 285.752286 
L 67.372364 284.333997 
L 67.448455 284.484774 
L 67.524545 283.635707 
L 67.600636 284.371408 
L 67.828909 282.444022 
L 67.905 283.177242 
L 68.285455 279.380205 
L 68.361545 280.000867 
L 68.589818 280.854853 
L 68.742 279.323994 
L 68.894182 277.349868 
L 68.970273 276.532559 
L 69.046364 279.301449 
L 69.122455 278.986175 
L 69.198545 278.336835 
L 69.426818 275.060618 
L 69.502909 275.432036 
L 69.959455 271.332038 
L 70.035545 271.374473 
L 70.111636 269.67432 
L 70.187727 270.231132 
L 70.339909 271.848827 
L 70.416 271.444883 
L 71.024727 265.556141 
L 71.100818 266.2335 
L 71.329091 265.25373 
L 71.405182 265.328602 
L 71.557364 264.237727 
L 71.709545 261.385804 
L 71.785636 261.798776 
L 71.937818 262.915593 
L 72.013909 262.063791 
L 72.09 262.159609 
L 72.166091 262.310009 
L 72.242182 261.33397 
L 72.318273 261.827768 
L 72.546545 258.010277 
L 72.774818 253.336604 
L 72.927 254.338643 
L 73.003091 252.684326 
L 73.079182 253.628459 
L 73.535727 250.514293 
L 73.611818 251.649444 
L 73.764 250.065605 
L 73.840091 250.159476 
L 73.992273 249.048714 
L 74.068364 249.553099 
L 74.144455 249.522722 
L 74.220545 248.528456 
L 74.296636 249.418509 
L 74.372727 248.704107 
L 74.448818 248.8096 
L 74.601 248.930582 
L 74.981455 244.010286 
L 75.057545 244.492249 
L 75.209727 243.90197 
L 75.285818 244.068523 
L 75.361909 244.522665 
L 75.438 244.262171 
L 75.514091 245.717707 
L 76.046727 239.704152 
L 76.275 241.014786 
L 76.427182 239.80137 
L 76.655455 244.081493 
L 76.959818 241.875698 
L 77.188091 240.742005 
L 77.340273 238.274185 
L 77.492455 238.900352 
L 77.720727 235.980243 
L 77.949 234.785874 
L 78.253364 231.512809 
L 78.405545 231.618953 
L 78.557727 231.144877 
L 78.862091 227.152747 
L 78.938182 227.305116 
L 79.090364 224.862757 
L 79.242545 222.355189 
L 79.318636 222.34553 
L 79.394727 222.044726 
L 79.470818 222.065379 
L 79.623 220.007501 
L 79.699091 220.35748 
L 79.927364 217.895338 
L 80.155636 219.056563 
L 80.231727 218.992311 
L 80.307818 218.468487 
L 80.383909 218.859226 
L 80.688273 216.50843 
L 80.764364 216.592209 
L 80.992636 215.812096 
L 81.144818 214.390339 
L 81.220909 214.28727 
L 81.297 213.540529 
L 81.373091 214.131182 
L 81.449182 213.920906 
L 81.677455 213.068873 
L 81.905727 210.240532 
L 81.981818 210.592349 
L 82.134 208.181911 
L 82.210091 208.791558 
L 82.286182 207.24686 
L 82.362273 208.97489 
L 82.438364 208.533041 
L 82.514455 209.193319 
L 82.590545 208.826154 
L 82.742727 211.452571 
L 82.818818 211.216304 
L 82.894909 211.373924 
L 82.971 211.252498 
L 83.047091 210.549376 
L 83.123182 211.100081 
L 83.199273 210.977051 
L 83.351455 209.936305 
L 83.503636 207.62261 
L 83.579727 208.41155 
L 83.655818 207.562765 
L 83.731909 207.774668 
L 83.884091 206.0253 
L 84.112364 203.719243 
L 84.188455 203.849623 
L 84.568909 199.855981 
L 84.645 200.112498 
L 85.101545 197.546986 
L 85.177636 198.111831 
L 85.405909 196.793149 
L 85.482 196.78695 
L 85.786364 194.573447 
L 85.862455 194.807444 
L 85.938545 195.084275 
L 86.014636 194.124464 
L 86.090727 195.261658 
L 86.166818 194.348341 
L 86.242909 194.577211 
L 86.395091 196.068808 
L 86.547273 195.320161 
L 86.851636 196.338852 
L 87.079909 193.197898 
L 87.232091 193.772176 
L 87.308182 193.3636 
L 87.384273 194.110968 
L 87.612545 191.62126 
L 87.688636 192.61051 
L 87.764727 192.273777 
L 87.916909 191.706483 
L 87.993 192.601692 
L 88.525636 189.047127 
L 88.753909 186.083501 
L 89.134364 182.112656 
L 89.210455 181.91167 
L 89.286545 181.326945 
L 89.362636 181.345752 
L 89.438727 181.590049 
L 89.514818 181.547013 
L 89.971364 178.817595 
L 90.047455 178.980032 
L 90.123545 179.417786 
L 90.199636 180.742904 
L 90.275727 180.347991 
L 90.351818 180.290753 
L 90.427909 180.743032 
L 90.504 180.343729 
L 90.580091 178.987479 
L 90.656182 179.546201 
L 90.808364 178.011693 
L 90.960545 176.187072 
L 91.036636 176.25343 
L 91.112727 176.321049 
L 91.188818 175.183142 
L 91.264909 175.799335 
L 91.569273 174.864954 
L 91.645364 174.739747 
L 91.949727 171.106427 
L 92.025818 172.232334 
L 92.101909 172.158107 
L 92.558455 169.145959 
L 92.634545 169.390004 
L 93.015 166.772262 
L 93.167182 165.418963 
L 93.319364 163.676562 
L 93.471545 164.215902 
L 93.547636 164.722735 
L 94.308545 159.307599 
L 94.384636 160.009727 
L 94.460727 159.876425 
L 94.689 158.374885 
L 94.765091 158.465965 
L 94.917273 157.832001 
L 95.221636 155.281627 
L 95.297727 155.603928 
L 95.373818 155.396893 
L 95.449909 155.61155 
L 95.678182 153.79864 
L 95.754273 153.954002 
L 95.982545 154.129263 
L 96.134727 152.443709 
L 96.210818 153.302362 
L 96.286909 154.721789 
L 96.363 154.226933 
L 96.591273 151.406458 
L 96.667364 151.568694 
L 96.743455 151.449689 
L 96.971727 149.415631 
L 97.2 150.039079 
L 97.504364 147.634402 
L 97.580455 147.883187 
L 97.656545 147.91881 
L 97.732636 148.221293 
L 97.960909 145.830167 
L 98.189182 144.194314 
L 98.417455 145.499224 
L 98.569636 144.263928 
L 98.645727 144.560955 
L 98.721818 144.037486 
L 98.797909 144.901186 
L 98.874 144.3799 
L 98.950091 144.924182 
L 99.102273 143.749273 
L 99.178364 143.175306 
L 99.330545 144.332307 
L 99.406636 143.884994 
L 99.482727 144.171057 
L 99.558818 143.748113 
L 99.634909 144.642779 
L 99.787091 142.601297 
L 99.863182 143.320346 
L 100.015364 142.49949 
L 100.091455 142.817647 
L 100.243636 141.533788 
L 100.319727 141.382861 
L 100.395818 140.504347 
L 100.471909 140.7077 
L 100.548 140.367533 
L 100.624091 140.51549 
L 100.700182 140.752475 
L 100.776273 140.498097 
L 100.928455 141.450329 
L 101.461091 138.40562 
L 101.613273 140.043695 
L 101.841545 138.704903 
L 101.917636 139.998902 
L 101.993727 139.466061 
L 102.145909 138.925195 
L 102.222 137.914953 
L 102.298091 138.350454 
L 102.374182 138.168456 
L 102.450273 137.054613 
L 102.526364 137.17097 
L 102.754636 135.42623 
L 102.830727 135.43642 
L 103.059 134.888341 
L 103.363364 132.39605 
L 103.439455 132.346703 
L 103.515545 132.635125 
L 103.819909 130.310986 
L 103.896 130.578978 
L 103.972091 130.44474 
L 104.048182 130.799049 
L 104.200364 129.828243 
L 104.276455 129.794081 
L 104.428636 128.941122 
L 104.580818 130.034513 
L 104.656909 129.966451 
L 105.037364 127.991196 
L 105.113455 128.348358 
L 105.57 126.881372 
L 105.722182 124.680671 
L 105.798273 124.922355 
L 105.874364 124.91255 
L 106.178727 123.521387 
L 106.254818 122.899866 
L 106.407 123.724676 
L 106.483091 122.865621 
L 106.559182 123.018747 
L 106.635273 123.124097 
L 106.863545 121.707147 
L 106.939636 122.499603 
L 107.015727 122.403308 
L 107.091818 122.335001 
L 107.167909 122.447839 
L 107.472273 121.031475 
L 107.548364 121.089293 
L 107.700545 120.069866 
L 107.776636 120.182447 
L 107.852727 120.108875 
L 107.928818 119.983719 
L 108.004909 120.310597 
L 108.081 120.227324 
L 108.461455 118.398181 
L 108.537545 118.766486 
L 108.613636 118.0846 
L 108.689727 118.410307 
L 108.841909 118.020286 
L 108.994091 118.437889 
L 109.146273 119.360459 
L 109.222364 118.90719 
L 109.298455 119.126413 
L 109.374545 119.765683 
L 109.450636 119.476877 
L 109.526727 118.732499 
L 109.602818 118.971693 
L 109.678909 119.448873 
L 109.831091 118.707368 
L 110.059364 117.558337 
L 110.135455 117.539239 
L 110.211545 117.909503 
L 110.287636 117.588462 
L 110.363727 117.882552 
L 110.439818 117.648683 
L 110.592 118.575149 
L 110.820273 117.895957 
L 110.972455 118.251222 
L 111.200727 117.399717 
L 111.276818 117.141225 
L 111.352909 117.32802 
L 111.657273 118.925082 
L 111.733364 118.933511 
L 111.809455 118.27297 
L 111.885545 118.450371 
L 112.037727 117.837775 
L 112.266 116.628754 
L 112.342091 117.197262 
L 112.570364 116.000677 
L 112.874727 119.063144 
L 112.950818 119.007663 
L 113.179091 117.263675 
L 113.255182 117.798551 
L 113.407364 116.445854 
L 113.483455 116.632659 
L 113.863909 114.175612 
L 113.94 114.801951 
L 114.092182 113.717067 
L 114.168273 113.988669 
L 114.472636 110.981769 
L 114.624818 111.631968 
L 114.777 110.632072 
L 114.853091 110.60518 
L 114.929182 111.448383 
L 115.005273 111.196889 
L 115.157455 110.732631 
L 115.233545 110.848236 
L 115.309636 110.963931 
L 115.614 109.33893 
L 115.690091 109.856102 
L 115.842273 108.818203 
L 115.994455 109.137185 
L 116.070545 108.996741 
L 116.146636 109.2626 
L 116.222727 109.077499 
L 116.298818 109.198812 
L 116.374909 109.105373 
L 116.603182 110.353634 
L 116.679273 110.172679 
L 117.135818 107.881981 
L 117.288 108.332116 
L 117.440182 107.676894 
L 117.668455 108.378876 
L 117.820636 108.885351 
L 118.048909 107.291697 
L 118.125 108.053623 
L 118.201091 108.018877 
L 118.277182 108.067857 
L 118.505455 107.014309 
L 118.657636 106.543236 
L 118.733727 106.481391 
L 118.809818 106.185026 
L 118.962 106.530096 
L 119.114182 106.551728 
L 119.190273 106.219217 
L 119.266364 106.324765 
L 119.494636 106.60846 
L 119.722909 105.397761 
L 119.875091 106.33551 
L 119.951182 106.416868 
L 120.027273 105.874517 
L 120.103364 106.190447 
L 120.179455 105.831009 
L 120.255545 106.373912 
L 120.407727 105.123686 
L 120.559909 105.306984 
L 120.788182 104.029052 
L 121.016455 105.079429 
L 121.092545 104.974005 
L 121.396909 104.333981 
L 121.473 104.898588 
L 121.625182 104.360364 
L 121.701273 104.527463 
L 122.157818 103.391668 
L 122.233909 103.432788 
L 122.690455 101.804327 
L 122.766545 102.112556 
L 122.842636 101.979675 
L 122.918727 101.931246 
L 122.994818 101.337301 
L 123.070909 101.50092 
L 123.147 101.326439 
L 123.299182 101.746723 
L 123.375273 101.632512 
L 123.527455 101.946481 
L 123.755727 100.519851 
L 123.831818 100.598902 
L 123.907909 99.833925 
L 123.984 99.895357 
L 124.060091 99.934583 
L 124.136182 99.716347 
L 124.212273 100.513625 
L 124.440545 98.903569 
L 124.516636 99.363777 
L 124.592727 99.54936 
L 124.668818 99.076823 
L 124.744909 99.125267 
L 124.821 99.495224 
L 125.201455 97.457467 
L 125.353636 98.550719 
L 125.429727 98.523427 
L 125.886273 97.06721 
L 125.962364 97.266983 
L 126.038455 97.942178 
L 126.342818 96.086776 
L 126.418909 96.254602 
L 126.495 95.721173 
L 126.571091 95.912332 
L 126.647182 95.82643 
L 126.723273 95.240688 
L 126.799364 95.492918 
L 126.875455 95.493822 
L 127.027636 94.753875 
L 127.103727 94.850062 
L 127.332 94.192202 
L 127.408091 94.115826 
L 127.560273 93.417889 
L 127.636364 93.342057 
L 127.788545 92.882827 
L 128.245091 94.420444 
L 128.321182 94.689065 
L 128.549455 93.64704 
L 128.701636 93.989426 
L 129.006 95.831114 
L 129.082091 95.255258 
L 129.158182 95.619548 
L 129.386455 94.966079 
L 129.462545 94.970538 
L 129.538636 95.410066 
L 130.527818 91.439201 
L 130.68 91.871869 
L 130.756091 91.805653 
L 130.832182 91.582785 
L 131.060455 89.938671 
L 131.136545 90.038999 
L 131.212636 89.895848 
L 131.288727 89.417673 
L 131.364818 90.291904 
L 131.440909 90.019326 
L 131.821364 88.976758 
L 131.973545 88.080456 
L 132.125727 87.164471 
L 132.201818 87.485949 
L 132.277909 87.446457 
L 132.430091 86.765848 
L 132.582273 87.094938 
L 132.734455 86.377927 
L 132.810545 86.412461 
L 132.962727 86.066349 
L 133.038818 86.141691 
L 133.114909 86.015 
L 133.495364 84.415468 
L 133.723636 83.561853 
L 133.875818 84.789287 
L 134.180182 83.9307 
L 134.408455 83.112728 
L 134.636727 84.337417 
L 134.712818 84.215525 
L 134.788909 84.67688 
L 135.245455 82.444835 
L 135.321545 82.728712 
L 135.473727 82.769654 
L 135.549818 83.156892 
L 135.778091 82.075286 
L 135.854182 82.00972 
L 136.006364 82.329443 
L 136.234636 81.273651 
L 136.310727 80.732546 
L 136.386818 81.151766 
L 136.539 80.528679 
L 136.767273 80.993719 
L 136.843364 80.804264 
L 136.919455 81.076987 
L 136.995545 81.020757 
L 137.071636 81.092676 
L 137.223818 81.676307 
L 137.299909 81.581729 
L 137.680364 79.850942 
L 137.756455 79.999305 
L 137.908636 79.501733 
L 137.984727 79.456856 
L 138.060818 79.597273 
L 138.136909 79.504586 
L 138.213 79.627095 
L 138.517364 78.489848 
L 138.669545 78.221907 
L 138.897818 77.331946 
L 138.973909 77.395364 
L 139.126091 76.390214 
L 139.278273 76.744554 
L 139.506545 76.335076 
L 139.582636 76.551928 
L 139.658727 76.162272 
L 139.734818 76.331325 
L 139.963091 77.534797 
L 140.191364 76.829795 
L 140.343545 77.596876 
L 140.419636 77.37113 
L 140.495727 77.203031 
L 140.571818 77.306016 
L 140.647909 77.170465 
L 140.724 77.757142 
L 140.800091 77.497261 
L 140.876182 77.150904 
L 141.104455 77.810736 
L 141.180545 77.412164 
L 141.332727 77.862811 
L 141.865364 78.733122 
L 141.941455 78.667821 
L 142.093636 77.691023 
L 142.169727 78.005627 
L 142.245818 77.967029 
L 142.398 77.449941 
L 142.474091 77.695428 
L 142.930636 76.287067 
L 143.006727 76.373829 
L 143.082818 76.015608 
L 143.311091 76.868427 
L 143.387182 76.60274 
L 143.615455 77.563777 
L 143.767636 77.513488 
L 143.919818 77.270167 
L 143.995909 77.039911 
L 144.072 77.157346 
L 144.300273 78.820794 
L 144.452455 78.416697 
L 144.528545 78.034679 
L 144.604636 78.378435 
L 144.756818 78.044556 
L 144.909 78.286339 
L 145.289455 77.511277 
L 145.365545 77.666529 
L 145.441636 78.127242 
L 145.517727 77.962872 
L 145.593818 77.770946 
L 145.669909 77.957165 
L 145.898182 77.621444 
L 145.974273 77.545138 
L 146.050364 77.897495 
L 146.278636 76.743154 
L 146.430818 76.397353 
L 146.887364 74.690845 
L 147.039545 74.652304 
L 147.191727 74.469668 
L 147.343909 75.072292 
L 147.42 74.853441 
L 147.572182 75.292772 
L 147.876545 74.210545 
L 148.180909 73.199693 
L 148.257 73.519875 
L 148.333091 73.440444 
L 148.485273 72.864887 
L 148.561364 73.143878 
L 148.637455 73.064462 
L 148.713545 73.028947 
L 148.865727 72.609478 
L 148.941818 72.710359 
L 149.017909 72.697483 
L 149.246182 72.113749 
L 149.398364 71.701544 
L 149.626636 72.272427 
L 149.778818 71.845002 
L 149.931 72.257717 
L 150.159273 71.807436 
L 150.311455 71.157139 
L 150.463636 71.25002 
L 150.539727 70.818764 
L 150.615818 70.868753 
L 150.768 70.897438 
L 150.844091 70.726336 
L 151.072364 71.53611 
L 151.148455 71.091778 
L 151.224545 71.22619 
L 151.452818 70.809149 
L 151.528909 70.962642 
L 151.605 71.110296 
L 151.681091 70.824477 
L 151.757182 70.880556 
L 151.833273 70.933878 
L 151.909364 71.148774 
L 152.137636 70.585525 
L 152.213727 70.864267 
L 152.289818 70.594426 
L 152.365909 70.781961 
L 152.746364 70.253636 
L 152.822455 70.316515 
L 152.974636 69.924836 
L 153.202909 69.129825 
L 153.583364 68.428793 
L 153.811636 67.654603 
L 153.887727 67.654162 
L 153.963818 68.210973 
L 154.192091 67.208979 
L 154.268182 68.064039 
L 154.344273 67.858686 
L 154.724727 66.571211 
L 154.800818 66.466242 
L 155.029091 65.74961 
L 155.105182 65.738779 
L 155.181273 65.898316 
L 155.409545 64.846171 
L 155.485636 64.892606 
L 155.561727 64.875338 
L 155.637818 65.572593 
L 155.866091 64.861249 
L 156.094364 64.422765 
L 156.170455 64.586778 
L 156.855273 62.628577 
L 157.159636 61.95691 
L 157.311818 62.093005 
L 157.464 61.915559 
L 157.540091 61.949135 
L 157.692273 61.748612 
L 157.844455 62.337989 
L 158.072727 61.179363 
L 158.148818 61.443313 
L 158.301 59.96224 
L 158.377091 59.866862 
L 158.453182 60.004627 
L 158.605364 59.744489 
L 158.681455 59.617119 
L 158.757545 59.898437 
L 158.833636 59.668033 
L 158.909727 59.874777 
L 158.985818 59.705958 
L 159.061909 59.80494 
L 159.214091 59.923895 
L 159.290182 59.961659 
L 159.518455 60.441557 
L 159.746727 61.730286 
L 159.822818 61.650418 
L 159.975 61.263154 
L 160.127182 61.631797 
L 160.279364 61.442939 
L 160.431545 61.941715 
L 160.507636 62.357056 
L 160.583727 62.332972 
L 160.659818 62.155508 
L 160.735909 62.191543 
L 160.812 62.424873 
L 160.888091 62.319793 
L 160.964182 62.480581 
L 161.040273 62.305931 
L 161.192455 62.894077 
L 161.268545 62.862327 
L 161.420727 63.182443 
L 161.572909 63.173933 
L 161.725091 62.867425 
L 161.877273 62.588765 
L 162.181636 62.169289 
L 162.257727 62.458301 
L 162.486 61.684829 
L 162.562091 61.703602 
L 162.866455 61.13659 
L 162.942545 61.648806 
L 163.018636 61.575723 
L 163.323 60.890839 
L 163.475182 61.389353 
L 163.627364 61.166911 
L 163.779545 60.812359 
L 163.855636 60.860876 
L 163.931727 60.695053 
L 164.007818 60.948505 
L 164.388273 60.147937 
L 164.692636 60.794132 
L 165.073091 61.390364 
L 165.301364 60.899266 
L 165.377455 61.017341 
L 165.681818 60.213023 
L 165.757909 59.961172 
L 165.834 60.547635 
L 165.910091 60.415868 
L 166.138364 59.850692 
L 166.290545 59.944961 
L 166.366636 59.746062 
L 166.442727 59.781254 
L 166.518818 59.766768 
L 166.671 59.651011 
L 167.051455 59.929262 
L 167.203636 59.520804 
L 167.279727 59.564014 
L 167.431909 59.251516 
L 167.584091 58.894331 
L 167.812364 59.429364 
L 167.964545 59.350232 
L 168.116727 59.302239 
L 168.268909 59.227891 
L 168.345 59.067808 
L 168.421091 59.493227 
L 168.573273 59.157926 
L 168.649364 59.167061 
L 168.801545 59.387299 
L 168.953727 59.511869 
L 169.410273 60.919309 
L 169.638545 61.154312 
L 169.714636 61.021139 
L 170.095091 61.536722 
L 170.323364 61.272617 
L 170.475545 61.032007 
L 170.627727 61.838559 
L 170.703818 61.552465 
L 170.856 62.320705 
L 171.008182 62.135129 
L 171.084273 62.617741 
L 171.160364 62.440349 
L 171.236455 62.402033 
L 171.464727 62.879982 
L 171.693 62.55884 
L 171.845182 61.963536 
L 171.921273 62.115903 
L 172.377818 61.508007 
L 172.682182 62.180549 
L 172.834364 61.497941 
L 172.910455 61.571155 
L 172.986545 61.806869 
L 173.290909 60.783979 
L 173.443091 61.055068 
L 173.671364 60.560385 
L 173.747455 60.961365 
L 173.823545 60.860236 
L 173.975727 60.937394 
L 174.584455 60.295318 
L 174.736636 60.623293 
L 174.888818 61.097383 
L 174.964909 61.216036 
L 175.041 61.063659 
L 175.117091 61.184717 
L 175.421455 60.655408 
L 175.497545 60.752259 
L 175.573636 60.676195 
L 175.649727 60.598203 
L 175.725818 60.821966 
L 176.030182 60.21439 
L 176.106273 60.377993 
L 176.410636 59.787782 
L 176.562818 60.1136 
L 176.638909 59.921128 
L 176.715 60.037326 
L 176.791091 60.411079 
L 177.019364 59.980436 
L 177.323727 59.674393 
L 177.475909 59.845877 
L 177.704182 59.572732 
L 177.780273 59.520911 
L 177.856364 59.214221 
L 178.008545 59.427612 
L 178.541182 58.527157 
L 178.617273 58.325129 
L 178.693364 58.454739 
L 179.073818 57.967927 
L 179.149909 58.235665 
L 179.226 58.118019 
L 179.454273 58.30917 
L 179.530364 58.624387 
L 179.834727 57.948314 
L 179.986909 58.063723 
L 180.215182 57.979287 
L 180.367364 58.294163 
L 180.519545 57.944399 
L 180.595636 57.855 
L 180.671727 58.022199 
L 180.747818 57.949527 
L 180.823909 57.947079 
L 181.356545 56.703195 
L 181.889182 55.825629 
L 182.345727 56.727931 
L 182.421818 56.525612 
L 182.497909 56.681628 
L 182.650091 56.209912 
L 182.726182 56.359402 
L 183.030545 55.927568 
L 183.182727 56.568179 
L 183.411 55.976359 
L 183.487091 55.989121 
L 183.715364 55.615005 
L 183.867545 55.520607 
L 183.943636 55.159945 
L 184.019727 55.293353 
L 184.476273 56.220312 
L 184.552364 56.09711 
L 184.704545 56.084983 
L 184.780636 56.230693 
L 184.856727 56.108493 
L 185.085 56.801381 
L 185.617636 55.635285 
L 185.693727 55.529758 
L 185.769818 54.897203 
L 185.845909 55.028533 
L 185.998091 54.904849 
L 186.074182 54.725115 
L 186.150273 54.787432 
L 186.606818 53.955257 
L 186.759 54.303323 
L 187.063364 53.770403 
L 187.139455 54.167817 
L 187.215545 54.055727 
L 187.367727 54.226486 
L 187.443818 54.100879 
L 187.519909 53.932942 
L 187.596 53.986896 
L 187.672091 54.087436 
L 187.824273 53.786493 
L 187.976455 53.958676 
L 188.280818 53.435634 
L 188.356909 53.443934 
L 188.433 53.275863 
L 188.585182 53.424698 
L 188.737364 53.282495 
L 189.117818 53.657707 
L 189.193909 53.546055 
L 189.27 53.828536 
L 189.346091 53.667707 
L 189.574364 53.948965 
L 189.726545 53.846767 
L 189.878727 53.624036 
L 189.954818 53.667866 
L 190.030909 53.561571 
L 190.183091 53.698819 
L 190.259182 53.711323 
L 190.487455 53.416656 
L 190.715727 53.387278 
L 190.791818 53.657235 
L 191.020091 53.323263 
L 191.248364 53.336284 
L 191.400545 53.280495 
L 191.781 53.611699 
L 191.857091 53.469472 
L 191.933182 53.359738 
L 192.085364 53.738044 
L 192.237545 53.628555 
L 192.313636 53.774013 
L 192.618 53.406966 
L 193.150636 52.645617 
L 193.302818 52.65937 
L 193.378909 52.89843 
L 193.455 52.847056 
L 193.607182 53.247614 
L 193.683273 53.114253 
L 194.368091 51.832476 
L 194.444182 51.809728 
L 194.520273 52.036915 
L 194.596364 51.930214 
L 194.748545 51.980891 
L 194.824636 51.956685 
L 195.052909 51.744791 
L 195.281182 51.681012 
L 195.433364 51.62766 
L 195.661636 52.069608 
L 195.813818 51.936939 
L 195.889909 51.796873 
L 195.966 51.981715 
L 196.422545 51.108458 
L 196.498636 51.324326 
L 196.574727 51.275954 
L 196.726909 51.239197 
L 196.879091 51.382556 
L 196.955182 51.353125 
L 197.031273 51.649054 
L 197.107364 51.56767 
L 197.183455 51.407453 
L 197.259545 51.625227 
L 197.335636 51.591255 
L 197.487818 51.401973 
L 197.563909 50.873025 
L 197.64 50.963615 
L 198.096545 50.432576 
L 198.172636 50.50334 
L 198.324818 50.54996 
L 198.400909 50.607709 
L 198.477 50.472688 
L 198.705273 50.827924 
L 198.857455 51.074318 
L 199.009636 50.921626 
L 199.237909 51.339778 
L 199.542273 50.99796 
L 199.694455 51.121124 
L 199.998818 51.301001 
L 200.227091 50.889101 
L 200.303182 51.020701 
L 200.379273 50.927008 
L 200.455364 50.988995 
L 200.531455 50.973816 
L 200.607545 51.312434 
L 200.683636 51.167067 
L 200.759727 51.208385 
L 200.911909 51.096085 
L 201.064091 50.452188 
L 201.292364 50.378996 
L 201.596727 50.061154 
L 201.748909 50.231969 
L 201.977182 49.978648 
L 202.053273 50.141285 
L 202.281545 49.851403 
L 202.357636 49.816263 
L 202.509818 50.055199 
L 202.738091 49.894161 
L 202.890273 50.147972 
L 203.042455 49.929873 
L 203.118545 50.020198 
L 203.270727 49.869225 
L 203.346818 49.886118 
L 203.499 49.779836 
L 203.575091 49.832913 
L 203.727273 50.303347 
L 203.955545 50.504733 
L 204.336 50.113371 
L 204.412091 50.120992 
L 204.640364 49.881974 
L 205.020818 49.804304 
L 205.096909 49.607756 
L 205.173 49.693318 
L 205.249091 49.625216 
L 205.401273 49.716544 
L 205.629545 49.391883 
L 205.857818 49.224609 
L 206.162182 48.721099 
L 206.238273 48.620033 
L 206.314364 48.942973 
L 206.390455 48.862139 
L 206.542636 48.856152 
L 206.618727 49.041538 
L 206.694818 48.936708 
L 206.847 48.907425 
L 206.999182 49.035465 
L 207.075273 48.735721 
L 207.151364 48.811137 
L 207.531818 48.3492 
L 207.684 47.654218 
L 207.836182 47.502074 
L 207.912273 47.790518 
L 207.988364 47.686112 
L 208.064455 47.77251 
L 208.292727 47.614624 
L 208.368818 47.670302 
L 208.673182 47.374903 
L 208.749273 47.458251 
L 209.053636 47.250823 
L 209.129727 47.312199 
L 209.205818 47.229736 
L 209.358 47.316877 
L 209.586273 47.181264 
L 209.662364 47.325554 
L 209.738455 47.234638 
L 209.890636 47.170995 
L 209.966727 47.162861 
L 210.042818 47.378533 
L 210.118909 47.351198 
L 210.271091 47.204942 
L 210.347182 47.357155 
L 210.423273 47.274811 
L 210.727636 47.033357 
L 210.879818 46.944044 
L 211.108091 46.825813 
L 211.564636 47.012612 
L 211.792909 46.937124 
L 212.097273 46.794432 
L 212.401636 47.191658 
L 212.858182 46.883446 
L 212.934273 46.937896 
L 213.010364 47.248767 
L 213.086455 47.167851 
L 213.390818 47.039915 
L 213.466909 47.200447 
L 213.543 47.133187 
L 213.999545 46.790832 
L 214.075636 46.739807 
L 214.151727 46.242709 
L 214.227818 46.263742 
L 214.38 46.278182 
L 214.532182 46.37916 
L 214.836545 46.193487 
L 214.912636 46.49574 
L 214.988727 46.393956 
L 215.369182 46.577698 
L 215.445273 46.530621 
L 215.597455 46.567896 
L 215.825727 46.418967 
L 215.977909 46.833318 
L 216.130091 46.909572 
L 216.282273 47.071476 
L 216.510545 47.068427 
L 216.814909 46.880845 
L 216.967091 47.102814 
L 217.043182 47.018256 
L 217.119273 46.423605 
L 217.195364 46.49398 
L 217.423636 46.648696 
L 218.108455 46.105929 
L 218.260636 46.123549 
L 218.717182 45.912716 
L 218.869364 45.982433 
L 218.945455 46.049159 
L 219.402 45.681898 
L 219.554182 44.98487 
L 219.782455 44.813175 
L 219.858545 44.941038 
L 219.934636 44.872045 
L 220.162909 44.860528 
L 220.619455 44.723777 
L 220.695545 44.727178 
L 220.771636 44.868689 
L 220.847727 44.801415 
L 220.999909 44.922657 
L 221.456455 44.867966 
L 221.608636 44.859826 
L 221.989091 44.563976 
L 222.141273 44.603132 
L 223.434818 44.530644 
L 223.663091 44.708037 
L 223.967455 44.624274 
L 224.804455 44.52165 
L 225.108818 44.338931 
L 225.261 44.60031 
L 225.337091 43.934318 
L 225.413182 44.058179 
L 225.869727 43.796253 
L 226.021909 43.846126 
L 226.098 43.809686 
L 226.250182 43.545734 
L 226.402364 43.696074 
L 226.554545 43.918925 
L 227.087182 43.601256 
L 227.315455 42.371671 
L 227.391545 42.397761 
L 227.772 42.27633 
L 228.076364 42.624993 
L 228.380727 42.479218 
L 228.532909 42.508305 
L 228.685091 42.436771 
L 228.837273 42.757231 
L 228.913364 42.232703 
L 228.989455 42.425318 
L 229.446 42.338869 
L 229.522091 42.150359 
L 229.598182 41.458491 
L 229.674273 41.580655 
L 229.902545 41.562681 
L 230.054727 41.596815 
L 230.435182 41.438336 
L 230.587364 41.470421 
L 230.739545 41.40218 
L 230.891727 40.50999 
L 231.043909 40.540265 
L 231.500455 40.513494 
L 231.728727 40.723882 
L 231.804818 40.757706 
L 231.880909 40.953193 
L 231.957 40.90471 
L 232.109182 40.871395 
L 232.261364 40.954625 
L 232.641818 40.894651 
L 233.022273 41.062127 
L 233.326636 40.942947 
L 233.554909 40.755179 
L 233.783182 40.93462 
L 234.087545 41.235518 
L 234.315818 41.33194 
L 234.544091 41.266646 
L 235.000636 41.544112 
L 235.228909 41.458751 
L 235.457182 41.616398 
L 235.609364 41.657867 
L 236.065909 41.808273 
L 236.218091 41.861361 
L 236.979 41.564565 
L 237.131182 41.629201 
L 237.359455 41.623579 
L 237.511636 41.662391 
L 237.892091 41.641987 
L 238.120364 41.844186 
L 238.424727 41.820562 
L 238.805182 41.684234 
L 238.881273 41.928753 
L 238.957364 41.891666 
L 239.49 41.696373 
L 240.022636 41.67511 
L 240.174818 41.617773 
L 240.403091 41.80455 
L 240.479182 41.767232 
L 240.631364 41.47991 
L 241.011818 41.375019 
L 241.164 40.987765 
L 241.392273 40.994946 
L 241.696636 41.207408 
L 241.848818 41.245439 
L 242.001 41.303868 
L 242.305364 41.259873 
L 242.457545 41.293223 
L 242.914091 41.272448 
L 243.066273 41.341396 
L 243.142364 41.341569 
L 243.446727 41.627478 
L 243.598909 41.576978 
L 243.903273 41.953547 
L 244.283727 41.874713 
L 244.435909 41.935682 
L 244.588091 41.922126 
L 244.816364 40.87755 
L 245.196818 40.907183 
L 245.272909 41.00998 
L 245.425091 40.679131 
L 245.577273 40.754997 
L 245.805545 40.862509 
L 246.566455 40.777272 
L 246.718636 40.89143 
L 246.794727 40.87801 
L 246.946909 40.963914 
L 247.479545 41.209538 
L 247.707818 41.216354 
L 248.012182 41.145882 
L 248.164364 41.313665 
L 248.316545 41.394888 
L 249.153545 41.234612 
L 249.305727 40.480712 
L 249.534 40.627462 
L 249.838364 40.652437 
L 250.675364 40.52649 
L 250.827545 40.588295 
L 251.284091 40.590309 
L 251.664545 40.692955 
L 252.045 40.601477 
L 252.197182 40.679877 
L 252.653727 40.654467 
L 252.805909 40.826847 
L 254.175545 40.605571 
L 254.327727 40.656545 
L 254.556 40.641655 
L 254.708182 40.692274 
L 256.077818 40.570391 
L 256.23 40.687393 
L 256.534364 40.659671 
L 256.762636 40.952858 
L 257.143091 40.956265 
L 257.523545 41.130154 
L 261.023727 40.631203 
L 261.175909 40.673168 
L 262.926 40.339522 
L 263.078182 40.388102 
L 263.458636 40.401441 
L 263.686909 40.403125 
L 264.752182 40.232112 
L 265.056545 40.354781 
L 265.665273 40.246764 
L 266.045727 40.183907 
L 266.426182 39.465196 
L 267.491455 39.303068 
L 267.643636 38.998104 
L 267.795818 39.075419 
L 268.632818 39.03032 
L 268.785 39.205636 
L 269.393727 39.152831 
L 269.622 39.318981 
L 272.437364 39.187417 
L 272.589545 39.260975 
L 272.665636 39.254478 
L 272.817818 39.349136 
L 272.97 38.788253 
L 274.187455 38.762674 
L 274.415727 38.916988 
L 275.024455 38.948645 
L 275.176636 39.024448 
L 275.861455 39.007445 
L 276.013636 39.019303 
L 276.165818 39.185837 
L 277.915909 39.068971 
L 278.068091 39.154312 
L 280.503 39.011398 
L 280.655182 38.71169 
L 282.785727 38.758086 
L 282.937909 38.890048 
L 283.242273 39.022519 
L 285.144545 39.028515 
L 285.296727 39.176206 
L 286.818545 39.071682 
L 286.970727 38.692048 
L 287.122909 38.778776 
L 287.275091 38.533806 
L 287.427273 38.61947 
L 288.416455 38.633986 
L 289.177364 38.676399 
L 289.481727 38.758775 
L 290.547 38.802786 
L 290.699182 38.483863 
L 293.514545 38.552791 
L 293.742818 38.624152 
L 294.655909 38.740772 
L 295.036364 38.747064 
L 295.645091 38.788857 
L 296.710364 38.83162 
L 296.862545 38.385439 
L 298.003909 38.432244 
L 298.232182 38.516594 
L 298.460455 38.618959 
L 303.634636 38.782532 
L 303.786818 38.426606 
L 305.993455 38.488095 
L 306.221727 38.536984 
L 308.732727 38.579599 
L 310.026273 38.67574 
L 310.330636 38.812882 
L 311.472 38.903028 
L 311.700273 38.991071 
L 312.993818 39.107574 
L 313.374273 39.133601 
L 314.896091 39.102547 
L 316.646182 39.238291 
L 317.863636 39.280094 
L 320.298545 39.375267 
L 320.526818 39.419099 
L 321.287727 39.498459 
L 321.592091 39.528652 
L 329.657727 39.421439 
L 335.745 39.482532 
L 335.973273 39.544023 
L 341.908364 39.479081 
L 342.060545 39.32948 
L 346.473818 39.343784 
L 346.702091 39.392413 
L 360.550636 39.351792 
L 361.007182 39.336767 
L 381.78 39.477043 
L 382.084364 39.436526 
L 384.975818 39.391207 
L 385.128 39.152035 
L 385.280182 39.146733 
L 385.432364 39.293753 
L 396.922091 39.397205 
L 397.150364 39.463097 
L 401.107091 39.576719 
L 402.400636 39.588036 
L 405.824727 39.56121 
L 406.053 39.620457 
L 420.510273 39.603509 
L 420.662455 39.500054 
L 424.619182 39.516598 
L 439.989545 39.504155 
L 440.446091 39.494532 
L 443.185364 39.469257 
L 446.457273 39.485558 
L 446.457273 39.485558 
" clip-path="url(#p576453f052)" style="fill: none; stroke: #ff7f0e; stroke-width: 2.5; stroke-linecap: square"/>
   </g>
   <g id="text_14">
    <!-- Variance Difference vs Time ($|\alpha=10\rangle$, $\gamma=1$) -->
    <g transform="translate(106.47 19.28) scale(0.16 -0.16)">
     <defs>
      <path id="STIXGeneral-Regular-44" d="M 102 4237 
L 1830 4237 
Q 3078 4237 3750 3654 
Q 4384 3110 4384 2138 
Q 4384 966 3514 410 
Q 2880 0 1901 0 
L 102 0 
L 102 122 
Q 474 147 570 252 
Q 666 358 666 736 
L 666 3520 
Q 666 3891 570 3990 
Q 474 4090 102 4115 
L 102 4237 
z
M 1318 3731 
L 1318 538 
Q 1318 365 1379 301 
Q 1440 237 1626 237 
Q 2125 237 2432 307 
Q 2739 378 3021 570 
Q 3686 1018 3686 2099 
Q 3686 3027 3078 3558 
Q 2803 3802 2476 3901 
Q 2150 4000 1658 4000 
Q 1472 4000 1395 3942 
Q 1318 3885 1318 3731 
z
" transform="scale(0.015625)"/>
      <path id="STIXGeneral-Regular-76" d="M 3053 2880 
L 3053 2784 
Q 2906 2771 2835 2688 
Q 2765 2605 2637 2285 
L 1818 230 
Q 1690 -90 1638 -90 
Q 1587 -90 1523 77 
Q 1510 96 1497 141 
Q 1485 186 1472 211 
L 704 2048 
Q 499 2534 403 2652 
Q 307 2771 122 2784 
L 122 2880 
L 1376 2880 
L 1376 2784 
Q 1210 2771 1146 2732 
Q 1082 2694 1082 2611 
Q 1082 2509 1139 2368 
L 1792 730 
L 2426 2387 
Q 2464 2483 2464 2579 
Q 2464 2758 2163 2784 
L 2163 2880 
L 3053 2880 
z
" transform="scale(0.015625)"/>
      <path id="STIXGeneral-Regular-73" d="M 998 1926 
L 1664 1523 
Q 1984 1331 2105 1164 
Q 2227 998 2227 736 
Q 2227 416 1961 176 
Q 1696 -64 1331 -64 
Q 1030 -64 864 -6 
Q 691 51 570 51 
Q 461 51 416 -26 
L 333 -26 
L 333 979 
L 435 979 
Q 538 512 730 294 
Q 922 77 1248 77 
Q 1485 77 1632 211 
Q 1779 346 1779 550 
Q 1779 845 1440 1030 
L 1094 1222 
Q 326 1651 326 2150 
Q 326 2522 566 2730 
Q 806 2938 1210 2938 
Q 1491 2938 1638 2867 
Q 1754 2816 1818 2816 
Q 1862 2816 1920 2880 
L 1990 2880 
L 2022 2010 
L 1926 2010 
Q 1818 2445 1654 2621 
Q 1491 2797 1203 2797 
Q 986 2797 854 2688 
Q 723 2579 723 2362 
Q 723 2253 796 2128 
Q 870 2003 998 1926 
z
" transform="scale(0.015625)"/>
      <path id="STIXGeneral-Regular-28" d="M 1946 -1030 
L 1869 -1133 
Q 1126 -710 716 32 
Q 307 774 307 1613 
Q 307 3386 1888 4326 
L 1946 4224 
Q 1293 3667 1075 3126 
Q 858 2586 858 1632 
Q 858 685 1082 96 
Q 1306 -493 1946 -1030 
z
" transform="scale(0.015625)"/>
      <path id="Cmsy10-6a" d="M 763 -1484 
L 763 4684 
Q 763 4734 800 4767 
Q 838 4800 891 4800 
Q 938 4800 978 4767 
Q 1019 4734 1019 4684 
L 1019 -1484 
Q 1019 -1534 978 -1567 
Q 938 -1600 891 -1600 
Q 838 -1600 800 -1567 
Q 763 -1534 763 -1484 
z
" transform="scale(0.015625)"/>
      <path id="Cmmi10-ae" d="M 1288 -72 
Q 984 -72 748 72 
Q 513 216 384 459 
Q 256 703 256 1013 
Q 256 1447 498 1872 
Q 741 2297 1142 2562 
Q 1544 2828 1984 2828 
Q 2309 2828 2556 2658 
Q 2803 2488 2931 2205 
Q 3059 1922 3059 1600 
L 3066 1172 
Q 3284 1475 3436 1801 
Q 3588 2128 3669 2478 
Q 3681 2516 3719 2516 
L 3794 2516 
Q 3853 2516 3853 2456 
Q 3853 2450 3847 2438 
Q 3772 2144 3659 1873 
Q 3547 1603 3395 1350 
Q 3244 1097 3066 891 
Q 3066 97 3250 97 
Q 3369 97 3445 167 
Q 3522 238 3580 341 
Q 3638 444 3653 447 
L 3731 447 
Q 3781 447 3781 384 
Q 3781 225 3598 76 
Q 3416 -72 3238 -72 
Q 3006 -72 2853 78 
Q 2700 228 2644 469 
Q 2344 213 1994 70 
Q 1644 -72 1288 -72 
z
M 1300 97 
Q 1984 97 2613 659 
Q 2609 697 2603 751 
Q 2597 806 2597 813 
L 2597 1503 
Q 2597 2663 1972 2663 
Q 1597 2663 1315 2342 
Q 1034 2022 892 1576 
Q 750 1131 750 763 
Q 750 484 892 290 
Q 1034 97 1300 97 
z
" transform="scale(0.015625)"/>
      <path id="Cmr10-3d" d="M 481 850 
Q 428 850 393 890 
Q 359 931 359 978 
Q 359 1031 393 1068 
Q 428 1106 481 1106 
L 4500 1106 
Q 4547 1106 4581 1068 
Q 4616 1031 4616 978 
Q 4616 931 4581 890 
Q 4547 850 4500 850 
L 481 850 
z
M 481 2094 
Q 428 2094 393 2131 
Q 359 2169 359 2222 
Q 359 2269 393 2309 
Q 428 2350 481 2350 
L 4500 2350 
Q 4547 2350 4581 2309 
Q 4616 2269 4616 2222 
Q 4616 2169 4581 2131 
Q 4547 2094 4500 2094 
L 481 2094 
z
" transform="scale(0.015625)"/>
      <path id="Cmr10-31" d="M 594 0 
L 594 225 
Q 1394 225 1394 428 
L 1394 3788 
Q 1063 3628 556 3628 
L 556 3853 
Q 1341 3853 1741 4263 
L 1831 4263 
Q 1853 4263 1873 4245 
Q 1894 4228 1894 4206 
L 1894 428 
Q 1894 225 2694 225 
L 2694 0 
L 594 0 
z
" transform="scale(0.015625)"/>
      <path id="Cmr10-30" d="M 1600 -141 
Q 816 -141 533 504 
Q 250 1150 250 2041 
Q 250 2597 351 3087 
Q 453 3578 754 3920 
Q 1056 4263 1600 4263 
Q 2022 4263 2290 4056 
Q 2559 3850 2700 3523 
Q 2841 3197 2892 2823 
Q 2944 2450 2944 2041 
Q 2944 1491 2842 1011 
Q 2741 531 2444 195 
Q 2147 -141 1600 -141 
z
M 1600 25 
Q 1956 25 2131 390 
Q 2306 756 2347 1200 
Q 2388 1644 2388 2144 
Q 2388 2625 2347 3031 
Q 2306 3438 2132 3767 
Q 1959 4097 1600 4097 
Q 1238 4097 1063 3765 
Q 888 3434 847 3029 
Q 806 2625 806 2144 
Q 806 1788 823 1472 
Q 841 1156 916 820 
Q 991 484 1158 254 
Q 1325 25 1600 25 
z
" transform="scale(0.015625)"/>
      <path id="Cmex10-ae" d="M 500 -7297 
Q 500 -7263 513 -7250 
L 2119 -3584 
L 513 84 
Q 500 97 500 128 
Q 500 175 537 215 
Q 575 256 628 256 
Q 703 256 750 178 
L 2381 -3541 
Q 2388 -3553 2388 -3584 
Q 2388 -3616 2381 -3634 
L 750 -7347 
Q 700 -7425 628 -7425 
Q 575 -7425 537 -7384 
Q 500 -7344 500 -7297 
z
" transform="scale(0.015625)"/>
      <path id="STIXGeneral-Regular-2c" d="M 531 -902 
L 467 -781 
Q 998 -422 998 -96 
Q 998 -13 909 -13 
Q 883 -13 822 -25 
Q 762 -38 723 -38 
Q 352 -38 352 288 
Q 352 454 457 553 
Q 563 653 736 653 
Q 954 653 1101 496 
Q 1248 339 1248 96 
Q 1248 -198 1053 -473 
Q 858 -749 531 -902 
z
" transform="scale(0.015625)"/>
      <path id="Cmmi10-b0" d="M 1888 -1253 
Q 1888 -1109 1952 -834 
Q 2016 -559 2108 -248 
Q 2200 63 2266 263 
Q 2291 581 2291 744 
Q 2291 1156 2209 1511 
Q 2128 1866 1903 2105 
Q 1678 2344 1275 2344 
Q 1063 2344 852 2253 
Q 641 2163 489 2000 
Q 338 1838 281 1631 
Q 269 1594 231 1594 
L 153 1594 
Q 103 1594 103 1650 
L 103 1672 
Q 175 1959 358 2226 
Q 541 2494 805 2661 
Q 1069 2828 1363 2828 
Q 1663 2828 1881 2625 
Q 2100 2422 2231 2109 
Q 2363 1797 2420 1478 
Q 2478 1159 2478 878 
Q 2800 1753 3200 2534 
L 3297 2741 
Q 3316 2759 3341 2759 
L 3419 2759 
Q 3469 2759 3469 2700 
Q 3469 2688 3456 2663 
L 3359 2463 
Q 3081 1909 2848 1340 
Q 2616 772 2450 244 
Q 2425 28 2354 -347 
Q 2284 -722 2184 -1045 
Q 2084 -1369 1984 -1381 
Q 1888 -1381 1888 -1253 
z
" transform="scale(0.015625)"/>
      <path id="STIXGeneral-Regular-29" d="M 186 4224 
L 262 4326 
Q 992 3891 1408 3148 
Q 1824 2406 1824 1581 
Q 1824 -166 243 -1133 
L 186 -1030 
Q 845 -486 1059 54 
Q 1274 595 1274 1562 
Q 1274 2534 1059 3120 
Q 845 3706 186 4224 
z
" transform="scale(0.015625)"/>
     </defs>
     <use xlink:href="#STIXGeneral-Regular-56" transform="translate(0 0.658854)"/>
     <use xlink:href="#STIXGeneral-Regular-61" transform="translate(72.199982 0.658854)"/>
     <use xlink:href="#STIXGeneral-Regular-72" transform="translate(116.599976 0.658854)"/>
     <use xlink:href="#STIXGeneral-Regular-69" transform="translate(149.899963 0.658854)"/>
     <use xlink:href="#STIXGeneral-Regular-61" transform="translate(177.699951 0.658854)"/>
     <use xlink:href="#STIXGeneral-Regular-6e" transform="translate(222.099945 0.658854)"/>
     <use xlink:href="#STIXGeneral-Regular-63" transform="translate(272.09993 0.658854)"/>
     <use xlink:href="#STIXGeneral-Regular-65" transform="translate(316.499924 0.658854)"/>
     <use xlink:href="#STIXGeneral-Regular-20" transform="translate(360.899918 0.658854)"/>
     <use xlink:href="#STIXGeneral-Regular-44" transform="translate(385.899902 0.658854)"/>
     <use xlink:href="#STIXGeneral-Regular-69" transform="translate(458.099884 0.658854)"/>
     <use xlink:href="#STIXGeneral-Regular-66" transform="translate(485.899872 0.658854)"/>
     <use xlink:href="#STIXGeneral-Regular-66" transform="translate(519.19986 0.658854)"/>
     <use xlink:href="#STIXGeneral-Regular-65" transform="translate(552.499847 0.658854)"/>
     <use xlink:href="#STIXGeneral-Regular-72" transform="translate(596.899841 0.658854)"/>
     <use xlink:href="#STIXGeneral-Regular-65" transform="translate(630.199829 0.658854)"/>
     <use xlink:href="#STIXGeneral-Regular-6e" transform="translate(674.599823 0.658854)"/>
     <use xlink:href="#STIXGeneral-Regular-63" transform="translate(724.599808 0.658854)"/>
     <use xlink:href="#STIXGeneral-Regular-65" transform="translate(768.999802 0.658854)"/>
     <use xlink:href="#STIXGeneral-Regular-20" transform="translate(813.399796 0.658854)"/>
     <use xlink:href="#STIXGeneral-Regular-76" transform="translate(838.39978 0.658854)"/>
     <use xlink:href="#STIXGeneral-Regular-73" transform="translate(888.399765 0.658854)"/>
     <use xlink:href="#STIXGeneral-Regular-20" transform="translate(927.299759 0.658854)"/>
     <use xlink:href="#STIXGeneral-Regular-54" transform="translate(952.299744 0.658854)"/>
     <use xlink:href="#STIXGeneral-Regular-69" transform="translate(1013.399734 0.658854)"/>
     <use xlink:href="#STIXGeneral-Regular-6d" transform="translate(1041.199722 0.658854)"/>
     <use xlink:href="#STIXGeneral-Regular-65" transform="translate(1118.99971 0.658854)"/>
     <use xlink:href="#STIXGeneral-Regular-20" transform="translate(1163.399704 0.658854)"/>
     <use xlink:href="#STIXGeneral-Regular-28" transform="translate(1188.399689 0.658854)"/>
     <use xlink:href="#Cmsy10-6a" transform="translate(1221.699677 0.658854)"/>
     <use xlink:href="#Cmmi10-ae" transform="translate(1249.385223 0.658854)"/>
     <use xlink:href="#Cmr10-3d" transform="translate(1330.859833 0.658854)"/>
     <use xlink:href="#Cmr10-31" transform="translate(1426.103973 0.658854)"/>
     <use xlink:href="#Cmr10-30" transform="translate(1476.103973 0.658854)"/>
     <use xlink:href="#Cmex10-ae" transform="translate(1526.103973 94)"/>
     <use xlink:href="#STIXGeneral-Regular-2c" transform="translate(1573.32077 0.658854)"/>
     <use xlink:href="#STIXGeneral-Regular-20" transform="translate(1598.320755 0.658854)"/>
     <use xlink:href="#Cmmi10-b0" transform="translate(1623.32074 0.658854)"/>
     <use xlink:href="#Cmr10-3d" transform="translate(1692.588318 0.658854)"/>
     <use xlink:href="#Cmr10-31" transform="translate(1787.832458 0.658854)"/>
     <use xlink:href="#STIXGeneral-Regular-29" transform="translate(1837.832458 0.658854)"/>
    </g>
   </g>
   <g id="line2d_121">
    <path d="M 66.002727 300.464 
L 68.970273 281.074782 
L 71.937818 263.133899 
L 74.905364 246.532467 
L 77.872909 231.170239 
L 80.840455 216.954478 
L 83.808 203.799398 
L 86.775545 191.625639 
L 89.743091 180.359167 
L 92.786727 169.676539 
L 95.830364 159.809823 
L 98.874 150.696496 
L 101.917636 142.278855 
L 104.961273 134.503625 
L 108.004909 127.321575 
L 111.124636 120.528071 
L 114.244364 114.264956 
L 117.364091 108.490652 
L 120.559909 103.042322 
L 123.755727 98.028835 
L 127.027636 93.310087 
L 130.299545 88.976227 
L 133.647545 84.906009 
L 137.071636 81.094024 
L 140.571818 77.533113 
L 144.148091 74.213301 
L 147.800455 71.125638 
L 151.528909 68.261239 
L 155.409545 65.559743 
L 159.442364 63.025611 
L 163.627364 60.660976 
L 167.964545 58.46587 
L 172.53 56.406018 
L 177.323727 54.488981 
L 182.421818 52.694006 
L 187.824273 51.032075 
L 193.531091 49.509818 
L 199.694455 48.097682 
L 206.390455 46.796026 
L 213.619091 45.619419 
L 221.608636 44.547652 
L 230.511273 43.583344 
L 240.479182 42.732194 
L 251.892818 41.986617 
L 265.208727 41.346983 
L 281.111727 40.813706 
L 300.819273 40.384401 
L 326.690182 40.055658 
L 363.137727 39.830444 
L 422.869091 39.694176 
L 446.457273 39.67092 
L 446.457273 39.67092 
" clip-path="url(#p576453f052)" style="fill: none; stroke: #1f77b4; stroke-width: 2.6; stroke-linecap: square"/>
   </g>
   <g id="legend_1">
    <g id="line2d_122">
     <path d="M 357.865625 266.245656 
L 368.865625 266.245656 
L 379.865625 266.245656 
" style="fill: none; stroke: #1f77b4; stroke-width: 2.6; stroke-linecap: square"/>
    </g>
    <g id="text_15">
     <!-- Density Matrix -->
     <g transform="translate(388.665625 270.095656) scale(0.11 -0.11)">
      <defs>
       <path id="STIXGeneral-Regular-79" d="M 3040 2880 
L 3040 2784 
Q 2925 2771 2854 2700 
Q 2784 2630 2720 2458 
L 1760 -160 
Q 1510 -838 1257 -1116 
Q 1005 -1395 640 -1395 
Q 435 -1395 313 -1289 
Q 192 -1184 192 -1024 
Q 192 -902 272 -816 
Q 352 -730 467 -730 
Q 653 -730 800 -813 
Q 883 -858 966 -858 
Q 1101 -858 1286 -576 
Q 1376 -448 1459 -211 
Q 1542 26 1542 115 
Q 1542 198 1274 762 
L 429 2566 
Q 346 2752 90 2790 
L 90 2880 
L 1402 2880 
L 1402 2784 
Q 1197 2778 1117 2739 
Q 1037 2701 1037 2611 
Q 1037 2541 1120 2349 
L 1837 749 
L 2458 2515 
Q 2483 2573 2483 2630 
Q 2483 2784 2189 2784 
L 2189 2880 
L 3040 2880 
z
" transform="scale(0.015625)"/>
       <path id="STIXGeneral-Regular-4d" d="M 5530 0 
L 3738 0 
L 3738 122 
Q 4115 147 4214 265 
Q 4314 384 4314 787 
L 4314 3661 
L 2682 0 
L 2592 0 
L 979 3514 
L 979 966 
Q 979 448 1088 294 
Q 1197 141 1574 122 
L 1574 0 
L 77 0 
L 77 122 
Q 358 141 480 205 
Q 602 269 650 432 
Q 698 595 698 966 
L 698 3514 
Q 698 3878 589 3984 
Q 480 4090 90 4115 
L 90 4237 
L 1357 4237 
L 2835 1024 
L 4250 4237 
L 5523 4237 
L 5523 4115 
Q 5178 4109 5072 3993 
Q 4966 3878 4966 3520 
L 4966 717 
Q 4966 378 5072 262 
Q 5178 147 5530 122 
L 5530 0 
z
" transform="scale(0.015625)"/>
      </defs>
      <use xlink:href="#STIXGeneral-Regular-44"/>
      <use xlink:href="#STIXGeneral-Regular-65" transform="translate(72.199982 0)"/>
      <use xlink:href="#STIXGeneral-Regular-6e" transform="translate(116.599976 0)"/>
      <use xlink:href="#STIXGeneral-Regular-73" transform="translate(166.59996 0)"/>
      <use xlink:href="#STIXGeneral-Regular-69" transform="translate(205.499954 0)"/>
      <use xlink:href="#STIXGeneral-Regular-74" transform="translate(233.299942 0)"/>
      <use xlink:href="#STIXGeneral-Regular-79" transform="translate(261.09993 0)"/>
      <use xlink:href="#STIXGeneral-Regular-20" transform="translate(311.099915 0)"/>
      <use xlink:href="#STIXGeneral-Regular-4d" transform="translate(336.099899 0)"/>
      <use xlink:href="#STIXGeneral-Regular-61" transform="translate(424.999893 0)"/>
      <use xlink:href="#STIXGeneral-Regular-74" transform="translate(469.399887 0)"/>
      <use xlink:href="#STIXGeneral-Regular-72" transform="translate(497.199875 0)"/>
      <use xlink:href="#STIXGeneral-Regular-69" transform="translate(530.499863 0)"/>
      <use xlink:href="#STIXGeneral-Regular-78" transform="translate(558.29985 0)"/>
     </g>
    </g>
    <g id="line2d_123">
     <path d="M 357.865625 281.843312 
L 368.865625 281.843312 
L 379.865625 281.843312 
" style="fill: none; stroke: #ff7f0e; stroke-width: 2.5; stroke-linecap: square"/>
    </g>
    <g id="text_16">
     <!-- Monte Carlo -->
     <g transform="translate(388.665625 285.693312) scale(0.11 -0.11)">
      <defs>
       <path id="STIXGeneral-Regular-43" d="M 3930 838 
L 4051 723 
Q 3482 -90 2304 -90 
Q 1376 -90 794 480 
Q 179 1082 179 2080 
Q 179 3014 755 3661 
Q 1357 4326 2310 4326 
Q 2720 4326 3072 4230 
Q 3475 4115 3514 4115 
Q 3725 4115 3782 4326 
L 3910 4326 
L 3968 2874 
L 3821 2874 
Q 3718 3334 3488 3584 
Q 3034 4070 2458 4070 
Q 1747 4070 1334 3548 
Q 922 3027 922 2182 
Q 922 1152 1382 653 
Q 1811 192 2522 192 
Q 2944 192 3251 339 
Q 3558 486 3930 838 
z
" transform="scale(0.015625)"/>
       <path id="STIXGeneral-Regular-6c" d="M 1645 0 
L 134 0 
L 134 96 
Q 435 122 531 221 
Q 627 320 627 589 
L 627 3590 
Q 627 3821 569 3910 
Q 512 4000 358 4000 
Q 224 4000 122 3987 
L 122 4090 
Q 730 4237 1133 4371 
L 1165 4346 
L 1165 557 
Q 1165 288 1254 201 
Q 1344 115 1645 96 
L 1645 0 
z
" transform="scale(0.015625)"/>
      </defs>
      <use xlink:href="#STIXGeneral-Regular-4d"/>
      <use xlink:href="#STIXGeneral-Regular-6f" transform="translate(88.899994 0)"/>
      <use xlink:href="#STIXGeneral-Regular-6e" transform="translate(138.899979 0)"/>
      <use xlink:href="#STIXGeneral-Regular-74" transform="translate(188.899963 0)"/>
      <use xlink:href="#STIXGeneral-Regular-65" transform="translate(216.699951 0)"/>
      <use xlink:href="#STIXGeneral-Regular-20" transform="translate(261.099945 0)"/>
      <use xlink:href="#STIXGeneral-Regular-43" transform="translate(286.09993 0)"/>
      <use xlink:href="#STIXGeneral-Regular-61" transform="translate(352.799927 0)"/>
      <use xlink:href="#STIXGeneral-Regular-72" transform="translate(397.199921 0)"/>
      <use xlink:href="#STIXGeneral-Regular-6c" transform="translate(430.499908 0)"/>
      <use xlink:href="#STIXGeneral-Regular-6f" transform="translate(458.299896 0)"/>
     </g>
    </g>
    <g id="line2d_124">
     <path d="M 357.865625 297.430656 
L 368.865625 297.430656 
L 379.865625 297.430656 
" style="fill: none; stroke: #2ca02c; stroke-width: 2.7; stroke-linecap: square"/>
    </g>
    <g id="text_17">
     <!-- Positive-P -->
     <g transform="translate(388.665625 301.280656) scale(0.11 -0.11)">
      <defs>
       <path id="STIXGeneral-Regular-50" d="M 102 4237 
L 1760 4237 
Q 2669 4237 3149 3834 
Q 3469 3565 3469 3072 
Q 3469 2560 3104 2234 
Q 2835 1990 2553 1916 
Q 2272 1843 1734 1843 
Q 1549 1843 1293 1862 
L 1293 717 
Q 1293 352 1398 246 
Q 1504 141 1894 122 
L 1894 0 
L 102 0 
L 102 122 
Q 474 147 557 256 
Q 640 365 640 781 
L 640 3526 
Q 640 3885 547 3987 
Q 454 4090 102 4115 
L 102 4237 
z
M 1293 3770 
L 1293 2118 
Q 1510 2099 1683 2099 
Q 2202 2099 2486 2352 
Q 2771 2605 2771 3040 
Q 2771 3558 2476 3779 
Q 2182 4000 1517 4000 
Q 1382 4000 1337 3952 
Q 1293 3904 1293 3770 
z
" transform="scale(0.015625)"/>
       <path id="STIXGeneral-Regular-2d" d="M 1824 1242 
L 250 1242 
L 250 1645 
L 1824 1645 
L 1824 1242 
z
" transform="scale(0.015625)"/>
      </defs>
      <use xlink:href="#STIXGeneral-Regular-50"/>
      <use xlink:href="#STIXGeneral-Regular-6f" transform="translate(55.699997 0)"/>
      <use xlink:href="#STIXGeneral-Regular-73" transform="translate(105.699982 0)"/>
      <use xlink:href="#STIXGeneral-Regular-69" transform="translate(144.599976 0)"/>
      <use xlink:href="#STIXGeneral-Regular-74" transform="translate(172.399963 0)"/>
      <use xlink:href="#STIXGeneral-Regular-69" transform="translate(200.199951 0)"/>
      <use xlink:href="#STIXGeneral-Regular-76" transform="translate(227.999939 0)"/>
      <use xlink:href="#STIXGeneral-Regular-65" transform="translate(277.999924 0)"/>
      <use xlink:href="#STIXGeneral-Regular-2d" transform="translate(322.399918 0)"/>
      <use xlink:href="#STIXGeneral-Regular-50" transform="translate(355.699905 0)"/>
     </g>
    </g>
   </g>
  </g>
 </g>
 <defs>
  <clipPath id="p576453f052">
   <rect x="46.98" y="25.28" width="418.5" height="288.288"/>
  </clipPath>
 </defs>
</svg>
