<?xml version="1.0" encoding="utf-8" standalone="no"?>
<!DOCTYPE svg PUBLIC "-//W3C//DTD SVG 1.1//EN"
  "http://www.w3.org/Graphics/SVG/1.1/DTD/svg11.dtd">
<svg xmlns:xlink="http://www.w3.org/1999/xlink" width="463.8pt" height="348.068pt" viewBox="0 0 463.8 348.068" xmlns="http://www.w3.org/2000/svg" version="1.1">
 <metadata>
  <rdf:RDF xmlns:dc="http://purl.org/dc/elements/1.1/" xmlns:cc="http://creativecommons.org/ns#" xmlns:rdf="http://www.w3.org/1999/02/22-rdf-syntax-ns#">
   <cc:Work>
    <dc:type rdf:resource="http://purl.org/dc/dcmitype/StillImage"/>
    <dc:date>2026-04-18T09:21:59.748717</dc:date>
    <dc:format>image/svg+xml</dc:format>
    <dc:creator>
     <cc:Agent>
      <dc:title>Matplotlib v3.10.8, https://matplotlib.org/</dc:title>
     </cc:Agent>
    </dc:creator>
   </cc:Work>
  </rdf:RDF>
 </metadata>
 <defs>
  <style type="text/css">*{stroke-linejoin: round; stroke-linecap: butt}</style>
 </defs>
 <g id="figure_1">
  <g id="patch_1">
   <path d="M 0 348.068 
L 463.8 348.068 
L 463.8 0 
L 0 0 
z
" style="fill: #ffffff"/>
  </g>
  <g id="axes_1">
   <g id="patch_2">
    <path d="M 41.7 313.568 
L 460.2 313.568 
L 460.2 25.28 
L 41.7 25.28 
z
" style="fill: #ffffff"/>
   </g>
   <g id="matplotlib.axis_1">
    <g id="xtick_1">
     <g id="line2d_1">
      <path d="M 60.722727 313.568 
L 60.722727 25.28 
" clip-path="url(#p86e9777733)" style="fill: none; stroke: #b0b0b0; stroke-opacity: 0.35; stroke-width: 0.5; stroke-linecap: square"/>
     </g>
     <g id="line2d_2">
      <defs>
       <path id="m939678384a" d="M 0 0 
L 0 -3 
" style="stroke: #000000; stroke-width: 0.5"/>
      </defs>
      <g>
       <use xlink:href="#m939678384a" x="60.722727" y="313.568" style="stroke: #000000; stroke-width: 0.5"/>
      </g>
     </g>
     <g id="line2d_3">
      <defs>
       <path id="m8212150706" d="M 0 0 
L 0 3 
" style="stroke: #000000; stroke-width: 0.5"/>
      </defs>
      <g>
       <use xlink:href="#m8212150706" x="60.722727" y="25.28" style="stroke: #000000; stroke-width: 0.5"/>
      </g>
     </g>
     <g id="text_1">
      <!-- $\mathdefault{0}$ -->
      <g transform="translate(57.722727 325.263625) scale(0.12 -0.12)">
       <defs>
        <path id="STIXGeneral-Regular-30" d="M 3046 2112 
Q 3046 1683 2963 1302 
Q 2880 922 2717 602 
Q 2554 282 2266 96 
Q 1978 -90 1600 -90 
Q 1210 -90 915 108 
Q 621 307 461 640 
Q 301 973 227 1350 
Q 154 1728 154 2150 
Q 154 2746 301 3222 
Q 448 3699 790 4012 
Q 1133 4326 1626 4326 
Q 2253 4326 2649 3712 
Q 3046 3098 3046 2112 
z
M 2432 2080 
Q 2432 3091 2217 3625 
Q 2003 4160 1587 4160 
Q 1190 4160 979 3622 
Q 768 3085 768 2106 
Q 768 1120 979 598 
Q 1190 77 1600 77 
Q 2003 77 2217 598 
Q 2432 1120 2432 2080 
z
" transform="scale(0.015625)"/>
       </defs>
       <use xlink:href="#STIXGeneral-Regular-30" transform="translate(0 0.40625)"/>
      </g>
     </g>
    </g>
    <g id="xtick_2">
     <g id="line2d_4">
      <path d="M 136.813636 313.568 
L 136.813636 25.28 
" clip-path="url(#p86e9777733)" style="fill: none; stroke: #b0b0b0; stroke-opacity: 0.35; stroke-width: 0.5; stroke-linecap: square"/>
     </g>
     <g id="line2d_5">
      <g>
       <use xlink:href="#m939678384a" x="136.813636" y="313.568" style="stroke: #000000; stroke-width: 0.5"/>
      </g>
     </g>
     <g id="line2d_6">
      <g>
       <use xlink:href="#m8212150706" x="136.813636" y="25.28" style="stroke: #000000; stroke-width: 0.5"/>
      </g>
     </g>
     <g id="text_2">
      <!-- $\mathdefault{1}$ -->
      <g transform="translate(133.813636 325.263625) scale(0.12 -0.12)">
       <defs>
        <path id="STIXGeneral-Regular-31" d="M 2522 0 
L 755 0 
L 755 96 
Q 1107 115 1235 227 
Q 1363 339 1363 608 
L 1363 3482 
Q 1363 3795 1171 3795 
Q 1082 3795 883 3718 
L 710 3654 
L 710 3744 
L 1856 4326 
L 1914 4307 
L 1914 486 
Q 1914 275 2042 185 
Q 2170 96 2522 96 
L 2522 0 
z
" transform="scale(0.015625)"/>
       </defs>
       <use xlink:href="#STIXGeneral-Regular-31" transform="translate(0 0.40625)"/>
      </g>
     </g>
    </g>
    <g id="xtick_3">
     <g id="line2d_7">
      <path d="M 212.904545 313.568 
L 212.904545 25.28 
" clip-path="url(#p86e9777733)" style="fill: none; stroke: #b0b0b0; stroke-opacity: 0.35; stroke-width: 0.5; stroke-linecap: square"/>
     </g>
     <g id="line2d_8">
      <g>
       <use xlink:href="#m939678384a" x="212.904545" y="313.568" style="stroke: #000000; stroke-width: 0.5"/>
      </g>
     </g>
     <g id="line2d_9">
      <g>
       <use xlink:href="#m8212150706" x="212.904545" y="25.28" style="stroke: #000000; stroke-width: 0.5"/>
      </g>
     </g>
     <g id="text_3">
      <!-- $\mathdefault{2}$ -->
      <g transform="translate(209.904545 325.263625) scale(0.12 -0.12)">
       <defs>
        <path id="STIXGeneral-Regular-32" d="M 3034 877 
L 2688 0 
L 186 0 
L 186 77 
L 1325 1286 
Q 1773 1754 1965 2144 
Q 2157 2534 2157 2950 
Q 2157 3379 1920 3616 
Q 1683 3853 1267 3853 
Q 922 3853 720 3673 
Q 518 3494 326 3021 
L 192 3053 
Q 301 3648 630 3987 
Q 960 4326 1523 4326 
Q 2054 4326 2380 4006 
Q 2707 3686 2707 3200 
Q 2707 2477 1888 1613 
L 832 486 
L 2330 486 
Q 2541 486 2665 569 
Q 2790 653 2944 915 
L 3034 877 
z
" transform="scale(0.015625)"/>
       </defs>
       <use xlink:href="#STIXGeneral-Regular-32" transform="translate(0 0.40625)"/>
      </g>
     </g>
    </g>
    <g id="xtick_4">
     <g id="line2d_10">
      <path d="M 288.995455 313.568 
L 288.995455 25.28 
" clip-path="url(#p86e9777733)" style="fill: none; stroke: #b0b0b0; stroke-opacity: 0.35; stroke-width: 0.5; stroke-linecap: square"/>
     </g>
     <g id="line2d_11">
      <g>
       <use xlink:href="#m939678384a" x="288.995455" y="313.568" style="stroke: #000000; stroke-width: 0.5"/>
      </g>
     </g>
     <g id="line2d_12">
      <g>
       <use xlink:href="#m8212150706" x="288.995455" y="25.28" style="stroke: #000000; stroke-width: 0.5"/>
      </g>
     </g>
     <g id="text_4">
      <!-- $\mathdefault{3}$ -->
      <g transform="translate(285.995455 325.263625) scale(0.12 -0.12)">
       <defs>
        <path id="STIXGeneral-Regular-33" d="M 390 3264 
L 288 3290 
Q 435 3770 748 4048 
Q 1062 4326 1542 4326 
Q 1990 4326 2265 4083 
Q 2541 3840 2541 3450 
Q 2541 2925 1946 2566 
Q 2298 2413 2477 2227 
Q 2758 1914 2758 1402 
Q 2758 890 2464 506 
Q 2246 211 1840 60 
Q 1434 -90 979 -90 
Q 262 -90 262 275 
Q 262 378 339 442 
Q 416 506 525 506 
Q 685 506 915 339 
Q 1197 141 1466 141 
Q 1818 141 2058 425 
Q 2298 710 2298 1120 
Q 2298 1856 1632 2048 
Q 1434 2112 979 2112 
L 979 2202 
Q 1338 2323 1517 2432 
Q 2035 2726 2035 3290 
Q 2035 3610 1852 3776 
Q 1670 3942 1344 3942 
Q 768 3942 390 3264 
z
" transform="scale(0.015625)"/>
       </defs>
       <use xlink:href="#STIXGeneral-Regular-33" transform="translate(0 0.40625)"/>
      </g>
     </g>
    </g>
    <g id="xtick_5">
     <g id="line2d_13">
      <path d="M 365.086364 313.568 
L 365.086364 25.28 
" clip-path="url(#p86e9777733)" style="fill: none; stroke: #b0b0b0; stroke-opacity: 0.35; stroke-width: 0.5; stroke-linecap: square"/>
     </g>
     <g id="line2d_14">
      <g>
       <use xlink:href="#m939678384a" x="365.086364" y="313.568" style="stroke: #000000; stroke-width: 0.5"/>
      </g>
     </g>
     <g id="line2d_15">
      <g>
       <use xlink:href="#m8212150706" x="365.086364" y="25.28" style="stroke: #000000; stroke-width: 0.5"/>
      </g>
     </g>
     <g id="text_5">
      <!-- $\mathdefault{4}$ -->
      <g transform="translate(362.086364 325.263625) scale(0.12 -0.12)">
       <defs>
        <path id="STIXGeneral-Regular-34" d="M 3027 1069 
L 2368 1069 
L 2368 0 
L 1869 0 
L 1869 1069 
L 77 1069 
L 77 1478 
L 2086 4326 
L 2368 4326 
L 2368 1478 
L 3027 1478 
L 3027 1069 
z
M 1869 1478 
L 1869 3674 
L 333 1478 
L 1869 1478 
z
" transform="scale(0.015625)"/>
       </defs>
       <use xlink:href="#STIXGeneral-Regular-34" transform="translate(0 0.40625)"/>
      </g>
     </g>
    </g>
    <g id="xtick_6">
     <g id="line2d_16">
      <path d="M 441.177273 313.568 
L 441.177273 25.28 
" clip-path="url(#p86e9777733)" style="fill: none; stroke: #b0b0b0; stroke-opacity: 0.35; stroke-width: 0.5; stroke-linecap: square"/>
     </g>
     <g id="line2d_17">
      <g>
       <use xlink:href="#m939678384a" x="441.177273" y="313.568" style="stroke: #000000; stroke-width: 0.5"/>
      </g>
     </g>
     <g id="line2d_18">
      <g>
       <use xlink:href="#m8212150706" x="441.177273" y="25.28" style="stroke: #000000; stroke-width: 0.5"/>
      </g>
     </g>
     <g id="text_6">
      <!-- $\mathdefault{5}$ -->
      <g transform="translate(438.177273 325.263625) scale(0.12 -0.12)">
       <defs>
        <path id="STIXGeneral-Regular-35" d="M 2803 4358 
L 2573 3814 
Q 2534 3731 2400 3731 
L 1158 3731 
L 902 3187 
Q 1606 3053 1920 2896 
Q 2234 2739 2502 2368 
Q 2726 2061 2726 1555 
Q 2726 1094 2576 780 
Q 2426 467 2099 224 
Q 1664 -90 1011 -90 
Q 646 -90 422 19 
Q 198 128 198 307 
Q 198 550 486 550 
Q 717 550 960 352 
Q 1210 147 1414 147 
Q 1747 147 2012 480 
Q 2278 813 2278 1229 
Q 2278 1843 1850 2189 
Q 1293 2637 486 2637 
Q 410 2637 410 2688 
L 416 2720 
L 1114 4237 
L 2438 4237 
Q 2547 4237 2608 4269 
Q 2669 4301 2746 4403 
L 2803 4358 
z
" transform="scale(0.015625)"/>
       </defs>
       <use xlink:href="#STIXGeneral-Regular-35" transform="translate(0 0.203125)"/>
      </g>
     </g>
    </g>
    <g id="xtick_7">
     <g id="line2d_19">
      <defs>
       <path id="m0f25e873e1" d="M 0 0 
L 0 -1.5 
" style="stroke: #000000; stroke-width: 0.5"/>
      </defs>
      <g>
       <use xlink:href="#m0f25e873e1" x="45.504545" y="313.568" style="stroke: #000000; stroke-width: 0.5"/>
      </g>
     </g>
     <g id="line2d_20">
      <defs>
       <path id="m2f0bb2637a" d="M 0 0 
L 0 1.5 
" style="stroke: #000000; stroke-width: 0.5"/>
      </defs>
      <g>
       <use xlink:href="#m2f0bb2637a" x="45.504545" y="25.28" style="stroke: #000000; stroke-width: 0.5"/>
      </g>
     </g>
    </g>
    <g id="xtick_8">
     <g id="line2d_21">
      <g>
       <use xlink:href="#m0f25e873e1" x="75.940909" y="313.568" style="stroke: #000000; stroke-width: 0.5"/>
      </g>
     </g>
     <g id="line2d_22">
      <g>
       <use xlink:href="#m2f0bb2637a" x="75.940909" y="25.28" style="stroke: #000000; stroke-width: 0.5"/>
      </g>
     </g>
    </g>
    <g id="xtick_9">
     <g id="line2d_23">
      <g>
       <use xlink:href="#m0f25e873e1" x="91.159091" y="313.568" style="stroke: #000000; stroke-width: 0.5"/>
      </g>
     </g>
     <g id="line2d_24">
      <g>
       <use xlink:href="#m2f0bb2637a" x="91.159091" y="25.28" style="stroke: #000000; stroke-width: 0.5"/>
      </g>
     </g>
    </g>
    <g id="xtick_10">
     <g id="line2d_25">
      <g>
       <use xlink:href="#m0f25e873e1" x="106.377273" y="313.568" style="stroke: #000000; stroke-width: 0.5"/>
      </g>
     </g>
     <g id="line2d_26">
      <g>
       <use xlink:href="#m2f0bb2637a" x="106.377273" y="25.28" style="stroke: #000000; stroke-width: 0.5"/>
      </g>
     </g>
    </g>
    <g id="xtick_11">
     <g id="line2d_27">
      <g>
       <use xlink:href="#m0f25e873e1" x="121.595455" y="313.568" style="stroke: #000000; stroke-width: 0.5"/>
      </g>
     </g>
     <g id="line2d_28">
      <g>
       <use xlink:href="#m2f0bb2637a" x="121.595455" y="25.28" style="stroke: #000000; stroke-width: 0.5"/>
      </g>
     </g>
    </g>
    <g id="xtick_12">
     <g id="line2d_29">
      <g>
       <use xlink:href="#m0f25e873e1" x="152.031818" y="313.568" style="stroke: #000000; stroke-width: 0.5"/>
      </g>
     </g>
     <g id="line2d_30">
      <g>
       <use xlink:href="#m2f0bb2637a" x="152.031818" y="25.28" style="stroke: #000000; stroke-width: 0.5"/>
      </g>
     </g>
    </g>
    <g id="xtick_13">
     <g id="line2d_31">
      <g>
       <use xlink:href="#m0f25e873e1" x="167.25" y="313.568" style="stroke: #000000; stroke-width: 0.5"/>
      </g>
     </g>
     <g id="line2d_32">
      <g>
       <use xlink:href="#m2f0bb2637a" x="167.25" y="25.28" style="stroke: #000000; stroke-width: 0.5"/>
      </g>
     </g>
    </g>
    <g id="xtick_14">
     <g id="line2d_33">
      <g>
       <use xlink:href="#m0f25e873e1" x="182.468182" y="313.568" style="stroke: #000000; stroke-width: 0.5"/>
      </g>
     </g>
     <g id="line2d_34">
      <g>
       <use xlink:href="#m2f0bb2637a" x="182.468182" y="25.28" style="stroke: #000000; stroke-width: 0.5"/>
      </g>
     </g>
    </g>
    <g id="xtick_15">
     <g id="line2d_35">
      <g>
       <use xlink:href="#m0f25e873e1" x="197.686364" y="313.568" style="stroke: #000000; stroke-width: 0.5"/>
      </g>
     </g>
     <g id="line2d_36">
      <g>
       <use xlink:href="#m2f0bb2637a" x="197.686364" y="25.28" style="stroke: #000000; stroke-width: 0.5"/>
      </g>
     </g>
    </g>
    <g id="xtick_16">
     <g id="line2d_37">
      <g>
       <use xlink:href="#m0f25e873e1" x="228.122727" y="313.568" style="stroke: #000000; stroke-width: 0.5"/>
      </g>
     </g>
     <g id="line2d_38">
      <g>
       <use xlink:href="#m2f0bb2637a" x="228.122727" y="25.28" style="stroke: #000000; stroke-width: 0.5"/>
      </g>
     </g>
    </g>
    <g id="xtick_17">
     <g id="line2d_39">
      <g>
       <use xlink:href="#m0f25e873e1" x="243.340909" y="313.568" style="stroke: #000000; stroke-width: 0.5"/>
      </g>
     </g>
     <g id="line2d_40">
      <g>
       <use xlink:href="#m2f0bb2637a" x="243.340909" y="25.28" style="stroke: #000000; stroke-width: 0.5"/>
      </g>
     </g>
    </g>
    <g id="xtick_18">
     <g id="line2d_41">
      <g>
       <use xlink:href="#m0f25e873e1" x="258.559091" y="313.568" style="stroke: #000000; stroke-width: 0.5"/>
      </g>
     </g>
     <g id="line2d_42">
      <g>
       <use xlink:href="#m2f0bb2637a" x="258.559091" y="25.28" style="stroke: #000000; stroke-width: 0.5"/>
      </g>
     </g>
    </g>
    <g id="xtick_19">
     <g id="line2d_43">
      <g>
       <use xlink:href="#m0f25e873e1" x="273.777273" y="313.568" style="stroke: #000000; stroke-width: 0.5"/>
      </g>
     </g>
     <g id="line2d_44">
      <g>
       <use xlink:href="#m2f0bb2637a" x="273.777273" y="25.28" style="stroke: #000000; stroke-width: 0.5"/>
      </g>
     </g>
    </g>
    <g id="xtick_20">
     <g id="line2d_45">
      <g>
       <use xlink:href="#m0f25e873e1" x="304.213636" y="313.568" style="stroke: #000000; stroke-width: 0.5"/>
      </g>
     </g>
     <g id="line2d_46">
      <g>
       <use xlink:href="#m2f0bb2637a" x="304.213636" y="25.28" style="stroke: #000000; stroke-width: 0.5"/>
      </g>
     </g>
    </g>
    <g id="xtick_21">
     <g id="line2d_47">
      <g>
       <use xlink:href="#m0f25e873e1" x="319.431818" y="313.568" style="stroke: #000000; stroke-width: 0.5"/>
      </g>
     </g>
     <g id="line2d_48">
      <g>
       <use xlink:href="#m2f0bb2637a" x="319.431818" y="25.28" style="stroke: #000000; stroke-width: 0.5"/>
      </g>
     </g>
    </g>
    <g id="xtick_22">
     <g id="line2d_49">
      <g>
       <use xlink:href="#m0f25e873e1" x="334.65" y="313.568" style="stroke: #000000; stroke-width: 0.5"/>
      </g>
     </g>
     <g id="line2d_50">
      <g>
       <use xlink:href="#m2f0bb2637a" x="334.65" y="25.28" style="stroke: #000000; stroke-width: 0.5"/>
      </g>
     </g>
    </g>
    <g id="xtick_23">
     <g id="line2d_51">
      <g>
       <use xlink:href="#m0f25e873e1" x="349.868182" y="313.568" style="stroke: #000000; stroke-width: 0.5"/>
      </g>
     </g>
     <g id="line2d_52">
      <g>
       <use xlink:href="#m2f0bb2637a" x="349.868182" y="25.28" style="stroke: #000000; stroke-width: 0.5"/>
      </g>
     </g>
    </g>
    <g id="xtick_24">
     <g id="line2d_53">
      <g>
       <use xlink:href="#m0f25e873e1" x="380.304545" y="313.568" style="stroke: #000000; stroke-width: 0.5"/>
      </g>
     </g>
     <g id="line2d_54">
      <g>
       <use xlink:href="#m2f0bb2637a" x="380.304545" y="25.28" style="stroke: #000000; stroke-width: 0.5"/>
      </g>
     </g>
    </g>
    <g id="xtick_25">
     <g id="line2d_55">
      <g>
       <use xlink:href="#m0f25e873e1" x="395.522727" y="313.568" style="stroke: #000000; stroke-width: 0.5"/>
      </g>
     </g>
     <g id="line2d_56">
      <g>
       <use xlink:href="#m2f0bb2637a" x="395.522727" y="25.28" style="stroke: #000000; stroke-width: 0.5"/>
      </g>
     </g>
    </g>
    <g id="xtick_26">
     <g id="line2d_57">
      <g>
       <use xlink:href="#m0f25e873e1" x="410.740909" y="313.568" style="stroke: #000000; stroke-width: 0.5"/>
      </g>
     </g>
     <g id="line2d_58">
      <g>
       <use xlink:href="#m2f0bb2637a" x="410.740909" y="25.28" style="stroke: #000000; stroke-width: 0.5"/>
      </g>
     </g>
    </g>
    <g id="xtick_27">
     <g id="line2d_59">
      <g>
       <use xlink:href="#m0f25e873e1" x="425.959091" y="313.568" style="stroke: #000000; stroke-width: 0.5"/>
      </g>
     </g>
     <g id="line2d_60">
      <g>
       <use xlink:href="#m2f0bb2637a" x="425.959091" y="25.28" style="stroke: #000000; stroke-width: 0.5"/>
      </g>
     </g>
    </g>
    <g id="xtick_28">
     <g id="line2d_61">
      <g>
       <use xlink:href="#m0f25e873e1" x="456.395455" y="313.568" style="stroke: #000000; stroke-width: 0.5"/>
      </g>
     </g>
     <g id="line2d_62">
      <g>
       <use xlink:href="#m2f0bb2637a" x="456.395455" y="25.28" style="stroke: #000000; stroke-width: 0.5"/>
      </g>
     </g>
    </g>
    <g id="text_7">
     <!-- Time -->
     <g transform="translate(236.173437 341.429562) scale(0.14 -0.14)">
      <defs>
       <path id="STIXGeneral-Regular-54" d="M 3795 3149 
L 3642 3149 
Q 3539 3674 3353 3821 
Q 3168 3968 2656 3968 
L 2278 3968 
L 2278 710 
Q 2278 346 2387 243 
Q 2496 141 2893 122 
L 2893 0 
L 1024 0 
L 1024 122 
Q 1427 147 1526 256 
Q 1626 365 1626 787 
L 1626 3968 
L 1242 3968 
Q 723 3968 540 3817 
Q 358 3667 262 3149 
L 109 3149 
L 154 4237 
L 3750 4237 
L 3795 3149 
z
" transform="scale(0.015625)"/>
       <path id="STIXGeneral-Regular-69" d="M 1152 4045 
Q 1152 3904 1056 3811 
Q 960 3718 819 3718 
Q 685 3718 592 3811 
Q 499 3904 499 4045 
Q 499 4179 595 4275 
Q 691 4371 826 4371 
Q 966 4371 1059 4275 
Q 1152 4179 1152 4045 
z
M 1619 0 
L 102 0 
L 102 96 
Q 435 115 521 211 
Q 608 307 608 666 
L 608 2118 
Q 608 2342 563 2432 
Q 518 2522 397 2522 
Q 243 2522 128 2490 
L 128 2592 
L 1120 2944 
L 1146 2918 
L 1146 672 
Q 1146 314 1226 218 
Q 1306 122 1619 96 
L 1619 0 
z
" transform="scale(0.015625)"/>
       <path id="STIXGeneral-Regular-6d" d="M 4960 0 
L 3565 0 
L 3565 96 
Q 3834 122 3907 208 
Q 3981 294 3981 576 
L 3981 1894 
Q 3981 2278 3869 2444 
Q 3757 2611 3488 2611 
Q 3264 2611 3107 2521 
Q 2950 2432 2803 2221 
L 2803 608 
Q 2803 301 2896 201 
Q 2989 102 3264 96 
L 3264 0 
L 1830 0 
L 1830 96 
Q 2112 115 2189 188 
Q 2266 262 2266 550 
L 2266 1901 
Q 2266 2611 1850 2611 
Q 1670 2611 1468 2531 
Q 1267 2451 1171 2336 
Q 1088 2240 1088 2227 
L 1088 448 
Q 1088 243 1177 176 
Q 1267 109 1523 96 
L 1523 0 
L 102 0 
L 102 96 
Q 371 102 460 195 
Q 550 288 550 563 
L 550 2150 
Q 550 2387 499 2480 
Q 448 2573 326 2573 
Q 230 2573 122 2547 
L 122 2656 
Q 557 2778 1011 2944 
L 1062 2925 
L 1062 2451 
L 1075 2451 
Q 1363 2752 1584 2848 
Q 1805 2944 2054 2944 
Q 2560 2944 2733 2406 
Q 3232 2944 3776 2944 
Q 4518 2944 4518 1792 
L 4518 493 
Q 4518 282 4582 202 
Q 4646 122 4794 109 
L 4960 96 
L 4960 0 
z
" transform="scale(0.015625)"/>
       <path id="STIXGeneral-Regular-65" d="M 2611 1050 
L 2714 1005 
Q 2330 -64 1376 -64 
Q 813 -64 486 329 
Q 160 723 160 1389 
Q 160 2074 525 2509 
Q 890 2944 1485 2944 
Q 2061 2944 2374 2502 
Q 2560 2246 2592 1773 
L 621 1773 
Q 646 1370 700 1158 
Q 755 947 915 730 
Q 1184 378 1626 378 
Q 1939 378 2153 531 
Q 2368 685 2611 1050 
z
M 634 1978 
L 1939 1978 
Q 1882 2381 1750 2547 
Q 1619 2714 1312 2714 
Q 1043 2714 864 2525 
Q 685 2336 634 1978 
z
" transform="scale(0.015625)"/>
      </defs>
      <use xlink:href="#STIXGeneral-Regular-54"/>
      <use xlink:href="#STIXGeneral-Regular-69" transform="translate(61.099991 0)"/>
      <use xlink:href="#STIXGeneral-Regular-6d" transform="translate(88.899979 0)"/>
      <use xlink:href="#STIXGeneral-Regular-65" transform="translate(166.699966 0)"/>
     </g>
    </g>
   </g>
   <g id="matplotlib.axis_2">
    <g id="ytick_1">
     <g id="line2d_63">
      <path d="M 41.7 302.145782 
L 460.2 302.145782 
" clip-path="url(#p86e9777733)" style="fill: none; stroke: #b0b0b0; stroke-opacity: 0.35; stroke-width: 0.5; stroke-linecap: square"/>
     </g>
     <g id="line2d_64">
      <defs>
       <path id="m12a240a98a" d="M 0 0 
L 3 0 
" style="stroke: #000000; stroke-width: 0.5"/>
      </defs>
      <g>
       <use xlink:href="#m12a240a98a" x="41.7" y="302.145782" style="stroke: #000000; stroke-width: 0.5"/>
      </g>
     </g>
     <g id="line2d_65">
      <defs>
       <path id="m3870628607" d="M 0 0 
L -3 0 
" style="stroke: #000000; stroke-width: 0.5"/>
      </defs>
      <g>
       <use xlink:href="#m3870628607" x="460.2" y="302.145782" style="stroke: #000000; stroke-width: 0.5"/>
      </g>
     </g>
     <g id="text_8">
      <!-- $\mathdefault{0}$ -->
      <g transform="translate(32.2 306.243595) scale(0.12 -0.12)">
       <use xlink:href="#STIXGeneral-Regular-30" transform="translate(0 0.40625)"/>
      </g>
     </g>
    </g>
    <g id="ytick_2">
     <g id="line2d_66">
      <path d="M 41.7 249.425339 
L 460.2 249.425339 
" clip-path="url(#p86e9777733)" style="fill: none; stroke: #b0b0b0; stroke-opacity: 0.35; stroke-width: 0.5; stroke-linecap: square"/>
     </g>
     <g id="line2d_67">
      <g>
       <use xlink:href="#m12a240a98a" x="41.7" y="249.425339" style="stroke: #000000; stroke-width: 0.5"/>
      </g>
     </g>
     <g id="line2d_68">
      <g>
       <use xlink:href="#m3870628607" x="460.2" y="249.425339" style="stroke: #000000; stroke-width: 0.5"/>
      </g>
     </g>
     <g id="text_9">
      <!-- $\mathdefault{20}$ -->
      <g transform="translate(26.2 253.523151) scale(0.12 -0.12)">
       <use xlink:href="#STIXGeneral-Regular-32" transform="translate(0 0.40625)"/>
       <use xlink:href="#STIXGeneral-Regular-30" transform="translate(49.999985 0.40625)"/>
      </g>
     </g>
    </g>
    <g id="ytick_3">
     <g id="line2d_69">
      <path d="M 41.7 196.704896 
L 460.2 196.704896 
" clip-path="url(#p86e9777733)" style="fill: none; stroke: #b0b0b0; stroke-opacity: 0.35; stroke-width: 0.5; stroke-linecap: square"/>
     </g>
     <g id="line2d_70">
      <g>
       <use xlink:href="#m12a240a98a" x="41.7" y="196.704896" style="stroke: #000000; stroke-width: 0.5"/>
      </g>
     </g>
     <g id="line2d_71">
      <g>
       <use xlink:href="#m3870628607" x="460.2" y="196.704896" style="stroke: #000000; stroke-width: 0.5"/>
      </g>
     </g>
     <g id="text_10">
      <!-- $\mathdefault{40}$ -->
      <g transform="translate(26.2 200.802708) scale(0.12 -0.12)">
       <use xlink:href="#STIXGeneral-Regular-34" transform="translate(0 0.40625)"/>
       <use xlink:href="#STIXGeneral-Regular-30" transform="translate(49.999985 0.40625)"/>
      </g>
     </g>
    </g>
    <g id="ytick_4">
     <g id="line2d_72">
      <path d="M 41.7 143.984452 
L 460.2 143.984452 
" clip-path="url(#p86e9777733)" style="fill: none; stroke: #b0b0b0; stroke-opacity: 0.35; stroke-width: 0.5; stroke-linecap: square"/>
     </g>
     <g id="line2d_73">
      <g>
       <use xlink:href="#m12a240a98a" x="41.7" y="143.984452" style="stroke: #000000; stroke-width: 0.5"/>
      </g>
     </g>
     <g id="line2d_74">
      <g>
       <use xlink:href="#m3870628607" x="460.2" y="143.984452" style="stroke: #000000; stroke-width: 0.5"/>
      </g>
     </g>
     <g id="text_11">
      <!-- $\mathdefault{60}$ -->
      <g transform="translate(26.2 148.082265) scale(0.12 -0.12)">
       <defs>
        <path id="STIXGeneral-Regular-36" d="M 2854 4378 
L 2867 4275 
Q 2112 4154 1606 3664 
Q 1101 3174 973 2451 
Q 1344 2739 1786 2739 
Q 2349 2739 2672 2380 
Q 2995 2022 2995 1402 
Q 2995 774 2669 378 
Q 2291 -90 1651 -90 
Q 870 -90 518 557 
Q 218 1107 218 1786 
Q 218 2835 915 3552 
Q 1312 3962 1731 4131 
Q 2150 4301 2854 4378 
z
M 2419 1203 
Q 2419 2445 1555 2445 
Q 1235 2445 1024 2275 
Q 813 2106 813 1702 
Q 813 954 1046 522 
Q 1280 90 1722 90 
Q 2061 90 2240 394 
Q 2419 698 2419 1203 
z
" transform="scale(0.015625)"/>
       </defs>
       <use xlink:href="#STIXGeneral-Regular-36" transform="translate(0 0.59375)"/>
       <use xlink:href="#STIXGeneral-Regular-30" transform="translate(49.999985 0.59375)"/>
      </g>
     </g>
    </g>
    <g id="ytick_5">
     <g id="line2d_75">
      <path d="M 41.7 91.264009 
L 460.2 91.264009 
" clip-path="url(#p86e9777733)" style="fill: none; stroke: #b0b0b0; stroke-opacity: 0.35; stroke-width: 0.5; stroke-linecap: square"/>
     </g>
     <g id="line2d_76">
      <g>
       <use xlink:href="#m12a240a98a" x="41.7" y="91.264009" style="stroke: #000000; stroke-width: 0.5"/>
      </g>
     </g>
     <g id="line2d_77">
      <g>
       <use xlink:href="#m3870628607" x="460.2" y="91.264009" style="stroke: #000000; stroke-width: 0.5"/>
      </g>
     </g>
     <g id="text_12">
      <!-- $\mathdefault{80}$ -->
      <g transform="translate(26.2 95.361822) scale(0.12 -0.12)">
       <defs>
        <path id="STIXGeneral-Regular-38" d="M 2848 992 
Q 2848 499 2505 204 
Q 2163 -90 1587 -90 
Q 1050 -90 704 204 
Q 358 499 358 954 
Q 358 1293 524 1533 
Q 691 1773 1190 2125 
Q 710 2522 553 2765 
Q 397 3008 397 3328 
Q 397 3782 745 4054 
Q 1094 4326 1638 4326 
Q 2106 4326 2410 4060 
Q 2714 3795 2714 3411 
Q 2714 3059 2531 2848 
Q 2349 2637 1856 2374 
Q 2432 1990 2640 1689 
Q 2848 1389 2848 992 
z
M 2272 3411 
Q 2272 3744 2086 3945 
Q 1901 4147 1574 4147 
Q 1248 4147 1059 3977 
Q 870 3808 870 3513 
Q 870 3219 1059 2979 
Q 1248 2739 1670 2490 
Q 1997 2682 2134 2896 
Q 2272 3110 2272 3411 
z
M 1734 1741 
L 1357 1997 
Q 1075 1766 960 1545 
Q 845 1325 845 1011 
Q 845 576 1065 333 
Q 1286 90 1658 90 
Q 1971 90 2166 285 
Q 2362 480 2362 794 
Q 2362 1082 2214 1299 
Q 2067 1517 1734 1741 
z
" transform="scale(0.015625)"/>
       </defs>
       <use xlink:href="#STIXGeneral-Regular-38" transform="translate(0 0.40625)"/>
       <use xlink:href="#STIXGeneral-Regular-30" transform="translate(49.999985 0.40625)"/>
      </g>
     </g>
    </g>
    <g id="ytick_6">
     <g id="line2d_78">
      <path d="M 41.7 38.543566 
L 460.2 38.543566 
" clip-path="url(#p86e9777733)" style="fill: none; stroke: #b0b0b0; stroke-opacity: 0.35; stroke-width: 0.5; stroke-linecap: square"/>
     </g>
     <g id="line2d_79">
      <g>
       <use xlink:href="#m12a240a98a" x="41.7" y="38.543566" style="stroke: #000000; stroke-width: 0.5"/>
      </g>
     </g>
     <g id="line2d_80">
      <g>
       <use xlink:href="#m3870628607" x="460.2" y="38.543566" style="stroke: #000000; stroke-width: 0.5"/>
      </g>
     </g>
     <g id="text_13">
      <!-- $\mathdefault{100}$ -->
      <g transform="translate(20.2 42.641378) scale(0.12 -0.12)">
       <use xlink:href="#STIXGeneral-Regular-31" transform="translate(0 0.40625)"/>
       <use xlink:href="#STIXGeneral-Regular-30" transform="translate(49.999985 0.40625)"/>
       <use xlink:href="#STIXGeneral-Regular-30" transform="translate(99.999969 0.40625)"/>
      </g>
     </g>
    </g>
    <g id="ytick_7">
     <g id="line2d_81">
      <defs>
       <path id="m8d4872f3f0" d="M 0 0 
L 1.5 0 
" style="stroke: #000000; stroke-width: 0.5"/>
      </defs>
      <g>
       <use xlink:href="#m8d4872f3f0" x="41.7" y="288.965671" style="stroke: #000000; stroke-width: 0.5"/>
      </g>
     </g>
     <g id="line2d_82">
      <defs>
       <path id="m848c37a76a" d="M 0 0 
L -1.5 0 
" style="stroke: #000000; stroke-width: 0.5"/>
      </defs>
      <g>
       <use xlink:href="#m848c37a76a" x="460.2" y="288.965671" style="stroke: #000000; stroke-width: 0.5"/>
      </g>
     </g>
    </g>
    <g id="ytick_8">
     <g id="line2d_83">
      <g>
       <use xlink:href="#m8d4872f3f0" x="41.7" y="275.785561" style="stroke: #000000; stroke-width: 0.5"/>
      </g>
     </g>
     <g id="line2d_84">
      <g>
       <use xlink:href="#m848c37a76a" x="460.2" y="275.785561" style="stroke: #000000; stroke-width: 0.5"/>
      </g>
     </g>
    </g>
    <g id="ytick_9">
     <g id="line2d_85">
      <g>
       <use xlink:href="#m8d4872f3f0" x="41.7" y="262.60545" style="stroke: #000000; stroke-width: 0.5"/>
      </g>
     </g>
     <g id="line2d_86">
      <g>
       <use xlink:href="#m848c37a76a" x="460.2" y="262.60545" style="stroke: #000000; stroke-width: 0.5"/>
      </g>
     </g>
    </g>
    <g id="ytick_10">
     <g id="line2d_87">
      <g>
       <use xlink:href="#m8d4872f3f0" x="41.7" y="236.245228" style="stroke: #000000; stroke-width: 0.5"/>
      </g>
     </g>
     <g id="line2d_88">
      <g>
       <use xlink:href="#m848c37a76a" x="460.2" y="236.245228" style="stroke: #000000; stroke-width: 0.5"/>
      </g>
     </g>
    </g>
    <g id="ytick_11">
     <g id="line2d_89">
      <g>
       <use xlink:href="#m8d4872f3f0" x="41.7" y="223.065117" style="stroke: #000000; stroke-width: 0.5"/>
      </g>
     </g>
     <g id="line2d_90">
      <g>
       <use xlink:href="#m848c37a76a" x="460.2" y="223.065117" style="stroke: #000000; stroke-width: 0.5"/>
      </g>
     </g>
    </g>
    <g id="ytick_12">
     <g id="line2d_91">
      <g>
       <use xlink:href="#m8d4872f3f0" x="41.7" y="209.885006" style="stroke: #000000; stroke-width: 0.5"/>
      </g>
     </g>
     <g id="line2d_92">
      <g>
       <use xlink:href="#m848c37a76a" x="460.2" y="209.885006" style="stroke: #000000; stroke-width: 0.5"/>
      </g>
     </g>
    </g>
    <g id="ytick_13">
     <g id="line2d_93">
      <g>
       <use xlink:href="#m8d4872f3f0" x="41.7" y="183.524785" style="stroke: #000000; stroke-width: 0.5"/>
      </g>
     </g>
     <g id="line2d_94">
      <g>
       <use xlink:href="#m848c37a76a" x="460.2" y="183.524785" style="stroke: #000000; stroke-width: 0.5"/>
      </g>
     </g>
    </g>
    <g id="ytick_14">
     <g id="line2d_95">
      <g>
       <use xlink:href="#m8d4872f3f0" x="41.7" y="170.344674" style="stroke: #000000; stroke-width: 0.5"/>
      </g>
     </g>
     <g id="line2d_96">
      <g>
       <use xlink:href="#m848c37a76a" x="460.2" y="170.344674" style="stroke: #000000; stroke-width: 0.5"/>
      </g>
     </g>
    </g>
    <g id="ytick_15">
     <g id="line2d_97">
      <g>
       <use xlink:href="#m8d4872f3f0" x="41.7" y="157.164563" style="stroke: #000000; stroke-width: 0.5"/>
      </g>
     </g>
     <g id="line2d_98">
      <g>
       <use xlink:href="#m848c37a76a" x="460.2" y="157.164563" style="stroke: #000000; stroke-width: 0.5"/>
      </g>
     </g>
    </g>
    <g id="ytick_16">
     <g id="line2d_99">
      <g>
       <use xlink:href="#m8d4872f3f0" x="41.7" y="130.804342" style="stroke: #000000; stroke-width: 0.5"/>
      </g>
     </g>
     <g id="line2d_100">
      <g>
       <use xlink:href="#m848c37a76a" x="460.2" y="130.804342" style="stroke: #000000; stroke-width: 0.5"/>
      </g>
     </g>
    </g>
    <g id="ytick_17">
     <g id="line2d_101">
      <g>
       <use xlink:href="#m8d4872f3f0" x="41.7" y="117.624231" style="stroke: #000000; stroke-width: 0.5"/>
      </g>
     </g>
     <g id="line2d_102">
      <g>
       <use xlink:href="#m848c37a76a" x="460.2" y="117.624231" style="stroke: #000000; stroke-width: 0.5"/>
      </g>
     </g>
    </g>
    <g id="ytick_18">
     <g id="line2d_103">
      <g>
       <use xlink:href="#m8d4872f3f0" x="41.7" y="104.44412" style="stroke: #000000; stroke-width: 0.5"/>
      </g>
     </g>
     <g id="line2d_104">
      <g>
       <use xlink:href="#m848c37a76a" x="460.2" y="104.44412" style="stroke: #000000; stroke-width: 0.5"/>
      </g>
     </g>
    </g>
    <g id="ytick_19">
     <g id="line2d_105">
      <g>
       <use xlink:href="#m8d4872f3f0" x="41.7" y="78.083898" style="stroke: #000000; stroke-width: 0.5"/>
      </g>
     </g>
     <g id="line2d_106">
      <g>
       <use xlink:href="#m848c37a76a" x="460.2" y="78.083898" style="stroke: #000000; stroke-width: 0.5"/>
      </g>
     </g>
    </g>
    <g id="ytick_20">
     <g id="line2d_107">
      <g>
       <use xlink:href="#m8d4872f3f0" x="41.7" y="64.903788" style="stroke: #000000; stroke-width: 0.5"/>
      </g>
     </g>
     <g id="line2d_108">
      <g>
       <use xlink:href="#m848c37a76a" x="460.2" y="64.903788" style="stroke: #000000; stroke-width: 0.5"/>
      </g>
     </g>
    </g>
    <g id="ytick_21">
     <g id="line2d_109">
      <g>
       <use xlink:href="#m8d4872f3f0" x="41.7" y="51.723677" style="stroke: #000000; stroke-width: 0.5"/>
      </g>
     </g>
     <g id="line2d_110">
      <g>
       <use xlink:href="#m848c37a76a" x="460.2" y="51.723677" style="stroke: #000000; stroke-width: 0.5"/>
      </g>
     </g>
    </g>
    <g id="ytick_22">
     <g id="line2d_111">
      <g>
       <use xlink:href="#m8d4872f3f0" x="41.7" y="25.363455" style="stroke: #000000; stroke-width: 0.5"/>
      </g>
     </g>
     <g id="line2d_112">
      <g>
       <use xlink:href="#m848c37a76a" x="460.2" y="25.363455" style="stroke: #000000; stroke-width: 0.5"/>
      </g>
     </g>
    </g>
    <g id="text_14">
     <!-- Mean Particle Number -->
     <g transform="translate(13.161562 233.196187) rotate(-90) scale(0.14 -0.14)">
      <defs>
       <path id="STIXGeneral-Regular-4d" d="M 5530 0 
L 3738 0 
L 3738 122 
Q 4115 147 4214 265 
Q 4314 384 4314 787 
L 4314 3661 
L 2682 0 
L 2592 0 
L 979 3514 
L 979 966 
Q 979 448 1088 294 
Q 1197 141 1574 122 
L 1574 0 
L 77 0 
L 77 122 
Q 358 141 480 205 
Q 602 269 650 432 
Q 698 595 698 966 
L 698 3514 
Q 698 3878 589 3984 
Q 480 4090 90 4115 
L 90 4237 
L 1357 4237 
L 2835 1024 
L 4250 4237 
L 5523 4237 
L 5523 4115 
Q 5178 4109 5072 3993 
Q 4966 3878 4966 3520 
L 4966 717 
Q 4966 378 5072 262 
Q 5178 147 5530 122 
L 5530 0 
z
" transform="scale(0.015625)"/>
       <path id="STIXGeneral-Regular-61" d="M 2829 422 
L 2829 243 
Q 2586 -64 2253 -64 
Q 1888 -64 1843 403 
L 1837 403 
Q 1427 -64 909 -64 
Q 608 -64 422 112 
Q 237 288 237 602 
Q 237 1050 685 1350 
Q 992 1555 1837 1869 
L 1837 2214 
Q 1837 2502 1699 2646 
Q 1562 2790 1338 2790 
Q 1146 2790 1018 2697 
Q 890 2605 890 2477 
Q 890 2419 909 2348 
Q 928 2278 928 2208 
Q 928 2112 841 2029 
Q 755 1946 634 1946 
Q 525 1946 441 2029 
Q 358 2112 358 2240 
Q 358 2547 685 2752 
Q 986 2944 1421 2944 
Q 1939 2944 2176 2656 
Q 2291 2522 2323 2384 
Q 2355 2246 2355 1946 
L 2355 723 
Q 2355 301 2554 301 
Q 2682 301 2829 422 
z
M 1837 813 
L 1837 1715 
Q 1248 1510 1018 1293 
Q 800 1094 800 800 
Q 800 557 921 432 
Q 1043 307 1242 307 
Q 1453 307 1613 410 
Q 1747 506 1792 589 
Q 1837 672 1837 813 
z
" transform="scale(0.015625)"/>
       <path id="STIXGeneral-Regular-6e" d="M 3104 0 
L 1773 0 
L 1779 96 
Q 2016 115 2096 233 
Q 2176 352 2176 672 
L 2176 1946 
Q 2176 2592 1709 2592 
Q 1549 2592 1408 2515 
Q 1267 2438 1050 2227 
L 1050 461 
Q 1050 269 1136 192 
Q 1222 115 1466 96 
L 1466 0 
L 115 0 
L 115 96 
Q 358 115 435 214 
Q 512 314 512 602 
L 512 2157 
Q 512 2394 467 2483 
Q 422 2573 288 2573 
Q 160 2573 102 2547 
L 102 2656 
Q 550 2784 979 2944 
L 1030 2925 
L 1030 2426 
L 1037 2426 
Q 1491 2944 1958 2944 
Q 2323 2944 2518 2688 
Q 2714 2432 2714 1958 
L 2714 544 
Q 2714 288 2790 205 
Q 2867 122 3104 96 
L 3104 0 
z
" transform="scale(0.015625)"/>
       <path id="STIXGeneral-Regular-20" transform="scale(0.015625)"/>
       <path id="STIXGeneral-Regular-50" d="M 102 4237 
L 1760 4237 
Q 2669 4237 3149 3834 
Q 3469 3565 3469 3072 
Q 3469 2560 3104 2234 
Q 2835 1990 2553 1916 
Q 2272 1843 1734 1843 
Q 1549 1843 1293 1862 
L 1293 717 
Q 1293 352 1398 246 
Q 1504 141 1894 122 
L 1894 0 
L 102 0 
L 102 122 
Q 474 147 557 256 
Q 640 365 640 781 
L 640 3526 
Q 640 3885 547 3987 
Q 454 4090 102 4115 
L 102 4237 
z
M 1293 3770 
L 1293 2118 
Q 1510 2099 1683 2099 
Q 2202 2099 2486 2352 
Q 2771 2605 2771 3040 
Q 2771 3558 2476 3779 
Q 2182 4000 1517 4000 
Q 1382 4000 1337 3952 
Q 1293 3904 1293 3770 
z
" transform="scale(0.015625)"/>
       <path id="STIXGeneral-Regular-72" d="M 1024 2931 
L 1024 2342 
Q 1267 2688 1430 2816 
Q 1594 2944 1792 2944 
Q 1958 2944 2051 2854 
Q 2144 2765 2144 2605 
Q 2144 2470 2077 2393 
Q 2010 2317 1894 2317 
Q 1773 2317 1638 2445 
Q 1536 2541 1472 2541 
Q 1338 2541 1181 2355 
Q 1024 2170 1024 2016 
L 1024 576 
Q 1024 301 1133 205 
Q 1242 109 1568 96 
L 1568 0 
L 32 0 
L 32 96 
Q 339 154 412 224 
Q 486 294 486 538 
L 486 2138 
Q 486 2349 438 2435 
Q 390 2522 269 2522 
Q 166 2522 45 2496 
L 45 2598 
Q 448 2726 992 2944 
L 1024 2931 
z
" transform="scale(0.015625)"/>
       <path id="STIXGeneral-Regular-74" d="M 1702 493 
L 1786 422 
Q 1478 -64 1011 -64 
Q 448 -64 448 749 
L 448 2675 
L 109 2675 
Q 83 2694 83 2720 
Q 83 2771 192 2842 
Q 435 2982 813 3526 
Q 826 3546 874 3606 
Q 922 3667 941 3706 
Q 986 3706 986 3622 
L 986 2880 
L 1632 2880 
L 1632 2675 
L 986 2675 
L 986 845 
Q 986 538 1062 403 
Q 1139 269 1318 269 
Q 1510 269 1702 493 
z
" transform="scale(0.015625)"/>
       <path id="STIXGeneral-Regular-63" d="M 2547 998 
L 2637 941 
Q 2362 403 2112 205 
Q 1786 -64 1376 -64 
Q 845 -64 502 336 
Q 160 736 160 1357 
Q 160 2170 698 2618 
Q 1094 2944 1562 2944 
Q 1965 2944 2256 2749 
Q 2547 2554 2547 2285 
Q 2547 2176 2457 2096 
Q 2368 2016 2246 2016 
Q 2022 2016 1939 2310 
L 1901 2451 
Q 1850 2630 1773 2694 
Q 1696 2758 1523 2758 
Q 1133 2758 893 2451 
Q 653 2144 653 1645 
Q 653 1094 928 745 
Q 1203 397 1645 397 
Q 1920 397 2118 528 
Q 2317 659 2547 998 
z
" transform="scale(0.015625)"/>
       <path id="STIXGeneral-Regular-6c" d="M 1645 0 
L 134 0 
L 134 96 
Q 435 122 531 221 
Q 627 320 627 589 
L 627 3590 
Q 627 3821 569 3910 
Q 512 4000 358 4000 
Q 224 4000 122 3987 
L 122 4090 
Q 730 4237 1133 4371 
L 1165 4346 
L 1165 557 
Q 1165 288 1254 201 
Q 1344 115 1645 96 
L 1645 0 
z
" transform="scale(0.015625)"/>
       <path id="STIXGeneral-Regular-4e" d="M 4525 4237 
L 4525 4115 
Q 4198 4083 4102 4000 
Q 4000 3910 3958 3756 
Q 3917 3603 3917 3245 
L 3917 -70 
L 3802 -70 
L 979 3443 
L 979 960 
Q 979 474 1088 323 
Q 1197 173 1574 122 
L 1574 0 
L 77 0 
L 77 122 
Q 474 166 586 310 
Q 698 454 698 960 
L 698 3776 
Q 531 3981 416 4048 
Q 301 4115 77 4115 
L 77 4237 
L 1165 4237 
L 3635 1146 
L 3635 3322 
Q 3635 3808 3514 3949 
Q 3437 4032 3344 4061 
Q 3251 4090 3008 4115 
L 3008 4237 
L 4525 4237 
z
" transform="scale(0.015625)"/>
       <path id="STIXGeneral-Regular-75" d="M 3072 320 
L 3072 230 
Q 2573 96 2195 -58 
L 2163 -38 
L 2163 486 
L 2150 486 
Q 1747 -64 1235 -64 
Q 870 -64 662 160 
Q 454 384 454 755 
L 454 2362 
Q 454 2598 371 2688 
Q 288 2778 58 2790 
L 58 2880 
L 992 2880 
L 992 813 
Q 992 595 1123 451 
Q 1254 307 1446 307 
Q 1760 307 1984 506 
Q 2067 582 2099 649 
Q 2131 717 2131 877 
L 2131 2355 
Q 2131 2605 2041 2678 
Q 1952 2752 1658 2771 
L 1658 2880 
L 2669 2880 
L 2669 685 
Q 2669 461 2742 390 
Q 2816 320 3034 320 
L 3072 320 
z
" transform="scale(0.015625)"/>
       <path id="STIXGeneral-Regular-62" d="M 979 4358 
L 979 2406 
Q 1082 2650 1315 2797 
Q 1549 2944 1843 2944 
Q 2349 2944 2672 2541 
Q 2995 2138 2995 1536 
Q 2995 832 2566 384 
Q 2138 -64 1498 -64 
Q 1107 -64 774 67 
Q 442 198 442 358 
L 442 3622 
Q 442 3859 384 3926 
Q 326 3994 128 3994 
Q 83 3994 19 3981 
L 19 4090 
L 211 4147 
Q 864 4346 947 4371 
L 979 4358 
z
M 979 2035 
L 979 474 
Q 979 326 1161 233 
Q 1344 141 1600 141 
Q 1978 141 2195 416 
Q 2432 710 2432 1261 
Q 2432 1888 2182 2240 
Q 1971 2541 1613 2541 
Q 1357 2541 1168 2390 
Q 979 2240 979 2035 
z
" transform="scale(0.015625)"/>
      </defs>
      <use xlink:href="#STIXGeneral-Regular-4d"/>
      <use xlink:href="#STIXGeneral-Regular-65" transform="translate(88.899994 0)"/>
      <use xlink:href="#STIXGeneral-Regular-61" transform="translate(133.299988 0)"/>
      <use xlink:href="#STIXGeneral-Regular-6e" transform="translate(177.699982 0)"/>
      <use xlink:href="#STIXGeneral-Regular-20" transform="translate(227.699966 0)"/>
      <use xlink:href="#STIXGeneral-Regular-50" transform="translate(252.699951 0)"/>
      <use xlink:href="#STIXGeneral-Regular-61" transform="translate(308.399948 0)"/>
      <use xlink:href="#STIXGeneral-Regular-72" transform="translate(352.799942 0)"/>
      <use xlink:href="#STIXGeneral-Regular-74" transform="translate(386.09993 0)"/>
      <use xlink:href="#STIXGeneral-Regular-69" transform="translate(413.899918 0)"/>
      <use xlink:href="#STIXGeneral-Regular-63" transform="translate(441.699905 0)"/>
      <use xlink:href="#STIXGeneral-Regular-6c" transform="translate(486.099899 0)"/>
      <use xlink:href="#STIXGeneral-Regular-65" transform="translate(513.899887 0)"/>
      <use xlink:href="#STIXGeneral-Regular-20" transform="translate(558.299881 0)"/>
      <use xlink:href="#STIXGeneral-Regular-4e" transform="translate(583.299866 0)"/>
      <use xlink:href="#STIXGeneral-Regular-75" transform="translate(655.499847 0)"/>
      <use xlink:href="#STIXGeneral-Regular-6d" transform="translate(705.499832 0)"/>
      <use xlink:href="#STIXGeneral-Regular-62" transform="translate(783.29982 0)"/>
      <use xlink:href="#STIXGeneral-Regular-65" transform="translate(833.299805 0)"/>
      <use xlink:href="#STIXGeneral-Regular-72" transform="translate(877.699799 0)"/>
     </g>
    </g>
   </g>
   <g id="line2d_113">
    <path d="M 60.722727 38.384 
L 64.983818 52.748695 
L 69.244909 66.331075 
L 73.506 79.173748 
L 77.767091 91.316998 
L 82.028182 102.798916 
L 86.289273 113.655518 
L 90.626455 124.098997 
L 94.963636 133.963845 
L 99.300818 143.282121 
L 103.638 152.08411 
L 108.051273 160.540093 
L 112.464545 168.519581 
L 116.953909 176.175458 
L 121.443273 183.392705 
L 125.932636 190.196452 
L 130.498091 196.715874 
L 135.139636 202.954874 
L 139.781182 208.824671 
L 144.498818 214.434867 
L 149.292545 219.79019 
L 154.162364 224.895825 
L 159.108273 229.757361 
L 164.130273 234.380747 
L 169.228364 238.772246 
L 174.402545 242.938393 
L 179.728909 246.941178 
L 185.131364 250.724797 
L 190.686 254.344792 
L 196.392818 257.798725 
L 202.251818 261.085292 
L 208.263 264.20425 
L 214.502455 267.191312 
L 220.970182 270.039672 
L 227.666182 272.744263 
L 234.590455 275.301674 
L 241.819091 277.734477 
L 249.352091 280.03542 
L 257.265545 282.219365 
L 265.559455 284.277158 
L 274.309909 286.218295 
L 283.593 288.047593 
L 293.408727 289.753841 
L 303.909273 291.351178 
L 315.170727 292.83618 
L 327.269182 294.204725 
L 340.432909 295.466261 
L 354.814091 296.616564 
L 370.641 297.654913 
L 388.218 298.581202 
L 408.077727 299.400054 
L 430.828909 300.109661 
L 441.177273 300.368569 
L 441.177273 300.368569 
" clip-path="url(#p86e9777733)" style="fill: none; stroke-dasharray: 2.7,4.455; stroke-dashoffset: 0; stroke: #2ca02c; stroke-width: 2.7"/>
    <defs>
     <path id="m44eaeec241" d="M -1.6 1.6 
L 1.6 1.6 
L 1.6 -1.6 
L -1.6 -1.6 
z
" style="stroke: #2ca02c; stroke-linejoin: miter"/>
    </defs>
    <g clip-path="url(#p86e9777733)">
     <use xlink:href="#m44eaeec241" x="60.722727" y="38.384" style="fill: #2ca02c; stroke: #2ca02c; stroke-linejoin: miter"/>
     <use xlink:href="#m44eaeec241" x="94.963636" y="133.963845" style="fill: #2ca02c; stroke: #2ca02c; stroke-linejoin: miter"/>
     <use xlink:href="#m44eaeec241" x="129.204545" y="194.908244" style="fill: #2ca02c; stroke: #2ca02c; stroke-linejoin: miter"/>
     <use xlink:href="#m44eaeec241" x="163.445455" y="233.768109" style="fill: #2ca02c; stroke: #2ca02c; stroke-linejoin: miter"/>
     <use xlink:href="#m44eaeec241" x="197.686364" y="258.546253" style="fill: #2ca02c; stroke: #2ca02c; stroke-linejoin: miter"/>
     <use xlink:href="#m44eaeec241" x="231.927273" y="274.345495" style="fill: #2ca02c; stroke: #2ca02c; stroke-linejoin: miter"/>
     <use xlink:href="#m44eaeec241" x="266.168182" y="284.419536" style="fill: #2ca02c; stroke: #2ca02c; stroke-linejoin: miter"/>
     <use xlink:href="#m44eaeec241" x="300.409091" y="290.843029" style="fill: #2ca02c; stroke: #2ca02c; stroke-linejoin: miter"/>
     <use xlink:href="#m44eaeec241" x="334.65" y="294.938828" style="fill: #2ca02c; stroke: #2ca02c; stroke-linejoin: miter"/>
     <use xlink:href="#m44eaeec241" x="368.890909" y="297.550426" style="fill: #2ca02c; stroke: #2ca02c; stroke-linejoin: miter"/>
     <use xlink:href="#m44eaeec241" x="403.131818" y="299.215653" style="fill: #2ca02c; stroke: #2ca02c; stroke-linejoin: miter"/>
     <use xlink:href="#m44eaeec241" x="437.372727" y="300.27745" style="fill: #2ca02c; stroke: #2ca02c; stroke-linejoin: miter"/>
    </g>
   </g>
   <g id="patch_3">
    <path d="M 41.7 313.568 
L 41.7 25.28 
" style="fill: none; stroke: #000000; stroke-width: 0.5; stroke-linejoin: miter; stroke-linecap: square"/>
   </g>
   <g id="patch_4">
    <path d="M 460.2 313.568 
L 460.2 25.28 
" style="fill: none; stroke: #000000; stroke-width: 0.5; stroke-linejoin: miter; stroke-linecap: square"/>
   </g>
   <g id="patch_5">
    <path d="M 41.7 313.568 
L 460.2 313.568 
" style="fill: none; stroke: #000000; stroke-width: 0.5; stroke-linejoin: miter; stroke-linecap: square"/>
   </g>
   <g id="patch_6">
    <path d="M 41.7 25.28 
L 460.2 25.28 
" style="fill: none; stroke: #000000; stroke-width: 0.5; stroke-linejoin: miter; stroke-linecap: square"/>
   </g>
   <g id="line2d_114">
    <path d="M 60.722727 38.543566 
L 62.701091 45.196886 
L 70.690636 70.863834 
L 71.299364 72.751226 
L 71.908091 74.680794 
L 72.516818 76.478561 
L 76.321364 87.60521 
L 83.245636 106.471221 
L 89.256818 121.396379 
L 90.398182 124.037673 
L 91.235182 125.959333 
L 91.996091 127.73074 
L 92.528727 128.93013 
L 93.289636 130.654088 
L 93.974455 132.188253 
L 95.800636 136.158103 
L 96.485455 137.655363 
L 97.931182 140.794866 
L 98.387727 141.83873 
L 100.746545 146.654743 
L 105.464182 156.078522 
L 106.072909 157.177743 
L 107.290364 159.492171 
L 108.127364 161.092236 
L 110.410091 165.180707 
L 111.094909 166.445997 
L 121.367182 183.685582 
L 121.975909 184.587102 
L 122.889 186.023734 
L 123.345545 186.759184 
L 123.802091 187.43137 
L 124.410818 188.343433 
L 125.4 189.787974 
L 126.008727 190.763302 
L 127.226182 192.545253 
L 127.911 193.668198 
L 131.411182 198.708273 
L 132.324273 199.878666 
L 135.367909 203.824792 
L 135.900545 204.547062 
L 141.150818 211.297914 
L 141.759545 212.046545 
L 142.977 213.496357 
L 143.433545 213.970841 
L 144.042273 214.711563 
L 144.498818 215.217679 
L 152.184 223.60023 
L 152.488364 223.921824 
L 156.673364 228.115736 
L 160.630091 231.827255 
L 167.630455 238.230153 
L 168.771818 239.218661 
L 169.304455 239.661513 
L 169.989273 240.183445 
L 171.282818 241.290575 
L 172.195909 242.076109 
L 172.728545 242.505781 
L 173.337273 242.990809 
L 174.402545 243.918689 
L 183.229091 250.216146 
L 183.609545 250.429663 
L 186.424909 252.346051 
L 187.033636 252.707187 
L 187.642364 253.028781 
L 188.555455 253.582346 
L 189.696818 254.3547 
L 192.36 255.989034 
L 193.044818 256.389709 
L 199.284273 260.153949 
L 205.371545 263.4068 
L 206.589 264.071078 
L 208.415182 264.962054 
L 209.556545 265.549886 
L 210.926182 266.22998 
L 214.959 268.338798 
L 216.480818 269.142785 
L 217.013455 269.387935 
L 217.850455 269.730618 
L 228.351 273.979885 
L 229.188 274.283028 
L 229.796727 274.483366 
L 230.557636 274.749604 
L 231.394636 275.092287 
L 232.688182 275.550955 
L 233.220818 275.743384 
L 233.829545 275.970082 
L 234.894818 276.296949 
L 240.373364 278.081536 
L 241.286455 278.342502 
L 245.167091 279.570888 
L 246.917182 280.032192 
L 247.602 280.21935 
L 248.286818 280.419687 
L 260.309182 283.643543 
L 261.526636 283.962501 
L 270.581455 286.050231 
L 272.712 286.453542 
L 276.592636 287.281253 
L 277.734 287.500043 
L 279.103636 287.766281 
L 300.789545 291.417172 
L 301.930909 291.564789 
L 315.399 293.325652 
L 316.616455 293.470633 
L 317.301273 293.531262 
L 320.192727 293.839676 
L 324.073364 294.269348 
L 330.312818 294.809732 
L 332.519455 295.007434 
L 333.660818 295.118147 
L 335.867455 295.305305 
L 342.943909 295.906318 
L 347.965909 296.322809 
L 349.411636 296.430886 
L 351.161727 296.565323 
L 353.824909 296.768297 
L 355.346727 296.871102 
L 371.325818 297.870154 
L 373.608545 297.980867 
L 380.532818 298.331458 
L 381.902455 298.418447 
L 384.337364 298.521252 
L 385.859182 298.624057 
L 388.522364 298.734769 
L 398.794636 299.198709 
L 400.240364 299.240886 
L 431.437636 300.210942 
L 434.861727 300.321655 
L 441.177273 300.464 
L 441.177273 300.464 
" clip-path="url(#p86e9777733)" style="fill: none; stroke-dasharray: 16,4,2.5,4; stroke-dashoffset: 0; stroke: #ff7f0e; stroke-width: 2.5"/>
    <defs>
     <path id="m0ab99b6bf2" d="M 0 1.75 
C 0.464105 1.75 0.909265 1.565609 1.237437 1.237437 
C 1.565609 0.909265 1.75 0.464105 1.75 0 
C 1.75 -0.464105 1.565609 -0.909265 1.237437 -1.237437 
C 0.909265 -1.565609 0.464105 -1.75 0 -1.75 
C -0.464105 -1.75 -0.909265 -1.565609 -1.237437 -1.237437 
C -1.565609 -0.909265 -1.75 -0.464105 -1.75 0 
C -1.75 0.464105 -1.565609 0.909265 -1.237437 1.237437 
C -0.909265 1.565609 -0.464105 1.75 0 1.75 
z
" style="stroke: #ff7f0e"/>
    </defs>
    <g clip-path="url(#p86e9777733)">
     <use xlink:href="#m0ab99b6bf2" x="60.722727" y="38.543566" style="fill: #ff7f0e; stroke: #ff7f0e"/>
     <use xlink:href="#m0ab99b6bf2" x="87.354545" y="116.830788" style="fill: #ff7f0e; stroke: #ff7f0e"/>
     <use xlink:href="#m0ab99b6bf2" x="113.986364" y="171.50716" style="fill: #ff7f0e; stroke: #ff7f0e"/>
     <use xlink:href="#m0ab99b6bf2" x="140.618182" y="210.59146" style="fill: #ff7f0e; stroke: #ff7f0e"/>
     <use xlink:href="#m0ab99b6bf2" x="167.25" y="237.908558" style="fill: #ff7f0e; stroke: #ff7f0e"/>
     <use xlink:href="#m0ab99b6bf2" x="193.881818" y="256.909006" style="fill: #ff7f0e; stroke: #ff7f0e"/>
     <use xlink:href="#m0ab99b6bf2" x="220.513636" y="270.75603" style="fill: #ff7f0e; stroke: #ff7f0e"/>
     <use xlink:href="#m0ab99b6bf2" x="247.145455" y="280.098093" style="fill: #ff7f0e; stroke: #ff7f0e"/>
     <use xlink:href="#m0ab99b6bf2" x="273.777273" y="286.7066" style="fill: #ff7f0e; stroke: #ff7f0e"/>
     <use xlink:href="#m0ab99b6bf2" x="300.409091" y="291.364451" style="fill: #ff7f0e; stroke: #ff7f0e"/>
     <use xlink:href="#m0ab99b6bf2" x="327.040909" y="294.551402" style="fill: #ff7f0e; stroke: #ff7f0e"/>
     <use xlink:href="#m0ab99b6bf2" x="353.672727" y="296.760389" style="fill: #ff7f0e; stroke: #ff7f0e"/>
     <use xlink:href="#m0ab99b6bf2" x="380.304545" y="298.320914" style="fill: #ff7f0e; stroke: #ff7f0e"/>
     <use xlink:href="#m0ab99b6bf2" x="406.936364" y="299.50976" style="fill: #ff7f0e; stroke: #ff7f0e"/>
     <use xlink:href="#m0ab99b6bf2" x="433.568182" y="300.268934" style="fill: #ff7f0e; stroke: #ff7f0e"/>
    </g>
   </g>
   <g id="text_15">
    <!-- Mean vs Time ($|n=100\rangle$, $\gamma=1$) -->
    <g transform="translate(144.39 19.28) scale(0.16 -0.16)">
     <defs>
      <path id="STIXGeneral-Regular-76" d="M 3053 2880 
L 3053 2784 
Q 2906 2771 2835 2688 
Q 2765 2605 2637 2285 
L 1818 230 
Q 1690 -90 1638 -90 
Q 1587 -90 1523 77 
Q 1510 96 1497 141 
Q 1485 186 1472 211 
L 704 2048 
Q 499 2534 403 2652 
Q 307 2771 122 2784 
L 122 2880 
L 1376 2880 
L 1376 2784 
Q 1210 2771 1146 2732 
Q 1082 2694 1082 2611 
Q 1082 2509 1139 2368 
L 1792 730 
L 2426 2387 
Q 2464 2483 2464 2579 
Q 2464 2758 2163 2784 
L 2163 2880 
L 3053 2880 
z
" transform="scale(0.015625)"/>
      <path id="STIXGeneral-Regular-73" d="M 998 1926 
L 1664 1523 
Q 1984 1331 2105 1164 
Q 2227 998 2227 736 
Q 2227 416 1961 176 
Q 1696 -64 1331 -64 
Q 1030 -64 864 -6 
Q 691 51 570 51 
Q 461 51 416 -26 
L 333 -26 
L 333 979 
L 435 979 
Q 538 512 730 294 
Q 922 77 1248 77 
Q 1485 77 1632 211 
Q 1779 346 1779 550 
Q 1779 845 1440 1030 
L 1094 1222 
Q 326 1651 326 2150 
Q 326 2522 566 2730 
Q 806 2938 1210 2938 
Q 1491 2938 1638 2867 
Q 1754 2816 1818 2816 
Q 1862 2816 1920 2880 
L 1990 2880 
L 2022 2010 
L 1926 2010 
Q 1818 2445 1654 2621 
Q 1491 2797 1203 2797 
Q 986 2797 854 2688 
Q 723 2579 723 2362 
Q 723 2253 796 2128 
Q 870 2003 998 1926 
z
" transform="scale(0.015625)"/>
      <path id="STIXGeneral-Regular-28" d="M 1946 -1030 
L 1869 -1133 
Q 1126 -710 716 32 
Q 307 774 307 1613 
Q 307 3386 1888 4326 
L 1946 4224 
Q 1293 3667 1075 3126 
Q 858 2586 858 1632 
Q 858 685 1082 96 
Q 1306 -493 1946 -1030 
z
" transform="scale(0.015625)"/>
      <path id="Cmsy10-6a" d="M 763 -1484 
L 763 4684 
Q 763 4734 800 4767 
Q 838 4800 891 4800 
Q 938 4800 978 4767 
Q 1019 4734 1019 4684 
L 1019 -1484 
Q 1019 -1534 978 -1567 
Q 938 -1600 891 -1600 
Q 838 -1600 800 -1567 
Q 763 -1534 763 -1484 
z
" transform="scale(0.015625)"/>
      <path id="Cmmi10-6e" d="M 494 109 
Q 494 147 500 166 
L 978 2075 
Q 1025 2253 1025 2388 
Q 1025 2663 838 2663 
Q 638 2663 541 2423 
Q 444 2184 353 1819 
Q 353 1800 334 1789 
Q 316 1778 300 1778 
L 225 1778 
Q 203 1778 187 1801 
Q 172 1825 172 1844 
Q 241 2122 305 2315 
Q 369 2509 505 2668 
Q 641 2828 844 2828 
Q 1084 2828 1268 2676 
Q 1453 2525 1453 2291 
Q 1644 2541 1900 2684 
Q 2156 2828 2444 2828 
Q 2672 2828 2837 2750 
Q 3003 2672 3095 2514 
Q 3188 2356 3188 2138 
Q 3188 1875 3070 1503 
Q 2953 1131 2778 672 
Q 2688 463 2688 288 
Q 2688 97 2834 97 
Q 3084 97 3251 365 
Q 3419 634 3488 941 
Q 3500 978 3541 978 
L 3616 978 
Q 3641 978 3658 962 
Q 3675 947 3675 922 
Q 3675 916 3669 903 
Q 3581 541 3364 234 
Q 3147 -72 2822 -72 
Q 2597 -72 2437 83 
Q 2278 238 2278 459 
Q 2278 578 2328 709 
Q 2409 919 2514 1209 
Q 2619 1500 2686 1765 
Q 2753 2031 2753 2234 
Q 2753 2413 2679 2538 
Q 2606 2663 2431 2663 
Q 2197 2663 2000 2559 
Q 1803 2456 1656 2286 
Q 1509 2116 1388 1881 
L 953 141 
Q 931 53 854 -9 
Q 778 -72 684 -72 
Q 606 -72 550 -22 
Q 494 28 494 109 
z
" transform="scale(0.015625)"/>
      <path id="Cmr10-3d" d="M 481 850 
Q 428 850 393 890 
Q 359 931 359 978 
Q 359 1031 393 1068 
Q 428 1106 481 1106 
L 4500 1106 
Q 4547 1106 4581 1068 
Q 4616 1031 4616 978 
Q 4616 931 4581 890 
Q 4547 850 4500 850 
L 481 850 
z
M 481 2094 
Q 428 2094 393 2131 
Q 359 2169 359 2222 
Q 359 2269 393 2309 
Q 428 2350 481 2350 
L 4500 2350 
Q 4547 2350 4581 2309 
Q 4616 2269 4616 2222 
Q 4616 2169 4581 2131 
Q 4547 2094 4500 2094 
L 481 2094 
z
" transform="scale(0.015625)"/>
      <path id="Cmr10-31" d="M 594 0 
L 594 225 
Q 1394 225 1394 428 
L 1394 3788 
Q 1063 3628 556 3628 
L 556 3853 
Q 1341 3853 1741 4263 
L 1831 4263 
Q 1853 4263 1873 4245 
Q 1894 4228 1894 4206 
L 1894 428 
Q 1894 225 2694 225 
L 2694 0 
L 594 0 
z
" transform="scale(0.015625)"/>
      <path id="Cmr10-30" d="M 1600 -141 
Q 816 -141 533 504 
Q 250 1150 250 2041 
Q 250 2597 351 3087 
Q 453 3578 754 3920 
Q 1056 4263 1600 4263 
Q 2022 4263 2290 4056 
Q 2559 3850 2700 3523 
Q 2841 3197 2892 2823 
Q 2944 2450 2944 2041 
Q 2944 1491 2842 1011 
Q 2741 531 2444 195 
Q 2147 -141 1600 -141 
z
M 1600 25 
Q 1956 25 2131 390 
Q 2306 756 2347 1200 
Q 2388 1644 2388 2144 
Q 2388 2625 2347 3031 
Q 2306 3438 2132 3767 
Q 1959 4097 1600 4097 
Q 1238 4097 1063 3765 
Q 888 3434 847 3029 
Q 806 2625 806 2144 
Q 806 1788 823 1472 
Q 841 1156 916 820 
Q 991 484 1158 254 
Q 1325 25 1600 25 
z
" transform="scale(0.015625)"/>
      <path id="Cmex10-ae" d="M 500 -7297 
Q 500 -7263 513 -7250 
L 2119 -3584 
L 513 84 
Q 500 97 500 128 
Q 500 175 537 215 
Q 575 256 628 256 
Q 703 256 750 178 
L 2381 -3541 
Q 2388 -3553 2388 -3584 
Q 2388 -3616 2381 -3634 
L 750 -7347 
Q 700 -7425 628 -7425 
Q 575 -7425 537 -7384 
Q 500 -7344 500 -7297 
z
" transform="scale(0.015625)"/>
      <path id="STIXGeneral-Regular-2c" d="M 531 -902 
L 467 -781 
Q 998 -422 998 -96 
Q 998 -13 909 -13 
Q 883 -13 822 -25 
Q 762 -38 723 -38 
Q 352 -38 352 288 
Q 352 454 457 553 
Q 563 653 736 653 
Q 954 653 1101 496 
Q 1248 339 1248 96 
Q 1248 -198 1053 -473 
Q 858 -749 531 -902 
z
" transform="scale(0.015625)"/>
      <path id="Cmmi10-b0" d="M 1888 -1253 
Q 1888 -1109 1952 -834 
Q 2016 -559 2108 -248 
Q 2200 63 2266 263 
Q 2291 581 2291 744 
Q 2291 1156 2209 1511 
Q 2128 1866 1903 2105 
Q 1678 2344 1275 2344 
Q 1063 2344 852 2253 
Q 641 2163 489 2000 
Q 338 1838 281 1631 
Q 269 1594 231 1594 
L 153 1594 
Q 103 1594 103 1650 
L 103 1672 
Q 175 1959 358 2226 
Q 541 2494 805 2661 
Q 1069 2828 1363 2828 
Q 1663 2828 1881 2625 
Q 2100 2422 2231 2109 
Q 2363 1797 2420 1478 
Q 2478 1159 2478 878 
Q 2800 1753 3200 2534 
L 3297 2741 
Q 3316 2759 3341 2759 
L 3419 2759 
Q 3469 2759 3469 2700 
Q 3469 2688 3456 2663 
L 3359 2463 
Q 3081 1909 2848 1340 
Q 2616 772 2450 244 
Q 2425 28 2354 -347 
Q 2284 -722 2184 -1045 
Q 2084 -1369 1984 -1381 
Q 1888 -1381 1888 -1253 
z
" transform="scale(0.015625)"/>
      <path id="STIXGeneral-Regular-29" d="M 186 4224 
L 262 4326 
Q 992 3891 1408 3148 
Q 1824 2406 1824 1581 
Q 1824 -166 243 -1133 
L 186 -1030 
Q 845 -486 1059 54 
Q 1274 595 1274 1562 
Q 1274 2534 1059 3120 
Q 845 3706 186 4224 
z
" transform="scale(0.015625)"/>
     </defs>
     <use xlink:href="#STIXGeneral-Regular-4d" transform="translate(0 0.658854)"/>
     <use xlink:href="#STIXGeneral-Regular-65" transform="translate(88.899994 0.658854)"/>
     <use xlink:href="#STIXGeneral-Regular-61" transform="translate(133.299988 0.658854)"/>
     <use xlink:href="#STIXGeneral-Regular-6e" transform="translate(177.699982 0.658854)"/>
     <use xlink:href="#STIXGeneral-Regular-20" transform="translate(227.699966 0.658854)"/>
     <use xlink:href="#STIXGeneral-Regular-76" transform="translate(252.699951 0.658854)"/>
     <use xlink:href="#STIXGeneral-Regular-73" transform="translate(302.699936 0.658854)"/>
     <use xlink:href="#STIXGeneral-Regular-20" transform="translate(341.59993 0.658854)"/>
     <use xlink:href="#STIXGeneral-Regular-54" transform="translate(366.599915 0.658854)"/>
     <use xlink:href="#STIXGeneral-Regular-69" transform="translate(427.699905 0.658854)"/>
     <use xlink:href="#STIXGeneral-Regular-6d" transform="translate(455.499893 0.658854)"/>
     <use xlink:href="#STIXGeneral-Regular-65" transform="translate(533.299881 0.658854)"/>
     <use xlink:href="#STIXGeneral-Regular-20" transform="translate(577.699875 0.658854)"/>
     <use xlink:href="#STIXGeneral-Regular-28" transform="translate(602.69986 0.658854)"/>
     <use xlink:href="#Cmsy10-6a" transform="translate(635.999847 0.658854)"/>
     <use xlink:href="#Cmmi10-6e" transform="translate(663.685394 0.658854)"/>
     <use xlink:href="#Cmr10-3d" transform="translate(741.253754 0.658854)"/>
     <use xlink:href="#Cmr10-31" transform="translate(836.497894 0.658854)"/>
     <use xlink:href="#Cmr10-30" transform="translate(886.497894 0.658854)"/>
     <use xlink:href="#Cmr10-30" transform="translate(936.497894 0.658854)"/>
     <use xlink:href="#Cmex10-ae" transform="translate(986.497894 94)"/>
     <use xlink:href="#STIXGeneral-Regular-2c" transform="translate(1033.714691 0.658854)"/>
     <use xlink:href="#STIXGeneral-Regular-20" transform="translate(1058.714676 0.658854)"/>
     <use xlink:href="#Cmmi10-b0" transform="translate(1083.714661 0.658854)"/>
     <use xlink:href="#Cmr10-3d" transform="translate(1152.982239 0.658854)"/>
     <use xlink:href="#Cmr10-31" transform="translate(1248.226379 0.658854)"/>
     <use xlink:href="#STIXGeneral-Regular-29" transform="translate(1298.226379 0.658854)"/>
    </g>
   </g>
   <g id="line2d_115">
    <path d="M 60.722727 38.543566 
L 64.983818 52.89957 
L 69.244909 66.473735 
L 73.506 79.308638 
L 77.767091 91.444541 
L 82.028182 102.919513 
L 86.289273 113.769548 
L 90.626455 124.206708 
L 94.963636 134.065588 
L 99.300818 143.378228 
L 103.638 152.174892 
L 108.051273 160.62576 
L 112.464545 168.60042 
L 116.953909 176.251665 
L 121.443273 183.464546 
L 125.932636 190.264178 
L 130.498091 196.779655 
L 135.139636 203.014881 
L 139.781182 208.881127 
L 144.498818 214.487928 
L 149.292545 219.840013 
L 154.162364 224.942559 
L 159.108273 229.801153 
L 164.130273 234.421742 
L 169.228364 238.810585 
L 174.402545 242.974211 
L 179.728909 246.974575 
L 185.131364 250.755905 
L 190.686 254.37371 
L 196.392818 257.825553 
L 202.251818 261.110132 
L 208.263 264.227203 
L 214.502455 267.212458 
L 220.970182 270.059095 
L 227.666182 272.762049 
L 234.590455 275.317914 
L 241.819091 277.749245 
L 249.352091 280.048796 
L 257.265545 282.23142 
L 265.559455 284.287967 
L 274.309909 286.227931 
L 283.593 288.056122 
L 293.408727 289.761338 
L 303.909273 291.357709 
L 315.170727 292.841812 
L 327.269182 294.209529 
L 340.432909 295.470301 
L 354.814091 296.619909 
L 370.641 297.657629 
L 388.218 298.583358 
L 408.077727 299.401715 
L 430.828909 300.110893 
L 441.177273 300.369644 
L 441.177273 300.369644 
" clip-path="url(#p86e9777733)" style="fill: none; stroke-dasharray: 9.62,4.16; stroke-dashoffset: 0; stroke: #1f77b4; stroke-width: 2.6"/>
    <defs>
     <path id="m3f17f57a3e" d="M 0 -1.8 
L -1.8 1.8 
L 1.8 1.8 
z
" style="stroke: #1f77b4; stroke-linejoin: miter"/>
    </defs>
    <g clip-path="url(#p86e9777733)">
     <use xlink:href="#m3f17f57a3e" x="60.722727" y="38.543566" style="fill: #1f77b4; stroke: #1f77b4; stroke-linejoin: miter"/>
     <use xlink:href="#m3f17f57a3e" x="91.159091" y="125.447932" style="fill: #1f77b4; stroke: #1f77b4; stroke-linejoin: miter"/>
     <use xlink:href="#m3f17f57a3e" x="121.595455" y="183.701671" style="fill: #1f77b4; stroke: #1f77b4; stroke-linejoin: miter"/>
     <use xlink:href="#m3f17f57a3e" x="152.031818" y="222.75032" style="fill: #1f77b4; stroke: #1f77b4; stroke-linejoin: miter"/>
     <use xlink:href="#m3f17f57a3e" x="182.468182" y="248.925413" style="fill: #1f77b4; stroke: #1f77b4; stroke-linejoin: miter"/>
     <use xlink:href="#m3f17f57a3e" x="212.904545" y="266.471102" style="fill: #1f77b4; stroke: #1f77b4; stroke-linejoin: miter"/>
     <use xlink:href="#m3f17f57a3e" x="243.340909" y="278.232329" style="fill: #1f77b4; stroke: #1f77b4; stroke-linejoin: miter"/>
     <use xlink:href="#m3f17f57a3e" x="273.777273" y="286.116115" style="fill: #1f77b4; stroke: #1f77b4; stroke-linejoin: miter"/>
     <use xlink:href="#m3f17f57a3e" x="304.213636" y="291.400775" style="fill: #1f77b4; stroke: #1f77b4; stroke-linejoin: miter"/>
     <use xlink:href="#m3f17f57a3e" x="334.65" y="294.943188" style="fill: #1f77b4; stroke: #1f77b4; stroke-linejoin: miter"/>
     <use xlink:href="#m3f17f57a3e" x="365.086364" y="297.317739" style="fill: #1f77b4; stroke: #1f77b4; stroke-linejoin: miter"/>
     <use xlink:href="#m3f17f57a3e" x="395.522727" y="298.909448" style="fill: #1f77b4; stroke: #1f77b4; stroke-linejoin: miter"/>
     <use xlink:href="#m3f17f57a3e" x="425.959091" y="299.976403" style="fill: #1f77b4; stroke: #1f77b4; stroke-linejoin: miter"/>
    </g>
   </g>
   <g id="line2d_116">
    <path d="M 60.722727 38.543566 
L 64.983818 52.89957 
L 69.244909 66.473735 
L 73.506 79.308638 
L 77.767091 91.444541 
L 82.028182 102.919513 
L 86.289273 113.769548 
L 90.626455 124.206708 
L 94.963636 134.065588 
L 99.300818 143.378228 
L 103.638 152.174892 
L 108.051273 160.62576 
L 112.464545 168.60042 
L 116.953909 176.251665 
L 121.443273 183.464546 
L 125.932636 190.264178 
L 130.498091 196.779655 
L 135.139636 203.014881 
L 139.781182 208.881127 
L 144.498818 214.487928 
L 149.292545 219.840013 
L 154.162364 224.942559 
L 159.108273 229.801153 
L 164.130273 234.421742 
L 169.228364 238.810585 
L 174.402545 242.974211 
L 179.728909 246.974575 
L 185.131364 250.755905 
L 190.686 254.37371 
L 196.392818 257.825553 
L 202.251818 261.110132 
L 208.263 264.227203 
L 214.502455 267.212458 
L 220.970182 270.059095 
L 227.666182 272.762049 
L 234.590455 275.317914 
L 241.819091 277.749245 
L 249.352091 280.048796 
L 257.265545 282.23142 
L 265.559455 284.287967 
L 274.309909 286.227931 
L 283.593 288.056122 
L 293.408727 289.761338 
L 303.909273 291.357709 
L 315.170727 292.841812 
L 327.269182 294.209529 
L 340.432909 295.470301 
L 354.814091 296.619909 
L 370.641 297.657629 
L 388.218 298.583358 
L 408.077727 299.401715 
L 430.828909 300.110893 
L 441.177273 300.369644 
L 441.177273 300.369644 
" clip-path="url(#p86e9777733)" style="fill: none; stroke: #000000; stroke-width: 2.3; stroke-linecap: square"/>
   </g>
   <g id="legend_1">
    <g id="line2d_117">
     <path d="M 352.585625 39.03 
L 363.585625 39.03 
L 374.585625 39.03 
" style="fill: none; stroke: #000000; stroke-width: 2.3; stroke-linecap: square"/>
    </g>
    <g id="text_16">
     <!-- Exact -->
     <g transform="translate(383.385625 42.88) scale(0.11 -0.11)">
      <defs>
       <path id="STIXGeneral-Regular-45" d="M 3821 1082 
L 3526 0 
L 77 0 
L 77 122 
Q 442 147 538 252 
Q 634 358 634 730 
L 634 3520 
Q 634 3878 534 3987 
Q 435 4096 77 4115 
L 77 4237 
L 3469 4237 
L 3494 3322 
L 3334 3322 
Q 3264 3750 3085 3872 
Q 2906 3994 2349 3994 
L 1510 3994 
Q 1370 3994 1328 3952 
Q 1286 3910 1286 3763 
L 1286 2355 
L 2253 2355 
Q 2656 2355 2787 2470 
Q 2918 2586 2976 2970 
L 3123 2970 
L 3123 1472 
L 2976 1472 
Q 2918 1875 2790 1984 
Q 2662 2093 2253 2093 
L 1286 2093 
L 1286 538 
Q 1286 346 1420 291 
Q 1555 237 1933 237 
L 2163 237 
Q 2848 237 3136 403 
Q 3424 570 3642 1082 
L 3821 1082 
z
" transform="scale(0.015625)"/>
       <path id="STIXGeneral-Regular-78" d="M 3066 0 
L 1779 0 
L 1779 96 
Q 1939 109 1987 137 
Q 2035 166 2035 250 
Q 2035 307 1997 365 
L 1414 1261 
L 909 474 
Q 781 275 781 211 
Q 781 96 1037 96 
L 1037 0 
L 109 0 
L 109 96 
Q 269 109 355 169 
Q 442 230 576 422 
L 1306 1478 
L 704 2400 
Q 557 2624 454 2704 
Q 352 2784 211 2784 
L 154 2784 
L 154 2880 
L 1478 2880 
L 1478 2784 
Q 1203 2778 1203 2643 
Q 1203 2509 1498 2074 
Q 1581 1958 1587 1946 
Q 1619 1990 1779 2227 
Q 1811 2285 1856 2349 
Q 1901 2413 1923 2451 
Q 1946 2490 1971 2528 
Q 1997 2566 2006 2595 
Q 2016 2624 2016 2643 
Q 2016 2765 1760 2784 
L 1760 2880 
L 2771 2880 
L 2771 2784 
Q 2445 2771 2253 2502 
L 1722 1734 
L 2541 480 
Q 2790 96 3066 96 
L 3066 0 
z
" transform="scale(0.015625)"/>
      </defs>
      <use xlink:href="#STIXGeneral-Regular-45"/>
      <use xlink:href="#STIXGeneral-Regular-78" transform="translate(61.099991 0)"/>
      <use xlink:href="#STIXGeneral-Regular-61" transform="translate(111.099976 0)"/>
      <use xlink:href="#STIXGeneral-Regular-63" transform="translate(155.499969 0)"/>
      <use xlink:href="#STIXGeneral-Regular-74" transform="translate(199.899963 0)"/>
     </g>
    </g>
    <g id="line2d_118">
     <path d="M 352.585625 54.617344 
L 363.585625 54.617344 
L 374.585625 54.617344 
" style="fill: none; stroke-dasharray: 9.62,4.16; stroke-dashoffset: 0; stroke: #1f77b4; stroke-width: 2.6"/>
     <g>
      <use xlink:href="#m3f17f57a3e" x="363.585625" y="54.617344" style="fill: #1f77b4; stroke: #1f77b4; stroke-linejoin: miter"/>
     </g>
    </g>
    <g id="text_17">
     <!-- Density Matrix -->
     <g transform="translate(383.385625 58.467344) scale(0.11 -0.11)">
      <defs>
       <path id="STIXGeneral-Regular-44" d="M 102 4237 
L 1830 4237 
Q 3078 4237 3750 3654 
Q 4384 3110 4384 2138 
Q 4384 966 3514 410 
Q 2880 0 1901 0 
L 102 0 
L 102 122 
Q 474 147 570 252 
Q 666 358 666 736 
L 666 3520 
Q 666 3891 570 3990 
Q 474 4090 102 4115 
L 102 4237 
z
M 1318 3731 
L 1318 538 
Q 1318 365 1379 301 
Q 1440 237 1626 237 
Q 2125 237 2432 307 
Q 2739 378 3021 570 
Q 3686 1018 3686 2099 
Q 3686 3027 3078 3558 
Q 2803 3802 2476 3901 
Q 2150 4000 1658 4000 
Q 1472 4000 1395 3942 
Q 1318 3885 1318 3731 
z
" transform="scale(0.015625)"/>
       <path id="STIXGeneral-Regular-79" d="M 3040 2880 
L 3040 2784 
Q 2925 2771 2854 2700 
Q 2784 2630 2720 2458 
L 1760 -160 
Q 1510 -838 1257 -1116 
Q 1005 -1395 640 -1395 
Q 435 -1395 313 -1289 
Q 192 -1184 192 -1024 
Q 192 -902 272 -816 
Q 352 -730 467 -730 
Q 653 -730 800 -813 
Q 883 -858 966 -858 
Q 1101 -858 1286 -576 
Q 1376 -448 1459 -211 
Q 1542 26 1542 115 
Q 1542 198 1274 762 
L 429 2566 
Q 346 2752 90 2790 
L 90 2880 
L 1402 2880 
L 1402 2784 
Q 1197 2778 1117 2739 
Q 1037 2701 1037 2611 
Q 1037 2541 1120 2349 
L 1837 749 
L 2458 2515 
Q 2483 2573 2483 2630 
Q 2483 2784 2189 2784 
L 2189 2880 
L 3040 2880 
z
" transform="scale(0.015625)"/>
      </defs>
      <use xlink:href="#STIXGeneral-Regular-44"/>
      <use xlink:href="#STIXGeneral-Regular-65" transform="translate(72.199982 0)"/>
      <use xlink:href="#STIXGeneral-Regular-6e" transform="translate(116.599976 0)"/>
      <use xlink:href="#STIXGeneral-Regular-73" transform="translate(166.59996 0)"/>
      <use xlink:href="#STIXGeneral-Regular-69" transform="translate(205.499954 0)"/>
      <use xlink:href="#STIXGeneral-Regular-74" transform="translate(233.299942 0)"/>
      <use xlink:href="#STIXGeneral-Regular-79" transform="translate(261.09993 0)"/>
      <use xlink:href="#STIXGeneral-Regular-20" transform="translate(311.099915 0)"/>
      <use xlink:href="#STIXGeneral-Regular-4d" transform="translate(336.099899 0)"/>
      <use xlink:href="#STIXGeneral-Regular-61" transform="translate(424.999893 0)"/>
      <use xlink:href="#STIXGeneral-Regular-74" transform="translate(469.399887 0)"/>
      <use xlink:href="#STIXGeneral-Regular-72" transform="translate(497.199875 0)"/>
      <use xlink:href="#STIXGeneral-Regular-69" transform="translate(530.499863 0)"/>
      <use xlink:href="#STIXGeneral-Regular-78" transform="translate(558.29985 0)"/>
     </g>
    </g>
    <g id="line2d_119">
     <path d="M 352.585625 70.215 
L 363.585625 70.215 
L 374.585625 70.215 
" style="fill: none; stroke-dasharray: 16,4,2.5,4; stroke-dashoffset: 0; stroke: #ff7f0e; stroke-width: 2.5"/>
     <g>
      <use xlink:href="#m0ab99b6bf2" x="363.585625" y="70.215" style="fill: #ff7f0e; stroke: #ff7f0e"/>
     </g>
    </g>
    <g id="text_18">
     <!-- Monte Carlo -->
     <g transform="translate(383.385625 74.065) scale(0.11 -0.11)">
      <defs>
       <path id="STIXGeneral-Regular-6f" d="M 3008 1478 
Q 3008 806 2608 371 
Q 2208 -64 1568 -64 
Q 979 -64 582 368 
Q 186 800 186 1459 
Q 186 2125 582 2534 
Q 979 2944 1626 2944 
Q 2221 2944 2614 2537 
Q 3008 2131 3008 1478 
z
M 2432 1306 
Q 2432 2035 2112 2445 
Q 1856 2765 1504 2765 
Q 1171 2765 966 2493 
Q 762 2221 762 1747 
Q 762 928 1101 435 
Q 1318 115 1677 115 
Q 2029 115 2230 432 
Q 2432 749 2432 1306 
z
" transform="scale(0.015625)"/>
       <path id="STIXGeneral-Regular-43" d="M 3930 838 
L 4051 723 
Q 3482 -90 2304 -90 
Q 1376 -90 794 480 
Q 179 1082 179 2080 
Q 179 3014 755 3661 
Q 1357 4326 2310 4326 
Q 2720 4326 3072 4230 
Q 3475 4115 3514 4115 
Q 3725 4115 3782 4326 
L 3910 4326 
L 3968 2874 
L 3821 2874 
Q 3718 3334 3488 3584 
Q 3034 4070 2458 4070 
Q 1747 4070 1334 3548 
Q 922 3027 922 2182 
Q 922 1152 1382 653 
Q 1811 192 2522 192 
Q 2944 192 3251 339 
Q 3558 486 3930 838 
z
" transform="scale(0.015625)"/>
      </defs>
      <use xlink:href="#STIXGeneral-Regular-4d"/>
      <use xlink:href="#STIXGeneral-Regular-6f" transform="translate(88.899994 0)"/>
      <use xlink:href="#STIXGeneral-Regular-6e" transform="translate(138.899979 0)"/>
      <use xlink:href="#STIXGeneral-Regular-74" transform="translate(188.899963 0)"/>
      <use xlink:href="#STIXGeneral-Regular-65" transform="translate(216.699951 0)"/>
      <use xlink:href="#STIXGeneral-Regular-20" transform="translate(261.099945 0)"/>
      <use xlink:href="#STIXGeneral-Regular-43" transform="translate(286.09993 0)"/>
      <use xlink:href="#STIXGeneral-Regular-61" transform="translate(352.799927 0)"/>
      <use xlink:href="#STIXGeneral-Regular-72" transform="translate(397.199921 0)"/>
      <use xlink:href="#STIXGeneral-Regular-6c" transform="translate(430.499908 0)"/>
      <use xlink:href="#STIXGeneral-Regular-6f" transform="translate(458.299896 0)"/>
     </g>
    </g>
    <g id="line2d_120">
     <path d="M 352.585625 85.802344 
L 363.585625 85.802344 
L 374.585625 85.802344 
" style="fill: none; stroke-dasharray: 2.7,4.455; stroke-dashoffset: 0; stroke: #2ca02c; stroke-width: 2.7"/>
     <g>
      <use xlink:href="#m44eaeec241" x="363.585625" y="85.802344" style="fill: #2ca02c; stroke: #2ca02c; stroke-linejoin: miter"/>
     </g>
    </g>
    <g id="text_19">
     <!-- Positive-P -->
     <g transform="translate(383.385625 89.652344) scale(0.11 -0.11)">
      <defs>
       <path id="STIXGeneral-Regular-2d" d="M 1824 1242 
L 250 1242 
L 250 1645 
L 1824 1645 
L 1824 1242 
z
" transform="scale(0.015625)"/>
      </defs>
      <use xlink:href="#STIXGeneral-Regular-50"/>
      <use xlink:href="#STIXGeneral-Regular-6f" transform="translate(55.699997 0)"/>
      <use xlink:href="#STIXGeneral-Regular-73" transform="translate(105.699982 0)"/>
      <use xlink:href="#STIXGeneral-Regular-69" transform="translate(144.599976 0)"/>
      <use xlink:href="#STIXGeneral-Regular-74" transform="translate(172.399963 0)"/>
      <use xlink:href="#STIXGeneral-Regular-69" transform="translate(200.199951 0)"/>
      <use xlink:href="#STIXGeneral-Regular-76" transform="translate(227.999939 0)"/>
      <use xlink:href="#STIXGeneral-Regular-65" transform="translate(277.999924 0)"/>
      <use xlink:href="#STIXGeneral-Regular-2d" transform="translate(322.399918 0)"/>
      <use xlink:href="#STIXGeneral-Regular-50" transform="translate(355.699905 0)"/>
     </g>
    </g>
   </g>
  </g>
 </g>
 <defs>
  <clipPath id="p86e9777733">
   <rect x="41.7" y="25.28" width="418.5" height="288.288"/>
  </clipPath>
 </defs>
</svg>
