<?xml version="1.0" encoding="utf-8" standalone="no"?>
<!DOCTYPE svg PUBLIC "-//W3C//DTD SVG 1.1//EN"
  "http://www.w3.org/Graphics/SVG/1.1/DTD/svg11.dtd">
<svg xmlns:xlink="http://www.w3.org/1999/xlink" width="460.8pt" height="349.468pt" viewBox="0 0 460.8 349.468" xmlns="http://www.w3.org/2000/svg" version="1.1">
 <metadata>
  <rdf:RDF xmlns:dc="http://purl.org/dc/elements/1.1/" xmlns:cc="http://creativecommons.org/ns#" xmlns:rdf="http://www.w3.org/1999/02/22-rdf-syntax-ns#">
   <cc:Work>
    <dc:type rdf:resource="http://purl.org/dc/dcmitype/StillImage"/>
    <dc:date>2026-04-24T11:40:03.455209</dc:date>
    <dc:format>image/svg+xml</dc:format>
    <dc:creator>
     <cc:Agent>
      <dc:title>Matplotlib v3.10.8, https://matplotlib.org/</dc:title>
     </cc:Agent>
    </dc:creator>
   </cc:Work>
  </rdf:RDF>
 </metadata>
 <defs>
  <style type="text/css">*{stroke-linejoin: round; stroke-linecap: butt}</style>
 </defs>
 <g id="figure_1">
  <g id="patch_1">
   <path d="M 0 349.468 
L 460.8 349.468 
L 460.8 0 
L 0 0 
z
" style="fill: #ffffff"/>
  </g>
  <g id="axes_1">
   <g id="patch_2">
    <path d="M 38.7 313.568 
L 457.2 313.568 
L 457.2 25.28 
L 38.7 25.28 
z
" style="fill: #ffffff"/>
   </g>
   <g id="matplotlib.axis_1">
    <g id="xtick_1">
     <g id="line2d_1">
      <path d="M 57.722727 313.568 
L 57.722727 25.28 
" clip-path="url(#p642ea000e6)" style="fill: none; stroke: #b0b0b0; stroke-opacity: 0.35; stroke-width: 0.5; stroke-linecap: square"/>
     </g>
     <g id="line2d_2">
      <defs>
       <path id="m9569d12706" d="M 0 0 
L 0 -3 
" style="stroke: #000000; stroke-width: 0.5"/>
      </defs>
      <g>
       <use xlink:href="#m9569d12706" x="57.722727" y="313.568" style="stroke: #000000; stroke-width: 0.5"/>
      </g>
     </g>
     <g id="line2d_3">
      <defs>
       <path id="m03a606454e" d="M 0 0 
L 0 3 
" style="stroke: #000000; stroke-width: 0.5"/>
      </defs>
      <g>
       <use xlink:href="#m03a606454e" x="57.722727" y="25.28" style="stroke: #000000; stroke-width: 0.5"/>
      </g>
     </g>
     <g id="text_1">
      <!-- $\mathdefault{0}$ -->
      <g transform="translate(54.722727 325.263625) scale(0.12 -0.12)">
       <defs>
        <path id="STIXGeneral-Regular-30" d="M 3046 2112 
Q 3046 1683 2963 1302 
Q 2880 922 2717 602 
Q 2554 282 2266 96 
Q 1978 -90 1600 -90 
Q 1210 -90 915 108 
Q 621 307 461 640 
Q 301 973 227 1350 
Q 154 1728 154 2150 
Q 154 2746 301 3222 
Q 448 3699 790 4012 
Q 1133 4326 1626 4326 
Q 2253 4326 2649 3712 
Q 3046 3098 3046 2112 
z
M 2432 2080 
Q 2432 3091 2217 3625 
Q 2003 4160 1587 4160 
Q 1190 4160 979 3622 
Q 768 3085 768 2106 
Q 768 1120 979 598 
Q 1190 77 1600 77 
Q 2003 77 2217 598 
Q 2432 1120 2432 2080 
z
" transform="scale(0.015625)"/>
       </defs>
       <use xlink:href="#STIXGeneral-Regular-30" transform="translate(0 0.40625)"/>
      </g>
     </g>
    </g>
    <g id="xtick_2">
     <g id="line2d_4">
      <path d="M 133.813636 313.568 
L 133.813636 25.28 
" clip-path="url(#p642ea000e6)" style="fill: none; stroke: #b0b0b0; stroke-opacity: 0.35; stroke-width: 0.5; stroke-linecap: square"/>
     </g>
     <g id="line2d_5">
      <g>
       <use xlink:href="#m9569d12706" x="133.813636" y="313.568" style="stroke: #000000; stroke-width: 0.5"/>
      </g>
     </g>
     <g id="line2d_6">
      <g>
       <use xlink:href="#m03a606454e" x="133.813636" y="25.28" style="stroke: #000000; stroke-width: 0.5"/>
      </g>
     </g>
     <g id="text_2">
      <!-- $\mathdefault{1}$ -->
      <g transform="translate(130.813636 325.263625) scale(0.12 -0.12)">
       <defs>
        <path id="STIXGeneral-Regular-31" d="M 2522 0 
L 755 0 
L 755 96 
Q 1107 115 1235 227 
Q 1363 339 1363 608 
L 1363 3482 
Q 1363 3795 1171 3795 
Q 1082 3795 883 3718 
L 710 3654 
L 710 3744 
L 1856 4326 
L 1914 4307 
L 1914 486 
Q 1914 275 2042 185 
Q 2170 96 2522 96 
L 2522 0 
z
" transform="scale(0.015625)"/>
       </defs>
       <use xlink:href="#STIXGeneral-Regular-31" transform="translate(0 0.40625)"/>
      </g>
     </g>
    </g>
    <g id="xtick_3">
     <g id="line2d_7">
      <path d="M 209.904545 313.568 
L 209.904545 25.28 
" clip-path="url(#p642ea000e6)" style="fill: none; stroke: #b0b0b0; stroke-opacity: 0.35; stroke-width: 0.5; stroke-linecap: square"/>
     </g>
     <g id="line2d_8">
      <g>
       <use xlink:href="#m9569d12706" x="209.904545" y="313.568" style="stroke: #000000; stroke-width: 0.5"/>
      </g>
     </g>
     <g id="line2d_9">
      <g>
       <use xlink:href="#m03a606454e" x="209.904545" y="25.28" style="stroke: #000000; stroke-width: 0.5"/>
      </g>
     </g>
     <g id="text_3">
      <!-- $\mathdefault{2}$ -->
      <g transform="translate(206.904545 325.263625) scale(0.12 -0.12)">
       <defs>
        <path id="STIXGeneral-Regular-32" d="M 3034 877 
L 2688 0 
L 186 0 
L 186 77 
L 1325 1286 
Q 1773 1754 1965 2144 
Q 2157 2534 2157 2950 
Q 2157 3379 1920 3616 
Q 1683 3853 1267 3853 
Q 922 3853 720 3673 
Q 518 3494 326 3021 
L 192 3053 
Q 301 3648 630 3987 
Q 960 4326 1523 4326 
Q 2054 4326 2380 4006 
Q 2707 3686 2707 3200 
Q 2707 2477 1888 1613 
L 832 486 
L 2330 486 
Q 2541 486 2665 569 
Q 2790 653 2944 915 
L 3034 877 
z
" transform="scale(0.015625)"/>
       </defs>
       <use xlink:href="#STIXGeneral-Regular-32" transform="translate(0 0.40625)"/>
      </g>
     </g>
    </g>
    <g id="xtick_4">
     <g id="line2d_10">
      <path d="M 285.995455 313.568 
L 285.995455 25.28 
" clip-path="url(#p642ea000e6)" style="fill: none; stroke: #b0b0b0; stroke-opacity: 0.35; stroke-width: 0.5; stroke-linecap: square"/>
     </g>
     <g id="line2d_11">
      <g>
       <use xlink:href="#m9569d12706" x="285.995455" y="313.568" style="stroke: #000000; stroke-width: 0.5"/>
      </g>
     </g>
     <g id="line2d_12">
      <g>
       <use xlink:href="#m03a606454e" x="285.995455" y="25.28" style="stroke: #000000; stroke-width: 0.5"/>
      </g>
     </g>
     <g id="text_4">
      <!-- $\mathdefault{3}$ -->
      <g transform="translate(282.995455 325.263625) scale(0.12 -0.12)">
       <defs>
        <path id="STIXGeneral-Regular-33" d="M 390 3264 
L 288 3290 
Q 435 3770 748 4048 
Q 1062 4326 1542 4326 
Q 1990 4326 2265 4083 
Q 2541 3840 2541 3450 
Q 2541 2925 1946 2566 
Q 2298 2413 2477 2227 
Q 2758 1914 2758 1402 
Q 2758 890 2464 506 
Q 2246 211 1840 60 
Q 1434 -90 979 -90 
Q 262 -90 262 275 
Q 262 378 339 442 
Q 416 506 525 506 
Q 685 506 915 339 
Q 1197 141 1466 141 
Q 1818 141 2058 425 
Q 2298 710 2298 1120 
Q 2298 1856 1632 2048 
Q 1434 2112 979 2112 
L 979 2202 
Q 1338 2323 1517 2432 
Q 2035 2726 2035 3290 
Q 2035 3610 1852 3776 
Q 1670 3942 1344 3942 
Q 768 3942 390 3264 
z
" transform="scale(0.015625)"/>
       </defs>
       <use xlink:href="#STIXGeneral-Regular-33" transform="translate(0 0.40625)"/>
      </g>
     </g>
    </g>
    <g id="xtick_5">
     <g id="line2d_13">
      <path d="M 362.086364 313.568 
L 362.086364 25.28 
" clip-path="url(#p642ea000e6)" style="fill: none; stroke: #b0b0b0; stroke-opacity: 0.35; stroke-width: 0.5; stroke-linecap: square"/>
     </g>
     <g id="line2d_14">
      <g>
       <use xlink:href="#m9569d12706" x="362.086364" y="313.568" style="stroke: #000000; stroke-width: 0.5"/>
      </g>
     </g>
     <g id="line2d_15">
      <g>
       <use xlink:href="#m03a606454e" x="362.086364" y="25.28" style="stroke: #000000; stroke-width: 0.5"/>
      </g>
     </g>
     <g id="text_5">
      <!-- $\mathdefault{4}$ -->
      <g transform="translate(359.086364 325.263625) scale(0.12 -0.12)">
       <defs>
        <path id="STIXGeneral-Regular-34" d="M 3027 1069 
L 2368 1069 
L 2368 0 
L 1869 0 
L 1869 1069 
L 77 1069 
L 77 1478 
L 2086 4326 
L 2368 4326 
L 2368 1478 
L 3027 1478 
L 3027 1069 
z
M 1869 1478 
L 1869 3674 
L 333 1478 
L 1869 1478 
z
" transform="scale(0.015625)"/>
       </defs>
       <use xlink:href="#STIXGeneral-Regular-34" transform="translate(0 0.40625)"/>
      </g>
     </g>
    </g>
    <g id="xtick_6">
     <g id="line2d_16">
      <path d="M 438.177273 313.568 
L 438.177273 25.28 
" clip-path="url(#p642ea000e6)" style="fill: none; stroke: #b0b0b0; stroke-opacity: 0.35; stroke-width: 0.5; stroke-linecap: square"/>
     </g>
     <g id="line2d_17">
      <g>
       <use xlink:href="#m9569d12706" x="438.177273" y="313.568" style="stroke: #000000; stroke-width: 0.5"/>
      </g>
     </g>
     <g id="line2d_18">
      <g>
       <use xlink:href="#m03a606454e" x="438.177273" y="25.28" style="stroke: #000000; stroke-width: 0.5"/>
      </g>
     </g>
     <g id="text_6">
      <!-- $\mathdefault{5}$ -->
      <g transform="translate(435.177273 325.263625) scale(0.12 -0.12)">
       <defs>
        <path id="STIXGeneral-Regular-35" d="M 2803 4358 
L 2573 3814 
Q 2534 3731 2400 3731 
L 1158 3731 
L 902 3187 
Q 1606 3053 1920 2896 
Q 2234 2739 2502 2368 
Q 2726 2061 2726 1555 
Q 2726 1094 2576 780 
Q 2426 467 2099 224 
Q 1664 -90 1011 -90 
Q 646 -90 422 19 
Q 198 128 198 307 
Q 198 550 486 550 
Q 717 550 960 352 
Q 1210 147 1414 147 
Q 1747 147 2012 480 
Q 2278 813 2278 1229 
Q 2278 1843 1850 2189 
Q 1293 2637 486 2637 
Q 410 2637 410 2688 
L 416 2720 
L 1114 4237 
L 2438 4237 
Q 2547 4237 2608 4269 
Q 2669 4301 2746 4403 
L 2803 4358 
z
" transform="scale(0.015625)"/>
       </defs>
       <use xlink:href="#STIXGeneral-Regular-35" transform="translate(0 0.203125)"/>
      </g>
     </g>
    </g>
    <g id="xtick_7">
     <g id="line2d_19">
      <defs>
       <path id="mce84ba1853" d="M 0 0 
L 0 -1.5 
" style="stroke: #000000; stroke-width: 0.5"/>
      </defs>
      <g>
       <use xlink:href="#mce84ba1853" x="42.504545" y="313.568" style="stroke: #000000; stroke-width: 0.5"/>
      </g>
     </g>
     <g id="line2d_20">
      <defs>
       <path id="mc9cdf590e9" d="M 0 0 
L 0 1.5 
" style="stroke: #000000; stroke-width: 0.5"/>
      </defs>
      <g>
       <use xlink:href="#mc9cdf590e9" x="42.504545" y="25.28" style="stroke: #000000; stroke-width: 0.5"/>
      </g>
     </g>
    </g>
    <g id="xtick_8">
     <g id="line2d_21">
      <g>
       <use xlink:href="#mce84ba1853" x="72.940909" y="313.568" style="stroke: #000000; stroke-width: 0.5"/>
      </g>
     </g>
     <g id="line2d_22">
      <g>
       <use xlink:href="#mc9cdf590e9" x="72.940909" y="25.28" style="stroke: #000000; stroke-width: 0.5"/>
      </g>
     </g>
    </g>
    <g id="xtick_9">
     <g id="line2d_23">
      <g>
       <use xlink:href="#mce84ba1853" x="88.159091" y="313.568" style="stroke: #000000; stroke-width: 0.5"/>
      </g>
     </g>
     <g id="line2d_24">
      <g>
       <use xlink:href="#mc9cdf590e9" x="88.159091" y="25.28" style="stroke: #000000; stroke-width: 0.5"/>
      </g>
     </g>
    </g>
    <g id="xtick_10">
     <g id="line2d_25">
      <g>
       <use xlink:href="#mce84ba1853" x="103.377273" y="313.568" style="stroke: #000000; stroke-width: 0.5"/>
      </g>
     </g>
     <g id="line2d_26">
      <g>
       <use xlink:href="#mc9cdf590e9" x="103.377273" y="25.28" style="stroke: #000000; stroke-width: 0.5"/>
      </g>
     </g>
    </g>
    <g id="xtick_11">
     <g id="line2d_27">
      <g>
       <use xlink:href="#mce84ba1853" x="118.595455" y="313.568" style="stroke: #000000; stroke-width: 0.5"/>
      </g>
     </g>
     <g id="line2d_28">
      <g>
       <use xlink:href="#mc9cdf590e9" x="118.595455" y="25.28" style="stroke: #000000; stroke-width: 0.5"/>
      </g>
     </g>
    </g>
    <g id="xtick_12">
     <g id="line2d_29">
      <g>
       <use xlink:href="#mce84ba1853" x="149.031818" y="313.568" style="stroke: #000000; stroke-width: 0.5"/>
      </g>
     </g>
     <g id="line2d_30">
      <g>
       <use xlink:href="#mc9cdf590e9" x="149.031818" y="25.28" style="stroke: #000000; stroke-width: 0.5"/>
      </g>
     </g>
    </g>
    <g id="xtick_13">
     <g id="line2d_31">
      <g>
       <use xlink:href="#mce84ba1853" x="164.25" y="313.568" style="stroke: #000000; stroke-width: 0.5"/>
      </g>
     </g>
     <g id="line2d_32">
      <g>
       <use xlink:href="#mc9cdf590e9" x="164.25" y="25.28" style="stroke: #000000; stroke-width: 0.5"/>
      </g>
     </g>
    </g>
    <g id="xtick_14">
     <g id="line2d_33">
      <g>
       <use xlink:href="#mce84ba1853" x="179.468182" y="313.568" style="stroke: #000000; stroke-width: 0.5"/>
      </g>
     </g>
     <g id="line2d_34">
      <g>
       <use xlink:href="#mc9cdf590e9" x="179.468182" y="25.28" style="stroke: #000000; stroke-width: 0.5"/>
      </g>
     </g>
    </g>
    <g id="xtick_15">
     <g id="line2d_35">
      <g>
       <use xlink:href="#mce84ba1853" x="194.686364" y="313.568" style="stroke: #000000; stroke-width: 0.5"/>
      </g>
     </g>
     <g id="line2d_36">
      <g>
       <use xlink:href="#mc9cdf590e9" x="194.686364" y="25.28" style="stroke: #000000; stroke-width: 0.5"/>
      </g>
     </g>
    </g>
    <g id="xtick_16">
     <g id="line2d_37">
      <g>
       <use xlink:href="#mce84ba1853" x="225.122727" y="313.568" style="stroke: #000000; stroke-width: 0.5"/>
      </g>
     </g>
     <g id="line2d_38">
      <g>
       <use xlink:href="#mc9cdf590e9" x="225.122727" y="25.28" style="stroke: #000000; stroke-width: 0.5"/>
      </g>
     </g>
    </g>
    <g id="xtick_17">
     <g id="line2d_39">
      <g>
       <use xlink:href="#mce84ba1853" x="240.340909" y="313.568" style="stroke: #000000; stroke-width: 0.5"/>
      </g>
     </g>
     <g id="line2d_40">
      <g>
       <use xlink:href="#mc9cdf590e9" x="240.340909" y="25.28" style="stroke: #000000; stroke-width: 0.5"/>
      </g>
     </g>
    </g>
    <g id="xtick_18">
     <g id="line2d_41">
      <g>
       <use xlink:href="#mce84ba1853" x="255.559091" y="313.568" style="stroke: #000000; stroke-width: 0.5"/>
      </g>
     </g>
     <g id="line2d_42">
      <g>
       <use xlink:href="#mc9cdf590e9" x="255.559091" y="25.28" style="stroke: #000000; stroke-width: 0.5"/>
      </g>
     </g>
    </g>
    <g id="xtick_19">
     <g id="line2d_43">
      <g>
       <use xlink:href="#mce84ba1853" x="270.777273" y="313.568" style="stroke: #000000; stroke-width: 0.5"/>
      </g>
     </g>
     <g id="line2d_44">
      <g>
       <use xlink:href="#mc9cdf590e9" x="270.777273" y="25.28" style="stroke: #000000; stroke-width: 0.5"/>
      </g>
     </g>
    </g>
    <g id="xtick_20">
     <g id="line2d_45">
      <g>
       <use xlink:href="#mce84ba1853" x="301.213636" y="313.568" style="stroke: #000000; stroke-width: 0.5"/>
      </g>
     </g>
     <g id="line2d_46">
      <g>
       <use xlink:href="#mc9cdf590e9" x="301.213636" y="25.28" style="stroke: #000000; stroke-width: 0.5"/>
      </g>
     </g>
    </g>
    <g id="xtick_21">
     <g id="line2d_47">
      <g>
       <use xlink:href="#mce84ba1853" x="316.431818" y="313.568" style="stroke: #000000; stroke-width: 0.5"/>
      </g>
     </g>
     <g id="line2d_48">
      <g>
       <use xlink:href="#mc9cdf590e9" x="316.431818" y="25.28" style="stroke: #000000; stroke-width: 0.5"/>
      </g>
     </g>
    </g>
    <g id="xtick_22">
     <g id="line2d_49">
      <g>
       <use xlink:href="#mce84ba1853" x="331.65" y="313.568" style="stroke: #000000; stroke-width: 0.5"/>
      </g>
     </g>
     <g id="line2d_50">
      <g>
       <use xlink:href="#mc9cdf590e9" x="331.65" y="25.28" style="stroke: #000000; stroke-width: 0.5"/>
      </g>
     </g>
    </g>
    <g id="xtick_23">
     <g id="line2d_51">
      <g>
       <use xlink:href="#mce84ba1853" x="346.868182" y="313.568" style="stroke: #000000; stroke-width: 0.5"/>
      </g>
     </g>
     <g id="line2d_52">
      <g>
       <use xlink:href="#mc9cdf590e9" x="346.868182" y="25.28" style="stroke: #000000; stroke-width: 0.5"/>
      </g>
     </g>
    </g>
    <g id="xtick_24">
     <g id="line2d_53">
      <g>
       <use xlink:href="#mce84ba1853" x="377.304545" y="313.568" style="stroke: #000000; stroke-width: 0.5"/>
      </g>
     </g>
     <g id="line2d_54">
      <g>
       <use xlink:href="#mc9cdf590e9" x="377.304545" y="25.28" style="stroke: #000000; stroke-width: 0.5"/>
      </g>
     </g>
    </g>
    <g id="xtick_25">
     <g id="line2d_55">
      <g>
       <use xlink:href="#mce84ba1853" x="392.522727" y="313.568" style="stroke: #000000; stroke-width: 0.5"/>
      </g>
     </g>
     <g id="line2d_56">
      <g>
       <use xlink:href="#mc9cdf590e9" x="392.522727" y="25.28" style="stroke: #000000; stroke-width: 0.5"/>
      </g>
     </g>
    </g>
    <g id="xtick_26">
     <g id="line2d_57">
      <g>
       <use xlink:href="#mce84ba1853" x="407.740909" y="313.568" style="stroke: #000000; stroke-width: 0.5"/>
      </g>
     </g>
     <g id="line2d_58">
      <g>
       <use xlink:href="#mc9cdf590e9" x="407.740909" y="25.28" style="stroke: #000000; stroke-width: 0.5"/>
      </g>
     </g>
    </g>
    <g id="xtick_27">
     <g id="line2d_59">
      <g>
       <use xlink:href="#mce84ba1853" x="422.959091" y="313.568" style="stroke: #000000; stroke-width: 0.5"/>
      </g>
     </g>
     <g id="line2d_60">
      <g>
       <use xlink:href="#mc9cdf590e9" x="422.959091" y="25.28" style="stroke: #000000; stroke-width: 0.5"/>
      </g>
     </g>
    </g>
    <g id="xtick_28">
     <g id="line2d_61">
      <g>
       <use xlink:href="#mce84ba1853" x="453.395455" y="313.568" style="stroke: #000000; stroke-width: 0.5"/>
      </g>
     </g>
     <g id="line2d_62">
      <g>
       <use xlink:href="#mc9cdf590e9" x="453.395455" y="25.28" style="stroke: #000000; stroke-width: 0.5"/>
      </g>
     </g>
    </g>
    <g id="text_7">
     <!-- $t/\gamma$ -->
     <g transform="translate(238.29 342.368) scale(0.14 -0.14)">
      <defs>
       <path id="Cmmi10-74" d="M 397 519 
Q 397 613 416 697 
L 878 2534 
L 206 2534 
Q 141 2534 141 2619 
Q 166 2759 225 2759 
L 934 2759 
L 1191 3803 
Q 1216 3888 1291 3947 
Q 1366 4006 1459 4006 
Q 1541 4006 1595 3957 
Q 1650 3909 1650 3828 
Q 1650 3809 1648 3798 
Q 1647 3788 1644 3775 
L 1388 2759 
L 2047 2759 
Q 2113 2759 2113 2675 
Q 2109 2659 2100 2621 
Q 2091 2584 2075 2559 
Q 2059 2534 2028 2534 
L 1331 2534 
L 872 684 
Q 825 503 825 372 
Q 825 97 1013 97 
Q 1294 97 1511 361 
Q 1728 625 1844 941 
Q 1869 978 1894 978 
L 1972 978 
Q 1997 978 2012 961 
Q 2028 944 2028 922 
Q 2028 909 2022 903 
Q 1881 516 1612 222 
Q 1344 -72 997 -72 
Q 744 -72 570 93 
Q 397 259 397 519 
z
" transform="scale(0.015625)"/>
       <path id="Cmmi10-3d" d="M 359 -1472 
Q 359 -1453 366 -1447 
L 2591 4722 
Q 2603 4759 2634 4779 
Q 2666 4800 2706 4800 
Q 2763 4800 2798 4765 
Q 2834 4731 2834 4672 
L 2834 4647 
L 609 -1522 
Q 572 -1600 488 -1600 
Q 434 -1600 396 -1562 
Q 359 -1525 359 -1472 
z
" transform="scale(0.015625)"/>
       <path id="Cmmi10-b0" d="M 1888 -1253 
Q 1888 -1109 1952 -834 
Q 2016 -559 2108 -248 
Q 2200 63 2266 263 
Q 2291 581 2291 744 
Q 2291 1156 2209 1511 
Q 2128 1866 1903 2105 
Q 1678 2344 1275 2344 
Q 1063 2344 852 2253 
Q 641 2163 489 2000 
Q 338 1838 281 1631 
Q 269 1594 231 1594 
L 153 1594 
Q 103 1594 103 1650 
L 103 1672 
Q 175 1959 358 2226 
Q 541 2494 805 2661 
Q 1069 2828 1363 2828 
Q 1663 2828 1881 2625 
Q 2100 2422 2231 2109 
Q 2363 1797 2420 1478 
Q 2478 1159 2478 878 
Q 2800 1753 3200 2534 
L 3297 2741 
Q 3316 2759 3341 2759 
L 3419 2759 
Q 3469 2759 3469 2700 
Q 3469 2688 3456 2663 
L 3359 2463 
Q 3081 1909 2848 1340 
Q 2616 772 2450 244 
Q 2425 28 2354 -347 
Q 2284 -722 2184 -1045 
Q 2084 -1369 1984 -1381 
Q 1888 -1381 1888 -1253 
z
" transform="scale(0.015625)"/>
      </defs>
      <use xlink:href="#Cmmi10-74"/>
      <use xlink:href="#Cmmi10-3d" transform="translate(36.083984 0)"/>
      <use xlink:href="#Cmmi10-b0" transform="translate(86.083984 0)"/>
     </g>
    </g>
   </g>
   <g id="matplotlib.axis_2">
    <g id="ytick_1">
     <g id="line2d_63">
      <path d="M 38.7 295.371971 
L 457.2 295.371971 
" clip-path="url(#p642ea000e6)" style="fill: none; stroke: #b0b0b0; stroke-opacity: 0.35; stroke-width: 0.5; stroke-linecap: square"/>
     </g>
     <g id="line2d_64">
      <defs>
       <path id="m0c25a6996c" d="M 0 0 
L 3 0 
" style="stroke: #000000; stroke-width: 0.5"/>
      </defs>
      <g>
       <use xlink:href="#m0c25a6996c" x="38.7" y="295.371971" style="stroke: #000000; stroke-width: 0.5"/>
      </g>
     </g>
     <g id="line2d_65">
      <defs>
       <path id="m2a0587c1be" d="M 0 0 
L -3 0 
" style="stroke: #000000; stroke-width: 0.5"/>
      </defs>
      <g>
       <use xlink:href="#m2a0587c1be" x="457.2" y="295.371971" style="stroke: #000000; stroke-width: 0.5"/>
      </g>
     </g>
     <g id="text_8">
      <!-- $\mathdefault{0.0}$ -->
      <g transform="translate(20.2 299.469783) scale(0.12 -0.12)">
       <defs>
        <path id="STIXGeneral-Regular-2e" d="M 1158 275 
Q 1158 134 1052 32 
Q 947 -70 800 -70 
Q 653 -70 550 32 
Q 448 134 448 281 
Q 448 429 553 534 
Q 659 640 806 640 
Q 947 640 1052 531 
Q 1158 422 1158 275 
z
" transform="scale(0.015625)"/>
       </defs>
       <use xlink:href="#STIXGeneral-Regular-30" transform="translate(0 0.40625)"/>
       <use xlink:href="#STIXGeneral-Regular-2e" transform="translate(49.999985 0.40625)"/>
       <use xlink:href="#STIXGeneral-Regular-30" transform="translate(74.999969 0.40625)"/>
      </g>
     </g>
    </g>
    <g id="ytick_2">
     <g id="line2d_66">
      <path d="M 38.7 245.329963 
L 457.2 245.329963 
" clip-path="url(#p642ea000e6)" style="fill: none; stroke: #b0b0b0; stroke-opacity: 0.35; stroke-width: 0.5; stroke-linecap: square"/>
     </g>
     <g id="line2d_67">
      <g>
       <use xlink:href="#m0c25a6996c" x="38.7" y="245.329963" style="stroke: #000000; stroke-width: 0.5"/>
      </g>
     </g>
     <g id="line2d_68">
      <g>
       <use xlink:href="#m2a0587c1be" x="457.2" y="245.329963" style="stroke: #000000; stroke-width: 0.5"/>
      </g>
     </g>
     <g id="text_9">
      <!-- $\mathdefault{0.2}$ -->
      <g transform="translate(20.2 249.427775) scale(0.12 -0.12)">
       <use xlink:href="#STIXGeneral-Regular-30" transform="translate(0 0.40625)"/>
       <use xlink:href="#STIXGeneral-Regular-2e" transform="translate(49.999985 0.40625)"/>
       <use xlink:href="#STIXGeneral-Regular-32" transform="translate(74.999969 0.40625)"/>
      </g>
     </g>
    </g>
    <g id="ytick_3">
     <g id="line2d_69">
      <path d="M 38.7 195.287955 
L 457.2 195.287955 
" clip-path="url(#p642ea000e6)" style="fill: none; stroke: #b0b0b0; stroke-opacity: 0.35; stroke-width: 0.5; stroke-linecap: square"/>
     </g>
     <g id="line2d_70">
      <g>
       <use xlink:href="#m0c25a6996c" x="38.7" y="195.287955" style="stroke: #000000; stroke-width: 0.5"/>
      </g>
     </g>
     <g id="line2d_71">
      <g>
       <use xlink:href="#m2a0587c1be" x="457.2" y="195.287955" style="stroke: #000000; stroke-width: 0.5"/>
      </g>
     </g>
     <g id="text_10">
      <!-- $\mathdefault{0.4}$ -->
      <g transform="translate(20.2 199.385767) scale(0.12 -0.12)">
       <use xlink:href="#STIXGeneral-Regular-30" transform="translate(0 0.40625)"/>
       <use xlink:href="#STIXGeneral-Regular-2e" transform="translate(49.999985 0.40625)"/>
       <use xlink:href="#STIXGeneral-Regular-34" transform="translate(74.999969 0.40625)"/>
      </g>
     </g>
    </g>
    <g id="ytick_4">
     <g id="line2d_72">
      <path d="M 38.7 145.245947 
L 457.2 145.245947 
" clip-path="url(#p642ea000e6)" style="fill: none; stroke: #b0b0b0; stroke-opacity: 0.35; stroke-width: 0.5; stroke-linecap: square"/>
     </g>
     <g id="line2d_73">
      <g>
       <use xlink:href="#m0c25a6996c" x="38.7" y="145.245947" style="stroke: #000000; stroke-width: 0.5"/>
      </g>
     </g>
     <g id="line2d_74">
      <g>
       <use xlink:href="#m2a0587c1be" x="457.2" y="145.245947" style="stroke: #000000; stroke-width: 0.5"/>
      </g>
     </g>
     <g id="text_11">
      <!-- $\mathdefault{0.6}$ -->
      <g transform="translate(20.2 149.34376) scale(0.12 -0.12)">
       <defs>
        <path id="STIXGeneral-Regular-36" d="M 2854 4378 
L 2867 4275 
Q 2112 4154 1606 3664 
Q 1101 3174 973 2451 
Q 1344 2739 1786 2739 
Q 2349 2739 2672 2380 
Q 2995 2022 2995 1402 
Q 2995 774 2669 378 
Q 2291 -90 1651 -90 
Q 870 -90 518 557 
Q 218 1107 218 1786 
Q 218 2835 915 3552 
Q 1312 3962 1731 4131 
Q 2150 4301 2854 4378 
z
M 2419 1203 
Q 2419 2445 1555 2445 
Q 1235 2445 1024 2275 
Q 813 2106 813 1702 
Q 813 954 1046 522 
Q 1280 90 1722 90 
Q 2061 90 2240 394 
Q 2419 698 2419 1203 
z
" transform="scale(0.015625)"/>
       </defs>
       <use xlink:href="#STIXGeneral-Regular-30" transform="translate(0 0.59375)"/>
       <use xlink:href="#STIXGeneral-Regular-2e" transform="translate(49.999985 0.59375)"/>
       <use xlink:href="#STIXGeneral-Regular-36" transform="translate(74.999969 0.59375)"/>
      </g>
     </g>
    </g>
    <g id="ytick_5">
     <g id="line2d_75">
      <path d="M 38.7 95.203939 
L 457.2 95.203939 
" clip-path="url(#p642ea000e6)" style="fill: none; stroke: #b0b0b0; stroke-opacity: 0.35; stroke-width: 0.5; stroke-linecap: square"/>
     </g>
     <g id="line2d_76">
      <g>
       <use xlink:href="#m0c25a6996c" x="38.7" y="95.203939" style="stroke: #000000; stroke-width: 0.5"/>
      </g>
     </g>
     <g id="line2d_77">
      <g>
       <use xlink:href="#m2a0587c1be" x="457.2" y="95.203939" style="stroke: #000000; stroke-width: 0.5"/>
      </g>
     </g>
     <g id="text_12">
      <!-- $\mathdefault{0.8}$ -->
      <g transform="translate(20.2 99.301752) scale(0.12 -0.12)">
       <defs>
        <path id="STIXGeneral-Regular-38" d="M 2848 992 
Q 2848 499 2505 204 
Q 2163 -90 1587 -90 
Q 1050 -90 704 204 
Q 358 499 358 954 
Q 358 1293 524 1533 
Q 691 1773 1190 2125 
Q 710 2522 553 2765 
Q 397 3008 397 3328 
Q 397 3782 745 4054 
Q 1094 4326 1638 4326 
Q 2106 4326 2410 4060 
Q 2714 3795 2714 3411 
Q 2714 3059 2531 2848 
Q 2349 2637 1856 2374 
Q 2432 1990 2640 1689 
Q 2848 1389 2848 992 
z
M 2272 3411 
Q 2272 3744 2086 3945 
Q 1901 4147 1574 4147 
Q 1248 4147 1059 3977 
Q 870 3808 870 3513 
Q 870 3219 1059 2979 
Q 1248 2739 1670 2490 
Q 1997 2682 2134 2896 
Q 2272 3110 2272 3411 
z
M 1734 1741 
L 1357 1997 
Q 1075 1766 960 1545 
Q 845 1325 845 1011 
Q 845 576 1065 333 
Q 1286 90 1658 90 
Q 1971 90 2166 285 
Q 2362 480 2362 794 
Q 2362 1082 2214 1299 
Q 2067 1517 1734 1741 
z
" transform="scale(0.015625)"/>
       </defs>
       <use xlink:href="#STIXGeneral-Regular-30" transform="translate(0 0.40625)"/>
       <use xlink:href="#STIXGeneral-Regular-2e" transform="translate(49.999985 0.40625)"/>
       <use xlink:href="#STIXGeneral-Regular-38" transform="translate(74.999969 0.40625)"/>
      </g>
     </g>
    </g>
    <g id="ytick_6">
     <g id="line2d_78">
      <path d="M 38.7 45.161931 
L 457.2 45.161931 
" clip-path="url(#p642ea000e6)" style="fill: none; stroke: #b0b0b0; stroke-opacity: 0.35; stroke-width: 0.5; stroke-linecap: square"/>
     </g>
     <g id="line2d_79">
      <g>
       <use xlink:href="#m0c25a6996c" x="38.7" y="45.161931" style="stroke: #000000; stroke-width: 0.5"/>
      </g>
     </g>
     <g id="line2d_80">
      <g>
       <use xlink:href="#m2a0587c1be" x="457.2" y="45.161931" style="stroke: #000000; stroke-width: 0.5"/>
      </g>
     </g>
     <g id="text_13">
      <!-- $\mathdefault{1.0}$ -->
      <g transform="translate(20.2 49.259744) scale(0.12 -0.12)">
       <use xlink:href="#STIXGeneral-Regular-31" transform="translate(0 0.40625)"/>
       <use xlink:href="#STIXGeneral-Regular-2e" transform="translate(49.999985 0.40625)"/>
       <use xlink:href="#STIXGeneral-Regular-30" transform="translate(74.999969 0.40625)"/>
      </g>
     </g>
    </g>
    <g id="ytick_7">
     <g id="line2d_81">
      <defs>
       <path id="m479ad0f263" d="M 0 0 
L 1.5 0 
" style="stroke: #000000; stroke-width: 0.5"/>
      </defs>
      <g>
       <use xlink:href="#m479ad0f263" x="38.7" y="307.882473" style="stroke: #000000; stroke-width: 0.5"/>
      </g>
     </g>
     <g id="line2d_82">
      <defs>
       <path id="m09412b6fa9" d="M 0 0 
L -1.5 0 
" style="stroke: #000000; stroke-width: 0.5"/>
      </defs>
      <g>
       <use xlink:href="#m09412b6fa9" x="457.2" y="307.882473" style="stroke: #000000; stroke-width: 0.5"/>
      </g>
     </g>
    </g>
    <g id="ytick_8">
     <g id="line2d_83">
      <g>
       <use xlink:href="#m479ad0f263" x="38.7" y="282.861469" style="stroke: #000000; stroke-width: 0.5"/>
      </g>
     </g>
     <g id="line2d_84">
      <g>
       <use xlink:href="#m09412b6fa9" x="457.2" y="282.861469" style="stroke: #000000; stroke-width: 0.5"/>
      </g>
     </g>
    </g>
    <g id="ytick_9">
     <g id="line2d_85">
      <g>
       <use xlink:href="#m479ad0f263" x="38.7" y="270.350967" style="stroke: #000000; stroke-width: 0.5"/>
      </g>
     </g>
     <g id="line2d_86">
      <g>
       <use xlink:href="#m09412b6fa9" x="457.2" y="270.350967" style="stroke: #000000; stroke-width: 0.5"/>
      </g>
     </g>
    </g>
    <g id="ytick_10">
     <g id="line2d_87">
      <g>
       <use xlink:href="#m479ad0f263" x="38.7" y="257.840465" style="stroke: #000000; stroke-width: 0.5"/>
      </g>
     </g>
     <g id="line2d_88">
      <g>
       <use xlink:href="#m09412b6fa9" x="457.2" y="257.840465" style="stroke: #000000; stroke-width: 0.5"/>
      </g>
     </g>
    </g>
    <g id="ytick_11">
     <g id="line2d_89">
      <g>
       <use xlink:href="#m479ad0f263" x="38.7" y="232.819461" style="stroke: #000000; stroke-width: 0.5"/>
      </g>
     </g>
     <g id="line2d_90">
      <g>
       <use xlink:href="#m09412b6fa9" x="457.2" y="232.819461" style="stroke: #000000; stroke-width: 0.5"/>
      </g>
     </g>
    </g>
    <g id="ytick_12">
     <g id="line2d_91">
      <g>
       <use xlink:href="#m479ad0f263" x="38.7" y="220.308959" style="stroke: #000000; stroke-width: 0.5"/>
      </g>
     </g>
     <g id="line2d_92">
      <g>
       <use xlink:href="#m09412b6fa9" x="457.2" y="220.308959" style="stroke: #000000; stroke-width: 0.5"/>
      </g>
     </g>
    </g>
    <g id="ytick_13">
     <g id="line2d_93">
      <g>
       <use xlink:href="#m479ad0f263" x="38.7" y="207.798457" style="stroke: #000000; stroke-width: 0.5"/>
      </g>
     </g>
     <g id="line2d_94">
      <g>
       <use xlink:href="#m09412b6fa9" x="457.2" y="207.798457" style="stroke: #000000; stroke-width: 0.5"/>
      </g>
     </g>
    </g>
    <g id="ytick_14">
     <g id="line2d_95">
      <g>
       <use xlink:href="#m479ad0f263" x="38.7" y="182.777453" style="stroke: #000000; stroke-width: 0.5"/>
      </g>
     </g>
     <g id="line2d_96">
      <g>
       <use xlink:href="#m09412b6fa9" x="457.2" y="182.777453" style="stroke: #000000; stroke-width: 0.5"/>
      </g>
     </g>
    </g>
    <g id="ytick_15">
     <g id="line2d_97">
      <g>
       <use xlink:href="#m479ad0f263" x="38.7" y="170.266951" style="stroke: #000000; stroke-width: 0.5"/>
      </g>
     </g>
     <g id="line2d_98">
      <g>
       <use xlink:href="#m09412b6fa9" x="457.2" y="170.266951" style="stroke: #000000; stroke-width: 0.5"/>
      </g>
     </g>
    </g>
    <g id="ytick_16">
     <g id="line2d_99">
      <g>
       <use xlink:href="#m479ad0f263" x="38.7" y="157.756449" style="stroke: #000000; stroke-width: 0.5"/>
      </g>
     </g>
     <g id="line2d_100">
      <g>
       <use xlink:href="#m09412b6fa9" x="457.2" y="157.756449" style="stroke: #000000; stroke-width: 0.5"/>
      </g>
     </g>
    </g>
    <g id="ytick_17">
     <g id="line2d_101">
      <g>
       <use xlink:href="#m479ad0f263" x="38.7" y="132.735445" style="stroke: #000000; stroke-width: 0.5"/>
      </g>
     </g>
     <g id="line2d_102">
      <g>
       <use xlink:href="#m09412b6fa9" x="457.2" y="132.735445" style="stroke: #000000; stroke-width: 0.5"/>
      </g>
     </g>
    </g>
    <g id="ytick_18">
     <g id="line2d_103">
      <g>
       <use xlink:href="#m479ad0f263" x="38.7" y="120.224943" style="stroke: #000000; stroke-width: 0.5"/>
      </g>
     </g>
     <g id="line2d_104">
      <g>
       <use xlink:href="#m09412b6fa9" x="457.2" y="120.224943" style="stroke: #000000; stroke-width: 0.5"/>
      </g>
     </g>
    </g>
    <g id="ytick_19">
     <g id="line2d_105">
      <g>
       <use xlink:href="#m479ad0f263" x="38.7" y="107.714441" style="stroke: #000000; stroke-width: 0.5"/>
      </g>
     </g>
     <g id="line2d_106">
      <g>
       <use xlink:href="#m09412b6fa9" x="457.2" y="107.714441" style="stroke: #000000; stroke-width: 0.5"/>
      </g>
     </g>
    </g>
    <g id="ytick_20">
     <g id="line2d_107">
      <g>
       <use xlink:href="#m479ad0f263" x="38.7" y="82.693437" style="stroke: #000000; stroke-width: 0.5"/>
      </g>
     </g>
     <g id="line2d_108">
      <g>
       <use xlink:href="#m09412b6fa9" x="457.2" y="82.693437" style="stroke: #000000; stroke-width: 0.5"/>
      </g>
     </g>
    </g>
    <g id="ytick_21">
     <g id="line2d_109">
      <g>
       <use xlink:href="#m479ad0f263" x="38.7" y="70.182935" style="stroke: #000000; stroke-width: 0.5"/>
      </g>
     </g>
     <g id="line2d_110">
      <g>
       <use xlink:href="#m09412b6fa9" x="457.2" y="70.182935" style="stroke: #000000; stroke-width: 0.5"/>
      </g>
     </g>
    </g>
    <g id="ytick_22">
     <g id="line2d_111">
      <g>
       <use xlink:href="#m479ad0f263" x="38.7" y="57.672433" style="stroke: #000000; stroke-width: 0.5"/>
      </g>
     </g>
     <g id="line2d_112">
      <g>
       <use xlink:href="#m09412b6fa9" x="457.2" y="57.672433" style="stroke: #000000; stroke-width: 0.5"/>
      </g>
     </g>
    </g>
    <g id="ytick_23">
     <g id="line2d_113">
      <g>
       <use xlink:href="#m479ad0f263" x="38.7" y="32.651429" style="stroke: #000000; stroke-width: 0.5"/>
      </g>
     </g>
     <g id="line2d_114">
      <g>
       <use xlink:href="#m09412b6fa9" x="457.2" y="32.651429" style="stroke: #000000; stroke-width: 0.5"/>
      </g>
     </g>
    </g>
    <g id="text_14">
     <!-- Mean Particle Number -->
     <g transform="translate(13.161563 233.196187) rotate(-90) scale(0.14 -0.14)">
      <defs>
       <path id="STIXGeneral-Regular-4d" d="M 5530 0 
L 3738 0 
L 3738 122 
Q 4115 147 4214 265 
Q 4314 384 4314 787 
L 4314 3661 
L 2682 0 
L 2592 0 
L 979 3514 
L 979 966 
Q 979 448 1088 294 
Q 1197 141 1574 122 
L 1574 0 
L 77 0 
L 77 122 
Q 358 141 480 205 
Q 602 269 650 432 
Q 698 595 698 966 
L 698 3514 
Q 698 3878 589 3984 
Q 480 4090 90 4115 
L 90 4237 
L 1357 4237 
L 2835 1024 
L 4250 4237 
L 5523 4237 
L 5523 4115 
Q 5178 4109 5072 3993 
Q 4966 3878 4966 3520 
L 4966 717 
Q 4966 378 5072 262 
Q 5178 147 5530 122 
L 5530 0 
z
" transform="scale(0.015625)"/>
       <path id="STIXGeneral-Regular-65" d="M 2611 1050 
L 2714 1005 
Q 2330 -64 1376 -64 
Q 813 -64 486 329 
Q 160 723 160 1389 
Q 160 2074 525 2509 
Q 890 2944 1485 2944 
Q 2061 2944 2374 2502 
Q 2560 2246 2592 1773 
L 621 1773 
Q 646 1370 700 1158 
Q 755 947 915 730 
Q 1184 378 1626 378 
Q 1939 378 2153 531 
Q 2368 685 2611 1050 
z
M 634 1978 
L 1939 1978 
Q 1882 2381 1750 2547 
Q 1619 2714 1312 2714 
Q 1043 2714 864 2525 
Q 685 2336 634 1978 
z
" transform="scale(0.015625)"/>
       <path id="STIXGeneral-Regular-61" d="M 2829 422 
L 2829 243 
Q 2586 -64 2253 -64 
Q 1888 -64 1843 403 
L 1837 403 
Q 1427 -64 909 -64 
Q 608 -64 422 112 
Q 237 288 237 602 
Q 237 1050 685 1350 
Q 992 1555 1837 1869 
L 1837 2214 
Q 1837 2502 1699 2646 
Q 1562 2790 1338 2790 
Q 1146 2790 1018 2697 
Q 890 2605 890 2477 
Q 890 2419 909 2348 
Q 928 2278 928 2208 
Q 928 2112 841 2029 
Q 755 1946 634 1946 
Q 525 1946 441 2029 
Q 358 2112 358 2240 
Q 358 2547 685 2752 
Q 986 2944 1421 2944 
Q 1939 2944 2176 2656 
Q 2291 2522 2323 2384 
Q 2355 2246 2355 1946 
L 2355 723 
Q 2355 301 2554 301 
Q 2682 301 2829 422 
z
M 1837 813 
L 1837 1715 
Q 1248 1510 1018 1293 
Q 800 1094 800 800 
Q 800 557 921 432 
Q 1043 307 1242 307 
Q 1453 307 1613 410 
Q 1747 506 1792 589 
Q 1837 672 1837 813 
z
" transform="scale(0.015625)"/>
       <path id="STIXGeneral-Regular-6e" d="M 3104 0 
L 1773 0 
L 1779 96 
Q 2016 115 2096 233 
Q 2176 352 2176 672 
L 2176 1946 
Q 2176 2592 1709 2592 
Q 1549 2592 1408 2515 
Q 1267 2438 1050 2227 
L 1050 461 
Q 1050 269 1136 192 
Q 1222 115 1466 96 
L 1466 0 
L 115 0 
L 115 96 
Q 358 115 435 214 
Q 512 314 512 602 
L 512 2157 
Q 512 2394 467 2483 
Q 422 2573 288 2573 
Q 160 2573 102 2547 
L 102 2656 
Q 550 2784 979 2944 
L 1030 2925 
L 1030 2426 
L 1037 2426 
Q 1491 2944 1958 2944 
Q 2323 2944 2518 2688 
Q 2714 2432 2714 1958 
L 2714 544 
Q 2714 288 2790 205 
Q 2867 122 3104 96 
L 3104 0 
z
" transform="scale(0.015625)"/>
       <path id="STIXGeneral-Regular-20" transform="scale(0.015625)"/>
       <path id="STIXGeneral-Regular-50" d="M 102 4237 
L 1760 4237 
Q 2669 4237 3149 3834 
Q 3469 3565 3469 3072 
Q 3469 2560 3104 2234 
Q 2835 1990 2553 1916 
Q 2272 1843 1734 1843 
Q 1549 1843 1293 1862 
L 1293 717 
Q 1293 352 1398 246 
Q 1504 141 1894 122 
L 1894 0 
L 102 0 
L 102 122 
Q 474 147 557 256 
Q 640 365 640 781 
L 640 3526 
Q 640 3885 547 3987 
Q 454 4090 102 4115 
L 102 4237 
z
M 1293 3770 
L 1293 2118 
Q 1510 2099 1683 2099 
Q 2202 2099 2486 2352 
Q 2771 2605 2771 3040 
Q 2771 3558 2476 3779 
Q 2182 4000 1517 4000 
Q 1382 4000 1337 3952 
Q 1293 3904 1293 3770 
z
" transform="scale(0.015625)"/>
       <path id="STIXGeneral-Regular-72" d="M 1024 2931 
L 1024 2342 
Q 1267 2688 1430 2816 
Q 1594 2944 1792 2944 
Q 1958 2944 2051 2854 
Q 2144 2765 2144 2605 
Q 2144 2470 2077 2393 
Q 2010 2317 1894 2317 
Q 1773 2317 1638 2445 
Q 1536 2541 1472 2541 
Q 1338 2541 1181 2355 
Q 1024 2170 1024 2016 
L 1024 576 
Q 1024 301 1133 205 
Q 1242 109 1568 96 
L 1568 0 
L 32 0 
L 32 96 
Q 339 154 412 224 
Q 486 294 486 538 
L 486 2138 
Q 486 2349 438 2435 
Q 390 2522 269 2522 
Q 166 2522 45 2496 
L 45 2598 
Q 448 2726 992 2944 
L 1024 2931 
z
" transform="scale(0.015625)"/>
       <path id="STIXGeneral-Regular-74" d="M 1702 493 
L 1786 422 
Q 1478 -64 1011 -64 
Q 448 -64 448 749 
L 448 2675 
L 109 2675 
Q 83 2694 83 2720 
Q 83 2771 192 2842 
Q 435 2982 813 3526 
Q 826 3546 874 3606 
Q 922 3667 941 3706 
Q 986 3706 986 3622 
L 986 2880 
L 1632 2880 
L 1632 2675 
L 986 2675 
L 986 845 
Q 986 538 1062 403 
Q 1139 269 1318 269 
Q 1510 269 1702 493 
z
" transform="scale(0.015625)"/>
       <path id="STIXGeneral-Regular-69" d="M 1152 4045 
Q 1152 3904 1056 3811 
Q 960 3718 819 3718 
Q 685 3718 592 3811 
Q 499 3904 499 4045 
Q 499 4179 595 4275 
Q 691 4371 826 4371 
Q 966 4371 1059 4275 
Q 1152 4179 1152 4045 
z
M 1619 0 
L 102 0 
L 102 96 
Q 435 115 521 211 
Q 608 307 608 666 
L 608 2118 
Q 608 2342 563 2432 
Q 518 2522 397 2522 
Q 243 2522 128 2490 
L 128 2592 
L 1120 2944 
L 1146 2918 
L 1146 672 
Q 1146 314 1226 218 
Q 1306 122 1619 96 
L 1619 0 
z
" transform="scale(0.015625)"/>
       <path id="STIXGeneral-Regular-63" d="M 2547 998 
L 2637 941 
Q 2362 403 2112 205 
Q 1786 -64 1376 -64 
Q 845 -64 502 336 
Q 160 736 160 1357 
Q 160 2170 698 2618 
Q 1094 2944 1562 2944 
Q 1965 2944 2256 2749 
Q 2547 2554 2547 2285 
Q 2547 2176 2457 2096 
Q 2368 2016 2246 2016 
Q 2022 2016 1939 2310 
L 1901 2451 
Q 1850 2630 1773 2694 
Q 1696 2758 1523 2758 
Q 1133 2758 893 2451 
Q 653 2144 653 1645 
Q 653 1094 928 745 
Q 1203 397 1645 397 
Q 1920 397 2118 528 
Q 2317 659 2547 998 
z
" transform="scale(0.015625)"/>
       <path id="STIXGeneral-Regular-6c" d="M 1645 0 
L 134 0 
L 134 96 
Q 435 122 531 221 
Q 627 320 627 589 
L 627 3590 
Q 627 3821 569 3910 
Q 512 4000 358 4000 
Q 224 4000 122 3987 
L 122 4090 
Q 730 4237 1133 4371 
L 1165 4346 
L 1165 557 
Q 1165 288 1254 201 
Q 1344 115 1645 96 
L 1645 0 
z
" transform="scale(0.015625)"/>
       <path id="STIXGeneral-Regular-4e" d="M 4525 4237 
L 4525 4115 
Q 4198 4083 4102 4000 
Q 4000 3910 3958 3756 
Q 3917 3603 3917 3245 
L 3917 -70 
L 3802 -70 
L 979 3443 
L 979 960 
Q 979 474 1088 323 
Q 1197 173 1574 122 
L 1574 0 
L 77 0 
L 77 122 
Q 474 166 586 310 
Q 698 454 698 960 
L 698 3776 
Q 531 3981 416 4048 
Q 301 4115 77 4115 
L 77 4237 
L 1165 4237 
L 3635 1146 
L 3635 3322 
Q 3635 3808 3514 3949 
Q 3437 4032 3344 4061 
Q 3251 4090 3008 4115 
L 3008 4237 
L 4525 4237 
z
" transform="scale(0.015625)"/>
       <path id="STIXGeneral-Regular-75" d="M 3072 320 
L 3072 230 
Q 2573 96 2195 -58 
L 2163 -38 
L 2163 486 
L 2150 486 
Q 1747 -64 1235 -64 
Q 870 -64 662 160 
Q 454 384 454 755 
L 454 2362 
Q 454 2598 371 2688 
Q 288 2778 58 2790 
L 58 2880 
L 992 2880 
L 992 813 
Q 992 595 1123 451 
Q 1254 307 1446 307 
Q 1760 307 1984 506 
Q 2067 582 2099 649 
Q 2131 717 2131 877 
L 2131 2355 
Q 2131 2605 2041 2678 
Q 1952 2752 1658 2771 
L 1658 2880 
L 2669 2880 
L 2669 685 
Q 2669 461 2742 390 
Q 2816 320 3034 320 
L 3072 320 
z
" transform="scale(0.015625)"/>
       <path id="STIXGeneral-Regular-6d" d="M 4960 0 
L 3565 0 
L 3565 96 
Q 3834 122 3907 208 
Q 3981 294 3981 576 
L 3981 1894 
Q 3981 2278 3869 2444 
Q 3757 2611 3488 2611 
Q 3264 2611 3107 2521 
Q 2950 2432 2803 2221 
L 2803 608 
Q 2803 301 2896 201 
Q 2989 102 3264 96 
L 3264 0 
L 1830 0 
L 1830 96 
Q 2112 115 2189 188 
Q 2266 262 2266 550 
L 2266 1901 
Q 2266 2611 1850 2611 
Q 1670 2611 1468 2531 
Q 1267 2451 1171 2336 
Q 1088 2240 1088 2227 
L 1088 448 
Q 1088 243 1177 176 
Q 1267 109 1523 96 
L 1523 0 
L 102 0 
L 102 96 
Q 371 102 460 195 
Q 550 288 550 563 
L 550 2150 
Q 550 2387 499 2480 
Q 448 2573 326 2573 
Q 230 2573 122 2547 
L 122 2656 
Q 557 2778 1011 2944 
L 1062 2925 
L 1062 2451 
L 1075 2451 
Q 1363 2752 1584 2848 
Q 1805 2944 2054 2944 
Q 2560 2944 2733 2406 
Q 3232 2944 3776 2944 
Q 4518 2944 4518 1792 
L 4518 493 
Q 4518 282 4582 202 
Q 4646 122 4794 109 
L 4960 96 
L 4960 0 
z
" transform="scale(0.015625)"/>
       <path id="STIXGeneral-Regular-62" d="M 979 4358 
L 979 2406 
Q 1082 2650 1315 2797 
Q 1549 2944 1843 2944 
Q 2349 2944 2672 2541 
Q 2995 2138 2995 1536 
Q 2995 832 2566 384 
Q 2138 -64 1498 -64 
Q 1107 -64 774 67 
Q 442 198 442 358 
L 442 3622 
Q 442 3859 384 3926 
Q 326 3994 128 3994 
Q 83 3994 19 3981 
L 19 4090 
L 211 4147 
Q 864 4346 947 4371 
L 979 4358 
z
M 979 2035 
L 979 474 
Q 979 326 1161 233 
Q 1344 141 1600 141 
Q 1978 141 2195 416 
Q 2432 710 2432 1261 
Q 2432 1888 2182 2240 
Q 1971 2541 1613 2541 
Q 1357 2541 1168 2390 
Q 979 2240 979 2035 
z
" transform="scale(0.015625)"/>
      </defs>
      <use xlink:href="#STIXGeneral-Regular-4d"/>
      <use xlink:href="#STIXGeneral-Regular-65" transform="translate(88.899994 0)"/>
      <use xlink:href="#STIXGeneral-Regular-61" transform="translate(133.299988 0)"/>
      <use xlink:href="#STIXGeneral-Regular-6e" transform="translate(177.699982 0)"/>
      <use xlink:href="#STIXGeneral-Regular-20" transform="translate(227.699966 0)"/>
      <use xlink:href="#STIXGeneral-Regular-50" transform="translate(252.699951 0)"/>
      <use xlink:href="#STIXGeneral-Regular-61" transform="translate(308.399948 0)"/>
      <use xlink:href="#STIXGeneral-Regular-72" transform="translate(352.799942 0)"/>
      <use xlink:href="#STIXGeneral-Regular-74" transform="translate(386.09993 0)"/>
      <use xlink:href="#STIXGeneral-Regular-69" transform="translate(413.899918 0)"/>
      <use xlink:href="#STIXGeneral-Regular-63" transform="translate(441.699905 0)"/>
      <use xlink:href="#STIXGeneral-Regular-6c" transform="translate(486.099899 0)"/>
      <use xlink:href="#STIXGeneral-Regular-65" transform="translate(513.899887 0)"/>
      <use xlink:href="#STIXGeneral-Regular-20" transform="translate(558.299881 0)"/>
      <use xlink:href="#STIXGeneral-Regular-4e" transform="translate(583.299866 0)"/>
      <use xlink:href="#STIXGeneral-Regular-75" transform="translate(655.499847 0)"/>
      <use xlink:href="#STIXGeneral-Regular-6d" transform="translate(705.499832 0)"/>
      <use xlink:href="#STIXGeneral-Regular-62" transform="translate(783.29982 0)"/>
      <use xlink:href="#STIXGeneral-Regular-65" transform="translate(833.299805 0)"/>
      <use xlink:href="#STIXGeneral-Regular-72" transform="translate(877.699799 0)"/>
     </g>
    </g>
   </g>
   <g id="line2d_115">
    <path d="M 57.722727 42.177273 
L 61.983818 55.966475 
L 66.244909 69.004705 
L 70.506 81.332862 
L 74.767091 92.989617 
L 79.028182 104.011535 
L 83.365364 114.614038 
L 87.702545 124.629099 
L 92.039727 134.089267 
L 96.376909 143.025285 
L 100.790182 151.610029 
L 105.203455 159.711022 
L 109.616727 167.355524 
L 114.106091 174.689999 
L 118.595455 181.604259 
L 123.160909 188.229575 
L 127.726364 194.469063 
L 132.367909 200.44017 
L 137.085545 206.147196 
L 141.879273 211.594951 
L 146.673 216.710084 
L 151.542818 221.586728 
L 156.488727 226.230221 
L 161.586818 230.710938 
L 166.761 234.961723 
L 172.011273 238.989475 
L 177.413727 242.853825 
L 182.968364 246.551059 
L 188.599091 250.033372 
L 194.458091 253.393422 
L 200.469273 256.582116 
L 206.632636 259.600211 
L 213.024273 262.482297 
L 219.644182 265.22276 
L 226.492364 267.817667 
L 233.644909 270.289763 
L 241.101818 272.631215 
L 248.939182 274.856921 
L 257.157 276.957096 
L 265.831364 278.941152 
L 274.962273 280.799142 
L 284.625818 282.53719 
L 294.974182 284.169227 
L 306.007364 285.681348 
L 317.877545 287.081069 
L 330.736909 288.370231 
L 344.737636 289.546972 
L 360.108 290.612394 
L 377.152364 291.567569 
L 396.327273 292.41502 
L 418.165364 293.152744 
L 438.177273 293.665958 
L 438.177273 293.665958 
" clip-path="url(#p642ea000e6)" style="fill: none; stroke-dasharray: 2.7,4.455; stroke-dashoffset: 0; stroke: #2ca02c; stroke-width: 2.7"/>
    <defs>
     <path id="mc10cca7093" d="M -1.6 1.6 
L 1.6 1.6 
L 1.6 -1.6 
L -1.6 -1.6 
z
" style="stroke: #2ca02c; stroke-linejoin: miter"/>
    </defs>
    <g clip-path="url(#p642ea000e6)">
     <use xlink:href="#mc10cca7093" x="57.722727" y="42.177273" style="fill: #2ca02c; stroke: #2ca02c; stroke-linejoin: miter"/>
     <use xlink:href="#mc10cca7093" x="91.963636" y="133.927904" style="fill: #2ca02c; stroke: #2ca02c; stroke-linejoin: miter"/>
     <use xlink:href="#mc10cca7093" x="126.204545" y="192.430689" style="fill: #2ca02c; stroke: #2ca02c; stroke-linejoin: miter"/>
     <use xlink:href="#mc10cca7093" x="160.445455" y="229.733711" style="fill: #2ca02c; stroke: #2ca02c; stroke-linejoin: miter"/>
     <use xlink:href="#mc10cca7093" x="194.686364" y="253.519169" style="fill: #2ca02c; stroke: #2ca02c; stroke-linejoin: miter"/>
     <use xlink:href="#mc10cca7093" x="228.927273" y="268.685446" style="fill: #2ca02c; stroke: #2ca02c; stroke-linejoin: miter"/>
     <use xlink:href="#mc10cca7093" x="263.168182" y="278.355891" style="fill: #2ca02c; stroke: #2ca02c; stroke-linejoin: miter"/>
     <use xlink:href="#mc10cca7093" x="297.409091" y="284.52204" style="fill: #2ca02c; stroke: #2ca02c; stroke-linejoin: miter"/>
     <use xlink:href="#mc10cca7093" x="331.65" y="288.453749" style="fill: #2ca02c; stroke: #2ca02c; stroke-linejoin: miter"/>
     <use xlink:href="#mc10cca7093" x="365.890909" y="290.960718" style="fill: #2ca02c; stroke: #2ca02c; stroke-linejoin: miter"/>
     <use xlink:href="#mc10cca7093" x="400.131818" y="292.559232" style="fill: #2ca02c; stroke: #2ca02c; stroke-linejoin: miter"/>
     <use xlink:href="#mc10cca7093" x="434.372727" y="293.578489" style="fill: #2ca02c; stroke: #2ca02c; stroke-linejoin: miter"/>
    </g>
   </g>
   <g id="patch_3">
    <path d="M 38.7 313.568 
L 38.7 25.28 
" style="fill: none; stroke: #000000; stroke-width: 0.5; stroke-linejoin: miter; stroke-linecap: square"/>
   </g>
   <g id="patch_4">
    <path d="M 457.2 313.568 
L 457.2 25.28 
" style="fill: none; stroke: #000000; stroke-width: 0.5; stroke-linejoin: miter; stroke-linecap: square"/>
   </g>
   <g id="patch_5">
    <path d="M 38.7 313.568 
L 457.2 313.568 
" style="fill: none; stroke: #000000; stroke-width: 0.5; stroke-linejoin: miter; stroke-linecap: square"/>
   </g>
   <g id="patch_6">
    <path d="M 38.7 25.28 
L 457.2 25.28 
" style="fill: none; stroke: #000000; stroke-width: 0.5; stroke-linejoin: miter; stroke-linecap: square"/>
   </g>
   <g id="line2d_116">
    <path d="M 57.722727 45.161931 
L 58.027091 45.912561 
L 58.103182 45.912561 
L 58.179273 46.162771 
L 58.331455 46.913401 
L 58.407545 46.913401 
L 58.788 48.915082 
L 58.940182 49.665712 
L 59.168455 50.666552 
L 59.548909 51.667392 
L 59.625 51.667392 
L 59.777182 52.418022 
L 59.853273 52.418022 
L 60.233727 53.418862 
L 60.309818 53.418862 
L 60.842455 54.920123 
L 60.994636 54.920123 
L 61.603364 57.172013 
L 61.755545 57.922643 
L 61.983818 57.922643 
L 62.059909 58.172853 
L 62.212091 59.173693 
L 62.364273 59.173693 
L 62.973 60.925164 
L 63.049091 60.925164 
L 63.277364 61.425584 
L 63.353455 61.425584 
L 63.733909 62.926844 
L 63.886091 64.428104 
L 64.038273 64.428104 
L 64.266545 65.428944 
L 64.342636 65.428944 
L 64.494818 65.929364 
L 64.647 66.429784 
L 64.875273 67.931045 
L 65.027455 68.181255 
L 65.179636 68.181255 
L 65.331818 68.681675 
L 65.407909 68.931885 
L 65.636182 70.182935 
L 65.788364 70.433145 
L 65.940545 70.433145 
L 66.625364 72.434825 
L 66.701455 72.434825 
L 67.766727 75.687556 
L 67.918909 75.687556 
L 68.147182 77.188816 
L 68.375455 77.689236 
L 68.679818 77.689236 
L 68.908091 78.690076 
L 69.592909 80.691757 
L 69.669 80.691757 
L 70.049455 81.692597 
L 70.658182 81.692597 
L 71.190818 83.193857 
L 71.266909 83.193857 
L 71.419091 83.444067 
L 71.495182 83.444067 
L 71.723455 84.444907 
L 71.799545 84.444907 
L 71.951727 85.445747 
L 72.408273 87.197218 
L 72.636545 88.198058 
L 72.788727 88.448268 
L 72.864818 88.448268 
L 73.017 88.698478 
L 73.093091 88.698478 
L 73.397455 90.199738 
L 73.777909 91.700998 
L 74.006182 93.452469 
L 74.234455 93.452469 
L 74.614909 94.453309 
L 74.691 94.453309 
L 75.223636 95.954569 
L 75.299727 95.954569 
L 75.451909 96.454989 
L 75.604091 96.454989 
L 75.832364 96.955409 
L 76.060636 96.955409 
L 76.212818 97.205619 
L 76.365 97.205619 
L 76.517182 97.956249 
L 76.669364 98.95709 
L 76.745455 98.95709 
L 76.973727 99.45751 
L 77.049818 99.45751 
L 77.430273 100.95877 
L 77.582455 101.7094 
L 77.734636 101.7094 
L 78.039 103.21066 
L 78.343364 103.21066 
L 78.571636 104.962131 
L 78.647727 104.962131 
L 78.799909 105.462551 
L 79.028182 105.962971 
L 79.104273 105.962971 
L 79.256455 106.213181 
L 79.484727 106.213181 
L 79.713 106.713601 
L 79.865182 106.713601 
L 80.093455 108.465071 
L 80.245636 109.465911 
L 80.397818 109.966331 
L 80.473909 109.966331 
L 80.702182 110.466751 
L 80.778273 110.466751 
L 81.006545 111.467592 
L 81.387 111.467592 
L 81.539182 111.968012 
L 81.691364 111.968012 
L 81.919636 112.968852 
L 82.147909 113.469272 
L 82.756636 113.469272 
L 82.908818 113.969692 
L 82.984909 113.969692 
L 83.137091 114.219902 
L 83.365364 114.219902 
L 83.517545 114.470112 
L 83.669727 114.470112 
L 84.202364 115.971372 
L 84.278455 115.971372 
L 84.582818 116.722002 
L 84.658909 116.722002 
L 85.115455 117.973053 
L 85.572 117.973053 
L 85.952455 118.973893 
L 86.332909 118.973893 
L 87.626455 122.977253 
L 87.854727 122.977253 
L 88.235182 124.478514 
L 88.387364 125.229144 
L 88.615636 125.229144 
L 88.767818 125.979774 
L 88.92 126.980614 
L 89.148273 127.481034 
L 89.376545 127.481034 
L 89.757 128.481874 
L 89.833091 128.481874 
L 89.985273 128.732084 
L 90.061364 128.732084 
L 90.213545 129.482714 
L 90.289636 129.482714 
L 90.517909 130.483555 
L 90.670091 131.734605 
L 91.278818 133.486075 
L 91.354909 133.486075 
L 91.507091 133.986495 
L 91.583182 133.986495 
L 91.811455 134.486915 
L 91.887545 134.486915 
L 92.268 135.487755 
L 92.420182 135.487755 
L 92.572364 135.988176 
L 92.800636 135.988176 
L 92.952818 136.488596 
L 93.028909 136.488596 
L 93.181091 136.989016 
L 93.409364 137.489436 
L 93.713727 137.489436 
L 94.170273 138.740486 
L 94.398545 138.740486 
L 94.702909 139.491116 
L 94.779 139.491116 
L 94.931182 139.741326 
L 95.083364 139.741326 
L 95.235545 139.991536 
L 95.539909 139.991536 
L 95.692091 140.241746 
L 95.844273 140.241746 
L 96.224727 141.242586 
L 96.453 141.242586 
L 96.605182 141.743006 
L 97.137818 141.743006 
L 97.366091 142.243427 
L 97.518273 142.243427 
L 97.822636 142.994057 
L 97.898727 142.994057 
L 98.279182 143.994897 
L 98.355273 143.994897 
L 98.659636 144.745527 
L 98.811818 144.745527 
L 99.040091 145.245947 
L 99.116182 145.245947 
L 99.268364 145.746367 
L 99.496636 146.246787 
L 99.724909 146.246787 
L 99.877091 146.496997 
L 99.953182 146.496997 
L 100.409727 147.748047 
L 100.714091 147.748047 
L 100.866273 147.998257 
L 100.942364 147.998257 
L 101.170636 149.249308 
L 101.246727 149.249308 
L 101.398909 149.499518 
L 101.779364 149.499518 
L 101.931545 149.749728 
L 102.312 149.749728 
L 102.464182 150.250148 
L 102.692455 150.750568 
L 103.072909 150.750568 
L 103.225091 151.250988 
L 103.301182 151.250988 
L 103.529455 151.751408 
L 103.605545 151.751408 
L 103.757727 152.001618 
L 103.986 152.001618 
L 104.138182 152.502038 
L 105.051273 155.254349 
L 105.127364 155.254349 
L 105.355636 155.754769 
L 105.888273 155.754769 
L 106.040455 156.505399 
L 106.116545 156.505399 
L 106.344818 157.005819 
L 106.497 157.005819 
L 107.181818 159.007499 
L 107.562273 159.007499 
L 107.714455 159.758129 
L 107.790545 159.758129 
L 107.942727 160.008339 
L 108.094909 160.008339 
L 108.323182 160.508759 
L 108.855818 160.508759 
L 109.008 160.758969 
L 109.160182 160.758969 
L 109.312364 161.25939 
L 109.388455 161.25939 
L 109.616727 161.75981 
L 109.921091 161.75981 
L 110.073273 162.01002 
L 110.453727 162.01002 
L 110.605909 162.26023 
L 110.910273 162.26023 
L 111.214636 163.01086 
L 111.290727 163.01086 
L 111.519 163.51128 
L 111.747273 163.51128 
L 112.584273 166.01338 
L 112.812545 166.01338 
L 113.116909 166.76401 
L 113.345182 166.76401 
L 113.497364 167.01422 
L 113.649545 167.01422 
L 113.877818 167.514641 
L 114.106091 167.514641 
L 114.258273 167.764851 
L 114.334364 167.764851 
L 114.486545 168.015061 
L 114.638727 168.015061 
L 115.019182 169.015901 
L 115.323545 169.015901 
L 115.475727 169.266111 
L 115.627909 169.266111 
L 115.780091 170.016741 
L 115.856182 170.016741 
L 116.160545 170.767371 
L 116.236636 170.767371 
L 116.464909 171.267791 
L 116.997545 171.267791 
L 117.301909 172.018421 
L 117.606273 172.018421 
L 117.834545 172.518841 
L 117.986727 172.518841 
L 118.291091 173.269471 
L 118.519364 173.269471 
L 118.671545 173.519682 
L 118.747636 173.519682 
L 119.052 174.270312 
L 119.508545 174.270312 
L 119.660727 174.520522 
L 119.736818 174.520522 
L 119.889 174.770732 
L 120.117273 174.770732 
L 120.269455 175.020942 
L 121.030364 175.020942 
L 121.563 176.522202 
L 121.867364 176.522202 
L 121.943455 176.772412 
L 122.095636 177.523042 
L 122.4 177.523042 
L 122.552182 177.773252 
L 122.628273 177.773252 
L 122.780455 178.523882 
L 122.856545 178.523882 
L 123.008727 178.774092 
L 123.160909 178.774092 
L 123.769636 180.525563 
L 124.454455 180.525563 
L 124.758818 181.276193 
L 124.911 181.276193 
L 125.519727 183.027663 
L 125.595818 183.027663 
L 125.748 183.528083 
L 125.976273 184.028503 
L 126.128455 184.028503 
L 126.356727 184.528923 
L 126.432818 184.528923 
L 126.585 185.279553 
L 126.889364 185.279553 
L 127.041545 185.529763 
L 127.117636 185.529763 
L 127.269818 185.779973 
L 127.345909 185.779973 
L 127.574182 186.280394 
L 127.726364 186.280394 
L 127.954636 186.780814 
L 128.182909 186.780814 
L 128.487273 188.532284 
L 128.563364 188.532284 
L 128.791636 189.032704 
L 129.019909 189.032704 
L 129.172091 189.533124 
L 129.933 189.533124 
L 130.085182 189.783334 
L 130.161273 189.783334 
L 130.541727 190.784174 
L 131.150455 190.784174 
L 131.378727 191.284594 
L 131.454818 191.284594 
L 131.607 191.785014 
L 131.911364 192.535645 
L 132.367909 192.535645 
L 132.824455 193.786695 
L 133.052727 193.786695 
L 133.204909 194.036905 
L 133.661455 194.036905 
L 134.041909 195.037745 
L 134.118 195.037745 
L 134.346273 195.538165 
L 134.498455 195.538165 
L 134.726727 196.038585 
L 135.487636 196.038585 
L 135.868091 197.039425 
L 136.020273 197.039425 
L 136.172455 197.289635 
L 136.552909 197.289635 
L 137.237727 199.291316 
L 137.542091 199.291316 
L 137.922545 200.292156 
L 138.074727 200.292156 
L 138.226909 200.542366 
L 138.531273 200.542366 
L 138.759545 201.042786 
L 139.063909 201.042786 
L 139.216091 201.292996 
L 139.292182 201.292996 
L 139.444364 201.543206 
L 139.520455 201.543206 
L 139.748727 202.043626 
L 139.900909 202.043626 
L 140.053091 202.293836 
L 140.205273 202.293836 
L 140.357455 202.544046 
L 140.509636 202.544046 
L 140.737909 203.044466 
L 141.498818 203.044466 
L 141.651 203.294676 
L 141.727091 203.294676 
L 141.879273 203.795096 
L 142.031455 203.795096 
L 142.259727 204.295516 
L 142.488 204.295516 
L 143.248909 206.547407 
L 143.401091 206.547407 
L 143.629364 207.047827 
L 143.857636 207.047827 
L 144.238091 208.048667 
L 144.390273 208.048667 
L 144.618545 208.549087 
L 144.694636 208.549087 
L 144.846818 209.299717 
L 144.999 209.299717 
L 145.227273 209.800137 
L 145.531636 209.800137 
L 145.759909 210.300557 
L 145.836 210.300557 
L 145.988182 210.550767 
L 146.444727 210.550767 
L 146.596909 210.800977 
L 146.977364 210.800977 
L 147.281727 211.551608 
L 147.662182 211.551608 
L 147.814364 211.801818 
L 147.966545 211.801818 
L 148.423091 213.052868 
L 149.336182 213.052868 
L 149.488364 213.303078 
L 149.640545 213.303078 
L 149.868818 213.803498 
L 150.021 213.803498 
L 150.173182 214.053708 
L 150.401455 214.053708 
L 150.553636 214.804338 
L 150.705818 214.804338 
L 150.858 215.554968 
L 151.162364 215.554968 
L 151.466727 216.305598 
L 151.542818 216.305598 
L 151.695 216.555808 
L 151.847182 216.555808 
L 151.999364 216.806018 
L 152.075455 216.806018 
L 152.227636 217.056228 
L 152.303727 217.056228 
L 152.455909 217.556649 
L 152.988545 217.556649 
L 153.216818 218.057069 
L 153.292909 218.057069 
L 153.445091 218.557489 
L 153.749455 218.557489 
L 153.901636 218.807699 
L 154.129909 218.807699 
L 154.358182 219.308119 
L 155.195182 219.308119 
L 155.347364 219.558329 
L 155.499545 219.558329 
L 155.651727 219.808539 
L 155.727818 219.808539 
L 155.88 220.058749 
L 156.793091 220.058749 
L 157.477909 222.060429 
L 157.554 222.060429 
L 157.706182 222.310639 
L 158.086636 222.310639 
L 158.314909 222.811059 
L 158.467091 222.811059 
L 158.619273 223.061269 
L 158.923636 223.061269 
L 159.075818 223.311479 
L 159.532364 223.311479 
L 159.684545 223.8119 
L 160.369364 223.8119 
L 160.521545 224.06211 
L 161.054182 224.06211 
L 161.206364 224.31232 
L 161.510727 224.31232 
L 161.662909 224.56253 
L 161.891182 224.56253 
L 162.043364 224.81274 
L 162.347727 224.81274 
L 162.499909 225.06295 
L 162.956455 225.06295 
L 163.108636 225.31316 
L 163.717364 225.31316 
L 163.945636 226.314 
L 164.173909 226.314 
L 164.326091 226.56421 
L 164.858727 226.56421 
L 165.010909 226.81442 
L 165.315273 226.81442 
L 165.543545 227.31484 
L 165.619636 227.31484 
L 165.771818 227.56505 
L 166.380545 227.56505 
L 166.532727 227.81526 
L 166.608818 227.81526 
L 166.761 228.06547 
L 167.445818 228.06547 
L 167.598 228.31568 
L 168.054545 228.31568 
L 168.206727 228.8161 
L 168.358909 229.06631 
L 168.511091 229.06631 
L 168.739364 229.56673 
L 169.272 229.56673 
L 169.424182 230.067151 
L 169.804636 230.067151 
L 169.956818 230.317361 
L 171.022091 230.317361 
L 171.478636 231.568411 
L 171.554727 231.568411 
L 171.783 232.068831 
L 172.163455 232.068831 
L 172.391727 232.569251 
L 172.62 232.569251 
L 172.848273 233.069671 
L 172.924364 233.069671 
L 173.152636 233.570091 
L 173.228727 233.570091 
L 173.380909 233.820301 
L 174.217909 233.820301 
L 174.370091 234.570931 
L 175.283182 234.570931 
L 175.435364 234.821141 
L 175.511455 234.821141 
L 175.663636 235.071351 
L 175.739727 235.071351 
L 175.968 235.571771 
L 176.044091 235.571771 
L 176.196273 235.821981 
L 176.424545 235.821981 
L 176.576727 236.072191 
L 176.805 236.072191 
L 177.109364 236.822822 
L 177.337636 236.822822 
L 177.565909 237.323242 
L 178.250727 237.323242 
L 178.555091 238.073872 
L 178.707273 238.073872 
L 178.859455 238.324082 
L 179.239909 238.324082 
L 179.772545 239.825342 
L 180.076909 239.825342 
L 180.229091 240.575972 
L 180.609545 240.575972 
L 180.761727 240.826182 
L 181.750909 240.826182 
L 181.903091 241.076392 
L 182.587909 241.076392 
L 182.740091 241.326602 
L 182.816182 241.326602 
L 183.120545 242.077232 
L 183.272727 242.077232 
L 183.424909 242.327442 
L 183.577091 242.327442 
L 183.881455 243.078073 
L 184.109727 243.078073 
L 184.261909 243.578493 
L 184.338 243.578493 
L 184.642364 244.329123 
L 184.718455 244.329123 
L 184.870636 244.579333 
L 185.022818 244.579333 
L 185.631545 246.330803 
L 186.088091 246.330803 
L 186.240273 246.581013 
L 186.468545 246.581013 
L 186.925091 247.832063 
L 187.001182 247.832063 
L 187.153364 248.082273 
L 187.990364 248.082273 
L 188.142545 248.332483 
L 190.501364 248.332483 
L 190.653545 248.582693 
L 191.186182 248.582693 
L 191.338364 248.832904 
L 191.642727 248.832904 
L 191.794909 249.083114 
L 191.947091 249.083114 
L 192.099273 249.333324 
L 192.251455 249.333324 
L 192.403636 249.583534 
L 193.240636 249.583534 
L 193.392818 249.833744 
L 193.849364 249.833744 
L 194.001545 250.334164 
L 194.229818 250.834584 
L 194.686364 250.834584 
L 194.838545 251.084794 
L 194.914636 251.084794 
L 195.066818 251.335004 
L 195.447273 251.335004 
L 195.599455 251.585214 
L 195.751636 251.585214 
L 195.903818 251.835424 
L 196.284273 251.835424 
L 196.588636 252.586054 
L 197.273455 252.586054 
L 197.425636 252.836264 
L 197.501727 252.836264 
L 197.806091 253.586894 
L 198.186545 253.586894 
L 198.338727 253.837104 
L 198.643091 253.837104 
L 198.795273 254.337524 
L 199.023545 254.337524 
L 199.404 255.338365 
L 199.860545 255.338365 
L 200.012727 255.588575 
L 200.088818 255.588575 
L 200.241 255.838785 
L 200.393182 255.838785 
L 200.545364 256.088995 
L 200.621455 256.088995 
L 200.773636 256.339205 
L 201.001909 256.339205 
L 201.154091 256.589415 
L 201.991091 256.589415 
L 202.143273 256.839625 
L 202.295455 256.839625 
L 202.523727 257.340045 
L 202.828091 257.340045 
L 203.056364 257.840465 
L 204.121636 257.840465 
L 204.349909 258.340885 
L 204.882545 258.340885 
L 205.034727 258.591095 
L 205.871727 258.591095 
L 206.023909 258.841305 
L 206.556545 258.841305 
L 206.784818 259.341725 
L 207.089182 259.341725 
L 207.241364 259.591935 
L 208.534909 259.591935 
L 208.687091 259.842145 
L 209.143636 259.842145 
L 209.295818 260.092355 
L 209.524091 260.092355 
L 209.676273 260.592775 
L 211.806818 260.592775 
L 211.959 260.842985 
L 212.948182 260.842985 
L 213.100364 261.093195 
L 213.633 261.093195 
L 213.785182 261.343406 
L 214.622182 261.343406 
L 214.774364 261.593616 
L 215.535273 261.593616 
L 215.687455 261.843826 
L 216.067909 261.843826 
L 216.296182 262.344246 
L 216.752727 262.344246 
L 216.904909 262.594456 
L 216.981 262.594456 
L 217.133182 262.844666 
L 217.437545 262.844666 
L 217.589727 263.094876 
L 217.741909 263.094876 
L 217.894091 263.345086 
L 219.111545 263.345086 
L 219.263727 263.595296 
L 219.492 263.595296 
L 219.644182 263.845506 
L 220.861636 263.845506 
L 221.089909 264.345926 
L 222.003 264.345926 
L 222.155182 264.846346 
L 222.687818 264.846346 
L 222.84 265.096556 
L 223.981364 265.096556 
L 224.285727 265.847186 
L 224.590091 265.847186 
L 224.742273 266.097396 
L 225.579273 266.097396 
L 225.731455 266.347606 
L 225.959727 266.347606 
L 226.188 266.848026 
L 226.416273 266.848026 
L 226.568455 267.098236 
L 226.644545 267.098236 
L 226.796727 267.348446 
L 227.633727 267.348446 
L 228.014182 268.349287 
L 229.307727 268.349287 
L 229.612091 269.099917 
L 231.438273 269.099917 
L 231.590455 269.350127 
L 231.742636 269.350127 
L 231.894818 269.600337 
L 231.970909 269.600337 
L 232.123091 269.850547 
L 233.873182 269.850547 
L 234.025364 270.100757 
L 234.481909 270.100757 
L 234.634091 270.350967 
L 234.710182 270.350967 
L 234.938455 270.851387 
L 235.547182 270.851387 
L 235.699364 271.101597 
L 236.612455 271.101597 
L 236.916818 271.852227 
L 237.677727 271.852227 
L 237.829909 272.102437 
L 239.732182 272.102437 
L 239.960455 272.602857 
L 241.862727 272.602857 
L 242.014909 272.853067 
L 242.395364 272.853067 
L 242.623636 273.353487 
L 242.699727 273.353487 
L 242.851909 273.603697 
L 245.210727 273.603697 
L 245.362909 273.853908 
L 245.895545 273.853908 
L 246.199909 274.604538 
L 247.417364 274.604538 
L 247.569545 274.854748 
L 248.406545 274.854748 
L 248.558727 275.104958 
L 251.450182 275.104958 
L 251.602364 275.355168 
L 252.591545 275.355168 
L 252.743727 275.605378 
L 253.961182 275.605378 
L 254.113364 275.855588 
L 255.102545 275.855588 
L 255.254727 276.105798 
L 255.939545 276.105798 
L 256.091727 276.356008 
L 257.994 276.356008 
L 258.146182 276.606218 
L 258.222273 276.606218 
L 258.374455 276.856428 
L 260.961545 276.856428 
L 261.113727 277.106638 
L 261.342 277.106638 
L 261.494182 277.356848 
L 261.570273 277.356848 
L 261.722455 277.607058 
L 263.244273 277.607058 
L 263.396455 278.107478 
L 264.537818 278.107478 
L 264.69 278.357688 
L 264.842182 278.357688 
L 264.994364 278.607898 
L 265.298727 278.607898 
L 265.450909 278.858108 
L 268.342364 278.858108 
L 268.494545 279.108318 
L 268.875 279.108318 
L 269.027182 279.358528 
L 274.581818 279.358528 
L 274.734 279.608738 
L 274.810091 279.608738 
L 274.962273 279.858948 
L 276.636273 279.858948 
L 276.788455 280.109159 
L 276.864545 280.109159 
L 277.016727 280.359369 
L 281.810455 280.359369 
L 281.962636 280.609579 
L 282.267 280.609579 
L 282.419182 280.859789 
L 284.017091 280.859789 
L 284.169273 281.109999 
L 285.462818 281.109999 
L 285.615 281.360209 
L 285.843273 281.360209 
L 285.995455 281.610419 
L 289.267364 281.610419 
L 289.419545 281.860629 
L 291.169636 281.860629 
L 291.397909 282.361049 
L 291.474 282.361049 
L 291.626182 282.611259 
L 292.843636 282.611259 
L 292.995818 282.861469 
L 293.452364 282.861469 
L 293.604545 283.361889 
L 293.832818 283.862309 
L 296.115545 283.862309 
L 296.267727 284.112519 
L 296.419909 284.112519 
L 296.648182 284.612939 
L 299.235273 284.612939 
L 299.387455 284.863149 
L 302.050636 284.863149 
L 302.202818 285.113359 
L 303.800727 285.113359 
L 304.029 285.613779 
L 308.518364 285.613779 
L 308.670545 285.863989 
L 308.898818 285.863989 
L 309.051 286.114199 
L 313.996909 286.114199 
L 314.149091 286.36441 
L 327.845455 286.36441 
L 327.997636 286.61462 
L 332.487 286.61462 
L 332.639182 286.86483 
L 334.693636 286.86483 
L 334.845818 287.11504 
L 343.139727 287.11504 
L 343.291909 287.36525 
L 347.705182 287.36525 
L 347.857364 287.61546 
L 348.161727 287.61546 
L 348.313909 287.86567 
L 348.998727 287.86567 
L 349.150909 288.11588 
L 350.140091 288.11588 
L 350.292273 288.36609 
L 353.335909 288.36609 
L 353.488091 288.6163 
L 355.923 288.6163 
L 356.075182 288.86651 
L 361.934182 288.86651 
L 362.086364 289.11672 
L 362.619 289.11672 
L 362.771182 289.36693 
L 362.847273 289.36693 
L 362.999455 289.61714 
L 367.260545 289.61714 
L 367.412727 289.86735 
L 368.249727 289.86735 
L 368.401909 290.11756 
L 372.434727 290.11756 
L 372.586909 290.36777 
L 375.478364 290.36777 
L 375.630545 290.86819 
L 377.608909 290.86819 
L 377.761091 291.1184 
L 381.337364 291.1184 
L 381.489545 291.36861 
L 384.533182 291.36861 
L 384.685364 291.61882 
L 390.468273 291.61882 
L 390.620455 291.86903 
L 391.990091 291.86903 
L 392.142273 292.11924 
L 397.620818 292.11924 
L 397.773 292.36945 
L 399.751364 292.36945 
L 399.903545 292.619661 
L 412.762909 292.619661 
L 412.915091 292.869871 
L 416.263091 292.869871 
L 416.415273 293.120081 
L 431.481273 293.120081 
L 431.633455 293.370291 
L 438.177273 293.370291 
L 438.177273 293.370291 
" clip-path="url(#p642ea000e6)" style="fill: none; stroke-dasharray: 16,4,2.5,4; stroke-dashoffset: 0; stroke: #ff7f0e; stroke-width: 2.5"/>
    <defs>
     <path id="m8d979f18b3" d="M 0 1.75 
C 0.464105 1.75 0.909265 1.565609 1.237437 1.237437 
C 1.565609 0.909265 1.75 0.464105 1.75 0 
C 1.75 -0.464105 1.565609 -0.909265 1.237437 -1.237437 
C 0.909265 -1.565609 0.464105 -1.75 0 -1.75 
C -0.464105 -1.75 -0.909265 -1.565609 -1.237437 -1.237437 
C -1.565609 -0.909265 -1.75 -0.464105 -1.75 0 
C -1.75 0.464105 -1.565609 0.909265 -1.237437 1.237437 
C -0.909265 1.565609 -0.464105 1.75 0 1.75 
z
" style="stroke: #ff7f0e"/>
    </defs>
    <g clip-path="url(#p642ea000e6)">
     <use xlink:href="#m8d979f18b3" x="57.722727" y="45.161931" style="fill: #ff7f0e; stroke: #ff7f0e"/>
     <use xlink:href="#m8d979f18b3" x="84.354545" y="116.221582" style="fill: #ff7f0e; stroke: #ff7f0e"/>
     <use xlink:href="#m8d979f18b3" x="110.986364" y="162.51044" style="fill: #ff7f0e; stroke: #ff7f0e"/>
     <use xlink:href="#m8d979f18b3" x="137.618182" y="199.541526" style="fill: #ff7f0e; stroke: #ff7f0e"/>
     <use xlink:href="#m8d979f18b3" x="164.25" y="226.56421" style="fill: #ff7f0e; stroke: #ff7f0e"/>
     <use xlink:href="#m8d979f18b3" x="190.881818" y="248.582693" style="fill: #ff7f0e; stroke: #ff7f0e"/>
     <use xlink:href="#m8d979f18b3" x="217.513636" y="263.094876" style="fill: #ff7f0e; stroke: #ff7f0e"/>
     <use xlink:href="#m8d979f18b3" x="244.145455" y="273.603697" style="fill: #ff7f0e; stroke: #ff7f0e"/>
     <use xlink:href="#m8d979f18b3" x="270.777273" y="279.358528" style="fill: #ff7f0e; stroke: #ff7f0e"/>
     <use xlink:href="#m8d979f18b3" x="297.409091" y="284.612939" style="fill: #ff7f0e; stroke: #ff7f0e"/>
     <use xlink:href="#m8d979f18b3" x="324.040909" y="286.36441" style="fill: #ff7f0e; stroke: #ff7f0e"/>
     <use xlink:href="#m8d979f18b3" x="350.672727" y="288.36609" style="fill: #ff7f0e; stroke: #ff7f0e"/>
     <use xlink:href="#m8d979f18b3" x="377.304545" y="290.86819" style="fill: #ff7f0e; stroke: #ff7f0e"/>
     <use xlink:href="#m8d979f18b3" x="403.936364" y="292.619661" style="fill: #ff7f0e; stroke: #ff7f0e"/>
     <use xlink:href="#m8d979f18b3" x="430.568182" y="293.120081" style="fill: #ff7f0e; stroke: #ff7f0e"/>
    </g>
   </g>
   <g id="text_15">
    <!-- Mean vs $t/\gamma$ ($|n=1\rangle$, $U=0$, $\gamma=1$) -->
    <g transform="translate(132.75 19.28) scale(0.16 -0.16)">
     <defs>
      <path id="STIXGeneral-Regular-76" d="M 3053 2880 
L 3053 2784 
Q 2906 2771 2835 2688 
Q 2765 2605 2637 2285 
L 1818 230 
Q 1690 -90 1638 -90 
Q 1587 -90 1523 77 
Q 1510 96 1497 141 
Q 1485 186 1472 211 
L 704 2048 
Q 499 2534 403 2652 
Q 307 2771 122 2784 
L 122 2880 
L 1376 2880 
L 1376 2784 
Q 1210 2771 1146 2732 
Q 1082 2694 1082 2611 
Q 1082 2509 1139 2368 
L 1792 730 
L 2426 2387 
Q 2464 2483 2464 2579 
Q 2464 2758 2163 2784 
L 2163 2880 
L 3053 2880 
z
" transform="scale(0.015625)"/>
      <path id="STIXGeneral-Regular-73" d="M 998 1926 
L 1664 1523 
Q 1984 1331 2105 1164 
Q 2227 998 2227 736 
Q 2227 416 1961 176 
Q 1696 -64 1331 -64 
Q 1030 -64 864 -6 
Q 691 51 570 51 
Q 461 51 416 -26 
L 333 -26 
L 333 979 
L 435 979 
Q 538 512 730 294 
Q 922 77 1248 77 
Q 1485 77 1632 211 
Q 1779 346 1779 550 
Q 1779 845 1440 1030 
L 1094 1222 
Q 326 1651 326 2150 
Q 326 2522 566 2730 
Q 806 2938 1210 2938 
Q 1491 2938 1638 2867 
Q 1754 2816 1818 2816 
Q 1862 2816 1920 2880 
L 1990 2880 
L 2022 2010 
L 1926 2010 
Q 1818 2445 1654 2621 
Q 1491 2797 1203 2797 
Q 986 2797 854 2688 
Q 723 2579 723 2362 
Q 723 2253 796 2128 
Q 870 2003 998 1926 
z
" transform="scale(0.015625)"/>
      <path id="STIXGeneral-Regular-28" d="M 1946 -1030 
L 1869 -1133 
Q 1126 -710 716 32 
Q 307 774 307 1613 
Q 307 3386 1888 4326 
L 1946 4224 
Q 1293 3667 1075 3126 
Q 858 2586 858 1632 
Q 858 685 1082 96 
Q 1306 -493 1946 -1030 
z
" transform="scale(0.015625)"/>
      <path id="Cmsy10-6a" d="M 763 -1484 
L 763 4684 
Q 763 4734 800 4767 
Q 838 4800 891 4800 
Q 938 4800 978 4767 
Q 1019 4734 1019 4684 
L 1019 -1484 
Q 1019 -1534 978 -1567 
Q 938 -1600 891 -1600 
Q 838 -1600 800 -1567 
Q 763 -1534 763 -1484 
z
" transform="scale(0.015625)"/>
      <path id="Cmmi10-6e" d="M 494 109 
Q 494 147 500 166 
L 978 2075 
Q 1025 2253 1025 2388 
Q 1025 2663 838 2663 
Q 638 2663 541 2423 
Q 444 2184 353 1819 
Q 353 1800 334 1789 
Q 316 1778 300 1778 
L 225 1778 
Q 203 1778 187 1801 
Q 172 1825 172 1844 
Q 241 2122 305 2315 
Q 369 2509 505 2668 
Q 641 2828 844 2828 
Q 1084 2828 1268 2676 
Q 1453 2525 1453 2291 
Q 1644 2541 1900 2684 
Q 2156 2828 2444 2828 
Q 2672 2828 2837 2750 
Q 3003 2672 3095 2514 
Q 3188 2356 3188 2138 
Q 3188 1875 3070 1503 
Q 2953 1131 2778 672 
Q 2688 463 2688 288 
Q 2688 97 2834 97 
Q 3084 97 3251 365 
Q 3419 634 3488 941 
Q 3500 978 3541 978 
L 3616 978 
Q 3641 978 3658 962 
Q 3675 947 3675 922 
Q 3675 916 3669 903 
Q 3581 541 3364 234 
Q 3147 -72 2822 -72 
Q 2597 -72 2437 83 
Q 2278 238 2278 459 
Q 2278 578 2328 709 
Q 2409 919 2514 1209 
Q 2619 1500 2686 1765 
Q 2753 2031 2753 2234 
Q 2753 2413 2679 2538 
Q 2606 2663 2431 2663 
Q 2197 2663 2000 2559 
Q 1803 2456 1656 2286 
Q 1509 2116 1388 1881 
L 953 141 
Q 931 53 854 -9 
Q 778 -72 684 -72 
Q 606 -72 550 -22 
Q 494 28 494 109 
z
" transform="scale(0.015625)"/>
      <path id="Cmr10-3d" d="M 481 850 
Q 428 850 393 890 
Q 359 931 359 978 
Q 359 1031 393 1068 
Q 428 1106 481 1106 
L 4500 1106 
Q 4547 1106 4581 1068 
Q 4616 1031 4616 978 
Q 4616 931 4581 890 
Q 4547 850 4500 850 
L 481 850 
z
M 481 2094 
Q 428 2094 393 2131 
Q 359 2169 359 2222 
Q 359 2269 393 2309 
Q 428 2350 481 2350 
L 4500 2350 
Q 4547 2350 4581 2309 
Q 4616 2269 4616 2222 
Q 4616 2169 4581 2131 
Q 4547 2094 4500 2094 
L 481 2094 
z
" transform="scale(0.015625)"/>
      <path id="Cmr10-31" d="M 594 0 
L 594 225 
Q 1394 225 1394 428 
L 1394 3788 
Q 1063 3628 556 3628 
L 556 3853 
Q 1341 3853 1741 4263 
L 1831 4263 
Q 1853 4263 1873 4245 
Q 1894 4228 1894 4206 
L 1894 428 
Q 1894 225 2694 225 
L 2694 0 
L 594 0 
z
" transform="scale(0.015625)"/>
      <path id="Cmex10-ae" d="M 500 -7297 
Q 500 -7263 513 -7250 
L 2119 -3584 
L 513 84 
Q 500 97 500 128 
Q 500 175 537 215 
Q 575 256 628 256 
Q 703 256 750 178 
L 2381 -3541 
Q 2388 -3553 2388 -3584 
Q 2388 -3616 2381 -3634 
L 750 -7347 
Q 700 -7425 628 -7425 
Q 575 -7425 537 -7384 
Q 500 -7344 500 -7297 
z
" transform="scale(0.015625)"/>
      <path id="STIXGeneral-Regular-2c" d="M 531 -902 
L 467 -781 
Q 998 -422 998 -96 
Q 998 -13 909 -13 
Q 883 -13 822 -25 
Q 762 -38 723 -38 
Q 352 -38 352 288 
Q 352 454 457 553 
Q 563 653 736 653 
Q 954 653 1101 496 
Q 1248 339 1248 96 
Q 1248 -198 1053 -473 
Q 858 -749 531 -902 
z
" transform="scale(0.015625)"/>
      <path id="Cmmi10-55" d="M 941 891 
Q 941 656 1033 472 
Q 1125 288 1300 186 
Q 1475 84 1709 84 
Q 1984 84 2245 196 
Q 2506 309 2715 509 
Q 2925 709 3073 965 
Q 3222 1222 3284 1472 
L 3859 3781 
Q 3872 3850 3872 3878 
Q 3872 4147 3378 4147 
Q 3316 4147 3316 4231 
Q 3338 4313 3350 4342 
Q 3363 4372 3425 4372 
L 4813 4372 
Q 4841 4372 4859 4344 
Q 4878 4316 4878 4288 
Q 4878 4284 4865 4239 
Q 4853 4194 4836 4170 
Q 4819 4147 4794 4147 
Q 4181 4147 4084 3756 
L 3506 1447 
Q 3434 1147 3264 864 
Q 3094 581 2845 351 
Q 2597 122 2298 -9 
Q 2000 -141 1691 -141 
Q 1338 -141 1045 14 
Q 753 169 587 447 
Q 422 725 422 1088 
Q 422 1297 469 1472 
L 1088 3956 
Q 1100 4019 1100 4044 
Q 1100 4113 1025 4122 
Q 903 4147 563 4147 
Q 500 4147 500 4231 
Q 522 4313 534 4342 
Q 547 4372 609 4372 
L 2328 4372 
Q 2394 4372 2394 4288 
Q 2391 4272 2381 4234 
Q 2372 4197 2356 4172 
Q 2341 4147 2309 4147 
Q 1919 4147 1766 4103 
Q 1681 4072 1644 3928 
L 1025 1447 
Q 941 1109 941 891 
z
" transform="scale(0.015625)"/>
      <path id="Cmr10-30" d="M 1600 -141 
Q 816 -141 533 504 
Q 250 1150 250 2041 
Q 250 2597 351 3087 
Q 453 3578 754 3920 
Q 1056 4263 1600 4263 
Q 2022 4263 2290 4056 
Q 2559 3850 2700 3523 
Q 2841 3197 2892 2823 
Q 2944 2450 2944 2041 
Q 2944 1491 2842 1011 
Q 2741 531 2444 195 
Q 2147 -141 1600 -141 
z
M 1600 25 
Q 1956 25 2131 390 
Q 2306 756 2347 1200 
Q 2388 1644 2388 2144 
Q 2388 2625 2347 3031 
Q 2306 3438 2132 3767 
Q 1959 4097 1600 4097 
Q 1238 4097 1063 3765 
Q 888 3434 847 3029 
Q 806 2625 806 2144 
Q 806 1788 823 1472 
Q 841 1156 916 820 
Q 991 484 1158 254 
Q 1325 25 1600 25 
z
" transform="scale(0.015625)"/>
      <path id="STIXGeneral-Regular-29" d="M 186 4224 
L 262 4326 
Q 992 3891 1408 3148 
Q 1824 2406 1824 1581 
Q 1824 -166 243 -1133 
L 186 -1030 
Q 845 -486 1059 54 
Q 1274 595 1274 1562 
Q 1274 2534 1059 3120 
Q 845 3706 186 4224 
z
" transform="scale(0.015625)"/>
     </defs>
     <use xlink:href="#STIXGeneral-Regular-4d" transform="translate(0 0.658854)"/>
     <use xlink:href="#STIXGeneral-Regular-65" transform="translate(88.899994 0.658854)"/>
     <use xlink:href="#STIXGeneral-Regular-61" transform="translate(133.299988 0.658854)"/>
     <use xlink:href="#STIXGeneral-Regular-6e" transform="translate(177.699982 0.658854)"/>
     <use xlink:href="#STIXGeneral-Regular-20" transform="translate(227.699966 0.658854)"/>
     <use xlink:href="#STIXGeneral-Regular-76" transform="translate(252.699951 0.658854)"/>
     <use xlink:href="#STIXGeneral-Regular-73" transform="translate(302.699936 0.658854)"/>
     <use xlink:href="#STIXGeneral-Regular-20" transform="translate(341.59993 0.658854)"/>
     <use xlink:href="#Cmmi10-74" transform="translate(366.599915 0.658854)"/>
     <use xlink:href="#Cmmi10-3d" transform="translate(402.683899 0.658854)"/>
     <use xlink:href="#Cmmi10-b0" transform="translate(452.683899 0.658854)"/>
     <use xlink:href="#STIXGeneral-Regular-20" transform="translate(504.392883 0.658854)"/>
     <use xlink:href="#STIXGeneral-Regular-28" transform="translate(529.392868 0.658854)"/>
     <use xlink:href="#Cmsy10-6a" transform="translate(562.692856 0.658854)"/>
     <use xlink:href="#Cmmi10-6e" transform="translate(590.378403 0.658854)"/>
     <use xlink:href="#Cmr10-3d" transform="translate(667.946762 0.658854)"/>
     <use xlink:href="#Cmr10-31" transform="translate(763.190903 0.658854)"/>
     <use xlink:href="#Cmex10-ae" transform="translate(813.190903 94)"/>
     <use xlink:href="#STIXGeneral-Regular-2c" transform="translate(860.4077 0.658854)"/>
     <use xlink:href="#STIXGeneral-Regular-20" transform="translate(885.407684 0.658854)"/>
     <use xlink:href="#Cmmi10-55" transform="translate(910.407669 0.658854)"/>
     <use xlink:href="#Cmr10-3d" transform="translate(996.179153 0.658854)"/>
     <use xlink:href="#Cmr10-30" transform="translate(1091.423294 0.658854)"/>
     <use xlink:href="#STIXGeneral-Regular-2c" transform="translate(1141.423294 0.658854)"/>
     <use xlink:href="#STIXGeneral-Regular-20" transform="translate(1166.423279 0.658854)"/>
     <use xlink:href="#Cmmi10-b0" transform="translate(1191.423264 0.658854)"/>
     <use xlink:href="#Cmr10-3d" transform="translate(1260.690842 0.658854)"/>
     <use xlink:href="#Cmr10-31" transform="translate(1355.934982 0.658854)"/>
     <use xlink:href="#STIXGeneral-Regular-29" transform="translate(1405.934982 0.658854)"/>
    </g>
   </g>
   <g id="line2d_117">
    <path d="M 57.722727 45.161931 
L 61.983818 58.788583 
L 66.244909 71.673119 
L 70.506 83.855955 
L 74.767091 95.375306 
L 79.028182 106.267305 
L 83.365364 116.744834 
L 87.702545 126.64184 
L 92.039727 135.990488 
L 96.376909 144.821161 
L 100.790182 153.304693 
L 105.203455 161.310181 
L 109.692818 168.990999 
L 114.182182 176.231767 
L 118.671545 183.057692 
L 123.237 189.598362 
L 127.878545 195.857696 
L 132.520091 201.746612 
L 137.237727 207.37508 
L 142.031455 212.747838 
L 146.901273 217.870106 
L 151.847182 222.747497 
L 156.869182 227.385982 
L 161.967273 231.791835 
L 167.141455 235.97158 
L 172.467818 239.987428 
L 177.870273 243.78339 
L 183.424909 247.415179 
L 189.131727 250.880359 
L 194.990727 254.177631 
L 201.001909 257.306761 
L 207.241364 260.303579 
L 213.709091 263.161229 
L 220.405091 265.874633 
L 227.329364 268.440377 
L 234.558 270.881102 
L 242.091 273.189547 
L 250.004455 275.380615 
L 258.298364 277.445121 
L 267.048818 279.3926 
L 276.331909 281.227853 
L 286.147636 282.93966 
L 296.648182 284.542199 
L 307.909636 286.032047 
L 320.008091 287.405053 
L 333.095727 288.663991 
L 347.400818 289.813641 
L 363.151636 290.852944 
L 380.728636 291.785041 
L 400.512273 292.606264 
L 423.187364 293.318984 
L 438.177273 293.686078 
L 438.177273 293.686078 
" clip-path="url(#p642ea000e6)" style="fill: none; stroke-dasharray: 9.62,4.16; stroke-dashoffset: 0; stroke: #1f77b4; stroke-width: 2.6"/>
    <defs>
     <path id="me0f1706703" d="M 0 -1.8 
L -1.8 1.8 
L 1.8 1.8 
z
" style="stroke: #1f77b4; stroke-linejoin: miter"/>
    </defs>
    <g clip-path="url(#p642ea000e6)">
     <use xlink:href="#me0f1706703" x="57.722727" y="45.161931" style="fill: #1f77b4; stroke: #1f77b4; stroke-linejoin: miter"/>
     <use xlink:href="#me0f1706703" x="88.159091" y="127.651189" style="fill: #1f77b4; stroke: #1f77b4; stroke-linejoin: miter"/>
     <use xlink:href="#me0f1706703" x="118.595455" y="182.945321" style="fill: #1f77b4; stroke: #1f77b4; stroke-linejoin: miter"/>
     <use xlink:href="#me0f1706703" x="149.031818" y="220.010058" style="fill: #1f77b4; stroke: #1f77b4; stroke-linejoin: miter"/>
     <use xlink:href="#me0f1706703" x="179.468182" y="244.855455" style="fill: #1f77b4; stroke: #1f77b4; stroke-linejoin: miter"/>
     <use xlink:href="#me0f1706703" x="209.904545" y="261.509748" style="fill: #1f77b4; stroke: #1f77b4; stroke-linejoin: miter"/>
     <use xlink:href="#me0f1706703" x="240.340909" y="272.673437" style="fill: #1f77b4; stroke: #1f77b4; stroke-linejoin: miter"/>
     <use xlink:href="#me0f1706703" x="270.777273" y="280.156715" style="fill: #1f77b4; stroke: #1f77b4; stroke-linejoin: miter"/>
     <use xlink:href="#me0f1706703" x="301.213636" y="285.17288" style="fill: #1f77b4; stroke: #1f77b4; stroke-linejoin: miter"/>
     <use xlink:href="#me0f1706703" x="331.65" y="288.535322" style="fill: #1f77b4; stroke: #1f77b4; stroke-linejoin: miter"/>
     <use xlink:href="#me0f1706703" x="362.086364" y="290.789232" style="fill: #1f77b4; stroke: #1f77b4; stroke-linejoin: miter"/>
     <use xlink:href="#me0f1706703" x="392.522727" y="292.300069" style="fill: #1f77b4; stroke: #1f77b4; stroke-linejoin: miter"/>
     <use xlink:href="#me0f1706703" x="422.959091" y="293.312816" style="fill: #1f77b4; stroke: #1f77b4; stroke-linejoin: miter"/>
    </g>
   </g>
   <g id="line2d_118">
    <path d="M 57.722727 45.161931 
L 61.983818 58.788586 
L 66.244909 71.673122 
L 70.506 83.855954 
L 74.767091 95.375299 
L 79.028182 106.267291 
L 83.365364 116.744812 
L 87.702545 126.641816 
L 92.039727 135.990467 
L 96.376909 144.821147 
L 100.790182 153.304694 
L 105.203455 161.310193 
L 109.692818 168.991025 
L 114.182182 176.231798 
L 118.671545 183.057723 
L 123.237 189.598396 
L 127.878545 195.857733 
L 132.520091 201.746664 
L 137.237727 207.375147 
L 142.031455 212.747927 
L 146.901273 217.870205 
L 151.847182 222.747588 
L 156.869182 227.386044 
L 161.967273 231.791858 
L 167.141455 235.971585 
L 172.467818 239.987418 
L 177.870273 243.783371 
L 183.424909 247.415165 
L 189.131727 250.880357 
L 194.990727 254.177637 
L 201.001909 257.306762 
L 207.241364 260.303561 
L 213.709091 263.161206 
L 220.405091 265.874612 
L 227.329364 268.44036 
L 234.558 270.881093 
L 242.091 273.189537 
L 250.004455 275.3806 
L 258.298364 277.445101 
L 267.048818 279.392566 
L 276.331909 281.227826 
L 286.147636 282.939636 
L 296.648182 284.54218 
L 307.909636 286.032023 
L 320.008091 287.405029 
L 333.095727 288.663972 
L 347.400818 289.813624 
L 363.151636 290.852926 
L 380.728636 291.785026 
L 400.512273 292.606252 
L 423.187364 293.318974 
L 438.177273 293.686069 
L 438.177273 293.686069 
" clip-path="url(#p642ea000e6)" style="fill: none; stroke: #000000; stroke-width: 2.3; stroke-linecap: square"/>
   </g>
   <g id="legend_1">
    <g id="line2d_119">
     <path d="M 349.585625 39.03 
L 360.585625 39.03 
L 371.585625 39.03 
" style="fill: none; stroke: #000000; stroke-width: 2.3; stroke-linecap: square"/>
    </g>
    <g id="text_16">
     <!-- Exact -->
     <g transform="translate(380.385625 42.88) scale(0.11 -0.11)">
      <defs>
       <path id="STIXGeneral-Regular-45" d="M 3821 1082 
L 3526 0 
L 77 0 
L 77 122 
Q 442 147 538 252 
Q 634 358 634 730 
L 634 3520 
Q 634 3878 534 3987 
Q 435 4096 77 4115 
L 77 4237 
L 3469 4237 
L 3494 3322 
L 3334 3322 
Q 3264 3750 3085 3872 
Q 2906 3994 2349 3994 
L 1510 3994 
Q 1370 3994 1328 3952 
Q 1286 3910 1286 3763 
L 1286 2355 
L 2253 2355 
Q 2656 2355 2787 2470 
Q 2918 2586 2976 2970 
L 3123 2970 
L 3123 1472 
L 2976 1472 
Q 2918 1875 2790 1984 
Q 2662 2093 2253 2093 
L 1286 2093 
L 1286 538 
Q 1286 346 1420 291 
Q 1555 237 1933 237 
L 2163 237 
Q 2848 237 3136 403 
Q 3424 570 3642 1082 
L 3821 1082 
z
" transform="scale(0.015625)"/>
       <path id="STIXGeneral-Regular-78" d="M 3066 0 
L 1779 0 
L 1779 96 
Q 1939 109 1987 137 
Q 2035 166 2035 250 
Q 2035 307 1997 365 
L 1414 1261 
L 909 474 
Q 781 275 781 211 
Q 781 96 1037 96 
L 1037 0 
L 109 0 
L 109 96 
Q 269 109 355 169 
Q 442 230 576 422 
L 1306 1478 
L 704 2400 
Q 557 2624 454 2704 
Q 352 2784 211 2784 
L 154 2784 
L 154 2880 
L 1478 2880 
L 1478 2784 
Q 1203 2778 1203 2643 
Q 1203 2509 1498 2074 
Q 1581 1958 1587 1946 
Q 1619 1990 1779 2227 
Q 1811 2285 1856 2349 
Q 1901 2413 1923 2451 
Q 1946 2490 1971 2528 
Q 1997 2566 2006 2595 
Q 2016 2624 2016 2643 
Q 2016 2765 1760 2784 
L 1760 2880 
L 2771 2880 
L 2771 2784 
Q 2445 2771 2253 2502 
L 1722 1734 
L 2541 480 
Q 2790 96 3066 96 
L 3066 0 
z
" transform="scale(0.015625)"/>
      </defs>
      <use xlink:href="#STIXGeneral-Regular-45"/>
      <use xlink:href="#STIXGeneral-Regular-78" transform="translate(61.099991 0)"/>
      <use xlink:href="#STIXGeneral-Regular-61" transform="translate(111.099976 0)"/>
      <use xlink:href="#STIXGeneral-Regular-63" transform="translate(155.499969 0)"/>
      <use xlink:href="#STIXGeneral-Regular-74" transform="translate(199.899963 0)"/>
     </g>
    </g>
    <g id="line2d_120">
     <path d="M 349.585625 54.617344 
L 360.585625 54.617344 
L 371.585625 54.617344 
" style="fill: none; stroke-dasharray: 9.62,4.16; stroke-dashoffset: 0; stroke: #1f77b4; stroke-width: 2.6"/>
     <g>
      <use xlink:href="#me0f1706703" x="360.585625" y="54.617344" style="fill: #1f77b4; stroke: #1f77b4; stroke-linejoin: miter"/>
     </g>
    </g>
    <g id="text_17">
     <!-- Density Matrix -->
     <g transform="translate(380.385625 58.467344) scale(0.11 -0.11)">
      <defs>
       <path id="STIXGeneral-Regular-44" d="M 102 4237 
L 1830 4237 
Q 3078 4237 3750 3654 
Q 4384 3110 4384 2138 
Q 4384 966 3514 410 
Q 2880 0 1901 0 
L 102 0 
L 102 122 
Q 474 147 570 252 
Q 666 358 666 736 
L 666 3520 
Q 666 3891 570 3990 
Q 474 4090 102 4115 
L 102 4237 
z
M 1318 3731 
L 1318 538 
Q 1318 365 1379 301 
Q 1440 237 1626 237 
Q 2125 237 2432 307 
Q 2739 378 3021 570 
Q 3686 1018 3686 2099 
Q 3686 3027 3078 3558 
Q 2803 3802 2476 3901 
Q 2150 4000 1658 4000 
Q 1472 4000 1395 3942 
Q 1318 3885 1318 3731 
z
" transform="scale(0.015625)"/>
       <path id="STIXGeneral-Regular-79" d="M 3040 2880 
L 3040 2784 
Q 2925 2771 2854 2700 
Q 2784 2630 2720 2458 
L 1760 -160 
Q 1510 -838 1257 -1116 
Q 1005 -1395 640 -1395 
Q 435 -1395 313 -1289 
Q 192 -1184 192 -1024 
Q 192 -902 272 -816 
Q 352 -730 467 -730 
Q 653 -730 800 -813 
Q 883 -858 966 -858 
Q 1101 -858 1286 -576 
Q 1376 -448 1459 -211 
Q 1542 26 1542 115 
Q 1542 198 1274 762 
L 429 2566 
Q 346 2752 90 2790 
L 90 2880 
L 1402 2880 
L 1402 2784 
Q 1197 2778 1117 2739 
Q 1037 2701 1037 2611 
Q 1037 2541 1120 2349 
L 1837 749 
L 2458 2515 
Q 2483 2573 2483 2630 
Q 2483 2784 2189 2784 
L 2189 2880 
L 3040 2880 
z
" transform="scale(0.015625)"/>
      </defs>
      <use xlink:href="#STIXGeneral-Regular-44"/>
      <use xlink:href="#STIXGeneral-Regular-65" transform="translate(72.199982 0)"/>
      <use xlink:href="#STIXGeneral-Regular-6e" transform="translate(116.599976 0)"/>
      <use xlink:href="#STIXGeneral-Regular-73" transform="translate(166.59996 0)"/>
      <use xlink:href="#STIXGeneral-Regular-69" transform="translate(205.499954 0)"/>
      <use xlink:href="#STIXGeneral-Regular-74" transform="translate(233.299942 0)"/>
      <use xlink:href="#STIXGeneral-Regular-79" transform="translate(261.09993 0)"/>
      <use xlink:href="#STIXGeneral-Regular-20" transform="translate(311.099915 0)"/>
      <use xlink:href="#STIXGeneral-Regular-4d" transform="translate(336.099899 0)"/>
      <use xlink:href="#STIXGeneral-Regular-61" transform="translate(424.999893 0)"/>
      <use xlink:href="#STIXGeneral-Regular-74" transform="translate(469.399887 0)"/>
      <use xlink:href="#STIXGeneral-Regular-72" transform="translate(497.199875 0)"/>
      <use xlink:href="#STIXGeneral-Regular-69" transform="translate(530.499863 0)"/>
      <use xlink:href="#STIXGeneral-Regular-78" transform="translate(558.29985 0)"/>
     </g>
    </g>
    <g id="line2d_121">
     <path d="M 349.585625 70.215 
L 360.585625 70.215 
L 371.585625 70.215 
" style="fill: none; stroke-dasharray: 16,4,2.5,4; stroke-dashoffset: 0; stroke: #ff7f0e; stroke-width: 2.5"/>
     <g>
      <use xlink:href="#m8d979f18b3" x="360.585625" y="70.215" style="fill: #ff7f0e; stroke: #ff7f0e"/>
     </g>
    </g>
    <g id="text_18">
     <!-- Monte Carlo -->
     <g transform="translate(380.385625 74.065) scale(0.11 -0.11)">
      <defs>
       <path id="STIXGeneral-Regular-6f" d="M 3008 1478 
Q 3008 806 2608 371 
Q 2208 -64 1568 -64 
Q 979 -64 582 368 
Q 186 800 186 1459 
Q 186 2125 582 2534 
Q 979 2944 1626 2944 
Q 2221 2944 2614 2537 
Q 3008 2131 3008 1478 
z
M 2432 1306 
Q 2432 2035 2112 2445 
Q 1856 2765 1504 2765 
Q 1171 2765 966 2493 
Q 762 2221 762 1747 
Q 762 928 1101 435 
Q 1318 115 1677 115 
Q 2029 115 2230 432 
Q 2432 749 2432 1306 
z
" transform="scale(0.015625)"/>
       <path id="STIXGeneral-Regular-43" d="M 3930 838 
L 4051 723 
Q 3482 -90 2304 -90 
Q 1376 -90 794 480 
Q 179 1082 179 2080 
Q 179 3014 755 3661 
Q 1357 4326 2310 4326 
Q 2720 4326 3072 4230 
Q 3475 4115 3514 4115 
Q 3725 4115 3782 4326 
L 3910 4326 
L 3968 2874 
L 3821 2874 
Q 3718 3334 3488 3584 
Q 3034 4070 2458 4070 
Q 1747 4070 1334 3548 
Q 922 3027 922 2182 
Q 922 1152 1382 653 
Q 1811 192 2522 192 
Q 2944 192 3251 339 
Q 3558 486 3930 838 
z
" transform="scale(0.015625)"/>
      </defs>
      <use xlink:href="#STIXGeneral-Regular-4d"/>
      <use xlink:href="#STIXGeneral-Regular-6f" transform="translate(88.899994 0)"/>
      <use xlink:href="#STIXGeneral-Regular-6e" transform="translate(138.899979 0)"/>
      <use xlink:href="#STIXGeneral-Regular-74" transform="translate(188.899963 0)"/>
      <use xlink:href="#STIXGeneral-Regular-65" transform="translate(216.699951 0)"/>
      <use xlink:href="#STIXGeneral-Regular-20" transform="translate(261.099945 0)"/>
      <use xlink:href="#STIXGeneral-Regular-43" transform="translate(286.09993 0)"/>
      <use xlink:href="#STIXGeneral-Regular-61" transform="translate(352.799927 0)"/>
      <use xlink:href="#STIXGeneral-Regular-72" transform="translate(397.199921 0)"/>
      <use xlink:href="#STIXGeneral-Regular-6c" transform="translate(430.499908 0)"/>
      <use xlink:href="#STIXGeneral-Regular-6f" transform="translate(458.299896 0)"/>
     </g>
    </g>
    <g id="line2d_122">
     <path d="M 349.585625 85.802344 
L 360.585625 85.802344 
L 371.585625 85.802344 
" style="fill: none; stroke-dasharray: 2.7,4.455; stroke-dashoffset: 0; stroke: #2ca02c; stroke-width: 2.7"/>
     <g>
      <use xlink:href="#mc10cca7093" x="360.585625" y="85.802344" style="fill: #2ca02c; stroke: #2ca02c; stroke-linejoin: miter"/>
     </g>
    </g>
    <g id="text_19">
     <!-- Positive-P -->
     <g transform="translate(380.385625 89.652344) scale(0.11 -0.11)">
      <defs>
       <path id="STIXGeneral-Regular-2d" d="M 1824 1242 
L 250 1242 
L 250 1645 
L 1824 1645 
L 1824 1242 
z
" transform="scale(0.015625)"/>
      </defs>
      <use xlink:href="#STIXGeneral-Regular-50"/>
      <use xlink:href="#STIXGeneral-Regular-6f" transform="translate(55.699997 0)"/>
      <use xlink:href="#STIXGeneral-Regular-73" transform="translate(105.699982 0)"/>
      <use xlink:href="#STIXGeneral-Regular-69" transform="translate(144.599976 0)"/>
      <use xlink:href="#STIXGeneral-Regular-74" transform="translate(172.399963 0)"/>
      <use xlink:href="#STIXGeneral-Regular-69" transform="translate(200.199951 0)"/>
      <use xlink:href="#STIXGeneral-Regular-76" transform="translate(227.999939 0)"/>
      <use xlink:href="#STIXGeneral-Regular-65" transform="translate(277.999924 0)"/>
      <use xlink:href="#STIXGeneral-Regular-2d" transform="translate(322.399918 0)"/>
      <use xlink:href="#STIXGeneral-Regular-50" transform="translate(355.699905 0)"/>
     </g>
    </g>
   </g>
  </g>
 </g>
 <defs>
  <clipPath id="p642ea000e6">
   <rect x="38.7" y="25.28" width="418.5" height="288.288"/>
  </clipPath>
 </defs>
</svg>
