<?xml version="1.0" encoding="utf-8" standalone="no"?>
<!DOCTYPE svg PUBLIC "-//W3C//DTD SVG 1.1//EN"
  "http://www.w3.org/Graphics/SVG/1.1/DTD/svg11.dtd">
<svg xmlns:xlink="http://www.w3.org/1999/xlink" width="460.8pt" height="348.068pt" viewBox="0 0 460.8 348.068" xmlns="http://www.w3.org/2000/svg" version="1.1">
 <metadata>
  <rdf:RDF xmlns:dc="http://purl.org/dc/elements/1.1/" xmlns:cc="http://creativecommons.org/ns#" xmlns:rdf="http://www.w3.org/1999/02/22-rdf-syntax-ns#">
   <cc:Work>
    <dc:type rdf:resource="http://purl.org/dc/dcmitype/StillImage"/>
    <dc:date>2026-04-18T09:21:53.191585</dc:date>
    <dc:format>image/svg+xml</dc:format>
    <dc:creator>
     <cc:Agent>
      <dc:title>Matplotlib v3.10.8, https://matplotlib.org/</dc:title>
     </cc:Agent>
    </dc:creator>
   </cc:Work>
  </rdf:RDF>
 </metadata>
 <defs>
  <style type="text/css">*{stroke-linejoin: round; stroke-linecap: butt}</style>
 </defs>
 <g id="figure_1">
  <g id="patch_1">
   <path d="M 0 348.068 
L 460.8 348.068 
L 460.8 0 
L 0 0 
z
" style="fill: #ffffff"/>
  </g>
  <g id="axes_1">
   <g id="patch_2">
    <path d="M 38.7 313.568 
L 457.2 313.568 
L 457.2 25.28 
L 38.7 25.28 
z
" style="fill: #ffffff"/>
   </g>
   <g id="matplotlib.axis_1">
    <g id="xtick_1">
     <g id="line2d_1">
      <path d="M 57.722727 313.568 
L 57.722727 25.28 
" clip-path="url(#p9817f76b4f)" style="fill: none; stroke: #b0b0b0; stroke-opacity: 0.35; stroke-width: 0.5; stroke-linecap: square"/>
     </g>
     <g id="line2d_2">
      <defs>
       <path id="mc1d774361e" d="M 0 0 
L 0 -3 
" style="stroke: #000000; stroke-width: 0.5"/>
      </defs>
      <g>
       <use xlink:href="#mc1d774361e" x="57.722727" y="313.568" style="stroke: #000000; stroke-width: 0.5"/>
      </g>
     </g>
     <g id="line2d_3">
      <defs>
       <path id="m17b5f9306c" d="M 0 0 
L 0 3 
" style="stroke: #000000; stroke-width: 0.5"/>
      </defs>
      <g>
       <use xlink:href="#m17b5f9306c" x="57.722727" y="25.28" style="stroke: #000000; stroke-width: 0.5"/>
      </g>
     </g>
     <g id="text_1">
      <!-- $\mathdefault{0}$ -->
      <g transform="translate(54.722727 325.263625) scale(0.12 -0.12)">
       <defs>
        <path id="STIXGeneral-Regular-30" d="M 3046 2112 
Q 3046 1683 2963 1302 
Q 2880 922 2717 602 
Q 2554 282 2266 96 
Q 1978 -90 1600 -90 
Q 1210 -90 915 108 
Q 621 307 461 640 
Q 301 973 227 1350 
Q 154 1728 154 2150 
Q 154 2746 301 3222 
Q 448 3699 790 4012 
Q 1133 4326 1626 4326 
Q 2253 4326 2649 3712 
Q 3046 3098 3046 2112 
z
M 2432 2080 
Q 2432 3091 2217 3625 
Q 2003 4160 1587 4160 
Q 1190 4160 979 3622 
Q 768 3085 768 2106 
Q 768 1120 979 598 
Q 1190 77 1600 77 
Q 2003 77 2217 598 
Q 2432 1120 2432 2080 
z
" transform="scale(0.015625)"/>
       </defs>
       <use xlink:href="#STIXGeneral-Regular-30" transform="translate(0 0.40625)"/>
      </g>
     </g>
    </g>
    <g id="xtick_2">
     <g id="line2d_4">
      <path d="M 133.813636 313.568 
L 133.813636 25.28 
" clip-path="url(#p9817f76b4f)" style="fill: none; stroke: #b0b0b0; stroke-opacity: 0.35; stroke-width: 0.5; stroke-linecap: square"/>
     </g>
     <g id="line2d_5">
      <g>
       <use xlink:href="#mc1d774361e" x="133.813636" y="313.568" style="stroke: #000000; stroke-width: 0.5"/>
      </g>
     </g>
     <g id="line2d_6">
      <g>
       <use xlink:href="#m17b5f9306c" x="133.813636" y="25.28" style="stroke: #000000; stroke-width: 0.5"/>
      </g>
     </g>
     <g id="text_2">
      <!-- $\mathdefault{1}$ -->
      <g transform="translate(130.813636 325.263625) scale(0.12 -0.12)">
       <defs>
        <path id="STIXGeneral-Regular-31" d="M 2522 0 
L 755 0 
L 755 96 
Q 1107 115 1235 227 
Q 1363 339 1363 608 
L 1363 3482 
Q 1363 3795 1171 3795 
Q 1082 3795 883 3718 
L 710 3654 
L 710 3744 
L 1856 4326 
L 1914 4307 
L 1914 486 
Q 1914 275 2042 185 
Q 2170 96 2522 96 
L 2522 0 
z
" transform="scale(0.015625)"/>
       </defs>
       <use xlink:href="#STIXGeneral-Regular-31" transform="translate(0 0.40625)"/>
      </g>
     </g>
    </g>
    <g id="xtick_3">
     <g id="line2d_7">
      <path d="M 209.904545 313.568 
L 209.904545 25.28 
" clip-path="url(#p9817f76b4f)" style="fill: none; stroke: #b0b0b0; stroke-opacity: 0.35; stroke-width: 0.5; stroke-linecap: square"/>
     </g>
     <g id="line2d_8">
      <g>
       <use xlink:href="#mc1d774361e" x="209.904545" y="313.568" style="stroke: #000000; stroke-width: 0.5"/>
      </g>
     </g>
     <g id="line2d_9">
      <g>
       <use xlink:href="#m17b5f9306c" x="209.904545" y="25.28" style="stroke: #000000; stroke-width: 0.5"/>
      </g>
     </g>
     <g id="text_3">
      <!-- $\mathdefault{2}$ -->
      <g transform="translate(206.904545 325.263625) scale(0.12 -0.12)">
       <defs>
        <path id="STIXGeneral-Regular-32" d="M 3034 877 
L 2688 0 
L 186 0 
L 186 77 
L 1325 1286 
Q 1773 1754 1965 2144 
Q 2157 2534 2157 2950 
Q 2157 3379 1920 3616 
Q 1683 3853 1267 3853 
Q 922 3853 720 3673 
Q 518 3494 326 3021 
L 192 3053 
Q 301 3648 630 3987 
Q 960 4326 1523 4326 
Q 2054 4326 2380 4006 
Q 2707 3686 2707 3200 
Q 2707 2477 1888 1613 
L 832 486 
L 2330 486 
Q 2541 486 2665 569 
Q 2790 653 2944 915 
L 3034 877 
z
" transform="scale(0.015625)"/>
       </defs>
       <use xlink:href="#STIXGeneral-Regular-32" transform="translate(0 0.40625)"/>
      </g>
     </g>
    </g>
    <g id="xtick_4">
     <g id="line2d_10">
      <path d="M 285.995455 313.568 
L 285.995455 25.28 
" clip-path="url(#p9817f76b4f)" style="fill: none; stroke: #b0b0b0; stroke-opacity: 0.35; stroke-width: 0.5; stroke-linecap: square"/>
     </g>
     <g id="line2d_11">
      <g>
       <use xlink:href="#mc1d774361e" x="285.995455" y="313.568" style="stroke: #000000; stroke-width: 0.5"/>
      </g>
     </g>
     <g id="line2d_12">
      <g>
       <use xlink:href="#m17b5f9306c" x="285.995455" y="25.28" style="stroke: #000000; stroke-width: 0.5"/>
      </g>
     </g>
     <g id="text_4">
      <!-- $\mathdefault{3}$ -->
      <g transform="translate(282.995455 325.263625) scale(0.12 -0.12)">
       <defs>
        <path id="STIXGeneral-Regular-33" d="M 390 3264 
L 288 3290 
Q 435 3770 748 4048 
Q 1062 4326 1542 4326 
Q 1990 4326 2265 4083 
Q 2541 3840 2541 3450 
Q 2541 2925 1946 2566 
Q 2298 2413 2477 2227 
Q 2758 1914 2758 1402 
Q 2758 890 2464 506 
Q 2246 211 1840 60 
Q 1434 -90 979 -90 
Q 262 -90 262 275 
Q 262 378 339 442 
Q 416 506 525 506 
Q 685 506 915 339 
Q 1197 141 1466 141 
Q 1818 141 2058 425 
Q 2298 710 2298 1120 
Q 2298 1856 1632 2048 
Q 1434 2112 979 2112 
L 979 2202 
Q 1338 2323 1517 2432 
Q 2035 2726 2035 3290 
Q 2035 3610 1852 3776 
Q 1670 3942 1344 3942 
Q 768 3942 390 3264 
z
" transform="scale(0.015625)"/>
       </defs>
       <use xlink:href="#STIXGeneral-Regular-33" transform="translate(0 0.40625)"/>
      </g>
     </g>
    </g>
    <g id="xtick_5">
     <g id="line2d_13">
      <path d="M 362.086364 313.568 
L 362.086364 25.28 
" clip-path="url(#p9817f76b4f)" style="fill: none; stroke: #b0b0b0; stroke-opacity: 0.35; stroke-width: 0.5; stroke-linecap: square"/>
     </g>
     <g id="line2d_14">
      <g>
       <use xlink:href="#mc1d774361e" x="362.086364" y="313.568" style="stroke: #000000; stroke-width: 0.5"/>
      </g>
     </g>
     <g id="line2d_15">
      <g>
       <use xlink:href="#m17b5f9306c" x="362.086364" y="25.28" style="stroke: #000000; stroke-width: 0.5"/>
      </g>
     </g>
     <g id="text_5">
      <!-- $\mathdefault{4}$ -->
      <g transform="translate(359.086364 325.263625) scale(0.12 -0.12)">
       <defs>
        <path id="STIXGeneral-Regular-34" d="M 3027 1069 
L 2368 1069 
L 2368 0 
L 1869 0 
L 1869 1069 
L 77 1069 
L 77 1478 
L 2086 4326 
L 2368 4326 
L 2368 1478 
L 3027 1478 
L 3027 1069 
z
M 1869 1478 
L 1869 3674 
L 333 1478 
L 1869 1478 
z
" transform="scale(0.015625)"/>
       </defs>
       <use xlink:href="#STIXGeneral-Regular-34" transform="translate(0 0.40625)"/>
      </g>
     </g>
    </g>
    <g id="xtick_6">
     <g id="line2d_16">
      <path d="M 438.177273 313.568 
L 438.177273 25.28 
" clip-path="url(#p9817f76b4f)" style="fill: none; stroke: #b0b0b0; stroke-opacity: 0.35; stroke-width: 0.5; stroke-linecap: square"/>
     </g>
     <g id="line2d_17">
      <g>
       <use xlink:href="#mc1d774361e" x="438.177273" y="313.568" style="stroke: #000000; stroke-width: 0.5"/>
      </g>
     </g>
     <g id="line2d_18">
      <g>
       <use xlink:href="#m17b5f9306c" x="438.177273" y="25.28" style="stroke: #000000; stroke-width: 0.5"/>
      </g>
     </g>
     <g id="text_6">
      <!-- $\mathdefault{5}$ -->
      <g transform="translate(435.177273 325.263625) scale(0.12 -0.12)">
       <defs>
        <path id="STIXGeneral-Regular-35" d="M 2803 4358 
L 2573 3814 
Q 2534 3731 2400 3731 
L 1158 3731 
L 902 3187 
Q 1606 3053 1920 2896 
Q 2234 2739 2502 2368 
Q 2726 2061 2726 1555 
Q 2726 1094 2576 780 
Q 2426 467 2099 224 
Q 1664 -90 1011 -90 
Q 646 -90 422 19 
Q 198 128 198 307 
Q 198 550 486 550 
Q 717 550 960 352 
Q 1210 147 1414 147 
Q 1747 147 2012 480 
Q 2278 813 2278 1229 
Q 2278 1843 1850 2189 
Q 1293 2637 486 2637 
Q 410 2637 410 2688 
L 416 2720 
L 1114 4237 
L 2438 4237 
Q 2547 4237 2608 4269 
Q 2669 4301 2746 4403 
L 2803 4358 
z
" transform="scale(0.015625)"/>
       </defs>
       <use xlink:href="#STIXGeneral-Regular-35" transform="translate(0 0.203125)"/>
      </g>
     </g>
    </g>
    <g id="xtick_7">
     <g id="line2d_19">
      <defs>
       <path id="m2f3c1c0704" d="M 0 0 
L 0 -1.5 
" style="stroke: #000000; stroke-width: 0.5"/>
      </defs>
      <g>
       <use xlink:href="#m2f3c1c0704" x="42.504545" y="313.568" style="stroke: #000000; stroke-width: 0.5"/>
      </g>
     </g>
     <g id="line2d_20">
      <defs>
       <path id="mb55ccf1ceb" d="M 0 0 
L 0 1.5 
" style="stroke: #000000; stroke-width: 0.5"/>
      </defs>
      <g>
       <use xlink:href="#mb55ccf1ceb" x="42.504545" y="25.28" style="stroke: #000000; stroke-width: 0.5"/>
      </g>
     </g>
    </g>
    <g id="xtick_8">
     <g id="line2d_21">
      <g>
       <use xlink:href="#m2f3c1c0704" x="72.940909" y="313.568" style="stroke: #000000; stroke-width: 0.5"/>
      </g>
     </g>
     <g id="line2d_22">
      <g>
       <use xlink:href="#mb55ccf1ceb" x="72.940909" y="25.28" style="stroke: #000000; stroke-width: 0.5"/>
      </g>
     </g>
    </g>
    <g id="xtick_9">
     <g id="line2d_23">
      <g>
       <use xlink:href="#m2f3c1c0704" x="88.159091" y="313.568" style="stroke: #000000; stroke-width: 0.5"/>
      </g>
     </g>
     <g id="line2d_24">
      <g>
       <use xlink:href="#mb55ccf1ceb" x="88.159091" y="25.28" style="stroke: #000000; stroke-width: 0.5"/>
      </g>
     </g>
    </g>
    <g id="xtick_10">
     <g id="line2d_25">
      <g>
       <use xlink:href="#m2f3c1c0704" x="103.377273" y="313.568" style="stroke: #000000; stroke-width: 0.5"/>
      </g>
     </g>
     <g id="line2d_26">
      <g>
       <use xlink:href="#mb55ccf1ceb" x="103.377273" y="25.28" style="stroke: #000000; stroke-width: 0.5"/>
      </g>
     </g>
    </g>
    <g id="xtick_11">
     <g id="line2d_27">
      <g>
       <use xlink:href="#m2f3c1c0704" x="118.595455" y="313.568" style="stroke: #000000; stroke-width: 0.5"/>
      </g>
     </g>
     <g id="line2d_28">
      <g>
       <use xlink:href="#mb55ccf1ceb" x="118.595455" y="25.28" style="stroke: #000000; stroke-width: 0.5"/>
      </g>
     </g>
    </g>
    <g id="xtick_12">
     <g id="line2d_29">
      <g>
       <use xlink:href="#m2f3c1c0704" x="149.031818" y="313.568" style="stroke: #000000; stroke-width: 0.5"/>
      </g>
     </g>
     <g id="line2d_30">
      <g>
       <use xlink:href="#mb55ccf1ceb" x="149.031818" y="25.28" style="stroke: #000000; stroke-width: 0.5"/>
      </g>
     </g>
    </g>
    <g id="xtick_13">
     <g id="line2d_31">
      <g>
       <use xlink:href="#m2f3c1c0704" x="164.25" y="313.568" style="stroke: #000000; stroke-width: 0.5"/>
      </g>
     </g>
     <g id="line2d_32">
      <g>
       <use xlink:href="#mb55ccf1ceb" x="164.25" y="25.28" style="stroke: #000000; stroke-width: 0.5"/>
      </g>
     </g>
    </g>
    <g id="xtick_14">
     <g id="line2d_33">
      <g>
       <use xlink:href="#m2f3c1c0704" x="179.468182" y="313.568" style="stroke: #000000; stroke-width: 0.5"/>
      </g>
     </g>
     <g id="line2d_34">
      <g>
       <use xlink:href="#mb55ccf1ceb" x="179.468182" y="25.28" style="stroke: #000000; stroke-width: 0.5"/>
      </g>
     </g>
    </g>
    <g id="xtick_15">
     <g id="line2d_35">
      <g>
       <use xlink:href="#m2f3c1c0704" x="194.686364" y="313.568" style="stroke: #000000; stroke-width: 0.5"/>
      </g>
     </g>
     <g id="line2d_36">
      <g>
       <use xlink:href="#mb55ccf1ceb" x="194.686364" y="25.28" style="stroke: #000000; stroke-width: 0.5"/>
      </g>
     </g>
    </g>
    <g id="xtick_16">
     <g id="line2d_37">
      <g>
       <use xlink:href="#m2f3c1c0704" x="225.122727" y="313.568" style="stroke: #000000; stroke-width: 0.5"/>
      </g>
     </g>
     <g id="line2d_38">
      <g>
       <use xlink:href="#mb55ccf1ceb" x="225.122727" y="25.28" style="stroke: #000000; stroke-width: 0.5"/>
      </g>
     </g>
    </g>
    <g id="xtick_17">
     <g id="line2d_39">
      <g>
       <use xlink:href="#m2f3c1c0704" x="240.340909" y="313.568" style="stroke: #000000; stroke-width: 0.5"/>
      </g>
     </g>
     <g id="line2d_40">
      <g>
       <use xlink:href="#mb55ccf1ceb" x="240.340909" y="25.28" style="stroke: #000000; stroke-width: 0.5"/>
      </g>
     </g>
    </g>
    <g id="xtick_18">
     <g id="line2d_41">
      <g>
       <use xlink:href="#m2f3c1c0704" x="255.559091" y="313.568" style="stroke: #000000; stroke-width: 0.5"/>
      </g>
     </g>
     <g id="line2d_42">
      <g>
       <use xlink:href="#mb55ccf1ceb" x="255.559091" y="25.28" style="stroke: #000000; stroke-width: 0.5"/>
      </g>
     </g>
    </g>
    <g id="xtick_19">
     <g id="line2d_43">
      <g>
       <use xlink:href="#m2f3c1c0704" x="270.777273" y="313.568" style="stroke: #000000; stroke-width: 0.5"/>
      </g>
     </g>
     <g id="line2d_44">
      <g>
       <use xlink:href="#mb55ccf1ceb" x="270.777273" y="25.28" style="stroke: #000000; stroke-width: 0.5"/>
      </g>
     </g>
    </g>
    <g id="xtick_20">
     <g id="line2d_45">
      <g>
       <use xlink:href="#m2f3c1c0704" x="301.213636" y="313.568" style="stroke: #000000; stroke-width: 0.5"/>
      </g>
     </g>
     <g id="line2d_46">
      <g>
       <use xlink:href="#mb55ccf1ceb" x="301.213636" y="25.28" style="stroke: #000000; stroke-width: 0.5"/>
      </g>
     </g>
    </g>
    <g id="xtick_21">
     <g id="line2d_47">
      <g>
       <use xlink:href="#m2f3c1c0704" x="316.431818" y="313.568" style="stroke: #000000; stroke-width: 0.5"/>
      </g>
     </g>
     <g id="line2d_48">
      <g>
       <use xlink:href="#mb55ccf1ceb" x="316.431818" y="25.28" style="stroke: #000000; stroke-width: 0.5"/>
      </g>
     </g>
    </g>
    <g id="xtick_22">
     <g id="line2d_49">
      <g>
       <use xlink:href="#m2f3c1c0704" x="331.65" y="313.568" style="stroke: #000000; stroke-width: 0.5"/>
      </g>
     </g>
     <g id="line2d_50">
      <g>
       <use xlink:href="#mb55ccf1ceb" x="331.65" y="25.28" style="stroke: #000000; stroke-width: 0.5"/>
      </g>
     </g>
    </g>
    <g id="xtick_23">
     <g id="line2d_51">
      <g>
       <use xlink:href="#m2f3c1c0704" x="346.868182" y="313.568" style="stroke: #000000; stroke-width: 0.5"/>
      </g>
     </g>
     <g id="line2d_52">
      <g>
       <use xlink:href="#mb55ccf1ceb" x="346.868182" y="25.28" style="stroke: #000000; stroke-width: 0.5"/>
      </g>
     </g>
    </g>
    <g id="xtick_24">
     <g id="line2d_53">
      <g>
       <use xlink:href="#m2f3c1c0704" x="377.304545" y="313.568" style="stroke: #000000; stroke-width: 0.5"/>
      </g>
     </g>
     <g id="line2d_54">
      <g>
       <use xlink:href="#mb55ccf1ceb" x="377.304545" y="25.28" style="stroke: #000000; stroke-width: 0.5"/>
      </g>
     </g>
    </g>
    <g id="xtick_25">
     <g id="line2d_55">
      <g>
       <use xlink:href="#m2f3c1c0704" x="392.522727" y="313.568" style="stroke: #000000; stroke-width: 0.5"/>
      </g>
     </g>
     <g id="line2d_56">
      <g>
       <use xlink:href="#mb55ccf1ceb" x="392.522727" y="25.28" style="stroke: #000000; stroke-width: 0.5"/>
      </g>
     </g>
    </g>
    <g id="xtick_26">
     <g id="line2d_57">
      <g>
       <use xlink:href="#m2f3c1c0704" x="407.740909" y="313.568" style="stroke: #000000; stroke-width: 0.5"/>
      </g>
     </g>
     <g id="line2d_58">
      <g>
       <use xlink:href="#mb55ccf1ceb" x="407.740909" y="25.28" style="stroke: #000000; stroke-width: 0.5"/>
      </g>
     </g>
    </g>
    <g id="xtick_27">
     <g id="line2d_59">
      <g>
       <use xlink:href="#m2f3c1c0704" x="422.959091" y="313.568" style="stroke: #000000; stroke-width: 0.5"/>
      </g>
     </g>
     <g id="line2d_60">
      <g>
       <use xlink:href="#mb55ccf1ceb" x="422.959091" y="25.28" style="stroke: #000000; stroke-width: 0.5"/>
      </g>
     </g>
    </g>
    <g id="xtick_28">
     <g id="line2d_61">
      <g>
       <use xlink:href="#m2f3c1c0704" x="453.395455" y="313.568" style="stroke: #000000; stroke-width: 0.5"/>
      </g>
     </g>
     <g id="line2d_62">
      <g>
       <use xlink:href="#mb55ccf1ceb" x="453.395455" y="25.28" style="stroke: #000000; stroke-width: 0.5"/>
      </g>
     </g>
    </g>
    <g id="text_7">
     <!-- Time -->
     <g transform="translate(233.173438 341.429562) scale(0.14 -0.14)">
      <defs>
       <path id="STIXGeneral-Regular-54" d="M 3795 3149 
L 3642 3149 
Q 3539 3674 3353 3821 
Q 3168 3968 2656 3968 
L 2278 3968 
L 2278 710 
Q 2278 346 2387 243 
Q 2496 141 2893 122 
L 2893 0 
L 1024 0 
L 1024 122 
Q 1427 147 1526 256 
Q 1626 365 1626 787 
L 1626 3968 
L 1242 3968 
Q 723 3968 540 3817 
Q 358 3667 262 3149 
L 109 3149 
L 154 4237 
L 3750 4237 
L 3795 3149 
z
" transform="scale(0.015625)"/>
       <path id="STIXGeneral-Regular-69" d="M 1152 4045 
Q 1152 3904 1056 3811 
Q 960 3718 819 3718 
Q 685 3718 592 3811 
Q 499 3904 499 4045 
Q 499 4179 595 4275 
Q 691 4371 826 4371 
Q 966 4371 1059 4275 
Q 1152 4179 1152 4045 
z
M 1619 0 
L 102 0 
L 102 96 
Q 435 115 521 211 
Q 608 307 608 666 
L 608 2118 
Q 608 2342 563 2432 
Q 518 2522 397 2522 
Q 243 2522 128 2490 
L 128 2592 
L 1120 2944 
L 1146 2918 
L 1146 672 
Q 1146 314 1226 218 
Q 1306 122 1619 96 
L 1619 0 
z
" transform="scale(0.015625)"/>
       <path id="STIXGeneral-Regular-6d" d="M 4960 0 
L 3565 0 
L 3565 96 
Q 3834 122 3907 208 
Q 3981 294 3981 576 
L 3981 1894 
Q 3981 2278 3869 2444 
Q 3757 2611 3488 2611 
Q 3264 2611 3107 2521 
Q 2950 2432 2803 2221 
L 2803 608 
Q 2803 301 2896 201 
Q 2989 102 3264 96 
L 3264 0 
L 1830 0 
L 1830 96 
Q 2112 115 2189 188 
Q 2266 262 2266 550 
L 2266 1901 
Q 2266 2611 1850 2611 
Q 1670 2611 1468 2531 
Q 1267 2451 1171 2336 
Q 1088 2240 1088 2227 
L 1088 448 
Q 1088 243 1177 176 
Q 1267 109 1523 96 
L 1523 0 
L 102 0 
L 102 96 
Q 371 102 460 195 
Q 550 288 550 563 
L 550 2150 
Q 550 2387 499 2480 
Q 448 2573 326 2573 
Q 230 2573 122 2547 
L 122 2656 
Q 557 2778 1011 2944 
L 1062 2925 
L 1062 2451 
L 1075 2451 
Q 1363 2752 1584 2848 
Q 1805 2944 2054 2944 
Q 2560 2944 2733 2406 
Q 3232 2944 3776 2944 
Q 4518 2944 4518 1792 
L 4518 493 
Q 4518 282 4582 202 
Q 4646 122 4794 109 
L 4960 96 
L 4960 0 
z
" transform="scale(0.015625)"/>
       <path id="STIXGeneral-Regular-65" d="M 2611 1050 
L 2714 1005 
Q 2330 -64 1376 -64 
Q 813 -64 486 329 
Q 160 723 160 1389 
Q 160 2074 525 2509 
Q 890 2944 1485 2944 
Q 2061 2944 2374 2502 
Q 2560 2246 2592 1773 
L 621 1773 
Q 646 1370 700 1158 
Q 755 947 915 730 
Q 1184 378 1626 378 
Q 1939 378 2153 531 
Q 2368 685 2611 1050 
z
M 634 1978 
L 1939 1978 
Q 1882 2381 1750 2547 
Q 1619 2714 1312 2714 
Q 1043 2714 864 2525 
Q 685 2336 634 1978 
z
" transform="scale(0.015625)"/>
      </defs>
      <use xlink:href="#STIXGeneral-Regular-54"/>
      <use xlink:href="#STIXGeneral-Regular-69" transform="translate(61.099991 0)"/>
      <use xlink:href="#STIXGeneral-Regular-6d" transform="translate(88.899979 0)"/>
      <use xlink:href="#STIXGeneral-Regular-65" transform="translate(166.699966 0)"/>
     </g>
    </g>
   </g>
   <g id="matplotlib.axis_2">
    <g id="ytick_1">
     <g id="line2d_63">
      <path d="M 38.7 302.220753 
L 457.2 302.220753 
" clip-path="url(#p9817f76b4f)" style="fill: none; stroke: #b0b0b0; stroke-opacity: 0.35; stroke-width: 0.5; stroke-linecap: square"/>
     </g>
     <g id="line2d_64">
      <defs>
       <path id="m71b983e110" d="M 0 0 
L 3 0 
" style="stroke: #000000; stroke-width: 0.5"/>
      </defs>
      <g>
       <use xlink:href="#m71b983e110" x="38.7" y="302.220753" style="stroke: #000000; stroke-width: 0.5"/>
      </g>
     </g>
     <g id="line2d_65">
      <defs>
       <path id="m61288fe2d9" d="M 0 0 
L -3 0 
" style="stroke: #000000; stroke-width: 0.5"/>
      </defs>
      <g>
       <use xlink:href="#m61288fe2d9" x="457.2" y="302.220753" style="stroke: #000000; stroke-width: 0.5"/>
      </g>
     </g>
     <g id="text_8">
      <!-- $\mathdefault{0.0}$ -->
      <g transform="translate(20.2 306.318566) scale(0.12 -0.12)">
       <defs>
        <path id="STIXGeneral-Regular-2e" d="M 1158 275 
Q 1158 134 1052 32 
Q 947 -70 800 -70 
Q 653 -70 550 32 
Q 448 134 448 281 
Q 448 429 553 534 
Q 659 640 806 640 
Q 947 640 1052 531 
Q 1158 422 1158 275 
z
" transform="scale(0.015625)"/>
       </defs>
       <use xlink:href="#STIXGeneral-Regular-30" transform="translate(0 0.40625)"/>
       <use xlink:href="#STIXGeneral-Regular-2e" transform="translate(49.999985 0.40625)"/>
       <use xlink:href="#STIXGeneral-Regular-30" transform="translate(74.999969 0.40625)"/>
      </g>
     </g>
    </g>
    <g id="ytick_2">
     <g id="line2d_66">
      <path d="M 38.7 250.075424 
L 457.2 250.075424 
" clip-path="url(#p9817f76b4f)" style="fill: none; stroke: #b0b0b0; stroke-opacity: 0.35; stroke-width: 0.5; stroke-linecap: square"/>
     </g>
     <g id="line2d_67">
      <g>
       <use xlink:href="#m71b983e110" x="38.7" y="250.075424" style="stroke: #000000; stroke-width: 0.5"/>
      </g>
     </g>
     <g id="line2d_68">
      <g>
       <use xlink:href="#m61288fe2d9" x="457.2" y="250.075424" style="stroke: #000000; stroke-width: 0.5"/>
      </g>
     </g>
     <g id="text_9">
      <!-- $\mathdefault{0.2}$ -->
      <g transform="translate(20.2 254.173237) scale(0.12 -0.12)">
       <use xlink:href="#STIXGeneral-Regular-30" transform="translate(0 0.40625)"/>
       <use xlink:href="#STIXGeneral-Regular-2e" transform="translate(49.999985 0.40625)"/>
       <use xlink:href="#STIXGeneral-Regular-32" transform="translate(74.999969 0.40625)"/>
      </g>
     </g>
    </g>
    <g id="ytick_3">
     <g id="line2d_69">
      <path d="M 38.7 197.930095 
L 457.2 197.930095 
" clip-path="url(#p9817f76b4f)" style="fill: none; stroke: #b0b0b0; stroke-opacity: 0.35; stroke-width: 0.5; stroke-linecap: square"/>
     </g>
     <g id="line2d_70">
      <g>
       <use xlink:href="#m71b983e110" x="38.7" y="197.930095" style="stroke: #000000; stroke-width: 0.5"/>
      </g>
     </g>
     <g id="line2d_71">
      <g>
       <use xlink:href="#m61288fe2d9" x="457.2" y="197.930095" style="stroke: #000000; stroke-width: 0.5"/>
      </g>
     </g>
     <g id="text_10">
      <!-- $\mathdefault{0.4}$ -->
      <g transform="translate(20.2 202.027907) scale(0.12 -0.12)">
       <use xlink:href="#STIXGeneral-Regular-30" transform="translate(0 0.40625)"/>
       <use xlink:href="#STIXGeneral-Regular-2e" transform="translate(49.999985 0.40625)"/>
       <use xlink:href="#STIXGeneral-Regular-34" transform="translate(74.999969 0.40625)"/>
      </g>
     </g>
    </g>
    <g id="ytick_4">
     <g id="line2d_72">
      <path d="M 38.7 145.784765 
L 457.2 145.784765 
" clip-path="url(#p9817f76b4f)" style="fill: none; stroke: #b0b0b0; stroke-opacity: 0.35; stroke-width: 0.5; stroke-linecap: square"/>
     </g>
     <g id="line2d_73">
      <g>
       <use xlink:href="#m71b983e110" x="38.7" y="145.784765" style="stroke: #000000; stroke-width: 0.5"/>
      </g>
     </g>
     <g id="line2d_74">
      <g>
       <use xlink:href="#m61288fe2d9" x="457.2" y="145.784765" style="stroke: #000000; stroke-width: 0.5"/>
      </g>
     </g>
     <g id="text_11">
      <!-- $\mathdefault{0.6}$ -->
      <g transform="translate(20.2 149.882578) scale(0.12 -0.12)">
       <defs>
        <path id="STIXGeneral-Regular-36" d="M 2854 4378 
L 2867 4275 
Q 2112 4154 1606 3664 
Q 1101 3174 973 2451 
Q 1344 2739 1786 2739 
Q 2349 2739 2672 2380 
Q 2995 2022 2995 1402 
Q 2995 774 2669 378 
Q 2291 -90 1651 -90 
Q 870 -90 518 557 
Q 218 1107 218 1786 
Q 218 2835 915 3552 
Q 1312 3962 1731 4131 
Q 2150 4301 2854 4378 
z
M 2419 1203 
Q 2419 2445 1555 2445 
Q 1235 2445 1024 2275 
Q 813 2106 813 1702 
Q 813 954 1046 522 
Q 1280 90 1722 90 
Q 2061 90 2240 394 
Q 2419 698 2419 1203 
z
" transform="scale(0.015625)"/>
       </defs>
       <use xlink:href="#STIXGeneral-Regular-30" transform="translate(0 0.59375)"/>
       <use xlink:href="#STIXGeneral-Regular-2e" transform="translate(49.999985 0.59375)"/>
       <use xlink:href="#STIXGeneral-Regular-36" transform="translate(74.999969 0.59375)"/>
      </g>
     </g>
    </g>
    <g id="ytick_5">
     <g id="line2d_75">
      <path d="M 38.7 93.639436 
L 457.2 93.639436 
" clip-path="url(#p9817f76b4f)" style="fill: none; stroke: #b0b0b0; stroke-opacity: 0.35; stroke-width: 0.5; stroke-linecap: square"/>
     </g>
     <g id="line2d_76">
      <g>
       <use xlink:href="#m71b983e110" x="38.7" y="93.639436" style="stroke: #000000; stroke-width: 0.5"/>
      </g>
     </g>
     <g id="line2d_77">
      <g>
       <use xlink:href="#m61288fe2d9" x="457.2" y="93.639436" style="stroke: #000000; stroke-width: 0.5"/>
      </g>
     </g>
     <g id="text_12">
      <!-- $\mathdefault{0.8}$ -->
      <g transform="translate(20.2 97.737249) scale(0.12 -0.12)">
       <defs>
        <path id="STIXGeneral-Regular-38" d="M 2848 992 
Q 2848 499 2505 204 
Q 2163 -90 1587 -90 
Q 1050 -90 704 204 
Q 358 499 358 954 
Q 358 1293 524 1533 
Q 691 1773 1190 2125 
Q 710 2522 553 2765 
Q 397 3008 397 3328 
Q 397 3782 745 4054 
Q 1094 4326 1638 4326 
Q 2106 4326 2410 4060 
Q 2714 3795 2714 3411 
Q 2714 3059 2531 2848 
Q 2349 2637 1856 2374 
Q 2432 1990 2640 1689 
Q 2848 1389 2848 992 
z
M 2272 3411 
Q 2272 3744 2086 3945 
Q 1901 4147 1574 4147 
Q 1248 4147 1059 3977 
Q 870 3808 870 3513 
Q 870 3219 1059 2979 
Q 1248 2739 1670 2490 
Q 1997 2682 2134 2896 
Q 2272 3110 2272 3411 
z
M 1734 1741 
L 1357 1997 
Q 1075 1766 960 1545 
Q 845 1325 845 1011 
Q 845 576 1065 333 
Q 1286 90 1658 90 
Q 1971 90 2166 285 
Q 2362 480 2362 794 
Q 2362 1082 2214 1299 
Q 2067 1517 1734 1741 
z
" transform="scale(0.015625)"/>
       </defs>
       <use xlink:href="#STIXGeneral-Regular-30" transform="translate(0 0.40625)"/>
       <use xlink:href="#STIXGeneral-Regular-2e" transform="translate(49.999985 0.40625)"/>
       <use xlink:href="#STIXGeneral-Regular-38" transform="translate(74.999969 0.40625)"/>
      </g>
     </g>
    </g>
    <g id="ytick_6">
     <g id="line2d_78">
      <path d="M 38.7 41.494107 
L 457.2 41.494107 
" clip-path="url(#p9817f76b4f)" style="fill: none; stroke: #b0b0b0; stroke-opacity: 0.35; stroke-width: 0.5; stroke-linecap: square"/>
     </g>
     <g id="line2d_79">
      <g>
       <use xlink:href="#m71b983e110" x="38.7" y="41.494107" style="stroke: #000000; stroke-width: 0.5"/>
      </g>
     </g>
     <g id="line2d_80">
      <g>
       <use xlink:href="#m61288fe2d9" x="457.2" y="41.494107" style="stroke: #000000; stroke-width: 0.5"/>
      </g>
     </g>
     <g id="text_13">
      <!-- $\mathdefault{1.0}$ -->
      <g transform="translate(20.2 45.591919) scale(0.12 -0.12)">
       <use xlink:href="#STIXGeneral-Regular-31" transform="translate(0 0.40625)"/>
       <use xlink:href="#STIXGeneral-Regular-2e" transform="translate(49.999985 0.40625)"/>
       <use xlink:href="#STIXGeneral-Regular-30" transform="translate(74.999969 0.40625)"/>
      </g>
     </g>
    </g>
    <g id="ytick_7">
     <g id="line2d_81">
      <defs>
       <path id="mb503ca3091" d="M 0 0 
L 1.5 0 
" style="stroke: #000000; stroke-width: 0.5"/>
      </defs>
      <g>
       <use xlink:href="#mb503ca3091" x="38.7" y="289.184421" style="stroke: #000000; stroke-width: 0.5"/>
      </g>
     </g>
     <g id="line2d_82">
      <defs>
       <path id="m29ce939fc1" d="M 0 0 
L -1.5 0 
" style="stroke: #000000; stroke-width: 0.5"/>
      </defs>
      <g>
       <use xlink:href="#m29ce939fc1" x="457.2" y="289.184421" style="stroke: #000000; stroke-width: 0.5"/>
      </g>
     </g>
    </g>
    <g id="ytick_8">
     <g id="line2d_83">
      <g>
       <use xlink:href="#mb503ca3091" x="38.7" y="276.148089" style="stroke: #000000; stroke-width: 0.5"/>
      </g>
     </g>
     <g id="line2d_84">
      <g>
       <use xlink:href="#m29ce939fc1" x="457.2" y="276.148089" style="stroke: #000000; stroke-width: 0.5"/>
      </g>
     </g>
    </g>
    <g id="ytick_9">
     <g id="line2d_85">
      <g>
       <use xlink:href="#mb503ca3091" x="38.7" y="263.111756" style="stroke: #000000; stroke-width: 0.5"/>
      </g>
     </g>
     <g id="line2d_86">
      <g>
       <use xlink:href="#m29ce939fc1" x="457.2" y="263.111756" style="stroke: #000000; stroke-width: 0.5"/>
      </g>
     </g>
    </g>
    <g id="ytick_10">
     <g id="line2d_87">
      <g>
       <use xlink:href="#mb503ca3091" x="38.7" y="237.039092" style="stroke: #000000; stroke-width: 0.5"/>
      </g>
     </g>
     <g id="line2d_88">
      <g>
       <use xlink:href="#m29ce939fc1" x="457.2" y="237.039092" style="stroke: #000000; stroke-width: 0.5"/>
      </g>
     </g>
    </g>
    <g id="ytick_11">
     <g id="line2d_89">
      <g>
       <use xlink:href="#mb503ca3091" x="38.7" y="224.002759" style="stroke: #000000; stroke-width: 0.5"/>
      </g>
     </g>
     <g id="line2d_90">
      <g>
       <use xlink:href="#m29ce939fc1" x="457.2" y="224.002759" style="stroke: #000000; stroke-width: 0.5"/>
      </g>
     </g>
    </g>
    <g id="ytick_12">
     <g id="line2d_91">
      <g>
       <use xlink:href="#mb503ca3091" x="38.7" y="210.966427" style="stroke: #000000; stroke-width: 0.5"/>
      </g>
     </g>
     <g id="line2d_92">
      <g>
       <use xlink:href="#m29ce939fc1" x="457.2" y="210.966427" style="stroke: #000000; stroke-width: 0.5"/>
      </g>
     </g>
    </g>
    <g id="ytick_13">
     <g id="line2d_93">
      <g>
       <use xlink:href="#mb503ca3091" x="38.7" y="184.893762" style="stroke: #000000; stroke-width: 0.5"/>
      </g>
     </g>
     <g id="line2d_94">
      <g>
       <use xlink:href="#m29ce939fc1" x="457.2" y="184.893762" style="stroke: #000000; stroke-width: 0.5"/>
      </g>
     </g>
    </g>
    <g id="ytick_14">
     <g id="line2d_95">
      <g>
       <use xlink:href="#mb503ca3091" x="38.7" y="171.85743" style="stroke: #000000; stroke-width: 0.5"/>
      </g>
     </g>
     <g id="line2d_96">
      <g>
       <use xlink:href="#m29ce939fc1" x="457.2" y="171.85743" style="stroke: #000000; stroke-width: 0.5"/>
      </g>
     </g>
    </g>
    <g id="ytick_15">
     <g id="line2d_97">
      <g>
       <use xlink:href="#mb503ca3091" x="38.7" y="158.821098" style="stroke: #000000; stroke-width: 0.5"/>
      </g>
     </g>
     <g id="line2d_98">
      <g>
       <use xlink:href="#m29ce939fc1" x="457.2" y="158.821098" style="stroke: #000000; stroke-width: 0.5"/>
      </g>
     </g>
    </g>
    <g id="ytick_16">
     <g id="line2d_99">
      <g>
       <use xlink:href="#mb503ca3091" x="38.7" y="132.748433" style="stroke: #000000; stroke-width: 0.5"/>
      </g>
     </g>
     <g id="line2d_100">
      <g>
       <use xlink:href="#m29ce939fc1" x="457.2" y="132.748433" style="stroke: #000000; stroke-width: 0.5"/>
      </g>
     </g>
    </g>
    <g id="ytick_17">
     <g id="line2d_101">
      <g>
       <use xlink:href="#mb503ca3091" x="38.7" y="119.712101" style="stroke: #000000; stroke-width: 0.5"/>
      </g>
     </g>
     <g id="line2d_102">
      <g>
       <use xlink:href="#m29ce939fc1" x="457.2" y="119.712101" style="stroke: #000000; stroke-width: 0.5"/>
      </g>
     </g>
    </g>
    <g id="ytick_18">
     <g id="line2d_103">
      <g>
       <use xlink:href="#mb503ca3091" x="38.7" y="106.675768" style="stroke: #000000; stroke-width: 0.5"/>
      </g>
     </g>
     <g id="line2d_104">
      <g>
       <use xlink:href="#m29ce939fc1" x="457.2" y="106.675768" style="stroke: #000000; stroke-width: 0.5"/>
      </g>
     </g>
    </g>
    <g id="ytick_19">
     <g id="line2d_105">
      <g>
       <use xlink:href="#mb503ca3091" x="38.7" y="80.603104" style="stroke: #000000; stroke-width: 0.5"/>
      </g>
     </g>
     <g id="line2d_106">
      <g>
       <use xlink:href="#m29ce939fc1" x="457.2" y="80.603104" style="stroke: #000000; stroke-width: 0.5"/>
      </g>
     </g>
    </g>
    <g id="ytick_20">
     <g id="line2d_107">
      <g>
       <use xlink:href="#mb503ca3091" x="38.7" y="67.566771" style="stroke: #000000; stroke-width: 0.5"/>
      </g>
     </g>
     <g id="line2d_108">
      <g>
       <use xlink:href="#m29ce939fc1" x="457.2" y="67.566771" style="stroke: #000000; stroke-width: 0.5"/>
      </g>
     </g>
    </g>
    <g id="ytick_21">
     <g id="line2d_109">
      <g>
       <use xlink:href="#mb503ca3091" x="38.7" y="54.530439" style="stroke: #000000; stroke-width: 0.5"/>
      </g>
     </g>
     <g id="line2d_110">
      <g>
       <use xlink:href="#m29ce939fc1" x="457.2" y="54.530439" style="stroke: #000000; stroke-width: 0.5"/>
      </g>
     </g>
    </g>
    <g id="ytick_22">
     <g id="line2d_111">
      <g>
       <use xlink:href="#mb503ca3091" x="38.7" y="28.457774" style="stroke: #000000; stroke-width: 0.5"/>
      </g>
     </g>
     <g id="line2d_112">
      <g>
       <use xlink:href="#m29ce939fc1" x="457.2" y="28.457774" style="stroke: #000000; stroke-width: 0.5"/>
      </g>
     </g>
    </g>
    <g id="text_14">
     <!-- Mean Particle Number -->
     <g transform="translate(13.161563 233.196187) rotate(-90) scale(0.14 -0.14)">
      <defs>
       <path id="STIXGeneral-Regular-4d" d="M 5530 0 
L 3738 0 
L 3738 122 
Q 4115 147 4214 265 
Q 4314 384 4314 787 
L 4314 3661 
L 2682 0 
L 2592 0 
L 979 3514 
L 979 966 
Q 979 448 1088 294 
Q 1197 141 1574 122 
L 1574 0 
L 77 0 
L 77 122 
Q 358 141 480 205 
Q 602 269 650 432 
Q 698 595 698 966 
L 698 3514 
Q 698 3878 589 3984 
Q 480 4090 90 4115 
L 90 4237 
L 1357 4237 
L 2835 1024 
L 4250 4237 
L 5523 4237 
L 5523 4115 
Q 5178 4109 5072 3993 
Q 4966 3878 4966 3520 
L 4966 717 
Q 4966 378 5072 262 
Q 5178 147 5530 122 
L 5530 0 
z
" transform="scale(0.015625)"/>
       <path id="STIXGeneral-Regular-61" d="M 2829 422 
L 2829 243 
Q 2586 -64 2253 -64 
Q 1888 -64 1843 403 
L 1837 403 
Q 1427 -64 909 -64 
Q 608 -64 422 112 
Q 237 288 237 602 
Q 237 1050 685 1350 
Q 992 1555 1837 1869 
L 1837 2214 
Q 1837 2502 1699 2646 
Q 1562 2790 1338 2790 
Q 1146 2790 1018 2697 
Q 890 2605 890 2477 
Q 890 2419 909 2348 
Q 928 2278 928 2208 
Q 928 2112 841 2029 
Q 755 1946 634 1946 
Q 525 1946 441 2029 
Q 358 2112 358 2240 
Q 358 2547 685 2752 
Q 986 2944 1421 2944 
Q 1939 2944 2176 2656 
Q 2291 2522 2323 2384 
Q 2355 2246 2355 1946 
L 2355 723 
Q 2355 301 2554 301 
Q 2682 301 2829 422 
z
M 1837 813 
L 1837 1715 
Q 1248 1510 1018 1293 
Q 800 1094 800 800 
Q 800 557 921 432 
Q 1043 307 1242 307 
Q 1453 307 1613 410 
Q 1747 506 1792 589 
Q 1837 672 1837 813 
z
" transform="scale(0.015625)"/>
       <path id="STIXGeneral-Regular-6e" d="M 3104 0 
L 1773 0 
L 1779 96 
Q 2016 115 2096 233 
Q 2176 352 2176 672 
L 2176 1946 
Q 2176 2592 1709 2592 
Q 1549 2592 1408 2515 
Q 1267 2438 1050 2227 
L 1050 461 
Q 1050 269 1136 192 
Q 1222 115 1466 96 
L 1466 0 
L 115 0 
L 115 96 
Q 358 115 435 214 
Q 512 314 512 602 
L 512 2157 
Q 512 2394 467 2483 
Q 422 2573 288 2573 
Q 160 2573 102 2547 
L 102 2656 
Q 550 2784 979 2944 
L 1030 2925 
L 1030 2426 
L 1037 2426 
Q 1491 2944 1958 2944 
Q 2323 2944 2518 2688 
Q 2714 2432 2714 1958 
L 2714 544 
Q 2714 288 2790 205 
Q 2867 122 3104 96 
L 3104 0 
z
" transform="scale(0.015625)"/>
       <path id="STIXGeneral-Regular-20" transform="scale(0.015625)"/>
       <path id="STIXGeneral-Regular-50" d="M 102 4237 
L 1760 4237 
Q 2669 4237 3149 3834 
Q 3469 3565 3469 3072 
Q 3469 2560 3104 2234 
Q 2835 1990 2553 1916 
Q 2272 1843 1734 1843 
Q 1549 1843 1293 1862 
L 1293 717 
Q 1293 352 1398 246 
Q 1504 141 1894 122 
L 1894 0 
L 102 0 
L 102 122 
Q 474 147 557 256 
Q 640 365 640 781 
L 640 3526 
Q 640 3885 547 3987 
Q 454 4090 102 4115 
L 102 4237 
z
M 1293 3770 
L 1293 2118 
Q 1510 2099 1683 2099 
Q 2202 2099 2486 2352 
Q 2771 2605 2771 3040 
Q 2771 3558 2476 3779 
Q 2182 4000 1517 4000 
Q 1382 4000 1337 3952 
Q 1293 3904 1293 3770 
z
" transform="scale(0.015625)"/>
       <path id="STIXGeneral-Regular-72" d="M 1024 2931 
L 1024 2342 
Q 1267 2688 1430 2816 
Q 1594 2944 1792 2944 
Q 1958 2944 2051 2854 
Q 2144 2765 2144 2605 
Q 2144 2470 2077 2393 
Q 2010 2317 1894 2317 
Q 1773 2317 1638 2445 
Q 1536 2541 1472 2541 
Q 1338 2541 1181 2355 
Q 1024 2170 1024 2016 
L 1024 576 
Q 1024 301 1133 205 
Q 1242 109 1568 96 
L 1568 0 
L 32 0 
L 32 96 
Q 339 154 412 224 
Q 486 294 486 538 
L 486 2138 
Q 486 2349 438 2435 
Q 390 2522 269 2522 
Q 166 2522 45 2496 
L 45 2598 
Q 448 2726 992 2944 
L 1024 2931 
z
" transform="scale(0.015625)"/>
       <path id="STIXGeneral-Regular-74" d="M 1702 493 
L 1786 422 
Q 1478 -64 1011 -64 
Q 448 -64 448 749 
L 448 2675 
L 109 2675 
Q 83 2694 83 2720 
Q 83 2771 192 2842 
Q 435 2982 813 3526 
Q 826 3546 874 3606 
Q 922 3667 941 3706 
Q 986 3706 986 3622 
L 986 2880 
L 1632 2880 
L 1632 2675 
L 986 2675 
L 986 845 
Q 986 538 1062 403 
Q 1139 269 1318 269 
Q 1510 269 1702 493 
z
" transform="scale(0.015625)"/>
       <path id="STIXGeneral-Regular-63" d="M 2547 998 
L 2637 941 
Q 2362 403 2112 205 
Q 1786 -64 1376 -64 
Q 845 -64 502 336 
Q 160 736 160 1357 
Q 160 2170 698 2618 
Q 1094 2944 1562 2944 
Q 1965 2944 2256 2749 
Q 2547 2554 2547 2285 
Q 2547 2176 2457 2096 
Q 2368 2016 2246 2016 
Q 2022 2016 1939 2310 
L 1901 2451 
Q 1850 2630 1773 2694 
Q 1696 2758 1523 2758 
Q 1133 2758 893 2451 
Q 653 2144 653 1645 
Q 653 1094 928 745 
Q 1203 397 1645 397 
Q 1920 397 2118 528 
Q 2317 659 2547 998 
z
" transform="scale(0.015625)"/>
       <path id="STIXGeneral-Regular-6c" d="M 1645 0 
L 134 0 
L 134 96 
Q 435 122 531 221 
Q 627 320 627 589 
L 627 3590 
Q 627 3821 569 3910 
Q 512 4000 358 4000 
Q 224 4000 122 3987 
L 122 4090 
Q 730 4237 1133 4371 
L 1165 4346 
L 1165 557 
Q 1165 288 1254 201 
Q 1344 115 1645 96 
L 1645 0 
z
" transform="scale(0.015625)"/>
       <path id="STIXGeneral-Regular-4e" d="M 4525 4237 
L 4525 4115 
Q 4198 4083 4102 4000 
Q 4000 3910 3958 3756 
Q 3917 3603 3917 3245 
L 3917 -70 
L 3802 -70 
L 979 3443 
L 979 960 
Q 979 474 1088 323 
Q 1197 173 1574 122 
L 1574 0 
L 77 0 
L 77 122 
Q 474 166 586 310 
Q 698 454 698 960 
L 698 3776 
Q 531 3981 416 4048 
Q 301 4115 77 4115 
L 77 4237 
L 1165 4237 
L 3635 1146 
L 3635 3322 
Q 3635 3808 3514 3949 
Q 3437 4032 3344 4061 
Q 3251 4090 3008 4115 
L 3008 4237 
L 4525 4237 
z
" transform="scale(0.015625)"/>
       <path id="STIXGeneral-Regular-75" d="M 3072 320 
L 3072 230 
Q 2573 96 2195 -58 
L 2163 -38 
L 2163 486 
L 2150 486 
Q 1747 -64 1235 -64 
Q 870 -64 662 160 
Q 454 384 454 755 
L 454 2362 
Q 454 2598 371 2688 
Q 288 2778 58 2790 
L 58 2880 
L 992 2880 
L 992 813 
Q 992 595 1123 451 
Q 1254 307 1446 307 
Q 1760 307 1984 506 
Q 2067 582 2099 649 
Q 2131 717 2131 877 
L 2131 2355 
Q 2131 2605 2041 2678 
Q 1952 2752 1658 2771 
L 1658 2880 
L 2669 2880 
L 2669 685 
Q 2669 461 2742 390 
Q 2816 320 3034 320 
L 3072 320 
z
" transform="scale(0.015625)"/>
       <path id="STIXGeneral-Regular-62" d="M 979 4358 
L 979 2406 
Q 1082 2650 1315 2797 
Q 1549 2944 1843 2944 
Q 2349 2944 2672 2541 
Q 2995 2138 2995 1536 
Q 2995 832 2566 384 
Q 2138 -64 1498 -64 
Q 1107 -64 774 67 
Q 442 198 442 358 
L 442 3622 
Q 442 3859 384 3926 
Q 326 3994 128 3994 
Q 83 3994 19 3981 
L 19 4090 
L 211 4147 
Q 864 4346 947 4371 
L 979 4358 
z
M 979 2035 
L 979 474 
Q 979 326 1161 233 
Q 1344 141 1600 141 
Q 1978 141 2195 416 
Q 2432 710 2432 1261 
Q 2432 1888 2182 2240 
Q 1971 2541 1613 2541 
Q 1357 2541 1168 2390 
Q 979 2240 979 2035 
z
" transform="scale(0.015625)"/>
      </defs>
      <use xlink:href="#STIXGeneral-Regular-4d"/>
      <use xlink:href="#STIXGeneral-Regular-65" transform="translate(88.899994 0)"/>
      <use xlink:href="#STIXGeneral-Regular-61" transform="translate(133.299988 0)"/>
      <use xlink:href="#STIXGeneral-Regular-6e" transform="translate(177.699982 0)"/>
      <use xlink:href="#STIXGeneral-Regular-20" transform="translate(227.699966 0)"/>
      <use xlink:href="#STIXGeneral-Regular-50" transform="translate(252.699951 0)"/>
      <use xlink:href="#STIXGeneral-Regular-61" transform="translate(308.399948 0)"/>
      <use xlink:href="#STIXGeneral-Regular-72" transform="translate(352.799942 0)"/>
      <use xlink:href="#STIXGeneral-Regular-74" transform="translate(386.09993 0)"/>
      <use xlink:href="#STIXGeneral-Regular-69" transform="translate(413.899918 0)"/>
      <use xlink:href="#STIXGeneral-Regular-63" transform="translate(441.699905 0)"/>
      <use xlink:href="#STIXGeneral-Regular-6c" transform="translate(486.099899 0)"/>
      <use xlink:href="#STIXGeneral-Regular-65" transform="translate(513.899887 0)"/>
      <use xlink:href="#STIXGeneral-Regular-20" transform="translate(558.299881 0)"/>
      <use xlink:href="#STIXGeneral-Regular-4e" transform="translate(583.299866 0)"/>
      <use xlink:href="#STIXGeneral-Regular-75" transform="translate(655.499847 0)"/>
      <use xlink:href="#STIXGeneral-Regular-6d" transform="translate(705.499832 0)"/>
      <use xlink:href="#STIXGeneral-Regular-62" transform="translate(783.29982 0)"/>
      <use xlink:href="#STIXGeneral-Regular-65" transform="translate(833.299805 0)"/>
      <use xlink:href="#STIXGeneral-Regular-72" transform="translate(877.699799 0)"/>
     </g>
    </g>
   </g>
   <g id="line2d_113">
    <path d="M 57.722727 38.384 
L 61.983818 52.752778 
L 66.244909 66.339019 
L 70.506 79.185342 
L 74.767091 91.332043 
L 79.028182 102.817225 
L 83.289273 113.676913 
L 87.626455 124.12336 
L 91.963636 133.991012 
L 96.300818 143.311937 
L 100.638 152.116428 
L 105.051273 160.574815 
L 109.464545 168.556571 
L 113.953909 176.214624 
L 118.443273 183.433922 
L 122.932636 190.239603 
L 127.498091 196.760878 
L 132.139636 203.001652 
L 136.781182 208.873117 
L 141.498818 214.484907 
L 146.292545 219.841753 
L 151.162364 224.948839 
L 156.108273 229.811757 
L 161.130273 234.436457 
L 166.228364 238.829205 
L 171.402545 242.996535 
L 176.728909 247.000458 
L 182.131364 250.785153 
L 187.686 254.406176 
L 193.392818 257.861091 
L 199.251818 261.148592 
L 205.263 264.268436 
L 211.502455 267.256348 
L 217.970182 270.105518 
L 224.666182 272.810877 
L 231.590455 275.369015 
L 238.819091 277.802509 
L 246.352091 280.104107 
L 254.265545 282.288672 
L 262.559455 284.34705 
L 271.309909 286.288739 
L 280.593 288.118557 
L 290.408727 289.82529 
L 300.909273 291.423081 
L 312.170727 292.908505 
L 324.269182 294.277439 
L 337.432909 295.539333 
L 351.814091 296.689964 
L 367.641 297.728607 
L 385.218 298.65516 
L 405.077727 299.474245 
L 427.828909 300.184054 
L 438.177273 300.443035 
L 438.177273 300.443035 
" clip-path="url(#p9817f76b4f)" style="fill: none; stroke-dasharray: 2.7,4.455; stroke-dashoffset: 0; stroke: #2ca02c; stroke-width: 2.7"/>
    <defs>
     <path id="mf84ee2d080" d="M -1.6 1.6 
L 1.6 1.6 
L 1.6 -1.6 
L -1.6 -1.6 
z
" style="stroke: #2ca02c; stroke-linejoin: miter"/>
    </defs>
    <g clip-path="url(#p9817f76b4f)">
     <use xlink:href="#mf84ee2d080" x="57.722727" y="38.384" style="fill: #2ca02c; stroke: #2ca02c; stroke-linejoin: miter"/>
     <use xlink:href="#mf84ee2d080" x="91.963636" y="133.991012" style="fill: #2ca02c; stroke: #2ca02c; stroke-linejoin: miter"/>
     <use xlink:href="#mf84ee2d080" x="126.204545" y="194.952734" style="fill: #2ca02c; stroke: #2ca02c; stroke-linejoin: miter"/>
     <use xlink:href="#mf84ee2d080" x="160.445455" y="233.823645" style="fill: #2ca02c; stroke: #2ca02c; stroke-linejoin: miter"/>
     <use xlink:href="#mf84ee2d080" x="194.686364" y="258.608831" style="fill: #2ca02c; stroke: #2ca02c; stroke-linejoin: miter"/>
     <use xlink:href="#mf84ee2d080" x="228.927273" y="274.412564" style="fill: #2ca02c; stroke: #2ca02c; stroke-linejoin: miter"/>
     <use xlink:href="#mf84ee2d080" x="263.168182" y="284.489469" style="fill: #2ca02c; stroke: #2ca02c; stroke-linejoin: miter"/>
     <use xlink:href="#mf84ee2d080" x="297.409091" y="290.914787" style="fill: #2ca02c; stroke: #2ca02c; stroke-linejoin: miter"/>
     <use xlink:href="#mf84ee2d080" x="331.65" y="295.011751" style="fill: #2ca02c; stroke: #2ca02c; stroke-linejoin: miter"/>
     <use xlink:href="#mf84ee2d080" x="365.890909" y="297.624091" style="fill: #2ca02c; stroke: #2ca02c; stroke-linejoin: miter"/>
     <use xlink:href="#mf84ee2d080" x="400.131818" y="299.289792" style="fill: #2ca02c; stroke: #2ca02c; stroke-linejoin: miter"/>
     <use xlink:href="#mf84ee2d080" x="434.372727" y="300.35189" style="fill: #2ca02c; stroke: #2ca02c; stroke-linejoin: miter"/>
    </g>
   </g>
   <g id="patch_3">
    <path d="M 38.7 313.568 
L 38.7 25.28 
" style="fill: none; stroke: #000000; stroke-width: 0.5; stroke-linejoin: miter; stroke-linecap: square"/>
   </g>
   <g id="patch_4">
    <path d="M 457.2 313.568 
L 457.2 25.28 
" style="fill: none; stroke: #000000; stroke-width: 0.5; stroke-linejoin: miter; stroke-linecap: square"/>
   </g>
   <g id="patch_5">
    <path d="M 38.7 313.568 
L 457.2 313.568 
" style="fill: none; stroke: #000000; stroke-width: 0.5; stroke-linejoin: miter; stroke-linecap: square"/>
   </g>
   <g id="patch_6">
    <path d="M 38.7 25.28 
L 457.2 25.28 
" style="fill: none; stroke: #000000; stroke-width: 0.5; stroke-linejoin: miter; stroke-linecap: square"/>
   </g>
   <g id="line2d_114">
    <path d="M 57.722727 41.494107 
L 58.027091 42.276287 
L 58.103182 42.276287 
L 58.179273 42.537013 
L 58.331455 43.319193 
L 58.407545 43.319193 
L 58.788 45.405006 
L 58.940182 46.187186 
L 59.168455 47.230093 
L 59.548909 48.273 
L 59.625 48.273 
L 59.777182 49.05518 
L 59.853273 49.05518 
L 60.233727 50.098086 
L 60.309818 50.098086 
L 60.842455 51.662446 
L 60.994636 51.662446 
L 61.603364 54.008986 
L 61.755545 54.791166 
L 61.983818 54.791166 
L 62.059909 55.051892 
L 62.212091 56.094799 
L 62.364273 56.094799 
L 62.973 57.919886 
L 63.049091 57.919886 
L 63.277364 58.441339 
L 63.353455 58.441339 
L 63.733909 60.005699 
L 63.886091 61.570059 
L 64.038273 61.570059 
L 64.266545 62.612965 
L 64.342636 62.612965 
L 64.494818 63.134418 
L 64.647 63.655872 
L 64.875273 65.220232 
L 65.027455 65.480958 
L 65.179636 65.480958 
L 65.331818 66.002412 
L 65.407909 66.263138 
L 65.636182 67.566771 
L 65.788364 67.827498 
L 65.940545 67.827498 
L 66.625364 69.913311 
L 66.701455 69.913311 
L 67.766727 73.302758 
L 67.918909 73.302758 
L 68.147182 74.867118 
L 68.375455 75.388571 
L 68.679818 75.388571 
L 68.908091 76.431477 
L 69.592909 78.517291 
L 69.669 78.517291 
L 70.049455 79.560197 
L 70.658182 79.560197 
L 71.190818 81.124557 
L 71.266909 81.124557 
L 71.419091 81.385284 
L 71.495182 81.385284 
L 71.723455 82.42819 
L 71.799545 82.42819 
L 71.951727 83.471097 
L 72.408273 85.296183 
L 72.636545 86.33909 
L 72.788727 86.599817 
L 72.864818 86.599817 
L 73.017 86.860543 
L 73.093091 86.860543 
L 73.397455 88.424903 
L 73.777909 89.989263 
L 74.006182 91.81435 
L 74.234455 91.81435 
L 74.614909 92.857256 
L 74.691 92.857256 
L 75.223636 94.421616 
L 75.299727 94.421616 
L 75.451909 94.943069 
L 75.604091 94.943069 
L 75.832364 95.464523 
L 76.060636 95.464523 
L 76.212818 95.725249 
L 76.365 95.725249 
L 76.517182 96.507429 
L 76.669364 97.550336 
L 76.745455 97.550336 
L 76.973727 98.071789 
L 77.049818 98.071789 
L 77.430273 99.636149 
L 77.582455 100.418329 
L 77.734636 100.418329 
L 78.039 101.982689 
L 78.343364 101.982689 
L 78.571636 103.807775 
L 78.647727 103.807775 
L 78.799909 104.329229 
L 79.028182 104.850682 
L 79.104273 104.850682 
L 79.256455 105.111409 
L 79.484727 105.111409 
L 79.713 105.632862 
L 79.865182 105.632862 
L 80.093455 107.457948 
L 80.245636 108.500855 
L 80.397818 109.022308 
L 80.473909 109.022308 
L 80.702182 109.543762 
L 80.778273 109.543762 
L 81.006545 110.586668 
L 81.387 110.586668 
L 81.539182 111.108121 
L 81.691364 111.108121 
L 81.919636 112.151028 
L 82.147909 112.672481 
L 82.756636 112.672481 
L 82.908818 113.193935 
L 82.984909 113.193935 
L 83.137091 113.454661 
L 83.365364 113.454661 
L 83.517545 113.715388 
L 83.669727 113.715388 
L 84.202364 115.279748 
L 84.278455 115.279748 
L 84.582818 116.061928 
L 84.658909 116.061928 
L 85.115455 117.365561 
L 85.572 117.365561 
L 85.952455 118.408468 
L 86.332909 118.408468 
L 87.626455 122.580094 
L 87.854727 122.580094 
L 88.235182 124.144454 
L 88.387364 124.926634 
L 88.615636 124.926634 
L 88.767818 125.708814 
L 88.92 126.75172 
L 89.148273 127.273174 
L 89.376545 127.273174 
L 89.757 128.31608 
L 89.833091 128.31608 
L 89.985273 128.576807 
L 90.061364 128.576807 
L 90.213545 129.358987 
L 90.289636 129.358987 
L 90.517909 130.401893 
L 90.670091 131.705527 
L 91.278818 133.530613 
L 91.354909 133.530613 
L 91.507091 134.052066 
L 91.583182 134.052066 
L 91.811455 134.57352 
L 91.887545 134.57352 
L 92.268 135.616426 
L 92.420182 135.616426 
L 92.572364 136.137879 
L 92.800636 136.137879 
L 92.952818 136.659333 
L 93.028909 136.659333 
L 93.181091 137.180786 
L 93.409364 137.702239 
L 93.713727 137.702239 
L 94.170273 139.005873 
L 94.398545 139.005873 
L 94.702909 139.788053 
L 94.779 139.788053 
L 94.931182 140.048779 
L 95.083364 140.048779 
L 95.235545 140.309506 
L 95.539909 140.309506 
L 95.692091 140.570232 
L 95.844273 140.570232 
L 96.224727 141.613139 
L 96.453 141.613139 
L 96.605182 142.134592 
L 97.137818 142.134592 
L 97.366091 142.656046 
L 97.518273 142.656046 
L 97.822636 143.438226 
L 97.898727 143.438226 
L 98.279182 144.481132 
L 98.355273 144.481132 
L 98.659636 145.263312 
L 98.811818 145.263312 
L 99.040091 145.784765 
L 99.116182 145.784765 
L 99.268364 146.306219 
L 99.496636 146.827672 
L 99.724909 146.827672 
L 99.877091 147.088399 
L 99.953182 147.088399 
L 100.409727 148.392032 
L 100.714091 148.392032 
L 100.866273 148.652759 
L 100.942364 148.652759 
L 101.170636 149.956392 
L 101.246727 149.956392 
L 101.398909 150.217118 
L 101.779364 150.217118 
L 101.931545 150.477845 
L 102.312 150.477845 
L 102.464182 150.999298 
L 102.692455 151.520752 
L 103.072909 151.520752 
L 103.225091 152.042205 
L 103.301182 152.042205 
L 103.529455 152.563658 
L 103.605545 152.563658 
L 103.757727 152.824385 
L 103.986 152.824385 
L 104.138182 153.345838 
L 105.051273 156.213831 
L 105.127364 156.213831 
L 105.355636 156.735285 
L 105.888273 156.735285 
L 106.040455 157.517465 
L 106.116545 157.517465 
L 106.344818 158.038918 
L 106.497 158.038918 
L 107.181818 160.124731 
L 107.562273 160.124731 
L 107.714455 160.906911 
L 107.790545 160.906911 
L 107.942727 161.167638 
L 108.094909 161.167638 
L 108.323182 161.689091 
L 108.855818 161.689091 
L 109.008 161.949818 
L 109.160182 161.949818 
L 109.312364 162.471271 
L 109.388455 162.471271 
L 109.616727 162.992724 
L 109.921091 162.992724 
L 110.073273 163.253451 
L 110.453727 163.253451 
L 110.605909 163.514177 
L 110.910273 163.514177 
L 111.214636 164.296357 
L 111.290727 164.296357 
L 111.519 164.817811 
L 111.747273 164.817811 
L 112.584273 167.425077 
L 112.812545 167.425077 
L 113.116909 168.207257 
L 113.345182 168.207257 
L 113.497364 168.467984 
L 113.649545 168.467984 
L 113.877818 168.989437 
L 114.106091 168.989437 
L 114.258273 169.250164 
L 114.334364 169.250164 
L 114.486545 169.51089 
L 114.638727 169.51089 
L 115.019182 170.553797 
L 115.323545 170.553797 
L 115.475727 170.814523 
L 115.627909 170.814523 
L 115.780091 171.596703 
L 115.856182 171.596703 
L 116.160545 172.378883 
L 116.236636 172.378883 
L 116.464909 172.900337 
L 116.997545 172.900337 
L 117.301909 173.682517 
L 117.606273 173.682517 
L 117.834545 174.20397 
L 117.986727 174.20397 
L 118.291091 174.98615 
L 118.519364 174.98615 
L 118.671545 175.246876 
L 118.747636 175.246876 
L 119.052 176.029056 
L 119.508545 176.029056 
L 119.660727 176.289783 
L 119.736818 176.289783 
L 119.889 176.55051 
L 120.117273 176.55051 
L 120.269455 176.811236 
L 121.030364 176.811236 
L 121.563 178.375596 
L 121.867364 178.375596 
L 121.943455 178.636323 
L 122.095636 179.418503 
L 122.4 179.418503 
L 122.552182 179.679229 
L 122.628273 179.679229 
L 122.780455 180.461409 
L 122.856545 180.461409 
L 123.008727 180.722136 
L 123.160909 180.722136 
L 123.769636 182.547223 
L 124.454455 182.547223 
L 124.758818 183.329403 
L 124.911 183.329403 
L 125.519727 185.154489 
L 125.595818 185.154489 
L 125.748 185.675942 
L 125.976273 186.197396 
L 126.128455 186.197396 
L 126.356727 186.718849 
L 126.432818 186.718849 
L 126.585 187.501029 
L 126.889364 187.501029 
L 127.041545 187.761756 
L 127.117636 187.761756 
L 127.269818 188.022482 
L 127.345909 188.022482 
L 127.574182 188.543935 
L 127.726364 188.543935 
L 127.954636 189.065389 
L 128.182909 189.065389 
L 128.487273 190.890475 
L 128.563364 190.890475 
L 128.791636 191.411929 
L 129.019909 191.411929 
L 129.172091 191.933382 
L 129.933 191.933382 
L 130.085182 192.194109 
L 130.161273 192.194109 
L 130.541727 193.237015 
L 131.150455 193.237015 
L 131.378727 193.758468 
L 131.454818 193.758468 
L 131.607 194.279922 
L 131.911364 195.062102 
L 132.367909 195.062102 
L 132.824455 196.365735 
L 133.052727 196.365735 
L 133.204909 196.626461 
L 133.661455 196.626461 
L 134.041909 197.669368 
L 134.118 197.669368 
L 134.346273 198.190821 
L 134.498455 198.190821 
L 134.726727 198.712275 
L 135.487636 198.712275 
L 135.868091 199.755181 
L 136.020273 199.755181 
L 136.172455 200.015908 
L 136.552909 200.015908 
L 137.237727 202.101721 
L 137.542091 202.101721 
L 137.922545 203.144628 
L 138.074727 203.144628 
L 138.226909 203.405354 
L 138.531273 203.405354 
L 138.759545 203.926808 
L 139.063909 203.926808 
L 139.216091 204.187534 
L 139.292182 204.187534 
L 139.444364 204.448261 
L 139.520455 204.448261 
L 139.748727 204.969714 
L 139.900909 204.969714 
L 140.053091 205.230441 
L 140.205273 205.230441 
L 140.357455 205.491167 
L 140.509636 205.491167 
L 140.737909 206.012621 
L 141.498818 206.012621 
L 141.651 206.273347 
L 141.727091 206.273347 
L 141.879273 206.794801 
L 142.031455 206.794801 
L 142.259727 207.316254 
L 142.488 207.316254 
L 143.248909 209.662794 
L 143.401091 209.662794 
L 143.629364 210.184247 
L 143.857636 210.184247 
L 144.238091 211.227154 
L 144.390273 211.227154 
L 144.618545 211.748607 
L 144.694636 211.748607 
L 144.846818 212.530787 
L 144.999 212.530787 
L 145.227273 213.05224 
L 145.531636 213.05224 
L 145.759909 213.573694 
L 145.836 213.573694 
L 145.988182 213.83442 
L 146.444727 213.83442 
L 146.596909 214.095147 
L 146.977364 214.095147 
L 147.281727 214.877327 
L 147.662182 214.877327 
L 147.814364 215.138053 
L 147.966545 215.138053 
L 148.423091 216.441687 
L 149.336182 216.441687 
L 149.488364 216.702413 
L 149.640545 216.702413 
L 149.868818 217.223867 
L 150.021 217.223867 
L 150.173182 217.484593 
L 150.401455 217.484593 
L 150.553636 218.266773 
L 150.705818 218.266773 
L 150.858 219.048953 
L 151.162364 219.048953 
L 151.466727 219.831133 
L 151.542818 219.831133 
L 151.695 220.09186 
L 151.847182 220.09186 
L 151.999364 220.352586 
L 152.075455 220.352586 
L 152.227636 220.613313 
L 152.303727 220.613313 
L 152.455909 221.134766 
L 152.988545 221.134766 
L 153.216818 221.65622 
L 153.292909 221.65622 
L 153.445091 222.177673 
L 153.749455 222.177673 
L 153.901636 222.4384 
L 154.129909 222.4384 
L 154.358182 222.959853 
L 155.195182 222.959853 
L 155.347364 223.220579 
L 155.499545 223.220579 
L 155.651727 223.481306 
L 155.727818 223.481306 
L 155.88 223.742033 
L 156.793091 223.742033 
L 157.477909 225.827846 
L 157.554 225.827846 
L 157.706182 226.088573 
L 158.086636 226.088573 
L 158.314909 226.610026 
L 158.467091 226.610026 
L 158.619273 226.870752 
L 158.923636 226.870752 
L 159.075818 227.131479 
L 159.532364 227.131479 
L 159.684545 227.652932 
L 160.369364 227.652932 
L 160.521545 227.913659 
L 161.054182 227.913659 
L 161.206364 228.174386 
L 161.510727 228.174386 
L 161.662909 228.435112 
L 161.891182 228.435112 
L 162.043364 228.695839 
L 162.347727 228.695839 
L 162.499909 228.956566 
L 162.956455 228.956566 
L 163.108636 229.217292 
L 163.717364 229.217292 
L 163.945636 230.260199 
L 164.173909 230.260199 
L 164.326091 230.520926 
L 164.858727 230.520926 
L 165.010909 230.781652 
L 165.315273 230.781652 
L 165.543545 231.303105 
L 165.619636 231.303105 
L 165.771818 231.563832 
L 166.380545 231.563832 
L 166.532727 231.824559 
L 166.608818 231.824559 
L 166.761 232.085285 
L 167.445818 232.085285 
L 167.598 232.346012 
L 168.054545 232.346012 
L 168.206727 232.867465 
L 168.358909 233.128192 
L 168.511091 233.128192 
L 168.739364 233.649645 
L 169.272 233.649645 
L 169.424182 234.171099 
L 169.804636 234.171099 
L 169.956818 234.431825 
L 171.022091 234.431825 
L 171.478636 235.735458 
L 171.554727 235.735458 
L 171.783 236.256912 
L 172.163455 236.256912 
L 172.391727 236.778365 
L 172.62 236.778365 
L 172.848273 237.299818 
L 172.924364 237.299818 
L 173.152636 237.821272 
L 173.228727 237.821272 
L 173.380909 238.081998 
L 174.217909 238.081998 
L 174.370091 238.864178 
L 175.283182 238.864178 
L 175.435364 239.124905 
L 175.511455 239.124905 
L 175.663636 239.385632 
L 175.739727 239.385632 
L 175.968 239.907085 
L 176.044091 239.907085 
L 176.196273 240.167811 
L 176.424545 240.167811 
L 176.576727 240.428538 
L 176.805 240.428538 
L 177.109364 241.210718 
L 177.337636 241.210718 
L 177.565909 241.732171 
L 178.250727 241.732171 
L 178.555091 242.514351 
L 178.707273 242.514351 
L 178.859455 242.775078 
L 179.239909 242.775078 
L 179.772545 244.339438 
L 180.076909 244.339438 
L 180.229091 245.121618 
L 180.609545 245.121618 
L 180.761727 245.382344 
L 181.750909 245.382344 
L 181.903091 245.643071 
L 182.587909 245.643071 
L 182.740091 245.903798 
L 182.816182 245.903798 
L 183.120545 246.685978 
L 183.272727 246.685978 
L 183.424909 246.946704 
L 183.577091 246.946704 
L 183.881455 247.728884 
L 184.109727 247.728884 
L 184.261909 248.250338 
L 184.338 248.250338 
L 184.642364 249.032517 
L 184.718455 249.032517 
L 184.870636 249.293244 
L 185.022818 249.293244 
L 185.631545 251.118331 
L 186.088091 251.118331 
L 186.240273 251.379057 
L 186.468545 251.379057 
L 186.925091 252.682691 
L 187.001182 252.682691 
L 187.153364 252.943417 
L 187.990364 252.943417 
L 188.142545 253.204144 
L 190.501364 253.204144 
L 190.653545 253.46487 
L 191.186182 253.46487 
L 191.338364 253.725597 
L 191.642727 253.725597 
L 191.794909 253.986324 
L 191.947091 253.986324 
L 192.099273 254.24705 
L 192.251455 254.24705 
L 192.403636 254.507777 
L 193.240636 254.507777 
L 193.392818 254.768504 
L 193.849364 254.768504 
L 194.001545 255.289957 
L 194.229818 255.81141 
L 194.686364 255.81141 
L 194.838545 256.072137 
L 194.914636 256.072137 
L 195.066818 256.332864 
L 195.447273 256.332864 
L 195.599455 256.59359 
L 195.751636 256.59359 
L 195.903818 256.854317 
L 196.284273 256.854317 
L 196.588636 257.636497 
L 197.273455 257.636497 
L 197.425636 257.897223 
L 197.501727 257.897223 
L 197.806091 258.679403 
L 198.186545 258.679403 
L 198.338727 258.94013 
L 198.643091 258.94013 
L 198.795273 259.461583 
L 199.023545 259.461583 
L 199.404 260.50449 
L 199.860545 260.50449 
L 200.012727 260.765217 
L 200.088818 260.765217 
L 200.241 261.025943 
L 200.393182 261.025943 
L 200.545364 261.28667 
L 200.621455 261.28667 
L 200.773636 261.547396 
L 201.001909 261.547396 
L 201.154091 261.808123 
L 201.991091 261.808123 
L 202.143273 262.06885 
L 202.295455 262.06885 
L 202.523727 262.590303 
L 202.828091 262.590303 
L 203.056364 263.111756 
L 204.121636 263.111756 
L 204.349909 263.63321 
L 204.882545 263.63321 
L 205.034727 263.893936 
L 205.871727 263.893936 
L 206.023909 264.154663 
L 206.556545 264.154663 
L 206.784818 264.676116 
L 207.089182 264.676116 
L 207.241364 264.936843 
L 208.534909 264.936843 
L 208.687091 265.19757 
L 209.143636 265.19757 
L 209.295818 265.458296 
L 209.524091 265.458296 
L 209.676273 265.979749 
L 211.806818 265.979749 
L 211.959 266.240476 
L 212.948182 266.240476 
L 213.100364 266.501203 
L 213.633 266.501203 
L 213.785182 266.761929 
L 214.622182 266.761929 
L 214.774364 267.022656 
L 215.535273 267.022656 
L 215.687455 267.283383 
L 216.067909 267.283383 
L 216.296182 267.804836 
L 216.752727 267.804836 
L 216.904909 268.065563 
L 216.981 268.065563 
L 217.133182 268.326289 
L 217.437545 268.326289 
L 217.589727 268.587016 
L 217.741909 268.587016 
L 217.894091 268.847743 
L 219.111545 268.847743 
L 219.263727 269.108469 
L 219.492 269.108469 
L 219.644182 269.369196 
L 220.861636 269.369196 
L 221.089909 269.890649 
L 222.003 269.890649 
L 222.155182 270.412102 
L 222.687818 270.412102 
L 222.84 270.672829 
L 223.981364 270.672829 
L 224.285727 271.455009 
L 224.590091 271.455009 
L 224.742273 271.715736 
L 225.579273 271.715736 
L 225.731455 271.976462 
L 225.959727 271.976462 
L 226.188 272.497916 
L 226.416273 272.497916 
L 226.568455 272.758642 
L 226.644545 272.758642 
L 226.796727 273.019369 
L 227.633727 273.019369 
L 228.014182 274.062276 
L 229.307727 274.062276 
L 229.612091 274.844455 
L 231.438273 274.844455 
L 231.590455 275.105182 
L 231.742636 275.105182 
L 231.894818 275.365909 
L 231.970909 275.365909 
L 232.123091 275.626635 
L 233.873182 275.626635 
L 234.025364 275.887362 
L 234.481909 275.887362 
L 234.634091 276.148089 
L 234.710182 276.148089 
L 234.938455 276.669542 
L 235.547182 276.669542 
L 235.699364 276.930269 
L 236.612455 276.930269 
L 236.916818 277.712449 
L 237.677727 277.712449 
L 237.829909 277.973175 
L 239.732182 277.973175 
L 239.960455 278.494629 
L 241.862727 278.494629 
L 242.014909 278.755355 
L 242.395364 278.755355 
L 242.623636 279.276808 
L 242.699727 279.276808 
L 242.851909 279.537535 
L 245.210727 279.537535 
L 245.362909 279.798262 
L 245.895545 279.798262 
L 246.199909 280.580442 
L 247.417364 280.580442 
L 247.569545 280.841168 
L 248.406545 280.841168 
L 248.558727 281.101895 
L 251.450182 281.101895 
L 251.602364 281.362622 
L 252.591545 281.362622 
L 252.743727 281.623348 
L 253.961182 281.623348 
L 254.113364 281.884075 
L 255.102545 281.884075 
L 255.254727 282.144802 
L 255.939545 282.144802 
L 256.091727 282.405528 
L 257.994 282.405528 
L 258.146182 282.666255 
L 258.222273 282.666255 
L 258.374455 282.926982 
L 260.961545 282.926982 
L 261.113727 283.187708 
L 261.342 283.187708 
L 261.494182 283.448435 
L 261.570273 283.448435 
L 261.722455 283.709161 
L 263.244273 283.709161 
L 263.396455 284.230615 
L 264.537818 284.230615 
L 264.69 284.491341 
L 264.842182 284.491341 
L 264.994364 284.752068 
L 265.298727 284.752068 
L 265.450909 285.012795 
L 268.342364 285.012795 
L 268.494545 285.273521 
L 268.875 285.273521 
L 269.027182 285.534248 
L 274.581818 285.534248 
L 274.734 285.794975 
L 274.810091 285.794975 
L 274.962273 286.055701 
L 276.636273 286.055701 
L 276.788455 286.316428 
L 276.864545 286.316428 
L 277.016727 286.577155 
L 281.810455 286.577155 
L 281.962636 286.837881 
L 282.267 286.837881 
L 282.419182 287.098608 
L 284.017091 287.098608 
L 284.169273 287.359335 
L 285.462818 287.359335 
L 285.615 287.620061 
L 285.843273 287.620061 
L 285.995455 287.880788 
L 289.267364 287.880788 
L 289.419545 288.141514 
L 291.169636 288.141514 
L 291.397909 288.662968 
L 291.474 288.662968 
L 291.626182 288.923694 
L 292.843636 288.923694 
L 292.995818 289.184421 
L 293.452364 289.184421 
L 293.604545 289.705874 
L 293.832818 290.227328 
L 296.115545 290.227328 
L 296.267727 290.488054 
L 296.419909 290.488054 
L 296.648182 291.009508 
L 299.235273 291.009508 
L 299.387455 291.270234 
L 302.050636 291.270234 
L 302.202818 291.530961 
L 303.800727 291.530961 
L 304.029 292.052414 
L 308.518364 292.052414 
L 308.670545 292.313141 
L 308.898818 292.313141 
L 309.051 292.573867 
L 313.996909 292.573867 
L 314.149091 292.834594 
L 327.845455 292.834594 
L 327.997636 293.095321 
L 332.487 293.095321 
L 332.639182 293.356047 
L 334.693636 293.356047 
L 334.845818 293.616774 
L 343.139727 293.616774 
L 343.291909 293.877501 
L 347.705182 293.877501 
L 347.857364 294.138227 
L 348.161727 294.138227 
L 348.313909 294.398954 
L 348.998727 294.398954 
L 349.150909 294.659681 
L 350.140091 294.659681 
L 350.292273 294.920407 
L 353.335909 294.920407 
L 353.488091 295.181134 
L 355.923 295.181134 
L 356.075182 295.441861 
L 361.934182 295.441861 
L 362.086364 295.702587 
L 362.619 295.702587 
L 362.771182 295.963314 
L 362.847273 295.963314 
L 362.999455 296.22404 
L 367.260545 296.22404 
L 367.412727 296.484767 
L 368.249727 296.484767 
L 368.401909 296.745494 
L 372.434727 296.745494 
L 372.586909 297.00622 
L 375.478364 297.00622 
L 375.630545 297.527674 
L 377.608909 297.527674 
L 377.761091 297.7884 
L 381.337364 297.7884 
L 381.489545 298.049127 
L 384.533182 298.049127 
L 384.685364 298.309854 
L 390.468273 298.309854 
L 390.620455 298.57058 
L 391.990091 298.57058 
L 392.142273 298.831307 
L 397.620818 298.831307 
L 397.773 299.092034 
L 399.751364 299.092034 
L 399.903545 299.35276 
L 412.762909 299.35276 
L 412.915091 299.613487 
L 416.263091 299.613487 
L 416.415273 299.874214 
L 431.481273 299.874214 
L 431.633455 300.13494 
L 438.177273 300.13494 
L 438.177273 300.13494 
" clip-path="url(#p9817f76b4f)" style="fill: none; stroke-dasharray: 16,4,2.5,4; stroke-dashoffset: 0; stroke: #ff7f0e; stroke-width: 2.5"/>
    <defs>
     <path id="m36333b10f7" d="M 0 1.75 
C 0.464105 1.75 0.909265 1.565609 1.237437 1.237437 
C 1.565609 0.909265 1.75 0.464105 1.75 0 
C 1.75 -0.464105 1.565609 -0.909265 1.237437 -1.237437 
C 0.909265 -1.565609 0.464105 -1.75 0 -1.75 
C -0.464105 -1.75 -0.909265 -1.565609 -1.237437 -1.237437 
C -1.565609 -0.909265 -1.75 -0.464105 -1.75 0 
C -1.75 0.464105 -1.565609 0.909265 -1.237437 1.237437 
C -0.909265 1.565609 -0.464105 1.75 0 1.75 
z
" style="stroke: #ff7f0e"/>
    </defs>
    <g clip-path="url(#p9817f76b4f)">
     <use xlink:href="#m36333b10f7" x="57.722727" y="41.494107" style="fill: #ff7f0e; stroke: #ff7f0e"/>
     <use xlink:href="#m36333b10f7" x="84.354545" y="115.540474" style="fill: #ff7f0e; stroke: #ff7f0e"/>
     <use xlink:href="#m36333b10f7" x="110.986364" y="163.774904" style="fill: #ff7f0e; stroke: #ff7f0e"/>
     <use xlink:href="#m36333b10f7" x="137.618182" y="202.362448" style="fill: #ff7f0e; stroke: #ff7f0e"/>
     <use xlink:href="#m36333b10f7" x="164.25" y="230.520926" style="fill: #ff7f0e; stroke: #ff7f0e"/>
     <use xlink:href="#m36333b10f7" x="190.881818" y="253.46487" style="fill: #ff7f0e; stroke: #ff7f0e"/>
     <use xlink:href="#m36333b10f7" x="217.513636" y="268.587016" style="fill: #ff7f0e; stroke: #ff7f0e"/>
     <use xlink:href="#m36333b10f7" x="244.145455" y="279.537535" style="fill: #ff7f0e; stroke: #ff7f0e"/>
     <use xlink:href="#m36333b10f7" x="270.777273" y="285.534248" style="fill: #ff7f0e; stroke: #ff7f0e"/>
     <use xlink:href="#m36333b10f7" x="297.409091" y="291.009508" style="fill: #ff7f0e; stroke: #ff7f0e"/>
     <use xlink:href="#m36333b10f7" x="324.040909" y="292.834594" style="fill: #ff7f0e; stroke: #ff7f0e"/>
     <use xlink:href="#m36333b10f7" x="350.672727" y="294.920407" style="fill: #ff7f0e; stroke: #ff7f0e"/>
     <use xlink:href="#m36333b10f7" x="377.304545" y="297.527674" style="fill: #ff7f0e; stroke: #ff7f0e"/>
     <use xlink:href="#m36333b10f7" x="403.936364" y="299.35276" style="fill: #ff7f0e; stroke: #ff7f0e"/>
     <use xlink:href="#m36333b10f7" x="430.568182" y="299.874214" style="fill: #ff7f0e; stroke: #ff7f0e"/>
    </g>
   </g>
   <g id="text_15">
    <!-- Mean vs Time ($|n=1\rangle$, $\gamma=1$) -->
    <g transform="translate(149.39 19.28) scale(0.16 -0.16)">
     <defs>
      <path id="STIXGeneral-Regular-76" d="M 3053 2880 
L 3053 2784 
Q 2906 2771 2835 2688 
Q 2765 2605 2637 2285 
L 1818 230 
Q 1690 -90 1638 -90 
Q 1587 -90 1523 77 
Q 1510 96 1497 141 
Q 1485 186 1472 211 
L 704 2048 
Q 499 2534 403 2652 
Q 307 2771 122 2784 
L 122 2880 
L 1376 2880 
L 1376 2784 
Q 1210 2771 1146 2732 
Q 1082 2694 1082 2611 
Q 1082 2509 1139 2368 
L 1792 730 
L 2426 2387 
Q 2464 2483 2464 2579 
Q 2464 2758 2163 2784 
L 2163 2880 
L 3053 2880 
z
" transform="scale(0.015625)"/>
      <path id="STIXGeneral-Regular-73" d="M 998 1926 
L 1664 1523 
Q 1984 1331 2105 1164 
Q 2227 998 2227 736 
Q 2227 416 1961 176 
Q 1696 -64 1331 -64 
Q 1030 -64 864 -6 
Q 691 51 570 51 
Q 461 51 416 -26 
L 333 -26 
L 333 979 
L 435 979 
Q 538 512 730 294 
Q 922 77 1248 77 
Q 1485 77 1632 211 
Q 1779 346 1779 550 
Q 1779 845 1440 1030 
L 1094 1222 
Q 326 1651 326 2150 
Q 326 2522 566 2730 
Q 806 2938 1210 2938 
Q 1491 2938 1638 2867 
Q 1754 2816 1818 2816 
Q 1862 2816 1920 2880 
L 1990 2880 
L 2022 2010 
L 1926 2010 
Q 1818 2445 1654 2621 
Q 1491 2797 1203 2797 
Q 986 2797 854 2688 
Q 723 2579 723 2362 
Q 723 2253 796 2128 
Q 870 2003 998 1926 
z
" transform="scale(0.015625)"/>
      <path id="STIXGeneral-Regular-28" d="M 1946 -1030 
L 1869 -1133 
Q 1126 -710 716 32 
Q 307 774 307 1613 
Q 307 3386 1888 4326 
L 1946 4224 
Q 1293 3667 1075 3126 
Q 858 2586 858 1632 
Q 858 685 1082 96 
Q 1306 -493 1946 -1030 
z
" transform="scale(0.015625)"/>
      <path id="Cmsy10-6a" d="M 763 -1484 
L 763 4684 
Q 763 4734 800 4767 
Q 838 4800 891 4800 
Q 938 4800 978 4767 
Q 1019 4734 1019 4684 
L 1019 -1484 
Q 1019 -1534 978 -1567 
Q 938 -1600 891 -1600 
Q 838 -1600 800 -1567 
Q 763 -1534 763 -1484 
z
" transform="scale(0.015625)"/>
      <path id="Cmmi10-6e" d="M 494 109 
Q 494 147 500 166 
L 978 2075 
Q 1025 2253 1025 2388 
Q 1025 2663 838 2663 
Q 638 2663 541 2423 
Q 444 2184 353 1819 
Q 353 1800 334 1789 
Q 316 1778 300 1778 
L 225 1778 
Q 203 1778 187 1801 
Q 172 1825 172 1844 
Q 241 2122 305 2315 
Q 369 2509 505 2668 
Q 641 2828 844 2828 
Q 1084 2828 1268 2676 
Q 1453 2525 1453 2291 
Q 1644 2541 1900 2684 
Q 2156 2828 2444 2828 
Q 2672 2828 2837 2750 
Q 3003 2672 3095 2514 
Q 3188 2356 3188 2138 
Q 3188 1875 3070 1503 
Q 2953 1131 2778 672 
Q 2688 463 2688 288 
Q 2688 97 2834 97 
Q 3084 97 3251 365 
Q 3419 634 3488 941 
Q 3500 978 3541 978 
L 3616 978 
Q 3641 978 3658 962 
Q 3675 947 3675 922 
Q 3675 916 3669 903 
Q 3581 541 3364 234 
Q 3147 -72 2822 -72 
Q 2597 -72 2437 83 
Q 2278 238 2278 459 
Q 2278 578 2328 709 
Q 2409 919 2514 1209 
Q 2619 1500 2686 1765 
Q 2753 2031 2753 2234 
Q 2753 2413 2679 2538 
Q 2606 2663 2431 2663 
Q 2197 2663 2000 2559 
Q 1803 2456 1656 2286 
Q 1509 2116 1388 1881 
L 953 141 
Q 931 53 854 -9 
Q 778 -72 684 -72 
Q 606 -72 550 -22 
Q 494 28 494 109 
z
" transform="scale(0.015625)"/>
      <path id="Cmr10-3d" d="M 481 850 
Q 428 850 393 890 
Q 359 931 359 978 
Q 359 1031 393 1068 
Q 428 1106 481 1106 
L 4500 1106 
Q 4547 1106 4581 1068 
Q 4616 1031 4616 978 
Q 4616 931 4581 890 
Q 4547 850 4500 850 
L 481 850 
z
M 481 2094 
Q 428 2094 393 2131 
Q 359 2169 359 2222 
Q 359 2269 393 2309 
Q 428 2350 481 2350 
L 4500 2350 
Q 4547 2350 4581 2309 
Q 4616 2269 4616 2222 
Q 4616 2169 4581 2131 
Q 4547 2094 4500 2094 
L 481 2094 
z
" transform="scale(0.015625)"/>
      <path id="Cmr10-31" d="M 594 0 
L 594 225 
Q 1394 225 1394 428 
L 1394 3788 
Q 1063 3628 556 3628 
L 556 3853 
Q 1341 3853 1741 4263 
L 1831 4263 
Q 1853 4263 1873 4245 
Q 1894 4228 1894 4206 
L 1894 428 
Q 1894 225 2694 225 
L 2694 0 
L 594 0 
z
" transform="scale(0.015625)"/>
      <path id="Cmex10-ae" d="M 500 -7297 
Q 500 -7263 513 -7250 
L 2119 -3584 
L 513 84 
Q 500 97 500 128 
Q 500 175 537 215 
Q 575 256 628 256 
Q 703 256 750 178 
L 2381 -3541 
Q 2388 -3553 2388 -3584 
Q 2388 -3616 2381 -3634 
L 750 -7347 
Q 700 -7425 628 -7425 
Q 575 -7425 537 -7384 
Q 500 -7344 500 -7297 
z
" transform="scale(0.015625)"/>
      <path id="STIXGeneral-Regular-2c" d="M 531 -902 
L 467 -781 
Q 998 -422 998 -96 
Q 998 -13 909 -13 
Q 883 -13 822 -25 
Q 762 -38 723 -38 
Q 352 -38 352 288 
Q 352 454 457 553 
Q 563 653 736 653 
Q 954 653 1101 496 
Q 1248 339 1248 96 
Q 1248 -198 1053 -473 
Q 858 -749 531 -902 
z
" transform="scale(0.015625)"/>
      <path id="Cmmi10-b0" d="M 1888 -1253 
Q 1888 -1109 1952 -834 
Q 2016 -559 2108 -248 
Q 2200 63 2266 263 
Q 2291 581 2291 744 
Q 2291 1156 2209 1511 
Q 2128 1866 1903 2105 
Q 1678 2344 1275 2344 
Q 1063 2344 852 2253 
Q 641 2163 489 2000 
Q 338 1838 281 1631 
Q 269 1594 231 1594 
L 153 1594 
Q 103 1594 103 1650 
L 103 1672 
Q 175 1959 358 2226 
Q 541 2494 805 2661 
Q 1069 2828 1363 2828 
Q 1663 2828 1881 2625 
Q 2100 2422 2231 2109 
Q 2363 1797 2420 1478 
Q 2478 1159 2478 878 
Q 2800 1753 3200 2534 
L 3297 2741 
Q 3316 2759 3341 2759 
L 3419 2759 
Q 3469 2759 3469 2700 
Q 3469 2688 3456 2663 
L 3359 2463 
Q 3081 1909 2848 1340 
Q 2616 772 2450 244 
Q 2425 28 2354 -347 
Q 2284 -722 2184 -1045 
Q 2084 -1369 1984 -1381 
Q 1888 -1381 1888 -1253 
z
" transform="scale(0.015625)"/>
      <path id="STIXGeneral-Regular-29" d="M 186 4224 
L 262 4326 
Q 992 3891 1408 3148 
Q 1824 2406 1824 1581 
Q 1824 -166 243 -1133 
L 186 -1030 
Q 845 -486 1059 54 
Q 1274 595 1274 1562 
Q 1274 2534 1059 3120 
Q 845 3706 186 4224 
z
" transform="scale(0.015625)"/>
     </defs>
     <use xlink:href="#STIXGeneral-Regular-4d" transform="translate(0 0.658854)"/>
     <use xlink:href="#STIXGeneral-Regular-65" transform="translate(88.899994 0.658854)"/>
     <use xlink:href="#STIXGeneral-Regular-61" transform="translate(133.299988 0.658854)"/>
     <use xlink:href="#STIXGeneral-Regular-6e" transform="translate(177.699982 0.658854)"/>
     <use xlink:href="#STIXGeneral-Regular-20" transform="translate(227.699966 0.658854)"/>
     <use xlink:href="#STIXGeneral-Regular-76" transform="translate(252.699951 0.658854)"/>
     <use xlink:href="#STIXGeneral-Regular-73" transform="translate(302.699936 0.658854)"/>
     <use xlink:href="#STIXGeneral-Regular-20" transform="translate(341.59993 0.658854)"/>
     <use xlink:href="#STIXGeneral-Regular-54" transform="translate(366.599915 0.658854)"/>
     <use xlink:href="#STIXGeneral-Regular-69" transform="translate(427.699905 0.658854)"/>
     <use xlink:href="#STIXGeneral-Regular-6d" transform="translate(455.499893 0.658854)"/>
     <use xlink:href="#STIXGeneral-Regular-65" transform="translate(533.299881 0.658854)"/>
     <use xlink:href="#STIXGeneral-Regular-20" transform="translate(577.699875 0.658854)"/>
     <use xlink:href="#STIXGeneral-Regular-28" transform="translate(602.69986 0.658854)"/>
     <use xlink:href="#Cmsy10-6a" transform="translate(635.999847 0.658854)"/>
     <use xlink:href="#Cmmi10-6e" transform="translate(663.685394 0.658854)"/>
     <use xlink:href="#Cmr10-3d" transform="translate(741.253754 0.658854)"/>
     <use xlink:href="#Cmr10-31" transform="translate(836.497894 0.658854)"/>
     <use xlink:href="#Cmex10-ae" transform="translate(886.497894 94)"/>
     <use xlink:href="#STIXGeneral-Regular-2c" transform="translate(933.714691 0.658854)"/>
     <use xlink:href="#STIXGeneral-Regular-20" transform="translate(958.714676 0.658854)"/>
     <use xlink:href="#Cmmi10-b0" transform="translate(983.714661 0.658854)"/>
     <use xlink:href="#Cmr10-3d" transform="translate(1052.982239 0.658854)"/>
     <use xlink:href="#Cmr10-31" transform="translate(1148.226379 0.658854)"/>
     <use xlink:href="#STIXGeneral-Regular-29" transform="translate(1198.226379 0.658854)"/>
    </g>
   </g>
   <g id="line2d_115">
    <path d="M 57.722727 41.494107 
L 61.983818 55.693502 
L 66.244909 69.11959 
L 70.506 81.814484 
L 74.767091 93.818006 
L 79.028182 105.167808 
L 83.289273 115.899491 
L 87.626455 126.222797 
L 91.963636 135.974125 
L 96.300818 145.185168 
L 100.714091 154.034117 
L 105.127364 162.38443 
L 109.540636 170.2642 
L 114.03 177.82441 
L 118.519364 184.951476 
L 123.084818 191.780702 
L 127.650273 198.212225 
L 132.291818 204.367096 
L 136.933364 210.15774 
L 141.651 215.692275 
L 146.444727 220.975387 
L 151.314545 226.012194 
L 156.260455 230.808212 
L 161.282455 235.369305 
L 166.380545 239.70162 
L 171.630818 243.869993 
L 176.957182 247.814877 
L 182.435727 251.594403 
L 188.066455 255.205484 
L 193.773273 258.602634 
L 199.708364 261.875546 
L 205.795636 264.97745 
L 212.111182 267.943849 
L 218.655 270.768463 
L 225.427091 273.446763 
L 232.427455 275.975843 
L 239.732182 278.378195 
L 247.417364 280.668685 
L 255.406909 282.8169 
L 263.853 284.85551 
L 272.755636 286.772893 
L 282.190909 288.574423 
L 292.158818 290.249947 
L 302.811545 291.813842 
L 314.301273 293.272396 
L 326.628 294.610707 
L 340.02 295.83883 
L 354.705545 296.958973 
L 370.912909 297.968416 
L 389.022545 298.86905 
L 409.491 299.659573 
L 433.079182 300.342265 
L 438.177273 300.464 
L 438.177273 300.464 
" clip-path="url(#p9817f76b4f)" style="fill: none; stroke-dasharray: 9.62,4.16; stroke-dashoffset: 0; stroke: #1f77b4; stroke-width: 2.6"/>
    <defs>
     <path id="m4deee2c257" d="M 0 -1.8 
L -1.8 1.8 
L 1.8 1.8 
z
" style="stroke: #1f77b4; stroke-linejoin: miter"/>
    </defs>
    <g clip-path="url(#p9817f76b4f)">
     <use xlink:href="#m4deee2c257" x="57.722727" y="41.494107" style="fill: #1f77b4; stroke: #1f77b4; stroke-linejoin: miter"/>
     <use xlink:href="#m4deee2c257" x="88.159091" y="127.45048" style="fill: #1f77b4; stroke: #1f77b4; stroke-linejoin: miter"/>
     <use xlink:href="#m4deee2c257" x="118.595455" y="185.068686" style="fill: #1f77b4; stroke: #1f77b4; stroke-linejoin: miter"/>
     <use xlink:href="#m4deee2c257" x="149.031818" y="223.691295" style="fill: #1f77b4; stroke: #1f77b4; stroke-linejoin: miter"/>
     <use xlink:href="#m4deee2c257" x="179.468182" y="249.580972" style="fill: #1f77b4; stroke: #1f77b4; stroke-linejoin: miter"/>
     <use xlink:href="#m4deee2c257" x="209.904545" y="266.935264" style="fill: #1f77b4; stroke: #1f77b4; stroke-linejoin: miter"/>
     <use xlink:href="#m4deee2c257" x="240.340909" y="278.568175" style="fill: #1f77b4; stroke: #1f77b4; stroke-linejoin: miter"/>
     <use xlink:href="#m4deee2c257" x="270.777273" y="286.365983" style="fill: #1f77b4; stroke: #1f77b4; stroke-linejoin: miter"/>
     <use xlink:href="#m4deee2c257" x="301.213636" y="291.592984" style="fill: #1f77b4; stroke: #1f77b4; stroke-linejoin: miter"/>
     <use xlink:href="#m4deee2c257" x="331.65" y="295.096752" style="fill: #1f77b4; stroke: #1f77b4; stroke-linejoin: miter"/>
     <use xlink:href="#m4deee2c257" x="362.086364" y="297.445397" style="fill: #1f77b4; stroke: #1f77b4; stroke-linejoin: miter"/>
     <use xlink:href="#m4deee2c257" x="392.522727" y="299.019736" style="fill: #1f77b4; stroke: #1f77b4; stroke-linejoin: miter"/>
     <use xlink:href="#m4deee2c257" x="422.959091" y="300.07505" style="fill: #1f77b4; stroke: #1f77b4; stroke-linejoin: miter"/>
    </g>
   </g>
   <g id="line2d_116">
    <path d="M 57.722727 41.494107 
L 61.983818 55.693505 
L 66.244909 69.119592 
L 70.506 81.814483 
L 74.767091 93.817999 
L 79.028182 105.167793 
L 83.289273 115.899467 
L 87.626455 126.222772 
L 91.963636 135.974104 
L 96.300818 145.185154 
L 100.714091 154.034118 
L 105.127364 162.384443 
L 109.540636 170.264226 
L 114.03 177.824442 
L 118.519364 184.951509 
L 123.084818 191.780738 
L 127.650273 198.212264 
L 132.291818 204.367149 
L 136.933364 210.157808 
L 141.651 215.692367 
L 146.444727 220.97549 
L 151.314545 226.01229 
L 156.260455 230.808282 
L 161.282455 235.369335 
L 166.380545 239.701627 
L 171.630818 243.869985 
L 176.957182 247.814858 
L 182.435727 251.594386 
L 188.066455 255.205479 
L 193.773273 258.602639 
L 199.708364 261.875549 
L 205.795636 264.977436 
L 212.111182 267.943824 
L 218.655 270.76844 
L 225.427091 273.446744 
L 232.427455 275.975831 
L 239.732182 278.378186 
L 247.417364 280.668669 
L 255.406909 282.816883 
L 263.853 284.855478 
L 272.755636 286.772862 
L 282.190909 288.574397 
L 292.158818 290.249927 
L 302.811545 291.813817 
L 314.301273 293.272373 
L 326.628 294.610682 
L 340.02 295.838811 
L 354.705545 296.958957 
L 370.912909 297.9684 
L 389.022545 298.869037 
L 409.491 299.659562 
L 433.079182 300.342255 
L 438.177273 300.463991 
L 438.177273 300.463991 
" clip-path="url(#p9817f76b4f)" style="fill: none; stroke: #000000; stroke-width: 2.3; stroke-linecap: square"/>
   </g>
   <g id="legend_1">
    <g id="line2d_117">
     <path d="M 349.585625 39.03 
L 360.585625 39.03 
L 371.585625 39.03 
" style="fill: none; stroke: #000000; stroke-width: 2.3; stroke-linecap: square"/>
    </g>
    <g id="text_16">
     <!-- Exact -->
     <g transform="translate(380.385625 42.88) scale(0.11 -0.11)">
      <defs>
       <path id="STIXGeneral-Regular-45" d="M 3821 1082 
L 3526 0 
L 77 0 
L 77 122 
Q 442 147 538 252 
Q 634 358 634 730 
L 634 3520 
Q 634 3878 534 3987 
Q 435 4096 77 4115 
L 77 4237 
L 3469 4237 
L 3494 3322 
L 3334 3322 
Q 3264 3750 3085 3872 
Q 2906 3994 2349 3994 
L 1510 3994 
Q 1370 3994 1328 3952 
Q 1286 3910 1286 3763 
L 1286 2355 
L 2253 2355 
Q 2656 2355 2787 2470 
Q 2918 2586 2976 2970 
L 3123 2970 
L 3123 1472 
L 2976 1472 
Q 2918 1875 2790 1984 
Q 2662 2093 2253 2093 
L 1286 2093 
L 1286 538 
Q 1286 346 1420 291 
Q 1555 237 1933 237 
L 2163 237 
Q 2848 237 3136 403 
Q 3424 570 3642 1082 
L 3821 1082 
z
" transform="scale(0.015625)"/>
       <path id="STIXGeneral-Regular-78" d="M 3066 0 
L 1779 0 
L 1779 96 
Q 1939 109 1987 137 
Q 2035 166 2035 250 
Q 2035 307 1997 365 
L 1414 1261 
L 909 474 
Q 781 275 781 211 
Q 781 96 1037 96 
L 1037 0 
L 109 0 
L 109 96 
Q 269 109 355 169 
Q 442 230 576 422 
L 1306 1478 
L 704 2400 
Q 557 2624 454 2704 
Q 352 2784 211 2784 
L 154 2784 
L 154 2880 
L 1478 2880 
L 1478 2784 
Q 1203 2778 1203 2643 
Q 1203 2509 1498 2074 
Q 1581 1958 1587 1946 
Q 1619 1990 1779 2227 
Q 1811 2285 1856 2349 
Q 1901 2413 1923 2451 
Q 1946 2490 1971 2528 
Q 1997 2566 2006 2595 
Q 2016 2624 2016 2643 
Q 2016 2765 1760 2784 
L 1760 2880 
L 2771 2880 
L 2771 2784 
Q 2445 2771 2253 2502 
L 1722 1734 
L 2541 480 
Q 2790 96 3066 96 
L 3066 0 
z
" transform="scale(0.015625)"/>
      </defs>
      <use xlink:href="#STIXGeneral-Regular-45"/>
      <use xlink:href="#STIXGeneral-Regular-78" transform="translate(61.099991 0)"/>
      <use xlink:href="#STIXGeneral-Regular-61" transform="translate(111.099976 0)"/>
      <use xlink:href="#STIXGeneral-Regular-63" transform="translate(155.499969 0)"/>
      <use xlink:href="#STIXGeneral-Regular-74" transform="translate(199.899963 0)"/>
     </g>
    </g>
    <g id="line2d_118">
     <path d="M 349.585625 54.617344 
L 360.585625 54.617344 
L 371.585625 54.617344 
" style="fill: none; stroke-dasharray: 9.62,4.16; stroke-dashoffset: 0; stroke: #1f77b4; stroke-width: 2.6"/>
     <g>
      <use xlink:href="#m4deee2c257" x="360.585625" y="54.617344" style="fill: #1f77b4; stroke: #1f77b4; stroke-linejoin: miter"/>
     </g>
    </g>
    <g id="text_17">
     <!-- Density Matrix -->
     <g transform="translate(380.385625 58.467344) scale(0.11 -0.11)">
      <defs>
       <path id="STIXGeneral-Regular-44" d="M 102 4237 
L 1830 4237 
Q 3078 4237 3750 3654 
Q 4384 3110 4384 2138 
Q 4384 966 3514 410 
Q 2880 0 1901 0 
L 102 0 
L 102 122 
Q 474 147 570 252 
Q 666 358 666 736 
L 666 3520 
Q 666 3891 570 3990 
Q 474 4090 102 4115 
L 102 4237 
z
M 1318 3731 
L 1318 538 
Q 1318 365 1379 301 
Q 1440 237 1626 237 
Q 2125 237 2432 307 
Q 2739 378 3021 570 
Q 3686 1018 3686 2099 
Q 3686 3027 3078 3558 
Q 2803 3802 2476 3901 
Q 2150 4000 1658 4000 
Q 1472 4000 1395 3942 
Q 1318 3885 1318 3731 
z
" transform="scale(0.015625)"/>
       <path id="STIXGeneral-Regular-79" d="M 3040 2880 
L 3040 2784 
Q 2925 2771 2854 2700 
Q 2784 2630 2720 2458 
L 1760 -160 
Q 1510 -838 1257 -1116 
Q 1005 -1395 640 -1395 
Q 435 -1395 313 -1289 
Q 192 -1184 192 -1024 
Q 192 -902 272 -816 
Q 352 -730 467 -730 
Q 653 -730 800 -813 
Q 883 -858 966 -858 
Q 1101 -858 1286 -576 
Q 1376 -448 1459 -211 
Q 1542 26 1542 115 
Q 1542 198 1274 762 
L 429 2566 
Q 346 2752 90 2790 
L 90 2880 
L 1402 2880 
L 1402 2784 
Q 1197 2778 1117 2739 
Q 1037 2701 1037 2611 
Q 1037 2541 1120 2349 
L 1837 749 
L 2458 2515 
Q 2483 2573 2483 2630 
Q 2483 2784 2189 2784 
L 2189 2880 
L 3040 2880 
z
" transform="scale(0.015625)"/>
      </defs>
      <use xlink:href="#STIXGeneral-Regular-44"/>
      <use xlink:href="#STIXGeneral-Regular-65" transform="translate(72.199982 0)"/>
      <use xlink:href="#STIXGeneral-Regular-6e" transform="translate(116.599976 0)"/>
      <use xlink:href="#STIXGeneral-Regular-73" transform="translate(166.59996 0)"/>
      <use xlink:href="#STIXGeneral-Regular-69" transform="translate(205.499954 0)"/>
      <use xlink:href="#STIXGeneral-Regular-74" transform="translate(233.299942 0)"/>
      <use xlink:href="#STIXGeneral-Regular-79" transform="translate(261.09993 0)"/>
      <use xlink:href="#STIXGeneral-Regular-20" transform="translate(311.099915 0)"/>
      <use xlink:href="#STIXGeneral-Regular-4d" transform="translate(336.099899 0)"/>
      <use xlink:href="#STIXGeneral-Regular-61" transform="translate(424.999893 0)"/>
      <use xlink:href="#STIXGeneral-Regular-74" transform="translate(469.399887 0)"/>
      <use xlink:href="#STIXGeneral-Regular-72" transform="translate(497.199875 0)"/>
      <use xlink:href="#STIXGeneral-Regular-69" transform="translate(530.499863 0)"/>
      <use xlink:href="#STIXGeneral-Regular-78" transform="translate(558.29985 0)"/>
     </g>
    </g>
    <g id="line2d_119">
     <path d="M 349.585625 70.215 
L 360.585625 70.215 
L 371.585625 70.215 
" style="fill: none; stroke-dasharray: 16,4,2.5,4; stroke-dashoffset: 0; stroke: #ff7f0e; stroke-width: 2.5"/>
     <g>
      <use xlink:href="#m36333b10f7" x="360.585625" y="70.215" style="fill: #ff7f0e; stroke: #ff7f0e"/>
     </g>
    </g>
    <g id="text_18">
     <!-- Monte Carlo -->
     <g transform="translate(380.385625 74.065) scale(0.11 -0.11)">
      <defs>
       <path id="STIXGeneral-Regular-6f" d="M 3008 1478 
Q 3008 806 2608 371 
Q 2208 -64 1568 -64 
Q 979 -64 582 368 
Q 186 800 186 1459 
Q 186 2125 582 2534 
Q 979 2944 1626 2944 
Q 2221 2944 2614 2537 
Q 3008 2131 3008 1478 
z
M 2432 1306 
Q 2432 2035 2112 2445 
Q 1856 2765 1504 2765 
Q 1171 2765 966 2493 
Q 762 2221 762 1747 
Q 762 928 1101 435 
Q 1318 115 1677 115 
Q 2029 115 2230 432 
Q 2432 749 2432 1306 
z
" transform="scale(0.015625)"/>
       <path id="STIXGeneral-Regular-43" d="M 3930 838 
L 4051 723 
Q 3482 -90 2304 -90 
Q 1376 -90 794 480 
Q 179 1082 179 2080 
Q 179 3014 755 3661 
Q 1357 4326 2310 4326 
Q 2720 4326 3072 4230 
Q 3475 4115 3514 4115 
Q 3725 4115 3782 4326 
L 3910 4326 
L 3968 2874 
L 3821 2874 
Q 3718 3334 3488 3584 
Q 3034 4070 2458 4070 
Q 1747 4070 1334 3548 
Q 922 3027 922 2182 
Q 922 1152 1382 653 
Q 1811 192 2522 192 
Q 2944 192 3251 339 
Q 3558 486 3930 838 
z
" transform="scale(0.015625)"/>
      </defs>
      <use xlink:href="#STIXGeneral-Regular-4d"/>
      <use xlink:href="#STIXGeneral-Regular-6f" transform="translate(88.899994 0)"/>
      <use xlink:href="#STIXGeneral-Regular-6e" transform="translate(138.899979 0)"/>
      <use xlink:href="#STIXGeneral-Regular-74" transform="translate(188.899963 0)"/>
      <use xlink:href="#STIXGeneral-Regular-65" transform="translate(216.699951 0)"/>
      <use xlink:href="#STIXGeneral-Regular-20" transform="translate(261.099945 0)"/>
      <use xlink:href="#STIXGeneral-Regular-43" transform="translate(286.09993 0)"/>
      <use xlink:href="#STIXGeneral-Regular-61" transform="translate(352.799927 0)"/>
      <use xlink:href="#STIXGeneral-Regular-72" transform="translate(397.199921 0)"/>
      <use xlink:href="#STIXGeneral-Regular-6c" transform="translate(430.499908 0)"/>
      <use xlink:href="#STIXGeneral-Regular-6f" transform="translate(458.299896 0)"/>
     </g>
    </g>
    <g id="line2d_120">
     <path d="M 349.585625 85.802344 
L 360.585625 85.802344 
L 371.585625 85.802344 
" style="fill: none; stroke-dasharray: 2.7,4.455; stroke-dashoffset: 0; stroke: #2ca02c; stroke-width: 2.7"/>
     <g>
      <use xlink:href="#mf84ee2d080" x="360.585625" y="85.802344" style="fill: #2ca02c; stroke: #2ca02c; stroke-linejoin: miter"/>
     </g>
    </g>
    <g id="text_19">
     <!-- Positive-P -->
     <g transform="translate(380.385625 89.652344) scale(0.11 -0.11)">
      <defs>
       <path id="STIXGeneral-Regular-2d" d="M 1824 1242 
L 250 1242 
L 250 1645 
L 1824 1645 
L 1824 1242 
z
" transform="scale(0.015625)"/>
      </defs>
      <use xlink:href="#STIXGeneral-Regular-50"/>
      <use xlink:href="#STIXGeneral-Regular-6f" transform="translate(55.699997 0)"/>
      <use xlink:href="#STIXGeneral-Regular-73" transform="translate(105.699982 0)"/>
      <use xlink:href="#STIXGeneral-Regular-69" transform="translate(144.599976 0)"/>
      <use xlink:href="#STIXGeneral-Regular-74" transform="translate(172.399963 0)"/>
      <use xlink:href="#STIXGeneral-Regular-69" transform="translate(200.199951 0)"/>
      <use xlink:href="#STIXGeneral-Regular-76" transform="translate(227.999939 0)"/>
      <use xlink:href="#STIXGeneral-Regular-65" transform="translate(277.999924 0)"/>
      <use xlink:href="#STIXGeneral-Regular-2d" transform="translate(322.399918 0)"/>
      <use xlink:href="#STIXGeneral-Regular-50" transform="translate(355.699905 0)"/>
     </g>
    </g>
   </g>
  </g>
 </g>
 <defs>
  <clipPath id="p9817f76b4f">
   <rect x="38.7" y="25.28" width="418.5" height="288.288"/>
  </clipPath>
 </defs>
</svg>
